%TF.GenerationSoftware,KiCad,Pcbnew,10.0.2*%
%TF.CreationDate,2026-05-17T22:33:00+02:00*%
%TF.ProjectId,kik_panel,6b696b5f-7061-46e6-956c-2e6b69636164,rev?*%
%TF.SameCoordinates,Original*%
%TF.FileFunction,Drillmap*%
%TF.FilePolarity,Positive*%
%FSLAX45Y45*%
G04 Gerber Fmt 4.5, Leading zero omitted, Abs format (unit mm)*
G04 Created by KiCad (PCBNEW 10.0.2) date 2026-05-17 22:33:00*
%MOMM*%
%LPD*%
G01*
G04 APERTURE LIST*
%ADD10C,0.100000*%
%ADD11C,0.200000*%
%ADD12C,0.115200*%
%ADD13C,0.320000*%
G04 APERTURE END LIST*
D10*
X0Y-199900D02*
X0Y-500000D01*
X0Y-500000D02*
X1349900Y-500000D01*
X0Y-1100000D02*
X0Y-6900000D01*
X0Y-6900000D02*
X513Y-6920260D01*
X0Y-7900000D02*
X0Y-13700000D01*
X0Y-13700000D02*
X513Y-13720260D01*
X0Y-14300000D02*
X0Y-14600100D01*
X0Y-14600100D02*
X199900Y-14800000D01*
X513Y-1079740D02*
X0Y-1100000D01*
X513Y-6920260D02*
X2052Y-6940467D01*
X513Y-7879740D02*
X0Y-7900000D01*
X513Y-13720260D02*
X2052Y-13740467D01*
X2052Y-1059533D02*
X513Y-1079740D01*
X2052Y-6940467D02*
X4613Y-6960571D01*
X2052Y-7859533D02*
X513Y-7879740D01*
X2052Y-13740467D02*
X4613Y-13760571D01*
X4613Y-1039429D02*
X2052Y-1059533D01*
X4613Y-6960571D02*
X8188Y-6980519D01*
X4613Y-7839429D02*
X2052Y-7859533D01*
X4613Y-13760571D02*
X8188Y-13780519D01*
X8188Y-1019480D02*
X4613Y-1039429D01*
X8188Y-6980519D02*
X12769Y-7000261D01*
X8188Y-7819480D02*
X4613Y-7839429D01*
X8188Y-13780519D02*
X12769Y-13800261D01*
X12769Y-999739D02*
X8188Y-1019480D01*
X12769Y-7000261D02*
X18344Y-7019745D01*
X12769Y-7799739D02*
X8188Y-7819480D01*
X12769Y-13800261D02*
X18344Y-13819745D01*
X18344Y-980255D02*
X12769Y-999739D01*
X18344Y-7019745D02*
X24899Y-7038922D01*
X18344Y-7780255D02*
X12769Y-7799739D01*
X18344Y-13819745D02*
X24899Y-13838922D01*
X24899Y-961078D02*
X18344Y-980255D01*
X24899Y-7038922D02*
X32417Y-7057742D01*
X24899Y-7761078D02*
X18344Y-7780255D01*
X24899Y-13838922D02*
X32417Y-13857742D01*
X32417Y-942258D02*
X24899Y-961078D01*
X32417Y-7057742D02*
X40878Y-7076158D01*
X32417Y-7742258D02*
X24899Y-7761078D01*
X32417Y-13857742D02*
X40878Y-13876158D01*
X40878Y-923842D02*
X32417Y-942258D01*
X40878Y-7076158D02*
X50261Y-7094121D01*
X40878Y-7723842D02*
X32417Y-7742258D01*
X40878Y-13876158D02*
X50261Y-13894121D01*
X50261Y-905879D02*
X40878Y-923842D01*
X50261Y-7094121D02*
X60542Y-7111586D01*
X50261Y-7705879D02*
X40878Y-7723842D01*
X50261Y-13894121D02*
X60542Y-13911586D01*
X60542Y-888414D02*
X50261Y-905879D01*
X60542Y-7111586D02*
X71695Y-7128507D01*
X60542Y-7688414D02*
X50261Y-7705879D01*
X60542Y-13911586D02*
X71695Y-13928507D01*
X71695Y-871493D02*
X60542Y-888414D01*
X71695Y-7128507D02*
X83690Y-7144842D01*
X71695Y-7671493D02*
X60542Y-7688414D01*
X71695Y-13928507D02*
X83690Y-13944842D01*
X83690Y-855158D02*
X71695Y-871493D01*
X83690Y-7144842D02*
X96497Y-7160549D01*
X83690Y-7655158D02*
X71695Y-7671493D01*
X83690Y-13944842D02*
X96497Y-13960549D01*
X96497Y-839451D02*
X83690Y-855158D01*
X96497Y-7160549D02*
X110083Y-7175587D01*
X96497Y-7639451D02*
X83690Y-7655158D01*
X96497Y-13960549D02*
X110083Y-13975587D01*
X110083Y-824413D02*
X96497Y-839451D01*
X110083Y-7175587D02*
X124413Y-7189917D01*
X110083Y-7624413D02*
X96497Y-7639451D01*
X110083Y-13975587D02*
X124413Y-13989917D01*
X124413Y-810083D02*
X110083Y-824413D01*
X124413Y-7189917D02*
X139451Y-7203503D01*
X124413Y-7610083D02*
X110083Y-7624413D01*
X124413Y-13989917D02*
X139451Y-14003503D01*
X139451Y-796497D02*
X124413Y-810083D01*
X139451Y-7203503D02*
X155158Y-7216310D01*
X139451Y-7596497D02*
X124413Y-7610083D01*
X139451Y-14003503D02*
X155158Y-14016310D01*
X155158Y-783690D02*
X139451Y-796497D01*
X155158Y-7216310D02*
X171493Y-7228305D01*
X155158Y-7583690D02*
X139451Y-7596497D01*
X155158Y-14016310D02*
X171493Y-14028305D01*
X171493Y-771695D02*
X155158Y-783690D01*
X171493Y-7228305D02*
X188414Y-7239458D01*
X171493Y-7571695D02*
X155158Y-7583690D01*
X171493Y-14028305D02*
X188414Y-14039458D01*
X188414Y-760542D02*
X171493Y-771695D01*
X188414Y-7239458D02*
X205879Y-7249739D01*
X188414Y-7560542D02*
X171493Y-7571695D01*
X188414Y-14039458D02*
X205879Y-14049739D01*
X199900Y0D02*
X0Y-199900D01*
X199900Y-14800000D02*
X20100100Y-14800000D01*
X205879Y-750261D02*
X188414Y-760542D01*
X205879Y-7249739D02*
X223842Y-7259122D01*
X205879Y-7550261D02*
X188414Y-7560542D01*
X205879Y-14049739D02*
X223842Y-14059122D01*
X223842Y-740878D02*
X205879Y-750261D01*
X223842Y-7259122D02*
X242258Y-7267583D01*
X223842Y-7540878D02*
X205879Y-7550261D01*
X223842Y-14059122D02*
X242258Y-14067583D01*
X242258Y-732417D02*
X223842Y-740878D01*
X242258Y-7267583D02*
X261078Y-7275101D01*
X242258Y-7532417D02*
X223842Y-7540878D01*
X242258Y-14067583D02*
X261078Y-14075101D01*
X261078Y-724899D02*
X242258Y-732417D01*
X261078Y-7275101D02*
X280255Y-7281656D01*
X261078Y-7524899D02*
X242258Y-7532417D01*
X261078Y-14075101D02*
X280255Y-14081656D01*
X280255Y-718344D02*
X261078Y-724899D01*
X280255Y-7281656D02*
X299739Y-7287231D01*
X280255Y-7518344D02*
X261078Y-7524899D01*
X280255Y-14081656D02*
X299739Y-14087231D01*
X299739Y-712769D02*
X280255Y-718344D01*
X299739Y-7287231D02*
X319481Y-7291812D01*
X299739Y-7512769D02*
X280255Y-7518344D01*
X299739Y-14087231D02*
X319481Y-14091812D01*
X319481Y-708188D02*
X299739Y-712769D01*
X319481Y-7291812D02*
X339429Y-7295387D01*
X319481Y-7508188D02*
X299739Y-7512769D01*
X319481Y-14091812D02*
X339429Y-14095387D01*
X339429Y-704613D02*
X319481Y-708188D01*
X339429Y-7295387D02*
X359533Y-7297948D01*
X339429Y-7504613D02*
X319481Y-7508188D01*
X339429Y-14095387D02*
X359533Y-14097948D01*
X359533Y-702052D02*
X339429Y-704613D01*
X359533Y-7297948D02*
X379740Y-7299487D01*
X359533Y-7502052D02*
X339429Y-7504613D01*
X359533Y-14097948D02*
X379740Y-14099487D01*
X379740Y-700513D02*
X359533Y-702052D01*
X379740Y-7299487D02*
X400000Y-7300000D01*
X379740Y-7500513D02*
X359533Y-7502052D01*
X379740Y-14099487D02*
X400000Y-14100000D01*
X400000Y-700000D02*
X379740Y-700513D01*
X400000Y-7300000D02*
X1349900Y-7300000D01*
X400000Y-7500000D02*
X379740Y-7500513D01*
X400000Y-14100000D02*
X1349900Y-14100000D01*
X1349900Y-500000D02*
X1357349Y-500371D01*
X1349900Y-700000D02*
X400000Y-700000D01*
X1349900Y-7300000D02*
X1359719Y-7300574D01*
X1349900Y-7500000D02*
X400000Y-7500000D01*
X1349900Y-14100000D02*
X1359792Y-14100581D01*
X1349900Y-14300000D02*
X0Y-14300000D01*
X1357349Y-500371D02*
X1362229Y-500851D01*
X1357349Y-14299629D02*
X1349900Y-14300000D01*
X1359719Y-7300574D02*
X1366952Y-7301549D01*
X1359792Y-699419D02*
X1349900Y-700000D01*
X1359792Y-7499419D02*
X1349900Y-7500000D01*
X1359792Y-14100581D02*
X1364658Y-14101181D01*
X1362229Y-500851D02*
X1367079Y-501571D01*
X1362229Y-14299149D02*
X1357349Y-14299629D01*
X1364658Y-698819D02*
X1359792Y-699419D01*
X1364658Y-7498819D02*
X1359792Y-7499419D01*
X1364658Y-14101181D02*
X1369490Y-14102019D01*
X1366952Y-7301549D02*
X1371727Y-7302491D01*
X1367079Y-501571D02*
X1371888Y-502527D01*
X1367079Y-14298429D02*
X1362229Y-14299149D01*
X1369490Y-697980D02*
X1364658Y-698819D01*
X1369490Y-7497980D02*
X1364658Y-7498819D01*
X1369490Y-14102019D02*
X1374274Y-14103094D01*
X1371727Y-7302491D02*
X1376449Y-7303665D01*
X1371888Y-502527D02*
X1376645Y-503719D01*
X1374274Y-696906D02*
X1369490Y-697980D01*
X1374274Y-7496906D02*
X1369490Y-7497980D01*
X1374274Y-14103094D02*
X1378999Y-14104402D01*
X1374274Y-14296906D02*
X1367079Y-14298429D01*
X1376449Y-7303665D02*
X1381110Y-7305067D01*
X1376645Y-503719D02*
X1383655Y-505940D01*
X1378999Y-695598D02*
X1374274Y-696906D01*
X1378999Y-7495598D02*
X1374274Y-7496906D01*
X1378999Y-14104402D02*
X1383655Y-14105940D01*
X1378999Y-14295598D02*
X1374274Y-14296906D01*
X1381110Y-7305067D02*
X1385696Y-7306695D01*
X1383655Y-505940D02*
X1388230Y-507704D01*
X1383655Y-694060D02*
X1378999Y-695598D01*
X1383655Y-7494060D02*
X1378999Y-7495598D01*
X1383655Y-14105940D02*
X1388230Y-14107704D01*
X1383655Y-14294060D02*
X1378999Y-14295598D01*
X1385696Y-7306695D02*
X1390197Y-7308544D01*
X1388230Y-507704D02*
X1392713Y-509691D01*
X1388230Y-692296D02*
X1383655Y-694060D01*
X1388230Y-7492295D02*
X1383655Y-7494060D01*
X1388230Y-14107704D02*
X1392713Y-14109691D01*
X1388230Y-14292295D02*
X1383655Y-14294060D01*
X1390197Y-7308544D02*
X1394604Y-7310610D01*
X1392713Y-509691D02*
X1397093Y-511896D01*
X1392713Y-14109691D02*
X1397093Y-14111896D01*
X1392713Y-14290308D02*
X1388230Y-14292295D01*
X1394604Y-7310610D02*
X1398904Y-7312888D01*
X1394916Y-689233D02*
X1388230Y-692296D01*
X1394916Y-7489233D02*
X1388230Y-7492295D01*
X1397093Y-511896D02*
X1401359Y-514313D01*
X1397093Y-14111896D02*
X1403446Y-14115599D01*
X1398904Y-7312888D02*
X1403088Y-7315373D01*
X1399240Y-686922D02*
X1394916Y-689233D01*
X1399240Y-7486922D02*
X1394916Y-7489233D01*
X1399240Y-14286922D02*
X1392713Y-14290308D01*
X1401359Y-514313D02*
X1405501Y-516936D01*
X1403088Y-7315373D02*
X1407146Y-7318059D01*
X1403446Y-684401D02*
X1399240Y-686922D01*
X1403446Y-7484401D02*
X1399240Y-7486922D01*
X1403446Y-14115599D02*
X1407523Y-14118323D01*
X1403446Y-14284401D02*
X1399240Y-14286922D01*
X1405501Y-516936D02*
X1409510Y-519759D01*
X1407146Y-7318059D02*
X1411069Y-7320939D01*
X1407523Y-7481677D02*
X1403446Y-7484401D01*
X1407523Y-14118323D02*
X1411462Y-14121244D01*
X1407523Y-14281677D02*
X1403446Y-14284401D01*
X1409510Y-519759D02*
X1413376Y-522776D01*
X1409510Y-680240D02*
X1403446Y-684401D01*
X1411069Y-7320939D02*
X1414847Y-7324007D01*
X1411462Y-7478756D02*
X1407523Y-7481677D01*
X1411462Y-14121244D02*
X1415252Y-14124355D01*
X1411462Y-14278756D02*
X1407523Y-14281677D01*
X1413376Y-522776D02*
X1417089Y-525979D01*
X1414847Y-7324007D02*
X1418471Y-7327255D01*
X1415252Y-675645D02*
X1409510Y-680240D01*
X1415252Y-14124355D02*
X1418885Y-14127648D01*
X1415252Y-14275645D02*
X1411462Y-14278756D01*
X1417089Y-525979D02*
X1420640Y-529360D01*
X1417089Y-7474021D02*
X1411462Y-7478756D01*
X1418471Y-7327255D02*
X1423599Y-7332449D01*
X1418885Y-672352D02*
X1415252Y-675645D01*
X1418885Y-14127648D02*
X1422352Y-14131115D01*
X1418885Y-14272352D02*
X1415252Y-14275645D01*
X1420640Y-529360D02*
X1424021Y-532911D01*
X1420640Y-7470640D02*
X1417089Y-7474021D01*
X1422352Y-668885D02*
X1418885Y-672352D01*
X1422352Y-14131115D02*
X1425645Y-14134748D01*
X1422352Y-14268885D02*
X1418885Y-14272352D01*
X1423599Y-7332449D02*
X1426802Y-7336113D01*
X1424021Y-532911D02*
X1427224Y-536624D01*
X1424021Y-7467089D02*
X1420640Y-7470640D01*
X1425645Y-665252D02*
X1422352Y-668885D01*
X1425645Y-14134748D02*
X1430240Y-14140490D01*
X1426802Y-7336113D02*
X1429822Y-7339929D01*
X1427224Y-536624D02*
X1430240Y-540490D01*
X1427224Y-7463376D02*
X1424021Y-7467089D01*
X1427224Y-14263376D02*
X1422352Y-14268885D01*
X1428756Y-661462D02*
X1425645Y-665252D01*
X1429822Y-7339929D02*
X1432652Y-7343888D01*
X1430240Y-540490D02*
X1433064Y-544499D01*
X1430240Y-7459510D02*
X1427224Y-7463376D01*
X1430240Y-14140490D02*
X1433064Y-14144498D01*
X1430240Y-14259510D02*
X1427224Y-14263376D01*
X1431677Y-657523D02*
X1428756Y-661462D01*
X1432652Y-7343888D02*
X1435287Y-7347980D01*
X1433064Y-544499D02*
X1435687Y-548641D01*
X1433064Y-7455501D02*
X1430240Y-7459510D01*
X1433064Y-14144498D02*
X1435687Y-14148641D01*
X1433064Y-14255501D02*
X1430240Y-14259510D01*
X1434401Y-653446D02*
X1431677Y-657523D01*
X1435287Y-7347980D02*
X1437719Y-7352195D01*
X1435687Y-548641D02*
X1438104Y-552907D01*
X1435687Y-7451359D02*
X1433064Y-7455501D01*
X1435687Y-14148641D02*
X1438104Y-14152907D01*
X1435687Y-14251359D02*
X1433064Y-14255501D01*
X1437719Y-7352195D02*
X1439943Y-7356523D01*
X1438104Y-552907D02*
X1440308Y-557287D01*
X1438104Y-647093D02*
X1434401Y-653446D01*
X1438104Y-14152907D02*
X1440308Y-14157287D01*
X1438104Y-14247092D02*
X1435687Y-14251359D01*
X1439233Y-7444916D02*
X1435687Y-7451359D01*
X1439943Y-7356523D02*
X1442877Y-7363206D01*
X1440308Y-557287D02*
X1443206Y-564046D01*
X1440308Y-642713D02*
X1438104Y-647093D01*
X1440308Y-14157287D02*
X1442295Y-14161770D01*
X1440308Y-14242713D02*
X1438104Y-14247092D01*
X1441329Y-7440484D02*
X1439233Y-7444916D01*
X1442295Y-638230D02*
X1440308Y-642713D01*
X1442295Y-14161770D02*
X1444060Y-14166345D01*
X1442295Y-14238230D02*
X1440308Y-14242713D01*
X1442877Y-7363206D02*
X1444559Y-7367773D01*
X1443206Y-564046D02*
X1444858Y-568663D01*
X1443206Y-7435953D02*
X1441329Y-7440484D01*
X1444060Y-633655D02*
X1442295Y-638230D01*
X1444060Y-14166345D02*
X1445598Y-14171000D01*
X1444060Y-14233655D02*
X1442295Y-14238230D01*
X1444559Y-7367773D02*
X1446016Y-7372416D01*
X1444858Y-568663D02*
X1446281Y-573355D01*
X1445598Y-628999D02*
X1444060Y-633655D01*
X1445598Y-7428999D02*
X1443206Y-7435953D01*
X1445598Y-14171000D02*
X1446906Y-14175726D01*
X1445598Y-14228999D02*
X1444060Y-14233655D01*
X1446016Y-7372416D02*
X1447246Y-7377125D01*
X1446281Y-573355D02*
X1447473Y-578112D01*
X1446906Y-624274D02*
X1445598Y-628999D01*
X1446906Y-7424274D02*
X1445598Y-7428999D01*
X1446906Y-14175726D02*
X1448429Y-14182921D01*
X1446906Y-14224274D02*
X1445598Y-14228999D01*
X1447246Y-7377125D02*
X1448244Y-7381888D01*
X1447473Y-578112D02*
X1448429Y-582921D01*
X1447980Y-619490D02*
X1446906Y-624274D01*
X1447980Y-7419489D02*
X1446906Y-7424274D01*
X1447980Y-14219489D02*
X1446906Y-14224274D01*
X1448244Y-7381888D02*
X1449010Y-7386694D01*
X1448429Y-582921D02*
X1449149Y-587771D01*
X1448429Y-14182921D02*
X1449149Y-14187771D01*
X1448819Y-614658D02*
X1447980Y-619490D01*
X1448819Y-7414658D02*
X1447980Y-7419489D01*
X1448819Y-14214658D02*
X1447980Y-14219489D01*
X1449010Y-7386694D02*
X1449540Y-7391532D01*
X1449149Y-587771D02*
X1449629Y-592651D01*
X1449149Y-14187771D02*
X1449629Y-14192651D01*
X1449419Y-609792D02*
X1448819Y-614658D01*
X1449419Y-7409792D02*
X1448819Y-7414658D01*
X1449419Y-14209792D02*
X1448819Y-14214658D01*
X1449540Y-7391532D02*
X1449835Y-7396389D01*
X1449629Y-592651D02*
X1449870Y-597548D01*
X1449629Y-14192651D02*
X1449870Y-14197548D01*
X1449835Y-7396389D02*
X1449893Y-7401091D01*
X1449870Y-597548D02*
X1449870Y-602452D01*
X1449870Y-602452D02*
X1449419Y-609792D01*
X1449870Y-14197548D02*
X1449870Y-14202452D01*
X1449870Y-14202452D02*
X1449419Y-14209792D01*
X1449893Y-7401091D02*
X1449419Y-7409792D01*
X1750130Y-597548D02*
X1750371Y-592651D01*
X1750130Y-602452D02*
X1750130Y-597548D01*
X1750130Y-7397548D02*
X1750371Y-7392651D01*
X1750130Y-14197548D02*
X1750371Y-14192651D01*
X1750130Y-14202452D02*
X1750130Y-14197548D01*
X1750165Y-7403611D02*
X1750130Y-7397548D01*
X1750371Y-592651D02*
X1750851Y-587771D01*
X1750371Y-607349D02*
X1750130Y-602452D01*
X1750371Y-7392651D02*
X1750851Y-7387771D01*
X1750371Y-14192651D02*
X1750851Y-14187771D01*
X1750371Y-14207349D02*
X1750130Y-14202452D01*
X1750459Y-7408468D02*
X1750165Y-7403611D01*
X1750851Y-587771D02*
X1751571Y-582921D01*
X1750851Y-7387771D02*
X1751571Y-7382921D01*
X1750851Y-14187771D02*
X1751571Y-14182921D01*
X1750990Y-7413306D02*
X1750459Y-7408468D01*
X1751181Y-614658D02*
X1750371Y-607349D01*
X1751181Y-14214658D02*
X1750371Y-14207349D01*
X1751571Y-582921D02*
X1752527Y-578112D01*
X1751571Y-7382921D02*
X1752527Y-7378112D01*
X1751571Y-14182921D02*
X1752527Y-14178112D01*
X1751755Y-7418112D02*
X1750990Y-7413306D01*
X1752019Y-619490D02*
X1751181Y-614658D01*
X1752019Y-14219489D02*
X1751181Y-14214658D01*
X1752527Y-578112D02*
X1754402Y-571001D01*
X1752527Y-7378112D02*
X1754402Y-7371000D01*
X1752527Y-14178112D02*
X1754402Y-14171000D01*
X1752754Y-7422875D02*
X1751755Y-7418112D01*
X1753094Y-624274D02*
X1752019Y-619490D01*
X1753094Y-14224274D02*
X1752019Y-14219489D01*
X1754402Y-571001D02*
X1755940Y-566345D01*
X1754402Y-628999D02*
X1753094Y-624274D01*
X1754402Y-7371000D02*
X1755940Y-7366345D01*
X1754402Y-14171000D02*
X1756794Y-14164046D01*
X1754402Y-14228999D02*
X1753094Y-14224274D01*
X1754684Y-7429914D02*
X1752754Y-7422875D01*
X1755940Y-566345D02*
X1757704Y-561770D01*
X1755940Y-633655D02*
X1754402Y-628999D01*
X1755940Y-7366345D02*
X1757704Y-7361770D01*
X1755940Y-14233655D02*
X1754402Y-14228999D01*
X1756254Y-7434520D02*
X1754684Y-7429914D01*
X1756794Y-14164046D02*
X1758670Y-14159516D01*
X1757704Y-561770D02*
X1760767Y-555084D01*
X1757704Y-638230D02*
X1755940Y-633655D01*
X1757704Y-7361770D02*
X1760767Y-7355084D01*
X1757704Y-14238230D02*
X1755940Y-14233655D01*
X1758046Y-7439045D02*
X1756254Y-7434520D01*
X1758670Y-14159516D02*
X1760767Y-14155084D01*
X1759691Y-642713D02*
X1757704Y-638230D01*
X1760767Y-555084D02*
X1763078Y-550759D01*
X1760767Y-7355084D02*
X1763078Y-7350759D01*
X1760767Y-14155084D02*
X1763078Y-14150759D01*
X1760767Y-14244916D02*
X1757704Y-14238230D01*
X1761142Y-7445654D02*
X1758046Y-7439045D01*
X1761896Y-647093D02*
X1759691Y-642713D01*
X1763078Y-550759D02*
X1765599Y-546554D01*
X1763078Y-7350759D02*
X1765599Y-7346554D01*
X1763078Y-14150759D02*
X1765599Y-14146554D01*
X1763078Y-14249240D02*
X1760767Y-14244916D01*
X1763471Y-7449927D02*
X1761142Y-7445654D01*
X1764313Y-651359D02*
X1761896Y-647093D01*
X1765599Y-546554D02*
X1769759Y-540490D01*
X1765599Y-7346554D02*
X1768323Y-7342477D01*
X1765599Y-14146554D02*
X1769759Y-14140490D01*
X1766005Y-7454082D02*
X1763471Y-7449927D01*
X1766936Y-655501D02*
X1764313Y-651359D01*
X1766936Y-14255501D02*
X1763078Y-14249240D01*
X1768323Y-7342477D02*
X1771244Y-7338538D01*
X1768739Y-7458109D02*
X1766005Y-7454082D01*
X1769759Y-540490D02*
X1772776Y-536624D01*
X1769759Y-659510D02*
X1766936Y-655501D01*
X1769759Y-14140490D02*
X1772776Y-14136624D01*
X1769759Y-14259510D02*
X1766936Y-14255501D01*
X1771244Y-7338538D02*
X1775979Y-7332911D01*
X1771665Y-7461997D02*
X1768739Y-7458109D01*
X1772776Y-536624D02*
X1775979Y-532911D01*
X1772776Y-663376D02*
X1769759Y-659510D01*
X1772776Y-14136624D02*
X1775979Y-14132911D01*
X1772776Y-14263376D02*
X1769759Y-14259510D01*
X1774777Y-7465738D02*
X1771665Y-7461997D01*
X1775979Y-532911D02*
X1781115Y-527648D01*
X1775979Y-667089D02*
X1772776Y-663376D01*
X1775979Y-7332911D02*
X1779360Y-7329360D01*
X1775979Y-14132911D02*
X1779360Y-14129360D01*
X1775979Y-14267089D02*
X1772776Y-14263376D01*
X1779360Y-670640D02*
X1775979Y-667089D01*
X1779360Y-7329360D02*
X1782911Y-7325979D01*
X1779360Y-14129360D02*
X1782911Y-14125979D01*
X1779360Y-14270640D02*
X1775979Y-14267089D01*
X1779778Y-7471055D02*
X1774777Y-7465738D01*
X1781115Y-527648D02*
X1784748Y-524355D01*
X1782911Y-674021D02*
X1779360Y-670640D01*
X1782911Y-7325979D02*
X1786624Y-7322776D01*
X1782911Y-14125979D02*
X1786624Y-14122776D01*
X1783321Y-7474391D02*
X1779778Y-7471055D01*
X1784748Y-524355D02*
X1788538Y-521244D01*
X1784748Y-14275645D02*
X1779360Y-14270640D01*
X1786624Y-677224D02*
X1782911Y-674021D01*
X1786624Y-7322776D02*
X1790490Y-7319759D01*
X1786624Y-14122776D02*
X1790490Y-14119759D01*
X1787023Y-7477550D02*
X1783321Y-7474391D01*
X1788538Y-521244D02*
X1792477Y-518323D01*
X1788538Y-14278756D02*
X1784748Y-14275645D01*
X1790490Y-680240D02*
X1786624Y-677224D01*
X1790490Y-7319759D02*
X1794498Y-7316936D01*
X1790490Y-14119759D02*
X1794498Y-14116936D01*
X1790875Y-7480524D02*
X1787023Y-7477550D01*
X1792477Y-518323D02*
X1796554Y-515599D01*
X1792477Y-14281677D02*
X1788538Y-14278756D01*
X1794498Y-683064D02*
X1790490Y-680240D01*
X1794498Y-7316936D02*
X1798641Y-7314313D01*
X1794498Y-14116936D02*
X1798641Y-14114313D01*
X1794866Y-7483308D02*
X1790875Y-7480524D01*
X1796554Y-515599D02*
X1800759Y-513078D01*
X1796554Y-14284401D02*
X1792477Y-14281677D01*
X1798641Y-685687D02*
X1794498Y-683064D01*
X1798641Y-7314313D02*
X1805084Y-7310767D01*
X1798641Y-14114313D02*
X1805084Y-14110767D01*
X1798989Y-7485894D02*
X1794866Y-7483308D01*
X1800759Y-513078D02*
X1805084Y-510767D01*
X1800759Y-14286922D02*
X1796554Y-14284401D01*
X1802907Y-688104D02*
X1798641Y-685687D01*
X1803232Y-7488277D02*
X1798989Y-7485894D01*
X1805084Y-510767D02*
X1809516Y-508670D01*
X1805084Y-7310767D02*
X1809516Y-7308670D01*
X1805084Y-14110767D02*
X1809516Y-14108670D01*
X1805084Y-14289233D02*
X1800759Y-14286922D01*
X1807287Y-690309D02*
X1802907Y-688104D01*
X1807587Y-7490450D02*
X1803232Y-7488277D01*
X1809516Y-508670D02*
X1814046Y-506794D01*
X1809516Y-7308670D02*
X1814046Y-7306794D01*
X1809516Y-14108670D02*
X1814046Y-14106794D01*
X1809516Y-14291329D02*
X1805084Y-14289233D01*
X1811770Y-692296D02*
X1807287Y-690309D01*
X1814046Y-506794D02*
X1821000Y-504402D01*
X1814046Y-7306794D02*
X1818663Y-7305142D01*
X1814046Y-14106794D02*
X1818663Y-14105142D01*
X1814046Y-14293206D02*
X1809516Y-14291329D01*
X1814304Y-7493305D02*
X1807587Y-7490450D01*
X1816345Y-694060D02*
X1811770Y-692296D01*
X1818663Y-7305142D02*
X1823355Y-7303719D01*
X1818663Y-14105142D02*
X1823355Y-14103719D01*
X1818663Y-14294858D02*
X1814046Y-14293206D01*
X1818890Y-7494933D02*
X1814304Y-7493305D01*
X1821000Y-504402D02*
X1825726Y-503094D01*
X1821000Y-695598D02*
X1816345Y-694060D01*
X1823355Y-7303719D02*
X1830510Y-7302019D01*
X1823355Y-14103719D02*
X1830510Y-14102019D01*
X1823355Y-14296281D02*
X1818663Y-14294858D01*
X1823550Y-7496335D02*
X1818890Y-7494933D01*
X1825726Y-503094D02*
X1830510Y-502019D01*
X1825726Y-696906D02*
X1821000Y-695598D01*
X1828112Y-14297473D02*
X1823355Y-14296281D01*
X1828273Y-7497509D02*
X1823550Y-7496335D01*
X1830510Y-502019D02*
X1835342Y-501181D01*
X1830510Y-697980D02*
X1825726Y-696906D01*
X1830510Y-7302019D02*
X1835342Y-7301181D01*
X1830510Y-14102019D02*
X1835342Y-14101181D01*
X1832921Y-14298429D02*
X1828112Y-14297473D01*
X1833048Y-7498451D02*
X1828273Y-7497509D01*
X1835342Y-501181D02*
X1839544Y-500655D01*
X1835342Y-698819D02*
X1830510Y-697980D01*
X1835342Y-7301181D02*
X1840208Y-7300581D01*
X1835342Y-14101181D02*
X1840208Y-14100581D01*
X1837771Y-14299149D02*
X1832921Y-14298429D01*
X1837862Y-7499160D02*
X1833048Y-7498451D01*
X1839544Y-500655D02*
X8149959Y-500109D01*
X1840208Y-699419D02*
X1835342Y-698819D01*
X1840208Y-7300581D02*
X1850100Y-7300000D01*
X1840208Y-14100581D02*
X1850100Y-14100000D01*
X1842651Y-14299629D02*
X1837771Y-14299149D01*
X1842706Y-7499633D02*
X1837862Y-7499160D01*
X1850100Y-700000D02*
X1840208Y-699419D01*
X1850100Y-7300000D02*
X8149900Y-7300000D01*
X1850100Y-7500000D02*
X1842706Y-7499633D01*
X1850100Y-14100000D02*
X8149900Y-14100000D01*
X1850100Y-14300000D02*
X1842651Y-14299629D01*
X8149900Y-700000D02*
X1850100Y-700000D01*
X8149900Y-7300000D02*
X8159719Y-7300574D01*
X8149900Y-7500000D02*
X1850100Y-7500000D01*
X8149900Y-14100000D02*
X8159792Y-14100581D01*
X8149900Y-14300000D02*
X1850100Y-14300000D01*
X8149959Y-500109D02*
X8154860Y-500228D01*
X8154860Y-500228D02*
X8159748Y-500588D01*
X8159719Y-7300574D02*
X8164549Y-7301165D01*
X8159748Y-500588D02*
X8164613Y-501188D01*
X8159792Y-699419D02*
X8149900Y-700000D01*
X8159792Y-7499419D02*
X8149900Y-7500000D01*
X8159792Y-14100581D02*
X8164658Y-14101181D01*
X8159792Y-14299419D02*
X8149900Y-14300000D01*
X8164549Y-7301165D02*
X8169345Y-7301991D01*
X8164613Y-501188D02*
X8169442Y-502025D01*
X8164658Y-698819D02*
X8159792Y-699419D01*
X8164658Y-7498819D02*
X8159792Y-7499419D01*
X8164658Y-14101181D02*
X8169489Y-14102019D01*
X8164658Y-14298819D02*
X8159792Y-14299419D01*
X8169345Y-7301991D02*
X8174095Y-7303049D01*
X8169442Y-502025D02*
X8174225Y-503098D01*
X8169489Y-697980D02*
X8164658Y-698819D01*
X8169489Y-7497980D02*
X8164658Y-7498819D01*
X8169489Y-14102019D02*
X8174274Y-14103094D01*
X8169489Y-14297980D02*
X8164658Y-14298819D01*
X8174095Y-7303049D02*
X8178788Y-7304338D01*
X8174225Y-503098D02*
X8178949Y-504404D01*
X8174274Y-696906D02*
X8169489Y-697980D01*
X8174274Y-7496906D02*
X8169489Y-7497980D01*
X8174274Y-14103094D02*
X8178999Y-14104402D01*
X8174274Y-14296906D02*
X8169489Y-14297980D01*
X8178788Y-7304338D02*
X8183412Y-7305853D01*
X8178949Y-504404D02*
X8183603Y-505941D01*
X8178999Y-695598D02*
X8174274Y-696906D01*
X8178999Y-7495598D02*
X8174274Y-7496906D01*
X8178999Y-14104402D02*
X8183655Y-14105940D01*
X8178999Y-14295598D02*
X8174274Y-14296906D01*
X8183412Y-7305853D02*
X8187958Y-7307592D01*
X8183603Y-505941D02*
X8188177Y-507704D01*
X8183655Y-694060D02*
X8178999Y-695598D01*
X8183655Y-7494060D02*
X8178999Y-7495598D01*
X8183655Y-14105940D02*
X8188230Y-14107704D01*
X8183655Y-14294060D02*
X8178999Y-14295598D01*
X8187958Y-7307592D02*
X8192413Y-7309550D01*
X8188177Y-507704D02*
X8192658Y-509689D01*
X8188230Y-692296D02*
X8183655Y-694060D01*
X8188230Y-7492295D02*
X8183655Y-7494060D01*
X8188230Y-14107704D02*
X8192713Y-14109691D01*
X8188230Y-14292295D02*
X8183655Y-14294060D01*
X8192413Y-7309550D02*
X8196767Y-7311723D01*
X8192658Y-509689D02*
X8197037Y-511892D01*
X8192713Y-690309D02*
X8188230Y-692296D01*
X8192713Y-7490308D02*
X8188230Y-7492295D01*
X8192713Y-14109691D02*
X8197092Y-14111896D01*
X8192713Y-14290308D02*
X8188230Y-14292295D01*
X8196767Y-7311723D02*
X8201011Y-7314105D01*
X8197037Y-511892D02*
X8201302Y-514306D01*
X8197092Y-688104D02*
X8192713Y-690309D01*
X8197092Y-7488104D02*
X8192713Y-7490308D01*
X8197092Y-14111896D02*
X8201359Y-14114313D01*
X8197092Y-14288104D02*
X8192713Y-14290308D01*
X8201011Y-7314105D02*
X8205134Y-7316691D01*
X8201302Y-514306D02*
X8205444Y-516927D01*
X8201359Y-685687D02*
X8197092Y-688104D01*
X8201359Y-7485687D02*
X8197092Y-7488104D01*
X8201359Y-14114313D02*
X8205501Y-14116936D01*
X8201359Y-14285687D02*
X8197092Y-14288104D01*
X8205134Y-7316691D02*
X8209125Y-7319475D01*
X8205444Y-516927D02*
X8209452Y-519748D01*
X8205501Y-683064D02*
X8201359Y-685687D01*
X8205501Y-7483064D02*
X8201359Y-7485687D01*
X8205501Y-14116936D02*
X8209510Y-14119759D01*
X8205501Y-14283064D02*
X8201359Y-14285687D01*
X8209125Y-7319475D02*
X8212977Y-7322450D01*
X8209452Y-519748D02*
X8213317Y-522763D01*
X8209510Y-680240D02*
X8205501Y-683064D01*
X8209510Y-7480240D02*
X8205501Y-7483064D01*
X8209510Y-14119759D02*
X8213376Y-14122776D01*
X8209510Y-14280240D02*
X8205501Y-14283064D01*
X8212977Y-7322450D02*
X8216678Y-7325609D01*
X8213317Y-522763D02*
X8217030Y-525963D01*
X8213376Y-677224D02*
X8209510Y-680240D01*
X8213376Y-7477224D02*
X8209510Y-7480240D01*
X8213376Y-14122776D02*
X8217089Y-14125979D01*
X8213376Y-14277224D02*
X8209510Y-14280240D01*
X8216678Y-7325609D02*
X8220222Y-7328945D01*
X8217030Y-525963D02*
X8220581Y-529341D01*
X8217089Y-674021D02*
X8213376Y-677224D01*
X8217089Y-7474021D02*
X8213376Y-7477224D01*
X8217089Y-14125979D02*
X8220640Y-14129360D01*
X8217089Y-14274021D02*
X8213376Y-14277224D01*
X8220222Y-7328945D02*
X8223599Y-7332449D01*
X8220581Y-529341D02*
X8223962Y-532890D01*
X8220640Y-670640D02*
X8217089Y-674021D01*
X8220640Y-7470640D02*
X8217089Y-7474021D01*
X8220640Y-14129360D02*
X8224021Y-14132911D01*
X8220640Y-14270640D02*
X8217089Y-14274021D01*
X8223599Y-7332449D02*
X8226802Y-7336113D01*
X8223962Y-532890D02*
X8227165Y-536600D01*
X8224021Y-667089D02*
X8220640Y-670640D01*
X8224021Y-7467089D02*
X8220640Y-7470640D01*
X8224021Y-14132911D02*
X8227224Y-14136624D01*
X8224021Y-14267089D02*
X8220640Y-14270640D01*
X8226802Y-7336113D02*
X8229822Y-7339929D01*
X8227165Y-536600D02*
X8230183Y-540463D01*
X8227224Y-663376D02*
X8224021Y-667089D01*
X8227224Y-7463376D02*
X8224021Y-7467089D01*
X8227224Y-14136624D02*
X8230240Y-14140490D01*
X8227224Y-14263376D02*
X8224021Y-14267089D01*
X8229822Y-7339929D02*
X8232652Y-7343888D01*
X8230183Y-540463D02*
X8233007Y-544469D01*
X8230240Y-659510D02*
X8227224Y-663376D01*
X8230240Y-7459510D02*
X8227224Y-7463376D01*
X8230240Y-14140490D02*
X8233064Y-14144498D01*
X8230240Y-14259510D02*
X8227224Y-14263376D01*
X8232652Y-7343888D02*
X8235287Y-7347980D01*
X8233007Y-544469D02*
X8235631Y-548608D01*
X8233064Y-655501D02*
X8230240Y-659510D01*
X8233064Y-7455501D02*
X8230240Y-7459510D01*
X8233064Y-14144498D02*
X8235687Y-14148641D01*
X8233064Y-14255501D02*
X8230240Y-14259510D01*
X8235287Y-7347980D02*
X8237719Y-7352195D01*
X8235631Y-548608D02*
X8238049Y-552872D01*
X8235687Y-651359D02*
X8233064Y-655501D01*
X8235687Y-7451359D02*
X8233064Y-7455501D01*
X8235687Y-14148641D02*
X8238104Y-14152907D01*
X8235687Y-14251359D02*
X8233064Y-14255501D01*
X8237719Y-7352195D02*
X8239943Y-7356523D01*
X8238049Y-552872D02*
X8240255Y-557249D01*
X8238104Y-647093D02*
X8235687Y-651359D01*
X8238104Y-7447092D02*
X8235687Y-7451359D01*
X8238104Y-14152907D02*
X8240308Y-14157287D01*
X8238104Y-14247092D02*
X8235687Y-14251359D01*
X8239943Y-7356523D02*
X8241954Y-7360955D01*
X8240255Y-557249D02*
X8242244Y-561729D01*
X8240308Y-642713D02*
X8238104Y-647093D01*
X8240308Y-7442713D02*
X8238104Y-7447092D01*
X8240308Y-14157287D02*
X8242295Y-14161770D01*
X8240308Y-14242713D02*
X8238104Y-14247092D01*
X8241954Y-7360955D02*
X8243746Y-7365480D01*
X8242244Y-561729D02*
X8244010Y-566301D01*
X8242295Y-638230D02*
X8240308Y-642713D01*
X8242295Y-7438230D02*
X8240308Y-7442713D01*
X8242295Y-14161770D02*
X8244060Y-14166345D01*
X8242295Y-14238230D02*
X8240308Y-14242713D01*
X8243746Y-7365480D02*
X8245316Y-7370086D01*
X8244010Y-566301D02*
X8245550Y-570954D01*
X8244060Y-633655D02*
X8242295Y-638230D01*
X8244060Y-7433655D02*
X8242295Y-7438230D01*
X8244060Y-14166345D02*
X8245598Y-14171000D01*
X8244060Y-14233655D02*
X8242295Y-14238230D01*
X8245316Y-7370086D02*
X8246660Y-7374763D01*
X8245550Y-570954D02*
X8246860Y-575677D01*
X8245598Y-628999D02*
X8244060Y-633655D01*
X8245598Y-7428999D02*
X8244060Y-7433655D01*
X8245598Y-14171000D02*
X8246906Y-14175726D01*
X8245598Y-14228999D02*
X8244060Y-14233655D01*
X8246660Y-7374763D02*
X8247774Y-7379501D01*
X8246860Y-575677D02*
X8247937Y-580459D01*
X8246906Y-624274D02*
X8245598Y-628999D01*
X8246906Y-7424274D02*
X8245598Y-7428999D01*
X8246906Y-14175726D02*
X8247980Y-14180510D01*
X8246906Y-14224274D02*
X8245598Y-14228999D01*
X8247774Y-7379501D02*
X8248656Y-7384286D01*
X8247937Y-580459D02*
X8248778Y-585288D01*
X8247980Y-619490D02*
X8246906Y-624274D01*
X8247980Y-7419489D02*
X8246906Y-7424274D01*
X8247980Y-14180510D02*
X8248819Y-14185342D01*
X8247980Y-14219489D02*
X8246906Y-14224274D01*
X8248656Y-7384286D02*
X8249305Y-7389110D01*
X8248778Y-585288D02*
X8249381Y-590152D01*
X8248819Y-614658D02*
X8247980Y-619490D01*
X8248819Y-7414658D02*
X8247980Y-7419489D01*
X8248819Y-14185342D02*
X8249419Y-14190208D01*
X8248819Y-14214658D02*
X8247980Y-14219489D01*
X8249305Y-7389110D02*
X8249717Y-7393959D01*
X8249381Y-590152D02*
X8249745Y-595040D01*
X8249419Y-609792D02*
X8248819Y-614658D01*
X8249419Y-7409792D02*
X8248819Y-7414658D01*
X8249419Y-14190208D02*
X8249780Y-14195098D01*
X8249419Y-14209792D02*
X8248819Y-14214658D01*
X8249717Y-7393959D02*
X8249907Y-7399972D01*
X8249745Y-595040D02*
X8249870Y-602406D01*
X8249780Y-7404902D02*
X8249419Y-7409792D01*
X8249780Y-14195098D02*
X8249900Y-14200512D01*
X8249780Y-14204902D02*
X8249419Y-14209792D01*
X8249870Y-602406D02*
X8249419Y-609792D01*
X8249900Y-14200512D02*
X8249780Y-14204902D01*
X8249907Y-7399972D02*
X8249780Y-7404902D01*
X8550093Y-7400027D02*
X8550220Y-7395098D01*
X8550100Y-600000D02*
X8550220Y-595098D01*
X8550100Y-14200001D02*
X8550371Y-14192651D01*
X8550220Y-595098D02*
X8550851Y-587771D01*
X8550220Y-604902D02*
X8550100Y-600000D01*
X8550220Y-7395098D02*
X8550581Y-7390208D01*
X8550371Y-14192651D02*
X8550851Y-14187771D01*
X8550460Y-7408468D02*
X8550093Y-7400027D01*
X8550464Y-14208508D02*
X8550100Y-14200001D01*
X8550581Y-609792D02*
X8550220Y-604902D01*
X8550581Y-7390208D02*
X8551181Y-7385342D01*
X8550851Y-587771D02*
X8551571Y-582921D01*
X8550851Y-14187771D02*
X8551571Y-14182921D01*
X8550990Y-7413306D02*
X8550460Y-7408468D01*
X8551181Y-614658D02*
X8550581Y-609792D01*
X8551181Y-7385342D02*
X8552020Y-7380510D01*
X8551352Y-14215751D02*
X8550464Y-14208508D01*
X8551571Y-582921D02*
X8552527Y-578112D01*
X8551571Y-14182921D02*
X8553094Y-14175726D01*
X8551756Y-7418112D02*
X8550990Y-7413306D01*
X8552020Y-619490D02*
X8551181Y-614658D01*
X8552020Y-7380510D02*
X8553094Y-7375726D01*
X8552527Y-578112D02*
X8553719Y-573355D01*
X8552754Y-7422875D02*
X8551756Y-7418112D01*
X8552766Y-14222909D02*
X8551352Y-14215751D01*
X8553094Y-624274D02*
X8552020Y-619490D01*
X8553094Y-7375726D02*
X8554402Y-7371000D01*
X8553094Y-14175726D02*
X8554402Y-14171000D01*
X8553719Y-573355D02*
X8555142Y-568663D01*
X8553984Y-7427583D02*
X8552754Y-7422875D01*
X8553998Y-14227616D02*
X8552766Y-14222909D01*
X8554402Y-628999D02*
X8553094Y-624274D01*
X8554402Y-7371000D02*
X8556794Y-7364046D01*
X8554402Y-14171000D02*
X8555940Y-14166345D01*
X8555142Y-568663D02*
X8557704Y-561770D01*
X8555441Y-7432227D02*
X8553984Y-7427583D01*
X8555457Y-14232257D02*
X8553998Y-14227616D01*
X8555940Y-633655D02*
X8554402Y-628999D01*
X8555940Y-14166345D02*
X8557704Y-14161770D01*
X8556794Y-7364046D02*
X8558670Y-7359516D01*
X8557122Y-7436793D02*
X8555441Y-7432227D01*
X8557704Y-561770D02*
X8559691Y-557287D01*
X8557704Y-638230D02*
X8555940Y-633655D01*
X8557704Y-14161770D02*
X8559691Y-14157287D01*
X8558065Y-14239072D02*
X8555457Y-14232257D01*
X8558670Y-7359516D02*
X8560767Y-7355084D01*
X8559691Y-557287D02*
X8561896Y-552907D01*
X8559691Y-642713D02*
X8557704Y-638230D01*
X8559691Y-14157287D02*
X8563078Y-14150759D01*
X8560057Y-7443476D02*
X8557122Y-7436793D01*
X8560077Y-14243502D02*
X8558065Y-14239072D01*
X8560767Y-7355084D02*
X8564313Y-7348641D01*
X8561896Y-552907D02*
X8565599Y-546554D01*
X8561896Y-647093D02*
X8559691Y-642713D01*
X8562281Y-7447805D02*
X8560057Y-7443476D01*
X8562302Y-14247829D02*
X8560077Y-14243502D01*
X8563078Y-14150759D02*
X8566936Y-14144498D01*
X8564313Y-651359D02*
X8561896Y-647093D01*
X8564313Y-7348641D02*
X8566936Y-7344498D01*
X8564713Y-7452020D02*
X8562281Y-7447805D01*
X8564736Y-14252041D02*
X8562302Y-14247829D01*
X8565599Y-546554D02*
X8569760Y-540490D01*
X8566936Y-7344498D02*
X8569760Y-7340490D01*
X8566936Y-14144498D02*
X8569760Y-14140490D01*
X8567347Y-7456112D02*
X8564713Y-7452020D01*
X8567371Y-14256131D02*
X8564736Y-14252041D01*
X8568323Y-657523D02*
X8564313Y-651359D01*
X8569760Y-540490D02*
X8574355Y-534748D01*
X8569760Y-7340490D02*
X8572776Y-7336624D01*
X8569760Y-14140490D02*
X8572776Y-14136624D01*
X8570178Y-7460071D02*
X8567347Y-7456112D01*
X8571244Y-661462D02*
X8568323Y-657523D01*
X8571690Y-14262013D02*
X8567371Y-14256131D01*
X8572776Y-7336624D02*
X8575979Y-7332911D01*
X8572776Y-14136624D02*
X8575979Y-14132911D01*
X8573198Y-7463887D02*
X8570178Y-7460071D01*
X8574355Y-534748D02*
X8579360Y-529360D01*
X8575979Y-667089D02*
X8571244Y-661462D01*
X8575979Y-7332911D02*
X8579360Y-7329360D01*
X8575979Y-14132911D02*
X8579360Y-14129360D01*
X8576401Y-7467551D02*
X8573198Y-7463887D01*
X8576427Y-14267563D02*
X8571690Y-14262013D01*
X8579360Y-529360D02*
X8582911Y-525979D01*
X8579360Y-670640D02*
X8575979Y-667089D01*
X8579360Y-7329360D02*
X8582911Y-7325979D01*
X8579360Y-14129360D02*
X8584748Y-14124355D01*
X8579804Y-14271065D02*
X8576427Y-14267563D01*
X8581529Y-7472744D02*
X8576401Y-7467551D01*
X8582911Y-525979D02*
X8586624Y-522776D01*
X8582911Y-674021D02*
X8579360Y-670640D01*
X8582911Y-7325979D02*
X8586624Y-7322776D01*
X8583348Y-14274398D02*
X8579804Y-14271065D01*
X8584748Y-14124355D02*
X8588538Y-14121244D01*
X8585153Y-7475993D02*
X8581529Y-7472744D01*
X8586624Y-522776D02*
X8590490Y-519759D01*
X8586624Y-677224D02*
X8582911Y-674021D01*
X8586624Y-7322776D02*
X8590490Y-7319759D01*
X8588538Y-14121244D02*
X8592477Y-14118323D01*
X8588931Y-7479060D02*
X8585153Y-7475993D01*
X8588958Y-14279065D02*
X8583348Y-14274398D01*
X8590490Y-519759D02*
X8594499Y-516936D01*
X8590490Y-680240D02*
X8586624Y-677224D01*
X8590490Y-7319759D02*
X8594499Y-7316936D01*
X8592477Y-14118323D02*
X8598641Y-14114313D01*
X8592854Y-7481941D02*
X8588931Y-7479060D01*
X8592880Y-14281943D02*
X8588958Y-14279065D01*
X8594499Y-516936D02*
X8600759Y-513078D01*
X8594499Y-683064D02*
X8590490Y-680240D01*
X8594499Y-7316936D02*
X8598641Y-7314313D01*
X8596912Y-7484626D02*
X8592854Y-7481941D01*
X8596938Y-14284627D02*
X8592880Y-14281943D01*
X8598641Y-685687D02*
X8594499Y-683064D01*
X8598641Y-7314313D02*
X8605084Y-7310767D01*
X8598641Y-14114313D02*
X8602907Y-14111896D01*
X8600759Y-513078D02*
X8607287Y-509691D01*
X8601096Y-7487111D02*
X8596912Y-7484626D01*
X8601122Y-14287110D02*
X8596938Y-14284627D01*
X8602907Y-688104D02*
X8598641Y-685687D01*
X8602907Y-14111896D02*
X8607287Y-14109691D01*
X8605084Y-7310767D02*
X8611770Y-7307704D01*
X8605396Y-7489390D02*
X8601096Y-7487111D01*
X8605422Y-14289386D02*
X8601122Y-14287110D01*
X8607287Y-509691D02*
X8611770Y-507704D01*
X8607287Y-690309D02*
X8602907Y-688104D01*
X8607287Y-14109691D02*
X8614046Y-14106794D01*
X8609803Y-7491456D02*
X8605396Y-7489390D01*
X8611770Y-507704D02*
X8616345Y-505940D01*
X8611770Y-692296D02*
X8607287Y-690309D01*
X8611770Y-7307704D02*
X8616345Y-7305940D01*
X8612067Y-14292402D02*
X8605422Y-14289386D01*
X8614046Y-14106794D02*
X8618663Y-14105142D01*
X8614304Y-7493305D02*
X8609803Y-7491456D01*
X8616345Y-505940D02*
X8623355Y-503719D01*
X8616345Y-694060D02*
X8611770Y-692296D01*
X8616345Y-7305940D02*
X8621001Y-7304402D01*
X8616611Y-14294139D02*
X8612067Y-14292402D01*
X8618663Y-14105142D02*
X8623355Y-14103719D01*
X8621001Y-695598D02*
X8616345Y-694060D01*
X8621001Y-7304402D02*
X8625726Y-7303094D01*
X8621212Y-7495662D02*
X8614304Y-7493305D01*
X8621235Y-14295653D02*
X8616611Y-14294139D01*
X8623355Y-503719D02*
X8628112Y-502527D01*
X8623355Y-14103719D02*
X8630510Y-14102019D01*
X8625726Y-7303094D02*
X8630510Y-7302019D01*
X8625905Y-7496951D02*
X8621212Y-7495662D01*
X8628112Y-502527D02*
X8632921Y-501571D01*
X8628112Y-697473D02*
X8621001Y-695598D01*
X8628295Y-14297497D02*
X8621235Y-14295653D01*
X8630510Y-7302019D02*
X8635342Y-7301181D01*
X8630510Y-14102019D02*
X8635342Y-14101181D01*
X8630655Y-7498009D02*
X8625905Y-7496951D01*
X8632921Y-501571D02*
X8640208Y-500581D01*
X8632921Y-698429D02*
X8628112Y-697473D01*
X8635342Y-7301181D02*
X8640208Y-7300581D01*
X8635342Y-14101181D02*
X8640208Y-14100581D01*
X8635451Y-7498835D02*
X8630655Y-7498009D01*
X8635471Y-14298822D02*
X8628295Y-14297497D01*
X8637771Y-699149D02*
X8632921Y-698429D01*
X8640208Y-500581D02*
X8650100Y-500000D01*
X8640208Y-7300581D02*
X8650100Y-7300000D01*
X8640208Y-14100581D02*
X8650100Y-14100000D01*
X8640281Y-7499426D02*
X8635451Y-7498835D01*
X8640300Y-14299412D02*
X8635471Y-14298822D01*
X8642651Y-699629D02*
X8637771Y-699149D01*
X8645152Y-14299766D02*
X8640300Y-14299412D01*
X8650017Y-14299884D02*
X8645152Y-14299766D01*
X8650100Y-500000D02*
X11649873Y-500019D01*
X8650100Y-700000D02*
X8642651Y-699629D01*
X8650100Y-7300000D02*
X9600000Y-7300000D01*
X8650100Y-7500000D02*
X8640281Y-7499426D01*
X8650100Y-14100000D02*
X9600000Y-14100000D01*
X9600000Y-700000D02*
X8650100Y-700000D01*
X9600000Y-7300000D02*
X9620260Y-7299487D01*
X9600000Y-7500000D02*
X8650100Y-7500000D01*
X9600000Y-14100000D02*
X9620260Y-14099487D01*
X9620260Y-700513D02*
X9600000Y-700000D01*
X9620260Y-7299487D02*
X9640467Y-7297948D01*
X9620260Y-7500513D02*
X9600000Y-7500000D01*
X9620260Y-14099487D02*
X9640467Y-14097948D01*
X9640467Y-702052D02*
X9620260Y-700513D01*
X9640467Y-7297948D02*
X9660571Y-7295387D01*
X9640467Y-7502052D02*
X9620260Y-7500513D01*
X9640467Y-14097948D02*
X9660571Y-14095387D01*
X9660571Y-704613D02*
X9640467Y-702052D01*
X9660571Y-7295387D02*
X9680519Y-7291812D01*
X9660571Y-7504613D02*
X9640467Y-7502052D01*
X9660571Y-14095387D02*
X9680519Y-14091812D01*
X9680519Y-708188D02*
X9660571Y-704613D01*
X9680519Y-7291812D02*
X9700261Y-7287231D01*
X9680519Y-7508188D02*
X9660571Y-7504613D01*
X9680519Y-14091812D02*
X9700261Y-14087231D01*
X9700261Y-712769D02*
X9680519Y-708188D01*
X9700261Y-7287231D02*
X9719745Y-7281656D01*
X9700261Y-7512769D02*
X9680519Y-7508188D01*
X9700261Y-14087231D02*
X9719745Y-14081656D01*
X9719745Y-718344D02*
X9700261Y-712769D01*
X9719745Y-7281656D02*
X9738922Y-7275101D01*
X9719745Y-7518344D02*
X9700261Y-7512769D01*
X9719745Y-14081656D02*
X9738922Y-14075101D01*
X9738922Y-724899D02*
X9719745Y-718344D01*
X9738922Y-7275101D02*
X9757742Y-7267583D01*
X9738922Y-7524899D02*
X9719745Y-7518344D01*
X9738922Y-14075101D02*
X9757742Y-14067583D01*
X9757742Y-732417D02*
X9738922Y-724899D01*
X9757742Y-7267583D02*
X9776158Y-7259122D01*
X9757742Y-7532417D02*
X9738922Y-7524899D01*
X9757742Y-14067583D02*
X9776158Y-14059122D01*
X9776158Y-740878D02*
X9757742Y-732417D01*
X9776158Y-7259122D02*
X9794121Y-7249739D01*
X9776158Y-7540878D02*
X9757742Y-7532417D01*
X9776158Y-14059122D02*
X9794121Y-14049739D01*
X9794121Y-750261D02*
X9776158Y-740878D01*
X9794121Y-7249739D02*
X9811586Y-7239458D01*
X9794121Y-7550261D02*
X9776158Y-7540878D01*
X9794121Y-14049739D02*
X9811586Y-14039458D01*
X9811586Y-760542D02*
X9794121Y-750261D01*
X9811586Y-7239458D02*
X9828507Y-7228305D01*
X9811586Y-7560542D02*
X9794121Y-7550261D01*
X9811586Y-14039458D02*
X9828507Y-14028305D01*
X9828507Y-771695D02*
X9811586Y-760542D01*
X9828507Y-7228305D02*
X9844842Y-7216310D01*
X9828507Y-7571695D02*
X9811586Y-7560542D01*
X9828507Y-14028305D02*
X9844842Y-14016310D01*
X9844842Y-783690D02*
X9828507Y-771695D01*
X9844842Y-7216310D02*
X9860549Y-7203503D01*
X9844842Y-7583690D02*
X9828507Y-7571695D01*
X9844842Y-14016310D02*
X9860549Y-14003503D01*
X9860549Y-796497D02*
X9844842Y-783690D01*
X9860549Y-7203503D02*
X9875587Y-7189917D01*
X9860549Y-7596497D02*
X9844842Y-7583690D01*
X9860549Y-14003503D02*
X9875587Y-13989917D01*
X9875587Y-810083D02*
X9860549Y-796497D01*
X9875587Y-7189917D02*
X9889917Y-7175587D01*
X9875587Y-7610083D02*
X9860549Y-7596497D01*
X9875587Y-13989917D02*
X9889917Y-13975587D01*
X9889917Y-824413D02*
X9875587Y-810083D01*
X9889917Y-7175587D02*
X9903503Y-7160549D01*
X9889917Y-7624413D02*
X9875587Y-7610083D01*
X9889917Y-13975587D02*
X9903503Y-13960549D01*
X9903503Y-839451D02*
X9889917Y-824413D01*
X9903503Y-7160549D02*
X9916310Y-7144842D01*
X9903503Y-7639451D02*
X9889917Y-7624413D01*
X9903503Y-13960549D02*
X9916310Y-13944842D01*
X9916310Y-855158D02*
X9903503Y-839451D01*
X9916310Y-7144842D02*
X9928305Y-7128507D01*
X9916310Y-7655158D02*
X9903503Y-7639451D01*
X9916310Y-13944842D02*
X9928305Y-13928507D01*
X9928305Y-871493D02*
X9916310Y-855158D01*
X9928305Y-7128507D02*
X9939458Y-7111586D01*
X9928305Y-7671493D02*
X9916310Y-7655158D01*
X9928305Y-13928507D02*
X9939458Y-13911586D01*
X9939458Y-888414D02*
X9928305Y-871493D01*
X9939458Y-7111586D02*
X9949739Y-7094121D01*
X9939458Y-7688414D02*
X9928305Y-7671493D01*
X9939458Y-13911586D02*
X9949739Y-13894121D01*
X9949739Y-905879D02*
X9939458Y-888414D01*
X9949739Y-7094121D02*
X9959122Y-7076158D01*
X9949739Y-7705879D02*
X9939458Y-7688414D01*
X9949739Y-13894121D02*
X9959122Y-13876158D01*
X9959122Y-923842D02*
X9949739Y-905879D01*
X9959122Y-7076158D02*
X9967583Y-7057742D01*
X9959122Y-7723842D02*
X9949739Y-7705879D01*
X9959122Y-13876158D02*
X9967583Y-13857742D01*
X9967583Y-942258D02*
X9959122Y-923842D01*
X9967583Y-7057742D02*
X9975101Y-7038922D01*
X9967583Y-7742258D02*
X9959122Y-7723842D01*
X9967583Y-13857742D02*
X9975101Y-13838922D01*
X9975101Y-961078D02*
X9967583Y-942258D01*
X9975101Y-7038922D02*
X9981656Y-7019745D01*
X9975101Y-7761078D02*
X9967583Y-7742258D01*
X9975101Y-13838922D02*
X9981656Y-13819745D01*
X9981656Y-980255D02*
X9975101Y-961078D01*
X9981656Y-7019745D02*
X9987231Y-7000261D01*
X9981656Y-7780255D02*
X9975101Y-7761078D01*
X9981656Y-13819745D02*
X9987231Y-13800261D01*
X9987231Y-999739D02*
X9981656Y-980255D01*
X9987231Y-7000261D02*
X9991812Y-6980519D01*
X9987231Y-7799739D02*
X9981656Y-7780255D01*
X9987231Y-13800261D02*
X9991812Y-13780519D01*
X9991812Y-1019480D02*
X9987231Y-999739D01*
X9991812Y-6980519D02*
X9995387Y-6960571D01*
X9991812Y-7819480D02*
X9987231Y-7799739D01*
X9991812Y-13780519D02*
X9995387Y-13760571D01*
X9995387Y-1039429D02*
X9991812Y-1019480D01*
X9995387Y-6960571D02*
X9997948Y-6940467D01*
X9995387Y-7839429D02*
X9991812Y-7819480D01*
X9995387Y-13760571D02*
X9997948Y-13740467D01*
X9997948Y-1059533D02*
X9995387Y-1039429D01*
X9997948Y-6940467D02*
X9999487Y-6920260D01*
X9997948Y-7859533D02*
X9995387Y-7839429D01*
X9997948Y-13740467D02*
X9999487Y-13720260D01*
X9999487Y-1079740D02*
X9997948Y-1059533D01*
X9999487Y-6920260D02*
X10000000Y-6900000D01*
X9999487Y-7879740D02*
X9997948Y-7859533D01*
X9999487Y-13720260D02*
X10000000Y-13700000D01*
X10000000Y-1100000D02*
X9999487Y-1079740D01*
X10000000Y-6900000D02*
X10000000Y-1100000D01*
X10000000Y-7900000D02*
X9999487Y-7879740D01*
X10000000Y-13700000D02*
X10000000Y-7900000D01*
X10300000Y-1100000D02*
X10300000Y-6900000D01*
X10300000Y-6900000D02*
X10300513Y-6920260D01*
X10300000Y-7900000D02*
X10300000Y-13700000D01*
X10300000Y-13700000D02*
X10300513Y-13720260D01*
X10300513Y-1079740D02*
X10300000Y-1100000D01*
X10300513Y-6920260D02*
X10302052Y-6940467D01*
X10300513Y-7879740D02*
X10300000Y-7900000D01*
X10300513Y-13720260D02*
X10302052Y-13740467D01*
X10302052Y-1059533D02*
X10300513Y-1079740D01*
X10302052Y-6940467D02*
X10304613Y-6960571D01*
X10302052Y-7859533D02*
X10300513Y-7879740D01*
X10302052Y-13740467D02*
X10304613Y-13760571D01*
X10304613Y-1039429D02*
X10302052Y-1059533D01*
X10304613Y-6960571D02*
X10308188Y-6980519D01*
X10304613Y-7839429D02*
X10302052Y-7859533D01*
X10304613Y-13760571D02*
X10308188Y-13780519D01*
X10308188Y-1019480D02*
X10304613Y-1039429D01*
X10308188Y-6980519D02*
X10312769Y-7000261D01*
X10308188Y-7819480D02*
X10304613Y-7839429D01*
X10308188Y-13780519D02*
X10312769Y-13800261D01*
X10312769Y-999739D02*
X10308188Y-1019480D01*
X10312769Y-7000261D02*
X10318344Y-7019745D01*
X10312769Y-7799739D02*
X10308188Y-7819480D01*
X10312769Y-13800261D02*
X10318344Y-13819745D01*
X10318344Y-980255D02*
X10312769Y-999739D01*
X10318344Y-7019745D02*
X10324899Y-7038922D01*
X10318344Y-7780255D02*
X10312769Y-7799739D01*
X10318344Y-13819745D02*
X10324899Y-13838922D01*
X10324899Y-961078D02*
X10318344Y-980255D01*
X10324899Y-7038922D02*
X10332417Y-7057742D01*
X10324899Y-7761078D02*
X10318344Y-7780255D01*
X10324899Y-13838922D02*
X10332417Y-13857742D01*
X10332417Y-942258D02*
X10324899Y-961078D01*
X10332417Y-7057742D02*
X10340878Y-7076158D01*
X10332417Y-7742258D02*
X10324899Y-7761078D01*
X10332417Y-13857742D02*
X10340878Y-13876158D01*
X10340878Y-923842D02*
X10332417Y-942258D01*
X10340878Y-7076158D02*
X10350261Y-7094121D01*
X10340878Y-7723842D02*
X10332417Y-7742258D01*
X10340878Y-13876158D02*
X10350261Y-13894121D01*
X10350261Y-905879D02*
X10340878Y-923842D01*
X10350261Y-7094121D02*
X10360542Y-7111586D01*
X10350261Y-7705879D02*
X10340878Y-7723842D01*
X10350261Y-13894121D02*
X10360542Y-13911586D01*
X10360542Y-888414D02*
X10350261Y-905879D01*
X10360542Y-7111586D02*
X10371695Y-7128507D01*
X10360542Y-7688414D02*
X10350261Y-7705879D01*
X10360542Y-13911586D02*
X10371695Y-13928507D01*
X10371695Y-871493D02*
X10360542Y-888414D01*
X10371695Y-7128507D02*
X10383690Y-7144842D01*
X10371695Y-7671493D02*
X10360542Y-7688414D01*
X10371695Y-13928507D02*
X10383690Y-13944842D01*
X10383690Y-855158D02*
X10371695Y-871493D01*
X10383690Y-7144842D02*
X10396497Y-7160549D01*
X10383690Y-7655158D02*
X10371695Y-7671493D01*
X10383690Y-13944842D02*
X10396497Y-13960549D01*
X10396497Y-839451D02*
X10383690Y-855158D01*
X10396497Y-7160549D02*
X10410083Y-7175587D01*
X10396497Y-7639451D02*
X10383690Y-7655158D01*
X10396497Y-13960549D02*
X10410083Y-13975587D01*
X10410083Y-824413D02*
X10396497Y-839451D01*
X10410083Y-7175587D02*
X10424413Y-7189917D01*
X10410083Y-7624413D02*
X10396497Y-7639451D01*
X10410083Y-13975587D02*
X10424413Y-13989917D01*
X10424413Y-810083D02*
X10410083Y-824413D01*
X10424413Y-7189917D02*
X10439451Y-7203503D01*
X10424413Y-7610083D02*
X10410083Y-7624413D01*
X10424413Y-13989917D02*
X10439451Y-14003503D01*
X10439451Y-796497D02*
X10424413Y-810083D01*
X10439451Y-7203503D02*
X10455158Y-7216310D01*
X10439451Y-7596497D02*
X10424413Y-7610083D01*
X10439451Y-14003503D02*
X10455158Y-14016310D01*
X10455158Y-783690D02*
X10439451Y-796497D01*
X10455158Y-7216310D02*
X10471493Y-7228305D01*
X10455158Y-7583690D02*
X10439451Y-7596497D01*
X10455158Y-14016310D02*
X10471493Y-14028305D01*
X10471493Y-771695D02*
X10455158Y-783690D01*
X10471493Y-7228305D02*
X10488414Y-7239458D01*
X10471493Y-7571695D02*
X10455158Y-7583690D01*
X10471493Y-14028305D02*
X10488414Y-14039458D01*
X10488414Y-760542D02*
X10471493Y-771695D01*
X10488414Y-7239458D02*
X10505879Y-7249739D01*
X10488414Y-7560542D02*
X10471493Y-7571695D01*
X10488414Y-14039458D02*
X10505879Y-14049739D01*
X10505879Y-750261D02*
X10488414Y-760542D01*
X10505879Y-7249739D02*
X10523842Y-7259122D01*
X10505879Y-7550261D02*
X10488414Y-7560542D01*
X10505879Y-14049739D02*
X10523842Y-14059122D01*
X10523842Y-740878D02*
X10505879Y-750261D01*
X10523842Y-7259122D02*
X10542258Y-7267583D01*
X10523842Y-7540878D02*
X10505879Y-7550261D01*
X10523842Y-14059122D02*
X10542258Y-14067583D01*
X10542258Y-732417D02*
X10523842Y-740878D01*
X10542258Y-7267583D02*
X10561078Y-7275101D01*
X10542258Y-7532417D02*
X10523842Y-7540878D01*
X10542258Y-14067583D02*
X10561078Y-14075101D01*
X10561078Y-724899D02*
X10542258Y-732417D01*
X10561078Y-7275101D02*
X10580255Y-7281656D01*
X10561078Y-7524899D02*
X10542258Y-7532417D01*
X10561078Y-14075101D02*
X10580255Y-14081656D01*
X10580255Y-718344D02*
X10561078Y-724899D01*
X10580255Y-7281656D02*
X10599739Y-7287231D01*
X10580255Y-7518344D02*
X10561078Y-7524899D01*
X10580255Y-14081656D02*
X10599739Y-14087231D01*
X10599739Y-712769D02*
X10580255Y-718344D01*
X10599739Y-7287231D02*
X10619481Y-7291812D01*
X10599739Y-7512769D02*
X10580255Y-7518344D01*
X10599739Y-14087231D02*
X10619481Y-14091812D01*
X10619481Y-708188D02*
X10599739Y-712769D01*
X10619481Y-7291812D02*
X10639429Y-7295387D01*
X10619481Y-7508188D02*
X10599739Y-7512769D01*
X10619481Y-14091812D02*
X10639429Y-14095387D01*
X10639429Y-704613D02*
X10619481Y-708188D01*
X10639429Y-7295387D02*
X10659533Y-7297948D01*
X10639429Y-7504613D02*
X10619481Y-7508188D01*
X10639429Y-14095387D02*
X10659533Y-14097948D01*
X10659533Y-702052D02*
X10639429Y-704613D01*
X10659533Y-7297948D02*
X10679740Y-7299487D01*
X10659533Y-7502052D02*
X10639429Y-7504613D01*
X10659533Y-14097948D02*
X10679740Y-14099487D01*
X10679740Y-700513D02*
X10659533Y-702052D01*
X10679740Y-7299487D02*
X10700000Y-7300000D01*
X10679740Y-7500513D02*
X10659533Y-7502052D01*
X10679740Y-14099487D02*
X10700000Y-14100000D01*
X10700000Y-700000D02*
X10679740Y-700513D01*
X10700000Y-7300000D02*
X11649900Y-7300000D01*
X10700000Y-7500000D02*
X10679740Y-7500513D01*
X10700000Y-14100000D02*
X11649900Y-14100000D01*
X11649873Y-500019D02*
X11659759Y-500581D01*
X11649900Y-700000D02*
X10700000Y-700000D01*
X11649900Y-7300000D02*
X11659719Y-7300574D01*
X11649900Y-7500000D02*
X10700000Y-7500000D01*
X11649900Y-14100000D02*
X11657349Y-14100371D01*
X11657349Y-14100371D02*
X11662229Y-14100851D01*
X11659719Y-7300574D02*
X11664549Y-7301165D01*
X11659759Y-500581D02*
X11664623Y-501180D01*
X11659792Y-699419D02*
X11649900Y-700000D01*
X11659792Y-7499419D02*
X11649900Y-7500000D01*
X11659944Y-14299402D02*
X8650017Y-14299884D01*
X11662229Y-14100851D02*
X11667079Y-14101571D01*
X11664549Y-7301165D02*
X11669345Y-7301991D01*
X11664623Y-501180D02*
X11669453Y-502018D01*
X11664658Y-698819D02*
X11659792Y-699419D01*
X11664658Y-7498819D02*
X11659792Y-7499419D01*
X11664658Y-14298819D02*
X11659944Y-14299402D01*
X11667079Y-14101571D02*
X11674274Y-14103094D01*
X11669345Y-7301991D02*
X11676449Y-7303665D01*
X11669453Y-502018D02*
X11676605Y-503716D01*
X11669489Y-697980D02*
X11664658Y-698819D01*
X11669489Y-7497980D02*
X11664658Y-7498819D01*
X11669489Y-14297980D02*
X11664658Y-14298819D01*
X11674274Y-696906D02*
X11669489Y-697980D01*
X11674274Y-7496906D02*
X11669489Y-7497980D01*
X11674274Y-14103094D02*
X11678999Y-14104402D01*
X11676449Y-7303665D02*
X11681109Y-7305067D01*
X11676605Y-503716D02*
X11681295Y-505138D01*
X11676645Y-14296281D02*
X11669489Y-14297980D01*
X11678999Y-695598D02*
X11674274Y-696906D01*
X11678999Y-7495598D02*
X11674274Y-7496906D01*
X11678999Y-14104402D02*
X11683655Y-14105940D01*
X11681109Y-7305067D02*
X11685696Y-7306695D01*
X11681295Y-505138D02*
X11685910Y-506789D01*
X11683655Y-694060D02*
X11678999Y-695598D01*
X11683655Y-7494060D02*
X11678999Y-7495598D01*
X11683655Y-14105940D02*
X11688230Y-14107704D01*
X11683655Y-14294060D02*
X11676645Y-14296281D01*
X11685696Y-7306695D02*
X11690197Y-7308544D01*
X11685910Y-506789D02*
X11692667Y-509684D01*
X11688230Y-692296D02*
X11683655Y-694060D01*
X11688230Y-7492295D02*
X11683655Y-7494060D01*
X11688230Y-14107704D02*
X11692713Y-14109691D01*
X11690197Y-7308544D02*
X11694603Y-7310610D01*
X11690484Y-14291329D02*
X11683655Y-14294060D01*
X11692667Y-509684D02*
X11697046Y-511887D01*
X11692713Y-14109691D02*
X11697092Y-14111896D01*
X11694603Y-7310610D02*
X11698904Y-7312888D01*
X11694916Y-689233D02*
X11688230Y-692296D01*
X11694916Y-7489233D02*
X11688230Y-7492295D01*
X11697046Y-511887D02*
X11701311Y-514301D01*
X11697092Y-14111896D02*
X11701359Y-14114313D01*
X11697092Y-14288104D02*
X11690484Y-14291329D01*
X11698904Y-7312888D02*
X11703088Y-7315373D01*
X11699240Y-686922D02*
X11694916Y-689233D01*
X11699240Y-7486922D02*
X11694916Y-7489233D01*
X11701311Y-514301D02*
X11705452Y-516923D01*
X11701359Y-14114313D02*
X11707523Y-14118323D01*
X11703088Y-7315373D02*
X11707146Y-7318059D01*
X11703446Y-684401D02*
X11699240Y-686922D01*
X11703446Y-7484401D02*
X11699240Y-7486922D01*
X11703446Y-14284401D02*
X11697092Y-14288104D01*
X11705452Y-516923D02*
X11709460Y-519744D01*
X11707146Y-7318059D02*
X11711069Y-7320939D01*
X11707523Y-681677D02*
X11703446Y-684401D01*
X11707523Y-7481677D02*
X11703446Y-7484401D01*
X11707523Y-14118323D02*
X11711462Y-14121244D01*
X11707523Y-14281677D02*
X11703446Y-14284401D01*
X11709460Y-519744D02*
X11713325Y-522758D01*
X11711069Y-7320939D02*
X11716678Y-7325609D01*
X11711462Y-678756D02*
X11707523Y-681677D01*
X11711462Y-7478756D02*
X11707523Y-7481677D01*
X11711462Y-14121244D02*
X11715252Y-14124355D01*
X11711462Y-14278756D02*
X11707523Y-14281677D01*
X11713325Y-522758D02*
X11717037Y-525959D01*
X11715252Y-7475645D02*
X11711462Y-7478756D01*
X11715252Y-14124355D02*
X11718885Y-14127648D01*
X11716678Y-7325609D02*
X11720222Y-7328945D01*
X11717037Y-525959D02*
X11722300Y-531091D01*
X11717089Y-674021D02*
X11711462Y-678756D01*
X11717089Y-14274021D02*
X11711462Y-14278756D01*
X11718885Y-7472352D02*
X11715252Y-7475645D01*
X11718885Y-14127648D02*
X11722352Y-14131115D01*
X11720222Y-7328945D02*
X11723599Y-7332449D01*
X11720640Y-670640D02*
X11717089Y-674021D01*
X11722300Y-531091D02*
X11725593Y-534721D01*
X11722352Y-14131115D02*
X11725645Y-14134748D01*
X11722352Y-14268885D02*
X11717089Y-14274021D01*
X11723599Y-7332449D02*
X11726802Y-7336113D01*
X11724021Y-667089D02*
X11720640Y-670640D01*
X11724021Y-7467089D02*
X11718885Y-7472352D01*
X11725593Y-534721D02*
X11728704Y-538509D01*
X11725645Y-14134748D02*
X11728756Y-14138538D01*
X11725645Y-14265252D02*
X11722352Y-14268885D01*
X11726802Y-7336113D02*
X11729822Y-7339929D01*
X11727224Y-663376D02*
X11724021Y-667089D01*
X11728704Y-538509D02*
X11731625Y-542445D01*
X11728756Y-7461462D02*
X11724021Y-7467089D01*
X11728756Y-14138538D02*
X11731677Y-14142477D01*
X11728756Y-14261462D02*
X11725645Y-14265252D01*
X11729822Y-7339929D02*
X11732652Y-7343888D01*
X11730240Y-659510D02*
X11727224Y-663376D01*
X11731625Y-542445D02*
X11734350Y-546519D01*
X11731677Y-7457523D02*
X11728756Y-7461462D01*
X11731677Y-14142477D02*
X11734401Y-14146554D01*
X11732652Y-7343888D02*
X11735287Y-7347980D01*
X11733064Y-655501D02*
X11730240Y-659510D01*
X11733064Y-14255501D02*
X11728756Y-14261462D01*
X11734350Y-546519D02*
X11736871Y-550722D01*
X11734401Y-7453446D02*
X11731677Y-7457523D01*
X11734401Y-14146554D02*
X11736922Y-14150759D01*
X11735287Y-7347980D02*
X11737719Y-7352195D01*
X11735687Y-651359D02*
X11733064Y-655501D01*
X11736871Y-550722D02*
X11739184Y-555044D01*
X11736922Y-7449240D02*
X11734401Y-7453446D01*
X11736922Y-14150759D02*
X11740308Y-14157287D01*
X11736922Y-14249240D02*
X11733064Y-14255501D01*
X11737719Y-7352195D02*
X11739943Y-7356523D01*
X11739184Y-555044D02*
X11742248Y-561726D01*
X11739233Y-644916D02*
X11735687Y-651359D01*
X11739233Y-7444916D02*
X11736922Y-7449240D01*
X11739943Y-7356523D02*
X11742877Y-7363206D01*
X11740308Y-14157287D02*
X11742295Y-14161770D01*
X11740308Y-14242713D02*
X11736922Y-14249240D01*
X11741329Y-640484D02*
X11739233Y-644916D01*
X11741329Y-7440484D02*
X11739233Y-7444916D01*
X11742248Y-561726D02*
X11744014Y-566298D01*
X11742295Y-14161770D02*
X11744060Y-14166345D01*
X11742877Y-7363206D02*
X11744559Y-7367773D01*
X11743206Y-635954D02*
X11741329Y-640484D01*
X11743206Y-7435953D02*
X11741329Y-7440484D01*
X11743206Y-14235953D02*
X11740308Y-14242713D01*
X11744014Y-566298D02*
X11745554Y-570951D01*
X11744060Y-14166345D02*
X11745598Y-14171000D01*
X11744559Y-7367773D02*
X11746016Y-7372416D01*
X11744858Y-631337D02*
X11743206Y-635954D01*
X11744858Y-7431337D02*
X11743206Y-7435953D01*
X11745554Y-570951D02*
X11746864Y-575674D01*
X11745598Y-14171000D02*
X11746906Y-14175726D01*
X11745598Y-14228999D02*
X11743206Y-14235953D01*
X11746016Y-7372416D02*
X11747246Y-7377125D01*
X11746281Y-626645D02*
X11744858Y-631337D01*
X11746281Y-7426645D02*
X11744858Y-7431337D01*
X11746864Y-575674D02*
X11747940Y-580455D01*
X11746906Y-14175726D02*
X11747980Y-14180510D01*
X11747246Y-7377125D02*
X11748244Y-7381888D01*
X11747473Y-621888D02*
X11746281Y-626645D01*
X11747473Y-14221888D02*
X11745598Y-14228999D01*
X11747940Y-580455D02*
X11748781Y-585284D01*
X11747980Y-7419489D02*
X11746281Y-7426645D01*
X11747980Y-14180510D02*
X11748819Y-14185342D01*
X11748244Y-7381888D02*
X11749010Y-7386694D01*
X11748429Y-617079D02*
X11747473Y-621888D01*
X11748429Y-14217079D02*
X11747473Y-14221888D01*
X11748781Y-585284D02*
X11749384Y-590148D01*
X11748819Y-7414658D02*
X11747980Y-7419489D01*
X11748819Y-14185342D02*
X11749419Y-14190208D01*
X11749010Y-7386694D02*
X11749540Y-7391532D01*
X11749149Y-612229D02*
X11748429Y-617079D01*
X11749149Y-14212229D02*
X11748429Y-14217079D01*
X11749384Y-590148D02*
X11749839Y-597485D01*
X11749419Y-7409792D02*
X11748819Y-7414658D01*
X11749419Y-14190208D02*
X11749780Y-14195098D01*
X11749540Y-7391532D02*
X11749907Y-7399972D01*
X11749629Y-607349D02*
X11749149Y-612229D01*
X11749629Y-14207349D02*
X11749149Y-14212229D01*
X11749780Y-7404902D02*
X11749419Y-7409792D01*
X11749780Y-14195098D02*
X11749870Y-14202452D01*
X11749839Y-597485D02*
X11749870Y-602452D01*
X11749870Y-602452D02*
X11749629Y-607349D01*
X11749870Y-14202452D02*
X11749629Y-14207349D01*
X11749907Y-7399972D02*
X11749780Y-7404902D01*
X12050093Y-7400027D02*
X12050220Y-7395098D01*
X12050130Y-597548D02*
X12050371Y-592651D01*
X12050130Y-602452D02*
X12050130Y-597548D01*
X12050130Y-14197548D02*
X12050581Y-14190208D01*
X12050161Y-14202515D02*
X12050130Y-14197548D01*
X12050220Y-7395098D02*
X12050581Y-7390208D01*
X12050283Y-7406041D02*
X12050093Y-7400027D01*
X12050371Y-592651D02*
X12050851Y-587771D01*
X12050371Y-607349D02*
X12050130Y-602452D01*
X12050404Y-14207410D02*
X12050161Y-14202515D01*
X12050581Y-7390208D02*
X12051181Y-7385342D01*
X12050581Y-14190208D02*
X12051181Y-14185342D01*
X12050695Y-7410890D02*
X12050283Y-7406041D01*
X12050851Y-587771D02*
X12051571Y-582921D01*
X12050851Y-612229D02*
X12050371Y-607349D01*
X12050888Y-14212288D02*
X12050404Y-14207410D01*
X12051181Y-7385342D02*
X12052019Y-7380510D01*
X12051181Y-14185342D02*
X12052019Y-14180510D01*
X12051343Y-7415713D02*
X12050695Y-7410890D01*
X12051571Y-582921D02*
X12052527Y-578112D01*
X12051571Y-617079D02*
X12050851Y-612229D01*
X12051610Y-14217136D02*
X12050888Y-14212288D01*
X12052019Y-7380510D02*
X12053094Y-7375726D01*
X12052019Y-14180510D02*
X12053094Y-14175726D01*
X12052226Y-7420499D02*
X12051343Y-7415713D01*
X12052527Y-578112D02*
X12053719Y-573355D01*
X12052527Y-621888D02*
X12051571Y-617079D01*
X12052569Y-14221942D02*
X12051610Y-14217136D01*
X12053094Y-7375726D02*
X12054402Y-7371000D01*
X12053094Y-14175726D02*
X12055142Y-14168663D01*
X12053719Y-573355D02*
X12055142Y-568663D01*
X12053719Y-626645D02*
X12052527Y-621888D01*
X12053762Y-14226696D02*
X12052569Y-14221942D01*
X12053983Y-7427583D02*
X12052226Y-7420499D01*
X12054402Y-7371000D02*
X12055940Y-7366345D01*
X12055142Y-568663D02*
X12057704Y-561770D01*
X12055142Y-631337D02*
X12053719Y-626645D01*
X12055142Y-14168663D02*
X12056794Y-14164046D01*
X12055940Y-7366345D02*
X12057704Y-7361770D01*
X12055986Y-14233703D02*
X12053762Y-14226696D01*
X12056254Y-7434520D02*
X12053983Y-7427583D01*
X12056794Y-14164046D02*
X12058670Y-14159516D01*
X12057704Y-561770D02*
X12059691Y-557287D01*
X12057704Y-638230D02*
X12055142Y-631337D01*
X12057704Y-7361770D02*
X12059691Y-7357287D01*
X12057752Y-14238275D02*
X12055986Y-14233703D01*
X12058046Y-7439045D02*
X12056254Y-7434520D01*
X12058670Y-14159516D02*
X12060767Y-14155084D01*
X12059691Y-557287D02*
X12061896Y-552907D01*
X12059691Y-642713D02*
X12057704Y-638230D01*
X12059691Y-7357287D02*
X12063078Y-7350759D01*
X12059740Y-14242755D02*
X12057752Y-14238275D01*
X12060057Y-7443476D02*
X12058046Y-7439045D01*
X12060767Y-14155084D02*
X12063078Y-14150759D01*
X12061896Y-552907D02*
X12064313Y-548641D01*
X12061896Y-647093D02*
X12059691Y-642713D01*
X12061946Y-14247132D02*
X12059740Y-14242755D01*
X12062281Y-7447805D02*
X12060057Y-7443476D01*
X12063078Y-7350759D02*
X12065599Y-7346554D01*
X12063078Y-14150759D02*
X12066936Y-14144498D01*
X12064313Y-548641D02*
X12066936Y-544499D01*
X12064313Y-651359D02*
X12061896Y-647093D01*
X12064364Y-14251395D02*
X12061946Y-14247132D01*
X12065599Y-7346554D02*
X12068323Y-7342477D01*
X12066005Y-7454082D02*
X12062281Y-7447805D01*
X12066936Y-544499D02*
X12069759Y-540490D01*
X12066936Y-655501D02*
X12064313Y-651359D01*
X12066936Y-14144498D02*
X12069759Y-14140490D01*
X12066988Y-14255535D02*
X12064364Y-14251395D01*
X12068323Y-7342477D02*
X12072776Y-7336624D01*
X12068739Y-7458109D02*
X12066005Y-7454082D01*
X12069759Y-540490D02*
X12072776Y-536624D01*
X12069759Y-659510D02*
X12066936Y-655501D01*
X12069759Y-14140490D02*
X12072776Y-14136624D01*
X12069811Y-14259541D02*
X12066988Y-14255535D01*
X12071665Y-7461997D02*
X12068739Y-7458109D01*
X12072776Y-536624D02*
X12075979Y-532911D01*
X12072776Y-663376D02*
X12069759Y-659510D01*
X12072776Y-7336624D02*
X12075979Y-7332911D01*
X12072776Y-14136624D02*
X12075979Y-14132911D01*
X12074407Y-14265279D02*
X12069811Y-14259541D01*
X12074777Y-7465738D02*
X12071665Y-7461997D01*
X12075979Y-532911D02*
X12079360Y-529360D01*
X12075979Y-667089D02*
X12072776Y-663376D01*
X12075979Y-7332911D02*
X12079360Y-7329360D01*
X12075979Y-14132911D02*
X12079360Y-14129360D01*
X12077700Y-14268909D02*
X12074407Y-14265279D01*
X12078068Y-7469324D02*
X12074777Y-7465738D01*
X12079360Y-529360D02*
X12082911Y-525979D01*
X12079360Y-670640D02*
X12075979Y-667089D01*
X12079360Y-7329360D02*
X12084748Y-7324355D01*
X12079360Y-14129360D02*
X12084748Y-14124355D01*
X12081167Y-14272374D02*
X12077700Y-14268909D01*
X12081529Y-7472744D02*
X12078068Y-7469324D01*
X12082911Y-525979D02*
X12086624Y-522776D01*
X12082911Y-674021D02*
X12079360Y-670640D01*
X12084748Y-7324355D02*
X12088538Y-7321244D01*
X12084748Y-14124355D02*
X12090490Y-14119759D01*
X12084799Y-14275664D02*
X12081167Y-14272374D01*
X12086624Y-522776D02*
X12090490Y-519759D01*
X12086624Y-677224D02*
X12082911Y-674021D01*
X12087023Y-7477550D02*
X12081529Y-7472744D01*
X12088538Y-7321244D02*
X12092477Y-7318323D01*
X12090490Y-519759D02*
X12094498Y-516936D01*
X12090490Y-680240D02*
X12086624Y-677224D01*
X12090490Y-14119759D02*
X12094498Y-14116936D01*
X12090540Y-14280256D02*
X12084799Y-14275664D01*
X12090875Y-7480524D02*
X12087023Y-7477550D01*
X12092477Y-7318323D02*
X12098641Y-7314313D01*
X12094498Y-516936D02*
X12098641Y-514313D01*
X12094498Y-683064D02*
X12090490Y-680240D01*
X12094498Y-14116936D02*
X12098641Y-14114313D01*
X12094548Y-14283077D02*
X12090540Y-14280256D01*
X12094866Y-7483308D02*
X12090875Y-7480524D01*
X12098641Y-514313D02*
X12102907Y-511896D01*
X12098641Y-685687D02*
X12094498Y-683064D01*
X12098641Y-7314313D02*
X12105084Y-7310767D01*
X12098641Y-14114313D02*
X12102907Y-14111896D01*
X12098689Y-14285698D02*
X12094548Y-14283077D01*
X12098989Y-7485894D02*
X12094866Y-7483308D01*
X12102907Y-511896D02*
X12107287Y-509691D01*
X12102907Y-688104D02*
X12098641Y-685687D01*
X12102907Y-14111896D02*
X12107287Y-14109691D01*
X12102954Y-14288113D02*
X12098689Y-14285698D01*
X12103232Y-7488277D02*
X12098989Y-7485894D01*
X12105084Y-7310767D02*
X12109516Y-7308670D01*
X12107287Y-509691D02*
X12111770Y-507704D01*
X12107287Y-690309D02*
X12102907Y-688104D01*
X12107287Y-14109691D02*
X12114046Y-14106794D01*
X12107333Y-14290316D02*
X12102954Y-14288113D01*
X12107587Y-7490450D02*
X12103232Y-7488277D01*
X12109516Y-7308670D02*
X12114046Y-7306794D01*
X12111770Y-507704D02*
X12116345Y-505940D01*
X12111770Y-692296D02*
X12107287Y-690309D01*
X12111814Y-14292302D02*
X12107333Y-14290316D01*
X12114046Y-7306794D02*
X12121000Y-7304402D01*
X12114046Y-14106794D02*
X12121000Y-14104402D01*
X12114304Y-7493305D02*
X12107587Y-7490450D01*
X12116345Y-505940D02*
X12121000Y-504402D01*
X12116345Y-694060D02*
X12111770Y-692296D01*
X12116387Y-14294065D02*
X12111814Y-14292302D01*
X12118890Y-7494933D02*
X12114304Y-7493305D01*
X12121000Y-504402D02*
X12125726Y-503094D01*
X12121000Y-695598D02*
X12116345Y-694060D01*
X12121000Y-7304402D02*
X12125726Y-7303094D01*
X12121000Y-14104402D02*
X12125726Y-14103094D01*
X12121041Y-14295602D02*
X12116387Y-14294065D01*
X12123550Y-7496335D02*
X12118890Y-7494933D01*
X12125726Y-503094D02*
X12130510Y-502019D01*
X12125726Y-696906D02*
X12121000Y-695598D01*
X12125726Y-7303094D02*
X12130510Y-7302019D01*
X12125726Y-14103094D02*
X12130510Y-14102019D01*
X12128150Y-14297475D02*
X12121041Y-14295602D01*
X12128273Y-7497509D02*
X12123550Y-7496335D01*
X12130510Y-502019D02*
X12135342Y-501181D01*
X12130510Y-697980D02*
X12125726Y-696906D01*
X12130510Y-7302019D02*
X12135342Y-7301181D01*
X12130510Y-14102019D02*
X12135342Y-14101181D01*
X12132957Y-14298430D02*
X12128150Y-14297475D01*
X12133048Y-7498451D02*
X12128273Y-7497509D01*
X12135342Y-501181D02*
X12140208Y-500581D01*
X12135342Y-698819D02*
X12130510Y-697980D01*
X12135342Y-7301181D02*
X12140208Y-7300581D01*
X12135342Y-14101181D02*
X12140208Y-14100581D01*
X12137805Y-14299149D02*
X12132957Y-14298430D01*
X12137862Y-7499160D02*
X12133048Y-7498451D01*
X12140208Y-500581D02*
X12150100Y-500000D01*
X12140208Y-699419D02*
X12135342Y-698819D01*
X12140208Y-7300581D02*
X12150100Y-7300000D01*
X12140208Y-14100581D02*
X12150100Y-14100000D01*
X12142683Y-14299629D02*
X12137805Y-14299149D01*
X12142706Y-7499633D02*
X12137862Y-7499160D01*
X12150100Y-500000D02*
X18449869Y-500000D01*
X12150100Y-700000D02*
X12140208Y-699419D01*
X12150100Y-7300000D02*
X18449900Y-7300000D01*
X12150100Y-7500000D02*
X12142706Y-7499633D01*
X12150100Y-14100000D02*
X18449900Y-14100000D01*
X12150129Y-14300000D02*
X12142683Y-14299629D01*
X18449869Y-500000D02*
X18459756Y-500581D01*
X18449900Y-700000D02*
X12150100Y-700000D01*
X18449900Y-7300000D02*
X18459719Y-7300574D01*
X18449900Y-7500000D02*
X12150100Y-7500000D01*
X18449900Y-14100000D02*
X18459792Y-14100581D01*
X18449900Y-14300000D02*
X12150129Y-14300000D01*
X18459719Y-7300574D02*
X18464549Y-7301165D01*
X18459756Y-500581D02*
X18464621Y-501180D01*
X18459792Y-699419D02*
X18449900Y-700000D01*
X18459792Y-7499419D02*
X18449900Y-7500000D01*
X18459792Y-14100581D02*
X18464658Y-14101181D01*
X18459792Y-14299419D02*
X18449900Y-14300000D01*
X18464549Y-7301165D02*
X18469345Y-7301991D01*
X18464621Y-501180D02*
X18469450Y-502018D01*
X18464658Y-698819D02*
X18459792Y-699419D01*
X18464658Y-7498819D02*
X18459792Y-7499419D01*
X18464658Y-14101181D02*
X18469490Y-14102019D01*
X18464658Y-14298819D02*
X18459792Y-14299419D01*
X18469345Y-7301991D02*
X18474095Y-7303049D01*
X18469450Y-502018D02*
X18474232Y-503091D01*
X18469490Y-697980D02*
X18464658Y-698819D01*
X18469490Y-7497980D02*
X18464658Y-7498819D01*
X18469490Y-14102019D02*
X18474274Y-14103094D01*
X18469490Y-14297980D02*
X18464658Y-14298819D01*
X18474095Y-7303049D02*
X18478788Y-7304338D01*
X18474232Y-503091D02*
X18478956Y-504398D01*
X18474274Y-696906D02*
X18469490Y-697980D01*
X18474274Y-7496906D02*
X18469490Y-7497980D01*
X18474274Y-14103094D02*
X18478999Y-14104402D01*
X18474274Y-14296906D02*
X18469490Y-14297980D01*
X18478788Y-7304338D02*
X18483413Y-7305853D01*
X18478956Y-504398D02*
X18483610Y-505935D01*
X18478999Y-695598D02*
X18474274Y-696906D01*
X18478999Y-7495598D02*
X18474274Y-7496906D01*
X18478999Y-14104402D02*
X18483655Y-14105940D01*
X18478999Y-14295598D02*
X18474274Y-14296906D01*
X18483413Y-7305853D02*
X18487958Y-7307592D01*
X18483610Y-505935D02*
X18488183Y-507698D01*
X18483655Y-694060D02*
X18478999Y-695598D01*
X18483655Y-7494060D02*
X18478999Y-7495598D01*
X18483655Y-14105940D02*
X18488230Y-14107704D01*
X18483655Y-14294060D02*
X18478999Y-14295598D01*
X18487958Y-7307592D02*
X18492413Y-7309550D01*
X18488183Y-507698D02*
X18492664Y-509683D01*
X18488230Y-692296D02*
X18483655Y-694060D01*
X18488230Y-7492295D02*
X18483655Y-7494060D01*
X18488230Y-14107704D02*
X18492713Y-14109691D01*
X18488230Y-14292295D02*
X18483655Y-14294060D01*
X18492413Y-7309550D02*
X18496768Y-7311723D01*
X18492664Y-509683D02*
X18497042Y-511886D01*
X18492713Y-690309D02*
X18488230Y-692296D01*
X18492713Y-7490308D02*
X18488230Y-7492295D01*
X18492713Y-14109691D02*
X18497093Y-14111896D01*
X18492713Y-14290308D02*
X18488230Y-14292295D01*
X18496768Y-7311723D02*
X18501011Y-7314105D01*
X18497042Y-511886D02*
X18501307Y-514301D01*
X18497093Y-688104D02*
X18492713Y-690309D01*
X18497093Y-7488104D02*
X18492713Y-7490308D01*
X18497093Y-14111896D02*
X18501359Y-14114313D01*
X18497093Y-14288104D02*
X18492713Y-14290308D01*
X18501011Y-7314105D02*
X18505134Y-7316691D01*
X18501307Y-514301D02*
X18505449Y-516922D01*
X18501359Y-685687D02*
X18497093Y-688104D01*
X18501359Y-7485687D02*
X18497093Y-7488104D01*
X18501359Y-14114313D02*
X18505501Y-14116936D01*
X18501359Y-14285687D02*
X18497093Y-14288104D01*
X18505134Y-7316691D02*
X18509125Y-7319475D01*
X18505449Y-516922D02*
X18509457Y-519743D01*
X18505501Y-683064D02*
X18501359Y-685687D01*
X18505501Y-7483064D02*
X18501359Y-7485687D01*
X18505501Y-14116936D02*
X18509510Y-14119759D01*
X18505501Y-14283064D02*
X18501359Y-14285687D01*
X18509125Y-7319475D02*
X18512977Y-7322450D01*
X18509457Y-519743D02*
X18513321Y-522757D01*
X18509510Y-680240D02*
X18505501Y-683064D01*
X18509510Y-7480240D02*
X18505501Y-7483064D01*
X18509510Y-14119759D02*
X18513376Y-14122776D01*
X18509510Y-14280240D02*
X18505501Y-14283064D01*
X18512977Y-7322450D02*
X18516679Y-7325609D01*
X18513321Y-522757D02*
X18517034Y-525957D01*
X18513376Y-677224D02*
X18509510Y-680240D01*
X18513376Y-7477224D02*
X18509510Y-7480240D01*
X18513376Y-14122776D02*
X18517089Y-14125979D01*
X18513376Y-14277224D02*
X18509510Y-14280240D01*
X18516679Y-7325609D02*
X18520222Y-7328945D01*
X18517034Y-525957D02*
X18520584Y-529336D01*
X18517089Y-674021D02*
X18513376Y-677224D01*
X18517089Y-7474021D02*
X18513376Y-7477224D01*
X18517089Y-14125979D02*
X18520640Y-14129360D01*
X18517089Y-14274021D02*
X18513376Y-14277224D01*
X18520222Y-7328945D02*
X18523599Y-7332449D01*
X18520584Y-529336D02*
X18523965Y-532884D01*
X18520640Y-670640D02*
X18517089Y-674021D01*
X18520640Y-7470640D02*
X18517089Y-7474021D01*
X18520640Y-14129360D02*
X18524021Y-14132911D01*
X18520640Y-14270640D02*
X18517089Y-14274021D01*
X18523599Y-7332449D02*
X18526802Y-7336113D01*
X18523965Y-532884D02*
X18527168Y-536594D01*
X18524021Y-667089D02*
X18520640Y-670640D01*
X18524021Y-7467089D02*
X18520640Y-7470640D01*
X18524021Y-14132911D02*
X18527224Y-14136624D01*
X18524021Y-14267089D02*
X18520640Y-14270640D01*
X18526802Y-7336113D02*
X18529822Y-7339929D01*
X18527168Y-536594D02*
X18530185Y-540457D01*
X18527224Y-663376D02*
X18524021Y-667089D01*
X18527224Y-7463376D02*
X18524021Y-7467089D01*
X18527224Y-14136624D02*
X18530240Y-14140490D01*
X18527224Y-14263376D02*
X18524021Y-14267089D01*
X18529822Y-7339929D02*
X18532653Y-7343888D01*
X18530185Y-540457D02*
X18533009Y-544463D01*
X18530240Y-659510D02*
X18527224Y-663376D01*
X18530240Y-7459510D02*
X18527224Y-7463376D01*
X18530240Y-14140490D02*
X18533064Y-14144498D01*
X18530240Y-14259510D02*
X18527224Y-14263376D01*
X18532653Y-7343888D02*
X18535287Y-7347980D01*
X18533009Y-544463D02*
X18535633Y-548602D01*
X18533064Y-655501D02*
X18530240Y-659510D01*
X18533064Y-7455501D02*
X18530240Y-7459510D01*
X18533064Y-14144498D02*
X18535687Y-14148641D01*
X18533064Y-14255501D02*
X18530240Y-14259510D01*
X18535287Y-7347980D02*
X18537719Y-7352195D01*
X18535633Y-548602D02*
X18538050Y-552866D01*
X18535687Y-651359D02*
X18533064Y-655501D01*
X18535687Y-7451359D02*
X18533064Y-7455501D01*
X18535687Y-14148641D02*
X18538104Y-14152907D01*
X18535687Y-14251359D02*
X18533064Y-14255501D01*
X18537719Y-7352195D02*
X18539943Y-7356523D01*
X18538050Y-552866D02*
X18540256Y-557242D01*
X18538104Y-647093D02*
X18535687Y-651359D01*
X18538104Y-7447092D02*
X18535687Y-7451359D01*
X18538104Y-14152907D02*
X18540309Y-14157287D01*
X18538104Y-14247092D02*
X18535687Y-14251359D01*
X18539943Y-7356523D02*
X18541954Y-7360955D01*
X18540256Y-557242D02*
X18542244Y-561722D01*
X18540309Y-642713D02*
X18538104Y-647093D01*
X18540309Y-7442713D02*
X18538104Y-7447092D01*
X18540309Y-14157287D02*
X18542296Y-14161770D01*
X18540309Y-14242713D02*
X18538104Y-14247092D01*
X18541954Y-7360955D02*
X18543746Y-7365480D01*
X18542244Y-561722D02*
X18544011Y-566294D01*
X18542296Y-638230D02*
X18540309Y-642713D01*
X18542296Y-7438230D02*
X18540309Y-7442713D01*
X18542296Y-14161770D02*
X18544060Y-14166345D01*
X18542296Y-14238230D02*
X18540309Y-14242713D01*
X18543746Y-7365480D02*
X18545316Y-7370086D01*
X18544011Y-566294D02*
X18545551Y-570947D01*
X18544060Y-633655D02*
X18542296Y-638230D01*
X18544060Y-7433655D02*
X18542296Y-7438230D01*
X18544060Y-14166345D02*
X18545598Y-14171000D01*
X18544060Y-14233655D02*
X18542296Y-14238230D01*
X18545316Y-7370086D02*
X18546660Y-7374763D01*
X18545551Y-570947D02*
X18546861Y-575670D01*
X18545598Y-628999D02*
X18544060Y-633655D01*
X18545598Y-7428999D02*
X18544060Y-7433655D01*
X18545598Y-14171000D02*
X18546906Y-14175726D01*
X18545598Y-14228999D02*
X18544060Y-14233655D01*
X18546660Y-7374763D02*
X18547774Y-7379501D01*
X18546861Y-575670D02*
X18547937Y-580451D01*
X18546906Y-624274D02*
X18545598Y-628999D01*
X18546906Y-7424274D02*
X18545598Y-7428999D01*
X18546906Y-14175726D02*
X18547980Y-14180510D01*
X18546906Y-14224274D02*
X18545598Y-14228999D01*
X18547774Y-7379501D02*
X18548656Y-7384286D01*
X18547937Y-580451D02*
X18548778Y-585280D01*
X18547980Y-619490D02*
X18546906Y-624274D01*
X18547980Y-7419489D02*
X18546906Y-7424274D01*
X18547980Y-14180510D02*
X18548819Y-14185342D01*
X18547980Y-14219489D02*
X18546906Y-14224274D01*
X18548656Y-7384286D02*
X18549305Y-7389110D01*
X18548778Y-585280D02*
X18549381Y-590144D01*
X18548819Y-614658D02*
X18547980Y-619490D01*
X18548819Y-7414658D02*
X18547980Y-7419489D01*
X18548819Y-14185342D02*
X18549419Y-14190208D01*
X18548819Y-14214658D02*
X18547980Y-14219489D01*
X18549305Y-7389110D02*
X18549717Y-7393959D01*
X18549381Y-590144D02*
X18549745Y-595031D01*
X18549419Y-609792D02*
X18548819Y-614658D01*
X18549419Y-7409792D02*
X18548819Y-7414658D01*
X18549419Y-14190208D02*
X18549780Y-14195098D01*
X18549419Y-14209792D02*
X18548819Y-14214658D01*
X18549717Y-7393959D02*
X18549907Y-7399972D01*
X18549745Y-595031D02*
X18549870Y-602406D01*
X18549780Y-7404902D02*
X18549419Y-7409792D01*
X18549780Y-14195098D02*
X18549900Y-14200512D01*
X18549780Y-14204902D02*
X18549419Y-14209792D01*
X18549870Y-602406D02*
X18549419Y-609792D01*
X18549900Y-14200512D02*
X18549780Y-14204902D01*
X18549907Y-7399972D02*
X18549780Y-7404902D01*
X18850107Y-7398909D02*
X18850581Y-7390208D01*
X18850130Y-597548D02*
X18850371Y-592651D01*
X18850130Y-602452D02*
X18850130Y-597548D01*
X18850130Y-14197548D02*
X18850581Y-14190208D01*
X18850165Y-7403611D02*
X18850107Y-7398909D01*
X18850291Y-14206168D02*
X18850130Y-14197548D01*
X18850371Y-592651D02*
X18850851Y-587771D01*
X18850371Y-607349D02*
X18850130Y-602452D01*
X18850460Y-7408468D02*
X18850165Y-7403611D01*
X18850581Y-7390208D02*
X18851181Y-7385342D01*
X18850581Y-14190208D02*
X18851181Y-14185342D01*
X18850718Y-14211091D02*
X18850291Y-14206168D01*
X18850851Y-587771D02*
X18851571Y-582921D01*
X18850851Y-612229D02*
X18850371Y-607349D01*
X18850990Y-7413306D02*
X18850460Y-7408468D01*
X18851181Y-7385342D02*
X18852020Y-7380510D01*
X18851181Y-14185342D02*
X18852020Y-14180510D01*
X18851388Y-14215988D02*
X18850718Y-14211091D01*
X18851571Y-582921D02*
X18852527Y-578112D01*
X18851571Y-617079D02*
X18850851Y-612229D01*
X18851756Y-7418112D02*
X18850990Y-7413306D01*
X18852020Y-7380510D02*
X18853719Y-7373355D01*
X18852020Y-14180510D02*
X18853094Y-14175726D01*
X18852299Y-14220845D02*
X18851388Y-14215988D01*
X18852527Y-578112D02*
X18854402Y-571001D01*
X18852527Y-621888D02*
X18851571Y-617079D01*
X18852754Y-7422875D02*
X18851756Y-7418112D01*
X18853094Y-14175726D02*
X18854402Y-14171000D01*
X18853450Y-14225652D02*
X18852299Y-14220845D01*
X18853719Y-626645D02*
X18852527Y-621888D01*
X18853719Y-7373355D02*
X18855142Y-7368663D01*
X18853984Y-7427583D02*
X18852754Y-7422875D01*
X18854402Y-571001D02*
X18855940Y-566345D01*
X18854402Y-14171000D02*
X18855940Y-14166345D01*
X18854836Y-14230395D02*
X18853450Y-14225652D01*
X18855142Y-631337D02*
X18853719Y-626645D01*
X18855142Y-7368663D02*
X18856794Y-7364046D01*
X18855441Y-7432227D02*
X18853984Y-7427583D01*
X18855940Y-566345D02*
X18857704Y-561770D01*
X18855940Y-14166345D02*
X18857704Y-14161770D01*
X18856456Y-14235064D02*
X18854836Y-14230395D01*
X18856794Y-635954D02*
X18855142Y-631337D01*
X18856794Y-7364046D02*
X18858670Y-7359516D01*
X18857122Y-7436793D02*
X18855441Y-7432227D01*
X18857704Y-561770D02*
X18859691Y-557287D01*
X18857704Y-14161770D02*
X18859691Y-14157287D01*
X18858305Y-14239648D02*
X18856456Y-14235064D01*
X18858670Y-640484D02*
X18856794Y-635954D01*
X18858670Y-7359516D02*
X18860767Y-7355084D01*
X18859024Y-7441273D02*
X18857122Y-7436793D01*
X18859691Y-557287D02*
X18861896Y-552907D01*
X18859691Y-14157287D02*
X18861896Y-14152907D01*
X18860378Y-14244134D02*
X18858305Y-14239648D01*
X18860767Y-644916D02*
X18858670Y-640484D01*
X18860767Y-7355084D02*
X18863078Y-7350759D01*
X18861142Y-7445654D02*
X18859024Y-7441273D01*
X18861896Y-552907D02*
X18865599Y-546554D01*
X18861896Y-14152907D02*
X18865599Y-14146554D01*
X18862670Y-14248513D02*
X18860378Y-14244134D01*
X18863078Y-649241D02*
X18860767Y-644916D01*
X18863078Y-7350759D02*
X18865599Y-7346554D01*
X18863471Y-7449927D02*
X18861142Y-7445654D01*
X18865176Y-14252772D02*
X18862670Y-14248513D01*
X18865599Y-546554D02*
X18868323Y-542477D01*
X18865599Y-653446D02*
X18863078Y-649241D01*
X18865599Y-7346554D02*
X18868323Y-7342477D01*
X18865599Y-14146554D02*
X18868323Y-14142477D01*
X18866005Y-7454082D02*
X18863471Y-7449927D01*
X18868323Y-542477D02*
X18871244Y-538538D01*
X18868323Y-657523D02*
X18865599Y-653446D01*
X18868323Y-7342477D02*
X18871244Y-7338538D01*
X18868323Y-14142477D02*
X18871244Y-14138538D01*
X18868739Y-7458109D02*
X18866005Y-7454082D01*
X18869323Y-14258916D02*
X18865176Y-14252772D01*
X18871244Y-538538D02*
X18874355Y-534748D01*
X18871244Y-661462D02*
X18868323Y-657523D01*
X18871244Y-7338538D02*
X18875979Y-7332911D01*
X18871244Y-14138538D02*
X18875979Y-14132911D01*
X18871665Y-7461997D02*
X18868739Y-7458109D01*
X18872335Y-14262834D02*
X18869323Y-14258916D01*
X18874355Y-534748D02*
X18877648Y-531115D01*
X18875538Y-14266598D02*
X18872335Y-14262834D01*
X18875979Y-667089D02*
X18871244Y-661462D01*
X18875979Y-7332911D02*
X18879360Y-7329360D01*
X18875979Y-14132911D02*
X18879360Y-14129360D01*
X18876401Y-7467551D02*
X18871665Y-7461997D01*
X18877648Y-531115D02*
X18882911Y-525979D01*
X18878922Y-14270199D02*
X18875538Y-14266598D01*
X18879360Y-670640D02*
X18875979Y-667089D01*
X18879360Y-7329360D02*
X18882911Y-7325979D01*
X18879360Y-14129360D02*
X18882911Y-14125979D01*
X18879778Y-7471055D02*
X18876401Y-7467551D01*
X18882481Y-14273629D02*
X18878922Y-14270199D01*
X18882911Y-525979D02*
X18886624Y-522776D01*
X18882911Y-674021D02*
X18879360Y-670640D01*
X18882911Y-7325979D02*
X18886624Y-7322776D01*
X18882911Y-14125979D02*
X18886624Y-14122776D01*
X18883321Y-7474391D02*
X18879778Y-7471055D01*
X18886205Y-14276878D02*
X18882481Y-14273629D01*
X18886624Y-522776D02*
X18890490Y-519759D01*
X18886624Y-677224D02*
X18882911Y-674021D01*
X18886624Y-7322776D02*
X18890490Y-7319759D01*
X18886624Y-14122776D02*
X18890490Y-14119759D01*
X18887023Y-7477550D02*
X18883321Y-7474391D01*
X18890085Y-14279939D02*
X18886205Y-14276878D01*
X18890490Y-519759D02*
X18894499Y-516936D01*
X18890490Y-680240D02*
X18886624Y-677224D01*
X18890490Y-7319759D02*
X18894499Y-7316936D01*
X18890490Y-14119759D02*
X18894499Y-14116936D01*
X18890875Y-7480524D02*
X18887023Y-7477550D01*
X18894112Y-14282804D02*
X18890085Y-14279939D01*
X18894499Y-516936D02*
X18898641Y-514313D01*
X18894499Y-683064D02*
X18890490Y-680240D01*
X18894499Y-7316936D02*
X18898641Y-7314313D01*
X18894499Y-14116936D02*
X18898641Y-14114313D01*
X18896912Y-7484626D02*
X18890875Y-7480524D01*
X18898275Y-14285467D02*
X18894112Y-14282804D01*
X18898641Y-514313D02*
X18902907Y-511896D01*
X18898641Y-685687D02*
X18894499Y-683064D01*
X18898641Y-7314313D02*
X18905084Y-7310767D01*
X18898641Y-14114313D02*
X18905084Y-14110767D01*
X18901096Y-7487111D02*
X18896912Y-7484626D01*
X18902566Y-14287920D02*
X18898275Y-14285467D01*
X18902907Y-511896D02*
X18907287Y-509691D01*
X18905084Y-689233D02*
X18898641Y-685687D01*
X18905084Y-7310767D02*
X18909516Y-7308670D01*
X18905084Y-14110767D02*
X18911770Y-14107704D01*
X18905396Y-7489390D02*
X18901096Y-7487111D01*
X18906972Y-14290158D02*
X18902566Y-14287920D01*
X18907287Y-509691D02*
X18911770Y-507704D01*
X18909516Y-691330D02*
X18905084Y-689233D01*
X18909516Y-7308670D02*
X18914046Y-7306794D01*
X18911483Y-14292176D02*
X18906972Y-14290158D01*
X18911770Y-507704D02*
X18916345Y-505940D01*
X18911770Y-14107704D02*
X18916345Y-14105940D01*
X18912042Y-7492408D02*
X18905396Y-7489390D01*
X18914046Y-693206D02*
X18909516Y-691330D01*
X18914046Y-7306794D02*
X18921001Y-7304402D01*
X18916089Y-14293968D02*
X18911483Y-14292176D01*
X18916345Y-505940D02*
X18923355Y-503719D01*
X18916345Y-14105940D02*
X18921001Y-14104402D01*
X18916587Y-7494147D02*
X18912042Y-7492408D01*
X18920778Y-14295530D02*
X18916089Y-14293968D01*
X18921001Y-695598D02*
X18914046Y-693206D01*
X18921001Y-7304402D02*
X18925726Y-7303094D01*
X18921001Y-14104402D02*
X18925726Y-14103094D01*
X18921212Y-7495662D02*
X18916587Y-7494147D01*
X18923355Y-503719D02*
X18928112Y-502527D01*
X18925538Y-14296859D02*
X18920778Y-14295530D01*
X18925726Y-696906D02*
X18921001Y-695598D01*
X18925726Y-7303094D02*
X18930510Y-7302019D01*
X18925726Y-14103094D02*
X18930510Y-14102019D01*
X18925905Y-7496951D02*
X18921212Y-7495662D01*
X18928112Y-502527D02*
X18932921Y-501571D01*
X18930510Y-697980D02*
X18925726Y-696906D01*
X18930510Y-7302019D02*
X18935342Y-7301181D01*
X18930510Y-14102019D02*
X18935342Y-14101181D01*
X18930655Y-7498009D02*
X18925905Y-7496951D01*
X18932787Y-14298406D02*
X18925538Y-14296859D01*
X18932921Y-501571D02*
X18937771Y-500851D01*
X18935342Y-698819D02*
X18930510Y-697980D01*
X18935342Y-7301181D02*
X18940208Y-7300581D01*
X18935342Y-14101181D02*
X18940208Y-14100581D01*
X18935451Y-7498835D02*
X18930655Y-7498009D01*
X18937675Y-14299137D02*
X18932787Y-14298406D01*
X18937771Y-500851D02*
X18942651Y-500371D01*
X18940208Y-699419D02*
X18935342Y-698819D01*
X18940208Y-7300581D02*
X18950100Y-7300000D01*
X18940208Y-14100581D02*
X18950100Y-14100000D01*
X18940281Y-7499426D02*
X18935451Y-7498835D01*
X18942593Y-14299625D02*
X18937675Y-14299137D01*
X18942651Y-500371D02*
X18950100Y-500000D01*
X18950100Y-500000D02*
X20300000Y-500000D01*
X18950100Y-700000D02*
X18940208Y-699419D01*
X18950100Y-7300000D02*
X19900000Y-7300000D01*
X18950100Y-7500000D02*
X18940281Y-7499426D01*
X18950100Y-14100000D02*
X19900000Y-14100000D01*
X18950100Y-14300000D02*
X18942593Y-14299625D01*
X19900000Y-700000D02*
X18950100Y-700000D01*
X19900000Y-7300000D02*
X19920260Y-7299487D01*
X19900000Y-7500000D02*
X18950100Y-7500000D01*
X19900000Y-14100000D02*
X19920260Y-14099487D01*
X19920260Y-700513D02*
X19900000Y-700000D01*
X19920260Y-7299487D02*
X19940467Y-7297948D01*
X19920260Y-7500513D02*
X19900000Y-7500000D01*
X19920260Y-14099487D02*
X19940467Y-14097948D01*
X19940467Y-702052D02*
X19920260Y-700513D01*
X19940467Y-7297948D02*
X19960571Y-7295387D01*
X19940467Y-7502052D02*
X19920260Y-7500513D01*
X19940467Y-14097948D02*
X19960571Y-14095387D01*
X19960571Y-704613D02*
X19940467Y-702052D01*
X19960571Y-7295387D02*
X19980519Y-7291812D01*
X19960571Y-7504613D02*
X19940467Y-7502052D01*
X19960571Y-14095387D02*
X19980519Y-14091812D01*
X19980519Y-708188D02*
X19960571Y-704613D01*
X19980519Y-7291812D02*
X20000261Y-7287231D01*
X19980519Y-7508188D02*
X19960571Y-7504613D01*
X19980519Y-14091812D02*
X20000261Y-14087231D01*
X20000261Y-712769D02*
X19980519Y-708188D01*
X20000261Y-7287231D02*
X20019745Y-7281656D01*
X20000261Y-7512769D02*
X19980519Y-7508188D01*
X20000261Y-14087231D02*
X20019745Y-14081656D01*
X20019745Y-718344D02*
X20000261Y-712769D01*
X20019745Y-7281656D02*
X20038922Y-7275101D01*
X20019745Y-7518344D02*
X20000261Y-7512769D01*
X20019745Y-14081656D02*
X20038922Y-14075101D01*
X20038922Y-724899D02*
X20019745Y-718344D01*
X20038922Y-7275101D02*
X20057742Y-7267583D01*
X20038922Y-7524899D02*
X20019745Y-7518344D01*
X20038922Y-14075101D02*
X20057742Y-14067583D01*
X20057742Y-732417D02*
X20038922Y-724899D01*
X20057742Y-7267583D02*
X20076158Y-7259122D01*
X20057742Y-7532417D02*
X20038922Y-7524899D01*
X20057742Y-14067583D02*
X20076158Y-14059122D01*
X20076158Y-740878D02*
X20057742Y-732417D01*
X20076158Y-7259122D02*
X20094121Y-7249739D01*
X20076158Y-7540878D02*
X20057742Y-7532417D01*
X20076158Y-14059122D02*
X20094121Y-14049739D01*
X20094121Y-750261D02*
X20076158Y-740878D01*
X20094121Y-7249739D02*
X20111586Y-7239458D01*
X20094121Y-7550261D02*
X20076158Y-7540878D01*
X20094121Y-14049739D02*
X20111586Y-14039458D01*
X20100100Y0D02*
X199900Y0D01*
X20100100Y-14800000D02*
X20300000Y-14600100D01*
X20111586Y-760542D02*
X20094121Y-750261D01*
X20111586Y-7239458D02*
X20128507Y-7228305D01*
X20111586Y-7560542D02*
X20094121Y-7550261D01*
X20111586Y-14039458D02*
X20128507Y-14028305D01*
X20128507Y-771695D02*
X20111586Y-760542D01*
X20128507Y-7228305D02*
X20144842Y-7216310D01*
X20128507Y-7571695D02*
X20111586Y-7560542D01*
X20128507Y-14028305D02*
X20144842Y-14016310D01*
X20144842Y-783690D02*
X20128507Y-771695D01*
X20144842Y-7216310D02*
X20160549Y-7203503D01*
X20144842Y-7583690D02*
X20128507Y-7571695D01*
X20144842Y-14016310D02*
X20160549Y-14003503D01*
X20160549Y-796497D02*
X20144842Y-783690D01*
X20160549Y-7203503D02*
X20175587Y-7189917D01*
X20160549Y-7596497D02*
X20144842Y-7583690D01*
X20160549Y-14003503D02*
X20175587Y-13989917D01*
X20175587Y-810083D02*
X20160549Y-796497D01*
X20175587Y-7189917D02*
X20189917Y-7175587D01*
X20175587Y-7610083D02*
X20160549Y-7596497D01*
X20175587Y-13989917D02*
X20189917Y-13975587D01*
X20189917Y-824413D02*
X20175587Y-810083D01*
X20189917Y-7175587D02*
X20203503Y-7160549D01*
X20189917Y-7624413D02*
X20175587Y-7610083D01*
X20189917Y-13975587D02*
X20203503Y-13960549D01*
X20203503Y-839451D02*
X20189917Y-824413D01*
X20203503Y-7160549D02*
X20216310Y-7144842D01*
X20203503Y-7639451D02*
X20189917Y-7624413D01*
X20203503Y-13960549D02*
X20216310Y-13944842D01*
X20216310Y-855158D02*
X20203503Y-839451D01*
X20216310Y-7144842D02*
X20228305Y-7128507D01*
X20216310Y-7655158D02*
X20203503Y-7639451D01*
X20216310Y-13944842D02*
X20228305Y-13928507D01*
X20228305Y-871493D02*
X20216310Y-855158D01*
X20228305Y-7128507D02*
X20239458Y-7111586D01*
X20228305Y-7671493D02*
X20216310Y-7655158D01*
X20228305Y-13928507D02*
X20239458Y-13911586D01*
X20239458Y-888414D02*
X20228305Y-871493D01*
X20239458Y-7111586D02*
X20249739Y-7094121D01*
X20239458Y-7688414D02*
X20228305Y-7671493D01*
X20239458Y-13911586D02*
X20249739Y-13894121D01*
X20249739Y-905879D02*
X20239458Y-888414D01*
X20249739Y-7094121D02*
X20259122Y-7076158D01*
X20249739Y-7705879D02*
X20239458Y-7688414D01*
X20249739Y-13894121D02*
X20259122Y-13876158D01*
X20259122Y-923842D02*
X20249739Y-905879D01*
X20259122Y-7076158D02*
X20267583Y-7057742D01*
X20259122Y-7723842D02*
X20249739Y-7705879D01*
X20259122Y-13876158D02*
X20267583Y-13857742D01*
X20267583Y-942258D02*
X20259122Y-923842D01*
X20267583Y-7057742D02*
X20275101Y-7038922D01*
X20267583Y-7742258D02*
X20259122Y-7723842D01*
X20267583Y-13857742D02*
X20275101Y-13838922D01*
X20275101Y-961078D02*
X20267583Y-942258D01*
X20275101Y-7038922D02*
X20281656Y-7019745D01*
X20275101Y-7761078D02*
X20267583Y-7742258D01*
X20275101Y-13838922D02*
X20281656Y-13819745D01*
X20281656Y-980255D02*
X20275101Y-961078D01*
X20281656Y-7019745D02*
X20287231Y-7000261D01*
X20281656Y-7780255D02*
X20275101Y-7761078D01*
X20281656Y-13819745D02*
X20287231Y-13800261D01*
X20287231Y-999739D02*
X20281656Y-980255D01*
X20287231Y-7000261D02*
X20291812Y-6980519D01*
X20287231Y-7799739D02*
X20281656Y-7780255D01*
X20287231Y-13800261D02*
X20291812Y-13780519D01*
X20291812Y-1019480D02*
X20287231Y-999739D01*
X20291812Y-6980519D02*
X20295387Y-6960571D01*
X20291812Y-7819480D02*
X20287231Y-7799739D01*
X20291812Y-13780519D02*
X20295387Y-13760571D01*
X20295387Y-1039429D02*
X20291812Y-1019480D01*
X20295387Y-6960571D02*
X20297948Y-6940467D01*
X20295387Y-7839429D02*
X20291812Y-7819480D01*
X20295387Y-13760571D02*
X20297948Y-13740467D01*
X20297948Y-1059533D02*
X20295387Y-1039429D01*
X20297948Y-6940467D02*
X20299487Y-6920260D01*
X20297948Y-7859533D02*
X20295387Y-7839429D01*
X20297948Y-13740467D02*
X20299487Y-13720260D01*
X20299487Y-1079740D02*
X20297948Y-1059533D01*
X20299487Y-6920260D02*
X20300000Y-6900000D01*
X20299487Y-7879740D02*
X20297948Y-7859533D01*
X20299487Y-13720260D02*
X20300000Y-13700000D01*
X20300000Y-199900D02*
X20100100Y0D01*
X20300000Y-500000D02*
X20300000Y-199900D01*
X20300000Y-1100000D02*
X20299487Y-1079740D01*
X20300000Y-6900000D02*
X20300000Y-1100000D01*
X20300000Y-7900000D02*
X20299487Y-7879740D01*
X20300000Y-13700000D02*
X20300000Y-7900000D01*
X20300000Y-14300000D02*
X18950100Y-14300000D01*
X20300000Y-14600100D02*
X20300000Y-14300000D01*
D11*
D10*
X1324900Y-695000D02*
X1374900Y-745000D01*
X1374900Y-695000D02*
X1324900Y-745000D01*
X1324900Y-7255000D02*
X1374900Y-7305000D01*
X1374900Y-7255000D02*
X1324900Y-7305000D01*
X1324900Y-7495000D02*
X1374900Y-7545000D01*
X1374900Y-7495000D02*
X1324900Y-7545000D01*
X1324900Y-14055000D02*
X1374900Y-14105000D01*
X1374900Y-14055000D02*
X1324900Y-14105000D01*
X1408267Y-695000D02*
X1458267Y-745000D01*
X1458267Y-695000D02*
X1408267Y-745000D01*
X1408267Y-7255000D02*
X1458267Y-7305000D01*
X1458267Y-7255000D02*
X1408267Y-7305000D01*
X1408267Y-7495000D02*
X1458267Y-7545000D01*
X1458267Y-7495000D02*
X1408267Y-7545000D01*
X1408267Y-14055000D02*
X1458267Y-14105000D01*
X1458267Y-14055000D02*
X1408267Y-14105000D01*
X1491633Y-695000D02*
X1541633Y-745000D01*
X1541633Y-695000D02*
X1491633Y-745000D01*
X1491633Y-7255000D02*
X1541633Y-7305000D01*
X1541633Y-7255000D02*
X1491633Y-7305000D01*
X1491633Y-7495000D02*
X1541633Y-7545000D01*
X1541633Y-7495000D02*
X1491633Y-7545000D01*
X1491633Y-14055000D02*
X1541633Y-14105000D01*
X1541633Y-14055000D02*
X1491633Y-14105000D01*
X1575000Y-695000D02*
X1625000Y-745000D01*
X1625000Y-695000D02*
X1575000Y-745000D01*
X1575000Y-7255000D02*
X1625000Y-7305000D01*
X1625000Y-7255000D02*
X1575000Y-7305000D01*
X1575000Y-14055000D02*
X1625000Y-14105000D01*
X1625000Y-14055000D02*
X1575000Y-14105000D01*
X1575000Y-7495000D02*
X1625000Y-7545000D01*
X1625000Y-7495000D02*
X1575000Y-7545000D01*
X1658367Y-695000D02*
X1708367Y-745000D01*
X1708367Y-695000D02*
X1658367Y-745000D01*
X1658367Y-7255000D02*
X1708367Y-7305000D01*
X1708367Y-7255000D02*
X1658367Y-7305000D01*
X1658367Y-7495000D02*
X1708367Y-7545000D01*
X1708367Y-7495000D02*
X1658367Y-7545000D01*
X1658367Y-14055000D02*
X1708367Y-14105000D01*
X1708367Y-14055000D02*
X1658367Y-14105000D01*
X1741733Y-695000D02*
X1791733Y-745000D01*
X1791733Y-695000D02*
X1741733Y-745000D01*
X1741733Y-7255000D02*
X1791733Y-7305000D01*
X1791733Y-7255000D02*
X1741733Y-7305000D01*
X1741733Y-7495000D02*
X1791733Y-7545000D01*
X1791733Y-7495000D02*
X1741733Y-7545000D01*
X1741733Y-14055000D02*
X1791733Y-14105000D01*
X1791733Y-14055000D02*
X1741733Y-14105000D01*
X1825100Y-695000D02*
X1875100Y-745000D01*
X1875100Y-695000D02*
X1825100Y-745000D01*
X1825100Y-7255000D02*
X1875100Y-7305000D01*
X1875100Y-7255000D02*
X1825100Y-7305000D01*
X1825100Y-7495000D02*
X1875100Y-7545000D01*
X1875100Y-7495000D02*
X1825100Y-7545000D01*
X1825100Y-14055000D02*
X1875100Y-14105000D01*
X1875100Y-14055000D02*
X1825100Y-14105000D01*
X8124900Y-695000D02*
X8174900Y-745000D01*
X8174900Y-695000D02*
X8124900Y-745000D01*
X8124900Y-7255000D02*
X8174900Y-7305000D01*
X8174900Y-7255000D02*
X8124900Y-7305000D01*
X8124900Y-7495000D02*
X8174900Y-7545000D01*
X8174900Y-7495000D02*
X8124900Y-7545000D01*
X8124900Y-14055000D02*
X8174900Y-14105000D01*
X8174900Y-14055000D02*
X8124900Y-14105000D01*
X8208267Y-695000D02*
X8258267Y-745000D01*
X8258267Y-695000D02*
X8208267Y-745000D01*
X8208267Y-7255000D02*
X8258267Y-7305000D01*
X8258267Y-7255000D02*
X8208267Y-7305000D01*
X8208267Y-7495000D02*
X8258267Y-7545000D01*
X8258267Y-7495000D02*
X8208267Y-7545000D01*
X8208267Y-14055000D02*
X8258267Y-14105000D01*
X8258267Y-14055000D02*
X8208267Y-14105000D01*
X8291633Y-695000D02*
X8341633Y-745000D01*
X8341633Y-695000D02*
X8291633Y-745000D01*
X8291633Y-7255000D02*
X8341633Y-7305000D01*
X8341633Y-7255000D02*
X8291633Y-7305000D01*
X8291633Y-7495000D02*
X8341633Y-7545000D01*
X8341633Y-7495000D02*
X8291633Y-7545000D01*
X8291633Y-14055000D02*
X8341633Y-14105000D01*
X8341633Y-14055000D02*
X8291633Y-14105000D01*
X8375000Y-7255000D02*
X8425000Y-7305000D01*
X8425000Y-7255000D02*
X8375000Y-7305000D01*
X8375000Y-695000D02*
X8425000Y-745000D01*
X8425000Y-695000D02*
X8375000Y-745000D01*
X8375000Y-7495000D02*
X8425000Y-7545000D01*
X8425000Y-7495000D02*
X8375000Y-7545000D01*
X8375000Y-14055000D02*
X8425000Y-14105000D01*
X8425000Y-14055000D02*
X8375000Y-14105000D01*
X8458367Y-695000D02*
X8508367Y-745000D01*
X8508367Y-695000D02*
X8458367Y-745000D01*
X8458367Y-7255000D02*
X8508367Y-7305000D01*
X8508367Y-7255000D02*
X8458367Y-7305000D01*
X8458367Y-7495000D02*
X8508367Y-7545000D01*
X8508367Y-7495000D02*
X8458367Y-7545000D01*
X8458367Y-14055000D02*
X8508367Y-14105000D01*
X8508367Y-14055000D02*
X8458367Y-14105000D01*
X8541733Y-695000D02*
X8591733Y-745000D01*
X8591733Y-695000D02*
X8541733Y-745000D01*
X8541733Y-7255000D02*
X8591733Y-7305000D01*
X8591733Y-7255000D02*
X8541733Y-7305000D01*
X8541733Y-7495000D02*
X8591733Y-7545000D01*
X8591733Y-7495000D02*
X8541733Y-7545000D01*
X8541733Y-14055000D02*
X8591733Y-14105000D01*
X8591733Y-14055000D02*
X8541733Y-14105000D01*
X8625100Y-695000D02*
X8675100Y-745000D01*
X8675100Y-695000D02*
X8625100Y-745000D01*
X8625100Y-7255000D02*
X8675100Y-7305000D01*
X8675100Y-7255000D02*
X8625100Y-7305000D01*
X8625100Y-7495000D02*
X8675100Y-7545000D01*
X8675100Y-7495000D02*
X8625100Y-7545000D01*
X8625100Y-14055000D02*
X8675100Y-14105000D01*
X8675100Y-14055000D02*
X8625100Y-14105000D01*
X11624900Y-695000D02*
X11674900Y-745000D01*
X11674900Y-695000D02*
X11624900Y-745000D01*
X11624900Y-7255000D02*
X11674900Y-7305000D01*
X11674900Y-7255000D02*
X11624900Y-7305000D01*
X11624900Y-7495000D02*
X11674900Y-7545000D01*
X11674900Y-7495000D02*
X11624900Y-7545000D01*
X11624900Y-14055000D02*
X11674900Y-14105000D01*
X11674900Y-14055000D02*
X11624900Y-14105000D01*
X11708267Y-695000D02*
X11758267Y-745000D01*
X11758267Y-695000D02*
X11708267Y-745000D01*
X11708267Y-7255000D02*
X11758267Y-7305000D01*
X11758267Y-7255000D02*
X11708267Y-7305000D01*
X11708267Y-7495000D02*
X11758267Y-7545000D01*
X11758267Y-7495000D02*
X11708267Y-7545000D01*
X11708267Y-14055000D02*
X11758267Y-14105000D01*
X11758267Y-14055000D02*
X11708267Y-14105000D01*
X11791633Y-695000D02*
X11841633Y-745000D01*
X11841633Y-695000D02*
X11791633Y-745000D01*
X11791633Y-7255000D02*
X11841633Y-7305000D01*
X11841633Y-7255000D02*
X11791633Y-7305000D01*
X11791633Y-7495000D02*
X11841633Y-7545000D01*
X11841633Y-7495000D02*
X11791633Y-7545000D01*
X11791633Y-14055000D02*
X11841633Y-14105000D01*
X11841633Y-14055000D02*
X11791633Y-14105000D01*
X11875000Y-7255000D02*
X11925000Y-7305000D01*
X11925000Y-7255000D02*
X11875000Y-7305000D01*
X11875000Y-695000D02*
X11925000Y-745000D01*
X11925000Y-695000D02*
X11875000Y-745000D01*
X11875000Y-7495000D02*
X11925000Y-7545000D01*
X11925000Y-7495000D02*
X11875000Y-7545000D01*
X11875000Y-14055000D02*
X11925000Y-14105000D01*
X11925000Y-14055000D02*
X11875000Y-14105000D01*
X11958367Y-695000D02*
X12008367Y-745000D01*
X12008367Y-695000D02*
X11958367Y-745000D01*
X11958367Y-7255000D02*
X12008367Y-7305000D01*
X12008367Y-7255000D02*
X11958367Y-7305000D01*
X11958367Y-7495000D02*
X12008367Y-7545000D01*
X12008367Y-7495000D02*
X11958367Y-7545000D01*
X11958367Y-14055000D02*
X12008367Y-14105000D01*
X12008367Y-14055000D02*
X11958367Y-14105000D01*
X12041733Y-695000D02*
X12091733Y-745000D01*
X12091733Y-695000D02*
X12041733Y-745000D01*
X12041733Y-7255000D02*
X12091733Y-7305000D01*
X12091733Y-7255000D02*
X12041733Y-7305000D01*
X12041733Y-7495000D02*
X12091733Y-7545000D01*
X12091733Y-7495000D02*
X12041733Y-7545000D01*
X12041733Y-14055000D02*
X12091733Y-14105000D01*
X12091733Y-14055000D02*
X12041733Y-14105000D01*
X12125100Y-695000D02*
X12175100Y-745000D01*
X12175100Y-695000D02*
X12125100Y-745000D01*
X12125100Y-7255000D02*
X12175100Y-7305000D01*
X12175100Y-7255000D02*
X12125100Y-7305000D01*
X12125100Y-7495000D02*
X12175100Y-7545000D01*
X12175100Y-7495000D02*
X12125100Y-7545000D01*
X12125100Y-14055000D02*
X12175100Y-14105000D01*
X12175100Y-14055000D02*
X12125100Y-14105000D01*
X18424900Y-695000D02*
X18474900Y-745000D01*
X18474900Y-695000D02*
X18424900Y-745000D01*
X18424900Y-7255000D02*
X18474900Y-7305000D01*
X18474900Y-7255000D02*
X18424900Y-7305000D01*
X18424900Y-7495000D02*
X18474900Y-7545000D01*
X18474900Y-7495000D02*
X18424900Y-7545000D01*
X18424900Y-14055000D02*
X18474900Y-14105000D01*
X18474900Y-14055000D02*
X18424900Y-14105000D01*
X18508267Y-695000D02*
X18558267Y-745000D01*
X18558267Y-695000D02*
X18508267Y-745000D01*
X18508267Y-7255000D02*
X18558267Y-7305000D01*
X18558267Y-7255000D02*
X18508267Y-7305000D01*
X18508267Y-7495000D02*
X18558267Y-7545000D01*
X18558267Y-7495000D02*
X18508267Y-7545000D01*
X18508267Y-14055000D02*
X18558267Y-14105000D01*
X18558267Y-14055000D02*
X18508267Y-14105000D01*
X18591633Y-695000D02*
X18641633Y-745000D01*
X18641633Y-695000D02*
X18591633Y-745000D01*
X18591633Y-7255000D02*
X18641633Y-7305000D01*
X18641633Y-7255000D02*
X18591633Y-7305000D01*
X18591633Y-7495000D02*
X18641633Y-7545000D01*
X18641633Y-7495000D02*
X18591633Y-7545000D01*
X18591633Y-14055000D02*
X18641633Y-14105000D01*
X18641633Y-14055000D02*
X18591633Y-14105000D01*
X18675000Y-7255000D02*
X18725000Y-7305000D01*
X18725000Y-7255000D02*
X18675000Y-7305000D01*
X18675000Y-695000D02*
X18725000Y-745000D01*
X18725000Y-695000D02*
X18675000Y-745000D01*
X18675000Y-7495000D02*
X18725000Y-7545000D01*
X18725000Y-7495000D02*
X18675000Y-7545000D01*
X18675000Y-14055000D02*
X18725000Y-14105000D01*
X18725000Y-14055000D02*
X18675000Y-14105000D01*
X18758367Y-695000D02*
X18808367Y-745000D01*
X18808367Y-695000D02*
X18758367Y-745000D01*
X18758367Y-7255000D02*
X18808367Y-7305000D01*
X18808367Y-7255000D02*
X18758367Y-7305000D01*
X18758367Y-7495000D02*
X18808367Y-7545000D01*
X18808367Y-7495000D02*
X18758367Y-7545000D01*
X18758367Y-14055000D02*
X18808367Y-14105000D01*
X18808367Y-14055000D02*
X18758367Y-14105000D01*
X18841733Y-695000D02*
X18891733Y-745000D01*
X18891733Y-695000D02*
X18841733Y-745000D01*
X18841733Y-7255000D02*
X18891733Y-7305000D01*
X18891733Y-7255000D02*
X18841733Y-7305000D01*
X18841733Y-7495000D02*
X18891733Y-7545000D01*
X18891733Y-7495000D02*
X18841733Y-7545000D01*
X18841733Y-14055000D02*
X18891733Y-14105000D01*
X18891733Y-14055000D02*
X18841733Y-14105000D01*
X18925100Y-695000D02*
X18975100Y-745000D01*
X18975100Y-695000D02*
X18925100Y-745000D01*
X18925100Y-7255000D02*
X18975100Y-7305000D01*
X18975100Y-7255000D02*
X18925100Y-7305000D01*
X18925100Y-7495000D02*
X18975100Y-7545000D01*
X18975100Y-7495000D02*
X18925100Y-7545000D01*
X18925100Y-14055000D02*
X18975100Y-14105000D01*
X18975100Y-14055000D02*
X18925100Y-14105000D01*
X9462500Y-1651000D02*
G75*
G02*
X9397500Y-1651000I-32500J0D01*
G01*
X9397500Y-1651000D02*
G75*
G02*
X9462500Y-1651000I32500J0D01*
G01*
X9462500Y-2229000D02*
G75*
G02*
X9397500Y-2229000I-32500J0D01*
G01*
X9397500Y-2229000D02*
G75*
G02*
X9462500Y-2229000I32500J0D01*
G01*
X9462500Y-8451000D02*
G75*
G02*
X9397500Y-8451000I-32500J0D01*
G01*
X9397500Y-8451000D02*
G75*
G02*
X9462500Y-8451000I32500J0D01*
G01*
X9462500Y-9029000D02*
G75*
G02*
X9397500Y-9029000I-32500J0D01*
G01*
X9397500Y-9029000D02*
G75*
G02*
X9462500Y-9029000I32500J0D01*
G01*
X19762500Y-1651000D02*
G75*
G02*
X19697500Y-1651000I-32500J0D01*
G01*
X19697500Y-1651000D02*
G75*
G02*
X19762500Y-1651000I32500J0D01*
G01*
X19762500Y-2229000D02*
G75*
G02*
X19697500Y-2229000I-32500J0D01*
G01*
X19697500Y-2229000D02*
G75*
G02*
X19762500Y-2229000I32500J0D01*
G01*
X19762500Y-8451000D02*
G75*
G02*
X19697500Y-8451000I-32500J0D01*
G01*
X19697500Y-8451000D02*
G75*
G02*
X19762500Y-8451000I32500J0D01*
G01*
X19762500Y-9029000D02*
G75*
G02*
X19697500Y-9029000I-32500J0D01*
G01*
X19697500Y-9029000D02*
G75*
G02*
X19762500Y-9029000I32500J0D01*
G01*
X9605000Y-2950000D02*
X9605000Y-3020000D01*
X9570000Y-2985000D02*
X9640000Y-2985000D01*
X9605000Y-3360000D02*
X9605000Y-3430000D01*
X9570000Y-3395000D02*
X9640000Y-3395000D01*
X9605000Y-9750000D02*
X9605000Y-9820000D01*
X9570000Y-9785000D02*
X9640000Y-9785000D01*
X9605000Y-10160000D02*
X9605000Y-10230000D01*
X9570000Y-10195000D02*
X9640000Y-10195000D01*
X19905000Y-2950000D02*
X19905000Y-3020000D01*
X19870000Y-2985000D02*
X19940000Y-2985000D01*
X19905000Y-3360000D02*
X19905000Y-3430000D01*
X19870000Y-3395000D02*
X19940000Y-3395000D01*
X19905000Y-9750000D02*
X19905000Y-9820000D01*
X19870000Y-9785000D02*
X19940000Y-9785000D01*
X19905000Y-10160000D02*
X19905000Y-10230000D01*
X19870000Y-10195000D02*
X19940000Y-10195000D01*
D12*
X1640730Y-290730D02*
X1640730Y-209270D01*
X1559270Y-209270D01*
X1559270Y-290730D01*
X1640730Y-290730D01*
X1640730Y-14590730D02*
X1640730Y-14509270D01*
X1559270Y-14509270D01*
X1559270Y-14590730D01*
X1640730Y-14590730D01*
X18740730Y-290730D02*
X18740730Y-209270D01*
X18659270Y-209270D01*
X18659270Y-290730D01*
X18740730Y-290730D01*
D13*
X400000Y-1260000D02*
X560000Y-1100000D01*
X400000Y-940000D01*
X240000Y-1100000D01*
X400000Y-1260000D01*
X400000Y-8060000D02*
X560000Y-7900000D01*
X400000Y-7740000D01*
X240000Y-7900000D01*
X400000Y-8060000D01*
X1600000Y-7060000D02*
X1760000Y-6900000D01*
X1600000Y-6740000D01*
X1440000Y-6900000D01*
X1600000Y-7060000D01*
X1600000Y-13860000D02*
X1760000Y-13700000D01*
X1600000Y-13540000D01*
X1440000Y-13700000D01*
X1600000Y-13860000D01*
X8400000Y-7060000D02*
X8560000Y-6900000D01*
X8400000Y-6740000D01*
X8240000Y-6900000D01*
X8400000Y-7060000D01*
X8400000Y-13860000D02*
X8560000Y-13700000D01*
X8400000Y-13540000D01*
X8240000Y-13700000D01*
X8400000Y-13860000D01*
X9600000Y-1260000D02*
X9760000Y-1100000D01*
X9600000Y-940000D01*
X9440000Y-1100000D01*
X9600000Y-1260000D01*
X9600000Y-8060000D02*
X9760000Y-7900000D01*
X9600000Y-7740000D01*
X9440000Y-7900000D01*
X9600000Y-8060000D01*
X10700000Y-1260000D02*
X10860000Y-1100000D01*
X10700000Y-940000D01*
X10540000Y-1100000D01*
X10700000Y-1260000D01*
X10700000Y-8060000D02*
X10860000Y-7900000D01*
X10700000Y-7740000D01*
X10540000Y-7900000D01*
X10700000Y-8060000D01*
X11900000Y-7060000D02*
X12060000Y-6900000D01*
X11900000Y-6740000D01*
X11740000Y-6900000D01*
X11900000Y-7060000D01*
X11900000Y-13860000D02*
X12060000Y-13700000D01*
X11900000Y-13540000D01*
X11740000Y-13700000D01*
X11900000Y-13860000D01*
X18700000Y-7060000D02*
X18860000Y-6900000D01*
X18700000Y-6740000D01*
X18540000Y-6900000D01*
X18700000Y-7060000D01*
X18700000Y-13860000D02*
X18860000Y-13700000D01*
X18700000Y-13540000D01*
X18540000Y-13700000D01*
X18700000Y-13860000D01*
X19900000Y-1260000D02*
X20060000Y-1100000D01*
X19900000Y-940000D01*
X19740000Y-1100000D01*
X19900000Y-1260000D01*
X19900000Y-8060000D02*
X20060000Y-7900000D01*
X19900000Y-7740000D01*
X19740000Y-7900000D01*
X19900000Y-8060000D01*
D11*
X255777Y-15116484D02*
X255777Y-14916484D01*
X255777Y-14916484D02*
X303396Y-14916484D01*
X303396Y-14916484D02*
X331967Y-14926008D01*
X331967Y-14926008D02*
X351015Y-14945055D01*
X351015Y-14945055D02*
X360539Y-14964103D01*
X360539Y-14964103D02*
X370062Y-15002198D01*
X370062Y-15002198D02*
X370062Y-15030769D01*
X370062Y-15030769D02*
X360539Y-15068865D01*
X360539Y-15068865D02*
X351015Y-15087912D01*
X351015Y-15087912D02*
X331967Y-15106960D01*
X331967Y-15106960D02*
X303396Y-15116484D01*
X303396Y-15116484D02*
X255777Y-15116484D01*
X455777Y-15116484D02*
X455777Y-14983150D01*
X455777Y-15021246D02*
X465301Y-15002198D01*
X465301Y-15002198D02*
X474824Y-14992674D01*
X474824Y-14992674D02*
X493872Y-14983150D01*
X493872Y-14983150D02*
X512920Y-14983150D01*
X579586Y-15116484D02*
X579586Y-14983150D01*
X579586Y-14916484D02*
X570063Y-14926008D01*
X570063Y-14926008D02*
X579586Y-14935531D01*
X579586Y-14935531D02*
X589110Y-14926008D01*
X589110Y-14926008D02*
X579586Y-14916484D01*
X579586Y-14916484D02*
X579586Y-14935531D01*
X703396Y-15116484D02*
X684348Y-15106960D01*
X684348Y-15106960D02*
X674824Y-15087912D01*
X674824Y-15087912D02*
X674824Y-14916484D01*
X808158Y-15116484D02*
X789110Y-15106960D01*
X789110Y-15106960D02*
X779586Y-15087912D01*
X779586Y-15087912D02*
X779586Y-14916484D01*
X1036729Y-15116484D02*
X1036729Y-14916484D01*
X1036729Y-14916484D02*
X1103396Y-15059341D01*
X1103396Y-15059341D02*
X1170063Y-14916484D01*
X1170063Y-14916484D02*
X1170063Y-15116484D01*
X1351015Y-15116484D02*
X1351015Y-15011722D01*
X1351015Y-15011722D02*
X1341491Y-14992674D01*
X1341491Y-14992674D02*
X1322444Y-14983150D01*
X1322444Y-14983150D02*
X1284348Y-14983150D01*
X1284348Y-14983150D02*
X1265301Y-14992674D01*
X1351015Y-15106960D02*
X1331967Y-15116484D01*
X1331967Y-15116484D02*
X1284348Y-15116484D01*
X1284348Y-15116484D02*
X1265301Y-15106960D01*
X1265301Y-15106960D02*
X1255777Y-15087912D01*
X1255777Y-15087912D02*
X1255777Y-15068865D01*
X1255777Y-15068865D02*
X1265301Y-15049817D01*
X1265301Y-15049817D02*
X1284348Y-15040293D01*
X1284348Y-15040293D02*
X1331967Y-15040293D01*
X1331967Y-15040293D02*
X1351015Y-15030769D01*
X1446253Y-14983150D02*
X1446253Y-15183150D01*
X1446253Y-14992674D02*
X1465301Y-14983150D01*
X1465301Y-14983150D02*
X1503396Y-14983150D01*
X1503396Y-14983150D02*
X1522443Y-14992674D01*
X1522443Y-14992674D02*
X1531967Y-15002198D01*
X1531967Y-15002198D02*
X1541491Y-15021246D01*
X1541491Y-15021246D02*
X1541491Y-15078388D01*
X1541491Y-15078388D02*
X1531967Y-15097436D01*
X1531967Y-15097436D02*
X1522443Y-15106960D01*
X1522443Y-15106960D02*
X1503396Y-15116484D01*
X1503396Y-15116484D02*
X1465301Y-15116484D01*
X1465301Y-15116484D02*
X1446253Y-15106960D01*
X1627205Y-15097436D02*
X1636729Y-15106960D01*
X1636729Y-15106960D02*
X1627205Y-15116484D01*
X1627205Y-15116484D02*
X1617682Y-15106960D01*
X1617682Y-15106960D02*
X1627205Y-15097436D01*
X1627205Y-15097436D02*
X1627205Y-15116484D01*
X1627205Y-14992674D02*
X1636729Y-15002198D01*
X1636729Y-15002198D02*
X1627205Y-15011722D01*
X1627205Y-15011722D02*
X1617682Y-15002198D01*
X1617682Y-15002198D02*
X1627205Y-14992674D01*
X1627205Y-14992674D02*
X1627205Y-15011722D01*
D10*
X-55000Y-15420000D02*
X-5000Y-15470000D01*
X-5000Y-15420000D02*
X-55000Y-15470000D01*
D11*
X293872Y-15336484D02*
X312920Y-15336484D01*
X312920Y-15336484D02*
X331967Y-15346008D01*
X331967Y-15346008D02*
X341491Y-15355531D01*
X341491Y-15355531D02*
X351015Y-15374579D01*
X351015Y-15374579D02*
X360539Y-15412674D01*
X360539Y-15412674D02*
X360539Y-15460293D01*
X360539Y-15460293D02*
X351015Y-15498388D01*
X351015Y-15498388D02*
X341491Y-15517436D01*
X341491Y-15517436D02*
X331967Y-15526960D01*
X331967Y-15526960D02*
X312920Y-15536484D01*
X312920Y-15536484D02*
X293872Y-15536484D01*
X293872Y-15536484D02*
X274824Y-15526960D01*
X274824Y-15526960D02*
X265301Y-15517436D01*
X265301Y-15517436D02*
X255777Y-15498388D01*
X255777Y-15498388D02*
X246253Y-15460293D01*
X246253Y-15460293D02*
X246253Y-15412674D01*
X246253Y-15412674D02*
X255777Y-15374579D01*
X255777Y-15374579D02*
X265301Y-15355531D01*
X265301Y-15355531D02*
X274824Y-15346008D01*
X274824Y-15346008D02*
X293872Y-15336484D01*
X446253Y-15517436D02*
X455777Y-15526960D01*
X455777Y-15526960D02*
X446253Y-15536484D01*
X446253Y-15536484D02*
X436729Y-15526960D01*
X436729Y-15526960D02*
X446253Y-15517436D01*
X446253Y-15517436D02*
X446253Y-15536484D01*
X636729Y-15336484D02*
X541491Y-15336484D01*
X541491Y-15336484D02*
X531967Y-15431722D01*
X531967Y-15431722D02*
X541491Y-15422198D01*
X541491Y-15422198D02*
X560539Y-15412674D01*
X560539Y-15412674D02*
X608158Y-15412674D01*
X608158Y-15412674D02*
X627205Y-15422198D01*
X627205Y-15422198D02*
X636729Y-15431722D01*
X636729Y-15431722D02*
X646253Y-15450769D01*
X646253Y-15450769D02*
X646253Y-15498388D01*
X646253Y-15498388D02*
X636729Y-15517436D01*
X636729Y-15517436D02*
X627205Y-15526960D01*
X627205Y-15526960D02*
X608158Y-15536484D01*
X608158Y-15536484D02*
X560539Y-15536484D01*
X560539Y-15536484D02*
X541491Y-15526960D01*
X541491Y-15526960D02*
X531967Y-15517436D01*
X770062Y-15336484D02*
X789110Y-15336484D01*
X789110Y-15336484D02*
X808158Y-15346008D01*
X808158Y-15346008D02*
X817682Y-15355531D01*
X817682Y-15355531D02*
X827205Y-15374579D01*
X827205Y-15374579D02*
X836729Y-15412674D01*
X836729Y-15412674D02*
X836729Y-15460293D01*
X836729Y-15460293D02*
X827205Y-15498388D01*
X827205Y-15498388D02*
X817682Y-15517436D01*
X817682Y-15517436D02*
X808158Y-15526960D01*
X808158Y-15526960D02*
X789110Y-15536484D01*
X789110Y-15536484D02*
X770062Y-15536484D01*
X770062Y-15536484D02*
X751015Y-15526960D01*
X751015Y-15526960D02*
X741491Y-15517436D01*
X741491Y-15517436D02*
X731967Y-15498388D01*
X731967Y-15498388D02*
X722443Y-15460293D01*
X722443Y-15460293D02*
X722443Y-15412674D01*
X722443Y-15412674D02*
X731967Y-15374579D01*
X731967Y-15374579D02*
X741491Y-15355531D01*
X741491Y-15355531D02*
X751015Y-15346008D01*
X751015Y-15346008D02*
X770062Y-15336484D01*
X960539Y-15336484D02*
X979586Y-15336484D01*
X979586Y-15336484D02*
X998634Y-15346008D01*
X998634Y-15346008D02*
X1008158Y-15355531D01*
X1008158Y-15355531D02*
X1017682Y-15374579D01*
X1017682Y-15374579D02*
X1027205Y-15412674D01*
X1027205Y-15412674D02*
X1027205Y-15460293D01*
X1027205Y-15460293D02*
X1017682Y-15498388D01*
X1017682Y-15498388D02*
X1008158Y-15517436D01*
X1008158Y-15517436D02*
X998634Y-15526960D01*
X998634Y-15526960D02*
X979586Y-15536484D01*
X979586Y-15536484D02*
X960539Y-15536484D01*
X960539Y-15536484D02*
X941491Y-15526960D01*
X941491Y-15526960D02*
X931967Y-15517436D01*
X931967Y-15517436D02*
X922443Y-15498388D01*
X922443Y-15498388D02*
X912920Y-15460293D01*
X912920Y-15460293D02*
X912920Y-15412674D01*
X912920Y-15412674D02*
X922443Y-15374579D01*
X922443Y-15374579D02*
X931967Y-15355531D01*
X931967Y-15355531D02*
X941491Y-15346008D01*
X941491Y-15346008D02*
X960539Y-15336484D01*
X1112920Y-15536484D02*
X1112920Y-15403150D01*
X1112920Y-15422198D02*
X1122444Y-15412674D01*
X1122444Y-15412674D02*
X1141491Y-15403150D01*
X1141491Y-15403150D02*
X1170063Y-15403150D01*
X1170063Y-15403150D02*
X1189110Y-15412674D01*
X1189110Y-15412674D02*
X1198634Y-15431722D01*
X1198634Y-15431722D02*
X1198634Y-15536484D01*
X1198634Y-15431722D02*
X1208158Y-15412674D01*
X1208158Y-15412674D02*
X1227205Y-15403150D01*
X1227205Y-15403150D02*
X1255777Y-15403150D01*
X1255777Y-15403150D02*
X1274825Y-15412674D01*
X1274825Y-15412674D02*
X1284348Y-15431722D01*
X1284348Y-15431722D02*
X1284348Y-15536484D01*
X1379586Y-15536484D02*
X1379586Y-15403150D01*
X1379586Y-15422198D02*
X1389110Y-15412674D01*
X1389110Y-15412674D02*
X1408158Y-15403150D01*
X1408158Y-15403150D02*
X1436729Y-15403150D01*
X1436729Y-15403150D02*
X1455777Y-15412674D01*
X1455777Y-15412674D02*
X1465301Y-15431722D01*
X1465301Y-15431722D02*
X1465301Y-15536484D01*
X1465301Y-15431722D02*
X1474824Y-15412674D01*
X1474824Y-15412674D02*
X1493872Y-15403150D01*
X1493872Y-15403150D02*
X1522443Y-15403150D01*
X1522443Y-15403150D02*
X1541491Y-15412674D01*
X1541491Y-15412674D02*
X1551015Y-15431722D01*
X1551015Y-15431722D02*
X1551015Y-15536484D01*
X1941491Y-15326960D02*
X1770063Y-15584103D01*
X2198634Y-15336484D02*
X2217682Y-15336484D01*
X2217682Y-15336484D02*
X2236729Y-15346008D01*
X2236729Y-15346008D02*
X2246253Y-15355531D01*
X2246253Y-15355531D02*
X2255777Y-15374579D01*
X2255777Y-15374579D02*
X2265301Y-15412674D01*
X2265301Y-15412674D02*
X2265301Y-15460293D01*
X2265301Y-15460293D02*
X2255777Y-15498388D01*
X2255777Y-15498388D02*
X2246253Y-15517436D01*
X2246253Y-15517436D02*
X2236729Y-15526960D01*
X2236729Y-15526960D02*
X2217682Y-15536484D01*
X2217682Y-15536484D02*
X2198634Y-15536484D01*
X2198634Y-15536484D02*
X2179587Y-15526960D01*
X2179587Y-15526960D02*
X2170063Y-15517436D01*
X2170063Y-15517436D02*
X2160539Y-15498388D01*
X2160539Y-15498388D02*
X2151015Y-15460293D01*
X2151015Y-15460293D02*
X2151015Y-15412674D01*
X2151015Y-15412674D02*
X2160539Y-15374579D01*
X2160539Y-15374579D02*
X2170063Y-15355531D01*
X2170063Y-15355531D02*
X2179587Y-15346008D01*
X2179587Y-15346008D02*
X2198634Y-15336484D01*
X2351015Y-15517436D02*
X2360539Y-15526960D01*
X2360539Y-15526960D02*
X2351015Y-15536484D01*
X2351015Y-15536484D02*
X2341491Y-15526960D01*
X2341491Y-15526960D02*
X2351015Y-15517436D01*
X2351015Y-15517436D02*
X2351015Y-15536484D01*
X2484348Y-15336484D02*
X2503396Y-15336484D01*
X2503396Y-15336484D02*
X2522444Y-15346008D01*
X2522444Y-15346008D02*
X2531968Y-15355531D01*
X2531968Y-15355531D02*
X2541491Y-15374579D01*
X2541491Y-15374579D02*
X2551015Y-15412674D01*
X2551015Y-15412674D02*
X2551015Y-15460293D01*
X2551015Y-15460293D02*
X2541491Y-15498388D01*
X2541491Y-15498388D02*
X2531968Y-15517436D01*
X2531968Y-15517436D02*
X2522444Y-15526960D01*
X2522444Y-15526960D02*
X2503396Y-15536484D01*
X2503396Y-15536484D02*
X2484348Y-15536484D01*
X2484348Y-15536484D02*
X2465301Y-15526960D01*
X2465301Y-15526960D02*
X2455777Y-15517436D01*
X2455777Y-15517436D02*
X2446253Y-15498388D01*
X2446253Y-15498388D02*
X2436729Y-15460293D01*
X2436729Y-15460293D02*
X2436729Y-15412674D01*
X2436729Y-15412674D02*
X2446253Y-15374579D01*
X2446253Y-15374579D02*
X2455777Y-15355531D01*
X2455777Y-15355531D02*
X2465301Y-15346008D01*
X2465301Y-15346008D02*
X2484348Y-15336484D01*
X2741491Y-15536484D02*
X2627206Y-15536484D01*
X2684348Y-15536484D02*
X2684348Y-15336484D01*
X2684348Y-15336484D02*
X2665301Y-15365055D01*
X2665301Y-15365055D02*
X2646253Y-15384103D01*
X2646253Y-15384103D02*
X2627206Y-15393627D01*
X2836729Y-15536484D02*
X2874825Y-15536484D01*
X2874825Y-15536484D02*
X2893872Y-15526960D01*
X2893872Y-15526960D02*
X2903396Y-15517436D01*
X2903396Y-15517436D02*
X2922444Y-15488865D01*
X2922444Y-15488865D02*
X2931967Y-15450769D01*
X2931967Y-15450769D02*
X2931967Y-15374579D01*
X2931967Y-15374579D02*
X2922444Y-15355531D01*
X2922444Y-15355531D02*
X2912920Y-15346008D01*
X2912920Y-15346008D02*
X2893872Y-15336484D01*
X2893872Y-15336484D02*
X2855777Y-15336484D01*
X2855777Y-15336484D02*
X2836729Y-15346008D01*
X2836729Y-15346008D02*
X2827206Y-15355531D01*
X2827206Y-15355531D02*
X2817682Y-15374579D01*
X2817682Y-15374579D02*
X2817682Y-15422198D01*
X2817682Y-15422198D02*
X2827206Y-15441246D01*
X2827206Y-15441246D02*
X2836729Y-15450769D01*
X2836729Y-15450769D02*
X2855777Y-15460293D01*
X2855777Y-15460293D02*
X2893872Y-15460293D01*
X2893872Y-15460293D02*
X2912920Y-15450769D01*
X2912920Y-15450769D02*
X2922444Y-15441246D01*
X2922444Y-15441246D02*
X2931967Y-15422198D01*
X2998634Y-15336484D02*
X3131967Y-15336484D01*
X3131967Y-15336484D02*
X3046253Y-15536484D01*
X3198634Y-15336484D02*
X3198634Y-15374579D01*
X3274825Y-15336484D02*
X3274825Y-15374579D01*
X3570063Y-15612674D02*
X3560539Y-15603150D01*
X3560539Y-15603150D02*
X3541491Y-15574579D01*
X3541491Y-15574579D02*
X3531968Y-15555531D01*
X3531968Y-15555531D02*
X3522444Y-15526960D01*
X3522444Y-15526960D02*
X3512920Y-15479341D01*
X3512920Y-15479341D02*
X3512920Y-15441246D01*
X3512920Y-15441246D02*
X3522444Y-15393627D01*
X3522444Y-15393627D02*
X3531968Y-15365055D01*
X3531968Y-15365055D02*
X3541491Y-15346008D01*
X3541491Y-15346008D02*
X3560539Y-15317436D01*
X3560539Y-15317436D02*
X3570063Y-15307912D01*
X3751015Y-15536484D02*
X3636729Y-15536484D01*
X3693872Y-15536484D02*
X3693872Y-15336484D01*
X3693872Y-15336484D02*
X3674825Y-15365055D01*
X3674825Y-15365055D02*
X3655777Y-15384103D01*
X3655777Y-15384103D02*
X3636729Y-15393627D01*
X3941491Y-15536484D02*
X3827206Y-15536484D01*
X3884348Y-15536484D02*
X3884348Y-15336484D01*
X3884348Y-15336484D02*
X3865301Y-15365055D01*
X3865301Y-15365055D02*
X3846253Y-15384103D01*
X3846253Y-15384103D02*
X3827206Y-15393627D01*
X4017682Y-15355531D02*
X4027206Y-15346008D01*
X4027206Y-15346008D02*
X4046253Y-15336484D01*
X4046253Y-15336484D02*
X4093872Y-15336484D01*
X4093872Y-15336484D02*
X4112920Y-15346008D01*
X4112920Y-15346008D02*
X4122444Y-15355531D01*
X4122444Y-15355531D02*
X4131968Y-15374579D01*
X4131968Y-15374579D02*
X4131968Y-15393627D01*
X4131968Y-15393627D02*
X4122444Y-15422198D01*
X4122444Y-15422198D02*
X4008158Y-15536484D01*
X4008158Y-15536484D02*
X4131968Y-15536484D01*
X4370063Y-15536484D02*
X4370063Y-15336484D01*
X4455777Y-15536484D02*
X4455777Y-15431722D01*
X4455777Y-15431722D02*
X4446253Y-15412674D01*
X4446253Y-15412674D02*
X4427206Y-15403150D01*
X4427206Y-15403150D02*
X4398634Y-15403150D01*
X4398634Y-15403150D02*
X4379587Y-15412674D01*
X4379587Y-15412674D02*
X4370063Y-15422198D01*
X4579587Y-15536484D02*
X4560539Y-15526960D01*
X4560539Y-15526960D02*
X4551015Y-15517436D01*
X4551015Y-15517436D02*
X4541492Y-15498388D01*
X4541492Y-15498388D02*
X4541492Y-15441246D01*
X4541492Y-15441246D02*
X4551015Y-15422198D01*
X4551015Y-15422198D02*
X4560539Y-15412674D01*
X4560539Y-15412674D02*
X4579587Y-15403150D01*
X4579587Y-15403150D02*
X4608158Y-15403150D01*
X4608158Y-15403150D02*
X4627206Y-15412674D01*
X4627206Y-15412674D02*
X4636730Y-15422198D01*
X4636730Y-15422198D02*
X4646253Y-15441246D01*
X4646253Y-15441246D02*
X4646253Y-15498388D01*
X4646253Y-15498388D02*
X4636730Y-15517436D01*
X4636730Y-15517436D02*
X4627206Y-15526960D01*
X4627206Y-15526960D02*
X4608158Y-15536484D01*
X4608158Y-15536484D02*
X4579587Y-15536484D01*
X4760539Y-15536484D02*
X4741492Y-15526960D01*
X4741492Y-15526960D02*
X4731968Y-15507912D01*
X4731968Y-15507912D02*
X4731968Y-15336484D01*
X4912920Y-15526960D02*
X4893873Y-15536484D01*
X4893873Y-15536484D02*
X4855777Y-15536484D01*
X4855777Y-15536484D02*
X4836730Y-15526960D01*
X4836730Y-15526960D02*
X4827206Y-15507912D01*
X4827206Y-15507912D02*
X4827206Y-15431722D01*
X4827206Y-15431722D02*
X4836730Y-15412674D01*
X4836730Y-15412674D02*
X4855777Y-15403150D01*
X4855777Y-15403150D02*
X4893873Y-15403150D01*
X4893873Y-15403150D02*
X4912920Y-15412674D01*
X4912920Y-15412674D02*
X4922444Y-15431722D01*
X4922444Y-15431722D02*
X4922444Y-15450769D01*
X4922444Y-15450769D02*
X4827206Y-15469817D01*
X4998634Y-15526960D02*
X5017682Y-15536484D01*
X5017682Y-15536484D02*
X5055777Y-15536484D01*
X5055777Y-15536484D02*
X5074825Y-15526960D01*
X5074825Y-15526960D02*
X5084349Y-15507912D01*
X5084349Y-15507912D02*
X5084349Y-15498388D01*
X5084349Y-15498388D02*
X5074825Y-15479341D01*
X5074825Y-15479341D02*
X5055777Y-15469817D01*
X5055777Y-15469817D02*
X5027206Y-15469817D01*
X5027206Y-15469817D02*
X5008158Y-15460293D01*
X5008158Y-15460293D02*
X4998634Y-15441246D01*
X4998634Y-15441246D02*
X4998634Y-15431722D01*
X4998634Y-15431722D02*
X5008158Y-15412674D01*
X5008158Y-15412674D02*
X5027206Y-15403150D01*
X5027206Y-15403150D02*
X5055777Y-15403150D01*
X5055777Y-15403150D02*
X5074825Y-15412674D01*
X5151015Y-15612674D02*
X5160539Y-15603150D01*
X5160539Y-15603150D02*
X5179587Y-15574579D01*
X5179587Y-15574579D02*
X5189111Y-15555531D01*
X5189111Y-15555531D02*
X5198634Y-15526960D01*
X5198634Y-15526960D02*
X5208158Y-15479341D01*
X5208158Y-15479341D02*
X5208158Y-15441246D01*
X5208158Y-15441246D02*
X5198634Y-15393627D01*
X5198634Y-15393627D02*
X5189111Y-15365055D01*
X5189111Y-15365055D02*
X5179587Y-15346008D01*
X5179587Y-15346008D02*
X5160539Y-15317436D01*
X5160539Y-15317436D02*
X5151015Y-15307912D01*
X5512920Y-15612674D02*
X5503396Y-15603150D01*
X5503396Y-15603150D02*
X5484349Y-15574579D01*
X5484349Y-15574579D02*
X5474825Y-15555531D01*
X5474825Y-15555531D02*
X5465301Y-15526960D01*
X5465301Y-15526960D02*
X5455777Y-15479341D01*
X5455777Y-15479341D02*
X5455777Y-15441246D01*
X5455777Y-15441246D02*
X5465301Y-15393627D01*
X5465301Y-15393627D02*
X5474825Y-15365055D01*
X5474825Y-15365055D02*
X5484349Y-15346008D01*
X5484349Y-15346008D02*
X5503396Y-15317436D01*
X5503396Y-15317436D02*
X5512920Y-15307912D01*
X5589111Y-15403150D02*
X5589111Y-15536484D01*
X5589111Y-15422198D02*
X5598634Y-15412674D01*
X5598634Y-15412674D02*
X5617682Y-15403150D01*
X5617682Y-15403150D02*
X5646253Y-15403150D01*
X5646253Y-15403150D02*
X5665301Y-15412674D01*
X5665301Y-15412674D02*
X5674825Y-15431722D01*
X5674825Y-15431722D02*
X5674825Y-15536484D01*
X5798634Y-15536484D02*
X5779587Y-15526960D01*
X5779587Y-15526960D02*
X5770063Y-15517436D01*
X5770063Y-15517436D02*
X5760539Y-15498388D01*
X5760539Y-15498388D02*
X5760539Y-15441246D01*
X5760539Y-15441246D02*
X5770063Y-15422198D01*
X5770063Y-15422198D02*
X5779587Y-15412674D01*
X5779587Y-15412674D02*
X5798634Y-15403150D01*
X5798634Y-15403150D02*
X5827206Y-15403150D01*
X5827206Y-15403150D02*
X5846253Y-15412674D01*
X5846253Y-15412674D02*
X5855777Y-15422198D01*
X5855777Y-15422198D02*
X5865301Y-15441246D01*
X5865301Y-15441246D02*
X5865301Y-15498388D01*
X5865301Y-15498388D02*
X5855777Y-15517436D01*
X5855777Y-15517436D02*
X5846253Y-15526960D01*
X5846253Y-15526960D02*
X5827206Y-15536484D01*
X5827206Y-15536484D02*
X5798634Y-15536484D01*
X5922444Y-15403150D02*
X5998634Y-15403150D01*
X5951015Y-15336484D02*
X5951015Y-15507912D01*
X5951015Y-15507912D02*
X5960539Y-15526960D01*
X5960539Y-15526960D02*
X5979587Y-15536484D01*
X5979587Y-15536484D02*
X5998634Y-15536484D01*
X6217682Y-15403150D02*
X6217682Y-15603150D01*
X6217682Y-15412674D02*
X6236730Y-15403150D01*
X6236730Y-15403150D02*
X6274825Y-15403150D01*
X6274825Y-15403150D02*
X6293873Y-15412674D01*
X6293873Y-15412674D02*
X6303396Y-15422198D01*
X6303396Y-15422198D02*
X6312920Y-15441246D01*
X6312920Y-15441246D02*
X6312920Y-15498388D01*
X6312920Y-15498388D02*
X6303396Y-15517436D01*
X6303396Y-15517436D02*
X6293873Y-15526960D01*
X6293873Y-15526960D02*
X6274825Y-15536484D01*
X6274825Y-15536484D02*
X6236730Y-15536484D01*
X6236730Y-15536484D02*
X6217682Y-15526960D01*
X6427206Y-15536484D02*
X6408158Y-15526960D01*
X6408158Y-15526960D02*
X6398634Y-15507912D01*
X6398634Y-15507912D02*
X6398634Y-15336484D01*
X6589111Y-15536484D02*
X6589111Y-15431722D01*
X6589111Y-15431722D02*
X6579587Y-15412674D01*
X6579587Y-15412674D02*
X6560539Y-15403150D01*
X6560539Y-15403150D02*
X6522444Y-15403150D01*
X6522444Y-15403150D02*
X6503396Y-15412674D01*
X6589111Y-15526960D02*
X6570063Y-15536484D01*
X6570063Y-15536484D02*
X6522444Y-15536484D01*
X6522444Y-15536484D02*
X6503396Y-15526960D01*
X6503396Y-15526960D02*
X6493873Y-15507912D01*
X6493873Y-15507912D02*
X6493873Y-15488865D01*
X6493873Y-15488865D02*
X6503396Y-15469817D01*
X6503396Y-15469817D02*
X6522444Y-15460293D01*
X6522444Y-15460293D02*
X6570063Y-15460293D01*
X6570063Y-15460293D02*
X6589111Y-15450769D01*
X6655777Y-15403150D02*
X6731968Y-15403150D01*
X6684349Y-15336484D02*
X6684349Y-15507912D01*
X6684349Y-15507912D02*
X6693873Y-15526960D01*
X6693873Y-15526960D02*
X6712920Y-15536484D01*
X6712920Y-15536484D02*
X6731968Y-15536484D01*
X6874825Y-15526960D02*
X6855777Y-15536484D01*
X6855777Y-15536484D02*
X6817682Y-15536484D01*
X6817682Y-15536484D02*
X6798634Y-15526960D01*
X6798634Y-15526960D02*
X6789111Y-15507912D01*
X6789111Y-15507912D02*
X6789111Y-15431722D01*
X6789111Y-15431722D02*
X6798634Y-15412674D01*
X6798634Y-15412674D02*
X6817682Y-15403150D01*
X6817682Y-15403150D02*
X6855777Y-15403150D01*
X6855777Y-15403150D02*
X6874825Y-15412674D01*
X6874825Y-15412674D02*
X6884349Y-15431722D01*
X6884349Y-15431722D02*
X6884349Y-15450769D01*
X6884349Y-15450769D02*
X6789111Y-15469817D01*
X7055777Y-15536484D02*
X7055777Y-15336484D01*
X7055777Y-15526960D02*
X7036730Y-15536484D01*
X7036730Y-15536484D02*
X6998634Y-15536484D01*
X6998634Y-15536484D02*
X6979587Y-15526960D01*
X6979587Y-15526960D02*
X6970063Y-15517436D01*
X6970063Y-15517436D02*
X6960539Y-15498388D01*
X6960539Y-15498388D02*
X6960539Y-15441246D01*
X6960539Y-15441246D02*
X6970063Y-15422198D01*
X6970063Y-15422198D02*
X6979587Y-15412674D01*
X6979587Y-15412674D02*
X6998634Y-15403150D01*
X6998634Y-15403150D02*
X7036730Y-15403150D01*
X7036730Y-15403150D02*
X7055777Y-15412674D01*
X7131968Y-15612674D02*
X7141492Y-15603150D01*
X7141492Y-15603150D02*
X7160539Y-15574579D01*
X7160539Y-15574579D02*
X7170063Y-15555531D01*
X7170063Y-15555531D02*
X7179587Y-15526960D01*
X7179587Y-15526960D02*
X7189111Y-15479341D01*
X7189111Y-15479341D02*
X7189111Y-15441246D01*
X7189111Y-15441246D02*
X7179587Y-15393627D01*
X7179587Y-15393627D02*
X7170063Y-15365055D01*
X7170063Y-15365055D02*
X7160539Y-15346008D01*
X7160539Y-15346008D02*
X7141492Y-15317436D01*
X7141492Y-15317436D02*
X7131968Y-15307912D01*
D10*
X-5000Y-15709000D02*
G75*
G02*
X-70000Y-15709000I-32500J0D01*
G01*
X-70000Y-15709000D02*
G75*
G02*
X-5000Y-15709000I32500J0D01*
G01*
D11*
X293872Y-15600484D02*
X312920Y-15600484D01*
X312920Y-15600484D02*
X331967Y-15610008D01*
X331967Y-15610008D02*
X341491Y-15619531D01*
X341491Y-15619531D02*
X351015Y-15638579D01*
X351015Y-15638579D02*
X360539Y-15676674D01*
X360539Y-15676674D02*
X360539Y-15724293D01*
X360539Y-15724293D02*
X351015Y-15762388D01*
X351015Y-15762388D02*
X341491Y-15781436D01*
X341491Y-15781436D02*
X331967Y-15790960D01*
X331967Y-15790960D02*
X312920Y-15800484D01*
X312920Y-15800484D02*
X293872Y-15800484D01*
X293872Y-15800484D02*
X274824Y-15790960D01*
X274824Y-15790960D02*
X265301Y-15781436D01*
X265301Y-15781436D02*
X255777Y-15762388D01*
X255777Y-15762388D02*
X246253Y-15724293D01*
X246253Y-15724293D02*
X246253Y-15676674D01*
X246253Y-15676674D02*
X255777Y-15638579D01*
X255777Y-15638579D02*
X265301Y-15619531D01*
X265301Y-15619531D02*
X274824Y-15610008D01*
X274824Y-15610008D02*
X293872Y-15600484D01*
X446253Y-15781436D02*
X455777Y-15790960D01*
X455777Y-15790960D02*
X446253Y-15800484D01*
X446253Y-15800484D02*
X436729Y-15790960D01*
X436729Y-15790960D02*
X446253Y-15781436D01*
X446253Y-15781436D02*
X446253Y-15800484D01*
X627205Y-15600484D02*
X589110Y-15600484D01*
X589110Y-15600484D02*
X570063Y-15610008D01*
X570063Y-15610008D02*
X560539Y-15619531D01*
X560539Y-15619531D02*
X541491Y-15648103D01*
X541491Y-15648103D02*
X531967Y-15686198D01*
X531967Y-15686198D02*
X531967Y-15762388D01*
X531967Y-15762388D02*
X541491Y-15781436D01*
X541491Y-15781436D02*
X551015Y-15790960D01*
X551015Y-15790960D02*
X570063Y-15800484D01*
X570063Y-15800484D02*
X608158Y-15800484D01*
X608158Y-15800484D02*
X627205Y-15790960D01*
X627205Y-15790960D02*
X636729Y-15781436D01*
X636729Y-15781436D02*
X646253Y-15762388D01*
X646253Y-15762388D02*
X646253Y-15714769D01*
X646253Y-15714769D02*
X636729Y-15695722D01*
X636729Y-15695722D02*
X627205Y-15686198D01*
X627205Y-15686198D02*
X608158Y-15676674D01*
X608158Y-15676674D02*
X570063Y-15676674D01*
X570063Y-15676674D02*
X551015Y-15686198D01*
X551015Y-15686198D02*
X541491Y-15695722D01*
X541491Y-15695722D02*
X531967Y-15714769D01*
X827205Y-15600484D02*
X731967Y-15600484D01*
X731967Y-15600484D02*
X722443Y-15695722D01*
X722443Y-15695722D02*
X731967Y-15686198D01*
X731967Y-15686198D02*
X751015Y-15676674D01*
X751015Y-15676674D02*
X798634Y-15676674D01*
X798634Y-15676674D02*
X817682Y-15686198D01*
X817682Y-15686198D02*
X827205Y-15695722D01*
X827205Y-15695722D02*
X836729Y-15714769D01*
X836729Y-15714769D02*
X836729Y-15762388D01*
X836729Y-15762388D02*
X827205Y-15781436D01*
X827205Y-15781436D02*
X817682Y-15790960D01*
X817682Y-15790960D02*
X798634Y-15800484D01*
X798634Y-15800484D02*
X751015Y-15800484D01*
X751015Y-15800484D02*
X731967Y-15790960D01*
X731967Y-15790960D02*
X722443Y-15781436D01*
X960539Y-15600484D02*
X979586Y-15600484D01*
X979586Y-15600484D02*
X998634Y-15610008D01*
X998634Y-15610008D02*
X1008158Y-15619531D01*
X1008158Y-15619531D02*
X1017682Y-15638579D01*
X1017682Y-15638579D02*
X1027205Y-15676674D01*
X1027205Y-15676674D02*
X1027205Y-15724293D01*
X1027205Y-15724293D02*
X1017682Y-15762388D01*
X1017682Y-15762388D02*
X1008158Y-15781436D01*
X1008158Y-15781436D02*
X998634Y-15790960D01*
X998634Y-15790960D02*
X979586Y-15800484D01*
X979586Y-15800484D02*
X960539Y-15800484D01*
X960539Y-15800484D02*
X941491Y-15790960D01*
X941491Y-15790960D02*
X931967Y-15781436D01*
X931967Y-15781436D02*
X922443Y-15762388D01*
X922443Y-15762388D02*
X912920Y-15724293D01*
X912920Y-15724293D02*
X912920Y-15676674D01*
X912920Y-15676674D02*
X922443Y-15638579D01*
X922443Y-15638579D02*
X931967Y-15619531D01*
X931967Y-15619531D02*
X941491Y-15610008D01*
X941491Y-15610008D02*
X960539Y-15600484D01*
X1112920Y-15800484D02*
X1112920Y-15667150D01*
X1112920Y-15686198D02*
X1122444Y-15676674D01*
X1122444Y-15676674D02*
X1141491Y-15667150D01*
X1141491Y-15667150D02*
X1170063Y-15667150D01*
X1170063Y-15667150D02*
X1189110Y-15676674D01*
X1189110Y-15676674D02*
X1198634Y-15695722D01*
X1198634Y-15695722D02*
X1198634Y-15800484D01*
X1198634Y-15695722D02*
X1208158Y-15676674D01*
X1208158Y-15676674D02*
X1227205Y-15667150D01*
X1227205Y-15667150D02*
X1255777Y-15667150D01*
X1255777Y-15667150D02*
X1274825Y-15676674D01*
X1274825Y-15676674D02*
X1284348Y-15695722D01*
X1284348Y-15695722D02*
X1284348Y-15800484D01*
X1379586Y-15800484D02*
X1379586Y-15667150D01*
X1379586Y-15686198D02*
X1389110Y-15676674D01*
X1389110Y-15676674D02*
X1408158Y-15667150D01*
X1408158Y-15667150D02*
X1436729Y-15667150D01*
X1436729Y-15667150D02*
X1455777Y-15676674D01*
X1455777Y-15676674D02*
X1465301Y-15695722D01*
X1465301Y-15695722D02*
X1465301Y-15800484D01*
X1465301Y-15695722D02*
X1474824Y-15676674D01*
X1474824Y-15676674D02*
X1493872Y-15667150D01*
X1493872Y-15667150D02*
X1522443Y-15667150D01*
X1522443Y-15667150D02*
X1541491Y-15676674D01*
X1541491Y-15676674D02*
X1551015Y-15695722D01*
X1551015Y-15695722D02*
X1551015Y-15800484D01*
X1941491Y-15590960D02*
X1770063Y-15848103D01*
X2198634Y-15600484D02*
X2217682Y-15600484D01*
X2217682Y-15600484D02*
X2236729Y-15610008D01*
X2236729Y-15610008D02*
X2246253Y-15619531D01*
X2246253Y-15619531D02*
X2255777Y-15638579D01*
X2255777Y-15638579D02*
X2265301Y-15676674D01*
X2265301Y-15676674D02*
X2265301Y-15724293D01*
X2265301Y-15724293D02*
X2255777Y-15762388D01*
X2255777Y-15762388D02*
X2246253Y-15781436D01*
X2246253Y-15781436D02*
X2236729Y-15790960D01*
X2236729Y-15790960D02*
X2217682Y-15800484D01*
X2217682Y-15800484D02*
X2198634Y-15800484D01*
X2198634Y-15800484D02*
X2179587Y-15790960D01*
X2179587Y-15790960D02*
X2170063Y-15781436D01*
X2170063Y-15781436D02*
X2160539Y-15762388D01*
X2160539Y-15762388D02*
X2151015Y-15724293D01*
X2151015Y-15724293D02*
X2151015Y-15676674D01*
X2151015Y-15676674D02*
X2160539Y-15638579D01*
X2160539Y-15638579D02*
X2170063Y-15619531D01*
X2170063Y-15619531D02*
X2179587Y-15610008D01*
X2179587Y-15610008D02*
X2198634Y-15600484D01*
X2351015Y-15781436D02*
X2360539Y-15790960D01*
X2360539Y-15790960D02*
X2351015Y-15800484D01*
X2351015Y-15800484D02*
X2341491Y-15790960D01*
X2341491Y-15790960D02*
X2351015Y-15781436D01*
X2351015Y-15781436D02*
X2351015Y-15800484D01*
X2484348Y-15600484D02*
X2503396Y-15600484D01*
X2503396Y-15600484D02*
X2522444Y-15610008D01*
X2522444Y-15610008D02*
X2531968Y-15619531D01*
X2531968Y-15619531D02*
X2541491Y-15638579D01*
X2541491Y-15638579D02*
X2551015Y-15676674D01*
X2551015Y-15676674D02*
X2551015Y-15724293D01*
X2551015Y-15724293D02*
X2541491Y-15762388D01*
X2541491Y-15762388D02*
X2531968Y-15781436D01*
X2531968Y-15781436D02*
X2522444Y-15790960D01*
X2522444Y-15790960D02*
X2503396Y-15800484D01*
X2503396Y-15800484D02*
X2484348Y-15800484D01*
X2484348Y-15800484D02*
X2465301Y-15790960D01*
X2465301Y-15790960D02*
X2455777Y-15781436D01*
X2455777Y-15781436D02*
X2446253Y-15762388D01*
X2446253Y-15762388D02*
X2436729Y-15724293D01*
X2436729Y-15724293D02*
X2436729Y-15676674D01*
X2436729Y-15676674D02*
X2446253Y-15638579D01*
X2446253Y-15638579D02*
X2455777Y-15619531D01*
X2455777Y-15619531D02*
X2465301Y-15610008D01*
X2465301Y-15610008D02*
X2484348Y-15600484D01*
X2627206Y-15619531D02*
X2636729Y-15610008D01*
X2636729Y-15610008D02*
X2655777Y-15600484D01*
X2655777Y-15600484D02*
X2703396Y-15600484D01*
X2703396Y-15600484D02*
X2722444Y-15610008D01*
X2722444Y-15610008D02*
X2731968Y-15619531D01*
X2731968Y-15619531D02*
X2741491Y-15638579D01*
X2741491Y-15638579D02*
X2741491Y-15657627D01*
X2741491Y-15657627D02*
X2731968Y-15686198D01*
X2731968Y-15686198D02*
X2617682Y-15800484D01*
X2617682Y-15800484D02*
X2741491Y-15800484D01*
X2922444Y-15600484D02*
X2827206Y-15600484D01*
X2827206Y-15600484D02*
X2817682Y-15695722D01*
X2817682Y-15695722D02*
X2827206Y-15686198D01*
X2827206Y-15686198D02*
X2846253Y-15676674D01*
X2846253Y-15676674D02*
X2893872Y-15676674D01*
X2893872Y-15676674D02*
X2912920Y-15686198D01*
X2912920Y-15686198D02*
X2922444Y-15695722D01*
X2922444Y-15695722D02*
X2931967Y-15714769D01*
X2931967Y-15714769D02*
X2931967Y-15762388D01*
X2931967Y-15762388D02*
X2922444Y-15781436D01*
X2922444Y-15781436D02*
X2912920Y-15790960D01*
X2912920Y-15790960D02*
X2893872Y-15800484D01*
X2893872Y-15800484D02*
X2846253Y-15800484D01*
X2846253Y-15800484D02*
X2827206Y-15790960D01*
X2827206Y-15790960D02*
X2817682Y-15781436D01*
X3103396Y-15600484D02*
X3065301Y-15600484D01*
X3065301Y-15600484D02*
X3046253Y-15610008D01*
X3046253Y-15610008D02*
X3036729Y-15619531D01*
X3036729Y-15619531D02*
X3017682Y-15648103D01*
X3017682Y-15648103D02*
X3008158Y-15686198D01*
X3008158Y-15686198D02*
X3008158Y-15762388D01*
X3008158Y-15762388D02*
X3017682Y-15781436D01*
X3017682Y-15781436D02*
X3027206Y-15790960D01*
X3027206Y-15790960D02*
X3046253Y-15800484D01*
X3046253Y-15800484D02*
X3084348Y-15800484D01*
X3084348Y-15800484D02*
X3103396Y-15790960D01*
X3103396Y-15790960D02*
X3112920Y-15781436D01*
X3112920Y-15781436D02*
X3122444Y-15762388D01*
X3122444Y-15762388D02*
X3122444Y-15714769D01*
X3122444Y-15714769D02*
X3112920Y-15695722D01*
X3112920Y-15695722D02*
X3103396Y-15686198D01*
X3103396Y-15686198D02*
X3084348Y-15676674D01*
X3084348Y-15676674D02*
X3046253Y-15676674D01*
X3046253Y-15676674D02*
X3027206Y-15686198D01*
X3027206Y-15686198D02*
X3017682Y-15695722D01*
X3017682Y-15695722D02*
X3008158Y-15714769D01*
X3198634Y-15600484D02*
X3198634Y-15638579D01*
X3274825Y-15600484D02*
X3274825Y-15638579D01*
X3570063Y-15876674D02*
X3560539Y-15867150D01*
X3560539Y-15867150D02*
X3541491Y-15838579D01*
X3541491Y-15838579D02*
X3531968Y-15819531D01*
X3531968Y-15819531D02*
X3522444Y-15790960D01*
X3522444Y-15790960D02*
X3512920Y-15743341D01*
X3512920Y-15743341D02*
X3512920Y-15705246D01*
X3512920Y-15705246D02*
X3522444Y-15657627D01*
X3522444Y-15657627D02*
X3531968Y-15629055D01*
X3531968Y-15629055D02*
X3541491Y-15610008D01*
X3541491Y-15610008D02*
X3560539Y-15581436D01*
X3560539Y-15581436D02*
X3570063Y-15571912D01*
X3674825Y-15686198D02*
X3655777Y-15676674D01*
X3655777Y-15676674D02*
X3646253Y-15667150D01*
X3646253Y-15667150D02*
X3636729Y-15648103D01*
X3636729Y-15648103D02*
X3636729Y-15638579D01*
X3636729Y-15638579D02*
X3646253Y-15619531D01*
X3646253Y-15619531D02*
X3655777Y-15610008D01*
X3655777Y-15610008D02*
X3674825Y-15600484D01*
X3674825Y-15600484D02*
X3712920Y-15600484D01*
X3712920Y-15600484D02*
X3731968Y-15610008D01*
X3731968Y-15610008D02*
X3741491Y-15619531D01*
X3741491Y-15619531D02*
X3751015Y-15638579D01*
X3751015Y-15638579D02*
X3751015Y-15648103D01*
X3751015Y-15648103D02*
X3741491Y-15667150D01*
X3741491Y-15667150D02*
X3731968Y-15676674D01*
X3731968Y-15676674D02*
X3712920Y-15686198D01*
X3712920Y-15686198D02*
X3674825Y-15686198D01*
X3674825Y-15686198D02*
X3655777Y-15695722D01*
X3655777Y-15695722D02*
X3646253Y-15705246D01*
X3646253Y-15705246D02*
X3636729Y-15724293D01*
X3636729Y-15724293D02*
X3636729Y-15762388D01*
X3636729Y-15762388D02*
X3646253Y-15781436D01*
X3646253Y-15781436D02*
X3655777Y-15790960D01*
X3655777Y-15790960D02*
X3674825Y-15800484D01*
X3674825Y-15800484D02*
X3712920Y-15800484D01*
X3712920Y-15800484D02*
X3731968Y-15790960D01*
X3731968Y-15790960D02*
X3741491Y-15781436D01*
X3741491Y-15781436D02*
X3751015Y-15762388D01*
X3751015Y-15762388D02*
X3751015Y-15724293D01*
X3751015Y-15724293D02*
X3741491Y-15705246D01*
X3741491Y-15705246D02*
X3731968Y-15695722D01*
X3731968Y-15695722D02*
X3712920Y-15686198D01*
X3989110Y-15800484D02*
X3989110Y-15600484D01*
X4074825Y-15800484D02*
X4074825Y-15695722D01*
X4074825Y-15695722D02*
X4065301Y-15676674D01*
X4065301Y-15676674D02*
X4046253Y-15667150D01*
X4046253Y-15667150D02*
X4017682Y-15667150D01*
X4017682Y-15667150D02*
X3998634Y-15676674D01*
X3998634Y-15676674D02*
X3989110Y-15686198D01*
X4198634Y-15800484D02*
X4179587Y-15790960D01*
X4179587Y-15790960D02*
X4170063Y-15781436D01*
X4170063Y-15781436D02*
X4160539Y-15762388D01*
X4160539Y-15762388D02*
X4160539Y-15705246D01*
X4160539Y-15705246D02*
X4170063Y-15686198D01*
X4170063Y-15686198D02*
X4179587Y-15676674D01*
X4179587Y-15676674D02*
X4198634Y-15667150D01*
X4198634Y-15667150D02*
X4227206Y-15667150D01*
X4227206Y-15667150D02*
X4246253Y-15676674D01*
X4246253Y-15676674D02*
X4255777Y-15686198D01*
X4255777Y-15686198D02*
X4265301Y-15705246D01*
X4265301Y-15705246D02*
X4265301Y-15762388D01*
X4265301Y-15762388D02*
X4255777Y-15781436D01*
X4255777Y-15781436D02*
X4246253Y-15790960D01*
X4246253Y-15790960D02*
X4227206Y-15800484D01*
X4227206Y-15800484D02*
X4198634Y-15800484D01*
X4379587Y-15800484D02*
X4360539Y-15790960D01*
X4360539Y-15790960D02*
X4351015Y-15771912D01*
X4351015Y-15771912D02*
X4351015Y-15600484D01*
X4531968Y-15790960D02*
X4512920Y-15800484D01*
X4512920Y-15800484D02*
X4474825Y-15800484D01*
X4474825Y-15800484D02*
X4455777Y-15790960D01*
X4455777Y-15790960D02*
X4446253Y-15771912D01*
X4446253Y-15771912D02*
X4446253Y-15695722D01*
X4446253Y-15695722D02*
X4455777Y-15676674D01*
X4455777Y-15676674D02*
X4474825Y-15667150D01*
X4474825Y-15667150D02*
X4512920Y-15667150D01*
X4512920Y-15667150D02*
X4531968Y-15676674D01*
X4531968Y-15676674D02*
X4541492Y-15695722D01*
X4541492Y-15695722D02*
X4541492Y-15714769D01*
X4541492Y-15714769D02*
X4446253Y-15733817D01*
X4617682Y-15790960D02*
X4636730Y-15800484D01*
X4636730Y-15800484D02*
X4674825Y-15800484D01*
X4674825Y-15800484D02*
X4693873Y-15790960D01*
X4693873Y-15790960D02*
X4703396Y-15771912D01*
X4703396Y-15771912D02*
X4703396Y-15762388D01*
X4703396Y-15762388D02*
X4693873Y-15743341D01*
X4693873Y-15743341D02*
X4674825Y-15733817D01*
X4674825Y-15733817D02*
X4646253Y-15733817D01*
X4646253Y-15733817D02*
X4627206Y-15724293D01*
X4627206Y-15724293D02*
X4617682Y-15705246D01*
X4617682Y-15705246D02*
X4617682Y-15695722D01*
X4617682Y-15695722D02*
X4627206Y-15676674D01*
X4627206Y-15676674D02*
X4646253Y-15667150D01*
X4646253Y-15667150D02*
X4674825Y-15667150D01*
X4674825Y-15667150D02*
X4693873Y-15676674D01*
X4770063Y-15876674D02*
X4779587Y-15867150D01*
X4779587Y-15867150D02*
X4798634Y-15838579D01*
X4798634Y-15838579D02*
X4808158Y-15819531D01*
X4808158Y-15819531D02*
X4817682Y-15790960D01*
X4817682Y-15790960D02*
X4827206Y-15743341D01*
X4827206Y-15743341D02*
X4827206Y-15705246D01*
X4827206Y-15705246D02*
X4817682Y-15657627D01*
X4817682Y-15657627D02*
X4808158Y-15629055D01*
X4808158Y-15629055D02*
X4798634Y-15610008D01*
X4798634Y-15610008D02*
X4779587Y-15581436D01*
X4779587Y-15581436D02*
X4770063Y-15571912D01*
X5131968Y-15876674D02*
X5122444Y-15867150D01*
X5122444Y-15867150D02*
X5103396Y-15838579D01*
X5103396Y-15838579D02*
X5093873Y-15819531D01*
X5093873Y-15819531D02*
X5084349Y-15790960D01*
X5084349Y-15790960D02*
X5074825Y-15743341D01*
X5074825Y-15743341D02*
X5074825Y-15705246D01*
X5074825Y-15705246D02*
X5084349Y-15657627D01*
X5084349Y-15657627D02*
X5093873Y-15629055D01*
X5093873Y-15629055D02*
X5103396Y-15610008D01*
X5103396Y-15610008D02*
X5122444Y-15581436D01*
X5122444Y-15581436D02*
X5131968Y-15571912D01*
X5208158Y-15667150D02*
X5208158Y-15800484D01*
X5208158Y-15686198D02*
X5217682Y-15676674D01*
X5217682Y-15676674D02*
X5236730Y-15667150D01*
X5236730Y-15667150D02*
X5265301Y-15667150D01*
X5265301Y-15667150D02*
X5284349Y-15676674D01*
X5284349Y-15676674D02*
X5293873Y-15695722D01*
X5293873Y-15695722D02*
X5293873Y-15800484D01*
X5417682Y-15800484D02*
X5398634Y-15790960D01*
X5398634Y-15790960D02*
X5389111Y-15781436D01*
X5389111Y-15781436D02*
X5379587Y-15762388D01*
X5379587Y-15762388D02*
X5379587Y-15705246D01*
X5379587Y-15705246D02*
X5389111Y-15686198D01*
X5389111Y-15686198D02*
X5398634Y-15676674D01*
X5398634Y-15676674D02*
X5417682Y-15667150D01*
X5417682Y-15667150D02*
X5446254Y-15667150D01*
X5446254Y-15667150D02*
X5465301Y-15676674D01*
X5465301Y-15676674D02*
X5474825Y-15686198D01*
X5474825Y-15686198D02*
X5484349Y-15705246D01*
X5484349Y-15705246D02*
X5484349Y-15762388D01*
X5484349Y-15762388D02*
X5474825Y-15781436D01*
X5474825Y-15781436D02*
X5465301Y-15790960D01*
X5465301Y-15790960D02*
X5446254Y-15800484D01*
X5446254Y-15800484D02*
X5417682Y-15800484D01*
X5541492Y-15667150D02*
X5617682Y-15667150D01*
X5570063Y-15600484D02*
X5570063Y-15771912D01*
X5570063Y-15771912D02*
X5579587Y-15790960D01*
X5579587Y-15790960D02*
X5598634Y-15800484D01*
X5598634Y-15800484D02*
X5617682Y-15800484D01*
X5836730Y-15667150D02*
X5836730Y-15867150D01*
X5836730Y-15676674D02*
X5855777Y-15667150D01*
X5855777Y-15667150D02*
X5893873Y-15667150D01*
X5893873Y-15667150D02*
X5912920Y-15676674D01*
X5912920Y-15676674D02*
X5922444Y-15686198D01*
X5922444Y-15686198D02*
X5931968Y-15705246D01*
X5931968Y-15705246D02*
X5931968Y-15762388D01*
X5931968Y-15762388D02*
X5922444Y-15781436D01*
X5922444Y-15781436D02*
X5912920Y-15790960D01*
X5912920Y-15790960D02*
X5893873Y-15800484D01*
X5893873Y-15800484D02*
X5855777Y-15800484D01*
X5855777Y-15800484D02*
X5836730Y-15790960D01*
X6046253Y-15800484D02*
X6027206Y-15790960D01*
X6027206Y-15790960D02*
X6017682Y-15771912D01*
X6017682Y-15771912D02*
X6017682Y-15600484D01*
X6208158Y-15800484D02*
X6208158Y-15695722D01*
X6208158Y-15695722D02*
X6198634Y-15676674D01*
X6198634Y-15676674D02*
X6179587Y-15667150D01*
X6179587Y-15667150D02*
X6141492Y-15667150D01*
X6141492Y-15667150D02*
X6122444Y-15676674D01*
X6208158Y-15790960D02*
X6189111Y-15800484D01*
X6189111Y-15800484D02*
X6141492Y-15800484D01*
X6141492Y-15800484D02*
X6122444Y-15790960D01*
X6122444Y-15790960D02*
X6112920Y-15771912D01*
X6112920Y-15771912D02*
X6112920Y-15752865D01*
X6112920Y-15752865D02*
X6122444Y-15733817D01*
X6122444Y-15733817D02*
X6141492Y-15724293D01*
X6141492Y-15724293D02*
X6189111Y-15724293D01*
X6189111Y-15724293D02*
X6208158Y-15714769D01*
X6274825Y-15667150D02*
X6351015Y-15667150D01*
X6303396Y-15600484D02*
X6303396Y-15771912D01*
X6303396Y-15771912D02*
X6312920Y-15790960D01*
X6312920Y-15790960D02*
X6331968Y-15800484D01*
X6331968Y-15800484D02*
X6351015Y-15800484D01*
X6493873Y-15790960D02*
X6474825Y-15800484D01*
X6474825Y-15800484D02*
X6436730Y-15800484D01*
X6436730Y-15800484D02*
X6417682Y-15790960D01*
X6417682Y-15790960D02*
X6408158Y-15771912D01*
X6408158Y-15771912D02*
X6408158Y-15695722D01*
X6408158Y-15695722D02*
X6417682Y-15676674D01*
X6417682Y-15676674D02*
X6436730Y-15667150D01*
X6436730Y-15667150D02*
X6474825Y-15667150D01*
X6474825Y-15667150D02*
X6493873Y-15676674D01*
X6493873Y-15676674D02*
X6503396Y-15695722D01*
X6503396Y-15695722D02*
X6503396Y-15714769D01*
X6503396Y-15714769D02*
X6408158Y-15733817D01*
X6674825Y-15800484D02*
X6674825Y-15600484D01*
X6674825Y-15790960D02*
X6655777Y-15800484D01*
X6655777Y-15800484D02*
X6617682Y-15800484D01*
X6617682Y-15800484D02*
X6598634Y-15790960D01*
X6598634Y-15790960D02*
X6589111Y-15781436D01*
X6589111Y-15781436D02*
X6579587Y-15762388D01*
X6579587Y-15762388D02*
X6579587Y-15705246D01*
X6579587Y-15705246D02*
X6589111Y-15686198D01*
X6589111Y-15686198D02*
X6598634Y-15676674D01*
X6598634Y-15676674D02*
X6617682Y-15667150D01*
X6617682Y-15667150D02*
X6655777Y-15667150D01*
X6655777Y-15667150D02*
X6674825Y-15676674D01*
X6751015Y-15876674D02*
X6760539Y-15867150D01*
X6760539Y-15867150D02*
X6779587Y-15838579D01*
X6779587Y-15838579D02*
X6789111Y-15819531D01*
X6789111Y-15819531D02*
X6798634Y-15790960D01*
X6798634Y-15790960D02*
X6808158Y-15743341D01*
X6808158Y-15743341D02*
X6808158Y-15705246D01*
X6808158Y-15705246D02*
X6798634Y-15657627D01*
X6798634Y-15657627D02*
X6789111Y-15629055D01*
X6789111Y-15629055D02*
X6779587Y-15610008D01*
X6779587Y-15610008D02*
X6760539Y-15581436D01*
X6760539Y-15581436D02*
X6751015Y-15571912D01*
D10*
X-40000Y-15938000D02*
X-40000Y-16008000D01*
X-75000Y-15973000D02*
X-5000Y-15973000D01*
D11*
X293872Y-15864484D02*
X312920Y-15864484D01*
X312920Y-15864484D02*
X331967Y-15874008D01*
X331967Y-15874008D02*
X341491Y-15883531D01*
X341491Y-15883531D02*
X351015Y-15902579D01*
X351015Y-15902579D02*
X360539Y-15940674D01*
X360539Y-15940674D02*
X360539Y-15988293D01*
X360539Y-15988293D02*
X351015Y-16026388D01*
X351015Y-16026388D02*
X341491Y-16045436D01*
X341491Y-16045436D02*
X331967Y-16054960D01*
X331967Y-16054960D02*
X312920Y-16064484D01*
X312920Y-16064484D02*
X293872Y-16064484D01*
X293872Y-16064484D02*
X274824Y-16054960D01*
X274824Y-16054960D02*
X265301Y-16045436D01*
X265301Y-16045436D02*
X255777Y-16026388D01*
X255777Y-16026388D02*
X246253Y-15988293D01*
X246253Y-15988293D02*
X246253Y-15940674D01*
X246253Y-15940674D02*
X255777Y-15902579D01*
X255777Y-15902579D02*
X265301Y-15883531D01*
X265301Y-15883531D02*
X274824Y-15874008D01*
X274824Y-15874008D02*
X293872Y-15864484D01*
X446253Y-16045436D02*
X455777Y-16054960D01*
X455777Y-16054960D02*
X446253Y-16064484D01*
X446253Y-16064484D02*
X436729Y-16054960D01*
X436729Y-16054960D02*
X446253Y-16045436D01*
X446253Y-16045436D02*
X446253Y-16064484D01*
X522443Y-15864484D02*
X655777Y-15864484D01*
X655777Y-15864484D02*
X570063Y-16064484D01*
X770062Y-15864484D02*
X789110Y-15864484D01*
X789110Y-15864484D02*
X808158Y-15874008D01*
X808158Y-15874008D02*
X817682Y-15883531D01*
X817682Y-15883531D02*
X827205Y-15902579D01*
X827205Y-15902579D02*
X836729Y-15940674D01*
X836729Y-15940674D02*
X836729Y-15988293D01*
X836729Y-15988293D02*
X827205Y-16026388D01*
X827205Y-16026388D02*
X817682Y-16045436D01*
X817682Y-16045436D02*
X808158Y-16054960D01*
X808158Y-16054960D02*
X789110Y-16064484D01*
X789110Y-16064484D02*
X770062Y-16064484D01*
X770062Y-16064484D02*
X751015Y-16054960D01*
X751015Y-16054960D02*
X741491Y-16045436D01*
X741491Y-16045436D02*
X731967Y-16026388D01*
X731967Y-16026388D02*
X722443Y-15988293D01*
X722443Y-15988293D02*
X722443Y-15940674D01*
X722443Y-15940674D02*
X731967Y-15902579D01*
X731967Y-15902579D02*
X741491Y-15883531D01*
X741491Y-15883531D02*
X751015Y-15874008D01*
X751015Y-15874008D02*
X770062Y-15864484D01*
X960539Y-15864484D02*
X979586Y-15864484D01*
X979586Y-15864484D02*
X998634Y-15874008D01*
X998634Y-15874008D02*
X1008158Y-15883531D01*
X1008158Y-15883531D02*
X1017682Y-15902579D01*
X1017682Y-15902579D02*
X1027205Y-15940674D01*
X1027205Y-15940674D02*
X1027205Y-15988293D01*
X1027205Y-15988293D02*
X1017682Y-16026388D01*
X1017682Y-16026388D02*
X1008158Y-16045436D01*
X1008158Y-16045436D02*
X998634Y-16054960D01*
X998634Y-16054960D02*
X979586Y-16064484D01*
X979586Y-16064484D02*
X960539Y-16064484D01*
X960539Y-16064484D02*
X941491Y-16054960D01*
X941491Y-16054960D02*
X931967Y-16045436D01*
X931967Y-16045436D02*
X922443Y-16026388D01*
X922443Y-16026388D02*
X912920Y-15988293D01*
X912920Y-15988293D02*
X912920Y-15940674D01*
X912920Y-15940674D02*
X922443Y-15902579D01*
X922443Y-15902579D02*
X931967Y-15883531D01*
X931967Y-15883531D02*
X941491Y-15874008D01*
X941491Y-15874008D02*
X960539Y-15864484D01*
X1112920Y-16064484D02*
X1112920Y-15931150D01*
X1112920Y-15950198D02*
X1122444Y-15940674D01*
X1122444Y-15940674D02*
X1141491Y-15931150D01*
X1141491Y-15931150D02*
X1170063Y-15931150D01*
X1170063Y-15931150D02*
X1189110Y-15940674D01*
X1189110Y-15940674D02*
X1198634Y-15959722D01*
X1198634Y-15959722D02*
X1198634Y-16064484D01*
X1198634Y-15959722D02*
X1208158Y-15940674D01*
X1208158Y-15940674D02*
X1227205Y-15931150D01*
X1227205Y-15931150D02*
X1255777Y-15931150D01*
X1255777Y-15931150D02*
X1274825Y-15940674D01*
X1274825Y-15940674D02*
X1284348Y-15959722D01*
X1284348Y-15959722D02*
X1284348Y-16064484D01*
X1379586Y-16064484D02*
X1379586Y-15931150D01*
X1379586Y-15950198D02*
X1389110Y-15940674D01*
X1389110Y-15940674D02*
X1408158Y-15931150D01*
X1408158Y-15931150D02*
X1436729Y-15931150D01*
X1436729Y-15931150D02*
X1455777Y-15940674D01*
X1455777Y-15940674D02*
X1465301Y-15959722D01*
X1465301Y-15959722D02*
X1465301Y-16064484D01*
X1465301Y-15959722D02*
X1474824Y-15940674D01*
X1474824Y-15940674D02*
X1493872Y-15931150D01*
X1493872Y-15931150D02*
X1522443Y-15931150D01*
X1522443Y-15931150D02*
X1541491Y-15940674D01*
X1541491Y-15940674D02*
X1551015Y-15959722D01*
X1551015Y-15959722D02*
X1551015Y-16064484D01*
X1941491Y-15854960D02*
X1770063Y-16112103D01*
X2198634Y-15864484D02*
X2217682Y-15864484D01*
X2217682Y-15864484D02*
X2236729Y-15874008D01*
X2236729Y-15874008D02*
X2246253Y-15883531D01*
X2246253Y-15883531D02*
X2255777Y-15902579D01*
X2255777Y-15902579D02*
X2265301Y-15940674D01*
X2265301Y-15940674D02*
X2265301Y-15988293D01*
X2265301Y-15988293D02*
X2255777Y-16026388D01*
X2255777Y-16026388D02*
X2246253Y-16045436D01*
X2246253Y-16045436D02*
X2236729Y-16054960D01*
X2236729Y-16054960D02*
X2217682Y-16064484D01*
X2217682Y-16064484D02*
X2198634Y-16064484D01*
X2198634Y-16064484D02*
X2179587Y-16054960D01*
X2179587Y-16054960D02*
X2170063Y-16045436D01*
X2170063Y-16045436D02*
X2160539Y-16026388D01*
X2160539Y-16026388D02*
X2151015Y-15988293D01*
X2151015Y-15988293D02*
X2151015Y-15940674D01*
X2151015Y-15940674D02*
X2160539Y-15902579D01*
X2160539Y-15902579D02*
X2170063Y-15883531D01*
X2170063Y-15883531D02*
X2179587Y-15874008D01*
X2179587Y-15874008D02*
X2198634Y-15864484D01*
X2351015Y-16045436D02*
X2360539Y-16054960D01*
X2360539Y-16054960D02*
X2351015Y-16064484D01*
X2351015Y-16064484D02*
X2341491Y-16054960D01*
X2341491Y-16054960D02*
X2351015Y-16045436D01*
X2351015Y-16045436D02*
X2351015Y-16064484D01*
X2484348Y-15864484D02*
X2503396Y-15864484D01*
X2503396Y-15864484D02*
X2522444Y-15874008D01*
X2522444Y-15874008D02*
X2531968Y-15883531D01*
X2531968Y-15883531D02*
X2541491Y-15902579D01*
X2541491Y-15902579D02*
X2551015Y-15940674D01*
X2551015Y-15940674D02*
X2551015Y-15988293D01*
X2551015Y-15988293D02*
X2541491Y-16026388D01*
X2541491Y-16026388D02*
X2531968Y-16045436D01*
X2531968Y-16045436D02*
X2522444Y-16054960D01*
X2522444Y-16054960D02*
X2503396Y-16064484D01*
X2503396Y-16064484D02*
X2484348Y-16064484D01*
X2484348Y-16064484D02*
X2465301Y-16054960D01*
X2465301Y-16054960D02*
X2455777Y-16045436D01*
X2455777Y-16045436D02*
X2446253Y-16026388D01*
X2446253Y-16026388D02*
X2436729Y-15988293D01*
X2436729Y-15988293D02*
X2436729Y-15940674D01*
X2436729Y-15940674D02*
X2446253Y-15902579D01*
X2446253Y-15902579D02*
X2455777Y-15883531D01*
X2455777Y-15883531D02*
X2465301Y-15874008D01*
X2465301Y-15874008D02*
X2484348Y-15864484D01*
X2627206Y-15883531D02*
X2636729Y-15874008D01*
X2636729Y-15874008D02*
X2655777Y-15864484D01*
X2655777Y-15864484D02*
X2703396Y-15864484D01*
X2703396Y-15864484D02*
X2722444Y-15874008D01*
X2722444Y-15874008D02*
X2731968Y-15883531D01*
X2731968Y-15883531D02*
X2741491Y-15902579D01*
X2741491Y-15902579D02*
X2741491Y-15921627D01*
X2741491Y-15921627D02*
X2731968Y-15950198D01*
X2731968Y-15950198D02*
X2617682Y-16064484D01*
X2617682Y-16064484D02*
X2741491Y-16064484D01*
X2808158Y-15864484D02*
X2941491Y-15864484D01*
X2941491Y-15864484D02*
X2855777Y-16064484D01*
X3103396Y-15864484D02*
X3065301Y-15864484D01*
X3065301Y-15864484D02*
X3046253Y-15874008D01*
X3046253Y-15874008D02*
X3036729Y-15883531D01*
X3036729Y-15883531D02*
X3017682Y-15912103D01*
X3017682Y-15912103D02*
X3008158Y-15950198D01*
X3008158Y-15950198D02*
X3008158Y-16026388D01*
X3008158Y-16026388D02*
X3017682Y-16045436D01*
X3017682Y-16045436D02*
X3027206Y-16054960D01*
X3027206Y-16054960D02*
X3046253Y-16064484D01*
X3046253Y-16064484D02*
X3084348Y-16064484D01*
X3084348Y-16064484D02*
X3103396Y-16054960D01*
X3103396Y-16054960D02*
X3112920Y-16045436D01*
X3112920Y-16045436D02*
X3122444Y-16026388D01*
X3122444Y-16026388D02*
X3122444Y-15978769D01*
X3122444Y-15978769D02*
X3112920Y-15959722D01*
X3112920Y-15959722D02*
X3103396Y-15950198D01*
X3103396Y-15950198D02*
X3084348Y-15940674D01*
X3084348Y-15940674D02*
X3046253Y-15940674D01*
X3046253Y-15940674D02*
X3027206Y-15950198D01*
X3027206Y-15950198D02*
X3017682Y-15959722D01*
X3017682Y-15959722D02*
X3008158Y-15978769D01*
X3198634Y-15864484D02*
X3198634Y-15902579D01*
X3274825Y-15864484D02*
X3274825Y-15902579D01*
X3570063Y-16140674D02*
X3560539Y-16131150D01*
X3560539Y-16131150D02*
X3541491Y-16102579D01*
X3541491Y-16102579D02*
X3531968Y-16083531D01*
X3531968Y-16083531D02*
X3522444Y-16054960D01*
X3522444Y-16054960D02*
X3512920Y-16007341D01*
X3512920Y-16007341D02*
X3512920Y-15969246D01*
X3512920Y-15969246D02*
X3522444Y-15921627D01*
X3522444Y-15921627D02*
X3531968Y-15893055D01*
X3531968Y-15893055D02*
X3541491Y-15874008D01*
X3541491Y-15874008D02*
X3560539Y-15845436D01*
X3560539Y-15845436D02*
X3570063Y-15835912D01*
X3674825Y-15950198D02*
X3655777Y-15940674D01*
X3655777Y-15940674D02*
X3646253Y-15931150D01*
X3646253Y-15931150D02*
X3636729Y-15912103D01*
X3636729Y-15912103D02*
X3636729Y-15902579D01*
X3636729Y-15902579D02*
X3646253Y-15883531D01*
X3646253Y-15883531D02*
X3655777Y-15874008D01*
X3655777Y-15874008D02*
X3674825Y-15864484D01*
X3674825Y-15864484D02*
X3712920Y-15864484D01*
X3712920Y-15864484D02*
X3731968Y-15874008D01*
X3731968Y-15874008D02*
X3741491Y-15883531D01*
X3741491Y-15883531D02*
X3751015Y-15902579D01*
X3751015Y-15902579D02*
X3751015Y-15912103D01*
X3751015Y-15912103D02*
X3741491Y-15931150D01*
X3741491Y-15931150D02*
X3731968Y-15940674D01*
X3731968Y-15940674D02*
X3712920Y-15950198D01*
X3712920Y-15950198D02*
X3674825Y-15950198D01*
X3674825Y-15950198D02*
X3655777Y-15959722D01*
X3655777Y-15959722D02*
X3646253Y-15969246D01*
X3646253Y-15969246D02*
X3636729Y-15988293D01*
X3636729Y-15988293D02*
X3636729Y-16026388D01*
X3636729Y-16026388D02*
X3646253Y-16045436D01*
X3646253Y-16045436D02*
X3655777Y-16054960D01*
X3655777Y-16054960D02*
X3674825Y-16064484D01*
X3674825Y-16064484D02*
X3712920Y-16064484D01*
X3712920Y-16064484D02*
X3731968Y-16054960D01*
X3731968Y-16054960D02*
X3741491Y-16045436D01*
X3741491Y-16045436D02*
X3751015Y-16026388D01*
X3751015Y-16026388D02*
X3751015Y-15988293D01*
X3751015Y-15988293D02*
X3741491Y-15969246D01*
X3741491Y-15969246D02*
X3731968Y-15959722D01*
X3731968Y-15959722D02*
X3712920Y-15950198D01*
X3989110Y-16064484D02*
X3989110Y-15864484D01*
X4074825Y-16064484D02*
X4074825Y-15959722D01*
X4074825Y-15959722D02*
X4065301Y-15940674D01*
X4065301Y-15940674D02*
X4046253Y-15931150D01*
X4046253Y-15931150D02*
X4017682Y-15931150D01*
X4017682Y-15931150D02*
X3998634Y-15940674D01*
X3998634Y-15940674D02*
X3989110Y-15950198D01*
X4198634Y-16064484D02*
X4179587Y-16054960D01*
X4179587Y-16054960D02*
X4170063Y-16045436D01*
X4170063Y-16045436D02*
X4160539Y-16026388D01*
X4160539Y-16026388D02*
X4160539Y-15969246D01*
X4160539Y-15969246D02*
X4170063Y-15950198D01*
X4170063Y-15950198D02*
X4179587Y-15940674D01*
X4179587Y-15940674D02*
X4198634Y-15931150D01*
X4198634Y-15931150D02*
X4227206Y-15931150D01*
X4227206Y-15931150D02*
X4246253Y-15940674D01*
X4246253Y-15940674D02*
X4255777Y-15950198D01*
X4255777Y-15950198D02*
X4265301Y-15969246D01*
X4265301Y-15969246D02*
X4265301Y-16026388D01*
X4265301Y-16026388D02*
X4255777Y-16045436D01*
X4255777Y-16045436D02*
X4246253Y-16054960D01*
X4246253Y-16054960D02*
X4227206Y-16064484D01*
X4227206Y-16064484D02*
X4198634Y-16064484D01*
X4379587Y-16064484D02*
X4360539Y-16054960D01*
X4360539Y-16054960D02*
X4351015Y-16035912D01*
X4351015Y-16035912D02*
X4351015Y-15864484D01*
X4531968Y-16054960D02*
X4512920Y-16064484D01*
X4512920Y-16064484D02*
X4474825Y-16064484D01*
X4474825Y-16064484D02*
X4455777Y-16054960D01*
X4455777Y-16054960D02*
X4446253Y-16035912D01*
X4446253Y-16035912D02*
X4446253Y-15959722D01*
X4446253Y-15959722D02*
X4455777Y-15940674D01*
X4455777Y-15940674D02*
X4474825Y-15931150D01*
X4474825Y-15931150D02*
X4512920Y-15931150D01*
X4512920Y-15931150D02*
X4531968Y-15940674D01*
X4531968Y-15940674D02*
X4541492Y-15959722D01*
X4541492Y-15959722D02*
X4541492Y-15978769D01*
X4541492Y-15978769D02*
X4446253Y-15997817D01*
X4617682Y-16054960D02*
X4636730Y-16064484D01*
X4636730Y-16064484D02*
X4674825Y-16064484D01*
X4674825Y-16064484D02*
X4693873Y-16054960D01*
X4693873Y-16054960D02*
X4703396Y-16035912D01*
X4703396Y-16035912D02*
X4703396Y-16026388D01*
X4703396Y-16026388D02*
X4693873Y-16007341D01*
X4693873Y-16007341D02*
X4674825Y-15997817D01*
X4674825Y-15997817D02*
X4646253Y-15997817D01*
X4646253Y-15997817D02*
X4627206Y-15988293D01*
X4627206Y-15988293D02*
X4617682Y-15969246D01*
X4617682Y-15969246D02*
X4617682Y-15959722D01*
X4617682Y-15959722D02*
X4627206Y-15940674D01*
X4627206Y-15940674D02*
X4646253Y-15931150D01*
X4646253Y-15931150D02*
X4674825Y-15931150D01*
X4674825Y-15931150D02*
X4693873Y-15940674D01*
X4770063Y-16140674D02*
X4779587Y-16131150D01*
X4779587Y-16131150D02*
X4798634Y-16102579D01*
X4798634Y-16102579D02*
X4808158Y-16083531D01*
X4808158Y-16083531D02*
X4817682Y-16054960D01*
X4817682Y-16054960D02*
X4827206Y-16007341D01*
X4827206Y-16007341D02*
X4827206Y-15969246D01*
X4827206Y-15969246D02*
X4817682Y-15921627D01*
X4817682Y-15921627D02*
X4808158Y-15893055D01*
X4808158Y-15893055D02*
X4798634Y-15874008D01*
X4798634Y-15874008D02*
X4779587Y-15845436D01*
X4779587Y-15845436D02*
X4770063Y-15835912D01*
X5131968Y-16140674D02*
X5122444Y-16131150D01*
X5122444Y-16131150D02*
X5103396Y-16102579D01*
X5103396Y-16102579D02*
X5093873Y-16083531D01*
X5093873Y-16083531D02*
X5084349Y-16054960D01*
X5084349Y-16054960D02*
X5074825Y-16007341D01*
X5074825Y-16007341D02*
X5074825Y-15969246D01*
X5074825Y-15969246D02*
X5084349Y-15921627D01*
X5084349Y-15921627D02*
X5093873Y-15893055D01*
X5093873Y-15893055D02*
X5103396Y-15874008D01*
X5103396Y-15874008D02*
X5122444Y-15845436D01*
X5122444Y-15845436D02*
X5131968Y-15835912D01*
X5208158Y-15931150D02*
X5208158Y-16064484D01*
X5208158Y-15950198D02*
X5217682Y-15940674D01*
X5217682Y-15940674D02*
X5236730Y-15931150D01*
X5236730Y-15931150D02*
X5265301Y-15931150D01*
X5265301Y-15931150D02*
X5284349Y-15940674D01*
X5284349Y-15940674D02*
X5293873Y-15959722D01*
X5293873Y-15959722D02*
X5293873Y-16064484D01*
X5417682Y-16064484D02*
X5398634Y-16054960D01*
X5398634Y-16054960D02*
X5389111Y-16045436D01*
X5389111Y-16045436D02*
X5379587Y-16026388D01*
X5379587Y-16026388D02*
X5379587Y-15969246D01*
X5379587Y-15969246D02*
X5389111Y-15950198D01*
X5389111Y-15950198D02*
X5398634Y-15940674D01*
X5398634Y-15940674D02*
X5417682Y-15931150D01*
X5417682Y-15931150D02*
X5446254Y-15931150D01*
X5446254Y-15931150D02*
X5465301Y-15940674D01*
X5465301Y-15940674D02*
X5474825Y-15950198D01*
X5474825Y-15950198D02*
X5484349Y-15969246D01*
X5484349Y-15969246D02*
X5484349Y-16026388D01*
X5484349Y-16026388D02*
X5474825Y-16045436D01*
X5474825Y-16045436D02*
X5465301Y-16054960D01*
X5465301Y-16054960D02*
X5446254Y-16064484D01*
X5446254Y-16064484D02*
X5417682Y-16064484D01*
X5541492Y-15931150D02*
X5617682Y-15931150D01*
X5570063Y-15864484D02*
X5570063Y-16035912D01*
X5570063Y-16035912D02*
X5579587Y-16054960D01*
X5579587Y-16054960D02*
X5598634Y-16064484D01*
X5598634Y-16064484D02*
X5617682Y-16064484D01*
X5836730Y-15931150D02*
X5836730Y-16131150D01*
X5836730Y-15940674D02*
X5855777Y-15931150D01*
X5855777Y-15931150D02*
X5893873Y-15931150D01*
X5893873Y-15931150D02*
X5912920Y-15940674D01*
X5912920Y-15940674D02*
X5922444Y-15950198D01*
X5922444Y-15950198D02*
X5931968Y-15969246D01*
X5931968Y-15969246D02*
X5931968Y-16026388D01*
X5931968Y-16026388D02*
X5922444Y-16045436D01*
X5922444Y-16045436D02*
X5912920Y-16054960D01*
X5912920Y-16054960D02*
X5893873Y-16064484D01*
X5893873Y-16064484D02*
X5855777Y-16064484D01*
X5855777Y-16064484D02*
X5836730Y-16054960D01*
X6046253Y-16064484D02*
X6027206Y-16054960D01*
X6027206Y-16054960D02*
X6017682Y-16035912D01*
X6017682Y-16035912D02*
X6017682Y-15864484D01*
X6208158Y-16064484D02*
X6208158Y-15959722D01*
X6208158Y-15959722D02*
X6198634Y-15940674D01*
X6198634Y-15940674D02*
X6179587Y-15931150D01*
X6179587Y-15931150D02*
X6141492Y-15931150D01*
X6141492Y-15931150D02*
X6122444Y-15940674D01*
X6208158Y-16054960D02*
X6189111Y-16064484D01*
X6189111Y-16064484D02*
X6141492Y-16064484D01*
X6141492Y-16064484D02*
X6122444Y-16054960D01*
X6122444Y-16054960D02*
X6112920Y-16035912D01*
X6112920Y-16035912D02*
X6112920Y-16016865D01*
X6112920Y-16016865D02*
X6122444Y-15997817D01*
X6122444Y-15997817D02*
X6141492Y-15988293D01*
X6141492Y-15988293D02*
X6189111Y-15988293D01*
X6189111Y-15988293D02*
X6208158Y-15978769D01*
X6274825Y-15931150D02*
X6351015Y-15931150D01*
X6303396Y-15864484D02*
X6303396Y-16035912D01*
X6303396Y-16035912D02*
X6312920Y-16054960D01*
X6312920Y-16054960D02*
X6331968Y-16064484D01*
X6331968Y-16064484D02*
X6351015Y-16064484D01*
X6493873Y-16054960D02*
X6474825Y-16064484D01*
X6474825Y-16064484D02*
X6436730Y-16064484D01*
X6436730Y-16064484D02*
X6417682Y-16054960D01*
X6417682Y-16054960D02*
X6408158Y-16035912D01*
X6408158Y-16035912D02*
X6408158Y-15959722D01*
X6408158Y-15959722D02*
X6417682Y-15940674D01*
X6417682Y-15940674D02*
X6436730Y-15931150D01*
X6436730Y-15931150D02*
X6474825Y-15931150D01*
X6474825Y-15931150D02*
X6493873Y-15940674D01*
X6493873Y-15940674D02*
X6503396Y-15959722D01*
X6503396Y-15959722D02*
X6503396Y-15978769D01*
X6503396Y-15978769D02*
X6408158Y-15997817D01*
X6674825Y-16064484D02*
X6674825Y-15864484D01*
X6674825Y-16054960D02*
X6655777Y-16064484D01*
X6655777Y-16064484D02*
X6617682Y-16064484D01*
X6617682Y-16064484D02*
X6598634Y-16054960D01*
X6598634Y-16054960D02*
X6589111Y-16045436D01*
X6589111Y-16045436D02*
X6579587Y-16026388D01*
X6579587Y-16026388D02*
X6579587Y-15969246D01*
X6579587Y-15969246D02*
X6589111Y-15950198D01*
X6589111Y-15950198D02*
X6598634Y-15940674D01*
X6598634Y-15940674D02*
X6617682Y-15931150D01*
X6617682Y-15931150D02*
X6655777Y-15931150D01*
X6655777Y-15931150D02*
X6674825Y-15940674D01*
X6751015Y-16140674D02*
X6760539Y-16131150D01*
X6760539Y-16131150D02*
X6779587Y-16102579D01*
X6779587Y-16102579D02*
X6789111Y-16083531D01*
X6789111Y-16083531D02*
X6798634Y-16054960D01*
X6798634Y-16054960D02*
X6808158Y-16007341D01*
X6808158Y-16007341D02*
X6808158Y-15969246D01*
X6808158Y-15969246D02*
X6798634Y-15921627D01*
X6798634Y-15921627D02*
X6789111Y-15893055D01*
X6789111Y-15893055D02*
X6779587Y-15874008D01*
X6779587Y-15874008D02*
X6760539Y-15845436D01*
X6760539Y-15845436D02*
X6751015Y-15835912D01*
D12*
X-21870Y-16277730D02*
X-21870Y-16196270D01*
X-103330Y-16196270D01*
X-103330Y-16277730D01*
X-21870Y-16277730D01*
D11*
X360539Y-16328484D02*
X246253Y-16328484D01*
X303396Y-16328484D02*
X303396Y-16128484D01*
X303396Y-16128484D02*
X284348Y-16157055D01*
X284348Y-16157055D02*
X265301Y-16176103D01*
X265301Y-16176103D02*
X246253Y-16185627D01*
X446253Y-16309436D02*
X455777Y-16318960D01*
X455777Y-16318960D02*
X446253Y-16328484D01*
X446253Y-16328484D02*
X436729Y-16318960D01*
X436729Y-16318960D02*
X446253Y-16309436D01*
X446253Y-16309436D02*
X446253Y-16328484D01*
X646253Y-16328484D02*
X531967Y-16328484D01*
X589110Y-16328484D02*
X589110Y-16128484D01*
X589110Y-16128484D02*
X570063Y-16157055D01*
X570063Y-16157055D02*
X551015Y-16176103D01*
X551015Y-16176103D02*
X531967Y-16185627D01*
X827205Y-16128484D02*
X731967Y-16128484D01*
X731967Y-16128484D02*
X722443Y-16223722D01*
X722443Y-16223722D02*
X731967Y-16214198D01*
X731967Y-16214198D02*
X751015Y-16204674D01*
X751015Y-16204674D02*
X798634Y-16204674D01*
X798634Y-16204674D02*
X817682Y-16214198D01*
X817682Y-16214198D02*
X827205Y-16223722D01*
X827205Y-16223722D02*
X836729Y-16242769D01*
X836729Y-16242769D02*
X836729Y-16290388D01*
X836729Y-16290388D02*
X827205Y-16309436D01*
X827205Y-16309436D02*
X817682Y-16318960D01*
X817682Y-16318960D02*
X798634Y-16328484D01*
X798634Y-16328484D02*
X751015Y-16328484D01*
X751015Y-16328484D02*
X731967Y-16318960D01*
X731967Y-16318960D02*
X722443Y-16309436D01*
X912920Y-16147531D02*
X922443Y-16138008D01*
X922443Y-16138008D02*
X941491Y-16128484D01*
X941491Y-16128484D02*
X989110Y-16128484D01*
X989110Y-16128484D02*
X1008158Y-16138008D01*
X1008158Y-16138008D02*
X1017682Y-16147531D01*
X1017682Y-16147531D02*
X1027205Y-16166579D01*
X1027205Y-16166579D02*
X1027205Y-16185627D01*
X1027205Y-16185627D02*
X1017682Y-16214198D01*
X1017682Y-16214198D02*
X903396Y-16328484D01*
X903396Y-16328484D02*
X1027205Y-16328484D01*
X1112920Y-16328484D02*
X1112920Y-16195150D01*
X1112920Y-16214198D02*
X1122444Y-16204674D01*
X1122444Y-16204674D02*
X1141491Y-16195150D01*
X1141491Y-16195150D02*
X1170063Y-16195150D01*
X1170063Y-16195150D02*
X1189110Y-16204674D01*
X1189110Y-16204674D02*
X1198634Y-16223722D01*
X1198634Y-16223722D02*
X1198634Y-16328484D01*
X1198634Y-16223722D02*
X1208158Y-16204674D01*
X1208158Y-16204674D02*
X1227205Y-16195150D01*
X1227205Y-16195150D02*
X1255777Y-16195150D01*
X1255777Y-16195150D02*
X1274825Y-16204674D01*
X1274825Y-16204674D02*
X1284348Y-16223722D01*
X1284348Y-16223722D02*
X1284348Y-16328484D01*
X1379586Y-16328484D02*
X1379586Y-16195150D01*
X1379586Y-16214198D02*
X1389110Y-16204674D01*
X1389110Y-16204674D02*
X1408158Y-16195150D01*
X1408158Y-16195150D02*
X1436729Y-16195150D01*
X1436729Y-16195150D02*
X1455777Y-16204674D01*
X1455777Y-16204674D02*
X1465301Y-16223722D01*
X1465301Y-16223722D02*
X1465301Y-16328484D01*
X1465301Y-16223722D02*
X1474824Y-16204674D01*
X1474824Y-16204674D02*
X1493872Y-16195150D01*
X1493872Y-16195150D02*
X1522443Y-16195150D01*
X1522443Y-16195150D02*
X1541491Y-16204674D01*
X1541491Y-16204674D02*
X1551015Y-16223722D01*
X1551015Y-16223722D02*
X1551015Y-16328484D01*
X1941491Y-16118960D02*
X1770063Y-16376103D01*
X2198634Y-16128484D02*
X2217682Y-16128484D01*
X2217682Y-16128484D02*
X2236729Y-16138008D01*
X2236729Y-16138008D02*
X2246253Y-16147531D01*
X2246253Y-16147531D02*
X2255777Y-16166579D01*
X2255777Y-16166579D02*
X2265301Y-16204674D01*
X2265301Y-16204674D02*
X2265301Y-16252293D01*
X2265301Y-16252293D02*
X2255777Y-16290388D01*
X2255777Y-16290388D02*
X2246253Y-16309436D01*
X2246253Y-16309436D02*
X2236729Y-16318960D01*
X2236729Y-16318960D02*
X2217682Y-16328484D01*
X2217682Y-16328484D02*
X2198634Y-16328484D01*
X2198634Y-16328484D02*
X2179587Y-16318960D01*
X2179587Y-16318960D02*
X2170063Y-16309436D01*
X2170063Y-16309436D02*
X2160539Y-16290388D01*
X2160539Y-16290388D02*
X2151015Y-16252293D01*
X2151015Y-16252293D02*
X2151015Y-16204674D01*
X2151015Y-16204674D02*
X2160539Y-16166579D01*
X2160539Y-16166579D02*
X2170063Y-16147531D01*
X2170063Y-16147531D02*
X2179587Y-16138008D01*
X2179587Y-16138008D02*
X2198634Y-16128484D01*
X2351015Y-16309436D02*
X2360539Y-16318960D01*
X2360539Y-16318960D02*
X2351015Y-16328484D01*
X2351015Y-16328484D02*
X2341491Y-16318960D01*
X2341491Y-16318960D02*
X2351015Y-16309436D01*
X2351015Y-16309436D02*
X2351015Y-16328484D01*
X2484348Y-16128484D02*
X2503396Y-16128484D01*
X2503396Y-16128484D02*
X2522444Y-16138008D01*
X2522444Y-16138008D02*
X2531968Y-16147531D01*
X2531968Y-16147531D02*
X2541491Y-16166579D01*
X2541491Y-16166579D02*
X2551015Y-16204674D01*
X2551015Y-16204674D02*
X2551015Y-16252293D01*
X2551015Y-16252293D02*
X2541491Y-16290388D01*
X2541491Y-16290388D02*
X2531968Y-16309436D01*
X2531968Y-16309436D02*
X2522444Y-16318960D01*
X2522444Y-16318960D02*
X2503396Y-16328484D01*
X2503396Y-16328484D02*
X2484348Y-16328484D01*
X2484348Y-16328484D02*
X2465301Y-16318960D01*
X2465301Y-16318960D02*
X2455777Y-16309436D01*
X2455777Y-16309436D02*
X2446253Y-16290388D01*
X2446253Y-16290388D02*
X2436729Y-16252293D01*
X2436729Y-16252293D02*
X2436729Y-16204674D01*
X2436729Y-16204674D02*
X2446253Y-16166579D01*
X2446253Y-16166579D02*
X2455777Y-16147531D01*
X2455777Y-16147531D02*
X2465301Y-16138008D01*
X2465301Y-16138008D02*
X2484348Y-16128484D01*
X2722444Y-16195150D02*
X2722444Y-16328484D01*
X2674825Y-16118960D02*
X2627206Y-16261817D01*
X2627206Y-16261817D02*
X2751015Y-16261817D01*
X2922444Y-16128484D02*
X2827206Y-16128484D01*
X2827206Y-16128484D02*
X2817682Y-16223722D01*
X2817682Y-16223722D02*
X2827206Y-16214198D01*
X2827206Y-16214198D02*
X2846253Y-16204674D01*
X2846253Y-16204674D02*
X2893872Y-16204674D01*
X2893872Y-16204674D02*
X2912920Y-16214198D01*
X2912920Y-16214198D02*
X2922444Y-16223722D01*
X2922444Y-16223722D02*
X2931967Y-16242769D01*
X2931967Y-16242769D02*
X2931967Y-16290388D01*
X2931967Y-16290388D02*
X2922444Y-16309436D01*
X2922444Y-16309436D02*
X2912920Y-16318960D01*
X2912920Y-16318960D02*
X2893872Y-16328484D01*
X2893872Y-16328484D02*
X2846253Y-16328484D01*
X2846253Y-16328484D02*
X2827206Y-16318960D01*
X2827206Y-16318960D02*
X2817682Y-16309436D01*
X3103396Y-16195150D02*
X3103396Y-16328484D01*
X3055777Y-16118960D02*
X3008158Y-16261817D01*
X3008158Y-16261817D02*
X3131967Y-16261817D01*
X3198634Y-16128484D02*
X3198634Y-16166579D01*
X3274825Y-16128484D02*
X3274825Y-16166579D01*
X3570063Y-16404674D02*
X3560539Y-16395150D01*
X3560539Y-16395150D02*
X3541491Y-16366579D01*
X3541491Y-16366579D02*
X3531968Y-16347531D01*
X3531968Y-16347531D02*
X3522444Y-16318960D01*
X3522444Y-16318960D02*
X3512920Y-16271341D01*
X3512920Y-16271341D02*
X3512920Y-16233246D01*
X3512920Y-16233246D02*
X3522444Y-16185627D01*
X3522444Y-16185627D02*
X3531968Y-16157055D01*
X3531968Y-16157055D02*
X3541491Y-16138008D01*
X3541491Y-16138008D02*
X3560539Y-16109436D01*
X3560539Y-16109436D02*
X3570063Y-16099912D01*
X3627206Y-16128484D02*
X3751015Y-16128484D01*
X3751015Y-16128484D02*
X3684348Y-16204674D01*
X3684348Y-16204674D02*
X3712920Y-16204674D01*
X3712920Y-16204674D02*
X3731968Y-16214198D01*
X3731968Y-16214198D02*
X3741491Y-16223722D01*
X3741491Y-16223722D02*
X3751015Y-16242769D01*
X3751015Y-16242769D02*
X3751015Y-16290388D01*
X3751015Y-16290388D02*
X3741491Y-16309436D01*
X3741491Y-16309436D02*
X3731968Y-16318960D01*
X3731968Y-16318960D02*
X3712920Y-16328484D01*
X3712920Y-16328484D02*
X3655777Y-16328484D01*
X3655777Y-16328484D02*
X3636729Y-16318960D01*
X3636729Y-16318960D02*
X3627206Y-16309436D01*
X3989110Y-16328484D02*
X3989110Y-16128484D01*
X4074825Y-16328484D02*
X4074825Y-16223722D01*
X4074825Y-16223722D02*
X4065301Y-16204674D01*
X4065301Y-16204674D02*
X4046253Y-16195150D01*
X4046253Y-16195150D02*
X4017682Y-16195150D01*
X4017682Y-16195150D02*
X3998634Y-16204674D01*
X3998634Y-16204674D02*
X3989110Y-16214198D01*
X4198634Y-16328484D02*
X4179587Y-16318960D01*
X4179587Y-16318960D02*
X4170063Y-16309436D01*
X4170063Y-16309436D02*
X4160539Y-16290388D01*
X4160539Y-16290388D02*
X4160539Y-16233246D01*
X4160539Y-16233246D02*
X4170063Y-16214198D01*
X4170063Y-16214198D02*
X4179587Y-16204674D01*
X4179587Y-16204674D02*
X4198634Y-16195150D01*
X4198634Y-16195150D02*
X4227206Y-16195150D01*
X4227206Y-16195150D02*
X4246253Y-16204674D01*
X4246253Y-16204674D02*
X4255777Y-16214198D01*
X4255777Y-16214198D02*
X4265301Y-16233246D01*
X4265301Y-16233246D02*
X4265301Y-16290388D01*
X4265301Y-16290388D02*
X4255777Y-16309436D01*
X4255777Y-16309436D02*
X4246253Y-16318960D01*
X4246253Y-16318960D02*
X4227206Y-16328484D01*
X4227206Y-16328484D02*
X4198634Y-16328484D01*
X4379587Y-16328484D02*
X4360539Y-16318960D01*
X4360539Y-16318960D02*
X4351015Y-16299912D01*
X4351015Y-16299912D02*
X4351015Y-16128484D01*
X4531968Y-16318960D02*
X4512920Y-16328484D01*
X4512920Y-16328484D02*
X4474825Y-16328484D01*
X4474825Y-16328484D02*
X4455777Y-16318960D01*
X4455777Y-16318960D02*
X4446253Y-16299912D01*
X4446253Y-16299912D02*
X4446253Y-16223722D01*
X4446253Y-16223722D02*
X4455777Y-16204674D01*
X4455777Y-16204674D02*
X4474825Y-16195150D01*
X4474825Y-16195150D02*
X4512920Y-16195150D01*
X4512920Y-16195150D02*
X4531968Y-16204674D01*
X4531968Y-16204674D02*
X4541492Y-16223722D01*
X4541492Y-16223722D02*
X4541492Y-16242769D01*
X4541492Y-16242769D02*
X4446253Y-16261817D01*
X4617682Y-16318960D02*
X4636730Y-16328484D01*
X4636730Y-16328484D02*
X4674825Y-16328484D01*
X4674825Y-16328484D02*
X4693873Y-16318960D01*
X4693873Y-16318960D02*
X4703396Y-16299912D01*
X4703396Y-16299912D02*
X4703396Y-16290388D01*
X4703396Y-16290388D02*
X4693873Y-16271341D01*
X4693873Y-16271341D02*
X4674825Y-16261817D01*
X4674825Y-16261817D02*
X4646253Y-16261817D01*
X4646253Y-16261817D02*
X4627206Y-16252293D01*
X4627206Y-16252293D02*
X4617682Y-16233246D01*
X4617682Y-16233246D02*
X4617682Y-16223722D01*
X4617682Y-16223722D02*
X4627206Y-16204674D01*
X4627206Y-16204674D02*
X4646253Y-16195150D01*
X4646253Y-16195150D02*
X4674825Y-16195150D01*
X4674825Y-16195150D02*
X4693873Y-16204674D01*
X4770063Y-16404674D02*
X4779587Y-16395150D01*
X4779587Y-16395150D02*
X4798634Y-16366579D01*
X4798634Y-16366579D02*
X4808158Y-16347531D01*
X4808158Y-16347531D02*
X4817682Y-16318960D01*
X4817682Y-16318960D02*
X4827206Y-16271341D01*
X4827206Y-16271341D02*
X4827206Y-16233246D01*
X4827206Y-16233246D02*
X4817682Y-16185627D01*
X4817682Y-16185627D02*
X4808158Y-16157055D01*
X4808158Y-16157055D02*
X4798634Y-16138008D01*
X4798634Y-16138008D02*
X4779587Y-16109436D01*
X4779587Y-16109436D02*
X4770063Y-16099912D01*
X5131968Y-16404674D02*
X5122444Y-16395150D01*
X5122444Y-16395150D02*
X5103396Y-16366579D01*
X5103396Y-16366579D02*
X5093873Y-16347531D01*
X5093873Y-16347531D02*
X5084349Y-16318960D01*
X5084349Y-16318960D02*
X5074825Y-16271341D01*
X5074825Y-16271341D02*
X5074825Y-16233246D01*
X5074825Y-16233246D02*
X5084349Y-16185627D01*
X5084349Y-16185627D02*
X5093873Y-16157055D01*
X5093873Y-16157055D02*
X5103396Y-16138008D01*
X5103396Y-16138008D02*
X5122444Y-16109436D01*
X5122444Y-16109436D02*
X5131968Y-16099912D01*
X5208158Y-16195150D02*
X5208158Y-16328484D01*
X5208158Y-16214198D02*
X5217682Y-16204674D01*
X5217682Y-16204674D02*
X5236730Y-16195150D01*
X5236730Y-16195150D02*
X5265301Y-16195150D01*
X5265301Y-16195150D02*
X5284349Y-16204674D01*
X5284349Y-16204674D02*
X5293873Y-16223722D01*
X5293873Y-16223722D02*
X5293873Y-16328484D01*
X5417682Y-16328484D02*
X5398634Y-16318960D01*
X5398634Y-16318960D02*
X5389111Y-16309436D01*
X5389111Y-16309436D02*
X5379587Y-16290388D01*
X5379587Y-16290388D02*
X5379587Y-16233246D01*
X5379587Y-16233246D02*
X5389111Y-16214198D01*
X5389111Y-16214198D02*
X5398634Y-16204674D01*
X5398634Y-16204674D02*
X5417682Y-16195150D01*
X5417682Y-16195150D02*
X5446254Y-16195150D01*
X5446254Y-16195150D02*
X5465301Y-16204674D01*
X5465301Y-16204674D02*
X5474825Y-16214198D01*
X5474825Y-16214198D02*
X5484349Y-16233246D01*
X5484349Y-16233246D02*
X5484349Y-16290388D01*
X5484349Y-16290388D02*
X5474825Y-16309436D01*
X5474825Y-16309436D02*
X5465301Y-16318960D01*
X5465301Y-16318960D02*
X5446254Y-16328484D01*
X5446254Y-16328484D02*
X5417682Y-16328484D01*
X5541492Y-16195150D02*
X5617682Y-16195150D01*
X5570063Y-16128484D02*
X5570063Y-16299912D01*
X5570063Y-16299912D02*
X5579587Y-16318960D01*
X5579587Y-16318960D02*
X5598634Y-16328484D01*
X5598634Y-16328484D02*
X5617682Y-16328484D01*
X5836730Y-16195150D02*
X5836730Y-16395150D01*
X5836730Y-16204674D02*
X5855777Y-16195150D01*
X5855777Y-16195150D02*
X5893873Y-16195150D01*
X5893873Y-16195150D02*
X5912920Y-16204674D01*
X5912920Y-16204674D02*
X5922444Y-16214198D01*
X5922444Y-16214198D02*
X5931968Y-16233246D01*
X5931968Y-16233246D02*
X5931968Y-16290388D01*
X5931968Y-16290388D02*
X5922444Y-16309436D01*
X5922444Y-16309436D02*
X5912920Y-16318960D01*
X5912920Y-16318960D02*
X5893873Y-16328484D01*
X5893873Y-16328484D02*
X5855777Y-16328484D01*
X5855777Y-16328484D02*
X5836730Y-16318960D01*
X6046253Y-16328484D02*
X6027206Y-16318960D01*
X6027206Y-16318960D02*
X6017682Y-16299912D01*
X6017682Y-16299912D02*
X6017682Y-16128484D01*
X6208158Y-16328484D02*
X6208158Y-16223722D01*
X6208158Y-16223722D02*
X6198634Y-16204674D01*
X6198634Y-16204674D02*
X6179587Y-16195150D01*
X6179587Y-16195150D02*
X6141492Y-16195150D01*
X6141492Y-16195150D02*
X6122444Y-16204674D01*
X6208158Y-16318960D02*
X6189111Y-16328484D01*
X6189111Y-16328484D02*
X6141492Y-16328484D01*
X6141492Y-16328484D02*
X6122444Y-16318960D01*
X6122444Y-16318960D02*
X6112920Y-16299912D01*
X6112920Y-16299912D02*
X6112920Y-16280865D01*
X6112920Y-16280865D02*
X6122444Y-16261817D01*
X6122444Y-16261817D02*
X6141492Y-16252293D01*
X6141492Y-16252293D02*
X6189111Y-16252293D01*
X6189111Y-16252293D02*
X6208158Y-16242769D01*
X6274825Y-16195150D02*
X6351015Y-16195150D01*
X6303396Y-16128484D02*
X6303396Y-16299912D01*
X6303396Y-16299912D02*
X6312920Y-16318960D01*
X6312920Y-16318960D02*
X6331968Y-16328484D01*
X6331968Y-16328484D02*
X6351015Y-16328484D01*
X6493873Y-16318960D02*
X6474825Y-16328484D01*
X6474825Y-16328484D02*
X6436730Y-16328484D01*
X6436730Y-16328484D02*
X6417682Y-16318960D01*
X6417682Y-16318960D02*
X6408158Y-16299912D01*
X6408158Y-16299912D02*
X6408158Y-16223722D01*
X6408158Y-16223722D02*
X6417682Y-16204674D01*
X6417682Y-16204674D02*
X6436730Y-16195150D01*
X6436730Y-16195150D02*
X6474825Y-16195150D01*
X6474825Y-16195150D02*
X6493873Y-16204674D01*
X6493873Y-16204674D02*
X6503396Y-16223722D01*
X6503396Y-16223722D02*
X6503396Y-16242769D01*
X6503396Y-16242769D02*
X6408158Y-16261817D01*
X6674825Y-16328484D02*
X6674825Y-16128484D01*
X6674825Y-16318960D02*
X6655777Y-16328484D01*
X6655777Y-16328484D02*
X6617682Y-16328484D01*
X6617682Y-16328484D02*
X6598634Y-16318960D01*
X6598634Y-16318960D02*
X6589111Y-16309436D01*
X6589111Y-16309436D02*
X6579587Y-16290388D01*
X6579587Y-16290388D02*
X6579587Y-16233246D01*
X6579587Y-16233246D02*
X6589111Y-16214198D01*
X6589111Y-16214198D02*
X6598634Y-16204674D01*
X6598634Y-16204674D02*
X6617682Y-16195150D01*
X6617682Y-16195150D02*
X6655777Y-16195150D01*
X6655777Y-16195150D02*
X6674825Y-16204674D01*
X6751015Y-16404674D02*
X6760539Y-16395150D01*
X6760539Y-16395150D02*
X6779587Y-16366579D01*
X6779587Y-16366579D02*
X6789111Y-16347531D01*
X6789111Y-16347531D02*
X6798634Y-16318960D01*
X6798634Y-16318960D02*
X6808158Y-16271341D01*
X6808158Y-16271341D02*
X6808158Y-16233246D01*
X6808158Y-16233246D02*
X6798634Y-16185627D01*
X6798634Y-16185627D02*
X6789111Y-16157055D01*
X6789111Y-16157055D02*
X6779587Y-16138008D01*
X6779587Y-16138008D02*
X6760539Y-16109436D01*
X6760539Y-16109436D02*
X6751015Y-16099912D01*
X-105000Y-16601000D02*
X-5000Y-16501000D01*
X-105000Y-16401000D01*
X-205000Y-16501000D01*
X-105000Y-16601000D01*
X236729Y-16392484D02*
X360539Y-16392484D01*
X360539Y-16392484D02*
X293872Y-16468674D01*
X293872Y-16468674D02*
X322444Y-16468674D01*
X322444Y-16468674D02*
X341491Y-16478198D01*
X341491Y-16478198D02*
X351015Y-16487722D01*
X351015Y-16487722D02*
X360539Y-16506769D01*
X360539Y-16506769D02*
X360539Y-16554388D01*
X360539Y-16554388D02*
X351015Y-16573436D01*
X351015Y-16573436D02*
X341491Y-16582960D01*
X341491Y-16582960D02*
X322444Y-16592484D01*
X322444Y-16592484D02*
X265301Y-16592484D01*
X265301Y-16592484D02*
X246253Y-16582960D01*
X246253Y-16582960D02*
X236729Y-16573436D01*
X446253Y-16573436D02*
X455777Y-16582960D01*
X455777Y-16582960D02*
X446253Y-16592484D01*
X446253Y-16592484D02*
X436729Y-16582960D01*
X436729Y-16582960D02*
X446253Y-16573436D01*
X446253Y-16573436D02*
X446253Y-16592484D01*
X531967Y-16411531D02*
X541491Y-16402008D01*
X541491Y-16402008D02*
X560539Y-16392484D01*
X560539Y-16392484D02*
X608158Y-16392484D01*
X608158Y-16392484D02*
X627205Y-16402008D01*
X627205Y-16402008D02*
X636729Y-16411531D01*
X636729Y-16411531D02*
X646253Y-16430579D01*
X646253Y-16430579D02*
X646253Y-16449627D01*
X646253Y-16449627D02*
X636729Y-16478198D01*
X636729Y-16478198D02*
X522443Y-16592484D01*
X522443Y-16592484D02*
X646253Y-16592484D01*
X770062Y-16392484D02*
X789110Y-16392484D01*
X789110Y-16392484D02*
X808158Y-16402008D01*
X808158Y-16402008D02*
X817682Y-16411531D01*
X817682Y-16411531D02*
X827205Y-16430579D01*
X827205Y-16430579D02*
X836729Y-16468674D01*
X836729Y-16468674D02*
X836729Y-16516293D01*
X836729Y-16516293D02*
X827205Y-16554388D01*
X827205Y-16554388D02*
X817682Y-16573436D01*
X817682Y-16573436D02*
X808158Y-16582960D01*
X808158Y-16582960D02*
X789110Y-16592484D01*
X789110Y-16592484D02*
X770062Y-16592484D01*
X770062Y-16592484D02*
X751015Y-16582960D01*
X751015Y-16582960D02*
X741491Y-16573436D01*
X741491Y-16573436D02*
X731967Y-16554388D01*
X731967Y-16554388D02*
X722443Y-16516293D01*
X722443Y-16516293D02*
X722443Y-16468674D01*
X722443Y-16468674D02*
X731967Y-16430579D01*
X731967Y-16430579D02*
X741491Y-16411531D01*
X741491Y-16411531D02*
X751015Y-16402008D01*
X751015Y-16402008D02*
X770062Y-16392484D01*
X960539Y-16392484D02*
X979586Y-16392484D01*
X979586Y-16392484D02*
X998634Y-16402008D01*
X998634Y-16402008D02*
X1008158Y-16411531D01*
X1008158Y-16411531D02*
X1017682Y-16430579D01*
X1017682Y-16430579D02*
X1027205Y-16468674D01*
X1027205Y-16468674D02*
X1027205Y-16516293D01*
X1027205Y-16516293D02*
X1017682Y-16554388D01*
X1017682Y-16554388D02*
X1008158Y-16573436D01*
X1008158Y-16573436D02*
X998634Y-16582960D01*
X998634Y-16582960D02*
X979586Y-16592484D01*
X979586Y-16592484D02*
X960539Y-16592484D01*
X960539Y-16592484D02*
X941491Y-16582960D01*
X941491Y-16582960D02*
X931967Y-16573436D01*
X931967Y-16573436D02*
X922443Y-16554388D01*
X922443Y-16554388D02*
X912920Y-16516293D01*
X912920Y-16516293D02*
X912920Y-16468674D01*
X912920Y-16468674D02*
X922443Y-16430579D01*
X922443Y-16430579D02*
X931967Y-16411531D01*
X931967Y-16411531D02*
X941491Y-16402008D01*
X941491Y-16402008D02*
X960539Y-16392484D01*
X1112920Y-16592484D02*
X1112920Y-16459150D01*
X1112920Y-16478198D02*
X1122444Y-16468674D01*
X1122444Y-16468674D02*
X1141491Y-16459150D01*
X1141491Y-16459150D02*
X1170063Y-16459150D01*
X1170063Y-16459150D02*
X1189110Y-16468674D01*
X1189110Y-16468674D02*
X1198634Y-16487722D01*
X1198634Y-16487722D02*
X1198634Y-16592484D01*
X1198634Y-16487722D02*
X1208158Y-16468674D01*
X1208158Y-16468674D02*
X1227205Y-16459150D01*
X1227205Y-16459150D02*
X1255777Y-16459150D01*
X1255777Y-16459150D02*
X1274825Y-16468674D01*
X1274825Y-16468674D02*
X1284348Y-16487722D01*
X1284348Y-16487722D02*
X1284348Y-16592484D01*
X1379586Y-16592484D02*
X1379586Y-16459150D01*
X1379586Y-16478198D02*
X1389110Y-16468674D01*
X1389110Y-16468674D02*
X1408158Y-16459150D01*
X1408158Y-16459150D02*
X1436729Y-16459150D01*
X1436729Y-16459150D02*
X1455777Y-16468674D01*
X1455777Y-16468674D02*
X1465301Y-16487722D01*
X1465301Y-16487722D02*
X1465301Y-16592484D01*
X1465301Y-16487722D02*
X1474824Y-16468674D01*
X1474824Y-16468674D02*
X1493872Y-16459150D01*
X1493872Y-16459150D02*
X1522443Y-16459150D01*
X1522443Y-16459150D02*
X1541491Y-16468674D01*
X1541491Y-16468674D02*
X1551015Y-16487722D01*
X1551015Y-16487722D02*
X1551015Y-16592484D01*
X1941491Y-16382960D02*
X1770063Y-16640103D01*
X2198634Y-16392484D02*
X2217682Y-16392484D01*
X2217682Y-16392484D02*
X2236729Y-16402008D01*
X2236729Y-16402008D02*
X2246253Y-16411531D01*
X2246253Y-16411531D02*
X2255777Y-16430579D01*
X2255777Y-16430579D02*
X2265301Y-16468674D01*
X2265301Y-16468674D02*
X2265301Y-16516293D01*
X2265301Y-16516293D02*
X2255777Y-16554388D01*
X2255777Y-16554388D02*
X2246253Y-16573436D01*
X2246253Y-16573436D02*
X2236729Y-16582960D01*
X2236729Y-16582960D02*
X2217682Y-16592484D01*
X2217682Y-16592484D02*
X2198634Y-16592484D01*
X2198634Y-16592484D02*
X2179587Y-16582960D01*
X2179587Y-16582960D02*
X2170063Y-16573436D01*
X2170063Y-16573436D02*
X2160539Y-16554388D01*
X2160539Y-16554388D02*
X2151015Y-16516293D01*
X2151015Y-16516293D02*
X2151015Y-16468674D01*
X2151015Y-16468674D02*
X2160539Y-16430579D01*
X2160539Y-16430579D02*
X2170063Y-16411531D01*
X2170063Y-16411531D02*
X2179587Y-16402008D01*
X2179587Y-16402008D02*
X2198634Y-16392484D01*
X2351015Y-16573436D02*
X2360539Y-16582960D01*
X2360539Y-16582960D02*
X2351015Y-16592484D01*
X2351015Y-16592484D02*
X2341491Y-16582960D01*
X2341491Y-16582960D02*
X2351015Y-16573436D01*
X2351015Y-16573436D02*
X2351015Y-16592484D01*
X2551015Y-16592484D02*
X2436729Y-16592484D01*
X2493872Y-16592484D02*
X2493872Y-16392484D01*
X2493872Y-16392484D02*
X2474825Y-16421055D01*
X2474825Y-16421055D02*
X2455777Y-16440103D01*
X2455777Y-16440103D02*
X2436729Y-16449627D01*
X2627206Y-16411531D02*
X2636729Y-16402008D01*
X2636729Y-16402008D02*
X2655777Y-16392484D01*
X2655777Y-16392484D02*
X2703396Y-16392484D01*
X2703396Y-16392484D02*
X2722444Y-16402008D01*
X2722444Y-16402008D02*
X2731968Y-16411531D01*
X2731968Y-16411531D02*
X2741491Y-16430579D01*
X2741491Y-16430579D02*
X2741491Y-16449627D01*
X2741491Y-16449627D02*
X2731968Y-16478198D01*
X2731968Y-16478198D02*
X2617682Y-16592484D01*
X2617682Y-16592484D02*
X2741491Y-16592484D01*
X2912920Y-16392484D02*
X2874825Y-16392484D01*
X2874825Y-16392484D02*
X2855777Y-16402008D01*
X2855777Y-16402008D02*
X2846253Y-16411531D01*
X2846253Y-16411531D02*
X2827206Y-16440103D01*
X2827206Y-16440103D02*
X2817682Y-16478198D01*
X2817682Y-16478198D02*
X2817682Y-16554388D01*
X2817682Y-16554388D02*
X2827206Y-16573436D01*
X2827206Y-16573436D02*
X2836729Y-16582960D01*
X2836729Y-16582960D02*
X2855777Y-16592484D01*
X2855777Y-16592484D02*
X2893872Y-16592484D01*
X2893872Y-16592484D02*
X2912920Y-16582960D01*
X2912920Y-16582960D02*
X2922444Y-16573436D01*
X2922444Y-16573436D02*
X2931967Y-16554388D01*
X2931967Y-16554388D02*
X2931967Y-16506769D01*
X2931967Y-16506769D02*
X2922444Y-16487722D01*
X2922444Y-16487722D02*
X2912920Y-16478198D01*
X2912920Y-16478198D02*
X2893872Y-16468674D01*
X2893872Y-16468674D02*
X2855777Y-16468674D01*
X2855777Y-16468674D02*
X2836729Y-16478198D01*
X2836729Y-16478198D02*
X2827206Y-16487722D01*
X2827206Y-16487722D02*
X2817682Y-16506769D01*
X3055777Y-16392484D02*
X3074825Y-16392484D01*
X3074825Y-16392484D02*
X3093872Y-16402008D01*
X3093872Y-16402008D02*
X3103396Y-16411531D01*
X3103396Y-16411531D02*
X3112920Y-16430579D01*
X3112920Y-16430579D02*
X3122444Y-16468674D01*
X3122444Y-16468674D02*
X3122444Y-16516293D01*
X3122444Y-16516293D02*
X3112920Y-16554388D01*
X3112920Y-16554388D02*
X3103396Y-16573436D01*
X3103396Y-16573436D02*
X3093872Y-16582960D01*
X3093872Y-16582960D02*
X3074825Y-16592484D01*
X3074825Y-16592484D02*
X3055777Y-16592484D01*
X3055777Y-16592484D02*
X3036729Y-16582960D01*
X3036729Y-16582960D02*
X3027206Y-16573436D01*
X3027206Y-16573436D02*
X3017682Y-16554388D01*
X3017682Y-16554388D02*
X3008158Y-16516293D01*
X3008158Y-16516293D02*
X3008158Y-16468674D01*
X3008158Y-16468674D02*
X3017682Y-16430579D01*
X3017682Y-16430579D02*
X3027206Y-16411531D01*
X3027206Y-16411531D02*
X3036729Y-16402008D01*
X3036729Y-16402008D02*
X3055777Y-16392484D01*
X3198634Y-16392484D02*
X3198634Y-16430579D01*
X3274825Y-16392484D02*
X3274825Y-16430579D01*
X3570063Y-16668674D02*
X3560539Y-16659150D01*
X3560539Y-16659150D02*
X3541491Y-16630579D01*
X3541491Y-16630579D02*
X3531968Y-16611531D01*
X3531968Y-16611531D02*
X3522444Y-16582960D01*
X3522444Y-16582960D02*
X3512920Y-16535341D01*
X3512920Y-16535341D02*
X3512920Y-16497246D01*
X3512920Y-16497246D02*
X3522444Y-16449627D01*
X3522444Y-16449627D02*
X3531968Y-16421055D01*
X3531968Y-16421055D02*
X3541491Y-16402008D01*
X3541491Y-16402008D02*
X3560539Y-16373436D01*
X3560539Y-16373436D02*
X3570063Y-16363912D01*
X3751015Y-16592484D02*
X3636729Y-16592484D01*
X3693872Y-16592484D02*
X3693872Y-16392484D01*
X3693872Y-16392484D02*
X3674825Y-16421055D01*
X3674825Y-16421055D02*
X3655777Y-16440103D01*
X3655777Y-16440103D02*
X3636729Y-16449627D01*
X3922444Y-16392484D02*
X3884348Y-16392484D01*
X3884348Y-16392484D02*
X3865301Y-16402008D01*
X3865301Y-16402008D02*
X3855777Y-16411531D01*
X3855777Y-16411531D02*
X3836729Y-16440103D01*
X3836729Y-16440103D02*
X3827206Y-16478198D01*
X3827206Y-16478198D02*
X3827206Y-16554388D01*
X3827206Y-16554388D02*
X3836729Y-16573436D01*
X3836729Y-16573436D02*
X3846253Y-16582960D01*
X3846253Y-16582960D02*
X3865301Y-16592484D01*
X3865301Y-16592484D02*
X3903396Y-16592484D01*
X3903396Y-16592484D02*
X3922444Y-16582960D01*
X3922444Y-16582960D02*
X3931968Y-16573436D01*
X3931968Y-16573436D02*
X3941491Y-16554388D01*
X3941491Y-16554388D02*
X3941491Y-16506769D01*
X3941491Y-16506769D02*
X3931968Y-16487722D01*
X3931968Y-16487722D02*
X3922444Y-16478198D01*
X3922444Y-16478198D02*
X3903396Y-16468674D01*
X3903396Y-16468674D02*
X3865301Y-16468674D01*
X3865301Y-16468674D02*
X3846253Y-16478198D01*
X3846253Y-16478198D02*
X3836729Y-16487722D01*
X3836729Y-16487722D02*
X3827206Y-16506769D01*
X4179587Y-16592484D02*
X4179587Y-16392484D01*
X4265301Y-16592484D02*
X4265301Y-16487722D01*
X4265301Y-16487722D02*
X4255777Y-16468674D01*
X4255777Y-16468674D02*
X4236730Y-16459150D01*
X4236730Y-16459150D02*
X4208158Y-16459150D01*
X4208158Y-16459150D02*
X4189110Y-16468674D01*
X4189110Y-16468674D02*
X4179587Y-16478198D01*
X4389111Y-16592484D02*
X4370063Y-16582960D01*
X4370063Y-16582960D02*
X4360539Y-16573436D01*
X4360539Y-16573436D02*
X4351015Y-16554388D01*
X4351015Y-16554388D02*
X4351015Y-16497246D01*
X4351015Y-16497246D02*
X4360539Y-16478198D01*
X4360539Y-16478198D02*
X4370063Y-16468674D01*
X4370063Y-16468674D02*
X4389111Y-16459150D01*
X4389111Y-16459150D02*
X4417682Y-16459150D01*
X4417682Y-16459150D02*
X4436730Y-16468674D01*
X4436730Y-16468674D02*
X4446253Y-16478198D01*
X4446253Y-16478198D02*
X4455777Y-16497246D01*
X4455777Y-16497246D02*
X4455777Y-16554388D01*
X4455777Y-16554388D02*
X4446253Y-16573436D01*
X4446253Y-16573436D02*
X4436730Y-16582960D01*
X4436730Y-16582960D02*
X4417682Y-16592484D01*
X4417682Y-16592484D02*
X4389111Y-16592484D01*
X4570063Y-16592484D02*
X4551015Y-16582960D01*
X4551015Y-16582960D02*
X4541492Y-16563912D01*
X4541492Y-16563912D02*
X4541492Y-16392484D01*
X4722444Y-16582960D02*
X4703396Y-16592484D01*
X4703396Y-16592484D02*
X4665301Y-16592484D01*
X4665301Y-16592484D02*
X4646253Y-16582960D01*
X4646253Y-16582960D02*
X4636730Y-16563912D01*
X4636730Y-16563912D02*
X4636730Y-16487722D01*
X4636730Y-16487722D02*
X4646253Y-16468674D01*
X4646253Y-16468674D02*
X4665301Y-16459150D01*
X4665301Y-16459150D02*
X4703396Y-16459150D01*
X4703396Y-16459150D02*
X4722444Y-16468674D01*
X4722444Y-16468674D02*
X4731968Y-16487722D01*
X4731968Y-16487722D02*
X4731968Y-16506769D01*
X4731968Y-16506769D02*
X4636730Y-16525817D01*
X4808158Y-16582960D02*
X4827206Y-16592484D01*
X4827206Y-16592484D02*
X4865301Y-16592484D01*
X4865301Y-16592484D02*
X4884349Y-16582960D01*
X4884349Y-16582960D02*
X4893873Y-16563912D01*
X4893873Y-16563912D02*
X4893873Y-16554388D01*
X4893873Y-16554388D02*
X4884349Y-16535341D01*
X4884349Y-16535341D02*
X4865301Y-16525817D01*
X4865301Y-16525817D02*
X4836730Y-16525817D01*
X4836730Y-16525817D02*
X4817682Y-16516293D01*
X4817682Y-16516293D02*
X4808158Y-16497246D01*
X4808158Y-16497246D02*
X4808158Y-16487722D01*
X4808158Y-16487722D02*
X4817682Y-16468674D01*
X4817682Y-16468674D02*
X4836730Y-16459150D01*
X4836730Y-16459150D02*
X4865301Y-16459150D01*
X4865301Y-16459150D02*
X4884349Y-16468674D01*
X4960539Y-16668674D02*
X4970063Y-16659150D01*
X4970063Y-16659150D02*
X4989111Y-16630579D01*
X4989111Y-16630579D02*
X4998634Y-16611531D01*
X4998634Y-16611531D02*
X5008158Y-16582960D01*
X5008158Y-16582960D02*
X5017682Y-16535341D01*
X5017682Y-16535341D02*
X5017682Y-16497246D01*
X5017682Y-16497246D02*
X5008158Y-16449627D01*
X5008158Y-16449627D02*
X4998634Y-16421055D01*
X4998634Y-16421055D02*
X4989111Y-16402008D01*
X4989111Y-16402008D02*
X4970063Y-16373436D01*
X4970063Y-16373436D02*
X4960539Y-16363912D01*
X5322444Y-16668674D02*
X5312920Y-16659150D01*
X5312920Y-16659150D02*
X5293873Y-16630579D01*
X5293873Y-16630579D02*
X5284349Y-16611531D01*
X5284349Y-16611531D02*
X5274825Y-16582960D01*
X5274825Y-16582960D02*
X5265301Y-16535341D01*
X5265301Y-16535341D02*
X5265301Y-16497246D01*
X5265301Y-16497246D02*
X5274825Y-16449627D01*
X5274825Y-16449627D02*
X5284349Y-16421055D01*
X5284349Y-16421055D02*
X5293873Y-16402008D01*
X5293873Y-16402008D02*
X5312920Y-16373436D01*
X5312920Y-16373436D02*
X5322444Y-16363912D01*
X5398634Y-16459150D02*
X5398634Y-16592484D01*
X5398634Y-16478198D02*
X5408158Y-16468674D01*
X5408158Y-16468674D02*
X5427206Y-16459150D01*
X5427206Y-16459150D02*
X5455777Y-16459150D01*
X5455777Y-16459150D02*
X5474825Y-16468674D01*
X5474825Y-16468674D02*
X5484349Y-16487722D01*
X5484349Y-16487722D02*
X5484349Y-16592484D01*
X5608158Y-16592484D02*
X5589111Y-16582960D01*
X5589111Y-16582960D02*
X5579587Y-16573436D01*
X5579587Y-16573436D02*
X5570063Y-16554388D01*
X5570063Y-16554388D02*
X5570063Y-16497246D01*
X5570063Y-16497246D02*
X5579587Y-16478198D01*
X5579587Y-16478198D02*
X5589111Y-16468674D01*
X5589111Y-16468674D02*
X5608158Y-16459150D01*
X5608158Y-16459150D02*
X5636730Y-16459150D01*
X5636730Y-16459150D02*
X5655777Y-16468674D01*
X5655777Y-16468674D02*
X5665301Y-16478198D01*
X5665301Y-16478198D02*
X5674825Y-16497246D01*
X5674825Y-16497246D02*
X5674825Y-16554388D01*
X5674825Y-16554388D02*
X5665301Y-16573436D01*
X5665301Y-16573436D02*
X5655777Y-16582960D01*
X5655777Y-16582960D02*
X5636730Y-16592484D01*
X5636730Y-16592484D02*
X5608158Y-16592484D01*
X5731968Y-16459150D02*
X5808158Y-16459150D01*
X5760539Y-16392484D02*
X5760539Y-16563912D01*
X5760539Y-16563912D02*
X5770063Y-16582960D01*
X5770063Y-16582960D02*
X5789111Y-16592484D01*
X5789111Y-16592484D02*
X5808158Y-16592484D01*
X6027206Y-16459150D02*
X6027206Y-16659150D01*
X6027206Y-16468674D02*
X6046253Y-16459150D01*
X6046253Y-16459150D02*
X6084349Y-16459150D01*
X6084349Y-16459150D02*
X6103396Y-16468674D01*
X6103396Y-16468674D02*
X6112920Y-16478198D01*
X6112920Y-16478198D02*
X6122444Y-16497246D01*
X6122444Y-16497246D02*
X6122444Y-16554388D01*
X6122444Y-16554388D02*
X6112920Y-16573436D01*
X6112920Y-16573436D02*
X6103396Y-16582960D01*
X6103396Y-16582960D02*
X6084349Y-16592484D01*
X6084349Y-16592484D02*
X6046253Y-16592484D01*
X6046253Y-16592484D02*
X6027206Y-16582960D01*
X6236730Y-16592484D02*
X6217682Y-16582960D01*
X6217682Y-16582960D02*
X6208158Y-16563912D01*
X6208158Y-16563912D02*
X6208158Y-16392484D01*
X6398634Y-16592484D02*
X6398634Y-16487722D01*
X6398634Y-16487722D02*
X6389111Y-16468674D01*
X6389111Y-16468674D02*
X6370063Y-16459150D01*
X6370063Y-16459150D02*
X6331968Y-16459150D01*
X6331968Y-16459150D02*
X6312920Y-16468674D01*
X6398634Y-16582960D02*
X6379587Y-16592484D01*
X6379587Y-16592484D02*
X6331968Y-16592484D01*
X6331968Y-16592484D02*
X6312920Y-16582960D01*
X6312920Y-16582960D02*
X6303396Y-16563912D01*
X6303396Y-16563912D02*
X6303396Y-16544865D01*
X6303396Y-16544865D02*
X6312920Y-16525817D01*
X6312920Y-16525817D02*
X6331968Y-16516293D01*
X6331968Y-16516293D02*
X6379587Y-16516293D01*
X6379587Y-16516293D02*
X6398634Y-16506769D01*
X6465301Y-16459150D02*
X6541492Y-16459150D01*
X6493873Y-16392484D02*
X6493873Y-16563912D01*
X6493873Y-16563912D02*
X6503396Y-16582960D01*
X6503396Y-16582960D02*
X6522444Y-16592484D01*
X6522444Y-16592484D02*
X6541492Y-16592484D01*
X6684349Y-16582960D02*
X6665301Y-16592484D01*
X6665301Y-16592484D02*
X6627206Y-16592484D01*
X6627206Y-16592484D02*
X6608158Y-16582960D01*
X6608158Y-16582960D02*
X6598634Y-16563912D01*
X6598634Y-16563912D02*
X6598634Y-16487722D01*
X6598634Y-16487722D02*
X6608158Y-16468674D01*
X6608158Y-16468674D02*
X6627206Y-16459150D01*
X6627206Y-16459150D02*
X6665301Y-16459150D01*
X6665301Y-16459150D02*
X6684349Y-16468674D01*
X6684349Y-16468674D02*
X6693873Y-16487722D01*
X6693873Y-16487722D02*
X6693873Y-16506769D01*
X6693873Y-16506769D02*
X6598634Y-16525817D01*
X6865301Y-16592484D02*
X6865301Y-16392484D01*
X6865301Y-16582960D02*
X6846254Y-16592484D01*
X6846254Y-16592484D02*
X6808158Y-16592484D01*
X6808158Y-16592484D02*
X6789111Y-16582960D01*
X6789111Y-16582960D02*
X6779587Y-16573436D01*
X6779587Y-16573436D02*
X6770063Y-16554388D01*
X6770063Y-16554388D02*
X6770063Y-16497246D01*
X6770063Y-16497246D02*
X6779587Y-16478198D01*
X6779587Y-16478198D02*
X6789111Y-16468674D01*
X6789111Y-16468674D02*
X6808158Y-16459150D01*
X6808158Y-16459150D02*
X6846254Y-16459150D01*
X6846254Y-16459150D02*
X6865301Y-16468674D01*
X6941492Y-16668674D02*
X6951015Y-16659150D01*
X6951015Y-16659150D02*
X6970063Y-16630579D01*
X6970063Y-16630579D02*
X6979587Y-16611531D01*
X6979587Y-16611531D02*
X6989111Y-16582960D01*
X6989111Y-16582960D02*
X6998634Y-16535341D01*
X6998634Y-16535341D02*
X6998634Y-16497246D01*
X6998634Y-16497246D02*
X6989111Y-16449627D01*
X6989111Y-16449627D02*
X6979587Y-16421055D01*
X6979587Y-16421055D02*
X6970063Y-16402008D01*
X6970063Y-16402008D02*
X6951015Y-16373436D01*
X6951015Y-16373436D02*
X6941492Y-16363912D01*
M02*
