M48
; DRILL file KiCad 10.0.2 date 2026-05-17T22:33:00
; FORMAT={-:-/ absolute / metric / decimal}
; #@! TF.CreationDate,2026-05-17T22:33:00+02:00
; #@! TF.GenerationSoftware,Kicad,Pcbnew,10.0.2
; #@! TF.FileFunction,Plated,1,4,PTH
FMAT,2
METRIC
; #@! TA.AperFunction,Plated,PTH,ViaDrill
T1C0.300
; #@! TA.AperFunction,Plated,PTH,ComponentDrill
T2C0.600
; #@! TA.AperFunction,Plated,PTH,ComponentDrill
T3C1.000
%
G90
G05
T1
X0.8Y-45.8
X0.8Y-113.8
X1.4Y-55.1
X1.4Y-62.7
X1.4Y-123.1
X1.4Y-130.7
X4.0Y-71.6
X4.0Y-139.6
X5.7Y-65.5
X5.7Y-133.5
X7.3Y-35.2
X7.3Y-64.8
X7.3Y-103.2
X7.3Y-132.8
X7.4Y-56.7
X7.4Y-124.7
X7.5Y-8.0
X7.5Y-76.0
X7.544Y-24.0
X7.544Y-92.0
X8.0Y-14.1
X8.0Y-16.4
X8.0Y-31.6
X8.0Y-82.1
X8.0Y-84.4
X8.0Y-99.6
X9.9Y-57.5
X9.9Y-62.2
X9.9Y-125.5
X9.9Y-130.2
X10.54Y-13.6
X10.54Y-34.2
X10.54Y-81.6
X10.54Y-102.2
X11.6Y-71.6
X11.6Y-139.6
X11.95Y-13.65
X11.95Y-81.65
X12.8Y-35.7
X12.8Y-103.7
X13.0Y-42.1
X13.0Y-110.1
X13.1Y-12.9
X13.1Y-80.9
X13.3Y-37.3
X13.3Y-105.3
X13.5Y-25.5
X13.5Y-93.5
X14.3Y-13.7
X14.3Y-81.7
X15.1Y-13.1
X15.1Y-81.1
X15.5Y-37.3
X15.5Y-39.1
X15.5Y-105.3
X15.5Y-107.1
X15.6Y-34.2
X15.6Y-102.2
X15.7Y-23.3
X15.7Y-27.7
X15.7Y-91.3
X15.7Y-95.7
X16.2Y-46.838
X16.2Y-114.838
X16.9Y-13.6
X16.9Y-81.6
X17.7Y-36.05
X17.7Y-104.05
X17.9Y-25.5
X17.9Y-93.5
X18.698Y-44.298
X18.698Y-112.298
X19.4Y-34.2
X19.4Y-102.2
X19.5Y-44.3
X19.5Y-112.3
X19.8Y-8.0
X19.8Y-76.0
X19.85Y-70.15
X19.85Y-138.15
X20.1Y-35.0
X20.1Y-103.0
X20.3Y-46.838
X20.3Y-114.838
X20.35Y-41.75
X20.35Y-109.75
X22.1Y-35.5
X22.1Y-103.5
X23.5Y-35.8
X23.5Y-103.8
X23.85Y-31.35
X23.85Y-99.35
X24.15Y-16.9
X24.15Y-84.9
X24.7Y-60.4
X24.7Y-65.2
X24.7Y-128.4
X24.7Y-133.2
X26.1Y-50.5
X26.1Y-118.5
X26.8Y-35.3
X26.8Y-103.3
X27.3Y-19.5
X27.3Y-31.3
X27.3Y-87.5
X27.3Y-99.3
X27.344Y-35.953
X27.344Y-103.953
X27.5Y-16.5
X27.5Y-84.5
X28.2Y-27.7
X28.2Y-36.15
X28.2Y-95.7
X28.2Y-104.15
X28.6Y-26.7
X28.6Y-94.7
X28.8Y-19.7
X28.8Y-87.7
X29.3Y-37.5
X29.3Y-105.5
X29.4Y-8.0
X29.4Y-57.49
X29.4Y-76.0
X29.4Y-125.49
X29.7Y-65.2
X29.7Y-133.2
X30.0Y-19.9
X30.0Y-87.9
X30.4Y-32.0
X30.4Y-100.0
X30.7Y-17.0
X30.7Y-85.0
X30.8Y-18.6
X30.8Y-86.6
X30.9Y-37.5
X30.9Y-105.5
X31.3Y-17.9
X31.3Y-85.9
X31.4Y-41.9
X31.4Y-43.7
X31.4Y-109.9
X31.4Y-111.7
X31.9Y-57.49
X31.9Y-125.49
X32.3Y-53.5
X32.3Y-121.5
X32.8Y-23.581
X32.8Y-91.581
X33.3Y-54.5
X33.3Y-122.5
X33.6Y-13.975
X33.6Y-81.975
X34.9Y-71.3
X34.9Y-139.3
X38.0Y-68.3
X38.0Y-136.3
X38.7Y-71.6
X38.7Y-139.6
X39.1Y-65.2
X39.1Y-133.2
X39.2Y-45.6
X39.2Y-113.6
X39.3Y-48.475
X39.3Y-116.475
X39.715Y-71.8
X39.715Y-139.8
X39.75Y-23.65
X39.75Y-91.65
X39.8Y-21.9
X39.8Y-89.9
X40.0Y-8.0
X40.0Y-76.0
X40.1Y-50.925
X40.1Y-118.925
X40.5Y-28.0
X40.5Y-96.0
X41.0Y-45.6
X41.0Y-113.6
X42.2Y-21.6
X42.2Y-89.6
X42.3Y-19.5
X42.3Y-87.5
X42.8Y-36.9
X42.8Y-104.9
X44.15Y-13.95
X44.15Y-81.95
X45.1Y-28.8
X45.1Y-96.8
X46.0Y-25.9
X46.0Y-93.9
X46.4Y-22.225
X46.4Y-90.225
X46.5Y-48.475
X46.5Y-57.15
X46.5Y-116.475
X46.5Y-125.15
X46.55Y-58.55
X46.55Y-126.55
X46.963Y-25.891
X46.963Y-93.891
X47.075Y-50.925
X47.075Y-118.925
X47.275Y-71.575
X47.275Y-139.575
X47.92Y-27.3
X47.92Y-95.3
X48.1Y-14.7
X48.1Y-82.7
X48.9Y-25.225
X48.9Y-27.3
X48.9Y-93.225
X48.9Y-95.3
X49.941Y-26.49
X49.941Y-94.49
X49.945Y-25.592
X49.945Y-93.592
X50.0Y-8.0
X50.0Y-76.0
X51.0Y-17.4
X51.0Y-85.4
X51.0Y-19.98
X51.0Y-87.98
X51.35Y-41.05
X51.35Y-109.05
X51.4Y-38.6
X51.4Y-39.8
X51.4Y-106.6
X51.4Y-107.8
X51.8Y-10.6
X51.8Y-78.6
X52.6Y-11.8
X52.6Y-79.8
X53.0Y-14.6
X53.0Y-82.6
X53.39Y-11.655
X53.39Y-79.655
X53.5Y-33.1
X53.5Y-101.1
X53.525Y-18.3
X53.525Y-86.3
X55.0Y-51.6
X55.0Y-52.5
X55.0Y-119.6
X55.0Y-120.5
X55.1Y-57.3
X55.1Y-125.3
X57.5Y-10.0
X57.5Y-78.0
X60.0Y-72.2
X60.0Y-140.2
X66.9Y-19.7
X66.9Y-87.7
X66.95Y-15.1
X66.95Y-83.1
X67.5Y-8.0
X67.5Y-76.0
X69.2Y-30.7
X69.2Y-98.7
X70.2Y-71.575
X70.2Y-139.575
X74.7Y-30.7
X74.7Y-98.7
X76.675Y-71.575
X76.675Y-139.575
X77.5Y-8.0
X77.5Y-76.0
X79.2Y-44.7
X79.2Y-112.7
X80.0Y-72.0
X80.0Y-140.0
X80.6Y-26.2
X80.6Y-94.2
X81.355Y-51.0
X81.355Y-119.0
X83.4Y-44.7
X83.4Y-112.7
X84.2Y-23.9
X84.2Y-91.9
X84.3Y-21.5
X84.3Y-89.5
X84.45Y-15.15
X84.45Y-83.15
X85.782Y-49.538
X85.782Y-117.538
X85.9Y-20.8
X85.9Y-88.8
X86.0Y-19.9
X86.0Y-87.9
X88.5Y-63.0
X88.5Y-131.0
X88.7Y-71.6
X88.7Y-139.6
X89.0Y-10.1
X89.0Y-78.1
X89.8Y-17.13
X89.8Y-85.13
X89.975Y-24.2
X89.975Y-28.0
X89.975Y-92.2
X89.975Y-96.0
X90.2Y-54.2
X90.2Y-122.2
X90.3Y-65.4
X90.3Y-133.4
X90.7Y-18.4
X90.7Y-86.4
X90.78Y-59.38
X90.78Y-127.38
X90.9Y-21.85
X90.9Y-22.65
X90.9Y-89.85
X90.9Y-90.65
X91.2Y-34.1
X91.2Y-102.1
X91.25Y-16.15
X91.25Y-84.15
X91.4Y-29.5
X91.4Y-97.5
X91.5Y-16.95
X91.5Y-84.95
X91.7Y-21.85
X91.7Y-89.85
X91.98Y-64.7
X91.98Y-132.7
X92.4Y-60.9
X92.4Y-128.9
X93.7Y-29.7
X93.7Y-30.5
X93.7Y-33.3
X93.7Y-34.2
X93.7Y-97.7
X93.7Y-98.5
X93.7Y-101.3
X93.7Y-102.2
X94.182Y-20.73
X94.182Y-88.73
X94.2Y-17.65
X94.2Y-85.65
X94.3Y-25.8
X94.3Y-93.8
X94.7Y-26.5
X94.7Y-94.5
X96.3Y-71.6
X96.3Y-139.6
X98.6Y-55.0
X98.6Y-62.6
X98.6Y-123.0
X98.6Y-130.6
X99.0Y-38.5
X99.0Y-49.0
X99.0Y-106.5
X99.0Y-117.0
X103.8Y-45.8
X103.8Y-113.8
X104.4Y-55.1
X104.4Y-62.7
X104.4Y-123.1
X104.4Y-130.7
X107.0Y-71.6
X107.0Y-139.6
X108.7Y-65.5
X108.7Y-133.5
X110.3Y-35.2
X110.3Y-64.8
X110.3Y-103.2
X110.3Y-132.8
X110.4Y-56.7
X110.4Y-124.7
X110.5Y-8.0
X110.5Y-76.0
X110.544Y-24.0
X110.544Y-92.0
X111.0Y-14.1
X111.0Y-16.4
X111.0Y-31.6
X111.0Y-82.1
X111.0Y-84.4
X111.0Y-99.6
X112.9Y-57.5
X112.9Y-62.2
X112.9Y-125.5
X112.9Y-130.2
X113.54Y-13.6
X113.54Y-34.2
X113.54Y-81.6
X113.54Y-102.2
X114.6Y-71.6
X114.6Y-139.6
X114.95Y-13.65
X114.95Y-81.65
X115.8Y-35.7
X115.8Y-103.7
X116.0Y-42.1
X116.0Y-110.1
X116.1Y-12.9
X116.1Y-80.9
X116.3Y-37.3
X116.3Y-105.3
X116.5Y-25.5
X116.5Y-93.5
X117.3Y-13.7
X117.3Y-81.7
X118.1Y-13.1
X118.1Y-81.1
X118.5Y-37.3
X118.5Y-39.1
X118.5Y-105.3
X118.5Y-107.1
X118.6Y-34.2
X118.6Y-102.2
X118.7Y-23.3
X118.7Y-27.7
X118.7Y-91.3
X118.7Y-95.7
X119.2Y-46.838
X119.2Y-114.838
X119.9Y-13.6
X119.9Y-81.6
X120.7Y-36.05
X120.7Y-104.05
X120.9Y-25.5
X120.9Y-93.5
X121.698Y-44.298
X121.698Y-112.298
X122.4Y-34.2
X122.4Y-102.2
X122.5Y-44.3
X122.5Y-112.3
X122.8Y-8.0
X122.8Y-76.0
X122.85Y-70.15
X122.85Y-138.15
X123.1Y-35.0
X123.1Y-103.0
X123.3Y-46.838
X123.3Y-114.838
X123.35Y-41.75
X123.35Y-109.75
X125.1Y-35.5
X125.1Y-103.5
X126.5Y-35.8
X126.5Y-103.8
X126.85Y-31.35
X126.85Y-99.35
X127.15Y-16.9
X127.15Y-84.9
X127.7Y-60.4
X127.7Y-65.2
X127.7Y-128.4
X127.7Y-133.2
X129.1Y-50.5
X129.1Y-118.5
X129.8Y-35.3
X129.8Y-103.3
X130.3Y-19.5
X130.3Y-31.3
X130.3Y-87.5
X130.3Y-99.3
X130.344Y-35.953
X130.344Y-103.953
X130.5Y-16.5
X130.5Y-84.5
X131.2Y-27.7
X131.2Y-36.15
X131.2Y-95.7
X131.2Y-104.15
X131.6Y-26.7
X131.6Y-94.7
X131.8Y-19.7
X131.8Y-87.7
X132.3Y-37.5
X132.3Y-105.5
X132.4Y-8.0
X132.4Y-57.49
X132.4Y-76.0
X132.4Y-125.49
X132.7Y-65.2
X132.7Y-133.2
X133.0Y-19.9
X133.0Y-87.9
X133.4Y-32.0
X133.4Y-100.0
X133.7Y-17.0
X133.7Y-85.0
X133.8Y-18.6
X133.8Y-86.6
X133.9Y-37.5
X133.9Y-105.5
X134.3Y-17.9
X134.3Y-85.9
X134.4Y-41.9
X134.4Y-43.7
X134.4Y-109.9
X134.4Y-111.7
X134.9Y-57.49
X134.9Y-125.49
X135.3Y-53.5
X135.3Y-121.5
X135.8Y-23.581
X135.8Y-91.581
X136.3Y-54.5
X136.3Y-122.5
X136.6Y-13.975
X136.6Y-81.975
X137.9Y-71.3
X137.9Y-139.3
X141.0Y-68.3
X141.0Y-136.3
X141.7Y-71.6
X141.7Y-139.6
X142.1Y-65.2
X142.1Y-133.2
X142.2Y-45.6
X142.2Y-113.6
X142.3Y-48.475
X142.3Y-116.475
X142.715Y-71.8
X142.715Y-139.8
X142.75Y-23.65
X142.75Y-91.65
X142.8Y-21.9
X142.8Y-89.9
X143.0Y-8.0
X143.0Y-76.0
X143.1Y-50.925
X143.1Y-118.925
X143.5Y-28.0
X143.5Y-96.0
X144.0Y-45.6
X144.0Y-113.6
X145.2Y-21.6
X145.2Y-89.6
X145.3Y-19.5
X145.3Y-87.5
X145.8Y-36.9
X145.8Y-104.9
X147.15Y-13.95
X147.15Y-81.95
X148.1Y-28.8
X148.1Y-96.8
X149.0Y-25.9
X149.0Y-93.9
X149.4Y-22.225
X149.4Y-90.225
X149.5Y-48.475
X149.5Y-57.15
X149.5Y-116.475
X149.5Y-125.15
X149.55Y-58.55
X149.55Y-126.55
X149.963Y-25.891
X149.963Y-93.891
X150.075Y-50.925
X150.075Y-118.925
X150.275Y-71.575
X150.275Y-139.575
X150.92Y-27.3
X150.92Y-95.3
X151.1Y-14.7
X151.1Y-82.7
X151.9Y-25.225
X151.9Y-27.3
X151.9Y-93.225
X151.9Y-95.3
X152.941Y-26.49
X152.941Y-94.49
X152.945Y-25.592
X152.945Y-93.592
X153.0Y-8.0
X153.0Y-76.0
X154.0Y-17.4
X154.0Y-85.4
X154.0Y-19.98
X154.0Y-87.98
X154.35Y-41.05
X154.35Y-109.05
X154.4Y-38.6
X154.4Y-39.8
X154.4Y-106.6
X154.4Y-107.8
X154.8Y-10.6
X154.8Y-78.6
X155.6Y-11.8
X155.6Y-79.8
X156.0Y-14.6
X156.0Y-82.6
X156.39Y-11.655
X156.39Y-79.655
X156.5Y-33.1
X156.5Y-101.1
X156.525Y-18.3
X156.525Y-86.3
X158.0Y-51.6
X158.0Y-52.5
X158.0Y-119.6
X158.0Y-120.5
X158.1Y-57.3
X158.1Y-125.3
X160.5Y-10.0
X160.5Y-78.0
X163.0Y-72.2
X163.0Y-140.2
X169.9Y-19.7
X169.9Y-87.7
X169.95Y-15.1
X169.95Y-83.1
X170.5Y-8.0
X170.5Y-76.0
X172.2Y-30.7
X172.2Y-98.7
X173.2Y-71.575
X173.2Y-139.575
X177.7Y-30.7
X177.7Y-98.7
X179.675Y-71.575
X179.675Y-139.575
X180.5Y-8.0
X180.5Y-76.0
X182.2Y-44.7
X182.2Y-112.7
X183.0Y-72.0
X183.0Y-140.0
X183.6Y-26.2
X183.6Y-94.2
X184.355Y-51.0
X184.355Y-119.0
X186.4Y-44.7
X186.4Y-112.7
X187.2Y-23.9
X187.2Y-91.9
X187.3Y-21.5
X187.3Y-89.5
X187.45Y-15.15
X187.45Y-83.15
X188.782Y-49.538
X188.782Y-117.538
X188.9Y-20.8
X188.9Y-88.8
X189.0Y-19.9
X189.0Y-87.9
X191.5Y-63.0
X191.5Y-131.0
X191.7Y-71.6
X191.7Y-139.6
X192.0Y-10.1
X192.0Y-78.1
X192.8Y-17.13
X192.8Y-85.13
X192.975Y-24.2
X192.975Y-28.0
X192.975Y-92.2
X192.975Y-96.0
X193.2Y-54.2
X193.2Y-122.2
X193.3Y-65.4
X193.3Y-133.4
X193.7Y-18.4
X193.7Y-86.4
X193.78Y-59.38
X193.78Y-127.38
X193.9Y-21.85
X193.9Y-22.65
X193.9Y-89.85
X193.9Y-90.65
X194.2Y-34.1
X194.2Y-102.1
X194.25Y-16.15
X194.25Y-84.15
X194.4Y-29.5
X194.4Y-97.5
X194.5Y-16.95
X194.5Y-84.95
X194.7Y-21.85
X194.7Y-89.85
X194.98Y-64.7
X194.98Y-132.7
X195.4Y-60.9
X195.4Y-128.9
X196.7Y-29.7
X196.7Y-30.5
X196.7Y-33.3
X196.7Y-34.2
X196.7Y-97.7
X196.7Y-98.5
X196.7Y-101.3
X196.7Y-102.2
X197.182Y-20.73
X197.182Y-88.73
X197.2Y-17.65
X197.2Y-85.65
X197.3Y-25.8
X197.3Y-93.8
X197.7Y-26.5
X197.7Y-94.5
X199.3Y-71.6
X199.3Y-139.6
X201.6Y-55.0
X201.6Y-62.6
X201.6Y-123.0
X201.6Y-130.6
X202.0Y-38.5
X202.0Y-49.0
X202.0Y-106.5
X202.0Y-117.0
T3
X9.4Y-38.675
X9.4Y-41.215
X9.4Y-43.755
X9.4Y-46.295
X9.4Y-48.835
X9.4Y-51.375
X9.4Y-106.675
X9.4Y-109.215
X9.4Y-111.755
X9.4Y-114.295
X9.4Y-116.835
X9.4Y-119.375
X13.8Y-54.28
X13.8Y-56.82
X13.8Y-59.36
X13.8Y-61.9
X13.8Y-122.28
X13.8Y-124.82
X13.8Y-127.36
X13.8Y-129.9
X47.6Y-40.5
X47.6Y-108.5
X52.5Y-61.0
X52.5Y-63.54
X52.5Y-129.0
X52.5Y-131.54
X55.04Y-61.0
X55.04Y-63.54
X55.04Y-129.0
X55.04Y-131.54
X57.58Y-61.0
X57.58Y-63.54
X57.58Y-129.0
X57.58Y-131.54
X60.12Y-61.0
X60.12Y-63.54
X60.12Y-129.0
X60.12Y-131.54
X62.66Y-61.0
X62.66Y-63.54
X62.66Y-129.0
X62.66Y-131.54
X65.2Y-61.0
X65.2Y-63.54
X65.2Y-129.0
X65.2Y-131.54
X65.3Y-29.5
X65.3Y-97.5
X78.7Y-29.5
X78.7Y-97.5
X86.0Y-54.3
X86.0Y-56.84
X86.0Y-59.38
X86.0Y-61.92
X86.0Y-122.3
X86.0Y-124.84
X86.0Y-127.38
X86.0Y-129.92
X90.5Y-38.7
X90.5Y-41.24
X90.5Y-43.78
X90.5Y-46.32
X90.5Y-48.86
X90.5Y-51.4
X90.5Y-106.7
X90.5Y-109.24
X90.5Y-111.78
X90.5Y-114.32
X90.5Y-116.86
X90.5Y-119.4
X112.4Y-38.675
X112.4Y-41.215
X112.4Y-43.755
X112.4Y-46.295
X112.4Y-48.835
X112.4Y-51.375
X112.4Y-106.675
X112.4Y-109.215
X112.4Y-111.755
X112.4Y-114.295
X112.4Y-116.835
X112.4Y-119.375
X116.8Y-54.28
X116.8Y-56.82
X116.8Y-59.36
X116.8Y-61.9
X116.8Y-122.28
X116.8Y-124.82
X116.8Y-127.36
X116.8Y-129.9
X150.6Y-40.5
X150.6Y-108.5
X155.5Y-61.0
X155.5Y-63.54
X155.5Y-129.0
X155.5Y-131.54
X158.04Y-61.0
X158.04Y-63.54
X158.04Y-129.0
X158.04Y-131.54
X160.58Y-61.0
X160.58Y-63.54
X160.58Y-129.0
X160.58Y-131.54
X163.12Y-61.0
X163.12Y-63.54
X163.12Y-129.0
X163.12Y-131.54
X165.66Y-61.0
X165.66Y-63.54
X165.66Y-129.0
X165.66Y-131.54
X168.2Y-61.0
X168.2Y-63.54
X168.2Y-129.0
X168.2Y-131.54
X168.3Y-29.5
X168.3Y-97.5
X181.7Y-29.5
X181.7Y-97.5
X189.0Y-54.3
X189.0Y-56.84
X189.0Y-59.38
X189.0Y-61.92
X189.0Y-122.3
X189.0Y-124.84
X189.0Y-127.38
X189.0Y-129.92
X193.5Y-38.7
X193.5Y-41.24
X193.5Y-43.78
X193.5Y-46.32
X193.5Y-48.86
X193.5Y-51.4
X193.5Y-106.7
X193.5Y-109.24
X193.5Y-111.78
X193.5Y-114.32
X193.5Y-116.86
X193.5Y-119.4
T2
X93.22Y-15.08G85X94.32Y-15.08
G05
X93.22Y-23.72G85X94.32Y-23.72
G05
X93.22Y-83.08G85X94.32Y-83.08
G05
X93.22Y-91.72G85X94.32Y-91.72
G05
X95.15Y-28.325G85X94.45Y-28.325
G05
X95.15Y-35.475G85X94.45Y-35.475
G05
X95.15Y-96.325G85X94.45Y-96.325
G05
X95.15Y-103.475G85X94.45Y-103.475
G05
X97.65Y-15.08G85X98.25Y-15.08
G05
X97.65Y-23.72G85X98.25Y-23.72
G05
X97.65Y-83.08G85X98.25Y-83.08
G05
X97.65Y-91.72G85X98.25Y-91.72
G05
X98.5Y-28.325G85X97.9Y-28.325
G05
X98.5Y-35.475G85X97.9Y-35.475
G05
X98.5Y-96.325G85X97.9Y-96.325
G05
X98.5Y-103.475G85X97.9Y-103.475
G05
X196.22Y-15.08G85X197.32Y-15.08
G05
X196.22Y-23.72G85X197.32Y-23.72
G05
X196.22Y-83.08G85X197.32Y-83.08
G05
X196.22Y-91.72G85X197.32Y-91.72
G05
X198.15Y-28.325G85X197.45Y-28.325
G05
X198.15Y-35.475G85X197.45Y-35.475
G05
X198.15Y-96.325G85X197.45Y-96.325
G05
X198.15Y-103.475G85X197.45Y-103.475
G05
X200.65Y-15.08G85X201.25Y-15.08
G05
X200.65Y-23.72G85X201.25Y-23.72
G05
X200.65Y-83.08G85X201.25Y-83.08
G05
X200.65Y-91.72G85X201.25Y-91.72
G05
X201.5Y-28.325G85X200.9Y-28.325
G05
X201.5Y-35.475G85X200.9Y-35.475
G05
X201.5Y-96.325G85X200.9Y-96.325
G05
X201.5Y-103.475G85X200.9Y-103.475
G05
M30
