G04 #@! TF.GenerationSoftware,KiCad,Pcbnew,10.0.2*
G04 #@! TF.CreationDate,2026-05-17T22:33:00+02:00*
G04 #@! TF.ProjectId,kik_panel,6b696b5f-7061-46e6-956c-2e6b69636164,rev?*
G04 #@! TF.SameCoordinates,Original*
G04 #@! TF.FileFunction,Paste,Top*
G04 #@! TF.FilePolarity,Positive*
%FSLAX46Y46*%
G04 Gerber Fmt 4.6, Leading zero omitted, Abs format (unit mm)*
G04 Created by KiCad (PCBNEW 10.0.2) date 2026-05-17 22:33:00*
%MOMM*%
%LPD*%
G01*
G04 APERTURE LIST*
G04 Aperture macros list*
%AMRoundRect*
0 Rectangle with rounded corners*
0 $1 Rounding radius*
0 $2 $3 $4 $5 $6 $7 $8 $9 X,Y pos of 4 corners*
0 Add a 4 corners polygon primitive as box body*
4,1,4,$2,$3,$4,$5,$6,$7,$8,$9,$2,$3,0*
0 Add four circle primitives for the rounded corners*
1,1,$1+$1,$2,$3*
1,1,$1+$1,$4,$5*
1,1,$1+$1,$6,$7*
1,1,$1+$1,$8,$9*
0 Add four rect primitives between the rounded corners*
20,1,$1+$1,$2,$3,$4,$5,0*
20,1,$1+$1,$4,$5,$6,$7,0*
20,1,$1+$1,$6,$7,$8,$9,0*
20,1,$1+$1,$8,$9,$2,$3,0*%
G04 Aperture macros list end*
%ADD10RoundRect,0.140000X0.140000X0.170000X-0.140000X0.170000X-0.140000X-0.170000X0.140000X-0.170000X0*%
%ADD11RoundRect,0.060000X1.015000X0.140000X-1.015000X0.140000X-1.015000X-0.140000X1.015000X-0.140000X0*%
%ADD12O,2.000000X1.000000*%
%ADD13RoundRect,0.250000X-0.475000X0.250000X-0.475000X-0.250000X0.475000X-0.250000X0.475000X0.250000X0*%
%ADD14RoundRect,0.135000X-0.185000X0.135000X-0.185000X-0.135000X0.185000X-0.135000X0.185000X0.135000X0*%
%ADD15RoundRect,0.140000X-0.170000X0.140000X-0.170000X-0.140000X0.170000X-0.140000X0.170000X0.140000X0*%
%ADD16RoundRect,0.150000X0.200000X-0.150000X0.200000X0.150000X-0.200000X0.150000X-0.200000X-0.150000X0*%
%ADD17RoundRect,0.135000X-0.135000X-0.185000X0.135000X-0.185000X0.135000X0.185000X-0.135000X0.185000X0*%
%ADD18RoundRect,0.250000X1.500000X0.550000X-1.500000X0.550000X-1.500000X-0.550000X1.500000X-0.550000X0*%
%ADD19RoundRect,0.250000X-0.262500X-0.450000X0.262500X-0.450000X0.262500X0.450000X-0.262500X0.450000X0*%
%ADD20RoundRect,0.150000X-0.200000X0.150000X-0.200000X-0.150000X0.200000X-0.150000X0.200000X0.150000X0*%
%ADD21RoundRect,0.135000X0.185000X-0.135000X0.185000X0.135000X-0.185000X0.135000X-0.185000X-0.135000X0*%
%ADD22R,0.800000X0.500000*%
%ADD23R,0.800000X0.400000*%
%ADD24RoundRect,0.250000X-0.900000X1.000000X-0.900000X-1.000000X0.900000X-1.000000X0.900000X1.000000X0*%
%ADD25RoundRect,0.135000X0.135000X0.185000X-0.135000X0.185000X-0.135000X-0.185000X0.135000X-0.185000X0*%
%ADD26RoundRect,0.150000X-0.587500X-0.150000X0.587500X-0.150000X0.587500X0.150000X-0.587500X0.150000X0*%
%ADD27RoundRect,0.140000X-0.140000X-0.170000X0.140000X-0.170000X0.140000X0.170000X-0.140000X0.170000X0*%
%ADD28RoundRect,0.225000X0.225000X-0.225000X0.225000X0.225000X-0.225000X0.225000X-0.225000X-0.225000X0*%
%ADD29RoundRect,0.062500X0.062500X-0.337500X0.062500X0.337500X-0.062500X0.337500X-0.062500X-0.337500X0*%
%ADD30RoundRect,0.062500X0.337500X-0.062500X0.337500X0.062500X-0.337500X0.062500X-0.337500X-0.062500X0*%
%ADD31R,1.250000X0.850000*%
%ADD32RoundRect,0.375000X-0.375000X0.625000X-0.375000X-0.625000X0.375000X-0.625000X0.375000X0.625000X0*%
%ADD33RoundRect,0.500000X-1.400000X0.500000X-1.400000X-0.500000X1.400000X-0.500000X1.400000X0.500000X0*%
%ADD34RoundRect,0.250000X-0.250000X-0.475000X0.250000X-0.475000X0.250000X0.475000X-0.250000X0.475000X0*%
%ADD35RoundRect,0.100000X0.350000X-0.650000X0.350000X0.650000X-0.350000X0.650000X-0.350000X-0.650000X0*%
%ADD36RoundRect,0.100000X-0.650000X-0.350000X0.650000X-0.350000X0.650000X0.350000X-0.650000X0.350000X0*%
%ADD37RoundRect,0.100000X0.350000X-0.350000X0.350000X0.350000X-0.350000X0.350000X-0.350000X-0.350000X0*%
%ADD38RoundRect,0.140000X0.170000X-0.140000X0.170000X0.140000X-0.170000X0.140000X-0.170000X-0.140000X0*%
%ADD39RoundRect,0.218750X0.218750X0.256250X-0.218750X0.256250X-0.218750X-0.256250X0.218750X-0.256250X0*%
%ADD40RoundRect,0.150000X-0.150000X0.587500X-0.150000X-0.587500X0.150000X-0.587500X0.150000X0.587500X0*%
%ADD41R,1.500000X3.500000*%
%ADD42R,1.450000X0.600000*%
%ADD43R,1.450000X0.300000*%
%ADD44O,2.300000X1.100000*%
%ADD45O,1.800000X1.100000*%
%ADD46RoundRect,0.150000X-0.150000X-0.625000X0.150000X-0.625000X0.150000X0.625000X-0.150000X0.625000X0*%
%ADD47RoundRect,0.250000X-0.350000X-0.650000X0.350000X-0.650000X0.350000X0.650000X-0.350000X0.650000X0*%
%ADD48R,3.200000X1.100000*%
%ADD49RoundRect,0.150000X-0.625000X0.150000X-0.625000X-0.150000X0.625000X-0.150000X0.625000X0.150000X0*%
%ADD50RoundRect,0.250000X-0.650000X0.350000X-0.650000X-0.350000X0.650000X-0.350000X0.650000X0.350000X0*%
%ADD51R,1.100000X3.200000*%
%ADD52RoundRect,0.218750X-0.218750X-0.256250X0.218750X-0.256250X0.218750X0.256250X-0.218750X0.256250X0*%
%ADD53R,0.500000X0.800000*%
%ADD54R,0.400000X0.800000*%
%ADD55R,0.850000X0.750000*%
%ADD56RoundRect,0.150000X0.587500X0.150000X-0.587500X0.150000X-0.587500X-0.150000X0.587500X-0.150000X0*%
%ADD57RoundRect,0.250000X0.250000X0.475000X-0.250000X0.475000X-0.250000X-0.475000X0.250000X-0.475000X0*%
%ADD58RoundRect,0.150000X0.625000X-0.150000X0.625000X0.150000X-0.625000X0.150000X-0.625000X-0.150000X0*%
%ADD59RoundRect,0.250000X0.650000X-0.350000X0.650000X0.350000X-0.650000X0.350000X-0.650000X-0.350000X0*%
%ADD60RoundRect,0.250000X-0.450000X0.262500X-0.450000X-0.262500X0.450000X-0.262500X0.450000X0.262500X0*%
G04 APERTURE END LIST*
D10*
G04 #@! TO.C,C12*
X110280000Y-133500000D03*
X109320000Y-133500000D03*
G04 #@! TD*
D11*
G04 #@! TO.C,J11*
X95150000Y-101200000D03*
X95150000Y-100550000D03*
X95150000Y-99900000D03*
X95150000Y-99250000D03*
X95150000Y-98600000D03*
D12*
X94800000Y-103475000D03*
X98200000Y-103475000D03*
X94800000Y-96325000D03*
X98200000Y-96325000D03*
G04 #@! TD*
D13*
G04 #@! TO.C,C4*
X192975000Y-25150000D03*
X192975000Y-27050000D03*
G04 #@! TD*
D10*
G04 #@! TO.C,C20*
X111960000Y-35200000D03*
X111000000Y-35200000D03*
G04 #@! TD*
D13*
G04 #@! TO.C,C5*
X47250000Y-43850000D03*
X47250000Y-45750000D03*
G04 #@! TD*
G04 #@! TO.C,C5*
X150250000Y-43850000D03*
X150250000Y-45750000D03*
G04 #@! TD*
D14*
G04 #@! TO.C,R21*
X29300000Y-121990000D03*
X29300000Y-123010000D03*
G04 #@! TD*
D10*
G04 #@! TO.C,C13*
X194960000Y-133400000D03*
X194000000Y-133400000D03*
G04 #@! TD*
D15*
G04 #@! TO.C,C23*
X13000000Y-108408183D03*
X13000000Y-109368183D03*
G04 #@! TD*
G04 #@! TO.C,C16*
X39715000Y-137920000D03*
X39715000Y-138880000D03*
G04 #@! TD*
D16*
G04 #@! TO.C,D6*
X193000000Y-21400000D03*
X193000000Y-22800000D03*
G04 #@! TD*
D17*
G04 #@! TO.C,R34*
X143490000Y-88600000D03*
X144510000Y-88600000D03*
G04 #@! TD*
D18*
G04 #@! TO.C,C2*
X74800000Y-97500000D03*
X69200000Y-97500000D03*
G04 #@! TD*
D19*
G04 #@! TO.C,R3*
X180787500Y-91900000D03*
X182612500Y-91900000D03*
G04 #@! TD*
D18*
G04 #@! TO.C,C2*
X74800000Y-29500000D03*
X69200000Y-29500000D03*
G04 #@! TD*
D20*
G04 #@! TO.C,D7*
X90000000Y-87800000D03*
X90000000Y-86400000D03*
G04 #@! TD*
D21*
G04 #@! TO.C,R72*
X32300000Y-37410000D03*
X32300000Y-36390000D03*
G04 #@! TD*
D22*
G04 #@! TO.C,RN5*
X55900000Y-85500000D03*
D23*
X55900000Y-84700000D03*
X55900000Y-83900000D03*
D22*
X55900000Y-83100000D03*
X54100000Y-83100000D03*
D23*
X54100000Y-83900000D03*
X54100000Y-84700000D03*
D22*
X54100000Y-85500000D03*
G04 #@! TD*
G04 #@! TO.C,RN1*
X118200385Y-117391678D03*
D23*
X118200385Y-118191678D03*
X118200385Y-118991678D03*
D22*
X118200385Y-119791678D03*
X120000385Y-119791678D03*
D23*
X120000385Y-118991678D03*
X120000385Y-118191678D03*
D22*
X120000385Y-117391678D03*
G04 #@! TD*
D24*
G04 #@! TO.C,D5*
X189475000Y-24550000D03*
X189475000Y-28850000D03*
G04 #@! TD*
D25*
G04 #@! TO.C,R69*
X195910000Y-95400000D03*
X194890000Y-95400000D03*
G04 #@! TD*
D16*
G04 #@! TO.C,D6*
X90000000Y-89400000D03*
X90000000Y-90800000D03*
G04 #@! TD*
D21*
G04 #@! TO.C,R72*
X135300000Y-37410000D03*
X135300000Y-36390000D03*
G04 #@! TD*
D26*
G04 #@! TO.C,Q3*
X46220287Y-15047553D03*
X46220287Y-16947553D03*
X48095287Y-15997553D03*
G04 #@! TD*
D27*
G04 #@! TO.C,C17*
X11020000Y-103200000D03*
X11980000Y-103200000D03*
G04 #@! TD*
D28*
G04 #@! TO.C,U3*
X148280000Y-23332500D03*
X149400000Y-23332500D03*
X150520000Y-23332500D03*
X148280000Y-22212500D03*
X149400000Y-22212500D03*
X150520000Y-22212500D03*
X148280000Y-21092500D03*
X149400000Y-21092500D03*
X150520000Y-21092500D03*
D29*
X147900000Y-24662500D03*
X148400000Y-24662500D03*
X148900000Y-24662500D03*
X149400000Y-24662500D03*
X149900000Y-24662500D03*
X150400000Y-24662500D03*
X150900000Y-24662500D03*
D30*
X151850000Y-23712500D03*
X151850000Y-23212500D03*
X151850000Y-22712500D03*
X151850000Y-22212500D03*
X151850000Y-21712500D03*
X151850000Y-21212500D03*
X151850000Y-20712500D03*
D29*
X150900000Y-19762500D03*
X150400000Y-19762500D03*
X149900000Y-19762500D03*
X149400000Y-19762500D03*
X148900000Y-19762500D03*
X148400000Y-19762500D03*
X147900000Y-19762500D03*
D30*
X146950000Y-20712500D03*
X146950000Y-21212500D03*
X146950000Y-21712500D03*
X146950000Y-22212500D03*
X146950000Y-22712500D03*
X146950000Y-23212500D03*
X146950000Y-23712500D03*
G04 #@! TD*
D31*
G04 #@! TO.C,SW2*
X71425000Y-69425000D03*
X75575000Y-69425000D03*
X71425000Y-71575000D03*
X75550000Y-71575000D03*
G04 #@! TD*
D32*
G04 #@! TO.C,U2*
X45825000Y-118925000D03*
X43525000Y-118925000D03*
D33*
X43525000Y-125225000D03*
D32*
X41225000Y-118925000D03*
G04 #@! TD*
D34*
G04 #@! TO.C,C24*
X47450000Y-28500000D03*
X49350000Y-28500000D03*
G04 #@! TD*
D35*
G04 #@! TO.C,U1*
X111000000Y-32750000D03*
X112270000Y-32750000D03*
X113540000Y-32750000D03*
X114810000Y-32750000D03*
X116080000Y-32750000D03*
X117350000Y-32750000D03*
X118620000Y-32750000D03*
X119890000Y-32750000D03*
X121160000Y-32750000D03*
X122430000Y-32750000D03*
X123700000Y-32750000D03*
X124970000Y-32750000D03*
X126240000Y-32750000D03*
X127510000Y-32750000D03*
D36*
X128740000Y-30985000D03*
X128740000Y-29715000D03*
X128780000Y-28445000D03*
X128780000Y-27175000D03*
X128780000Y-25905000D03*
X128780000Y-24635000D03*
X128780000Y-23365000D03*
X128780000Y-22095000D03*
X128780000Y-20825000D03*
X128780000Y-19555000D03*
X128780000Y-18285000D03*
X128780000Y-17015000D03*
D35*
X127510000Y-15250000D03*
X126240000Y-15250000D03*
X124970000Y-15250000D03*
X123700000Y-15250000D03*
X122430000Y-15250000D03*
X121160000Y-15250000D03*
X119890000Y-15250000D03*
X118620000Y-15250000D03*
X117350000Y-15250000D03*
X116080000Y-15250000D03*
X114810000Y-15250000D03*
X113540000Y-15250000D03*
X112270000Y-15250000D03*
X111000000Y-15250000D03*
D37*
X117300000Y-26900000D03*
X118700000Y-26900000D03*
X120100000Y-26900000D03*
X117300000Y-25500000D03*
X118700000Y-25500000D03*
X120100000Y-25500000D03*
X117300000Y-24100000D03*
X118700000Y-24100000D03*
X120100000Y-24100000D03*
G04 #@! TD*
D34*
G04 #@! TO.C,C24*
X150450000Y-96500000D03*
X152350000Y-96500000D03*
G04 #@! TD*
D10*
G04 #@! TO.C,C7*
X144005000Y-116475000D03*
X143045000Y-116475000D03*
G04 #@! TD*
D25*
G04 #@! TO.C,R16*
X29500000Y-98600000D03*
X28480000Y-98600000D03*
G04 #@! TD*
D38*
G04 #@! TO.C,C19*
X90500000Y-17130000D03*
X90500000Y-16170000D03*
G04 #@! TD*
D15*
G04 #@! TO.C,C18*
X30700000Y-83220000D03*
X30700000Y-84180000D03*
G04 #@! TD*
D22*
G04 #@! TO.C,RN6*
X56000000Y-13200000D03*
D23*
X56000000Y-12400000D03*
X56000000Y-11600000D03*
D22*
X56000000Y-10800000D03*
X54200000Y-10800000D03*
D23*
X54200000Y-11600000D03*
X54200000Y-12400000D03*
D22*
X54200000Y-13200000D03*
G04 #@! TD*
D25*
G04 #@! TO.C,R11*
X53010000Y-92500000D03*
X51990000Y-92500000D03*
G04 #@! TD*
D28*
G04 #@! TO.C,U3*
X45280000Y-91332500D03*
X46400000Y-91332500D03*
X47520000Y-91332500D03*
X45280000Y-90212500D03*
X46400000Y-90212500D03*
X47520000Y-90212500D03*
X45280000Y-89092500D03*
X46400000Y-89092500D03*
X47520000Y-89092500D03*
D29*
X44900000Y-92662500D03*
X45400000Y-92662500D03*
X45900000Y-92662500D03*
X46400000Y-92662500D03*
X46900000Y-92662500D03*
X47400000Y-92662500D03*
X47900000Y-92662500D03*
D30*
X48850000Y-91712500D03*
X48850000Y-91212500D03*
X48850000Y-90712500D03*
X48850000Y-90212500D03*
X48850000Y-89712500D03*
X48850000Y-89212500D03*
X48850000Y-88712500D03*
D29*
X47900000Y-87762500D03*
X47400000Y-87762500D03*
X46900000Y-87762500D03*
X46400000Y-87762500D03*
X45900000Y-87762500D03*
X45400000Y-87762500D03*
X44900000Y-87762500D03*
D30*
X43950000Y-88712500D03*
X43950000Y-89212500D03*
X43950000Y-89712500D03*
X43950000Y-90212500D03*
X43950000Y-90712500D03*
X43950000Y-91212500D03*
X43950000Y-91712500D03*
G04 #@! TD*
D39*
G04 #@! TO.C,FB1*
X186087500Y-91900000D03*
X184512500Y-91900000D03*
G04 #@! TD*
D27*
G04 #@! TO.C,C17*
X114020000Y-35200000D03*
X114980000Y-35200000D03*
G04 #@! TD*
D20*
G04 #@! TO.C,D8*
X195200000Y-98950000D03*
X195200000Y-97550000D03*
G04 #@! TD*
D34*
G04 #@! TO.C,C3*
X180750000Y-94200000D03*
X182650000Y-94200000D03*
G04 #@! TD*
D40*
G04 #@! TO.C,Q5*
X136250000Y-32762500D03*
X134350000Y-32762500D03*
X135300000Y-34637500D03*
G04 #@! TD*
D17*
G04 #@! TO.C,R36*
X43247787Y-84897553D03*
X44267787Y-84897553D03*
G04 #@! TD*
D32*
G04 #@! TO.C,U2*
X148825000Y-118925000D03*
X146525000Y-118925000D03*
D33*
X146525000Y-125225000D03*
D32*
X144225000Y-118925000D03*
G04 #@! TD*
D41*
G04 #@! TO.C,J13*
X127700000Y-62850000D03*
X130200000Y-62850000D03*
X132700000Y-62850000D03*
X124700000Y-70150000D03*
X135700000Y-70250000D03*
G04 #@! TD*
G04 #@! TO.C,J6*
X187450000Y-17400000D03*
X184950000Y-17400000D03*
X182450000Y-17400000D03*
X179950000Y-17400000D03*
X177450000Y-17400000D03*
X174950000Y-17400000D03*
X172450000Y-17400000D03*
X169950000Y-17400000D03*
X167450000Y-17400000D03*
X164950000Y-17400000D03*
X190450000Y-10100000D03*
X161950000Y-10000000D03*
G04 #@! TD*
D27*
G04 #@! TO.C,C9*
X53292000Y-57200000D03*
X54252000Y-57200000D03*
G04 #@! TD*
G04 #@! TO.C,C10*
X30220000Y-57490000D03*
X31180000Y-57490000D03*
G04 #@! TD*
D42*
G04 #@! TO.C,J12*
X92855000Y-22650000D03*
X92855000Y-21850000D03*
D43*
X92855000Y-20650000D03*
X92855000Y-19650000D03*
X92855000Y-19150000D03*
X92855000Y-18150000D03*
D42*
X92855000Y-16950000D03*
X92855000Y-16150000D03*
X92855000Y-16150000D03*
X92855000Y-16950000D03*
D43*
X92855000Y-17650000D03*
X92855000Y-18650000D03*
X92855000Y-20150000D03*
X92855000Y-21150000D03*
D42*
X92855000Y-21850000D03*
X92855000Y-22650000D03*
D44*
X93770000Y-23720000D03*
D45*
X97950000Y-23720000D03*
D44*
X93770000Y-15080000D03*
D45*
X97950000Y-15080000D03*
G04 #@! TD*
D46*
G04 #@! TO.C,J9*
X194000000Y-67725000D03*
X195000000Y-67725000D03*
X196000000Y-67725000D03*
X197000000Y-67725000D03*
D47*
X192700000Y-71600000D03*
X198300000Y-71600000D03*
G04 #@! TD*
D25*
G04 #@! TO.C,R5*
X146610000Y-109900000D03*
X145590000Y-109900000D03*
G04 #@! TD*
G04 #@! TO.C,R18*
X41510000Y-90200000D03*
X40490000Y-90200000D03*
G04 #@! TD*
D27*
G04 #@! TO.C,C17*
X11020000Y-35200000D03*
X11980000Y-35200000D03*
G04 #@! TD*
D25*
G04 #@! TO.C,R35*
X147267787Y-82997553D03*
X146247787Y-82997553D03*
G04 #@! TD*
D40*
G04 #@! TO.C,Q6*
X131650000Y-118262500D03*
X129750000Y-118262500D03*
X130700000Y-120137500D03*
G04 #@! TD*
D22*
G04 #@! TO.C,RN5*
X158900000Y-17500000D03*
D23*
X158900000Y-16700000D03*
X158900000Y-15900000D03*
D22*
X158900000Y-15100000D03*
X157100000Y-15100000D03*
D23*
X157100000Y-15900000D03*
X157100000Y-16700000D03*
D22*
X157100000Y-17500000D03*
G04 #@! TD*
D15*
G04 #@! TO.C,C15*
X92400000Y-127320000D03*
X92400000Y-128280000D03*
G04 #@! TD*
D27*
G04 #@! TO.C,C10*
X133220000Y-57490000D03*
X134180000Y-57490000D03*
G04 #@! TD*
D13*
G04 #@! TO.C,C5*
X150250000Y-111850000D03*
X150250000Y-113750000D03*
G04 #@! TD*
D15*
G04 #@! TO.C,C16*
X142715000Y-137920000D03*
X142715000Y-138880000D03*
G04 #@! TD*
D21*
G04 #@! TO.C,R10*
X154000000Y-89790000D03*
X154000000Y-88770000D03*
G04 #@! TD*
D17*
G04 #@! TO.C,R1*
X143490000Y-94100000D03*
X144510000Y-94100000D03*
G04 #@! TD*
D27*
G04 #@! TO.C,C14*
X150920000Y-94400000D03*
X151880000Y-94400000D03*
G04 #@! TD*
D48*
G04 #@! TO.C,JP2*
X18245000Y-41758000D03*
X21555000Y-44298000D03*
X18245000Y-46838000D03*
G04 #@! TD*
D25*
G04 #@! TO.C,R14*
X132500000Y-32000000D03*
X131480000Y-32000000D03*
G04 #@! TD*
D49*
G04 #@! TO.C,J7*
X5275000Y-57400000D03*
X5275000Y-58400000D03*
X5275000Y-59400000D03*
X5275000Y-60400000D03*
D50*
X1400000Y-56100000D03*
X1400000Y-61700000D03*
G04 #@! TD*
D14*
G04 #@! TO.C,R21*
X132300000Y-53990000D03*
X132300000Y-55010000D03*
G04 #@! TD*
D21*
G04 #@! TO.C,R10*
X154000000Y-21790000D03*
X154000000Y-20770000D03*
G04 #@! TD*
D14*
G04 #@! TO.C,R38*
X112900000Y-128490000D03*
X112900000Y-129510000D03*
G04 #@! TD*
D31*
G04 #@! TO.C,SW3*
X145125000Y-137425000D03*
X149275000Y-137425000D03*
X145125000Y-139575000D03*
X149250000Y-139575000D03*
G04 #@! TD*
D42*
G04 #@! TO.C,J12*
X92855000Y-90650000D03*
X92855000Y-89850000D03*
D43*
X92855000Y-88650000D03*
X92855000Y-87650000D03*
X92855000Y-87150000D03*
X92855000Y-86150000D03*
D42*
X92855000Y-84950000D03*
X92855000Y-84150000D03*
X92855000Y-84150000D03*
X92855000Y-84950000D03*
D43*
X92855000Y-85650000D03*
X92855000Y-86650000D03*
X92855000Y-88150000D03*
X92855000Y-89150000D03*
D42*
X92855000Y-89850000D03*
X92855000Y-90650000D03*
D44*
X93770000Y-91720000D03*
D45*
X97950000Y-91720000D03*
D44*
X93770000Y-83080000D03*
D45*
X97950000Y-83080000D03*
G04 #@! TD*
D26*
G04 #@! TO.C,Q3*
X149220287Y-83047553D03*
X149220287Y-84947553D03*
X151095287Y-83997553D03*
G04 #@! TD*
D22*
G04 #@! TO.C,RN5*
X158900000Y-85500000D03*
D23*
X158900000Y-84700000D03*
X158900000Y-83900000D03*
D22*
X158900000Y-83100000D03*
X157100000Y-83100000D03*
D23*
X157100000Y-83900000D03*
X157100000Y-84700000D03*
D22*
X157100000Y-85500000D03*
G04 #@! TD*
D41*
G04 #@! TO.C,J13*
X127700000Y-130850000D03*
X130200000Y-130850000D03*
X132700000Y-130850000D03*
X124700000Y-138150000D03*
X135700000Y-138250000D03*
G04 #@! TD*
D25*
G04 #@! TO.C,R14*
X29500000Y-32000000D03*
X28480000Y-32000000D03*
G04 #@! TD*
D21*
G04 #@! TO.C,R13*
X155700000Y-89800000D03*
X155700000Y-88780000D03*
G04 #@! TD*
D25*
G04 #@! TO.C,R12*
X55610000Y-24500000D03*
X54590000Y-24500000D03*
G04 #@! TD*
D34*
G04 #@! TO.C,C24*
X150450000Y-28500000D03*
X152350000Y-28500000D03*
G04 #@! TD*
D17*
G04 #@! TO.C,R22*
X131490000Y-29300000D03*
X132510000Y-29300000D03*
G04 #@! TD*
D48*
G04 #@! TO.C,JP3*
X81355000Y-49740000D03*
X78045000Y-47200000D03*
X81355000Y-44660000D03*
G04 #@! TD*
D16*
G04 #@! TO.C,D6*
X90000000Y-21400000D03*
X90000000Y-22800000D03*
G04 #@! TD*
D17*
G04 #@! TO.C,R4*
X177690000Y-122500000D03*
X178710000Y-122500000D03*
G04 #@! TD*
D48*
G04 #@! TO.C,JP2*
X121245000Y-109758000D03*
X124555000Y-112298000D03*
X121245000Y-114838000D03*
G04 #@! TD*
D27*
G04 #@! TO.C,C21*
X185520000Y-89500000D03*
X186480000Y-89500000D03*
G04 #@! TD*
D25*
G04 #@! TO.C,R7*
X23210000Y-57100000D03*
X22190000Y-57100000D03*
G04 #@! TD*
D24*
G04 #@! TO.C,D5*
X86475000Y-92550000D03*
X86475000Y-96850000D03*
G04 #@! TD*
D10*
G04 #@! TO.C,C13*
X194960000Y-65400000D03*
X194000000Y-65400000D03*
G04 #@! TD*
D25*
G04 #@! TO.C,R70*
X195910000Y-26100000D03*
X194890000Y-26100000D03*
G04 #@! TD*
D11*
G04 #@! TO.C,J11*
X95150000Y-33200000D03*
X95150000Y-32550000D03*
X95150000Y-31900000D03*
X95150000Y-31250000D03*
X95150000Y-30600000D03*
D12*
X94800000Y-35475000D03*
X98200000Y-35475000D03*
X94800000Y-28325000D03*
X98200000Y-28325000D03*
G04 #@! TD*
D24*
G04 #@! TO.C,D5*
X86475000Y-24550000D03*
X86475000Y-28850000D03*
G04 #@! TD*
D21*
G04 #@! TO.C,R19*
X51800000Y-12310000D03*
X51800000Y-11290000D03*
G04 #@! TD*
D25*
G04 #@! TO.C,R16*
X132500000Y-30600000D03*
X131480000Y-30600000D03*
G04 #@! TD*
D11*
G04 #@! TO.C,J11*
X198150000Y-33200000D03*
X198150000Y-32550000D03*
X198150000Y-31900000D03*
X198150000Y-31250000D03*
X198150000Y-30600000D03*
D12*
X197800000Y-35475000D03*
X201200000Y-35475000D03*
X197800000Y-28325000D03*
X201200000Y-28325000D03*
G04 #@! TD*
D46*
G04 #@! TO.C,J9*
X194000000Y-135725000D03*
X195000000Y-135725000D03*
X196000000Y-135725000D03*
X197000000Y-135725000D03*
D47*
X192700000Y-139600000D03*
X198300000Y-139600000D03*
G04 #@! TD*
D14*
G04 #@! TO.C,R33*
X27800000Y-121990000D03*
X27800000Y-123010000D03*
G04 #@! TD*
D48*
G04 #@! TO.C,JP3*
X184355000Y-117740000D03*
X181045000Y-115200000D03*
X184355000Y-112660000D03*
G04 #@! TD*
D51*
G04 #@! TO.C,JP1*
X49960000Y-122755000D03*
X52500000Y-119445000D03*
X55040000Y-122755000D03*
G04 #@! TD*
D22*
G04 #@! TO.C,RN6*
X56000000Y-81200000D03*
D23*
X56000000Y-80400000D03*
X56000000Y-79600000D03*
D22*
X56000000Y-78800000D03*
X54200000Y-78800000D03*
D23*
X54200000Y-79600000D03*
X54200000Y-80400000D03*
D22*
X54200000Y-81200000D03*
G04 #@! TD*
D25*
G04 #@! TO.C,R70*
X92910000Y-94100000D03*
X91890000Y-94100000D03*
G04 #@! TD*
D31*
G04 #@! TO.C,SW2*
X174425000Y-69425000D03*
X178575000Y-69425000D03*
X174425000Y-71575000D03*
X178550000Y-71575000D03*
G04 #@! TD*
D40*
G04 #@! TO.C,Q5*
X136250000Y-100762500D03*
X134350000Y-100762500D03*
X135300000Y-102637500D03*
G04 #@! TD*
D25*
G04 #@! TO.C,R14*
X132500000Y-100000000D03*
X131480000Y-100000000D03*
G04 #@! TD*
D31*
G04 #@! TO.C,SW3*
X42125000Y-69425000D03*
X46275000Y-69425000D03*
X42125000Y-71575000D03*
X46250000Y-71575000D03*
G04 #@! TD*
D20*
G04 #@! TO.C,D8*
X92200000Y-30950000D03*
X92200000Y-29550000D03*
G04 #@! TD*
D14*
G04 #@! TO.C,R21*
X132300000Y-121990000D03*
X132300000Y-123010000D03*
G04 #@! TD*
D22*
G04 #@! TO.C,RN6*
X159000000Y-81200000D03*
D23*
X159000000Y-80400000D03*
X159000000Y-79600000D03*
D22*
X159000000Y-78800000D03*
X157200000Y-78800000D03*
D23*
X157200000Y-79600000D03*
X157200000Y-80400000D03*
D22*
X157200000Y-81200000D03*
G04 #@! TD*
D13*
G04 #@! TO.C,C25*
X49500000Y-111850000D03*
X49500000Y-113750000D03*
G04 #@! TD*
D52*
G04 #@! TO.C,D2*
X142462500Y-41900000D03*
X144037500Y-41900000D03*
G04 #@! TD*
D13*
G04 #@! TO.C,C1*
X117387500Y-37225000D03*
X117387500Y-39125000D03*
G04 #@! TD*
D25*
G04 #@! TO.C,R71*
X195910000Y-103800000D03*
X194890000Y-103800000D03*
G04 #@! TD*
D21*
G04 #@! TO.C,R2*
X51000000Y-87190000D03*
X51000000Y-86170000D03*
G04 #@! TD*
D17*
G04 #@! TO.C,R4*
X74690000Y-122500000D03*
X75710000Y-122500000D03*
G04 #@! TD*
D15*
G04 #@! TO.C,C23*
X116000000Y-108408183D03*
X116000000Y-109368183D03*
G04 #@! TD*
D25*
G04 #@! TO.C,R16*
X132500000Y-98600000D03*
X131480000Y-98600000D03*
G04 #@! TD*
D40*
G04 #@! TO.C,Q6*
X28650000Y-118262500D03*
X26750000Y-118262500D03*
X27700000Y-120137500D03*
G04 #@! TD*
D21*
G04 #@! TO.C,R40*
X193200000Y-124010000D03*
X193200000Y-122990000D03*
G04 #@! TD*
D17*
G04 #@! TO.C,R36*
X43247787Y-16897553D03*
X44267787Y-16897553D03*
G04 #@! TD*
D25*
G04 #@! TO.C,R6*
X178710000Y-124900000D03*
X177690000Y-124900000D03*
G04 #@! TD*
D10*
G04 #@! TO.C,C13*
X91960000Y-65400000D03*
X91000000Y-65400000D03*
G04 #@! TD*
D15*
G04 #@! TO.C,C23*
X116000000Y-40408183D03*
X116000000Y-41368183D03*
G04 #@! TD*
D21*
G04 #@! TO.C,R19*
X154800000Y-12310000D03*
X154800000Y-11290000D03*
G04 #@! TD*
D13*
G04 #@! TO.C,C4*
X89975000Y-93150000D03*
X89975000Y-95050000D03*
G04 #@! TD*
D21*
G04 #@! TO.C,R10*
X51000000Y-89790000D03*
X51000000Y-88770000D03*
G04 #@! TD*
D53*
G04 #@! TO.C,RN4*
X161620000Y-123400000D03*
D54*
X162420000Y-123400000D03*
X163220000Y-123400000D03*
D53*
X164020000Y-123400000D03*
X164020000Y-121600000D03*
D54*
X163220000Y-121600000D03*
X162420000Y-121600000D03*
D53*
X161620000Y-121600000D03*
G04 #@! TD*
D11*
G04 #@! TO.C,J11*
X198150000Y-101200000D03*
X198150000Y-100550000D03*
X198150000Y-99900000D03*
X198150000Y-99250000D03*
X198150000Y-98600000D03*
D12*
X197800000Y-103475000D03*
X201200000Y-103475000D03*
X197800000Y-96325000D03*
X201200000Y-96325000D03*
G04 #@! TD*
D40*
G04 #@! TO.C,Q6*
X131650000Y-50262500D03*
X129750000Y-50262500D03*
X130700000Y-52137500D03*
G04 #@! TD*
D21*
G04 #@! TO.C,R2*
X154000000Y-87190000D03*
X154000000Y-86170000D03*
G04 #@! TD*
G04 #@! TO.C,R19*
X154800000Y-80310000D03*
X154800000Y-79290000D03*
G04 #@! TD*
D39*
G04 #@! TO.C,FB1*
X186087500Y-23900000D03*
X184512500Y-23900000D03*
G04 #@! TD*
D13*
G04 #@! TO.C,C1*
X117387500Y-105225000D03*
X117387500Y-107125000D03*
G04 #@! TD*
D25*
G04 #@! TO.C,R71*
X92910000Y-103800000D03*
X91890000Y-103800000D03*
G04 #@! TD*
D15*
G04 #@! TO.C,C23*
X13000000Y-40408183D03*
X13000000Y-41368183D03*
G04 #@! TD*
D21*
G04 #@! TO.C,R40*
X90200000Y-124010000D03*
X90200000Y-122990000D03*
G04 #@! TD*
D55*
G04 #@! TO.C,U9*
X36025000Y-70125000D03*
X36025000Y-71375000D03*
X37375000Y-71375000D03*
X37375000Y-70125000D03*
G04 #@! TD*
D38*
G04 #@! TO.C,C11*
X110400000Y-58380000D03*
X110400000Y-57420000D03*
G04 #@! TD*
D17*
G04 #@! TO.C,R9*
X81790000Y-25700000D03*
X82810000Y-25700000D03*
G04 #@! TD*
D20*
G04 #@! TO.C,D7*
X90000000Y-19800000D03*
X90000000Y-18400000D03*
G04 #@! TD*
D18*
G04 #@! TO.C,C2*
X177800000Y-97500000D03*
X172200000Y-97500000D03*
G04 #@! TD*
D49*
G04 #@! TO.C,J7*
X108275000Y-125400000D03*
X108275000Y-126400000D03*
X108275000Y-127400000D03*
X108275000Y-128400000D03*
D50*
X104400000Y-124100000D03*
X104400000Y-129700000D03*
G04 #@! TD*
D27*
G04 #@! TO.C,C8*
X147840000Y-116475000D03*
X148800000Y-116475000D03*
G04 #@! TD*
D15*
G04 #@! TO.C,C15*
X195400000Y-59320000D03*
X195400000Y-60280000D03*
G04 #@! TD*
D25*
G04 #@! TO.C,R17*
X144510000Y-91900000D03*
X143490000Y-91900000D03*
G04 #@! TD*
G04 #@! TO.C,R5*
X43610000Y-109900000D03*
X42590000Y-109900000D03*
G04 #@! TD*
G04 #@! TO.C,R11*
X156010000Y-24500000D03*
X154990000Y-24500000D03*
G04 #@! TD*
D38*
G04 #@! TO.C,C22*
X189500000Y-118580000D03*
X189500000Y-117620000D03*
G04 #@! TD*
D10*
G04 #@! TO.C,C20*
X8960000Y-35200000D03*
X8000000Y-35200000D03*
G04 #@! TD*
D53*
G04 #@! TO.C,RN4*
X58620000Y-55400000D03*
D54*
X59420000Y-55400000D03*
X60220000Y-55400000D03*
D53*
X61020000Y-55400000D03*
X61020000Y-53600000D03*
D54*
X60220000Y-53600000D03*
X59420000Y-53600000D03*
D53*
X58620000Y-53600000D03*
G04 #@! TD*
D27*
G04 #@! TO.C,C21*
X185520000Y-21500000D03*
X186480000Y-21500000D03*
G04 #@! TD*
D25*
G04 #@! TO.C,R5*
X146610000Y-41900000D03*
X145590000Y-41900000D03*
G04 #@! TD*
D17*
G04 #@! TO.C,R4*
X177690000Y-54500000D03*
X178710000Y-54500000D03*
G04 #@! TD*
G04 #@! TO.C,R9*
X81790000Y-93700000D03*
X82810000Y-93700000D03*
G04 #@! TD*
D25*
G04 #@! TO.C,R6*
X178710000Y-56900000D03*
X177690000Y-56900000D03*
G04 #@! TD*
G04 #@! TO.C,R15*
X29510000Y-85000000D03*
X28490000Y-85000000D03*
G04 #@! TD*
D56*
G04 #@! TO.C,Q4*
X41295287Y-84947553D03*
X41295287Y-83047553D03*
X39420287Y-83997553D03*
G04 #@! TD*
D34*
G04 #@! TO.C,C3*
X77750000Y-26200000D03*
X79650000Y-26200000D03*
G04 #@! TD*
D27*
G04 #@! TO.C,C21*
X82520000Y-21500000D03*
X83480000Y-21500000D03*
G04 #@! TD*
D21*
G04 #@! TO.C,R37*
X9900000Y-59310000D03*
X9900000Y-58290000D03*
G04 #@! TD*
D25*
G04 #@! TO.C,R35*
X44267787Y-82997553D03*
X43247787Y-82997553D03*
G04 #@! TD*
D17*
G04 #@! TO.C,R1*
X40490000Y-26100000D03*
X41510000Y-26100000D03*
G04 #@! TD*
D22*
G04 #@! TO.C,RN2*
X187310387Y-109673534D03*
D23*
X187310387Y-108873534D03*
X187310387Y-108073534D03*
D22*
X187310387Y-107273534D03*
X185510387Y-107273534D03*
D23*
X185510387Y-108073534D03*
X185510387Y-108873534D03*
D22*
X185510387Y-109673534D03*
G04 #@! TD*
D17*
G04 #@! TO.C,R22*
X28490000Y-29300000D03*
X29510000Y-29300000D03*
G04 #@! TD*
D25*
G04 #@! TO.C,R6*
X75710000Y-56900000D03*
X74690000Y-56900000D03*
G04 #@! TD*
D27*
G04 #@! TO.C,C9*
X53292000Y-125200000D03*
X54252000Y-125200000D03*
G04 #@! TD*
D52*
G04 #@! TO.C,D2*
X39462500Y-109900000D03*
X41037500Y-109900000D03*
G04 #@! TD*
D57*
G04 #@! TO.C,C6*
X144050000Y-46700000D03*
X142150000Y-46700000D03*
G04 #@! TD*
D21*
G04 #@! TO.C,R40*
X193200000Y-56010000D03*
X193200000Y-54990000D03*
G04 #@! TD*
D17*
G04 #@! TO.C,R9*
X184790000Y-25700000D03*
X185810000Y-25700000D03*
G04 #@! TD*
D22*
G04 #@! TO.C,RN1*
X15200385Y-49391678D03*
D23*
X15200385Y-50191678D03*
X15200385Y-50991678D03*
D22*
X15200385Y-51791678D03*
X17000385Y-51791678D03*
D23*
X17000385Y-50991678D03*
X17000385Y-50191678D03*
D22*
X17000385Y-49391678D03*
G04 #@! TD*
D46*
G04 #@! TO.C,J8*
X109300000Y-135725000D03*
X110300000Y-135725000D03*
X111300000Y-135725000D03*
X112300000Y-135725000D03*
D47*
X108000000Y-139600000D03*
X113600000Y-139600000D03*
G04 #@! TD*
D32*
G04 #@! TO.C,U2*
X148825000Y-50925000D03*
X146525000Y-50925000D03*
D33*
X146525000Y-57225000D03*
D32*
X144225000Y-50925000D03*
G04 #@! TD*
D27*
G04 #@! TO.C,C14*
X47920000Y-94400000D03*
X48880000Y-94400000D03*
G04 #@! TD*
D40*
G04 #@! TO.C,Q5*
X33250000Y-32762500D03*
X31350000Y-32762500D03*
X32300000Y-34637500D03*
G04 #@! TD*
D25*
G04 #@! TO.C,R15*
X132510000Y-17000000D03*
X131490000Y-17000000D03*
G04 #@! TD*
D16*
G04 #@! TO.C,D6*
X193000000Y-89400000D03*
X193000000Y-90800000D03*
G04 #@! TD*
D27*
G04 #@! TO.C,C14*
X47920000Y-26400000D03*
X48880000Y-26400000D03*
G04 #@! TD*
D56*
G04 #@! TO.C,Q4*
X144295287Y-84947553D03*
X144295287Y-83047553D03*
X142420287Y-83997553D03*
G04 #@! TD*
D15*
G04 #@! TO.C,C18*
X30700000Y-15220000D03*
X30700000Y-16180000D03*
G04 #@! TD*
D38*
G04 #@! TO.C,C11*
X7400000Y-58380000D03*
X7400000Y-57420000D03*
G04 #@! TD*
D34*
G04 #@! TO.C,C3*
X77750000Y-94200000D03*
X79650000Y-94200000D03*
G04 #@! TD*
D27*
G04 #@! TO.C,C21*
X82520000Y-89500000D03*
X83480000Y-89500000D03*
G04 #@! TD*
D52*
G04 #@! TO.C,D2*
X39462500Y-41900000D03*
X41037500Y-41900000D03*
G04 #@! TD*
D53*
G04 #@! TO.C,RN3*
X165420000Y-55400000D03*
D54*
X166220000Y-55400000D03*
X167020000Y-55400000D03*
D53*
X167820000Y-55400000D03*
X167820000Y-53600000D03*
D54*
X167020000Y-53600000D03*
X166220000Y-53600000D03*
D53*
X165420000Y-53600000D03*
G04 #@! TD*
D25*
G04 #@! TO.C,R7*
X126210000Y-57100000D03*
X125190000Y-57100000D03*
G04 #@! TD*
D17*
G04 #@! TO.C,R8*
X125190000Y-55700000D03*
X126210000Y-55700000D03*
G04 #@! TD*
D10*
G04 #@! TO.C,C7*
X41005000Y-116475000D03*
X40045000Y-116475000D03*
G04 #@! TD*
D22*
G04 #@! TO.C,RN5*
X55900000Y-17500000D03*
D23*
X55900000Y-16700000D03*
X55900000Y-15900000D03*
D22*
X55900000Y-15100000D03*
X54100000Y-15100000D03*
D23*
X54100000Y-15900000D03*
X54100000Y-16700000D03*
D22*
X54100000Y-17500000D03*
G04 #@! TD*
D27*
G04 #@! TO.C,C8*
X147840000Y-48475000D03*
X148800000Y-48475000D03*
G04 #@! TD*
D20*
G04 #@! TO.C,D7*
X193000000Y-19800000D03*
X193000000Y-18400000D03*
G04 #@! TD*
D55*
G04 #@! TO.C,U9*
X36025000Y-138125000D03*
X36025000Y-139375000D03*
X37375000Y-139375000D03*
X37375000Y-138125000D03*
G04 #@! TD*
D58*
G04 #@! TO.C,J10*
X197725000Y-128300000D03*
X197725000Y-127300000D03*
X197725000Y-126300000D03*
X197725000Y-125300000D03*
D59*
X201600000Y-129600000D03*
X201600000Y-124000000D03*
G04 #@! TD*
D21*
G04 #@! TO.C,R13*
X52700000Y-89800000D03*
X52700000Y-88780000D03*
G04 #@! TD*
D17*
G04 #@! TO.C,R36*
X146247787Y-84897553D03*
X147267787Y-84897553D03*
G04 #@! TD*
D38*
G04 #@! TO.C,C22*
X189500000Y-50580000D03*
X189500000Y-49620000D03*
G04 #@! TD*
D27*
G04 #@! TO.C,C9*
X156292000Y-57200000D03*
X157252000Y-57200000D03*
G04 #@! TD*
D58*
G04 #@! TO.C,J10*
X94725000Y-128300000D03*
X94725000Y-127300000D03*
X94725000Y-126300000D03*
X94725000Y-125300000D03*
D59*
X98600000Y-129600000D03*
X98600000Y-124000000D03*
G04 #@! TD*
D19*
G04 #@! TO.C,R3*
X77787500Y-91900000D03*
X79612500Y-91900000D03*
G04 #@! TD*
D27*
G04 #@! TO.C,C9*
X156292000Y-125200000D03*
X157252000Y-125200000D03*
G04 #@! TD*
D31*
G04 #@! TO.C,SW3*
X145125000Y-69425000D03*
X149275000Y-69425000D03*
X145125000Y-71575000D03*
X149250000Y-71575000D03*
G04 #@! TD*
D13*
G04 #@! TO.C,C1*
X14387500Y-105225000D03*
X14387500Y-107125000D03*
G04 #@! TD*
D25*
G04 #@! TO.C,R7*
X126210000Y-125100000D03*
X125190000Y-125100000D03*
G04 #@! TD*
D31*
G04 #@! TO.C,SW2*
X71425000Y-137425000D03*
X75575000Y-137425000D03*
X71425000Y-139575000D03*
X75550000Y-139575000D03*
G04 #@! TD*
D22*
G04 #@! TO.C,RN2*
X84310387Y-109673534D03*
D23*
X84310387Y-108873534D03*
X84310387Y-108073534D03*
D22*
X84310387Y-107273534D03*
X82510387Y-107273534D03*
D23*
X82510387Y-108073534D03*
X82510387Y-108873534D03*
D22*
X82510387Y-109673534D03*
G04 #@! TD*
D41*
G04 #@! TO.C,J13*
X24700000Y-130850000D03*
X27200000Y-130850000D03*
X29700000Y-130850000D03*
X21700000Y-138150000D03*
X32700000Y-138250000D03*
G04 #@! TD*
D35*
G04 #@! TO.C,U1*
X8000000Y-32750000D03*
X9270000Y-32750000D03*
X10540000Y-32750000D03*
X11810000Y-32750000D03*
X13080000Y-32750000D03*
X14350000Y-32750000D03*
X15620000Y-32750000D03*
X16890000Y-32750000D03*
X18160000Y-32750000D03*
X19430000Y-32750000D03*
X20700000Y-32750000D03*
X21970000Y-32750000D03*
X23240000Y-32750000D03*
X24510000Y-32750000D03*
D36*
X25740000Y-30985000D03*
X25740000Y-29715000D03*
X25780000Y-28445000D03*
X25780000Y-27175000D03*
X25780000Y-25905000D03*
X25780000Y-24635000D03*
X25780000Y-23365000D03*
X25780000Y-22095000D03*
X25780000Y-20825000D03*
X25780000Y-19555000D03*
X25780000Y-18285000D03*
X25780000Y-17015000D03*
D35*
X24510000Y-15250000D03*
X23240000Y-15250000D03*
X21970000Y-15250000D03*
X20700000Y-15250000D03*
X19430000Y-15250000D03*
X18160000Y-15250000D03*
X16890000Y-15250000D03*
X15620000Y-15250000D03*
X14350000Y-15250000D03*
X13080000Y-15250000D03*
X11810000Y-15250000D03*
X10540000Y-15250000D03*
X9270000Y-15250000D03*
X8000000Y-15250000D03*
D37*
X14300000Y-26900000D03*
X15700000Y-26900000D03*
X17100000Y-26900000D03*
X14300000Y-25500000D03*
X15700000Y-25500000D03*
X17100000Y-25500000D03*
X14300000Y-24100000D03*
X15700000Y-24100000D03*
X17100000Y-24100000D03*
G04 #@! TD*
D38*
G04 #@! TO.C,C22*
X86500000Y-50580000D03*
X86500000Y-49620000D03*
G04 #@! TD*
D53*
G04 #@! TO.C,RN4*
X58620000Y-123400000D03*
D54*
X59420000Y-123400000D03*
X60220000Y-123400000D03*
D53*
X61020000Y-123400000D03*
X61020000Y-121600000D03*
D54*
X60220000Y-121600000D03*
X59420000Y-121600000D03*
D53*
X58620000Y-121600000D03*
G04 #@! TD*
D21*
G04 #@! TO.C,R10*
X51000000Y-21790000D03*
X51000000Y-20770000D03*
G04 #@! TD*
D25*
G04 #@! TO.C,R18*
X144510000Y-22200000D03*
X143490000Y-22200000D03*
G04 #@! TD*
D14*
G04 #@! TO.C,R38*
X112900000Y-60490000D03*
X112900000Y-61510000D03*
G04 #@! TD*
D25*
G04 #@! TO.C,R71*
X92910000Y-35800000D03*
X91890000Y-35800000D03*
G04 #@! TD*
G04 #@! TO.C,R69*
X92910000Y-27400000D03*
X91890000Y-27400000D03*
G04 #@! TD*
G04 #@! TO.C,R6*
X75710000Y-124900000D03*
X74690000Y-124900000D03*
G04 #@! TD*
G04 #@! TO.C,R12*
X158610000Y-24500000D03*
X157590000Y-24500000D03*
G04 #@! TD*
D17*
G04 #@! TO.C,R1*
X143490000Y-26100000D03*
X144510000Y-26100000D03*
G04 #@! TD*
D39*
G04 #@! TO.C,FB1*
X83087500Y-23900000D03*
X81512500Y-23900000D03*
G04 #@! TD*
D10*
G04 #@! TO.C,C12*
X7280000Y-65500000D03*
X6320000Y-65500000D03*
G04 #@! TD*
D15*
G04 #@! TO.C,C18*
X133700000Y-83220000D03*
X133700000Y-84180000D03*
G04 #@! TD*
D39*
G04 #@! TO.C,FB1*
X83087500Y-91900000D03*
X81512500Y-91900000D03*
G04 #@! TD*
D14*
G04 #@! TO.C,R21*
X29300000Y-53990000D03*
X29300000Y-55010000D03*
G04 #@! TD*
D49*
G04 #@! TO.C,J7*
X108275000Y-57400000D03*
X108275000Y-58400000D03*
X108275000Y-59400000D03*
X108275000Y-60400000D03*
D50*
X104400000Y-56100000D03*
X104400000Y-61700000D03*
G04 #@! TD*
D10*
G04 #@! TO.C,C20*
X8960000Y-103200000D03*
X8000000Y-103200000D03*
G04 #@! TD*
D28*
G04 #@! TO.C,U3*
X45280000Y-23332500D03*
X46400000Y-23332500D03*
X47520000Y-23332500D03*
X45280000Y-22212500D03*
X46400000Y-22212500D03*
X47520000Y-22212500D03*
X45280000Y-21092500D03*
X46400000Y-21092500D03*
X47520000Y-21092500D03*
D29*
X44900000Y-24662500D03*
X45400000Y-24662500D03*
X45900000Y-24662500D03*
X46400000Y-24662500D03*
X46900000Y-24662500D03*
X47400000Y-24662500D03*
X47900000Y-24662500D03*
D30*
X48850000Y-23712500D03*
X48850000Y-23212500D03*
X48850000Y-22712500D03*
X48850000Y-22212500D03*
X48850000Y-21712500D03*
X48850000Y-21212500D03*
X48850000Y-20712500D03*
D29*
X47900000Y-19762500D03*
X47400000Y-19762500D03*
X46900000Y-19762500D03*
X46400000Y-19762500D03*
X45900000Y-19762500D03*
X45400000Y-19762500D03*
X44900000Y-19762500D03*
D30*
X43950000Y-20712500D03*
X43950000Y-21212500D03*
X43950000Y-21712500D03*
X43950000Y-22212500D03*
X43950000Y-22712500D03*
X43950000Y-23212500D03*
X43950000Y-23712500D03*
G04 #@! TD*
D21*
G04 #@! TO.C,R2*
X51000000Y-19190000D03*
X51000000Y-18170000D03*
G04 #@! TD*
G04 #@! TO.C,R40*
X90200000Y-56010000D03*
X90200000Y-54990000D03*
G04 #@! TD*
D34*
G04 #@! TO.C,C24*
X47450000Y-96500000D03*
X49350000Y-96500000D03*
G04 #@! TD*
D32*
G04 #@! TO.C,U2*
X45825000Y-50925000D03*
X43525000Y-50925000D03*
D33*
X43525000Y-57225000D03*
D32*
X41225000Y-50925000D03*
G04 #@! TD*
D17*
G04 #@! TO.C,R34*
X40490000Y-20600000D03*
X41510000Y-20600000D03*
G04 #@! TD*
D16*
G04 #@! TO.C,D9*
X92200000Y-100700000D03*
X92200000Y-102100000D03*
G04 #@! TD*
D21*
G04 #@! TO.C,R37*
X112900000Y-127310000D03*
X112900000Y-126290000D03*
G04 #@! TD*
D13*
G04 #@! TO.C,C1*
X14387500Y-37225000D03*
X14387500Y-39125000D03*
G04 #@! TD*
D27*
G04 #@! TO.C,C17*
X114020000Y-103200000D03*
X114980000Y-103200000D03*
G04 #@! TD*
D21*
G04 #@! TO.C,R72*
X135300000Y-105410000D03*
X135300000Y-104390000D03*
G04 #@! TD*
D60*
G04 #@! TO.C,R20*
X44850000Y-111837500D03*
X44850000Y-113662500D03*
G04 #@! TD*
D25*
G04 #@! TO.C,R35*
X147267787Y-14997553D03*
X146247787Y-14997553D03*
G04 #@! TD*
D27*
G04 #@! TO.C,C10*
X133220000Y-125490000D03*
X134180000Y-125490000D03*
G04 #@! TD*
D25*
G04 #@! TO.C,R12*
X158610000Y-92500000D03*
X157590000Y-92500000D03*
G04 #@! TD*
D17*
G04 #@! TO.C,R1*
X40490000Y-94100000D03*
X41510000Y-94100000D03*
G04 #@! TD*
D13*
G04 #@! TO.C,C4*
X89975000Y-25150000D03*
X89975000Y-27050000D03*
G04 #@! TD*
D49*
G04 #@! TO.C,J7*
X5275000Y-125400000D03*
X5275000Y-126400000D03*
X5275000Y-127400000D03*
X5275000Y-128400000D03*
D50*
X1400000Y-124100000D03*
X1400000Y-129700000D03*
G04 #@! TD*
D22*
G04 #@! TO.C,RN2*
X187310387Y-41673534D03*
D23*
X187310387Y-40873534D03*
X187310387Y-40073534D03*
D22*
X187310387Y-39273534D03*
X185510387Y-39273534D03*
D23*
X185510387Y-40073534D03*
X185510387Y-40873534D03*
D22*
X185510387Y-41673534D03*
G04 #@! TD*
D52*
G04 #@! TO.C,D2*
X142462500Y-109900000D03*
X144037500Y-109900000D03*
G04 #@! TD*
D13*
G04 #@! TO.C,C5*
X47250000Y-111850000D03*
X47250000Y-113750000D03*
G04 #@! TD*
D26*
G04 #@! TO.C,Q3*
X46220287Y-83047553D03*
X46220287Y-84947553D03*
X48095287Y-83997553D03*
G04 #@! TD*
D10*
G04 #@! TO.C,C12*
X110280000Y-65500000D03*
X109320000Y-65500000D03*
G04 #@! TD*
D22*
G04 #@! TO.C,RN6*
X159000000Y-13200000D03*
D23*
X159000000Y-12400000D03*
X159000000Y-11600000D03*
D22*
X159000000Y-10800000D03*
X157200000Y-10800000D03*
D23*
X157200000Y-11600000D03*
X157200000Y-12400000D03*
D22*
X157200000Y-13200000D03*
G04 #@! TD*
D10*
G04 #@! TO.C,C20*
X111960000Y-103200000D03*
X111000000Y-103200000D03*
G04 #@! TD*
D48*
G04 #@! TO.C,JP2*
X121245000Y-41758000D03*
X124555000Y-44298000D03*
X121245000Y-46838000D03*
G04 #@! TD*
D13*
G04 #@! TO.C,C4*
X192975000Y-93150000D03*
X192975000Y-95050000D03*
G04 #@! TD*
D22*
G04 #@! TO.C,RN1*
X118200385Y-49391678D03*
D23*
X118200385Y-50191678D03*
X118200385Y-50991678D03*
D22*
X118200385Y-51791678D03*
X120000385Y-51791678D03*
D23*
X120000385Y-50991678D03*
X120000385Y-50191678D03*
D22*
X120000385Y-49391678D03*
G04 #@! TD*
D17*
G04 #@! TO.C,R36*
X146247787Y-16897553D03*
X147267787Y-16897553D03*
G04 #@! TD*
D15*
G04 #@! TO.C,C18*
X133700000Y-15220000D03*
X133700000Y-16180000D03*
G04 #@! TD*
D17*
G04 #@! TO.C,R22*
X28490000Y-97300000D03*
X29510000Y-97300000D03*
G04 #@! TD*
D53*
G04 #@! TO.C,RN3*
X62420000Y-55400000D03*
D54*
X63220000Y-55400000D03*
X64020000Y-55400000D03*
D53*
X64820000Y-55400000D03*
X64820000Y-53600000D03*
D54*
X64020000Y-53600000D03*
X63220000Y-53600000D03*
D53*
X62420000Y-53600000D03*
G04 #@! TD*
D22*
G04 #@! TO.C,RN1*
X15200385Y-117391678D03*
D23*
X15200385Y-118191678D03*
X15200385Y-118991678D03*
D22*
X15200385Y-119791678D03*
X17000385Y-119791678D03*
D23*
X17000385Y-118991678D03*
X17000385Y-118191678D03*
D22*
X17000385Y-117391678D03*
G04 #@! TD*
D46*
G04 #@! TO.C,J9*
X91000000Y-135725000D03*
X92000000Y-135725000D03*
X93000000Y-135725000D03*
X94000000Y-135725000D03*
D47*
X89700000Y-139600000D03*
X95300000Y-139600000D03*
G04 #@! TD*
D31*
G04 #@! TO.C,SW3*
X42125000Y-137425000D03*
X46275000Y-137425000D03*
X42125000Y-139575000D03*
X46250000Y-139575000D03*
G04 #@! TD*
D60*
G04 #@! TO.C,R20*
X147850000Y-43837500D03*
X147850000Y-45662500D03*
G04 #@! TD*
D42*
G04 #@! TO.C,J12*
X195855000Y-90650000D03*
X195855000Y-89850000D03*
D43*
X195855000Y-88650000D03*
X195855000Y-87650000D03*
X195855000Y-87150000D03*
X195855000Y-86150000D03*
D42*
X195855000Y-84950000D03*
X195855000Y-84150000D03*
X195855000Y-84150000D03*
X195855000Y-84950000D03*
D43*
X195855000Y-85650000D03*
X195855000Y-86650000D03*
X195855000Y-88150000D03*
X195855000Y-89150000D03*
D42*
X195855000Y-89850000D03*
X195855000Y-90650000D03*
D44*
X196770000Y-91720000D03*
D45*
X200950000Y-91720000D03*
D44*
X196770000Y-83080000D03*
D45*
X200950000Y-83080000D03*
G04 #@! TD*
D27*
G04 #@! TO.C,C14*
X150920000Y-26400000D03*
X151880000Y-26400000D03*
G04 #@! TD*
D58*
G04 #@! TO.C,J10*
X94725000Y-60300000D03*
X94725000Y-59300000D03*
X94725000Y-58300000D03*
X94725000Y-57300000D03*
D59*
X98600000Y-61600000D03*
X98600000Y-56000000D03*
G04 #@! TD*
D53*
G04 #@! TO.C,RN3*
X62420000Y-123400000D03*
D54*
X63220000Y-123400000D03*
X64020000Y-123400000D03*
D53*
X64820000Y-123400000D03*
X64820000Y-121600000D03*
D54*
X64020000Y-121600000D03*
X63220000Y-121600000D03*
D53*
X62420000Y-121600000D03*
G04 #@! TD*
D55*
G04 #@! TO.C,U9*
X139025000Y-70125000D03*
X139025000Y-71375000D03*
X140375000Y-71375000D03*
X140375000Y-70125000D03*
G04 #@! TD*
D10*
G04 #@! TO.C,C12*
X7280000Y-133500000D03*
X6320000Y-133500000D03*
G04 #@! TD*
D51*
G04 #@! TO.C,JP1*
X152960000Y-122755000D03*
X155500000Y-119445000D03*
X158040000Y-122755000D03*
G04 #@! TD*
D27*
G04 #@! TO.C,C8*
X44840000Y-116475000D03*
X45800000Y-116475000D03*
G04 #@! TD*
D53*
G04 #@! TO.C,RN4*
X161620000Y-55400000D03*
D54*
X162420000Y-55400000D03*
X163220000Y-55400000D03*
D53*
X164020000Y-55400000D03*
X164020000Y-53600000D03*
D54*
X163220000Y-53600000D03*
X162420000Y-53600000D03*
D53*
X161620000Y-53600000D03*
G04 #@! TD*
D57*
G04 #@! TO.C,C6*
X144050000Y-114700000D03*
X142150000Y-114700000D03*
G04 #@! TD*
D41*
G04 #@! TO.C,J6*
X84450000Y-17400000D03*
X81950000Y-17400000D03*
X79450000Y-17400000D03*
X76950000Y-17400000D03*
X74450000Y-17400000D03*
X71950000Y-17400000D03*
X69450000Y-17400000D03*
X66950000Y-17400000D03*
X64450000Y-17400000D03*
X61950000Y-17400000D03*
X87450000Y-10100000D03*
X58950000Y-10000000D03*
G04 #@! TD*
D17*
G04 #@! TO.C,R9*
X184790000Y-93700000D03*
X185810000Y-93700000D03*
G04 #@! TD*
D46*
G04 #@! TO.C,J8*
X109300000Y-67725000D03*
X110300000Y-67725000D03*
X111300000Y-67725000D03*
X112300000Y-67725000D03*
D47*
X108000000Y-71600000D03*
X113600000Y-71600000D03*
G04 #@! TD*
D21*
G04 #@! TO.C,R37*
X112900000Y-59310000D03*
X112900000Y-58290000D03*
G04 #@! TD*
D20*
G04 #@! TO.C,D7*
X193000000Y-87800000D03*
X193000000Y-86400000D03*
G04 #@! TD*
D17*
G04 #@! TO.C,R8*
X22190000Y-123700000D03*
X23210000Y-123700000D03*
G04 #@! TD*
D26*
G04 #@! TO.C,Q3*
X149220287Y-15047553D03*
X149220287Y-16947553D03*
X151095287Y-15997553D03*
G04 #@! TD*
D25*
G04 #@! TO.C,R5*
X43610000Y-41900000D03*
X42590000Y-41900000D03*
G04 #@! TD*
D38*
G04 #@! TO.C,C11*
X7400000Y-126380000D03*
X7400000Y-125420000D03*
G04 #@! TD*
D10*
G04 #@! TO.C,C7*
X144005000Y-48475000D03*
X143045000Y-48475000D03*
G04 #@! TD*
D48*
G04 #@! TO.C,JP3*
X81355000Y-117740000D03*
X78045000Y-115200000D03*
X81355000Y-112660000D03*
G04 #@! TD*
D34*
G04 #@! TO.C,C3*
X180750000Y-26200000D03*
X182650000Y-26200000D03*
G04 #@! TD*
D17*
G04 #@! TO.C,R8*
X125190000Y-123700000D03*
X126210000Y-123700000D03*
G04 #@! TD*
D42*
G04 #@! TO.C,J12*
X195855000Y-22650000D03*
X195855000Y-21850000D03*
D43*
X195855000Y-20650000D03*
X195855000Y-19650000D03*
X195855000Y-19150000D03*
X195855000Y-18150000D03*
D42*
X195855000Y-16950000D03*
X195855000Y-16150000D03*
X195855000Y-16150000D03*
X195855000Y-16950000D03*
D43*
X195855000Y-17650000D03*
X195855000Y-18650000D03*
X195855000Y-20150000D03*
X195855000Y-21150000D03*
D42*
X195855000Y-21850000D03*
X195855000Y-22650000D03*
D44*
X196770000Y-23720000D03*
D45*
X200950000Y-23720000D03*
D44*
X196770000Y-15080000D03*
D45*
X200950000Y-15080000D03*
G04 #@! TD*
D25*
G04 #@! TO.C,R18*
X144510000Y-90200000D03*
X143490000Y-90200000D03*
G04 #@! TD*
G04 #@! TO.C,R18*
X41510000Y-22200000D03*
X40490000Y-22200000D03*
G04 #@! TD*
D46*
G04 #@! TO.C,J8*
X6300000Y-135725000D03*
X7300000Y-135725000D03*
X8300000Y-135725000D03*
X9300000Y-135725000D03*
D47*
X5000000Y-139600000D03*
X10600000Y-139600000D03*
G04 #@! TD*
D20*
G04 #@! TO.C,D8*
X195200000Y-30950000D03*
X195200000Y-29550000D03*
G04 #@! TD*
D25*
G04 #@! TO.C,R7*
X23210000Y-125100000D03*
X22190000Y-125100000D03*
G04 #@! TD*
D40*
G04 #@! TO.C,Q5*
X33250000Y-100762500D03*
X31350000Y-100762500D03*
X32300000Y-102637500D03*
G04 #@! TD*
D13*
G04 #@! TO.C,C25*
X152500000Y-111850000D03*
X152500000Y-113750000D03*
G04 #@! TD*
D14*
G04 #@! TO.C,R33*
X130800000Y-121990000D03*
X130800000Y-123010000D03*
G04 #@! TD*
D21*
G04 #@! TO.C,R72*
X32300000Y-105410000D03*
X32300000Y-104390000D03*
G04 #@! TD*
D17*
G04 #@! TO.C,R34*
X40490000Y-88600000D03*
X41510000Y-88600000D03*
G04 #@! TD*
G04 #@! TO.C,R34*
X143490000Y-20600000D03*
X144510000Y-20600000D03*
G04 #@! TD*
D14*
G04 #@! TO.C,R33*
X130800000Y-53990000D03*
X130800000Y-55010000D03*
G04 #@! TD*
D56*
G04 #@! TO.C,Q4*
X41295287Y-16947553D03*
X41295287Y-15047553D03*
X39420287Y-15997553D03*
G04 #@! TD*
D38*
G04 #@! TO.C,C19*
X193500000Y-17130000D03*
X193500000Y-16170000D03*
G04 #@! TD*
D25*
G04 #@! TO.C,R69*
X92910000Y-95400000D03*
X91890000Y-95400000D03*
G04 #@! TD*
D38*
G04 #@! TO.C,C22*
X86500000Y-118580000D03*
X86500000Y-117620000D03*
G04 #@! TD*
D14*
G04 #@! TO.C,R39*
X90200000Y-57090000D03*
X90200000Y-58110000D03*
G04 #@! TD*
D16*
G04 #@! TO.C,D9*
X92200000Y-32700000D03*
X92200000Y-34100000D03*
G04 #@! TD*
D25*
G04 #@! TO.C,R16*
X29500000Y-30600000D03*
X28480000Y-30600000D03*
G04 #@! TD*
D57*
G04 #@! TO.C,C6*
X41050000Y-114700000D03*
X39150000Y-114700000D03*
G04 #@! TD*
D10*
G04 #@! TO.C,C7*
X41005000Y-48475000D03*
X40045000Y-48475000D03*
G04 #@! TD*
D17*
G04 #@! TO.C,R4*
X74690000Y-54500000D03*
X75710000Y-54500000D03*
G04 #@! TD*
D51*
G04 #@! TO.C,JP1*
X49960000Y-54755000D03*
X52500000Y-51445000D03*
X55040000Y-54755000D03*
G04 #@! TD*
D14*
G04 #@! TO.C,R39*
X193200000Y-57090000D03*
X193200000Y-58110000D03*
G04 #@! TD*
D15*
G04 #@! TO.C,C15*
X195400000Y-127320000D03*
X195400000Y-128280000D03*
G04 #@! TD*
D25*
G04 #@! TO.C,R35*
X44267787Y-14997553D03*
X43247787Y-14997553D03*
G04 #@! TD*
D35*
G04 #@! TO.C,U1*
X111000000Y-100750000D03*
X112270000Y-100750000D03*
X113540000Y-100750000D03*
X114810000Y-100750000D03*
X116080000Y-100750000D03*
X117350000Y-100750000D03*
X118620000Y-100750000D03*
X119890000Y-100750000D03*
X121160000Y-100750000D03*
X122430000Y-100750000D03*
X123700000Y-100750000D03*
X124970000Y-100750000D03*
X126240000Y-100750000D03*
X127510000Y-100750000D03*
D36*
X128740000Y-98985000D03*
X128740000Y-97715000D03*
X128780000Y-96445000D03*
X128780000Y-95175000D03*
X128780000Y-93905000D03*
X128780000Y-92635000D03*
X128780000Y-91365000D03*
X128780000Y-90095000D03*
X128780000Y-88825000D03*
X128780000Y-87555000D03*
X128780000Y-86285000D03*
X128780000Y-85015000D03*
D35*
X127510000Y-83250000D03*
X126240000Y-83250000D03*
X124970000Y-83250000D03*
X123700000Y-83250000D03*
X122430000Y-83250000D03*
X121160000Y-83250000D03*
X119890000Y-83250000D03*
X118620000Y-83250000D03*
X117350000Y-83250000D03*
X116080000Y-83250000D03*
X114810000Y-83250000D03*
X113540000Y-83250000D03*
X112270000Y-83250000D03*
X111000000Y-83250000D03*
D37*
X117300000Y-94900000D03*
X118700000Y-94900000D03*
X120100000Y-94900000D03*
X117300000Y-93500000D03*
X118700000Y-93500000D03*
X120100000Y-93500000D03*
X117300000Y-92100000D03*
X118700000Y-92100000D03*
X120100000Y-92100000D03*
G04 #@! TD*
D21*
G04 #@! TO.C,R2*
X154000000Y-19190000D03*
X154000000Y-18170000D03*
G04 #@! TD*
D25*
G04 #@! TO.C,R11*
X156010000Y-92500000D03*
X154990000Y-92500000D03*
G04 #@! TD*
G04 #@! TO.C,R11*
X53010000Y-24500000D03*
X51990000Y-24500000D03*
G04 #@! TD*
D24*
G04 #@! TO.C,D5*
X189475000Y-92550000D03*
X189475000Y-96850000D03*
G04 #@! TD*
D20*
G04 #@! TO.C,D8*
X92200000Y-98950000D03*
X92200000Y-97550000D03*
G04 #@! TD*
D16*
G04 #@! TO.C,D9*
X195200000Y-32700000D03*
X195200000Y-34100000D03*
G04 #@! TD*
D31*
G04 #@! TO.C,SW2*
X174425000Y-137425000D03*
X178575000Y-137425000D03*
X174425000Y-139575000D03*
X178550000Y-139575000D03*
G04 #@! TD*
D48*
G04 #@! TO.C,JP2*
X18245000Y-109758000D03*
X21555000Y-112298000D03*
X18245000Y-114838000D03*
G04 #@! TD*
D22*
G04 #@! TO.C,RN2*
X84310387Y-41673534D03*
D23*
X84310387Y-40873534D03*
X84310387Y-40073534D03*
D22*
X84310387Y-39273534D03*
X82510387Y-39273534D03*
D23*
X82510387Y-40073534D03*
X82510387Y-40873534D03*
D22*
X82510387Y-41673534D03*
G04 #@! TD*
D19*
G04 #@! TO.C,R3*
X77787500Y-23900000D03*
X79612500Y-23900000D03*
G04 #@! TD*
D25*
G04 #@! TO.C,R70*
X195910000Y-94100000D03*
X194890000Y-94100000D03*
G04 #@! TD*
D16*
G04 #@! TO.C,D9*
X195200000Y-100700000D03*
X195200000Y-102100000D03*
G04 #@! TD*
D25*
G04 #@! TO.C,R70*
X92910000Y-26100000D03*
X91890000Y-26100000D03*
G04 #@! TD*
D41*
G04 #@! TO.C,J13*
X24700000Y-62850000D03*
X27200000Y-62850000D03*
X29700000Y-62850000D03*
X21700000Y-70150000D03*
X32700000Y-70250000D03*
G04 #@! TD*
D27*
G04 #@! TO.C,C10*
X30220000Y-125490000D03*
X31180000Y-125490000D03*
G04 #@! TD*
D21*
G04 #@! TO.C,R37*
X9900000Y-127310000D03*
X9900000Y-126290000D03*
G04 #@! TD*
D38*
G04 #@! TO.C,C11*
X110400000Y-126380000D03*
X110400000Y-125420000D03*
G04 #@! TD*
D25*
G04 #@! TO.C,R17*
X41510000Y-91900000D03*
X40490000Y-91900000D03*
G04 #@! TD*
D14*
G04 #@! TO.C,R38*
X9900000Y-128490000D03*
X9900000Y-129510000D03*
G04 #@! TD*
D46*
G04 #@! TO.C,J9*
X91000000Y-67725000D03*
X92000000Y-67725000D03*
X93000000Y-67725000D03*
X94000000Y-67725000D03*
D47*
X89700000Y-71600000D03*
X95300000Y-71600000D03*
G04 #@! TD*
D15*
G04 #@! TO.C,C16*
X142715000Y-69920000D03*
X142715000Y-70880000D03*
G04 #@! TD*
D10*
G04 #@! TO.C,C13*
X91960000Y-133400000D03*
X91000000Y-133400000D03*
G04 #@! TD*
D25*
G04 #@! TO.C,R17*
X144510000Y-23900000D03*
X143490000Y-23900000D03*
G04 #@! TD*
D18*
G04 #@! TO.C,C2*
X177800000Y-29500000D03*
X172200000Y-29500000D03*
G04 #@! TD*
D25*
G04 #@! TO.C,R15*
X29510000Y-17000000D03*
X28490000Y-17000000D03*
G04 #@! TD*
D41*
G04 #@! TO.C,J6*
X187450000Y-85400000D03*
X184950000Y-85400000D03*
X182450000Y-85400000D03*
X179950000Y-85400000D03*
X177450000Y-85400000D03*
X174950000Y-85400000D03*
X172450000Y-85400000D03*
X169950000Y-85400000D03*
X167450000Y-85400000D03*
X164950000Y-85400000D03*
X190450000Y-78100000D03*
X161950000Y-78000000D03*
G04 #@! TD*
D51*
G04 #@! TO.C,JP1*
X152960000Y-54755000D03*
X155500000Y-51445000D03*
X158040000Y-54755000D03*
G04 #@! TD*
D55*
G04 #@! TO.C,U9*
X139025000Y-138125000D03*
X139025000Y-139375000D03*
X140375000Y-139375000D03*
X140375000Y-138125000D03*
G04 #@! TD*
D35*
G04 #@! TO.C,U1*
X8000000Y-100750000D03*
X9270000Y-100750000D03*
X10540000Y-100750000D03*
X11810000Y-100750000D03*
X13080000Y-100750000D03*
X14350000Y-100750000D03*
X15620000Y-100750000D03*
X16890000Y-100750000D03*
X18160000Y-100750000D03*
X19430000Y-100750000D03*
X20700000Y-100750000D03*
X21970000Y-100750000D03*
X23240000Y-100750000D03*
X24510000Y-100750000D03*
D36*
X25740000Y-98985000D03*
X25740000Y-97715000D03*
X25780000Y-96445000D03*
X25780000Y-95175000D03*
X25780000Y-93905000D03*
X25780000Y-92635000D03*
X25780000Y-91365000D03*
X25780000Y-90095000D03*
X25780000Y-88825000D03*
X25780000Y-87555000D03*
X25780000Y-86285000D03*
X25780000Y-85015000D03*
D35*
X24510000Y-83250000D03*
X23240000Y-83250000D03*
X21970000Y-83250000D03*
X20700000Y-83250000D03*
X19430000Y-83250000D03*
X18160000Y-83250000D03*
X16890000Y-83250000D03*
X15620000Y-83250000D03*
X14350000Y-83250000D03*
X13080000Y-83250000D03*
X11810000Y-83250000D03*
X10540000Y-83250000D03*
X9270000Y-83250000D03*
X8000000Y-83250000D03*
D37*
X14300000Y-94900000D03*
X15700000Y-94900000D03*
X17100000Y-94900000D03*
X14300000Y-93500000D03*
X15700000Y-93500000D03*
X17100000Y-93500000D03*
X14300000Y-92100000D03*
X15700000Y-92100000D03*
X17100000Y-92100000D03*
G04 #@! TD*
D14*
G04 #@! TO.C,R39*
X90200000Y-125090000D03*
X90200000Y-126110000D03*
G04 #@! TD*
D25*
G04 #@! TO.C,R17*
X41510000Y-23900000D03*
X40490000Y-23900000D03*
G04 #@! TD*
D41*
G04 #@! TO.C,J6*
X84450000Y-85400000D03*
X81950000Y-85400000D03*
X79450000Y-85400000D03*
X76950000Y-85400000D03*
X74450000Y-85400000D03*
X71950000Y-85400000D03*
X69450000Y-85400000D03*
X66950000Y-85400000D03*
X64450000Y-85400000D03*
X61950000Y-85400000D03*
X87450000Y-78100000D03*
X58950000Y-78000000D03*
G04 #@! TD*
D48*
G04 #@! TO.C,JP3*
X184355000Y-49740000D03*
X181045000Y-47200000D03*
X184355000Y-44660000D03*
G04 #@! TD*
D60*
G04 #@! TO.C,R20*
X44850000Y-43837500D03*
X44850000Y-45662500D03*
G04 #@! TD*
G04 #@! TO.C,R20*
X147850000Y-111837500D03*
X147850000Y-113662500D03*
G04 #@! TD*
D53*
G04 #@! TO.C,RN3*
X165420000Y-123400000D03*
D54*
X166220000Y-123400000D03*
X167020000Y-123400000D03*
D53*
X167820000Y-123400000D03*
X167820000Y-121600000D03*
D54*
X167020000Y-121600000D03*
X166220000Y-121600000D03*
D53*
X165420000Y-121600000D03*
G04 #@! TD*
D25*
G04 #@! TO.C,R71*
X195910000Y-35800000D03*
X194890000Y-35800000D03*
G04 #@! TD*
D21*
G04 #@! TO.C,R13*
X155700000Y-21800000D03*
X155700000Y-20780000D03*
G04 #@! TD*
G04 #@! TO.C,R19*
X51800000Y-80310000D03*
X51800000Y-79290000D03*
G04 #@! TD*
D25*
G04 #@! TO.C,R14*
X29500000Y-100000000D03*
X28480000Y-100000000D03*
G04 #@! TD*
D17*
G04 #@! TO.C,R8*
X22190000Y-55700000D03*
X23210000Y-55700000D03*
G04 #@! TD*
D15*
G04 #@! TO.C,C15*
X92400000Y-59320000D03*
X92400000Y-60280000D03*
G04 #@! TD*
D14*
G04 #@! TO.C,R39*
X193200000Y-125090000D03*
X193200000Y-126110000D03*
G04 #@! TD*
D58*
G04 #@! TO.C,J10*
X197725000Y-60300000D03*
X197725000Y-59300000D03*
X197725000Y-58300000D03*
X197725000Y-57300000D03*
D59*
X201600000Y-61600000D03*
X201600000Y-56000000D03*
G04 #@! TD*
D27*
G04 #@! TO.C,C8*
X44840000Y-48475000D03*
X45800000Y-48475000D03*
G04 #@! TD*
D57*
G04 #@! TO.C,C6*
X41050000Y-46700000D03*
X39150000Y-46700000D03*
G04 #@! TD*
D40*
G04 #@! TO.C,Q6*
X28650000Y-50262500D03*
X26750000Y-50262500D03*
X27700000Y-52137500D03*
G04 #@! TD*
D25*
G04 #@! TO.C,R12*
X55610000Y-92500000D03*
X54590000Y-92500000D03*
G04 #@! TD*
D19*
G04 #@! TO.C,R3*
X180787500Y-23900000D03*
X182612500Y-23900000D03*
G04 #@! TD*
D46*
G04 #@! TO.C,J8*
X6300000Y-67725000D03*
X7300000Y-67725000D03*
X8300000Y-67725000D03*
X9300000Y-67725000D03*
D47*
X5000000Y-71600000D03*
X10600000Y-71600000D03*
G04 #@! TD*
D13*
G04 #@! TO.C,C25*
X49500000Y-43850000D03*
X49500000Y-45750000D03*
G04 #@! TD*
D21*
G04 #@! TO.C,R13*
X52700000Y-21800000D03*
X52700000Y-20780000D03*
G04 #@! TD*
D14*
G04 #@! TO.C,R33*
X27800000Y-53990000D03*
X27800000Y-55010000D03*
G04 #@! TD*
D38*
G04 #@! TO.C,C19*
X90500000Y-85130000D03*
X90500000Y-84170000D03*
G04 #@! TD*
D14*
G04 #@! TO.C,R38*
X9900000Y-60490000D03*
X9900000Y-61510000D03*
G04 #@! TD*
D25*
G04 #@! TO.C,R15*
X132510000Y-85000000D03*
X131490000Y-85000000D03*
G04 #@! TD*
D15*
G04 #@! TO.C,C16*
X39715000Y-69920000D03*
X39715000Y-70880000D03*
G04 #@! TD*
D38*
G04 #@! TO.C,C19*
X193500000Y-85130000D03*
X193500000Y-84170000D03*
G04 #@! TD*
D17*
G04 #@! TO.C,R22*
X131490000Y-97300000D03*
X132510000Y-97300000D03*
G04 #@! TD*
D56*
G04 #@! TO.C,Q4*
X144295287Y-16947553D03*
X144295287Y-15047553D03*
X142420287Y-15997553D03*
G04 #@! TD*
D13*
G04 #@! TO.C,C25*
X152500000Y-43850000D03*
X152500000Y-45750000D03*
G04 #@! TD*
D25*
G04 #@! TO.C,R69*
X195910000Y-27400000D03*
X194890000Y-27400000D03*
G04 #@! TD*
D28*
G04 #@! TO.C,U3*
X148280000Y-91332500D03*
X149400000Y-91332500D03*
X150520000Y-91332500D03*
X148280000Y-90212500D03*
X149400000Y-90212500D03*
X150520000Y-90212500D03*
X148280000Y-89092500D03*
X149400000Y-89092500D03*
X150520000Y-89092500D03*
D29*
X147900000Y-92662500D03*
X148400000Y-92662500D03*
X148900000Y-92662500D03*
X149400000Y-92662500D03*
X149900000Y-92662500D03*
X150400000Y-92662500D03*
X150900000Y-92662500D03*
D30*
X151850000Y-91712500D03*
X151850000Y-91212500D03*
X151850000Y-90712500D03*
X151850000Y-90212500D03*
X151850000Y-89712500D03*
X151850000Y-89212500D03*
X151850000Y-88712500D03*
D29*
X150900000Y-87762500D03*
X150400000Y-87762500D03*
X149900000Y-87762500D03*
X149400000Y-87762500D03*
X148900000Y-87762500D03*
X148400000Y-87762500D03*
X147900000Y-87762500D03*
D30*
X146950000Y-88712500D03*
X146950000Y-89212500D03*
X146950000Y-89712500D03*
X146950000Y-90212500D03*
X146950000Y-90712500D03*
X146950000Y-91212500D03*
X146950000Y-91712500D03*
G04 #@! TD*
M02*
