G04 #@! TF.GenerationSoftware,KiCad,Pcbnew,10.0.2*
G04 #@! TF.CreationDate,2026-05-17T22:33:00+02:00*
G04 #@! TF.ProjectId,kik_panel,6b696b5f-7061-46e6-956c-2e6b69636164,rev?*
G04 #@! TF.SameCoordinates,Original*
G04 #@! TF.FileFunction,Profile,NP*
%FSLAX46Y46*%
G04 Gerber Fmt 4.6, Leading zero omitted, Abs format (unit mm)*
G04 Created by KiCad (PCBNEW 10.0.2) date 2026-05-17 22:33:00*
%MOMM*%
%LPD*%
G01*
G04 APERTURE LIST*
G04 #@! TA.AperFunction,Profile*
%ADD10C,0.100000*%
G04 #@! TD*
G04 APERTURE END LIST*
D10*
X0Y-1999000D02*
X0Y-5000000D01*
X0Y-5000000D02*
X13499000Y-5000000D01*
X0Y-11000000D02*
X0Y-69000000D01*
X0Y-69000000D02*
X5133Y-69202596D01*
X0Y-79000000D02*
X0Y-137000000D01*
X0Y-137000000D02*
X5133Y-137202596D01*
X0Y-143000000D02*
X0Y-146001000D01*
X0Y-146001000D02*
X1999000Y-148000000D01*
X5133Y-10797403D02*
X0Y-11000000D01*
X5133Y-69202596D02*
X20522Y-69404673D01*
X5133Y-78797403D02*
X0Y-79000000D01*
X5133Y-137202596D02*
X20522Y-137404673D01*
X20522Y-10595326D02*
X5133Y-10797403D01*
X20522Y-69404673D02*
X46126Y-69605711D01*
X20522Y-78595326D02*
X5133Y-78797403D01*
X20522Y-137404673D02*
X46126Y-137605711D01*
X46126Y-10394288D02*
X20522Y-10595326D01*
X46126Y-69605711D02*
X81880Y-69805194D01*
X46126Y-78394288D02*
X20522Y-78595326D01*
X46126Y-137605711D02*
X81880Y-137805194D01*
X81880Y-10194805D02*
X46126Y-10394288D01*
X81880Y-69805194D02*
X127691Y-70002610D01*
X81880Y-78194805D02*
X46126Y-78394288D01*
X81880Y-137805194D02*
X127691Y-138002610D01*
X127691Y-9997389D02*
X81880Y-10194805D01*
X127691Y-70002610D02*
X183442Y-70197452D01*
X127691Y-77997389D02*
X81880Y-78194805D01*
X127691Y-138002610D02*
X183442Y-138197452D01*
X183442Y-9802547D02*
X127691Y-9997389D01*
X183442Y-70197452D02*
X248991Y-70389221D01*
X183442Y-77802547D02*
X127691Y-77997389D01*
X183442Y-138197452D02*
X248991Y-138389221D01*
X248991Y-9610778D02*
X183442Y-9802547D01*
X248991Y-70389221D02*
X324168Y-70577423D01*
X248991Y-77610778D02*
X183442Y-77802547D01*
X248991Y-138389221D02*
X324168Y-138577423D01*
X324168Y-9422576D02*
X248991Y-9610778D01*
X324168Y-70577423D02*
X408781Y-70761576D01*
X324168Y-77422576D02*
X248991Y-77610778D01*
X324168Y-138577423D02*
X408781Y-138761576D01*
X408781Y-9238423D02*
X324168Y-9422576D01*
X408781Y-70761576D02*
X502613Y-70941207D01*
X408781Y-77238423D02*
X324168Y-77422576D01*
X408781Y-138761576D02*
X502613Y-138941207D01*
X502613Y-9058792D02*
X408781Y-9238423D01*
X502613Y-70941207D02*
X605422Y-71115856D01*
X502613Y-77058792D02*
X408781Y-77238423D01*
X502613Y-138941207D02*
X605422Y-139115856D01*
X605422Y-8884143D02*
X502613Y-9058792D01*
X605422Y-71115856D02*
X716946Y-71285072D01*
X605422Y-76884143D02*
X502613Y-77058792D01*
X605422Y-139115856D02*
X716946Y-139285072D01*
X716946Y-8714927D02*
X605422Y-8884143D01*
X716946Y-71285072D02*
X836897Y-71448423D01*
X716946Y-76714927D02*
X605422Y-76884143D01*
X716946Y-139285072D02*
X836897Y-139448423D01*
X836897Y-8551576D02*
X716946Y-8714927D01*
X836897Y-71448423D02*
X964967Y-71605489D01*
X836897Y-76551576D02*
X716946Y-76714927D01*
X836897Y-139448423D02*
X964967Y-139605489D01*
X964967Y-8394510D02*
X836897Y-8551576D01*
X964967Y-71605489D02*
X1100828Y-71755867D01*
X964967Y-76394510D02*
X836897Y-76551576D01*
X964967Y-139605489D02*
X1100828Y-139755867D01*
X1100828Y-8244132D02*
X964967Y-8394510D01*
X1100828Y-71755867D02*
X1244132Y-71899171D01*
X1100828Y-76244132D02*
X964967Y-76394510D01*
X1100828Y-139755867D02*
X1244132Y-139899171D01*
X1244132Y-8100828D02*
X1100828Y-8244132D01*
X1244132Y-71899171D02*
X1394510Y-72035032D01*
X1244132Y-76100828D02*
X1100828Y-76244132D01*
X1244132Y-139899171D02*
X1394510Y-140035032D01*
X1394510Y-7964967D02*
X1244132Y-8100828D01*
X1394510Y-72035032D02*
X1551576Y-72163102D01*
X1394510Y-75964967D02*
X1244132Y-76100828D01*
X1394510Y-140035032D02*
X1551576Y-140163102D01*
X1551576Y-7836897D02*
X1394510Y-7964967D01*
X1551576Y-72163102D02*
X1714927Y-72283053D01*
X1551576Y-75836897D02*
X1394510Y-75964967D01*
X1551576Y-140163102D02*
X1714927Y-140283053D01*
X1714927Y-7716946D02*
X1551576Y-7836897D01*
X1714927Y-72283053D02*
X1884143Y-72394577D01*
X1714927Y-75716946D02*
X1551576Y-75836897D01*
X1714927Y-140283053D02*
X1884143Y-140394577D01*
X1884143Y-7605422D02*
X1714927Y-7716946D01*
X1884143Y-72394577D02*
X2058792Y-72497386D01*
X1884143Y-75605422D02*
X1714927Y-75716946D01*
X1884143Y-140394577D02*
X2058792Y-140497386D01*
X1999000Y0D02*
X0Y-1999000D01*
X1999000Y-148000000D02*
X201001000Y-148000000D01*
X2058792Y-7502613D02*
X1884143Y-7605422D01*
X2058792Y-72497386D02*
X2238423Y-72591218D01*
X2058792Y-75502613D02*
X1884143Y-75605422D01*
X2058792Y-140497386D02*
X2238423Y-140591218D01*
X2238423Y-7408781D02*
X2058792Y-7502613D01*
X2238423Y-72591218D02*
X2422576Y-72675831D01*
X2238423Y-75408781D02*
X2058792Y-75502613D01*
X2238423Y-140591218D02*
X2422576Y-140675831D01*
X2422576Y-7324168D02*
X2238423Y-7408781D01*
X2422576Y-72675831D02*
X2610778Y-72751008D01*
X2422576Y-75324168D02*
X2238423Y-75408781D01*
X2422576Y-140675831D02*
X2610778Y-140751008D01*
X2610778Y-7248991D02*
X2422576Y-7324168D01*
X2610778Y-72751008D02*
X2802547Y-72816557D01*
X2610778Y-75248991D02*
X2422576Y-75324168D01*
X2610778Y-140751008D02*
X2802547Y-140816557D01*
X2802547Y-7183442D02*
X2610778Y-7248991D01*
X2802547Y-72816557D02*
X2997389Y-72872308D01*
X2802547Y-75183442D02*
X2610778Y-75248991D01*
X2802547Y-140816557D02*
X2997389Y-140872308D01*
X2997389Y-7127691D02*
X2802547Y-7183442D01*
X2997389Y-72872308D02*
X3194805Y-72918119D01*
X2997389Y-75127691D02*
X2802547Y-75183442D01*
X2997389Y-140872308D02*
X3194805Y-140918119D01*
X3194805Y-7081880D02*
X2997389Y-7127691D01*
X3194805Y-72918119D02*
X3394288Y-72953873D01*
X3194805Y-75081880D02*
X2997389Y-75127691D01*
X3194805Y-140918119D02*
X3394288Y-140953873D01*
X3394288Y-7046126D02*
X3194805Y-7081880D01*
X3394288Y-72953873D02*
X3595326Y-72979477D01*
X3394288Y-75046126D02*
X3194805Y-75081880D01*
X3394288Y-140953873D02*
X3595326Y-140979477D01*
X3595326Y-7020522D02*
X3394288Y-7046126D01*
X3595326Y-72979477D02*
X3797403Y-72994866D01*
X3595326Y-75020522D02*
X3394288Y-75046126D01*
X3595326Y-140979477D02*
X3797403Y-140994866D01*
X3797403Y-7005133D02*
X3595326Y-7020522D01*
X3797403Y-72994866D02*
X4000000Y-73000000D01*
X3797403Y-75005133D02*
X3595326Y-75020522D01*
X3797403Y-140994866D02*
X4000000Y-141000000D01*
X4000000Y-7000000D02*
X3797403Y-7005133D01*
X4000000Y-73000000D02*
X13499000Y-73000000D01*
X4000000Y-75000000D02*
X3797403Y-75005133D01*
X4000000Y-141000000D02*
X13499000Y-141000000D01*
X13499000Y-5000000D02*
X13573490Y-5003706D01*
X13499000Y-7000000D02*
X4000000Y-7000000D01*
X13499000Y-73000000D02*
X13597186Y-73005738D01*
X13499000Y-75000000D02*
X4000000Y-75000000D01*
X13499000Y-141000000D02*
X13597919Y-141005810D01*
X13499000Y-143000000D02*
X0Y-143000000D01*
X13573490Y-5003706D02*
X13622288Y-5008513D01*
X13573490Y-142996293D02*
X13499000Y-143000000D01*
X13597186Y-73005738D02*
X13669521Y-73015488D01*
X13597919Y-6994189D02*
X13499000Y-7000000D01*
X13597919Y-74994189D02*
X13499000Y-75000000D01*
X13597919Y-141005810D02*
X13646583Y-141011812D01*
X13622288Y-5008513D02*
X13670790Y-5015707D01*
X13622288Y-142991486D02*
X13573490Y-142996293D01*
X13646583Y-6988187D02*
X13597919Y-6994189D01*
X13646583Y-74988187D02*
X13597919Y-74994189D01*
X13646583Y-141011812D02*
X13694895Y-141020195D01*
X13669521Y-73015488D02*
X13717265Y-73024912D01*
X13670790Y-5015707D02*
X13718882Y-5025273D01*
X13670790Y-142984292D02*
X13622288Y-142991486D01*
X13694895Y-6979804D02*
X13646583Y-6988187D01*
X13694895Y-74979804D02*
X13646583Y-74988187D01*
X13694895Y-141020195D02*
X13742737Y-141030938D01*
X13717265Y-73024912D02*
X13764494Y-73036649D01*
X13718882Y-5025273D02*
X13766446Y-5037187D01*
X13742737Y-6969061D02*
X13694895Y-6979804D01*
X13742737Y-74969061D02*
X13694895Y-74979804D01*
X13742737Y-141030938D02*
X13789994Y-141044016D01*
X13742737Y-142969061D02*
X13670790Y-142984292D01*
X13764494Y-73036649D02*
X13811095Y-73050673D01*
X13766446Y-5037187D02*
X13836552Y-5059397D01*
X13789994Y-6955983D02*
X13742737Y-6969061D01*
X13789994Y-74955983D02*
X13742737Y-74969061D01*
X13789994Y-141044016D02*
X13836552Y-141059397D01*
X13789994Y-142955983D02*
X13742737Y-142969061D01*
X13811095Y-73050673D02*
X13856957Y-73066950D01*
X13836552Y-5059397D02*
X13882300Y-5077044D01*
X13836552Y-6940602D02*
X13789994Y-6955983D01*
X13836552Y-74940602D02*
X13789994Y-74955983D01*
X13836552Y-141059397D02*
X13882300Y-141077044D01*
X13836552Y-142940602D02*
X13789994Y-142955983D01*
X13856957Y-73066950D02*
X13901973Y-73085441D01*
X13882300Y-5077044D02*
X13927127Y-5096914D01*
X13882300Y-6922955D02*
X13836552Y-6940602D01*
X13882300Y-74922955D02*
X13836552Y-74940602D01*
X13882300Y-141077044D02*
X13927127Y-141096914D01*
X13882300Y-142922955D02*
X13836552Y-142940602D01*
X13901973Y-73085441D02*
X13946035Y-73106102D01*
X13927127Y-5096914D02*
X13970925Y-5118960D01*
X13927127Y-141096914D02*
X13970925Y-141118960D01*
X13927127Y-142903085D02*
X13882300Y-142922955D01*
X13946035Y-73106102D02*
X13989038Y-73128884D01*
X13949161Y-6892331D02*
X13882300Y-6922955D01*
X13949161Y-74892331D02*
X13882300Y-74922955D01*
X13970925Y-5118960D02*
X14013588Y-5143129D01*
X13970925Y-141118960D02*
X14034462Y-141155991D01*
X13989038Y-73128884D02*
X14030881Y-73153734D01*
X13992405Y-6869216D02*
X13949161Y-6892331D01*
X13992405Y-74869216D02*
X13949161Y-74892331D01*
X13992405Y-142869216D02*
X13927127Y-142903085D01*
X14013588Y-5143129D02*
X14055014Y-5169361D01*
X14030881Y-73153734D02*
X14071464Y-73180591D01*
X14034462Y-6844008D02*
X13992405Y-6869216D01*
X14034462Y-74844008D02*
X13992405Y-74869216D01*
X14034462Y-141155991D02*
X14075232Y-141183232D01*
X14034462Y-142844008D02*
X13992405Y-142869216D01*
X14055014Y-5169361D02*
X14095103Y-5197595D01*
X14071464Y-73180591D02*
X14110691Y-73209394D01*
X14075232Y-74816767D02*
X14034462Y-74844008D01*
X14075232Y-141183232D02*
X14114616Y-141212441D01*
X14075232Y-142816767D02*
X14034462Y-142844008D01*
X14095103Y-5197595D02*
X14133758Y-5227762D01*
X14095103Y-6802404D02*
X14034462Y-6844008D01*
X14110691Y-73209394D02*
X14148468Y-73240072D01*
X14114616Y-74787558D02*
X14075232Y-74816767D01*
X14114616Y-141212441D02*
X14152519Y-141243548D01*
X14114616Y-142787558D02*
X14075232Y-142816767D01*
X14133758Y-5227762D02*
X14170887Y-5259789D01*
X14148468Y-73240072D02*
X14184707Y-73272554D01*
X14152519Y-6756451D02*
X14095103Y-6802404D01*
X14152519Y-141243548D02*
X14188850Y-141276477D01*
X14152519Y-142756451D02*
X14114616Y-142787558D01*
X14170887Y-5259789D02*
X14206399Y-5293600D01*
X14170887Y-74740210D02*
X14114616Y-74787558D01*
X14184707Y-73272554D02*
X14235993Y-73324489D01*
X14188850Y-6723522D02*
X14152519Y-6756451D01*
X14188850Y-141276477D02*
X14223522Y-141311149D01*
X14188850Y-142723522D02*
X14152519Y-142756451D01*
X14206399Y-5293600D02*
X14240210Y-5329112D01*
X14206399Y-74706399D02*
X14170887Y-74740210D01*
X14223522Y-6688850D02*
X14188850Y-6723522D01*
X14223522Y-141311149D02*
X14256451Y-141347480D01*
X14223522Y-142688850D02*
X14188850Y-142723522D01*
X14235993Y-73324489D02*
X14268016Y-73361133D01*
X14240210Y-5329112D02*
X14272237Y-5366241D01*
X14240210Y-74670887D02*
X14206399Y-74706399D01*
X14256451Y-6652519D02*
X14223522Y-6688850D01*
X14256451Y-141347480D02*
X14302404Y-141404896D01*
X14268016Y-73361133D02*
X14298218Y-73399293D01*
X14272237Y-5366241D02*
X14302404Y-5404896D01*
X14272237Y-74633758D02*
X14240210Y-74670887D01*
X14272237Y-142633758D02*
X14223522Y-142688850D01*
X14287558Y-6614616D02*
X14256451Y-6652519D01*
X14298218Y-73399293D02*
X14326525Y-73438879D01*
X14302404Y-5404896D02*
X14330638Y-5444985D01*
X14302404Y-74595103D02*
X14272237Y-74633758D01*
X14302404Y-141404896D02*
X14330638Y-141444985D01*
X14302404Y-142595103D02*
X14272237Y-142633758D01*
X14316767Y-6575232D02*
X14287558Y-6614616D01*
X14326525Y-73438879D02*
X14352870Y-73479796D01*
X14330638Y-5444985D02*
X14356870Y-5486411D01*
X14330638Y-74555014D02*
X14302404Y-74595103D01*
X14330638Y-141444985D02*
X14356870Y-141486411D01*
X14330638Y-142555014D02*
X14302404Y-142595103D01*
X14344008Y-6534462D02*
X14316767Y-6575232D01*
X14352870Y-73479796D02*
X14377192Y-73521948D01*
X14356870Y-5486411D02*
X14381039Y-5529074D01*
X14356870Y-74513588D02*
X14330638Y-74555014D01*
X14356870Y-141486411D02*
X14381039Y-141529074D01*
X14356870Y-142513588D02*
X14330638Y-142555014D01*
X14377192Y-73521948D02*
X14399432Y-73565234D01*
X14381039Y-5529074D02*
X14403085Y-5572872D01*
X14381039Y-6470925D02*
X14344008Y-6534462D01*
X14381039Y-141529074D02*
X14403085Y-141572872D01*
X14381039Y-142470925D02*
X14356870Y-142513588D01*
X14392331Y-74449161D02*
X14356870Y-74513588D01*
X14399432Y-73565234D02*
X14428775Y-73632065D01*
X14403085Y-5572872D02*
X14432059Y-5640464D01*
X14403085Y-6427127D02*
X14381039Y-6470925D01*
X14403085Y-141572872D02*
X14422955Y-141617699D01*
X14403085Y-142427127D02*
X14381039Y-142470925D01*
X14413295Y-74404836D02*
X14392331Y-74449161D01*
X14422955Y-6382300D02*
X14403085Y-6427127D01*
X14422955Y-141617699D02*
X14440602Y-141663447D01*
X14422955Y-142382300D02*
X14403085Y-142427127D01*
X14428775Y-73632065D02*
X14445592Y-73677732D01*
X14432059Y-5640464D02*
X14448578Y-5686631D01*
X14432059Y-74359535D02*
X14413295Y-74404836D01*
X14440602Y-6336552D02*
X14422955Y-6382300D01*
X14440602Y-141663447D02*
X14455983Y-141710005D01*
X14440602Y-142336552D02*
X14422955Y-142382300D01*
X14445592Y-73677732D02*
X14460164Y-73724165D01*
X14448578Y-5686631D02*
X14462812Y-5733553D01*
X14455983Y-6289994D02*
X14440602Y-6336552D01*
X14455983Y-74289994D02*
X14432059Y-74359535D01*
X14455983Y-141710005D02*
X14469061Y-141757262D01*
X14455983Y-142289994D02*
X14440602Y-142336552D01*
X14460164Y-73724165D02*
X14472458Y-73771252D01*
X14462812Y-5733553D02*
X14474726Y-5781117D01*
X14469061Y-6242737D02*
X14455983Y-6289994D01*
X14469061Y-74242737D02*
X14455983Y-74289994D01*
X14469061Y-141757262D02*
X14484292Y-141829209D01*
X14469061Y-142242737D02*
X14455983Y-142289994D01*
X14472458Y-73771252D02*
X14482444Y-73818881D01*
X14474726Y-5781117D02*
X14484292Y-5829209D01*
X14479804Y-6194895D02*
X14469061Y-6242737D01*
X14479804Y-74194895D02*
X14469061Y-74242737D01*
X14479804Y-142194895D02*
X14469061Y-142242737D01*
X14482444Y-73818881D02*
X14490099Y-73866941D01*
X14484292Y-5829209D02*
X14491486Y-5877711D01*
X14484292Y-141829209D02*
X14491486Y-141877711D01*
X14488187Y-6146583D02*
X14479804Y-6194895D01*
X14488187Y-74146583D02*
X14479804Y-74194895D01*
X14488187Y-142146583D02*
X14479804Y-142194895D01*
X14490099Y-73866941D02*
X14495404Y-73915316D01*
X14491486Y-5877711D02*
X14496293Y-5926509D01*
X14491486Y-141877711D02*
X14496293Y-141926509D01*
X14494189Y-6097919D02*
X14488187Y-6146583D01*
X14494189Y-74097919D02*
X14488187Y-74146583D01*
X14494189Y-142097919D02*
X14488187Y-142146583D01*
X14495404Y-73915316D02*
X14498347Y-73963893D01*
X14496293Y-5926509D02*
X14498699Y-5975483D01*
X14496293Y-141926509D02*
X14498699Y-141975483D01*
X14498347Y-73963893D02*
X14498929Y-74010913D01*
X14498699Y-5975483D02*
X14498699Y-6024516D01*
X14498699Y-6024516D02*
X14494189Y-6097919D01*
X14498699Y-141975483D02*
X14498699Y-142024516D01*
X14498699Y-142024516D02*
X14494189Y-142097919D01*
X14498929Y-74010913D02*
X14494189Y-74097919D01*
X17501300Y-5975483D02*
X17503706Y-5926509D01*
X17501300Y-6024516D02*
X17501300Y-5975483D01*
X17501300Y-73975483D02*
X17503706Y-73926509D01*
X17501300Y-141975483D02*
X17503706Y-141926509D01*
X17501300Y-142024516D02*
X17501300Y-141975483D01*
X17501652Y-74036106D02*
X17501300Y-73975483D01*
X17503706Y-5926509D02*
X17508513Y-5877711D01*
X17503706Y-6073490D02*
X17501300Y-6024516D01*
X17503706Y-73926509D02*
X17508513Y-73877711D01*
X17503706Y-141926509D02*
X17508513Y-141877711D01*
X17503706Y-142073490D02*
X17501300Y-142024516D01*
X17504595Y-74084683D02*
X17501652Y-74036106D01*
X17508513Y-5877711D02*
X17515707Y-5829209D01*
X17508513Y-73877711D02*
X17515707Y-73829209D01*
X17508513Y-141877711D02*
X17515707Y-141829209D01*
X17509900Y-74133058D02*
X17504595Y-74084683D01*
X17511812Y-6146583D02*
X17503706Y-6073490D01*
X17511812Y-142146583D02*
X17503706Y-142073490D01*
X17515707Y-5829209D02*
X17525273Y-5781117D01*
X17515707Y-73829209D02*
X17525273Y-73781117D01*
X17515707Y-141829209D02*
X17525273Y-141781117D01*
X17517555Y-74181118D02*
X17509900Y-74133058D01*
X17520195Y-6194895D02*
X17511812Y-6146583D01*
X17520195Y-142194895D02*
X17511812Y-142146583D01*
X17525273Y-5781117D02*
X17544016Y-5710005D01*
X17525273Y-73781117D02*
X17544016Y-73710005D01*
X17525273Y-141781117D02*
X17544016Y-141710005D01*
X17527541Y-74228747D02*
X17517555Y-74181118D01*
X17530938Y-6242737D02*
X17520195Y-6194895D01*
X17530938Y-142242737D02*
X17520195Y-142194895D01*
X17544016Y-5710005D02*
X17559397Y-5663447D01*
X17544016Y-6289994D02*
X17530938Y-6242737D01*
X17544016Y-73710005D02*
X17559397Y-73663447D01*
X17544016Y-141710005D02*
X17567940Y-141640464D01*
X17544016Y-142289994D02*
X17530938Y-142242737D01*
X17546838Y-74299139D02*
X17527541Y-74228747D01*
X17559397Y-5663447D02*
X17577044Y-5617699D01*
X17559397Y-6336552D02*
X17544016Y-6289994D01*
X17559397Y-73663447D02*
X17577044Y-73617699D01*
X17559397Y-142336552D02*
X17544016Y-142289994D01*
X17562537Y-74345203D02*
X17546838Y-74299139D01*
X17567940Y-141640464D02*
X17586704Y-141595163D01*
X17577044Y-5617699D02*
X17607668Y-5550838D01*
X17577044Y-6382300D02*
X17559397Y-6336552D01*
X17577044Y-73617699D02*
X17607668Y-73550838D01*
X17577044Y-142382300D02*
X17559397Y-142336552D01*
X17580461Y-74390447D02*
X17562537Y-74345203D01*
X17586704Y-141595163D02*
X17607668Y-141550838D01*
X17596914Y-6427127D02*
X17577044Y-6382300D01*
X17607668Y-5550838D02*
X17630783Y-5507594D01*
X17607668Y-73550838D02*
X17630783Y-73507594D01*
X17607668Y-141550838D02*
X17630783Y-141507594D01*
X17607668Y-142449161D02*
X17577044Y-142382300D01*
X17611423Y-74456544D02*
X17580461Y-74390447D01*
X17618960Y-6470925D02*
X17596914Y-6427127D01*
X17630783Y-5507594D02*
X17655991Y-5465537D01*
X17630783Y-73507594D02*
X17655991Y-73465537D01*
X17630783Y-141507594D02*
X17655991Y-141465537D01*
X17630783Y-142492405D02*
X17607668Y-142449161D01*
X17634711Y-74499275D02*
X17611423Y-74456544D01*
X17643129Y-6513588D02*
X17618960Y-6470925D01*
X17655991Y-5465537D02*
X17697595Y-5404896D01*
X17655991Y-73465537D02*
X17683232Y-73424767D01*
X17655991Y-141465537D02*
X17697595Y-141404896D01*
X17660052Y-74540822D02*
X17634711Y-74499275D01*
X17669361Y-6555014D02*
X17643129Y-6513588D01*
X17669361Y-142555014D02*
X17630783Y-142492405D01*
X17683232Y-73424767D02*
X17712441Y-73385383D01*
X17687387Y-74581086D02*
X17660052Y-74540822D01*
X17697595Y-5404896D02*
X17727762Y-5366241D01*
X17697595Y-6595103D02*
X17669361Y-6555014D01*
X17697595Y-141404896D02*
X17727762Y-141366241D01*
X17697595Y-142595103D02*
X17669361Y-142555014D01*
X17712441Y-73385383D02*
X17759789Y-73329112D01*
X17716650Y-74619970D02*
X17687387Y-74581086D01*
X17727762Y-5366241D02*
X17759789Y-5329112D01*
X17727762Y-6633758D02*
X17697595Y-6595103D01*
X17727762Y-141366241D02*
X17759789Y-141329112D01*
X17727762Y-142633758D02*
X17697595Y-142595103D01*
X17747771Y-74657383D02*
X17716650Y-74619970D01*
X17759789Y-5329112D02*
X17811149Y-5276477D01*
X17759789Y-6670887D02*
X17727762Y-6633758D01*
X17759789Y-73329112D02*
X17793600Y-73293600D01*
X17759789Y-141329112D02*
X17793600Y-141293600D01*
X17759789Y-142670887D02*
X17727762Y-142633758D01*
X17793600Y-6706399D02*
X17759789Y-6670887D01*
X17793600Y-73293600D02*
X17829112Y-73259789D01*
X17793600Y-141293600D02*
X17829112Y-141259789D01*
X17793600Y-142706399D02*
X17759789Y-142670887D01*
X17797777Y-74710552D02*
X17747771Y-74657383D01*
X17811149Y-5276477D02*
X17847480Y-5243548D01*
X17829112Y-6740210D02*
X17793600Y-6706399D01*
X17829112Y-73259789D02*
X17866241Y-73227762D01*
X17829112Y-141259789D02*
X17866241Y-141227762D01*
X17833214Y-74743906D02*
X17797777Y-74710552D01*
X17847480Y-5243548D02*
X17885383Y-5212441D01*
X17847480Y-142756451D02*
X17793600Y-142706399D01*
X17866241Y-6772237D02*
X17829112Y-6740210D01*
X17866241Y-73227762D02*
X17904896Y-73197595D01*
X17866241Y-141227762D02*
X17904896Y-141197595D01*
X17870233Y-74775496D02*
X17833214Y-74743906D01*
X17885383Y-5212441D02*
X17924767Y-5183232D01*
X17885383Y-142787558D02*
X17847480Y-142756451D01*
X17904896Y-6802404D02*
X17866241Y-6772237D01*
X17904896Y-73197595D02*
X17944985Y-73169361D01*
X17904896Y-141197595D02*
X17944985Y-141169361D01*
X17908746Y-74805245D02*
X17870233Y-74775496D01*
X17924767Y-5183232D02*
X17965537Y-5155991D01*
X17924767Y-142816767D02*
X17885383Y-142787558D01*
X17944985Y-6830638D02*
X17904896Y-6802404D01*
X17944985Y-73169361D02*
X17986411Y-73143129D01*
X17944985Y-141169361D02*
X17986411Y-141143129D01*
X17948663Y-74833084D02*
X17908746Y-74805245D01*
X17965537Y-5155991D02*
X18007594Y-5130783D01*
X17965537Y-142844008D02*
X17924767Y-142816767D01*
X17986411Y-6856870D02*
X17944985Y-6830638D01*
X17986411Y-73143129D02*
X18050838Y-73107668D01*
X17986411Y-141143129D02*
X18050838Y-141107668D01*
X17989888Y-74858945D02*
X17948663Y-74833084D01*
X18007594Y-5130783D02*
X18050838Y-5107668D01*
X18007594Y-142869216D02*
X17965537Y-142844008D01*
X18029074Y-6881039D02*
X17986411Y-6856870D01*
X18032324Y-74882768D02*
X17989888Y-74858945D01*
X18050838Y-5107668D02*
X18095163Y-5086704D01*
X18050838Y-73107668D02*
X18095163Y-73086704D01*
X18050838Y-141107668D02*
X18095163Y-141086704D01*
X18050838Y-142892331D02*
X18007594Y-142869216D01*
X18072872Y-6903085D02*
X18029074Y-6881039D01*
X18075869Y-74904496D02*
X18032324Y-74882768D01*
X18095163Y-5086704D02*
X18140464Y-5067940D01*
X18095163Y-73086704D02*
X18140464Y-73067940D01*
X18095163Y-141086704D02*
X18140464Y-141067940D01*
X18095163Y-142913295D02*
X18050838Y-142892331D01*
X18117699Y-6922955D02*
X18072872Y-6903085D01*
X18140464Y-5067940D02*
X18210005Y-5044016D01*
X18140464Y-73067940D02*
X18186631Y-73051421D01*
X18140464Y-141067940D02*
X18186631Y-141051421D01*
X18140464Y-142932059D02*
X18095163Y-142913295D01*
X18143042Y-74933049D02*
X18075869Y-74904496D01*
X18163447Y-6940602D02*
X18117699Y-6922955D01*
X18186631Y-73051421D02*
X18233553Y-73037187D01*
X18186631Y-141051421D02*
X18233553Y-141037187D01*
X18186631Y-142948578D02*
X18140464Y-142932059D01*
X18188904Y-74949326D02*
X18143042Y-74933049D01*
X18210005Y-5044016D02*
X18257262Y-5030938D01*
X18210005Y-6955983D02*
X18163447Y-6940602D01*
X18233553Y-73037187D02*
X18305104Y-73020195D01*
X18233553Y-141037187D02*
X18305104Y-141020195D01*
X18233553Y-142962812D02*
X18186631Y-142948578D01*
X18235505Y-74963350D02*
X18188904Y-74949326D01*
X18257262Y-5030938D02*
X18305104Y-5020195D01*
X18257262Y-6969061D02*
X18210005Y-6955983D01*
X18281117Y-142974726D02*
X18233553Y-142962812D01*
X18282734Y-74975087D02*
X18235505Y-74963350D01*
X18305104Y-5020195D02*
X18353416Y-5011812D01*
X18305104Y-6979804D02*
X18257262Y-6969061D01*
X18305104Y-73020195D02*
X18353416Y-73011812D01*
X18305104Y-141020195D02*
X18353416Y-141011812D01*
X18329209Y-142984292D02*
X18281117Y-142974726D01*
X18330478Y-74984511D02*
X18282734Y-74975087D01*
X18353416Y-5011812D02*
X18395445Y-5006546D01*
X18353416Y-6988187D02*
X18305104Y-6979804D01*
X18353416Y-73011812D02*
X18402080Y-73005810D01*
X18353416Y-141011812D02*
X18402080Y-141005810D01*
X18377711Y-142991486D02*
X18329209Y-142984292D01*
X18378625Y-74991599D02*
X18330478Y-74984511D01*
X18395445Y-5006546D02*
X81499595Y-5001086D01*
X18402080Y-6994189D02*
X18353416Y-6988187D01*
X18402080Y-73005810D02*
X18500999Y-73000000D01*
X18402080Y-141005810D02*
X18500999Y-141000000D01*
X18426509Y-142996293D02*
X18377711Y-142991486D01*
X18427059Y-74996333D02*
X18378625Y-74991599D01*
X18500999Y-7000000D02*
X18402080Y-6994189D01*
X18500999Y-73000000D02*
X81499000Y-73000000D01*
X18500999Y-75000000D02*
X18427059Y-74996333D01*
X18500999Y-141000000D02*
X81499000Y-141000000D01*
X18500999Y-143000000D02*
X18426509Y-142996293D01*
X81499000Y-7000000D02*
X18500999Y-7000000D01*
X81499000Y-73000000D02*
X81597186Y-73005738D01*
X81499000Y-75000000D02*
X18500999Y-75000000D01*
X81499000Y-141000000D02*
X81597919Y-141005810D01*
X81499000Y-143000000D02*
X18500999Y-143000000D01*
X81499595Y-5001086D02*
X81548601Y-5002284D01*
X81548601Y-5002284D02*
X81597483Y-5005884D01*
X81597186Y-73005738D02*
X81645491Y-73011651D01*
X81597483Y-5005884D02*
X81646129Y-5011878D01*
X81597919Y-6994189D02*
X81499000Y-7000000D01*
X81597919Y-74994189D02*
X81499000Y-75000000D01*
X81597919Y-141005810D02*
X81646583Y-141011812D01*
X81597919Y-142994189D02*
X81499000Y-143000000D01*
X81645491Y-73011651D02*
X81693450Y-73019909D01*
X81646129Y-5011878D02*
X81694424Y-5020250D01*
X81646583Y-6988187D02*
X81597919Y-6994189D01*
X81646583Y-74988187D02*
X81597919Y-74994189D01*
X81646583Y-141011812D02*
X81694895Y-141020195D01*
X81646583Y-142988187D02*
X81597919Y-142994189D01*
X81693450Y-73019909D02*
X81740951Y-73030493D01*
X81694424Y-5020250D02*
X81742249Y-5030981D01*
X81694895Y-6979804D02*
X81646583Y-6988187D01*
X81694895Y-74979804D02*
X81646583Y-74988187D01*
X81694895Y-141020195D02*
X81742737Y-141030938D01*
X81694895Y-142979804D02*
X81646583Y-142988187D01*
X81740951Y-73030493D02*
X81787880Y-73043377D01*
X81742249Y-5030981D02*
X81789490Y-5044045D01*
X81742737Y-6969061D02*
X81694895Y-6979804D01*
X81742737Y-74969061D02*
X81694895Y-74979804D01*
X81742737Y-141030938D02*
X81789994Y-141044016D01*
X81742737Y-142969061D02*
X81694895Y-142979804D01*
X81787880Y-73043377D02*
X81834125Y-73058532D01*
X81789490Y-5044045D02*
X81836034Y-5059410D01*
X81789994Y-6955983D02*
X81742737Y-6969061D01*
X81789994Y-74955983D02*
X81742737Y-74969061D01*
X81789994Y-141044016D02*
X81836552Y-141059397D01*
X81789994Y-142955983D02*
X81742737Y-142969061D01*
X81834125Y-73058532D02*
X81879578Y-73075921D01*
X81836034Y-5059410D02*
X81881769Y-5077039D01*
X81836552Y-6940602D02*
X81789994Y-6955983D01*
X81836552Y-74940602D02*
X81789994Y-74955983D01*
X81836552Y-141059397D02*
X81882300Y-141077044D01*
X81836552Y-142940602D02*
X81789994Y-142955983D01*
X81879578Y-73075921D02*
X81924130Y-73095503D01*
X81881769Y-5077039D02*
X81926583Y-5096891D01*
X81882300Y-6922955D02*
X81836552Y-6940602D01*
X81882300Y-74922955D02*
X81836552Y-74940602D01*
X81882300Y-141077044D02*
X81927127Y-141096914D01*
X81882300Y-142922955D02*
X81836552Y-142940602D01*
X81924130Y-73095503D02*
X81967675Y-73117231D01*
X81926583Y-5096891D02*
X81970370Y-5118917D01*
X81927127Y-6903085D02*
X81882300Y-6922955D01*
X81927127Y-74903085D02*
X81882300Y-74922955D01*
X81927127Y-141096914D02*
X81970925Y-141118960D01*
X81927127Y-142903085D02*
X81882300Y-142922955D01*
X81967675Y-73117231D02*
X82010111Y-73141054D01*
X81970370Y-5118917D02*
X82013023Y-5143064D01*
X81970925Y-6881039D02*
X81927127Y-6903085D01*
X81970925Y-74881039D02*
X81927127Y-74903085D01*
X81970925Y-141118960D02*
X82013588Y-141143129D01*
X81970925Y-142881039D02*
X81927127Y-142903085D01*
X82010111Y-73141054D02*
X82051336Y-73166915D01*
X82013023Y-5143064D02*
X82054441Y-5169274D01*
X82013588Y-6856870D02*
X81970925Y-6881039D01*
X82013588Y-74856870D02*
X81970925Y-74881039D01*
X82013588Y-141143129D02*
X82055014Y-141169361D01*
X82013588Y-142856870D02*
X81970925Y-142881039D01*
X82051336Y-73166915D02*
X82091253Y-73194754D01*
X82054441Y-5169274D02*
X82094524Y-5197484D01*
X82055014Y-6830638D02*
X82013588Y-6856870D01*
X82055014Y-74830638D02*
X82013588Y-74856870D01*
X82055014Y-141169361D02*
X82095103Y-141197595D01*
X82055014Y-142830638D02*
X82013588Y-142856870D01*
X82091253Y-73194754D02*
X82129766Y-73224503D01*
X82094524Y-5197484D02*
X82133175Y-5227626D01*
X82095103Y-6802404D02*
X82055014Y-6830638D01*
X82095103Y-74802404D02*
X82055014Y-74830638D01*
X82095103Y-141197595D02*
X82133758Y-141227762D01*
X82095103Y-142802404D02*
X82055014Y-142830638D01*
X82129766Y-73224503D02*
X82166785Y-73256093D01*
X82133175Y-5227626D02*
X82170301Y-5259628D01*
X82133758Y-6772237D02*
X82095103Y-6802404D01*
X82133758Y-74772237D02*
X82095103Y-74802404D01*
X82133758Y-141227762D02*
X82170887Y-141259789D01*
X82133758Y-142772237D02*
X82095103Y-142802404D01*
X82166785Y-73256093D02*
X82202222Y-73289447D01*
X82170301Y-5259628D02*
X82205812Y-5293411D01*
X82170887Y-6740210D02*
X82133758Y-6772237D01*
X82170887Y-74740210D02*
X82133758Y-74772237D01*
X82170887Y-141259789D02*
X82206399Y-141293600D01*
X82170887Y-142740210D02*
X82133758Y-142772237D01*
X82202222Y-73289447D02*
X82235993Y-73324489D01*
X82205812Y-5293411D02*
X82239624Y-5328897D01*
X82206399Y-6706399D02*
X82170887Y-6740210D01*
X82206399Y-74706399D02*
X82170887Y-74740210D01*
X82206399Y-141293600D02*
X82240210Y-141329112D01*
X82206399Y-142706399D02*
X82170887Y-142740210D01*
X82235993Y-73324489D02*
X82268016Y-73361133D01*
X82239624Y-5328897D02*
X82271654Y-5365997D01*
X82240210Y-6670887D02*
X82206399Y-6706399D01*
X82240210Y-74670887D02*
X82206399Y-74706399D01*
X82240210Y-141329112D02*
X82272237Y-141366241D01*
X82240210Y-142670887D02*
X82206399Y-142706399D01*
X82268016Y-73361133D02*
X82298218Y-73399293D01*
X82271654Y-5365997D02*
X82301826Y-5404625D01*
X82272237Y-6633758D02*
X82240210Y-6670887D01*
X82272237Y-74633758D02*
X82240210Y-74670887D01*
X82272237Y-141366241D02*
X82302404Y-141404896D01*
X82272237Y-142633758D02*
X82240210Y-142670887D01*
X82298218Y-73399293D02*
X82326525Y-73438879D01*
X82301826Y-5404625D02*
X82330067Y-5444685D01*
X82302404Y-6595103D02*
X82272237Y-6633758D01*
X82302404Y-74595103D02*
X82272237Y-74633758D01*
X82302404Y-141404896D02*
X82330638Y-141444985D01*
X82302404Y-142595103D02*
X82272237Y-142633758D01*
X82326525Y-73438879D02*
X82352870Y-73479796D01*
X82330067Y-5444685D02*
X82356310Y-5486083D01*
X82330638Y-6555014D02*
X82302404Y-6595103D01*
X82330638Y-74555014D02*
X82302404Y-74595103D01*
X82330638Y-141444985D02*
X82356870Y-141486411D01*
X82330638Y-142555014D02*
X82302404Y-142595103D01*
X82352870Y-73479796D02*
X82377192Y-73521948D01*
X82356310Y-5486083D02*
X82380490Y-5528718D01*
X82356870Y-6513588D02*
X82330638Y-6555014D01*
X82356870Y-74513588D02*
X82330638Y-74555014D01*
X82356870Y-141486411D02*
X82381039Y-141529074D01*
X82356870Y-142513588D02*
X82330638Y-142555014D01*
X82377192Y-73521948D02*
X82399432Y-73565234D01*
X82380490Y-5528718D02*
X82402550Y-5572487D01*
X82381039Y-6470925D02*
X82356870Y-6513588D01*
X82381039Y-74470925D02*
X82356870Y-74513588D01*
X82381039Y-141529074D02*
X82403085Y-141572872D01*
X82381039Y-142470925D02*
X82356870Y-142513588D01*
X82399432Y-73565234D02*
X82419538Y-73609552D01*
X82402550Y-5572487D02*
X82422436Y-5617286D01*
X82403085Y-6427127D02*
X82381039Y-6470925D01*
X82403085Y-74427127D02*
X82381039Y-74470925D01*
X82403085Y-141572872D02*
X82422955Y-141617699D01*
X82403085Y-142427127D02*
X82381039Y-142470925D01*
X82419538Y-73609552D02*
X82437462Y-73654796D01*
X82422436Y-5617286D02*
X82440101Y-5663007D01*
X82422955Y-6382300D02*
X82403085Y-6427127D01*
X82422955Y-74382300D02*
X82403085Y-74427127D01*
X82422955Y-141617699D02*
X82440602Y-141663447D01*
X82422955Y-142382300D02*
X82403085Y-142427127D01*
X82437462Y-73654796D02*
X82453161Y-73700860D01*
X82440101Y-5663007D02*
X82455503Y-5709539D01*
X82440602Y-6336552D02*
X82422955Y-6382300D01*
X82440602Y-74336552D02*
X82422955Y-74382300D01*
X82440602Y-141663447D02*
X82455983Y-141710005D01*
X82440602Y-142336552D02*
X82422955Y-142382300D01*
X82453161Y-73700860D02*
X82466598Y-73747633D01*
X82455503Y-5709539D02*
X82468603Y-5756770D01*
X82455983Y-6289994D02*
X82440602Y-6336552D01*
X82455983Y-74289994D02*
X82440602Y-74336552D01*
X82455983Y-141710005D02*
X82469061Y-141757262D01*
X82455983Y-142289994D02*
X82440602Y-142336552D01*
X82466598Y-73747633D02*
X82477741Y-73795006D01*
X82468603Y-5756770D02*
X82479371Y-5804587D01*
X82469061Y-6242737D02*
X82455983Y-6289994D01*
X82469061Y-74242737D02*
X82455983Y-74289994D01*
X82469061Y-141757262D02*
X82479804Y-141805104D01*
X82469061Y-142242737D02*
X82455983Y-142289994D01*
X82477741Y-73795006D02*
X82486564Y-73842865D01*
X82479371Y-5804587D02*
X82487781Y-5852875D01*
X82479804Y-6194895D02*
X82469061Y-6242737D01*
X82479804Y-74194895D02*
X82469061Y-74242737D01*
X82479804Y-141805104D02*
X82488187Y-141853416D01*
X82479804Y-142194895D02*
X82469061Y-142242737D01*
X82486564Y-73842865D02*
X82493046Y-73891096D01*
X82487781Y-5852875D02*
X82493813Y-5901517D01*
X82488187Y-6146583D02*
X82479804Y-6194895D01*
X82488187Y-74146583D02*
X82479804Y-74194895D01*
X82488187Y-141853416D02*
X82494189Y-141902080D01*
X82488187Y-142146583D02*
X82479804Y-142194895D01*
X82493046Y-73891096D02*
X82497171Y-73939587D01*
X82493813Y-5901517D02*
X82497451Y-5950396D01*
X82494189Y-6097919D02*
X82488187Y-6146583D01*
X82494189Y-74097919D02*
X82488187Y-74146583D01*
X82494189Y-141902080D02*
X82497796Y-141950981D01*
X82494189Y-142097919D02*
X82488187Y-142146583D01*
X82497171Y-73939587D02*
X82499066Y-73999724D01*
X82497451Y-5950396D02*
X82498704Y-6024060D01*
X82497796Y-74049018D02*
X82494189Y-74097919D01*
X82497796Y-141950981D02*
X82499000Y-142005124D01*
X82497796Y-142049018D02*
X82494189Y-142097919D01*
X82498704Y-6024060D02*
X82494189Y-6097919D01*
X82499000Y-142005124D02*
X82497796Y-142049018D01*
X82499066Y-73999724D02*
X82497796Y-74049018D01*
X85500933Y-74000275D02*
X85502203Y-73950981D01*
X85501000Y-6000000D02*
X85502203Y-5950981D01*
X85501000Y-142000006D02*
X85503706Y-141926509D01*
X85502203Y-5950981D02*
X85508513Y-5877711D01*
X85502203Y-6049018D02*
X85501000Y-6000000D01*
X85502203Y-73950981D02*
X85505810Y-73902080D01*
X85503706Y-141926509D02*
X85508513Y-141877711D01*
X85504595Y-74084683D02*
X85500933Y-74000275D01*
X85504644Y-142085082D02*
X85501000Y-142000006D01*
X85505810Y-6097919D02*
X85502203Y-6049018D01*
X85505810Y-73902080D02*
X85511812Y-73853416D01*
X85508513Y-5877711D02*
X85515707Y-5829209D01*
X85508513Y-141877711D02*
X85515707Y-141829209D01*
X85509900Y-74133058D02*
X85504595Y-74084683D01*
X85511812Y-6146583D02*
X85505810Y-6097919D01*
X85511812Y-73853416D02*
X85520195Y-73805104D01*
X85513522Y-142157509D02*
X85504644Y-142085082D01*
X85515707Y-5829209D02*
X85525273Y-5781117D01*
X85515707Y-141829209D02*
X85530938Y-141757262D01*
X85517555Y-74181118D02*
X85509900Y-74133058D01*
X85520195Y-6194895D02*
X85511812Y-6146583D01*
X85520195Y-73805104D02*
X85530938Y-73757262D01*
X85525273Y-5781117D02*
X85537187Y-5733553D01*
X85527541Y-74228747D02*
X85517555Y-74181118D01*
X85527662Y-142229095D02*
X85513522Y-142157509D01*
X85530938Y-6242737D02*
X85520195Y-6194895D01*
X85530938Y-73757262D02*
X85544016Y-73710005D01*
X85530938Y-141757262D02*
X85544016Y-141710005D01*
X85537187Y-5733553D02*
X85551421Y-5686631D01*
X85539835Y-74275834D02*
X85527541Y-74228747D01*
X85539977Y-142276163D02*
X85527662Y-142229095D01*
X85544016Y-6289994D02*
X85530938Y-6242737D01*
X85544016Y-73710005D02*
X85567940Y-73640464D01*
X85544016Y-141710005D02*
X85559397Y-141663447D01*
X85551421Y-5686631D02*
X85577044Y-5617699D01*
X85554407Y-74322267D02*
X85539835Y-74275834D01*
X85554568Y-142322575D02*
X85539977Y-142276163D01*
X85559397Y-6336552D02*
X85544016Y-6289994D01*
X85559397Y-141663447D02*
X85577044Y-141617699D01*
X85567940Y-73640464D02*
X85586704Y-73595163D01*
X85571224Y-74367934D02*
X85554407Y-74322267D01*
X85577044Y-5617699D02*
X85596914Y-5572872D01*
X85577044Y-6382300D02*
X85559397Y-6336552D01*
X85577044Y-141617699D02*
X85596914Y-141572872D01*
X85580648Y-142390725D02*
X85554568Y-142322575D01*
X85586704Y-73595163D02*
X85607668Y-73550838D01*
X85596914Y-5572872D02*
X85618960Y-5529074D01*
X85596914Y-6427127D02*
X85577044Y-6382300D01*
X85596914Y-141572872D02*
X85630783Y-141507594D01*
X85600567Y-74434765D02*
X85571224Y-74367934D01*
X85600769Y-142435021D02*
X85580648Y-142390725D01*
X85607668Y-73550838D02*
X85643129Y-73486411D01*
X85618960Y-5529074D02*
X85655991Y-5465537D01*
X85618960Y-6470925D02*
X85596914Y-6427127D01*
X85622807Y-74478051D02*
X85600567Y-74434765D01*
X85623023Y-142478286D02*
X85600769Y-142435021D01*
X85630783Y-141507594D02*
X85669361Y-141444985D01*
X85643129Y-6513588D02*
X85618960Y-6470925D01*
X85643129Y-73486411D02*
X85669361Y-73444985D01*
X85647129Y-74520203D02*
X85622807Y-74478051D01*
X85647357Y-142520415D02*
X85623023Y-142478286D01*
X85655991Y-5465537D02*
X85697595Y-5404896D01*
X85669361Y-73444985D02*
X85697595Y-73404896D01*
X85669361Y-141444985D02*
X85697595Y-141404896D01*
X85673474Y-74561120D02*
X85647129Y-74520203D01*
X85673713Y-142561310D02*
X85647357Y-142520415D01*
X85683232Y-6575232D02*
X85643129Y-6513588D01*
X85697595Y-5404896D02*
X85743548Y-5347480D01*
X85697595Y-73404896D02*
X85727762Y-73366241D01*
X85697595Y-141404896D02*
X85727762Y-141366241D01*
X85701781Y-74600706D02*
X85673474Y-74561120D01*
X85712441Y-6614616D02*
X85683232Y-6575232D01*
X85716901Y-142620126D02*
X85673713Y-142561310D01*
X85727762Y-73366241D02*
X85759789Y-73329112D01*
X85727762Y-141366241D02*
X85759789Y-141329112D01*
X85731983Y-74638866D02*
X85701781Y-74600706D01*
X85743548Y-5347480D02*
X85793600Y-5293600D01*
X85759789Y-6670887D02*
X85712441Y-6614616D01*
X85759789Y-73329112D02*
X85793600Y-73293600D01*
X85759789Y-141329112D02*
X85793600Y-141293600D01*
X85764006Y-74675510D02*
X85731983Y-74638866D01*
X85764267Y-142675633D02*
X85716901Y-142620126D01*
X85793600Y-5293600D02*
X85829112Y-5259789D01*
X85793600Y-6706399D02*
X85759789Y-6670887D01*
X85793600Y-73293600D02*
X85829112Y-73259789D01*
X85793600Y-141293600D02*
X85847480Y-141243548D01*
X85798042Y-142710652D02*
X85764267Y-142675633D01*
X85815292Y-74727445D02*
X85764006Y-74675510D01*
X85829112Y-5259789D02*
X85866241Y-5227762D01*
X85829112Y-6740210D02*
X85793600Y-6706399D01*
X85829112Y-73259789D02*
X85866241Y-73227762D01*
X85833481Y-142743985D02*
X85798042Y-142710652D01*
X85847480Y-141243548D02*
X85885383Y-141212441D01*
X85851531Y-74759927D02*
X85815292Y-74727445D01*
X85866241Y-5227762D02*
X85904896Y-5197595D01*
X85866241Y-6772237D02*
X85829112Y-6740210D01*
X85866241Y-73227762D02*
X85904896Y-73197595D01*
X85885383Y-141212441D02*
X85924767Y-141183232D01*
X85889308Y-74790605D02*
X85851531Y-74759927D01*
X85889577Y-142790651D02*
X85833481Y-142743985D01*
X85904896Y-5197595D02*
X85944985Y-5169361D01*
X85904896Y-6802404D02*
X85866241Y-6772237D01*
X85904896Y-73197595D02*
X85944985Y-73169361D01*
X85924767Y-141183232D02*
X85986411Y-141143129D01*
X85928535Y-74819408D02*
X85889308Y-74790605D01*
X85928803Y-142819433D02*
X85889577Y-142790651D01*
X85944985Y-5169361D02*
X86007594Y-5130783D01*
X85944985Y-6830638D02*
X85904896Y-6802404D01*
X85944985Y-73169361D02*
X85986411Y-73143129D01*
X85969118Y-74846265D02*
X85928535Y-74819408D01*
X85969383Y-142846271D02*
X85928803Y-142819433D01*
X85986411Y-6856870D02*
X85944985Y-6830638D01*
X85986411Y-73143129D02*
X86050838Y-73107668D01*
X85986411Y-141143129D02*
X86029074Y-141118960D01*
X86007594Y-5130783D02*
X86072872Y-5096914D01*
X86010961Y-74871115D02*
X85969118Y-74846265D01*
X86011222Y-142871101D02*
X85969383Y-142846271D01*
X86029074Y-6881039D02*
X85986411Y-6856870D01*
X86029074Y-141118960D02*
X86072872Y-141096914D01*
X86050838Y-73107668D02*
X86117699Y-73077044D01*
X86053964Y-74893897D02*
X86010961Y-74871115D01*
X86054220Y-142893865D02*
X86011222Y-142871101D01*
X86072872Y-5096914D02*
X86117699Y-5077044D01*
X86072872Y-6903085D02*
X86029074Y-6881039D01*
X86072872Y-141096914D02*
X86140464Y-141067940D01*
X86098026Y-74914558D02*
X86053964Y-74893897D01*
X86117699Y-5077044D02*
X86163447Y-5059397D01*
X86117699Y-6922955D02*
X86072872Y-6903085D01*
X86117699Y-73077044D02*
X86163447Y-73059397D01*
X86120668Y-142924019D02*
X86054220Y-142893865D01*
X86140464Y-141067940D02*
X86186631Y-141051421D01*
X86143042Y-74933049D02*
X86098026Y-74914558D01*
X86163447Y-5059397D02*
X86233553Y-5037187D01*
X86163447Y-6940602D02*
X86117699Y-6922955D01*
X86163447Y-73059397D02*
X86210005Y-73044016D01*
X86166113Y-142941391D02*
X86120668Y-142924019D01*
X86186631Y-141051421D02*
X86233553Y-141037187D01*
X86210005Y-6955983D02*
X86163447Y-6940602D01*
X86210005Y-73044016D02*
X86257262Y-73030938D01*
X86212119Y-74956622D02*
X86143042Y-74933049D01*
X86212349Y-142956530D02*
X86166113Y-142941391D01*
X86233553Y-5037187D02*
X86281117Y-5025273D01*
X86233553Y-141037187D02*
X86305104Y-141020195D01*
X86257262Y-73030938D02*
X86305104Y-73020195D01*
X86259048Y-74969506D02*
X86212119Y-74956622D01*
X86281117Y-5025273D02*
X86329209Y-5015707D01*
X86281117Y-6974726D02*
X86210005Y-6955983D01*
X86282949Y-142974975D02*
X86212349Y-142956530D01*
X86305104Y-73020195D02*
X86353416Y-73011812D01*
X86305104Y-141020195D02*
X86353416Y-141011812D01*
X86306549Y-74980090D02*
X86259048Y-74969506D01*
X86329209Y-5015707D02*
X86402080Y-5005810D01*
X86329209Y-6984292D02*
X86281117Y-6974726D01*
X86353416Y-73011812D02*
X86402080Y-73005810D01*
X86353416Y-141011812D02*
X86402080Y-141005810D01*
X86354508Y-74988348D02*
X86306549Y-74980090D01*
X86354707Y-142988217D02*
X86282949Y-142974975D01*
X86377711Y-6991486D02*
X86329209Y-6984292D01*
X86402080Y-5005810D02*
X86500999Y-5000000D01*
X86402080Y-73005810D02*
X86500999Y-73000000D01*
X86402080Y-141005810D02*
X86500999Y-141000000D01*
X86402813Y-74994261D02*
X86354508Y-74988348D01*
X86403000Y-142994119D02*
X86354707Y-142988217D01*
X86426509Y-6996293D02*
X86377711Y-6991486D01*
X86451523Y-142997663D02*
X86403000Y-142994119D01*
X86500167Y-142998839D02*
X86451523Y-142997663D01*
X86500999Y-5000000D02*
X116498728Y-5000188D01*
X86500999Y-7000000D02*
X86426509Y-6996293D01*
X86500999Y-73000000D02*
X96000000Y-73000000D01*
X86500999Y-75000000D02*
X86402813Y-74994261D01*
X86500999Y-141000000D02*
X96000000Y-141000000D01*
X96000000Y-7000000D02*
X86500999Y-7000000D01*
X96000000Y-73000000D02*
X96202596Y-72994866D01*
X96000000Y-75000000D02*
X86500999Y-75000000D01*
X96000000Y-141000000D02*
X96202596Y-140994866D01*
X96202596Y-7005133D02*
X96000000Y-7000000D01*
X96202596Y-72994866D02*
X96404673Y-72979477D01*
X96202596Y-75005133D02*
X96000000Y-75000000D01*
X96202596Y-140994866D02*
X96404673Y-140979477D01*
X96404673Y-7020522D02*
X96202596Y-7005133D01*
X96404673Y-72979477D02*
X96605711Y-72953873D01*
X96404673Y-75020522D02*
X96202596Y-75005133D01*
X96404673Y-140979477D02*
X96605711Y-140953873D01*
X96605711Y-7046126D02*
X96404673Y-7020522D01*
X96605711Y-72953873D02*
X96805194Y-72918119D01*
X96605711Y-75046126D02*
X96404673Y-75020522D01*
X96605711Y-140953873D02*
X96805194Y-140918119D01*
X96805194Y-7081880D02*
X96605711Y-7046126D01*
X96805194Y-72918119D02*
X97002610Y-72872308D01*
X96805194Y-75081880D02*
X96605711Y-75046126D01*
X96805194Y-140918119D02*
X97002610Y-140872308D01*
X97002610Y-7127691D02*
X96805194Y-7081880D01*
X97002610Y-72872308D02*
X97197452Y-72816557D01*
X97002610Y-75127691D02*
X96805194Y-75081880D01*
X97002610Y-140872308D02*
X97197452Y-140816557D01*
X97197452Y-7183442D02*
X97002610Y-7127691D01*
X97197452Y-72816557D02*
X97389221Y-72751008D01*
X97197452Y-75183442D02*
X97002610Y-75127691D01*
X97197452Y-140816557D02*
X97389221Y-140751008D01*
X97389221Y-7248991D02*
X97197452Y-7183442D01*
X97389221Y-72751008D02*
X97577423Y-72675831D01*
X97389221Y-75248991D02*
X97197452Y-75183442D01*
X97389221Y-140751008D02*
X97577423Y-140675831D01*
X97577423Y-7324168D02*
X97389221Y-7248991D01*
X97577423Y-72675831D02*
X97761576Y-72591218D01*
X97577423Y-75324168D02*
X97389221Y-75248991D01*
X97577423Y-140675831D02*
X97761576Y-140591218D01*
X97761576Y-7408781D02*
X97577423Y-7324168D01*
X97761576Y-72591218D02*
X97941207Y-72497386D01*
X97761576Y-75408781D02*
X97577423Y-75324168D01*
X97761576Y-140591218D02*
X97941207Y-140497386D01*
X97941207Y-7502613D02*
X97761576Y-7408781D01*
X97941207Y-72497386D02*
X98115856Y-72394577D01*
X97941207Y-75502613D02*
X97761576Y-75408781D01*
X97941207Y-140497386D02*
X98115856Y-140394577D01*
X98115856Y-7605422D02*
X97941207Y-7502613D01*
X98115856Y-72394577D02*
X98285072Y-72283053D01*
X98115856Y-75605422D02*
X97941207Y-75502613D01*
X98115856Y-140394577D02*
X98285072Y-140283053D01*
X98285072Y-7716946D02*
X98115856Y-7605422D01*
X98285072Y-72283053D02*
X98448423Y-72163102D01*
X98285072Y-75716946D02*
X98115856Y-75605422D01*
X98285072Y-140283053D02*
X98448423Y-140163102D01*
X98448423Y-7836897D02*
X98285072Y-7716946D01*
X98448423Y-72163102D02*
X98605489Y-72035032D01*
X98448423Y-75836897D02*
X98285072Y-75716946D01*
X98448423Y-140163102D02*
X98605489Y-140035032D01*
X98605489Y-7964967D02*
X98448423Y-7836897D01*
X98605489Y-72035032D02*
X98755867Y-71899171D01*
X98605489Y-75964967D02*
X98448423Y-75836897D01*
X98605489Y-140035032D02*
X98755867Y-139899171D01*
X98755867Y-8100828D02*
X98605489Y-7964967D01*
X98755867Y-71899171D02*
X98899171Y-71755867D01*
X98755867Y-76100828D02*
X98605489Y-75964967D01*
X98755867Y-139899171D02*
X98899171Y-139755867D01*
X98899171Y-8244132D02*
X98755867Y-8100828D01*
X98899171Y-71755867D02*
X99035032Y-71605489D01*
X98899171Y-76244132D02*
X98755867Y-76100828D01*
X98899171Y-139755867D02*
X99035032Y-139605489D01*
X99035032Y-8394510D02*
X98899171Y-8244132D01*
X99035032Y-71605489D02*
X99163102Y-71448423D01*
X99035032Y-76394510D02*
X98899171Y-76244132D01*
X99035032Y-139605489D02*
X99163102Y-139448423D01*
X99163102Y-8551576D02*
X99035032Y-8394510D01*
X99163102Y-71448423D02*
X99283053Y-71285072D01*
X99163102Y-76551576D02*
X99035032Y-76394510D01*
X99163102Y-139448423D02*
X99283053Y-139285072D01*
X99283053Y-8714927D02*
X99163102Y-8551576D01*
X99283053Y-71285072D02*
X99394577Y-71115856D01*
X99283053Y-76714927D02*
X99163102Y-76551576D01*
X99283053Y-139285072D02*
X99394577Y-139115856D01*
X99394577Y-8884143D02*
X99283053Y-8714927D01*
X99394577Y-71115856D02*
X99497386Y-70941207D01*
X99394577Y-76884143D02*
X99283053Y-76714927D01*
X99394577Y-139115856D02*
X99497386Y-138941207D01*
X99497386Y-9058792D02*
X99394577Y-8884143D01*
X99497386Y-70941207D02*
X99591218Y-70761576D01*
X99497386Y-77058792D02*
X99394577Y-76884143D01*
X99497386Y-138941207D02*
X99591218Y-138761576D01*
X99591218Y-9238423D02*
X99497386Y-9058792D01*
X99591218Y-70761576D02*
X99675831Y-70577423D01*
X99591218Y-77238423D02*
X99497386Y-77058792D01*
X99591218Y-138761576D02*
X99675831Y-138577423D01*
X99675831Y-9422576D02*
X99591218Y-9238423D01*
X99675831Y-70577423D02*
X99751008Y-70389221D01*
X99675831Y-77422576D02*
X99591218Y-77238423D01*
X99675831Y-138577423D02*
X99751008Y-138389221D01*
X99751008Y-9610778D02*
X99675831Y-9422576D01*
X99751008Y-70389221D02*
X99816557Y-70197452D01*
X99751008Y-77610778D02*
X99675831Y-77422576D01*
X99751008Y-138389221D02*
X99816557Y-138197452D01*
X99816557Y-9802547D02*
X99751008Y-9610778D01*
X99816557Y-70197452D02*
X99872308Y-70002610D01*
X99816557Y-77802547D02*
X99751008Y-77610778D01*
X99816557Y-138197452D02*
X99872308Y-138002610D01*
X99872308Y-9997389D02*
X99816557Y-9802547D01*
X99872308Y-70002610D02*
X99918119Y-69805194D01*
X99872308Y-77997389D02*
X99816557Y-77802547D01*
X99872308Y-138002610D02*
X99918119Y-137805194D01*
X99918119Y-10194805D02*
X99872308Y-9997389D01*
X99918119Y-69805194D02*
X99953873Y-69605711D01*
X99918119Y-78194805D02*
X99872308Y-77997389D01*
X99918119Y-137805194D02*
X99953873Y-137605711D01*
X99953873Y-10394288D02*
X99918119Y-10194805D01*
X99953873Y-69605711D02*
X99979477Y-69404673D01*
X99953873Y-78394288D02*
X99918119Y-78194805D01*
X99953873Y-137605711D02*
X99979477Y-137404673D01*
X99979477Y-10595326D02*
X99953873Y-10394288D01*
X99979477Y-69404673D02*
X99994866Y-69202596D01*
X99979477Y-78595326D02*
X99953873Y-78394288D01*
X99979477Y-137404673D02*
X99994866Y-137202596D01*
X99994866Y-10797403D02*
X99979477Y-10595326D01*
X99994866Y-69202596D02*
X100000000Y-69000000D01*
X99994866Y-78797403D02*
X99979477Y-78595326D01*
X99994866Y-137202596D02*
X100000000Y-137000000D01*
X100000000Y-11000000D02*
X99994866Y-10797403D01*
X100000000Y-69000000D02*
X100000000Y-11000000D01*
X100000000Y-79000000D02*
X99994866Y-78797403D01*
X100000000Y-137000000D02*
X100000000Y-79000000D01*
X103000000Y-11000000D02*
X103000000Y-69000000D01*
X103000000Y-69000000D02*
X103005133Y-69202596D01*
X103000000Y-79000000D02*
X103000000Y-137000000D01*
X103000000Y-137000000D02*
X103005133Y-137202596D01*
X103005133Y-10797403D02*
X103000000Y-11000000D01*
X103005133Y-69202596D02*
X103020522Y-69404673D01*
X103005133Y-78797403D02*
X103000000Y-79000000D01*
X103005133Y-137202596D02*
X103020522Y-137404673D01*
X103020522Y-10595326D02*
X103005133Y-10797403D01*
X103020522Y-69404673D02*
X103046126Y-69605711D01*
X103020522Y-78595326D02*
X103005133Y-78797403D01*
X103020522Y-137404673D02*
X103046126Y-137605711D01*
X103046126Y-10394288D02*
X103020522Y-10595326D01*
X103046126Y-69605711D02*
X103081880Y-69805194D01*
X103046126Y-78394288D02*
X103020522Y-78595326D01*
X103046126Y-137605711D02*
X103081880Y-137805194D01*
X103081880Y-10194805D02*
X103046126Y-10394288D01*
X103081880Y-69805194D02*
X103127691Y-70002610D01*
X103081880Y-78194805D02*
X103046126Y-78394288D01*
X103081880Y-137805194D02*
X103127691Y-138002610D01*
X103127691Y-9997389D02*
X103081880Y-10194805D01*
X103127691Y-70002610D02*
X103183442Y-70197452D01*
X103127691Y-77997389D02*
X103081880Y-78194805D01*
X103127691Y-138002610D02*
X103183442Y-138197452D01*
X103183442Y-9802547D02*
X103127691Y-9997389D01*
X103183442Y-70197452D02*
X103248991Y-70389221D01*
X103183442Y-77802547D02*
X103127691Y-77997389D01*
X103183442Y-138197452D02*
X103248991Y-138389221D01*
X103248991Y-9610778D02*
X103183442Y-9802547D01*
X103248991Y-70389221D02*
X103324168Y-70577423D01*
X103248991Y-77610778D02*
X103183442Y-77802547D01*
X103248991Y-138389221D02*
X103324168Y-138577423D01*
X103324168Y-9422576D02*
X103248991Y-9610778D01*
X103324168Y-70577423D02*
X103408781Y-70761576D01*
X103324168Y-77422576D02*
X103248991Y-77610778D01*
X103324168Y-138577423D02*
X103408781Y-138761576D01*
X103408781Y-9238423D02*
X103324168Y-9422576D01*
X103408781Y-70761576D02*
X103502613Y-70941207D01*
X103408781Y-77238423D02*
X103324168Y-77422576D01*
X103408781Y-138761576D02*
X103502613Y-138941207D01*
X103502613Y-9058792D02*
X103408781Y-9238423D01*
X103502613Y-70941207D02*
X103605422Y-71115856D01*
X103502613Y-77058792D02*
X103408781Y-77238423D01*
X103502613Y-138941207D02*
X103605422Y-139115856D01*
X103605422Y-8884143D02*
X103502613Y-9058792D01*
X103605422Y-71115856D02*
X103716946Y-71285072D01*
X103605422Y-76884143D02*
X103502613Y-77058792D01*
X103605422Y-139115856D02*
X103716946Y-139285072D01*
X103716946Y-8714927D02*
X103605422Y-8884143D01*
X103716946Y-71285072D02*
X103836897Y-71448423D01*
X103716946Y-76714927D02*
X103605422Y-76884143D01*
X103716946Y-139285072D02*
X103836897Y-139448423D01*
X103836897Y-8551576D02*
X103716946Y-8714927D01*
X103836897Y-71448423D02*
X103964967Y-71605489D01*
X103836897Y-76551576D02*
X103716946Y-76714927D01*
X103836897Y-139448423D02*
X103964967Y-139605489D01*
X103964967Y-8394510D02*
X103836897Y-8551576D01*
X103964967Y-71605489D02*
X104100828Y-71755867D01*
X103964967Y-76394510D02*
X103836897Y-76551576D01*
X103964967Y-139605489D02*
X104100828Y-139755867D01*
X104100828Y-8244132D02*
X103964967Y-8394510D01*
X104100828Y-71755867D02*
X104244132Y-71899171D01*
X104100828Y-76244132D02*
X103964967Y-76394510D01*
X104100828Y-139755867D02*
X104244132Y-139899171D01*
X104244132Y-8100828D02*
X104100828Y-8244132D01*
X104244132Y-71899171D02*
X104394510Y-72035032D01*
X104244132Y-76100828D02*
X104100828Y-76244132D01*
X104244132Y-139899171D02*
X104394510Y-140035032D01*
X104394510Y-7964967D02*
X104244132Y-8100828D01*
X104394510Y-72035032D02*
X104551576Y-72163102D01*
X104394510Y-75964967D02*
X104244132Y-76100828D01*
X104394510Y-140035032D02*
X104551576Y-140163102D01*
X104551576Y-7836897D02*
X104394510Y-7964967D01*
X104551576Y-72163102D02*
X104714927Y-72283053D01*
X104551576Y-75836897D02*
X104394510Y-75964967D01*
X104551576Y-140163102D02*
X104714927Y-140283053D01*
X104714927Y-7716946D02*
X104551576Y-7836897D01*
X104714927Y-72283053D02*
X104884143Y-72394577D01*
X104714927Y-75716946D02*
X104551576Y-75836897D01*
X104714927Y-140283053D02*
X104884143Y-140394577D01*
X104884143Y-7605422D02*
X104714927Y-7716946D01*
X104884143Y-72394577D02*
X105058792Y-72497386D01*
X104884143Y-75605422D02*
X104714927Y-75716946D01*
X104884143Y-140394577D02*
X105058792Y-140497386D01*
X105058792Y-7502613D02*
X104884143Y-7605422D01*
X105058792Y-72497386D02*
X105238423Y-72591218D01*
X105058792Y-75502613D02*
X104884143Y-75605422D01*
X105058792Y-140497386D02*
X105238423Y-140591218D01*
X105238423Y-7408781D02*
X105058792Y-7502613D01*
X105238423Y-72591218D02*
X105422576Y-72675831D01*
X105238423Y-75408781D02*
X105058792Y-75502613D01*
X105238423Y-140591218D02*
X105422576Y-140675831D01*
X105422576Y-7324168D02*
X105238423Y-7408781D01*
X105422576Y-72675831D02*
X105610778Y-72751008D01*
X105422576Y-75324168D02*
X105238423Y-75408781D01*
X105422576Y-140675831D02*
X105610778Y-140751008D01*
X105610778Y-7248991D02*
X105422576Y-7324168D01*
X105610778Y-72751008D02*
X105802547Y-72816557D01*
X105610778Y-75248991D02*
X105422576Y-75324168D01*
X105610778Y-140751008D02*
X105802547Y-140816557D01*
X105802547Y-7183442D02*
X105610778Y-7248991D01*
X105802547Y-72816557D02*
X105997389Y-72872308D01*
X105802547Y-75183442D02*
X105610778Y-75248991D01*
X105802547Y-140816557D02*
X105997389Y-140872308D01*
X105997389Y-7127691D02*
X105802547Y-7183442D01*
X105997389Y-72872308D02*
X106194805Y-72918119D01*
X105997389Y-75127691D02*
X105802547Y-75183442D01*
X105997389Y-140872308D02*
X106194805Y-140918119D01*
X106194805Y-7081880D02*
X105997389Y-7127691D01*
X106194805Y-72918119D02*
X106394288Y-72953873D01*
X106194805Y-75081880D02*
X105997389Y-75127691D01*
X106194805Y-140918119D02*
X106394288Y-140953873D01*
X106394288Y-7046126D02*
X106194805Y-7081880D01*
X106394288Y-72953873D02*
X106595326Y-72979477D01*
X106394288Y-75046126D02*
X106194805Y-75081880D01*
X106394288Y-140953873D02*
X106595326Y-140979477D01*
X106595326Y-7020522D02*
X106394288Y-7046126D01*
X106595326Y-72979477D02*
X106797403Y-72994866D01*
X106595326Y-75020522D02*
X106394288Y-75046126D01*
X106595326Y-140979477D02*
X106797403Y-140994866D01*
X106797403Y-7005133D02*
X106595326Y-7020522D01*
X106797403Y-72994866D02*
X107000000Y-73000000D01*
X106797403Y-75005133D02*
X106595326Y-75020522D01*
X106797403Y-140994866D02*
X107000000Y-141000000D01*
X107000000Y-7000000D02*
X106797403Y-7005133D01*
X107000000Y-73000000D02*
X116499000Y-73000000D01*
X107000000Y-75000000D02*
X106797403Y-75005133D01*
X107000000Y-141000000D02*
X116499000Y-141000000D01*
X116498728Y-5000188D02*
X116597589Y-5005806D01*
X116499000Y-7000000D02*
X107000000Y-7000000D01*
X116499000Y-73000000D02*
X116597186Y-73005738D01*
X116499000Y-75000000D02*
X107000000Y-75000000D01*
X116499000Y-141000000D02*
X116573490Y-141003706D01*
X116573490Y-141003706D02*
X116622288Y-141008513D01*
X116597186Y-73005738D02*
X116645491Y-73011651D01*
X116597589Y-5005806D02*
X116646234Y-5011803D01*
X116597919Y-6994189D02*
X116499000Y-7000000D01*
X116597919Y-74994189D02*
X116499000Y-75000000D01*
X116599444Y-142994020D02*
X86500167Y-142998839D01*
X116622288Y-141008513D02*
X116670790Y-141015707D01*
X116645491Y-73011651D02*
X116693450Y-73019909D01*
X116646234Y-5011803D02*
X116694527Y-5020179D01*
X116646583Y-6988187D02*
X116597919Y-6994189D01*
X116646583Y-74988187D02*
X116597919Y-74994189D01*
X116646583Y-142988187D02*
X116599444Y-142994020D01*
X116670790Y-141015707D02*
X116742737Y-141030938D01*
X116693450Y-73019909D02*
X116764494Y-73036649D01*
X116694527Y-5020179D02*
X116766050Y-5037158D01*
X116694895Y-6979804D02*
X116646583Y-6988187D01*
X116694895Y-74979804D02*
X116646583Y-74988187D01*
X116694895Y-142979804D02*
X116646583Y-142988187D01*
X116742737Y-6969061D02*
X116694895Y-6979804D01*
X116742737Y-74969061D02*
X116694895Y-74979804D01*
X116742737Y-141030938D02*
X116789994Y-141044016D01*
X116764494Y-73036649D02*
X116811095Y-73050673D01*
X116766050Y-5037158D02*
X116812954Y-5051380D01*
X116766446Y-142962812D02*
X116694895Y-142979804D01*
X116789994Y-6955983D02*
X116742737Y-6969061D01*
X116789994Y-74955983D02*
X116742737Y-74969061D01*
X116789994Y-141044016D02*
X116836552Y-141059397D01*
X116811095Y-73050673D02*
X116856957Y-73066950D01*
X116812954Y-5051380D02*
X116859105Y-5067886D01*
X116836552Y-6940602D02*
X116789994Y-6955983D01*
X116836552Y-74940602D02*
X116789994Y-74955983D01*
X116836552Y-141059397D02*
X116882300Y-141077044D01*
X116836552Y-142940602D02*
X116766446Y-142962812D01*
X116856957Y-73066950D02*
X116901973Y-73085441D01*
X116859105Y-5067886D02*
X116926674Y-5096837D01*
X116882300Y-6922955D02*
X116836552Y-6940602D01*
X116882300Y-74922955D02*
X116836552Y-74940602D01*
X116882300Y-141077044D02*
X116927127Y-141096914D01*
X116901973Y-73085441D02*
X116946035Y-73106102D01*
X116904836Y-142913295D02*
X116836552Y-142940602D01*
X116926674Y-5096837D02*
X116970459Y-5118866D01*
X116927127Y-141096914D02*
X116970925Y-141118960D01*
X116946035Y-73106102D02*
X116989038Y-73128884D01*
X116949161Y-6892331D02*
X116882300Y-6922955D01*
X116949161Y-74892331D02*
X116882300Y-74922955D01*
X116970459Y-5118866D02*
X117013110Y-5143015D01*
X116970925Y-141118960D02*
X117013588Y-141143129D01*
X116970925Y-142881039D02*
X116904836Y-142913295D01*
X116989038Y-73128884D02*
X117030881Y-73153734D01*
X116992405Y-6869216D02*
X116949161Y-6892331D01*
X116992405Y-74869216D02*
X116949161Y-74892331D01*
X117013110Y-5143015D02*
X117054525Y-5169228D01*
X117013588Y-141143129D02*
X117075232Y-141183232D01*
X117030881Y-73153734D02*
X117071464Y-73180591D01*
X117034462Y-6844008D02*
X116992405Y-6869216D01*
X117034462Y-74844008D02*
X116992405Y-74869216D01*
X117034462Y-142844008D02*
X116970925Y-142881039D01*
X117054525Y-5169228D02*
X117094604Y-5197440D01*
X117071464Y-73180591D02*
X117110691Y-73209394D01*
X117075232Y-6816767D02*
X117034462Y-6844008D01*
X117075232Y-74816767D02*
X117034462Y-74844008D01*
X117075232Y-141183232D02*
X117114616Y-141212441D01*
X117075232Y-142816767D02*
X117034462Y-142844008D01*
X117094604Y-5197440D02*
X117133252Y-5227584D01*
X117110691Y-73209394D02*
X117166785Y-73256093D01*
X117114616Y-6787558D02*
X117075232Y-6816767D01*
X117114616Y-74787558D02*
X117075232Y-74816767D01*
X117114616Y-141212441D02*
X117152519Y-141243548D01*
X117114616Y-142787558D02*
X117075232Y-142816767D01*
X117133252Y-5227584D02*
X117170375Y-5259588D01*
X117152519Y-74756451D02*
X117114616Y-74787558D01*
X117152519Y-141243548D02*
X117188850Y-141276477D01*
X117166785Y-73256093D02*
X117202222Y-73289447D01*
X117170375Y-5259588D02*
X117223005Y-5310909D01*
X117170887Y-6740210D02*
X117114616Y-6787558D01*
X117170887Y-142740210D02*
X117114616Y-142787558D01*
X117188850Y-74723522D02*
X117152519Y-74756451D01*
X117188850Y-141276477D02*
X117223522Y-141311149D01*
X117202222Y-73289447D02*
X117235993Y-73324489D01*
X117206399Y-6706399D02*
X117170887Y-6740210D01*
X117223005Y-5310909D02*
X117255932Y-5347214D01*
X117223522Y-141311149D02*
X117256451Y-141347480D01*
X117223522Y-142688850D02*
X117170887Y-142740210D01*
X117235993Y-73324489D02*
X117268016Y-73361133D01*
X117240210Y-6670887D02*
X117206399Y-6706399D01*
X117240210Y-74670887D02*
X117188850Y-74723522D01*
X117255932Y-5347214D02*
X117287040Y-5385091D01*
X117256451Y-141347480D02*
X117287558Y-141385383D01*
X117256451Y-142652519D02*
X117223522Y-142688850D01*
X117268016Y-73361133D02*
X117298218Y-73399293D01*
X117272237Y-6633758D02*
X117240210Y-6670887D01*
X117287040Y-5385091D02*
X117316252Y-5424448D01*
X117287558Y-74614616D02*
X117240210Y-74670887D01*
X117287558Y-141385383D02*
X117316767Y-141424767D01*
X117287558Y-142614616D02*
X117256451Y-142652519D01*
X117298218Y-73399293D02*
X117326525Y-73438879D01*
X117302404Y-6595103D02*
X117272237Y-6633758D01*
X117316252Y-5424448D02*
X117343499Y-5465190D01*
X117316767Y-74575232D02*
X117287558Y-74614616D01*
X117316767Y-141424767D02*
X117344008Y-141465537D01*
X117326525Y-73438879D02*
X117352870Y-73479796D01*
X117330638Y-6555014D02*
X117302404Y-6595103D01*
X117330638Y-142555014D02*
X117287558Y-142614616D01*
X117343499Y-5465190D02*
X117368714Y-5507220D01*
X117344008Y-74534462D02*
X117316767Y-74575232D01*
X117344008Y-141465537D02*
X117369216Y-141507594D01*
X117352870Y-73479796D02*
X117377192Y-73521948D01*
X117356870Y-6513588D02*
X117330638Y-6555014D01*
X117368714Y-5507220D02*
X117391838Y-5550435D01*
X117369216Y-74492405D02*
X117344008Y-74534462D01*
X117369216Y-141507594D02*
X117403085Y-141572872D01*
X117369216Y-142492405D02*
X117330638Y-142555014D01*
X117377192Y-73521948D02*
X117399432Y-73565234D01*
X117391838Y-5550435D02*
X117422481Y-5617255D01*
X117392331Y-6449161D02*
X117356870Y-6513588D01*
X117392331Y-74449161D02*
X117369216Y-74492405D01*
X117399432Y-73565234D02*
X117428775Y-73632065D01*
X117403085Y-141572872D02*
X117422955Y-141617699D01*
X117403085Y-142427127D02*
X117369216Y-142492405D01*
X117413295Y-6404836D02*
X117392331Y-6449161D01*
X117413295Y-74404836D02*
X117392331Y-74449161D01*
X117422481Y-5617255D02*
X117440144Y-5662975D01*
X117422955Y-141617699D02*
X117440602Y-141663447D01*
X117428775Y-73632065D02*
X117445592Y-73677732D01*
X117432059Y-6359535D02*
X117413295Y-6404836D01*
X117432059Y-74359535D02*
X117413295Y-74404836D01*
X117432059Y-142359535D02*
X117403085Y-142427127D01*
X117440144Y-5662975D02*
X117455542Y-5709507D01*
X117440602Y-141663447D02*
X117455983Y-141710005D01*
X117445592Y-73677732D02*
X117460164Y-73724165D01*
X117448578Y-6313368D02*
X117432059Y-6359535D01*
X117448578Y-74313368D02*
X117432059Y-74359535D01*
X117455542Y-5709507D02*
X117468640Y-5756738D01*
X117455983Y-141710005D02*
X117469061Y-141757262D01*
X117455983Y-142289994D02*
X117432059Y-142359535D01*
X117460164Y-73724165D02*
X117472458Y-73771252D01*
X117462812Y-6266446D02*
X117448578Y-6313368D01*
X117462812Y-74266446D02*
X117448578Y-74313368D01*
X117468640Y-5756738D02*
X117479405Y-5804554D01*
X117469061Y-141757262D02*
X117479804Y-141805104D01*
X117472458Y-73771252D02*
X117482444Y-73818881D01*
X117474726Y-6218882D02*
X117462812Y-6266446D01*
X117474726Y-142218882D02*
X117455983Y-142289994D01*
X117479405Y-5804554D02*
X117487812Y-5852841D01*
X117479804Y-74194895D02*
X117462812Y-74266446D01*
X117479804Y-141805104D02*
X117488187Y-141853416D01*
X117482444Y-73818881D02*
X117490099Y-73866941D01*
X117484292Y-6170790D02*
X117474726Y-6218882D01*
X117484292Y-142170790D02*
X117474726Y-142218882D01*
X117487812Y-5852841D02*
X117493840Y-5901482D01*
X117488187Y-74146583D02*
X117479804Y-74194895D01*
X117488187Y-141853416D02*
X117494189Y-141902080D01*
X117490099Y-73866941D02*
X117495404Y-73915316D01*
X117491486Y-6122288D02*
X117484292Y-6170790D01*
X117491486Y-142122288D02*
X117484292Y-142170790D01*
X117493840Y-5901482D02*
X117498393Y-5974852D01*
X117494189Y-74097919D02*
X117488187Y-74146583D01*
X117494189Y-141902080D02*
X117497796Y-141950981D01*
X117495404Y-73915316D02*
X117499066Y-73999724D01*
X117496293Y-6073490D02*
X117491486Y-6122288D01*
X117496293Y-142073490D02*
X117491486Y-142122288D01*
X117497796Y-74049018D02*
X117494189Y-74097919D01*
X117497796Y-141950981D02*
X117498699Y-142024516D01*
X117498393Y-5974852D02*
X117498699Y-6024516D01*
X117498699Y-6024516D02*
X117496293Y-6073490D01*
X117498699Y-142024516D02*
X117496293Y-142073490D01*
X117499066Y-73999724D02*
X117497796Y-74049018D01*
X120500933Y-74000275D02*
X120502203Y-73950981D01*
X120501300Y-5975483D02*
X120503706Y-5926509D01*
X120501300Y-6024516D02*
X120501300Y-5975483D01*
X120501300Y-141975483D02*
X120505810Y-141902080D01*
X120501608Y-142025151D02*
X120501300Y-141975483D01*
X120502203Y-73950981D02*
X120505810Y-73902080D01*
X120502828Y-74060412D02*
X120500933Y-74000275D01*
X120503706Y-5926509D02*
X120508513Y-5877711D01*
X120503706Y-6073490D02*
X120501300Y-6024516D01*
X120504043Y-142074104D02*
X120501608Y-142025151D01*
X120505810Y-73902080D02*
X120511812Y-73853416D01*
X120505810Y-141902080D02*
X120511812Y-141853416D01*
X120506953Y-74108903D02*
X120502828Y-74060412D01*
X120508513Y-5877711D02*
X120515707Y-5829209D01*
X120508513Y-6122288D02*
X120503706Y-6073490D01*
X120508877Y-142122878D02*
X120504043Y-142074104D01*
X120511812Y-73853416D02*
X120520195Y-73805104D01*
X120511812Y-141853416D02*
X120520195Y-141805104D01*
X120513435Y-74157134D02*
X120506953Y-74108903D01*
X120515707Y-5829209D02*
X120525273Y-5781117D01*
X120515707Y-6170790D02*
X120508513Y-6122288D01*
X120516097Y-142171357D02*
X120508877Y-142122878D01*
X120520195Y-73805104D02*
X120530938Y-73757262D01*
X120520195Y-141805104D02*
X120530938Y-141757262D01*
X120522258Y-74204993D02*
X120513435Y-74157134D01*
X120525273Y-5781117D02*
X120537187Y-5733553D01*
X120525273Y-6218882D02*
X120515707Y-6170790D01*
X120525686Y-142219423D02*
X120516097Y-142171357D01*
X120530938Y-73757262D02*
X120544016Y-73710005D01*
X120530938Y-141757262D02*
X120551421Y-141686631D01*
X120537187Y-5733553D02*
X120551421Y-5686631D01*
X120537187Y-6266446D02*
X120525273Y-6218882D01*
X120537621Y-142266960D02*
X120525686Y-142219423D01*
X120539835Y-74275834D02*
X120522258Y-74204993D01*
X120544016Y-73710005D02*
X120559397Y-73663447D01*
X120551421Y-5686631D02*
X120577044Y-5617699D01*
X120551421Y-6313368D02*
X120537187Y-6266446D01*
X120551421Y-141686631D02*
X120567940Y-141640464D01*
X120559397Y-73663447D02*
X120577044Y-73617699D01*
X120559858Y-142337027D02*
X120537621Y-142266960D01*
X120562537Y-74345203D02*
X120539835Y-74275834D01*
X120567940Y-141640464D02*
X120586704Y-141595163D01*
X120577044Y-5617699D02*
X120596914Y-5572872D01*
X120577044Y-6382300D02*
X120551421Y-6313368D01*
X120577044Y-73617699D02*
X120596914Y-73572872D01*
X120577521Y-142382747D02*
X120559858Y-142337027D01*
X120580461Y-74390447D02*
X120562537Y-74345203D01*
X120586704Y-141595163D02*
X120607668Y-141550838D01*
X120596914Y-5572872D02*
X120618960Y-5529074D01*
X120596914Y-6427127D02*
X120577044Y-6382300D01*
X120596914Y-73572872D02*
X120630783Y-73507594D01*
X120597404Y-142427546D02*
X120577521Y-142382747D01*
X120600567Y-74434765D02*
X120580461Y-74390447D01*
X120607668Y-141550838D02*
X120630783Y-141507594D01*
X120618960Y-5529074D02*
X120643129Y-5486411D01*
X120618960Y-6470925D02*
X120596914Y-6427127D01*
X120619461Y-142471316D02*
X120597404Y-142427546D01*
X120622807Y-74478051D02*
X120600567Y-74434765D01*
X120630783Y-73507594D02*
X120655991Y-73465537D01*
X120630783Y-141507594D02*
X120669361Y-141444985D01*
X120643129Y-5486411D02*
X120669361Y-5444985D01*
X120643129Y-6513588D02*
X120618960Y-6470925D01*
X120643638Y-142513951D02*
X120619461Y-142471316D01*
X120655991Y-73465537D02*
X120683232Y-73424767D01*
X120660052Y-74540822D02*
X120622807Y-74478051D01*
X120669361Y-5444985D02*
X120697595Y-5404896D01*
X120669361Y-6555014D02*
X120643129Y-6513588D01*
X120669361Y-141444985D02*
X120697595Y-141404896D01*
X120669877Y-142555349D02*
X120643638Y-142513951D01*
X120683232Y-73424767D02*
X120727762Y-73366241D01*
X120687387Y-74581086D02*
X120660052Y-74540822D01*
X120697595Y-5404896D02*
X120727762Y-5366241D01*
X120697595Y-6595103D02*
X120669361Y-6555014D01*
X120697595Y-141404896D02*
X120727762Y-141366241D01*
X120698115Y-142595411D02*
X120669877Y-142555349D01*
X120716650Y-74619970D02*
X120687387Y-74581086D01*
X120727762Y-5366241D02*
X120759789Y-5329112D01*
X120727762Y-6633758D02*
X120697595Y-6595103D01*
X120727762Y-73366241D02*
X120759789Y-73329112D01*
X120727762Y-141366241D02*
X120759789Y-141329112D01*
X120744070Y-142652786D02*
X120698115Y-142595411D01*
X120747771Y-74657383D02*
X120716650Y-74619970D01*
X120759789Y-5329112D02*
X120793600Y-5293600D01*
X120759789Y-6670887D02*
X120727762Y-6633758D01*
X120759789Y-73329112D02*
X120793600Y-73293600D01*
X120759789Y-141329112D02*
X120793600Y-141293600D01*
X120776998Y-142689091D02*
X120744070Y-142652786D01*
X120780678Y-74693237D02*
X120747771Y-74657383D01*
X120793600Y-5293600D02*
X120829112Y-5259789D01*
X120793600Y-6706399D02*
X120759789Y-6670887D01*
X120793600Y-73293600D02*
X120847480Y-73243548D01*
X120793600Y-141293600D02*
X120847480Y-141243548D01*
X120811666Y-142723738D02*
X120776998Y-142689091D01*
X120815292Y-74727445D02*
X120780678Y-74693237D01*
X120829112Y-5259789D02*
X120866241Y-5227762D01*
X120829112Y-6740210D02*
X120793600Y-6706399D01*
X120847480Y-73243548D02*
X120885383Y-73212441D01*
X120847480Y-141243548D02*
X120904896Y-141197595D01*
X120847993Y-142756642D02*
X120811666Y-142723738D01*
X120866241Y-5227762D02*
X120904896Y-5197595D01*
X120866241Y-6772237D02*
X120829112Y-6740210D01*
X120870233Y-74775496D02*
X120815292Y-74727445D01*
X120885383Y-73212441D02*
X120924767Y-73183232D01*
X120904896Y-5197595D02*
X120944985Y-5169361D01*
X120904896Y-6802404D02*
X120866241Y-6772237D01*
X120904896Y-141197595D02*
X120944985Y-141169361D01*
X120905398Y-142802560D02*
X120847993Y-142756642D01*
X120908746Y-74805245D02*
X120870233Y-74775496D01*
X120924767Y-73183232D02*
X120986411Y-73143129D01*
X120944985Y-5169361D02*
X120986411Y-5143129D01*
X120944985Y-6830638D02*
X120904896Y-6802404D01*
X120944985Y-141169361D02*
X120986411Y-141143129D01*
X120945478Y-142830772D02*
X120905398Y-142802560D01*
X120948663Y-74833084D02*
X120908746Y-74805245D01*
X120986411Y-5143129D02*
X121029074Y-5118960D01*
X120986411Y-6856870D02*
X120944985Y-6830638D01*
X120986411Y-73143129D02*
X121050838Y-73107668D01*
X120986411Y-141143129D02*
X121029074Y-141118960D01*
X120986893Y-142856984D02*
X120945478Y-142830772D01*
X120989888Y-74858945D02*
X120948663Y-74833084D01*
X121029074Y-5118960D02*
X121072872Y-5096914D01*
X121029074Y-6881039D02*
X120986411Y-6856870D01*
X121029074Y-141118960D02*
X121072872Y-141096914D01*
X121029544Y-142881134D02*
X120986893Y-142856984D01*
X121032324Y-74882768D02*
X120989888Y-74858945D01*
X121050838Y-73107668D02*
X121095163Y-73086704D01*
X121072872Y-5096914D02*
X121117699Y-5077044D01*
X121072872Y-6903085D02*
X121029074Y-6881039D01*
X121072872Y-141096914D02*
X121140464Y-141067940D01*
X121073328Y-142903162D02*
X121029544Y-142881134D01*
X121075869Y-74904496D02*
X121032324Y-74882768D01*
X121095163Y-73086704D02*
X121140464Y-73067940D01*
X121117699Y-5077044D02*
X121163447Y-5059397D01*
X121117699Y-6922955D02*
X121072872Y-6903085D01*
X121118139Y-142923017D02*
X121073328Y-142903162D01*
X121140464Y-73067940D02*
X121210005Y-73044016D01*
X121140464Y-141067940D02*
X121210005Y-141044016D01*
X121143042Y-74933049D02*
X121075869Y-74904496D01*
X121163447Y-5059397D02*
X121210005Y-5044016D01*
X121163447Y-6940602D02*
X121117699Y-6922955D01*
X121163871Y-142940649D02*
X121118139Y-142923017D01*
X121188904Y-74949326D02*
X121143042Y-74933049D01*
X121210005Y-5044016D02*
X121257262Y-5030938D01*
X121210005Y-6955983D02*
X121163447Y-6940602D01*
X121210005Y-73044016D02*
X121257262Y-73030938D01*
X121210005Y-141044016D02*
X121257262Y-141030938D01*
X121210412Y-142956018D02*
X121163871Y-142940649D01*
X121235505Y-74963350D02*
X121188904Y-74949326D01*
X121257262Y-5030938D02*
X121305104Y-5020195D01*
X121257262Y-6969061D02*
X121210005Y-6955983D01*
X121257262Y-73030938D02*
X121305104Y-73020195D01*
X121257262Y-141030938D02*
X121305104Y-141020195D01*
X121281497Y-142974746D02*
X121210412Y-142956018D01*
X121282734Y-74975087D02*
X121235505Y-74963350D01*
X121305104Y-5020195D02*
X121353416Y-5011812D01*
X121305104Y-6979804D02*
X121257262Y-6969061D01*
X121305104Y-73020195D02*
X121353416Y-73011812D01*
X121305104Y-141020195D02*
X121353416Y-141011812D01*
X121329570Y-142984304D02*
X121281497Y-142974746D01*
X121330478Y-74984511D02*
X121282734Y-74975087D01*
X121353416Y-5011812D02*
X121402080Y-5005810D01*
X121353416Y-6988187D02*
X121305104Y-6979804D01*
X121353416Y-73011812D02*
X121402080Y-73005810D01*
X121353416Y-141011812D02*
X121402080Y-141005810D01*
X121378053Y-142991493D02*
X121329570Y-142984304D01*
X121378625Y-74991599D02*
X121330478Y-74984511D01*
X121402080Y-5005810D02*
X121500999Y-5000000D01*
X121402080Y-6994189D02*
X121353416Y-6988187D01*
X121402080Y-73005810D02*
X121500999Y-73000000D01*
X121402080Y-141005810D02*
X121500999Y-141000000D01*
X121426830Y-142996295D02*
X121378053Y-142991493D01*
X121427059Y-74996333D02*
X121378625Y-74991599D01*
X121500999Y-5000000D02*
X184498688Y-5000000D01*
X121500999Y-7000000D02*
X121402080Y-6994189D01*
X121500999Y-73000000D02*
X184499000Y-73000000D01*
X121500999Y-75000000D02*
X121427059Y-74996333D01*
X121500999Y-141000000D02*
X184499000Y-141000000D01*
X121501291Y-143000000D02*
X121426830Y-142996295D01*
X184498688Y-5000000D02*
X184597563Y-5005806D01*
X184499000Y-7000000D02*
X121500999Y-7000000D01*
X184499000Y-73000000D02*
X184597186Y-73005738D01*
X184499000Y-75000000D02*
X121500999Y-75000000D01*
X184499000Y-141000000D02*
X184597919Y-141005810D01*
X184499000Y-143000000D02*
X121501291Y-143000000D01*
X184597186Y-73005738D02*
X184645491Y-73011651D01*
X184597563Y-5005806D02*
X184646207Y-5011803D01*
X184597919Y-6994189D02*
X184499000Y-7000000D01*
X184597919Y-74994189D02*
X184499000Y-75000000D01*
X184597919Y-141005810D02*
X184646583Y-141011812D01*
X184597919Y-142994189D02*
X184499000Y-143000000D01*
X184645491Y-73011651D02*
X184693450Y-73019909D01*
X184646207Y-5011803D02*
X184694498Y-5020178D01*
X184646583Y-6988187D02*
X184597919Y-6994189D01*
X184646583Y-74988187D02*
X184597919Y-74994189D01*
X184646583Y-141011812D02*
X184694895Y-141020195D01*
X184646583Y-142988187D02*
X184597919Y-142994189D01*
X184693450Y-73019909D02*
X184740951Y-73030493D01*
X184694498Y-5020178D02*
X184742320Y-5030912D01*
X184694895Y-6979804D02*
X184646583Y-6988187D01*
X184694895Y-74979804D02*
X184646583Y-74988187D01*
X184694895Y-141020195D02*
X184742737Y-141030938D01*
X184694895Y-142979804D02*
X184646583Y-142988187D01*
X184740951Y-73030493D02*
X184787880Y-73043377D01*
X184742320Y-5030912D02*
X184789558Y-5043979D01*
X184742737Y-6969061D02*
X184694895Y-6979804D01*
X184742737Y-74969061D02*
X184694895Y-74979804D01*
X184742737Y-141030938D02*
X184789994Y-141044016D01*
X184742737Y-142969061D02*
X184694895Y-142979804D01*
X184787880Y-73043377D02*
X184834125Y-73058532D01*
X184789558Y-5043979D02*
X184836098Y-5059346D01*
X184789994Y-6955983D02*
X184742737Y-6969061D01*
X184789994Y-74955983D02*
X184742737Y-74969061D01*
X184789994Y-141044016D02*
X184836552Y-141059397D01*
X184789994Y-142955983D02*
X184742737Y-142969061D01*
X184834125Y-73058532D02*
X184879578Y-73075921D01*
X184836098Y-5059346D02*
X184881828Y-5076978D01*
X184836552Y-6940602D02*
X184789994Y-6955983D01*
X184836552Y-74940602D02*
X184789994Y-74955983D01*
X184836552Y-141059397D02*
X184882300Y-141077044D01*
X184836552Y-142940602D02*
X184789994Y-142955983D01*
X184879578Y-73075921D02*
X184924130Y-73095503D01*
X184881828Y-5076978D02*
X184926639Y-5096831D01*
X184882300Y-6922955D02*
X184836552Y-6940602D01*
X184882300Y-74922955D02*
X184836552Y-74940602D01*
X184882300Y-141077044D02*
X184927127Y-141096914D01*
X184882300Y-142922955D02*
X184836552Y-142940602D01*
X184924130Y-73095503D02*
X184967675Y-73117231D01*
X184926639Y-5096831D02*
X184970422Y-5118858D01*
X184927127Y-6903085D02*
X184882300Y-6922955D01*
X184927127Y-74903085D02*
X184882300Y-74922955D01*
X184927127Y-141096914D02*
X184970925Y-141118960D01*
X184927127Y-142903085D02*
X184882300Y-142922955D01*
X184967675Y-73117231D02*
X185010111Y-73141054D01*
X184970422Y-5118858D02*
X185013072Y-5143007D01*
X184970925Y-6881039D02*
X184927127Y-6903085D01*
X184970925Y-74881039D02*
X184927127Y-74903085D01*
X184970925Y-141118960D02*
X185013588Y-141143129D01*
X184970925Y-142881039D02*
X184927127Y-142903085D01*
X185010111Y-73141054D02*
X185051336Y-73166915D01*
X185013072Y-5143007D02*
X185054486Y-5169217D01*
X185013588Y-6856870D02*
X184970925Y-6881039D01*
X185013588Y-74856870D02*
X184970925Y-74881039D01*
X185013588Y-141143129D02*
X185055014Y-141169361D01*
X185013588Y-142856870D02*
X184970925Y-142881039D01*
X185051336Y-73166915D02*
X185091253Y-73194754D01*
X185054486Y-5169217D02*
X185094565Y-5197428D01*
X185055014Y-6830638D02*
X185013588Y-6856870D01*
X185055014Y-74830638D02*
X185013588Y-74856870D01*
X185055014Y-141169361D02*
X185095103Y-141197595D01*
X185055014Y-142830638D02*
X185013588Y-142856870D01*
X185091253Y-73194754D02*
X185129766Y-73224503D01*
X185094565Y-5197428D02*
X185133212Y-5227570D01*
X185095103Y-6802404D02*
X185055014Y-6830638D01*
X185095103Y-74802404D02*
X185055014Y-74830638D01*
X185095103Y-141197595D02*
X185133758Y-141227762D01*
X185095103Y-142802404D02*
X185055014Y-142830638D01*
X185129766Y-73224503D02*
X185166785Y-73256093D01*
X185133212Y-5227570D02*
X185170335Y-5259572D01*
X185133758Y-6772237D02*
X185095103Y-6802404D01*
X185133758Y-74772237D02*
X185095103Y-74802404D01*
X185133758Y-141227762D02*
X185170887Y-141259789D01*
X185133758Y-142772237D02*
X185095103Y-142802404D01*
X185166785Y-73256093D02*
X185202222Y-73289447D01*
X185170335Y-5259572D02*
X185205842Y-5293356D01*
X185170887Y-6740210D02*
X185133758Y-6772237D01*
X185170887Y-74740210D02*
X185133758Y-74772237D01*
X185170887Y-141259789D02*
X185206399Y-141293600D01*
X185170887Y-142740210D02*
X185133758Y-142772237D01*
X185202222Y-73289447D02*
X185235993Y-73324489D01*
X185205842Y-5293356D02*
X185239651Y-5328840D01*
X185206399Y-6706399D02*
X185170887Y-6740210D01*
X185206399Y-74706399D02*
X185170887Y-74740210D01*
X185206399Y-141293600D02*
X185240210Y-141329112D01*
X185206399Y-142706399D02*
X185170887Y-142740210D01*
X185235993Y-73324489D02*
X185268016Y-73361133D01*
X185239651Y-5328840D02*
X185271678Y-5365940D01*
X185240210Y-6670887D02*
X185206399Y-6706399D01*
X185240210Y-74670887D02*
X185206399Y-74706399D01*
X185240210Y-141329112D02*
X185272237Y-141366241D01*
X185240210Y-142670887D02*
X185206399Y-142706399D01*
X185268016Y-73361133D02*
X185298218Y-73399293D01*
X185271678Y-5365940D02*
X185301847Y-5404566D01*
X185272237Y-6633758D02*
X185240210Y-6670887D01*
X185272237Y-74633758D02*
X185240210Y-74670887D01*
X185272237Y-141366241D02*
X185302404Y-141404896D01*
X185272237Y-142633758D02*
X185240210Y-142670887D01*
X185298218Y-73399293D02*
X185326525Y-73438879D01*
X185301847Y-5404566D02*
X185330085Y-5444626D01*
X185302404Y-6595103D02*
X185272237Y-6633758D01*
X185302404Y-74595103D02*
X185272237Y-74633758D01*
X185302404Y-141404896D02*
X185330638Y-141444985D01*
X185302404Y-142595103D02*
X185272237Y-142633758D01*
X185326525Y-73438879D02*
X185352870Y-73479796D01*
X185330085Y-5444626D02*
X185356325Y-5486022D01*
X185330638Y-6555014D02*
X185302404Y-6595103D01*
X185330638Y-74555014D02*
X185302404Y-74595103D01*
X185330638Y-141444985D02*
X185356870Y-141486411D01*
X185330638Y-142555014D02*
X185302404Y-142595103D01*
X185352870Y-73479796D02*
X185377192Y-73521948D01*
X185356325Y-5486022D02*
X185380502Y-5528655D01*
X185356870Y-6513588D02*
X185330638Y-6555014D01*
X185356870Y-74513588D02*
X185330638Y-74555014D01*
X185356870Y-141486411D02*
X185381039Y-141529074D01*
X185356870Y-142513588D02*
X185330638Y-142555014D01*
X185377192Y-73521948D02*
X185399432Y-73565234D01*
X185380502Y-5528655D02*
X185402560Y-5572423D01*
X185381039Y-6470925D02*
X185356870Y-6513588D01*
X185381039Y-74470925D02*
X185356870Y-74513588D01*
X185381039Y-141529074D02*
X185403085Y-141572872D01*
X185381039Y-142470925D02*
X185356870Y-142513588D01*
X185399432Y-73565234D02*
X185419538Y-73609552D01*
X185402560Y-5572423D02*
X185422444Y-5617220D01*
X185403085Y-6427127D02*
X185381039Y-6470925D01*
X185403085Y-74427127D02*
X185381039Y-74470925D01*
X185403085Y-141572872D02*
X185422955Y-141617699D01*
X185403085Y-142427127D02*
X185381039Y-142470925D01*
X185419538Y-73609552D02*
X185437462Y-73654796D01*
X185422444Y-5617220D02*
X185440108Y-5662938D01*
X185422955Y-6382300D02*
X185403085Y-6427127D01*
X185422955Y-74382300D02*
X185403085Y-74427127D01*
X185422955Y-141617699D02*
X185440602Y-141663447D01*
X185422955Y-142382300D02*
X185403085Y-142427127D01*
X185437462Y-73654796D02*
X185453161Y-73700860D01*
X185440108Y-5662938D02*
X185455507Y-5709468D01*
X185440602Y-6336552D02*
X185422955Y-6382300D01*
X185440602Y-74336552D02*
X185422955Y-74382300D01*
X185440602Y-141663447D02*
X185455983Y-141710005D01*
X185440602Y-142336552D02*
X185422955Y-142382300D01*
X185453161Y-73700860D02*
X185466598Y-73747633D01*
X185455507Y-5709468D02*
X185468607Y-5756697D01*
X185455983Y-6289994D02*
X185440602Y-6336552D01*
X185455983Y-74289994D02*
X185440602Y-74336552D01*
X185455983Y-141710005D02*
X185469061Y-141757262D01*
X185455983Y-142289994D02*
X185440602Y-142336552D01*
X185466598Y-73747633D02*
X185477741Y-73795006D01*
X185468607Y-5756697D02*
X185479374Y-5804511D01*
X185469061Y-6242737D02*
X185455983Y-6289994D01*
X185469061Y-74242737D02*
X185455983Y-74289994D01*
X185469061Y-141757262D02*
X185479804Y-141805104D01*
X185469061Y-142242737D02*
X185455983Y-142289994D01*
X185477741Y-73795006D02*
X185486564Y-73842865D01*
X185479374Y-5804511D02*
X185487782Y-5852796D01*
X185479804Y-6194895D02*
X185469061Y-6242737D01*
X185479804Y-74194895D02*
X185469061Y-74242737D01*
X185479804Y-141805104D02*
X185488187Y-141853416D01*
X185479804Y-142194895D02*
X185469061Y-142242737D01*
X185486564Y-73842865D02*
X185493046Y-73891096D01*
X185487782Y-5852796D02*
X185493813Y-5901436D01*
X185488187Y-6146583D02*
X185479804Y-6194895D01*
X185488187Y-74146583D02*
X185479804Y-74194895D01*
X185488187Y-141853416D02*
X185494189Y-141902080D01*
X185488187Y-142146583D02*
X185479804Y-142194895D01*
X185493046Y-73891096D02*
X185497171Y-73939587D01*
X185493813Y-5901436D02*
X185497451Y-5950312D01*
X185494189Y-6097919D02*
X185488187Y-6146583D01*
X185494189Y-74097919D02*
X185488187Y-74146583D01*
X185494189Y-141902080D02*
X185497796Y-141950981D01*
X185494189Y-142097919D02*
X185488187Y-142146583D01*
X185497171Y-73939587D02*
X185499066Y-73999724D01*
X185497451Y-5950312D02*
X185498704Y-6024060D01*
X185497796Y-74049018D02*
X185494189Y-74097919D01*
X185497796Y-141950981D02*
X185499000Y-142005124D01*
X185497796Y-142049018D02*
X185494189Y-142097919D01*
X185498704Y-6024060D02*
X185494189Y-6097919D01*
X185499000Y-142005124D02*
X185497796Y-142049018D01*
X185499066Y-73999724D02*
X185497796Y-74049018D01*
X188501070Y-73989086D02*
X188505810Y-73902080D01*
X188501300Y-5975483D02*
X188503706Y-5926509D01*
X188501300Y-6024516D02*
X188501300Y-5975483D01*
X188501300Y-141975483D02*
X188505810Y-141902080D01*
X188501652Y-74036106D02*
X188501070Y-73989086D01*
X188502907Y-142061678D02*
X188501300Y-141975483D01*
X188503706Y-5926509D02*
X188508513Y-5877711D01*
X188503706Y-6073490D02*
X188501300Y-6024516D01*
X188504595Y-74084683D02*
X188501652Y-74036106D01*
X188505810Y-73902080D02*
X188511812Y-73853416D01*
X188505810Y-141902080D02*
X188511812Y-141853416D01*
X188507177Y-142110914D02*
X188502907Y-142061678D01*
X188508513Y-5877711D02*
X188515707Y-5829209D01*
X188508513Y-6122288D02*
X188503706Y-6073490D01*
X188509900Y-74133058D02*
X188504595Y-74084683D01*
X188511812Y-73853416D02*
X188520195Y-73805104D01*
X188511812Y-141853416D02*
X188520195Y-141805104D01*
X188513878Y-142159880D02*
X188507177Y-142110914D01*
X188515707Y-5829209D02*
X188525273Y-5781117D01*
X188515707Y-6170790D02*
X188508513Y-6122288D01*
X188517555Y-74181118D02*
X188509900Y-74133058D01*
X188520195Y-73805104D02*
X188537187Y-73733553D01*
X188520195Y-141805104D02*
X188530938Y-141757262D01*
X188522991Y-142208453D02*
X188513878Y-142159880D01*
X188525273Y-5781117D02*
X188544016Y-5710005D01*
X188525273Y-6218882D02*
X188515707Y-6170790D01*
X188527541Y-74228747D02*
X188517555Y-74181118D01*
X188530938Y-141757262D02*
X188544016Y-141710005D01*
X188534496Y-142256517D02*
X188522991Y-142208453D01*
X188537187Y-6266446D02*
X188525273Y-6218882D01*
X188537187Y-73733553D02*
X188551421Y-73686631D01*
X188539835Y-74275834D02*
X188527541Y-74228747D01*
X188544016Y-5710005D02*
X188559397Y-5663447D01*
X188544016Y-141710005D02*
X188559397Y-141663447D01*
X188548364Y-142303953D02*
X188534496Y-142256517D01*
X188551421Y-6313368D02*
X188537187Y-6266446D01*
X188551421Y-73686631D02*
X188567940Y-73640464D01*
X188554407Y-74322267D02*
X188539835Y-74275834D01*
X188559397Y-5663447D02*
X188577044Y-5617699D01*
X188559397Y-141663447D02*
X188577044Y-141617699D01*
X188564561Y-142350645D02*
X188548364Y-142303953D01*
X188567940Y-6359535D02*
X188551421Y-6313368D01*
X188567940Y-73640464D02*
X188586704Y-73595163D01*
X188571224Y-74367934D02*
X188554407Y-74322267D01*
X188577044Y-5617699D02*
X188596914Y-5572872D01*
X188577044Y-141617699D02*
X188596914Y-141572872D01*
X188583047Y-142396479D02*
X188564561Y-142350645D01*
X188586704Y-6404836D02*
X188567940Y-6359535D01*
X188586704Y-73595163D02*
X188607668Y-73550838D01*
X188590244Y-74412729D02*
X188571224Y-74367934D01*
X188596914Y-5572872D02*
X188618960Y-5529074D01*
X188596914Y-141572872D02*
X188618960Y-141529074D01*
X188603777Y-142441342D02*
X188583047Y-142396479D01*
X188607668Y-6449161D02*
X188586704Y-6404836D01*
X188607668Y-73550838D02*
X188630783Y-73507594D01*
X188611423Y-74456544D02*
X188590244Y-74412729D01*
X188618960Y-5529074D02*
X188655991Y-5465537D01*
X188618960Y-141529074D02*
X188655991Y-141465537D01*
X188626701Y-142485126D02*
X188603777Y-142441342D01*
X188630783Y-6492405D02*
X188607668Y-6449161D01*
X188630783Y-73507594D02*
X188655991Y-73465537D01*
X188634711Y-74499275D02*
X188611423Y-74456544D01*
X188651762Y-142527722D02*
X188626701Y-142485126D01*
X188655991Y-5465537D02*
X188683232Y-5424767D01*
X188655991Y-6534462D02*
X188630783Y-6492405D01*
X188655991Y-73465537D02*
X188683232Y-73424767D01*
X188655991Y-141465537D02*
X188683232Y-141424767D01*
X188660052Y-74540822D02*
X188634711Y-74499275D01*
X188683232Y-5424767D02*
X188712441Y-5385383D01*
X188683232Y-6575232D02*
X188655991Y-6534462D01*
X188683232Y-73424767D02*
X188712441Y-73385383D01*
X188683232Y-141424767D02*
X188712441Y-141385383D01*
X188687387Y-74581086D02*
X188660052Y-74540822D01*
X188693225Y-142589163D02*
X188651762Y-142527722D01*
X188712441Y-5385383D02*
X188743548Y-5347480D01*
X188712441Y-6614616D02*
X188683232Y-6575232D01*
X188712441Y-73385383D02*
X188759789Y-73329112D01*
X188712441Y-141385383D02*
X188759789Y-141329112D01*
X188716650Y-74619970D02*
X188687387Y-74581086D01*
X188723350Y-142628342D02*
X188693225Y-142589163D01*
X188743548Y-5347480D02*
X188776477Y-5311149D01*
X188755375Y-142665983D02*
X188723350Y-142628342D01*
X188759789Y-6670887D02*
X188712441Y-6614616D01*
X188759789Y-73329112D02*
X188793600Y-73293600D01*
X188759789Y-141329112D02*
X188793600Y-141293600D01*
X188764006Y-74675510D02*
X188716650Y-74619970D01*
X188776477Y-5311149D02*
X188829112Y-5259789D01*
X188789223Y-142701994D02*
X188755375Y-142665983D01*
X188793600Y-6706399D02*
X188759789Y-6670887D01*
X188793600Y-73293600D02*
X188829112Y-73259789D01*
X188793600Y-141293600D02*
X188829112Y-141259789D01*
X188797777Y-74710552D02*
X188764006Y-74675510D01*
X188824811Y-142736287D02*
X188789223Y-142701994D01*
X188829112Y-5259789D02*
X188866241Y-5227762D01*
X188829112Y-6740210D02*
X188793600Y-6706399D01*
X188829112Y-73259789D02*
X188866241Y-73227762D01*
X188829112Y-141259789D02*
X188866241Y-141227762D01*
X188833214Y-74743906D02*
X188797777Y-74710552D01*
X188862050Y-142768778D02*
X188824811Y-142736287D01*
X188866241Y-5227762D02*
X188904896Y-5197595D01*
X188866241Y-6772237D02*
X188829112Y-6740210D01*
X188866241Y-73227762D02*
X188904896Y-73197595D01*
X188866241Y-141227762D02*
X188904896Y-141197595D01*
X188870233Y-74775496D02*
X188833214Y-74743906D01*
X188900852Y-142799387D02*
X188862050Y-142768778D01*
X188904896Y-5197595D02*
X188944985Y-5169361D01*
X188904896Y-6802404D02*
X188866241Y-6772237D01*
X188904896Y-73197595D02*
X188944985Y-73169361D01*
X188904896Y-141197595D02*
X188944985Y-141169361D01*
X188908746Y-74805245D02*
X188870233Y-74775496D01*
X188941119Y-142828041D02*
X188900852Y-142799387D01*
X188944985Y-5169361D02*
X188986411Y-5143129D01*
X188944985Y-6830638D02*
X188904896Y-6802404D01*
X188944985Y-73169361D02*
X188986411Y-73143129D01*
X188944985Y-141169361D02*
X188986411Y-141143129D01*
X188969118Y-74846265D02*
X188908746Y-74805245D01*
X188982754Y-142854667D02*
X188941119Y-142828041D01*
X188986411Y-5143129D02*
X189029074Y-5118960D01*
X188986411Y-6856870D02*
X188944985Y-6830638D01*
X188986411Y-73143129D02*
X189050838Y-73107668D01*
X188986411Y-141143129D02*
X189050838Y-141107668D01*
X189010961Y-74871115D02*
X188969118Y-74846265D01*
X189025656Y-142879202D02*
X188982754Y-142854667D01*
X189029074Y-5118960D02*
X189072872Y-5096914D01*
X189050838Y-6892331D02*
X188986411Y-6856870D01*
X189050838Y-73107668D02*
X189095163Y-73086704D01*
X189050838Y-141107668D02*
X189117699Y-141077044D01*
X189053964Y-74893897D02*
X189010961Y-74871115D01*
X189069718Y-142901585D02*
X189025656Y-142879202D01*
X189072872Y-5096914D02*
X189117699Y-5077044D01*
X189095163Y-6913295D02*
X189050838Y-6892331D01*
X189095163Y-73086704D02*
X189140464Y-73067940D01*
X189114833Y-142921762D02*
X189069718Y-142901585D01*
X189117699Y-5077044D02*
X189163447Y-5059397D01*
X189117699Y-141077044D02*
X189163447Y-141059397D01*
X189120421Y-74924078D02*
X189053964Y-74893897D01*
X189140464Y-6932059D02*
X189095163Y-6913295D01*
X189140464Y-73067940D02*
X189210005Y-73044016D01*
X189160891Y-142939683D02*
X189114833Y-142921762D01*
X189163447Y-5059397D02*
X189233553Y-5037187D01*
X189163447Y-141059397D02*
X189210005Y-141044016D01*
X189165874Y-74941467D02*
X189120421Y-74924078D01*
X189207778Y-142955304D02*
X189160891Y-142939683D01*
X189210005Y-6955983D02*
X189140464Y-6932059D01*
X189210005Y-73044016D02*
X189257262Y-73030938D01*
X189210005Y-141044016D02*
X189257262Y-141030938D01*
X189212119Y-74956622D02*
X189165874Y-74941467D01*
X189233553Y-5037187D02*
X189281117Y-5025273D01*
X189255381Y-142968587D02*
X189207778Y-142955304D01*
X189257262Y-6969061D02*
X189210005Y-6955983D01*
X189257262Y-73030938D02*
X189305104Y-73020195D01*
X189257262Y-141030938D02*
X189305104Y-141020195D01*
X189259048Y-74969506D02*
X189212119Y-74956622D01*
X189281117Y-5025273D02*
X189329209Y-5015707D01*
X189305104Y-6979804D02*
X189257262Y-6969061D01*
X189305104Y-73020195D02*
X189353416Y-73011812D01*
X189305104Y-141020195D02*
X189353416Y-141011812D01*
X189306549Y-74980090D02*
X189259048Y-74969506D01*
X189327871Y-142984059D02*
X189255381Y-142968587D01*
X189329209Y-5015707D02*
X189377711Y-5008513D01*
X189353416Y-6988187D02*
X189305104Y-6979804D01*
X189353416Y-73011812D02*
X189402080Y-73005810D01*
X189353416Y-141011812D02*
X189402080Y-141005810D01*
X189354508Y-74988348D02*
X189306549Y-74980090D01*
X189376750Y-142991367D02*
X189327871Y-142984059D01*
X189377711Y-5008513D02*
X189426509Y-5003706D01*
X189402080Y-6994189D02*
X189353416Y-6988187D01*
X189402080Y-73005810D02*
X189500999Y-73000000D01*
X189402080Y-141005810D02*
X189500999Y-141000000D01*
X189402813Y-74994261D02*
X189354508Y-74988348D01*
X189425929Y-142996250D02*
X189376750Y-142991367D01*
X189426509Y-5003706D02*
X189500999Y-5000000D01*
X189500999Y-5000000D02*
X203000000Y-5000000D01*
X189500999Y-7000000D02*
X189402080Y-6994189D01*
X189500999Y-73000000D02*
X199000000Y-73000000D01*
X189500999Y-75000000D02*
X189402813Y-74994261D01*
X189500999Y-141000000D02*
X199000000Y-141000000D01*
X189501001Y-143000000D02*
X189425929Y-142996250D01*
X199000000Y-7000000D02*
X189500999Y-7000000D01*
X199000000Y-73000000D02*
X199202596Y-72994866D01*
X199000000Y-75000000D02*
X189500999Y-75000000D01*
X199000000Y-141000000D02*
X199202596Y-140994866D01*
X199202596Y-7005133D02*
X199000000Y-7000000D01*
X199202596Y-72994866D02*
X199404673Y-72979477D01*
X199202596Y-75005133D02*
X199000000Y-75000000D01*
X199202596Y-140994866D02*
X199404673Y-140979477D01*
X199404673Y-7020522D02*
X199202596Y-7005133D01*
X199404673Y-72979477D02*
X199605711Y-72953873D01*
X199404673Y-75020522D02*
X199202596Y-75005133D01*
X199404673Y-140979477D02*
X199605711Y-140953873D01*
X199605711Y-7046126D02*
X199404673Y-7020522D01*
X199605711Y-72953873D02*
X199805194Y-72918119D01*
X199605711Y-75046126D02*
X199404673Y-75020522D01*
X199605711Y-140953873D02*
X199805194Y-140918119D01*
X199805194Y-7081880D02*
X199605711Y-7046126D01*
X199805194Y-72918119D02*
X200002610Y-72872308D01*
X199805194Y-75081880D02*
X199605711Y-75046126D01*
X199805194Y-140918119D02*
X200002610Y-140872308D01*
X200002610Y-7127691D02*
X199805194Y-7081880D01*
X200002610Y-72872308D02*
X200197452Y-72816557D01*
X200002610Y-75127691D02*
X199805194Y-75081880D01*
X200002610Y-140872308D02*
X200197452Y-140816557D01*
X200197452Y-7183442D02*
X200002610Y-7127691D01*
X200197452Y-72816557D02*
X200389221Y-72751008D01*
X200197452Y-75183442D02*
X200002610Y-75127691D01*
X200197452Y-140816557D02*
X200389221Y-140751008D01*
X200389221Y-7248991D02*
X200197452Y-7183442D01*
X200389221Y-72751008D02*
X200577423Y-72675831D01*
X200389221Y-75248991D02*
X200197452Y-75183442D01*
X200389221Y-140751008D02*
X200577423Y-140675831D01*
X200577423Y-7324168D02*
X200389221Y-7248991D01*
X200577423Y-72675831D02*
X200761576Y-72591218D01*
X200577423Y-75324168D02*
X200389221Y-75248991D01*
X200577423Y-140675831D02*
X200761576Y-140591218D01*
X200761576Y-7408781D02*
X200577423Y-7324168D01*
X200761576Y-72591218D02*
X200941207Y-72497386D01*
X200761576Y-75408781D02*
X200577423Y-75324168D01*
X200761576Y-140591218D02*
X200941207Y-140497386D01*
X200941207Y-7502613D02*
X200761576Y-7408781D01*
X200941207Y-72497386D02*
X201115856Y-72394577D01*
X200941207Y-75502613D02*
X200761576Y-75408781D01*
X200941207Y-140497386D02*
X201115856Y-140394577D01*
X201001000Y0D02*
X1999000Y0D01*
X201001000Y-148000000D02*
X203000000Y-146001000D01*
X201115856Y-7605422D02*
X200941207Y-7502613D01*
X201115856Y-72394577D02*
X201285072Y-72283053D01*
X201115856Y-75605422D02*
X200941207Y-75502613D01*
X201115856Y-140394577D02*
X201285072Y-140283053D01*
X201285072Y-7716946D02*
X201115856Y-7605422D01*
X201285072Y-72283053D02*
X201448423Y-72163102D01*
X201285072Y-75716946D02*
X201115856Y-75605422D01*
X201285072Y-140283053D02*
X201448423Y-140163102D01*
X201448423Y-7836897D02*
X201285072Y-7716946D01*
X201448423Y-72163102D02*
X201605489Y-72035032D01*
X201448423Y-75836897D02*
X201285072Y-75716946D01*
X201448423Y-140163102D02*
X201605489Y-140035032D01*
X201605489Y-7964967D02*
X201448423Y-7836897D01*
X201605489Y-72035032D02*
X201755867Y-71899171D01*
X201605489Y-75964967D02*
X201448423Y-75836897D01*
X201605489Y-140035032D02*
X201755867Y-139899171D01*
X201755867Y-8100828D02*
X201605489Y-7964967D01*
X201755867Y-71899171D02*
X201899171Y-71755867D01*
X201755867Y-76100828D02*
X201605489Y-75964967D01*
X201755867Y-139899171D02*
X201899171Y-139755867D01*
X201899171Y-8244132D02*
X201755867Y-8100828D01*
X201899171Y-71755867D02*
X202035032Y-71605489D01*
X201899171Y-76244132D02*
X201755867Y-76100828D01*
X201899171Y-139755867D02*
X202035032Y-139605489D01*
X202035032Y-8394510D02*
X201899171Y-8244132D01*
X202035032Y-71605489D02*
X202163102Y-71448423D01*
X202035032Y-76394510D02*
X201899171Y-76244132D01*
X202035032Y-139605489D02*
X202163102Y-139448423D01*
X202163102Y-8551576D02*
X202035032Y-8394510D01*
X202163102Y-71448423D02*
X202283053Y-71285072D01*
X202163102Y-76551576D02*
X202035032Y-76394510D01*
X202163102Y-139448423D02*
X202283053Y-139285072D01*
X202283053Y-8714927D02*
X202163102Y-8551576D01*
X202283053Y-71285072D02*
X202394577Y-71115856D01*
X202283053Y-76714927D02*
X202163102Y-76551576D01*
X202283053Y-139285072D02*
X202394577Y-139115856D01*
X202394577Y-8884143D02*
X202283053Y-8714927D01*
X202394577Y-71115856D02*
X202497386Y-70941207D01*
X202394577Y-76884143D02*
X202283053Y-76714927D01*
X202394577Y-139115856D02*
X202497386Y-138941207D01*
X202497386Y-9058792D02*
X202394577Y-8884143D01*
X202497386Y-70941207D02*
X202591218Y-70761576D01*
X202497386Y-77058792D02*
X202394577Y-76884143D01*
X202497386Y-138941207D02*
X202591218Y-138761576D01*
X202591218Y-9238423D02*
X202497386Y-9058792D01*
X202591218Y-70761576D02*
X202675831Y-70577423D01*
X202591218Y-77238423D02*
X202497386Y-77058792D01*
X202591218Y-138761576D02*
X202675831Y-138577423D01*
X202675831Y-9422576D02*
X202591218Y-9238423D01*
X202675831Y-70577423D02*
X202751008Y-70389221D01*
X202675831Y-77422576D02*
X202591218Y-77238423D01*
X202675831Y-138577423D02*
X202751008Y-138389221D01*
X202751008Y-9610778D02*
X202675831Y-9422576D01*
X202751008Y-70389221D02*
X202816557Y-70197452D01*
X202751008Y-77610778D02*
X202675831Y-77422576D01*
X202751008Y-138389221D02*
X202816557Y-138197452D01*
X202816557Y-9802547D02*
X202751008Y-9610778D01*
X202816557Y-70197452D02*
X202872308Y-70002610D01*
X202816557Y-77802547D02*
X202751008Y-77610778D01*
X202816557Y-138197452D02*
X202872308Y-138002610D01*
X202872308Y-9997389D02*
X202816557Y-9802547D01*
X202872308Y-70002610D02*
X202918119Y-69805194D01*
X202872308Y-77997389D02*
X202816557Y-77802547D01*
X202872308Y-138002610D02*
X202918119Y-137805194D01*
X202918119Y-10194805D02*
X202872308Y-9997389D01*
X202918119Y-69805194D02*
X202953873Y-69605711D01*
X202918119Y-78194805D02*
X202872308Y-77997389D01*
X202918119Y-137805194D02*
X202953873Y-137605711D01*
X202953873Y-10394288D02*
X202918119Y-10194805D01*
X202953873Y-69605711D02*
X202979477Y-69404673D01*
X202953873Y-78394288D02*
X202918119Y-78194805D01*
X202953873Y-137605711D02*
X202979477Y-137404673D01*
X202979477Y-10595326D02*
X202953873Y-10394288D01*
X202979477Y-69404673D02*
X202994866Y-69202596D01*
X202979477Y-78595326D02*
X202953873Y-78394288D01*
X202979477Y-137404673D02*
X202994866Y-137202596D01*
X202994866Y-10797403D02*
X202979477Y-10595326D01*
X202994866Y-69202596D02*
X203000000Y-69000000D01*
X202994866Y-78797403D02*
X202979477Y-78595326D01*
X202994866Y-137202596D02*
X203000000Y-137000000D01*
X203000000Y-1999000D02*
X201001000Y0D01*
X203000000Y-5000000D02*
X203000000Y-1999000D01*
X203000000Y-11000000D02*
X202994866Y-10797403D01*
X203000000Y-69000000D02*
X203000000Y-11000000D01*
X203000000Y-79000000D02*
X202994866Y-78797403D01*
X203000000Y-137000000D02*
X203000000Y-79000000D01*
X203000000Y-143000000D02*
X189501001Y-143000000D01*
X203000000Y-146001000D02*
X203000000Y-143000000D01*
M02*
