G04 #@! TF.GenerationSoftware,KiCad,Pcbnew,10.0.2*
G04 #@! TF.CreationDate,2026-05-17T22:33:00+02:00*
G04 #@! TF.ProjectId,kik_panel,6b696b5f-7061-46e6-956c-2e6b69636164,rev?*
G04 #@! TF.SameCoordinates,Original*
G04 #@! TF.FileFunction,Other,Comment*
%FSLAX46Y46*%
G04 Gerber Fmt 4.6, Leading zero omitted, Abs format (unit mm)*
G04 Created by KiCad (PCBNEW 10.0.2) date 2026-05-17 22:33:00*
%MOMM*%
%LPD*%
G01*
G04 APERTURE LIST*
%ADD10C,0.150000*%
G04 APERTURE END LIST*
G04 #@! TO.C,H4*
D10*
X189800000Y-137000000D02*
G75*
G02*
X184200000Y-137000000I-2800000J0D01*
G01*
X184200000Y-137000000D02*
G75*
G02*
X189800000Y-137000000I2800000J0D01*
G01*
G04 #@! TO.C,H3*
X121800000Y-69000000D02*
G75*
G02*
X116200000Y-69000000I-2800000J0D01*
G01*
X116200000Y-69000000D02*
G75*
G02*
X121800000Y-69000000I2800000J0D01*
G01*
G04 #@! TO.C,H1*
X6800000Y-79000000D02*
G75*
G02*
X1200000Y-79000000I-2800000J0D01*
G01*
X1200000Y-79000000D02*
G75*
G02*
X6800000Y-79000000I2800000J0D01*
G01*
X109800000Y-11000000D02*
G75*
G02*
X104200000Y-11000000I-2800000J0D01*
G01*
X104200000Y-11000000D02*
G75*
G02*
X109800000Y-11000000I2800000J0D01*
G01*
G04 #@! TO.C,H4*
X189800000Y-69000000D02*
G75*
G02*
X184200000Y-69000000I-2800000J0D01*
G01*
X184200000Y-69000000D02*
G75*
G02*
X189800000Y-69000000I2800000J0D01*
G01*
G04 #@! TO.C,H3*
X121800000Y-137000000D02*
G75*
G02*
X116200000Y-137000000I-2800000J0D01*
G01*
X116200000Y-137000000D02*
G75*
G02*
X121800000Y-137000000I2800000J0D01*
G01*
G04 #@! TO.C,H1*
X109800000Y-79000000D02*
G75*
G02*
X104200000Y-79000000I-2800000J0D01*
G01*
X104200000Y-79000000D02*
G75*
G02*
X109800000Y-79000000I2800000J0D01*
G01*
G04 #@! TO.C,H3*
X18800000Y-137000000D02*
G75*
G02*
X13200000Y-137000000I-2800000J0D01*
G01*
X13200000Y-137000000D02*
G75*
G02*
X18800000Y-137000000I2800000J0D01*
G01*
G04 #@! TO.C,H1*
X6800000Y-11000000D02*
G75*
G02*
X1200000Y-11000000I-2800000J0D01*
G01*
X1200000Y-11000000D02*
G75*
G02*
X6800000Y-11000000I2800000J0D01*
G01*
G04 #@! TO.C,H2*
X98800000Y-79000000D02*
G75*
G02*
X93200000Y-79000000I-2800000J0D01*
G01*
X93200000Y-79000000D02*
G75*
G02*
X98800000Y-79000000I2800000J0D01*
G01*
X201800000Y-11000000D02*
G75*
G02*
X196200000Y-11000000I-2800000J0D01*
G01*
X196200000Y-11000000D02*
G75*
G02*
X201800000Y-11000000I2800000J0D01*
G01*
G04 #@! TO.C,H3*
X18800000Y-69000000D02*
G75*
G02*
X13200000Y-69000000I-2800000J0D01*
G01*
X13200000Y-69000000D02*
G75*
G02*
X18800000Y-69000000I2800000J0D01*
G01*
G04 #@! TO.C,H4*
X86800000Y-137000000D02*
G75*
G02*
X81200000Y-137000000I-2800000J0D01*
G01*
X81200000Y-137000000D02*
G75*
G02*
X86800000Y-137000000I2800000J0D01*
G01*
X86800000Y-69000000D02*
G75*
G02*
X81200000Y-69000000I-2800000J0D01*
G01*
X81200000Y-69000000D02*
G75*
G02*
X86800000Y-69000000I2800000J0D01*
G01*
G04 #@! TO.C,H2*
X201800000Y-79000000D02*
G75*
G02*
X196200000Y-79000000I-2800000J0D01*
G01*
X196200000Y-79000000D02*
G75*
G02*
X201800000Y-79000000I2800000J0D01*
G01*
X98800000Y-11000000D02*
G75*
G02*
X93200000Y-11000000I-2800000J0D01*
G01*
X93200000Y-11000000D02*
G75*
G02*
X98800000Y-11000000I2800000J0D01*
G01*
G04 #@! TD*
M02*
