G04 #@! TF.GenerationSoftware,KiCad,Pcbnew,10.0.2*
G04 #@! TF.CreationDate,2026-05-17T22:33:00+02:00*
G04 #@! TF.ProjectId,kik_panel,6b696b5f-7061-46e6-956c-2e6b69636164,rev?*
G04 #@! TF.SameCoordinates,Original*
G04 #@! TF.FileFunction,Soldermask,Bot*
G04 #@! TF.FilePolarity,Negative*
%FSLAX46Y46*%
G04 Gerber Fmt 4.6, Leading zero omitted, Abs format (unit mm)*
G04 Created by KiCad (PCBNEW 10.0.2) date 2026-05-17 22:33:00*
%MOMM*%
%LPD*%
G01*
G04 APERTURE LIST*
%ADD10C,0.700000*%
%ADD11O,2.000000X1.000000*%
%ADD12C,0.500000*%
%ADD13R,1.700000X1.700000*%
%ADD14C,3.200000*%
%ADD15C,1.700000*%
%ADD16C,0.650000*%
%ADD17O,2.300000X1.100000*%
%ADD18O,1.800000X1.100000*%
%ADD19C,1.452000*%
%ADD20C,2.000000*%
G04 APERTURE END LIST*
D10*
G04 #@! TO.C,J11*
X96050000Y-101950000D03*
X96050000Y-97850000D03*
D11*
X94800000Y-103475000D03*
X98200000Y-103475000D03*
X94800000Y-96325000D03*
X98200000Y-96325000D03*
G04 #@! TD*
D12*
G04 #@! TO.C,KiKit_MB_7_2*
X120667333Y-72800000D03*
G04 #@! TD*
G04 #@! TO.C,KiKit_MB_4_2*
X14332667Y-7200000D03*
G04 #@! TD*
G04 #@! TO.C,KiKit_MB_8_6*
X120667333Y-7200000D03*
G04 #@! TD*
G04 #@! TO.C,KiKit_MB_15_6*
X117332666Y-140800000D03*
G04 #@! TD*
G04 #@! TO.C,KiKit_MB_4_7*
X18501000Y-7200000D03*
G04 #@! TD*
D13*
G04 #@! TO.C,TP1*
X65300000Y-97500000D03*
G04 #@! TD*
D12*
G04 #@! TO.C,KiKit_MB_6_7*
X189500999Y-7200000D03*
G04 #@! TD*
G04 #@! TO.C,KiKit_MB_10_2*
X82332666Y-75200000D03*
G04 #@! TD*
G04 #@! TO.C,KiKit_MB_10_5*
X84833666Y-75200000D03*
G04 #@! TD*
D14*
G04 #@! TO.C,H4*
X187000000Y-137000000D03*
G04 #@! TD*
D12*
G04 #@! TO.C,KiKit_MB_15_3*
X119833666Y-140800000D03*
G04 #@! TD*
D14*
G04 #@! TO.C,H3*
X119000000Y-69000000D03*
G04 #@! TD*
D15*
G04 #@! TO.C,J2*
X65200000Y-61000000D03*
X62660000Y-61000000D03*
X60120000Y-61000000D03*
X57580000Y-61000000D03*
X55040000Y-61000000D03*
D13*
X52500000Y-61000000D03*
D15*
X65200000Y-63540000D03*
X62660000Y-63540000D03*
X60120000Y-63540000D03*
X57580000Y-63540000D03*
X55040000Y-63540000D03*
X52500000Y-63540000D03*
G04 #@! TD*
D12*
G04 #@! TO.C,KiKit_MB_11_7*
X13499001Y-140800000D03*
G04 #@! TD*
G04 #@! TO.C,KiKit_MB_6_6*
X188667333Y-7200000D03*
G04 #@! TD*
D13*
G04 #@! TO.C,TP1*
X65300000Y-29500000D03*
G04 #@! TD*
D12*
G04 #@! TO.C,KiKit_MB_2_7*
X86500999Y-7200000D03*
G04 #@! TD*
G04 #@! TO.C,KiKit_MB_16_5*
X119833666Y-75200000D03*
G04 #@! TD*
G04 #@! TO.C,KiKit_MB_2_2*
X82332666Y-7200000D03*
G04 #@! TD*
D13*
G04 #@! TO.C,TP1*
X168300000Y-29500000D03*
G04 #@! TD*
D12*
G04 #@! TO.C,KiKit_MB_4_6*
X17667334Y-7200000D03*
G04 #@! TD*
D14*
G04 #@! TO.C,H1*
X4000000Y-79000000D03*
G04 #@! TD*
D12*
G04 #@! TO.C,KiKit_MB_4_1*
X13499001Y-7200000D03*
G04 #@! TD*
D14*
G04 #@! TO.C,H1*
X107000000Y-11000000D03*
G04 #@! TD*
D12*
G04 #@! TO.C,KiKit_MB_13_6*
X185332666Y-140800000D03*
G04 #@! TD*
D16*
G04 #@! TO.C,J12*
X94300000Y-22290000D03*
X94300000Y-16510000D03*
D17*
X93770000Y-23720000D03*
D18*
X97950000Y-23720000D03*
D17*
X93770000Y-15080000D03*
D18*
X97950000Y-15080000D03*
G04 #@! TD*
D12*
G04 #@! TO.C,KiKit_MB_10_3*
X83166333Y-75200000D03*
G04 #@! TD*
G04 #@! TO.C,KiKit_MB_6_3*
X186166333Y-7200000D03*
G04 #@! TD*
D13*
G04 #@! TO.C,TP3*
X47600000Y-40500000D03*
G04 #@! TD*
D12*
G04 #@! TO.C,KiKit_MB_11_1*
X18501000Y-140800000D03*
G04 #@! TD*
G04 #@! TO.C,KiKit_MB_1_6*
X82332666Y-72800000D03*
G04 #@! TD*
G04 #@! TO.C,KiKit_MB_9_1*
X86500999Y-140800000D03*
G04 #@! TD*
D15*
G04 #@! TO.C,J4*
X90500000Y-106700000D03*
X90500000Y-109240000D03*
X90500000Y-111780000D03*
X90500000Y-114320000D03*
X90500000Y-116860000D03*
D13*
X90500000Y-119400000D03*
G04 #@! TD*
D14*
G04 #@! TO.C,H4*
X187000000Y-69000000D03*
G04 #@! TD*
D12*
G04 #@! TO.C,KiKit_MB_14_5*
X187833666Y-75200000D03*
G04 #@! TD*
D13*
G04 #@! TO.C,TP2*
X181700000Y-29500000D03*
G04 #@! TD*
D12*
G04 #@! TO.C,KiKit_MB_12_2*
X14332667Y-75200000D03*
G04 #@! TD*
D16*
G04 #@! TO.C,J12*
X94300000Y-90290000D03*
X94300000Y-84510000D03*
D17*
X93770000Y-91720000D03*
D18*
X97950000Y-91720000D03*
D17*
X93770000Y-83080000D03*
D18*
X97950000Y-83080000D03*
G04 #@! TD*
D12*
G04 #@! TO.C,KiKit_MB_5_6*
X185332666Y-72800000D03*
G04 #@! TD*
D15*
G04 #@! TO.C,J3*
X9400000Y-119375000D03*
X9400000Y-116835000D03*
X9400000Y-114295000D03*
X9400000Y-111755000D03*
X9400000Y-109215000D03*
D13*
X9400000Y-106675000D03*
G04 #@! TD*
D12*
G04 #@! TO.C,KiKit_MB_3_2*
X17667334Y-72800000D03*
G04 #@! TD*
G04 #@! TO.C,KiKit_MB_13_1*
X189500999Y-140800000D03*
G04 #@! TD*
G04 #@! TO.C,KiKit_MB_7_5*
X118166333Y-72800000D03*
G04 #@! TD*
G04 #@! TO.C,KiKit_MB_13_5*
X186166333Y-140800000D03*
G04 #@! TD*
D10*
G04 #@! TO.C,J11*
X96050000Y-33950000D03*
X96050000Y-29850000D03*
D11*
X94800000Y-35475000D03*
X98200000Y-35475000D03*
X94800000Y-28325000D03*
X98200000Y-28325000D03*
G04 #@! TD*
D14*
G04 #@! TO.C,H3*
X119000000Y-137000000D03*
G04 #@! TD*
D10*
G04 #@! TO.C,J11*
X199050000Y-33950000D03*
X199050000Y-29850000D03*
D11*
X197800000Y-35475000D03*
X201200000Y-35475000D03*
X197800000Y-28325000D03*
X201200000Y-28325000D03*
G04 #@! TD*
D12*
G04 #@! TO.C,KiKit_MB_3_5*
X15166334Y-72800000D03*
G04 #@! TD*
G04 #@! TO.C,KiKit_MB_7_4*
X118999999Y-72800000D03*
G04 #@! TD*
G04 #@! TO.C,KiKit_MB_4_5*
X16833667Y-7200000D03*
G04 #@! TD*
G04 #@! TO.C,KiKit_MB_5_2*
X188667333Y-72800000D03*
G04 #@! TD*
D13*
G04 #@! TO.C,J14*
X116800000Y-61900000D03*
D15*
X116800000Y-59360000D03*
X116800000Y-56820000D03*
X116800000Y-54280000D03*
G04 #@! TD*
D14*
G04 #@! TO.C,H1*
X107000000Y-79000000D03*
G04 #@! TD*
D19*
G04 #@! TO.C,KiKit_TO_3*
X16000000Y-145500000D03*
G04 #@! TD*
D12*
G04 #@! TO.C,KiKit_MB_16_2*
X117332666Y-75200000D03*
G04 #@! TD*
G04 #@! TO.C,KiKit_MB_16_4*
X119000000Y-75200000D03*
G04 #@! TD*
D13*
G04 #@! TO.C,TP2*
X181700000Y-97500000D03*
G04 #@! TD*
D12*
G04 #@! TO.C,KiKit_MB_6_4*
X187000000Y-7200000D03*
G04 #@! TD*
G04 #@! TO.C,KiKit_MB_13_3*
X187833666Y-140800000D03*
G04 #@! TD*
G04 #@! TO.C,KiKit_MB_15_2*
X120667333Y-140800000D03*
G04 #@! TD*
G04 #@! TO.C,KiKit_MB_12_6*
X17667334Y-75200000D03*
G04 #@! TD*
G04 #@! TO.C,KiKit_MB_12_5*
X16833667Y-75200000D03*
G04 #@! TD*
G04 #@! TO.C,KiKit_MB_14_7*
X189500999Y-75200000D03*
G04 #@! TD*
G04 #@! TO.C,KiKit_MB_7_1*
X121500999Y-72800000D03*
G04 #@! TD*
G04 #@! TO.C,KiKit_MB_8_4*
X119000000Y-7200000D03*
G04 #@! TD*
G04 #@! TO.C,KiKit_MB_16_3*
X118166333Y-75200000D03*
G04 #@! TD*
D13*
G04 #@! TO.C,TP3*
X150600000Y-108500000D03*
G04 #@! TD*
D10*
G04 #@! TO.C,J11*
X199050000Y-101950000D03*
X199050000Y-97850000D03*
D11*
X197800000Y-103475000D03*
X201200000Y-103475000D03*
X197800000Y-96325000D03*
X201200000Y-96325000D03*
G04 #@! TD*
D12*
G04 #@! TO.C,KiKit_MB_7_6*
X117332666Y-72800000D03*
G04 #@! TD*
D15*
G04 #@! TO.C,J4*
X90500000Y-38700000D03*
X90500000Y-41240000D03*
X90500000Y-43780000D03*
X90500000Y-46320000D03*
X90500000Y-48860000D03*
D13*
X90500000Y-51400000D03*
G04 #@! TD*
D14*
G04 #@! TO.C,H3*
X16000000Y-137000000D03*
G04 #@! TD*
D12*
G04 #@! TO.C,KiKit_MB_10_4*
X84000000Y-75200000D03*
G04 #@! TD*
D13*
G04 #@! TO.C,J1*
X86000000Y-54300000D03*
D15*
X86000000Y-56840000D03*
X86000000Y-59380000D03*
X86000000Y-61920000D03*
G04 #@! TD*
D12*
G04 #@! TO.C,KiKit_MB_14_6*
X188667333Y-75200000D03*
G04 #@! TD*
G04 #@! TO.C,KiKit_MB_2_4*
X84000000Y-7200000D03*
G04 #@! TD*
G04 #@! TO.C,KiKit_MB_1_3*
X84833666Y-72800000D03*
G04 #@! TD*
D15*
G04 #@! TO.C,J3*
X112400000Y-51375000D03*
X112400000Y-48835000D03*
X112400000Y-46295000D03*
X112400000Y-43755000D03*
X112400000Y-41215000D03*
D13*
X112400000Y-38675000D03*
G04 #@! TD*
D12*
G04 #@! TO.C,KiKit_MB_12_1*
X13499001Y-75200000D03*
G04 #@! TD*
G04 #@! TO.C,KiKit_MB_3_4*
X16000000Y-72800000D03*
G04 #@! TD*
G04 #@! TO.C,KiKit_MB_9_5*
X83166333Y-140800000D03*
G04 #@! TD*
G04 #@! TO.C,KiKit_MB_14_3*
X186166333Y-75200000D03*
G04 #@! TD*
G04 #@! TO.C,KiKit_MB_7_7*
X116499000Y-72800000D03*
G04 #@! TD*
G04 #@! TO.C,KiKit_MB_8_1*
X116499000Y-7200000D03*
G04 #@! TD*
D15*
G04 #@! TO.C,J2*
X168200000Y-61000000D03*
X165660000Y-61000000D03*
X163120000Y-61000000D03*
X160580000Y-61000000D03*
X158040000Y-61000000D03*
D13*
X155500000Y-61000000D03*
D15*
X168200000Y-63540000D03*
X165660000Y-63540000D03*
X163120000Y-63540000D03*
X160580000Y-63540000D03*
X158040000Y-63540000D03*
X155500000Y-63540000D03*
G04 #@! TD*
D12*
G04 #@! TO.C,KiKit_MB_16_7*
X121500999Y-75200000D03*
G04 #@! TD*
D14*
G04 #@! TO.C,H1*
X4000000Y-11000000D03*
G04 #@! TD*
G04 #@! TO.C,H2*
X96000000Y-79000000D03*
G04 #@! TD*
D12*
G04 #@! TO.C,KiKit_MB_11_5*
X15166334Y-140800000D03*
G04 #@! TD*
G04 #@! TO.C,KiKit_MB_8_2*
X117332666Y-7200000D03*
G04 #@! TD*
G04 #@! TO.C,KiKit_MB_14_4*
X187000000Y-75200000D03*
G04 #@! TD*
G04 #@! TO.C,KiKit_MB_2_3*
X83166333Y-7200000D03*
G04 #@! TD*
G04 #@! TO.C,KiKit_MB_15_5*
X118166333Y-140800000D03*
G04 #@! TD*
G04 #@! TO.C,KiKit_MB_1_7*
X81499000Y-72800000D03*
G04 #@! TD*
D13*
G04 #@! TO.C,J1*
X86000000Y-122300000D03*
D15*
X86000000Y-124840000D03*
X86000000Y-127380000D03*
X86000000Y-129920000D03*
G04 #@! TD*
D12*
G04 #@! TO.C,KiKit_MB_13_4*
X187000000Y-140800000D03*
G04 #@! TD*
G04 #@! TO.C,KiKit_MB_11_2*
X17667334Y-140800000D03*
G04 #@! TD*
D13*
G04 #@! TO.C,TP3*
X47600000Y-108500000D03*
G04 #@! TD*
D12*
G04 #@! TO.C,KiKit_MB_10_1*
X81499000Y-75200000D03*
G04 #@! TD*
G04 #@! TO.C,KiKit_MB_14_2*
X185332666Y-75200000D03*
G04 #@! TD*
G04 #@! TO.C,KiKit_MB_6_2*
X185332666Y-7200000D03*
G04 #@! TD*
D14*
G04 #@! TO.C,H2*
X199000000Y-11000000D03*
G04 #@! TD*
D12*
G04 #@! TO.C,KiKit_MB_2_1*
X81499000Y-7200000D03*
G04 #@! TD*
D13*
G04 #@! TO.C,J14*
X13800000Y-61900000D03*
D15*
X13800000Y-59360000D03*
X13800000Y-56820000D03*
X13800000Y-54280000D03*
G04 #@! TD*
D12*
G04 #@! TO.C,KiKit_MB_9_7*
X81499000Y-140800000D03*
G04 #@! TD*
D15*
G04 #@! TO.C,J4*
X193500000Y-38700000D03*
X193500000Y-41240000D03*
X193500000Y-43780000D03*
X193500000Y-46320000D03*
X193500000Y-48860000D03*
D13*
X193500000Y-51400000D03*
G04 #@! TD*
D15*
G04 #@! TO.C,J3*
X9400000Y-51375000D03*
X9400000Y-48835000D03*
X9400000Y-46295000D03*
X9400000Y-43755000D03*
X9400000Y-41215000D03*
D13*
X9400000Y-38675000D03*
G04 #@! TD*
D12*
G04 #@! TO.C,KiKit_MB_11_6*
X14332667Y-140800000D03*
G04 #@! TD*
D15*
G04 #@! TO.C,J3*
X112400000Y-119375000D03*
X112400000Y-116835000D03*
X112400000Y-114295000D03*
X112400000Y-111755000D03*
X112400000Y-109215000D03*
D13*
X112400000Y-106675000D03*
G04 #@! TD*
D12*
G04 #@! TO.C,KiKit_MB_2_6*
X85667333Y-7200000D03*
G04 #@! TD*
G04 #@! TO.C,KiKit_MB_12_4*
X16000001Y-75200000D03*
G04 #@! TD*
G04 #@! TO.C,KiKit_MB_15_7*
X116499000Y-140800000D03*
G04 #@! TD*
G04 #@! TO.C,KiKit_MB_9_3*
X84833666Y-140800000D03*
G04 #@! TD*
G04 #@! TO.C,KiKit_MB_9_6*
X82332666Y-140800000D03*
G04 #@! TD*
G04 #@! TO.C,KiKit_MB_12_7*
X18501000Y-75200000D03*
G04 #@! TD*
D13*
G04 #@! TO.C,J1*
X189000000Y-122300000D03*
D15*
X189000000Y-124840000D03*
X189000000Y-127380000D03*
X189000000Y-129920000D03*
G04 #@! TD*
D12*
G04 #@! TO.C,KiKit_MB_11_3*
X16833667Y-140800000D03*
G04 #@! TD*
G04 #@! TO.C,KiKit_MB_7_3*
X119833666Y-72800000D03*
G04 #@! TD*
G04 #@! TO.C,KiKit_MB_4_4*
X16000000Y-7200000D03*
G04 #@! TD*
D16*
G04 #@! TO.C,J12*
X197300000Y-90290000D03*
X197300000Y-84510000D03*
D17*
X196770000Y-91720000D03*
D18*
X200950000Y-91720000D03*
D17*
X196770000Y-83080000D03*
D18*
X200950000Y-83080000D03*
G04 #@! TD*
D19*
G04 #@! TO.C,KiKit_TO_2*
X187000000Y-2500000D03*
G04 #@! TD*
D12*
G04 #@! TO.C,KiKit_MB_13_7*
X184499000Y-140800000D03*
G04 #@! TD*
G04 #@! TO.C,KiKit_MB_1_1*
X86500999Y-72800000D03*
G04 #@! TD*
G04 #@! TO.C,KiKit_MB_10_7*
X86500999Y-75200000D03*
G04 #@! TD*
G04 #@! TO.C,KiKit_MB_1_5*
X83166333Y-72800000D03*
G04 #@! TD*
G04 #@! TO.C,KiKit_MB_2_5*
X84833666Y-7200000D03*
G04 #@! TD*
D13*
G04 #@! TO.C,TP2*
X78700000Y-29500000D03*
G04 #@! TD*
D15*
G04 #@! TO.C,J2*
X168200000Y-129000000D03*
X165660000Y-129000000D03*
X163120000Y-129000000D03*
X160580000Y-129000000D03*
X158040000Y-129000000D03*
D13*
X155500000Y-129000000D03*
D15*
X168200000Y-131540000D03*
X165660000Y-131540000D03*
X163120000Y-131540000D03*
X160580000Y-131540000D03*
X158040000Y-131540000D03*
X155500000Y-131540000D03*
G04 #@! TD*
D12*
G04 #@! TO.C,KiKit_MB_8_3*
X118166333Y-7200000D03*
G04 #@! TD*
D16*
G04 #@! TO.C,J12*
X197300000Y-22290000D03*
X197300000Y-16510000D03*
D17*
X196770000Y-23720000D03*
D18*
X200950000Y-23720000D03*
D17*
X196770000Y-15080000D03*
D18*
X200950000Y-15080000D03*
G04 #@! TD*
D12*
G04 #@! TO.C,KiKit_MB_3_3*
X16833667Y-72800000D03*
G04 #@! TD*
G04 #@! TO.C,KiKit_MB_1_2*
X85667333Y-72800000D03*
G04 #@! TD*
G04 #@! TO.C,KiKit_MB_11_4*
X16000000Y-140800000D03*
G04 #@! TD*
D15*
G04 #@! TO.C,J2*
X65200000Y-129000000D03*
X62660000Y-129000000D03*
X60120000Y-129000000D03*
X57580000Y-129000000D03*
X55040000Y-129000000D03*
D13*
X52500000Y-129000000D03*
D15*
X65200000Y-131540000D03*
X62660000Y-131540000D03*
X60120000Y-131540000D03*
X57580000Y-131540000D03*
X55040000Y-131540000D03*
X52500000Y-131540000D03*
G04 #@! TD*
G04 #@! TO.C,J4*
X193500000Y-106700000D03*
X193500000Y-109240000D03*
X193500000Y-111780000D03*
X193500000Y-114320000D03*
X193500000Y-116860000D03*
D13*
X193500000Y-119400000D03*
G04 #@! TD*
D12*
G04 #@! TO.C,KiKit_MB_3_7*
X13499001Y-72800000D03*
G04 #@! TD*
D14*
G04 #@! TO.C,H3*
X16000000Y-69000000D03*
G04 #@! TD*
G04 #@! TO.C,H4*
X84000000Y-137000000D03*
G04 #@! TD*
D12*
G04 #@! TO.C,KiKit_MB_5_1*
X189500999Y-72800000D03*
G04 #@! TD*
G04 #@! TO.C,KiKit_MB_3_1*
X18501000Y-72800000D03*
G04 #@! TD*
G04 #@! TO.C,KiKit_MB_1_4*
X83999999Y-72800000D03*
G04 #@! TD*
D19*
G04 #@! TO.C,KiKit_TO_1*
X16000000Y-2500000D03*
G04 #@! TD*
D12*
G04 #@! TO.C,KiKit_MB_8_7*
X121500999Y-7200000D03*
G04 #@! TD*
G04 #@! TO.C,KiKit_MB_5_5*
X186166333Y-72800000D03*
G04 #@! TD*
D13*
G04 #@! TO.C,TP3*
X150600000Y-40500000D03*
G04 #@! TD*
D12*
G04 #@! TO.C,KiKit_MB_5_7*
X184499000Y-72800000D03*
G04 #@! TD*
G04 #@! TO.C,KiKit_MB_6_5*
X187833666Y-7200000D03*
G04 #@! TD*
G04 #@! TO.C,KiKit_MB_16_6*
X120667333Y-75200000D03*
G04 #@! TD*
D13*
G04 #@! TO.C,J14*
X13800000Y-129900000D03*
D15*
X13800000Y-127360000D03*
X13800000Y-124820000D03*
X13800000Y-122280000D03*
G04 #@! TD*
D13*
G04 #@! TO.C,TP2*
X78700000Y-97500000D03*
G04 #@! TD*
D12*
G04 #@! TO.C,KiKit_MB_15_4*
X119000000Y-140800000D03*
G04 #@! TD*
G04 #@! TO.C,KiKit_MB_12_3*
X15166334Y-75200000D03*
G04 #@! TD*
D14*
G04 #@! TO.C,H4*
X84000000Y-69000000D03*
G04 #@! TD*
D12*
G04 #@! TO.C,KiKit_MB_15_1*
X121500999Y-140800000D03*
G04 #@! TD*
G04 #@! TO.C,KiKit_MB_3_6*
X14332667Y-72800000D03*
G04 #@! TD*
G04 #@! TO.C,KiKit_MB_6_1*
X184499000Y-7200000D03*
G04 #@! TD*
D13*
G04 #@! TO.C,TP1*
X168300000Y-97500000D03*
G04 #@! TD*
D12*
G04 #@! TO.C,KiKit_MB_14_1*
X184499000Y-75200000D03*
G04 #@! TD*
G04 #@! TO.C,KiKit_MB_9_2*
X85667333Y-140800000D03*
G04 #@! TD*
G04 #@! TO.C,KiKit_MB_4_3*
X15166334Y-7200000D03*
G04 #@! TD*
G04 #@! TO.C,KiKit_MB_16_1*
X116499000Y-75200000D03*
G04 #@! TD*
G04 #@! TO.C,KiKit_MB_8_5*
X119833666Y-7200000D03*
G04 #@! TD*
G04 #@! TO.C,KiKit_MB_5_4*
X186999999Y-72800000D03*
G04 #@! TD*
G04 #@! TO.C,KiKit_MB_10_6*
X85667333Y-75200000D03*
G04 #@! TD*
D14*
G04 #@! TO.C,H2*
X199000000Y-79000000D03*
G04 #@! TD*
G04 #@! TO.C,H2*
X96000000Y-11000000D03*
G04 #@! TD*
D13*
G04 #@! TO.C,J1*
X189000000Y-54300000D03*
D15*
X189000000Y-56840000D03*
X189000000Y-59380000D03*
X189000000Y-61920000D03*
G04 #@! TD*
D13*
G04 #@! TO.C,J14*
X116800000Y-129900000D03*
D15*
X116800000Y-127360000D03*
X116800000Y-124820000D03*
X116800000Y-122280000D03*
G04 #@! TD*
D12*
G04 #@! TO.C,KiKit_MB_13_2*
X188667333Y-140800000D03*
G04 #@! TD*
G04 #@! TO.C,KiKit_MB_9_4*
X84000000Y-140800000D03*
G04 #@! TD*
G04 #@! TO.C,KiKit_MB_5_3*
X187833666Y-72800000D03*
G04 #@! TD*
D20*
G04 #@! TO.C,KiKit_FID_B_3*
X10000000Y-145500000D03*
G04 #@! TD*
G04 #@! TO.C,KiKit_FID_B_1*
X10000000Y-2500000D03*
G04 #@! TD*
G04 #@! TO.C,KiKit_FID_B_2*
X193000000Y-2500000D03*
G04 #@! TD*
M02*
