M48
; DRILL file KiCad 10.0.2 date 2026-05-17T22:33:00
; FORMAT={-:-/ absolute / metric / decimal}
; #@! TF.CreationDate,2026-05-17T22:33:00+02:00
; #@! TF.GenerationSoftware,Kicad,Pcbnew,10.0.2
; #@! TF.FileFunction,NonPlated,1,4,NPTH
FMAT,2
METRIC
; #@! TA.AperFunction,NonPlated,NPTH,ComponentDrill
T1C0.500
; #@! TA.AperFunction,NonPlated,NPTH,ComponentDrill
T2C0.650
; #@! TA.AperFunction,NonPlated,NPTH,ComponentDrill
T3C0.700
; #@! TA.AperFunction,NonPlated,NPTH,ComponentDrill
T4C1.152
; #@! TA.AperFunction,NonPlated,NPTH,ComponentDrill
T5C3.200
%
G90
G05
T1
X13.499Y-7.2
X13.499Y-72.8
X13.499Y-75.2
X13.499Y-140.8
X14.333Y-7.2
X14.333Y-72.8
X14.333Y-75.2
X14.333Y-140.8
X15.166Y-7.2
X15.166Y-72.8
X15.166Y-75.2
X15.166Y-140.8
X16.0Y-7.2
X16.0Y-72.8
X16.0Y-140.8
X16.0Y-75.2
X16.834Y-7.2
X16.834Y-72.8
X16.834Y-75.2
X16.834Y-140.8
X17.667Y-7.2
X17.667Y-72.8
X17.667Y-75.2
X17.667Y-140.8
X18.501Y-7.2
X18.501Y-72.8
X18.501Y-75.2
X18.501Y-140.8
X81.499Y-7.2
X81.499Y-72.8
X81.499Y-75.2
X81.499Y-140.8
X82.333Y-7.2
X82.333Y-72.8
X82.333Y-75.2
X82.333Y-140.8
X83.166Y-7.2
X83.166Y-72.8
X83.166Y-75.2
X83.166Y-140.8
X84.0Y-72.8
X84.0Y-7.2
X84.0Y-75.2
X84.0Y-140.8
X84.834Y-7.2
X84.834Y-72.8
X84.834Y-75.2
X84.834Y-140.8
X85.667Y-7.2
X85.667Y-72.8
X85.667Y-75.2
X85.667Y-140.8
X86.501Y-7.2
X86.501Y-72.8
X86.501Y-75.2
X86.501Y-140.8
X116.499Y-7.2
X116.499Y-72.8
X116.499Y-75.2
X116.499Y-140.8
X117.333Y-7.2
X117.333Y-72.8
X117.333Y-75.2
X117.333Y-140.8
X118.166Y-7.2
X118.166Y-72.8
X118.166Y-75.2
X118.166Y-140.8
X119.0Y-72.8
X119.0Y-7.2
X119.0Y-75.2
X119.0Y-140.8
X119.834Y-7.2
X119.834Y-72.8
X119.834Y-75.2
X119.834Y-140.8
X120.667Y-7.2
X120.667Y-72.8
X120.667Y-75.2
X120.667Y-140.8
X121.501Y-7.2
X121.501Y-72.8
X121.501Y-75.2
X121.501Y-140.8
X184.499Y-7.2
X184.499Y-72.8
X184.499Y-75.2
X184.499Y-140.8
X185.333Y-7.2
X185.333Y-72.8
X185.333Y-75.2
X185.333Y-140.8
X186.166Y-7.2
X186.166Y-72.8
X186.166Y-75.2
X186.166Y-140.8
X187.0Y-72.8
X187.0Y-7.2
X187.0Y-75.2
X187.0Y-140.8
X187.834Y-7.2
X187.834Y-72.8
X187.834Y-75.2
X187.834Y-140.8
X188.667Y-7.2
X188.667Y-72.8
X188.667Y-75.2
X188.667Y-140.8
X189.501Y-7.2
X189.501Y-72.8
X189.501Y-75.2
X189.501Y-140.8
T2
X94.3Y-16.51
X94.3Y-22.29
X94.3Y-84.51
X94.3Y-90.29
X197.3Y-16.51
X197.3Y-22.29
X197.3Y-84.51
X197.3Y-90.29
T3
X96.05Y-29.85
X96.05Y-33.95
X96.05Y-97.85
X96.05Y-101.95
X199.05Y-29.85
X199.05Y-33.95
X199.05Y-97.85
X199.05Y-101.95
T4
X16.0Y-2.5
X16.0Y-145.5
X187.0Y-2.5
T5
X4.0Y-11.0
X4.0Y-79.0
X16.0Y-69.0
X16.0Y-137.0
X84.0Y-69.0
X84.0Y-137.0
X96.0Y-11.0
X96.0Y-79.0
X107.0Y-11.0
X107.0Y-79.0
X119.0Y-69.0
X119.0Y-137.0
X187.0Y-69.0
X187.0Y-137.0
X199.0Y-11.0
X199.0Y-79.0
M30
