M48
; DRILL file {KiCad 9.0.6} date 2026-03-03T22:35:12+0100
; FORMAT={-:-/ absolute / metric / decimal}
; #@! TF.CreationDate,2026-03-03T22:35:12+01:00
; #@! TF.GenerationSoftware,Kicad,Pcbnew,9.0.6
; #@! TF.FileFunction,Plated,1,4,PTH
FMAT,2
METRIC
; #@! TA.AperFunction,Plated,PTH,ViaDrill
T1C0.300
; #@! TA.AperFunction,Plated,PTH,ComponentDrill
T2C0.600
; #@! TA.AperFunction,Plated,PTH,ComponentDrill
T3C0.850
; #@! TA.AperFunction,Plated,PTH,ComponentDrill
T4C0.950
; #@! TA.AperFunction,Plated,PTH,ComponentDrill
T5C1.000
%
G90
G05
T1
X45.8Y-94.8
X46.4Y-106.1
X46.4Y-109.7
X50.7Y-114.1
X51.0Y-120.6
X52.28Y-113.4
X52.3Y-84.2
X52.5Y-57.0
X53.0Y-63.1
X53.0Y-65.4
X53.0Y-73.0
X53.0Y-80.6
X53.0Y-105.8
X53.7Y-107.38
X53.9Y-110.5
X54.6Y-120.6
X55.54Y-62.6
X55.54Y-83.04
X56.95Y-62.65
X57.8Y-84.7
X58.3Y-62.2
X58.5Y-74.5
X58.75Y-86.425
X58.8Y-89.375
X59.6Y-62.825
X60.1Y-62.1
X60.7Y-72.3
X60.7Y-76.7
X61.3Y-86.425
X61.3Y-89.375
X61.9Y-62.6
X62.5Y-57.0
X62.9Y-74.5
X64.6Y-121.0
X68.85Y-80.35
X69.15Y-65.9
X70.8Y-83.9
X71.0Y-89.6
X71.6Y-84.3
X71.603Y-85.15
X71.9Y-89.6
X72.0Y-86.6
X72.436Y-67.45
X72.5Y-57.0
X72.6Y-65.4
X72.7Y-80.0
X72.8Y-87.0
X72.8Y-89.6
X72.909Y-69.228
X73.84Y-67.3
X74.325Y-89.625
X75.3Y-80.1
X75.3Y-89.6
X75.6Y-68.6
X75.7Y-66.0
X75.8Y-90.9
X75.85Y-92.55
X77.32Y-105.82
X78.6Y-62.975
X78.6Y-105.8
X79.2Y-115.4
X80.25Y-120.35
X82.199Y-113.798
X82.5Y-57.0
X83.25Y-93.9
X83.6Y-120.1
X84.3Y-97.475
X84.75Y-72.65
X84.8Y-70.9
X85.1Y-99.925
X85.5Y-77.0
X85.9Y-120.6
X86.2Y-93.9
X87.3Y-68.5
X87.44Y-70.44
X89.15Y-62.95
X90.1Y-77.8
X90.4Y-70.2
X90.4Y-72.2
X91.2Y-74.65
X91.5Y-106.15
X91.55Y-107.55
X91.6Y-97.475
X92.075Y-99.925
X92.077Y-74.677
X92.3Y-120.6
X92.4Y-70.2
X92.4Y-72.2
X92.5Y-57.0
X92.513Y-76.013
X92.895Y-93.895
X93.1Y-63.7
X93.9Y-74.225
X94.4Y-77.3
X94.941Y-75.49
X94.945Y-74.592
X95.595Y-66.38
X95.595Y-68.98
X96.8Y-59.7
X97.6Y-60.8
X98.4Y-60.55
X98.5Y-63.1
X98.5Y-82.1
X98.525Y-67.3
X100.05Y-106.1
X102.5Y-57.0
X105.0Y-121.0
X109.425Y-69.4
X112.5Y-57.0
X114.3Y-79.7
X115.35Y-120.65
X119.7Y-79.7
X121.7Y-120.6
X122.5Y-57.0
X125.0Y-121.0
X126.6Y-71.9
X126.6Y-74.5
X129.75Y-80.0
X130.0Y-69.1
X130.7Y-98.62
X131.1Y-68.7
X131.151Y-71.151
X131.151Y-73.0
X131.351Y-69.5
X132.5Y-57.0
X133.5Y-112.0
X134.05Y-80.05
X134.075Y-73.2
X134.075Y-75.7
X134.8Y-66.08
X135.2Y-103.4
X135.4Y-113.8
X135.6Y-120.6
X135.7Y-67.35
X135.78Y-108.38
X135.9Y-70.8
X135.9Y-71.65
X136.3Y-65.1
X136.5Y-66.0
X136.7Y-70.8
X136.8Y-83.1
X137.0Y-109.9
X137.0Y-113.08
X137.5Y-77.8
X139.0Y-75.4
X139.1Y-76.4
X139.182Y-69.68
X139.2Y-66.6
X139.25Y-79.15
X139.25Y-80.0
X139.3Y-82.3
X139.3Y-83.1
X139.4Y-120.6
X143.6Y-106.0
X143.6Y-109.6
X144.0Y-87.5
X144.0Y-98.0
T3
X140.838Y-78.4
X140.838Y-83.4
T4
X70.0Y-114.0
X72.5Y-114.0
X75.0Y-114.0
X108.0Y-64.0
X110.5Y-64.0
X113.0Y-64.0
X115.5Y-64.0
X118.0Y-64.0
X120.5Y-64.0
X123.0Y-64.0
X125.5Y-64.0
X128.0Y-64.0
X130.5Y-64.0
T5
X54.4Y-87.675
X54.4Y-90.215
X54.4Y-92.755
X54.4Y-95.295
X54.4Y-97.835
X54.4Y-100.375
X59.4Y-103.28
X59.4Y-105.82
X59.4Y-108.36
X59.4Y-110.9
X63.6Y-89.52
X63.6Y-92.06
X63.6Y-94.6
X92.1Y-88.8
X94.92Y-102.1
X97.46Y-102.1
X97.5Y-110.0
X97.5Y-112.54
X100.0Y-102.1
X100.04Y-110.0
X100.04Y-112.54
X102.58Y-110.0
X102.58Y-112.54
X105.12Y-110.0
X105.12Y-112.54
X107.66Y-110.0
X107.66Y-112.54
X110.2Y-110.0
X110.2Y-112.54
X110.3Y-78.5
X123.7Y-78.5
X126.35Y-95.02
X126.35Y-97.56
X126.35Y-100.1
X131.0Y-103.3
X131.0Y-105.84
X131.0Y-108.38
X131.0Y-110.92
X135.5Y-87.7
X135.5Y-90.24
X135.5Y-92.78
X135.5Y-95.32
X135.5Y-97.86
X135.5Y-100.4
T2
X138.22Y-64.03G85X139.32Y-64.03
G05
X138.22Y-72.67G85X139.32Y-72.67
G05
X142.65Y-64.03G85X143.25Y-64.03
G05
X142.65Y-72.67G85X143.25Y-72.67
G05
X143.188Y-77.4G85X143.887Y-77.4
G05
X143.887Y-84.4G85X143.188Y-84.4
G05
M30
