G04 #@! TF.GenerationSoftware,KiCad,Pcbnew,9.0.6*
G04 #@! TF.CreationDate,2026-03-03T22:35:12+01:00*
G04 #@! TF.ProjectId,saturn,73617475-726e-42e6-9b69-6361645f7063,rev?*
G04 #@! TF.SameCoordinates,Original*
G04 #@! TF.FileFunction,Soldermask,Bot*
G04 #@! TF.FilePolarity,Negative*
%FSLAX46Y46*%
G04 Gerber Fmt 4.6, Leading zero omitted, Abs format (unit mm)*
G04 Created by KiCad (PCBNEW 9.0.6) date 2026-03-03 22:35:12*
%MOMM*%
%LPD*%
G01*
G04 APERTURE LIST*
G04 Aperture macros list*
%AMRoundRect*
0 Rectangle with rounded corners*
0 $1 Rounding radius*
0 $2 $3 $4 $5 $6 $7 $8 $9 X,Y pos of 4 corners*
0 Add a 4 corners polygon primitive as box body*
4,1,4,$2,$3,$4,$5,$6,$7,$8,$9,$2,$3,0*
0 Add four circle primitives for the rounded corners*
1,1,$1+$1,$2,$3*
1,1,$1+$1,$4,$5*
1,1,$1+$1,$6,$7*
1,1,$1+$1,$8,$9*
0 Add four rect primitives between the rounded corners*
20,1,$1+$1,$2,$3,$4,$5,0*
20,1,$1+$1,$4,$5,$6,$7,0*
20,1,$1+$1,$6,$7,$8,$9,0*
20,1,$1+$1,$8,$9,$2,$3,0*%
G04 Aperture macros list end*
%ADD10O,1.900000X1.200000*%
%ADD11C,1.450000*%
%ADD12C,1.700000*%
%ADD13R,1.700000X1.700000*%
%ADD14RoundRect,0.250000X-0.600000X-0.725000X0.600000X-0.725000X0.600000X0.725000X-0.600000X0.725000X0*%
%ADD15O,1.700000X1.950000*%
%ADD16RoundRect,0.250000X0.600000X0.725000X-0.600000X0.725000X-0.600000X-0.725000X0.600000X-0.725000X0*%
%ADD17C,1.300000*%
%ADD18C,3.200000*%
%ADD19C,0.650000*%
%ADD20O,2.100000X1.000000*%
%ADD21O,1.600000X1.000000*%
G04 APERTURE END LIST*
D10*
G04 #@! TO.C,J11*
X143537500Y-84400000D03*
D11*
X140837500Y-83400000D03*
X140837500Y-78400000D03*
D10*
X143537500Y-77400000D03*
G04 #@! TD*
D12*
G04 #@! TO.C,J4*
X135500000Y-87700000D03*
X135500000Y-90240000D03*
X135500000Y-92780000D03*
X135500000Y-95320000D03*
X135500000Y-97860000D03*
D13*
X135500000Y-100400000D03*
G04 #@! TD*
D14*
G04 #@! TO.C,J13*
X70000000Y-114000000D03*
D15*
X72500000Y-114000000D03*
X75000000Y-114000000D03*
G04 #@! TD*
D16*
G04 #@! TO.C,J6*
X130500000Y-64000000D03*
D15*
X128000000Y-64000000D03*
X125500000Y-64000000D03*
X123000000Y-64000000D03*
X120500000Y-64000000D03*
X118000000Y-64000000D03*
X115500000Y-64000000D03*
X113000000Y-64000000D03*
X110500000Y-64000000D03*
X108000000Y-64000000D03*
G04 #@! TD*
D17*
G04 #@! TO.C,H5*
X137000000Y-58000000D03*
G04 #@! TD*
G04 #@! TO.C,H7*
X141500000Y-114000000D03*
G04 #@! TD*
D12*
G04 #@! TO.C,J3*
X54400000Y-100375000D03*
X54400000Y-97835000D03*
X54400000Y-95295000D03*
X54400000Y-92755000D03*
X54400000Y-90215000D03*
D13*
X54400000Y-87675000D03*
G04 #@! TD*
D12*
G04 #@! TO.C,J2*
X110200000Y-110000000D03*
X107660000Y-110000000D03*
X105120000Y-110000000D03*
X102580000Y-110000000D03*
X100040000Y-110000000D03*
D13*
X97500000Y-110000000D03*
D12*
X110200000Y-112540000D03*
X107660000Y-112540000D03*
X105120000Y-112540000D03*
X102580000Y-112540000D03*
X100040000Y-112540000D03*
X97500000Y-112540000D03*
G04 #@! TD*
D18*
G04 #@! TO.C,H1*
X49000000Y-60000000D03*
G04 #@! TD*
D13*
G04 #@! TO.C,J1*
X131000000Y-103300000D03*
D12*
X131000000Y-105840000D03*
X131000000Y-108380000D03*
X131000000Y-110920000D03*
G04 #@! TD*
D13*
G04 #@! TO.C,J14*
X59400000Y-110900000D03*
D12*
X59400000Y-108360000D03*
X59400000Y-105820000D03*
X59400000Y-103280000D03*
G04 #@! TD*
D13*
G04 #@! TO.C,JP3*
X126350000Y-100100000D03*
D12*
X126350000Y-97560000D03*
X126350000Y-95020000D03*
G04 #@! TD*
D13*
G04 #@! TO.C,TP2*
X123700000Y-78500000D03*
G04 #@! TD*
D19*
G04 #@! TO.C,J12*
X139300000Y-71240000D03*
X139300000Y-65460000D03*
D20*
X138770000Y-72670000D03*
D21*
X142950000Y-72670000D03*
D20*
X138770000Y-64030000D03*
D21*
X142950000Y-64030000D03*
G04 #@! TD*
D18*
G04 #@! TO.C,H4*
X129000000Y-118000000D03*
G04 #@! TD*
D13*
G04 #@! TO.C,JP1*
X94920000Y-102100000D03*
D12*
X97460000Y-102100000D03*
X100000000Y-102100000D03*
G04 #@! TD*
D13*
G04 #@! TO.C,JP2*
X63600000Y-89520000D03*
D12*
X63600000Y-92060000D03*
X63600000Y-94600000D03*
G04 #@! TD*
D13*
G04 #@! TO.C,TP3*
X92100000Y-88800000D03*
G04 #@! TD*
D18*
G04 #@! TO.C,H2*
X141000000Y-60000000D03*
G04 #@! TD*
D17*
G04 #@! TO.C,H6*
X48500000Y-114000000D03*
G04 #@! TD*
D18*
G04 #@! TO.C,H3*
X61000000Y-118000000D03*
G04 #@! TD*
D13*
G04 #@! TO.C,TP1*
X110300000Y-78500000D03*
G04 #@! TD*
M02*
