%TF.GenerationSoftware,KiCad,Pcbnew,9.0.6*%
%TF.CreationDate,2026-03-03T22:35:12+01:00*%
%TF.ProjectId,saturn,73617475-726e-42e6-9b69-6361645f7063,rev?*%
%TF.SameCoordinates,Original*%
%TF.FileFunction,Drillmap*%
%TF.FilePolarity,Positive*%
%FSLAX45Y45*%
G04 Gerber Fmt 4.5, Leading zero omitted, Abs format (unit mm)*
G04 Created by KiCad (PCBNEW 9.0.6) date 2026-03-03 22:35:12*
%MOMM*%
%LPD*%
G01*
G04 APERTURE LIST*
%ADD10C,0.050000*%
%ADD11C,0.200000*%
%ADD12C,0.100000*%
%ADD13C,0.115200*%
%ADD14C,0.320000*%
G04 APERTURE END LIST*
D10*
X4900000Y-12200000D02*
G75*
G02*
X4500000Y-11800000I0J400000D01*
G01*
X14500000Y-11800000D02*
G75*
G02*
X14100000Y-12200000I-400000J0D01*
G01*
X14500000Y-6000000D02*
X14500000Y-11800000D01*
X14100000Y-12200000D02*
X4900000Y-12200000D01*
X4900000Y-5600000D02*
X14100000Y-5600000D01*
X4500000Y-11800000D02*
X4500000Y-6000000D01*
X14100000Y-5600000D02*
G75*
G02*
X14500000Y-6000000I0J-400000D01*
G01*
X4500000Y-6000000D02*
G75*
G02*
X4900000Y-5600000I400000J0D01*
G01*
D11*
D12*
X13897500Y-6513500D02*
X13962500Y-6578500D01*
X13962500Y-6513500D02*
X13897500Y-6578500D01*
X13897500Y-7091500D02*
X13962500Y-7156500D01*
X13962500Y-7091500D02*
X13897500Y-7156500D01*
D13*
X4907600Y-11400000D02*
G75*
G02*
X4792400Y-11400000I-57600J0D01*
G01*
X4792400Y-11400000D02*
G75*
G02*
X4907600Y-11400000I57600J0D01*
G01*
X13757600Y-5800000D02*
G75*
G02*
X13642400Y-5800000I-57600J0D01*
G01*
X13642400Y-5800000D02*
G75*
G02*
X13757600Y-5800000I57600J0D01*
G01*
X14207600Y-11400000D02*
G75*
G02*
X14092400Y-11400000I-57600J0D01*
G01*
X14092400Y-11400000D02*
G75*
G02*
X14207600Y-11400000I57600J0D01*
G01*
D14*
X4900000Y-5840000D02*
X4900000Y-6160000D01*
X4740000Y-6000000D02*
X5060000Y-6000000D01*
X6100000Y-11640000D02*
X6100000Y-11960000D01*
X5940000Y-11800000D02*
X6260000Y-11800000D01*
X12900000Y-11640000D02*
X12900000Y-11960000D01*
X12740000Y-11800000D02*
X13060000Y-11800000D01*
X14100000Y-5840000D02*
X14100000Y-6160000D01*
X13940000Y-6000000D02*
X14260000Y-6000000D01*
D11*
X4758277Y-12513984D02*
X4758277Y-12313984D01*
X4758277Y-12313984D02*
X4805896Y-12313984D01*
X4805896Y-12313984D02*
X4834467Y-12323508D01*
X4834467Y-12323508D02*
X4853515Y-12342555D01*
X4853515Y-12342555D02*
X4863039Y-12361603D01*
X4863039Y-12361603D02*
X4872563Y-12399698D01*
X4872563Y-12399698D02*
X4872563Y-12428269D01*
X4872563Y-12428269D02*
X4863039Y-12466365D01*
X4863039Y-12466365D02*
X4853515Y-12485412D01*
X4853515Y-12485412D02*
X4834467Y-12504460D01*
X4834467Y-12504460D02*
X4805896Y-12513984D01*
X4805896Y-12513984D02*
X4758277Y-12513984D01*
X4958277Y-12513984D02*
X4958277Y-12380650D01*
X4958277Y-12418746D02*
X4967801Y-12399698D01*
X4967801Y-12399698D02*
X4977324Y-12390174D01*
X4977324Y-12390174D02*
X4996372Y-12380650D01*
X4996372Y-12380650D02*
X5015420Y-12380650D01*
X5082086Y-12513984D02*
X5082086Y-12380650D01*
X5082086Y-12313984D02*
X5072563Y-12323508D01*
X5072563Y-12323508D02*
X5082086Y-12333031D01*
X5082086Y-12333031D02*
X5091610Y-12323508D01*
X5091610Y-12323508D02*
X5082086Y-12313984D01*
X5082086Y-12313984D02*
X5082086Y-12333031D01*
X5205896Y-12513984D02*
X5186848Y-12504460D01*
X5186848Y-12504460D02*
X5177324Y-12485412D01*
X5177324Y-12485412D02*
X5177324Y-12313984D01*
X5310658Y-12513984D02*
X5291610Y-12504460D01*
X5291610Y-12504460D02*
X5282086Y-12485412D01*
X5282086Y-12485412D02*
X5282086Y-12313984D01*
X5539229Y-12513984D02*
X5539229Y-12313984D01*
X5539229Y-12313984D02*
X5605896Y-12456841D01*
X5605896Y-12456841D02*
X5672562Y-12313984D01*
X5672562Y-12313984D02*
X5672562Y-12513984D01*
X5853515Y-12513984D02*
X5853515Y-12409222D01*
X5853515Y-12409222D02*
X5843991Y-12390174D01*
X5843991Y-12390174D02*
X5824943Y-12380650D01*
X5824943Y-12380650D02*
X5786848Y-12380650D01*
X5786848Y-12380650D02*
X5767801Y-12390174D01*
X5853515Y-12504460D02*
X5834467Y-12513984D01*
X5834467Y-12513984D02*
X5786848Y-12513984D01*
X5786848Y-12513984D02*
X5767801Y-12504460D01*
X5767801Y-12504460D02*
X5758277Y-12485412D01*
X5758277Y-12485412D02*
X5758277Y-12466365D01*
X5758277Y-12466365D02*
X5767801Y-12447317D01*
X5767801Y-12447317D02*
X5786848Y-12437793D01*
X5786848Y-12437793D02*
X5834467Y-12437793D01*
X5834467Y-12437793D02*
X5853515Y-12428269D01*
X5948753Y-12380650D02*
X5948753Y-12580650D01*
X5948753Y-12390174D02*
X5967801Y-12380650D01*
X5967801Y-12380650D02*
X6005896Y-12380650D01*
X6005896Y-12380650D02*
X6024943Y-12390174D01*
X6024943Y-12390174D02*
X6034467Y-12399698D01*
X6034467Y-12399698D02*
X6043991Y-12418746D01*
X6043991Y-12418746D02*
X6043991Y-12475888D01*
X6043991Y-12475888D02*
X6034467Y-12494936D01*
X6034467Y-12494936D02*
X6024943Y-12504460D01*
X6024943Y-12504460D02*
X6005896Y-12513984D01*
X6005896Y-12513984D02*
X5967801Y-12513984D01*
X5967801Y-12513984D02*
X5948753Y-12504460D01*
X6129705Y-12494936D02*
X6139229Y-12504460D01*
X6139229Y-12504460D02*
X6129705Y-12513984D01*
X6129705Y-12513984D02*
X6120182Y-12504460D01*
X6120182Y-12504460D02*
X6129705Y-12494936D01*
X6129705Y-12494936D02*
X6129705Y-12513984D01*
X6129705Y-12390174D02*
X6139229Y-12399698D01*
X6139229Y-12399698D02*
X6129705Y-12409222D01*
X6129705Y-12409222D02*
X6120182Y-12399698D01*
X6120182Y-12399698D02*
X6129705Y-12390174D01*
X6129705Y-12390174D02*
X6129705Y-12409222D01*
D12*
X4432500Y-12810000D02*
X4497500Y-12875000D01*
X4497500Y-12810000D02*
X4432500Y-12875000D01*
D11*
X4796372Y-12733984D02*
X4815420Y-12733984D01*
X4815420Y-12733984D02*
X4834467Y-12743508D01*
X4834467Y-12743508D02*
X4843991Y-12753031D01*
X4843991Y-12753031D02*
X4853515Y-12772079D01*
X4853515Y-12772079D02*
X4863039Y-12810174D01*
X4863039Y-12810174D02*
X4863039Y-12857793D01*
X4863039Y-12857793D02*
X4853515Y-12895888D01*
X4853515Y-12895888D02*
X4843991Y-12914936D01*
X4843991Y-12914936D02*
X4834467Y-12924460D01*
X4834467Y-12924460D02*
X4815420Y-12933984D01*
X4815420Y-12933984D02*
X4796372Y-12933984D01*
X4796372Y-12933984D02*
X4777324Y-12924460D01*
X4777324Y-12924460D02*
X4767801Y-12914936D01*
X4767801Y-12914936D02*
X4758277Y-12895888D01*
X4758277Y-12895888D02*
X4748753Y-12857793D01*
X4748753Y-12857793D02*
X4748753Y-12810174D01*
X4748753Y-12810174D02*
X4758277Y-12772079D01*
X4758277Y-12772079D02*
X4767801Y-12753031D01*
X4767801Y-12753031D02*
X4777324Y-12743508D01*
X4777324Y-12743508D02*
X4796372Y-12733984D01*
X4948753Y-12914936D02*
X4958277Y-12924460D01*
X4958277Y-12924460D02*
X4948753Y-12933984D01*
X4948753Y-12933984D02*
X4939229Y-12924460D01*
X4939229Y-12924460D02*
X4948753Y-12914936D01*
X4948753Y-12914936D02*
X4948753Y-12933984D01*
X5129705Y-12733984D02*
X5091610Y-12733984D01*
X5091610Y-12733984D02*
X5072563Y-12743508D01*
X5072563Y-12743508D02*
X5063039Y-12753031D01*
X5063039Y-12753031D02*
X5043991Y-12781603D01*
X5043991Y-12781603D02*
X5034467Y-12819698D01*
X5034467Y-12819698D02*
X5034467Y-12895888D01*
X5034467Y-12895888D02*
X5043991Y-12914936D01*
X5043991Y-12914936D02*
X5053515Y-12924460D01*
X5053515Y-12924460D02*
X5072563Y-12933984D01*
X5072563Y-12933984D02*
X5110658Y-12933984D01*
X5110658Y-12933984D02*
X5129705Y-12924460D01*
X5129705Y-12924460D02*
X5139229Y-12914936D01*
X5139229Y-12914936D02*
X5148753Y-12895888D01*
X5148753Y-12895888D02*
X5148753Y-12848269D01*
X5148753Y-12848269D02*
X5139229Y-12829222D01*
X5139229Y-12829222D02*
X5129705Y-12819698D01*
X5129705Y-12819698D02*
X5110658Y-12810174D01*
X5110658Y-12810174D02*
X5072563Y-12810174D01*
X5072563Y-12810174D02*
X5053515Y-12819698D01*
X5053515Y-12819698D02*
X5043991Y-12829222D01*
X5043991Y-12829222D02*
X5034467Y-12848269D01*
X5329705Y-12733984D02*
X5234467Y-12733984D01*
X5234467Y-12733984D02*
X5224944Y-12829222D01*
X5224944Y-12829222D02*
X5234467Y-12819698D01*
X5234467Y-12819698D02*
X5253515Y-12810174D01*
X5253515Y-12810174D02*
X5301134Y-12810174D01*
X5301134Y-12810174D02*
X5320182Y-12819698D01*
X5320182Y-12819698D02*
X5329705Y-12829222D01*
X5329705Y-12829222D02*
X5339229Y-12848269D01*
X5339229Y-12848269D02*
X5339229Y-12895888D01*
X5339229Y-12895888D02*
X5329705Y-12914936D01*
X5329705Y-12914936D02*
X5320182Y-12924460D01*
X5320182Y-12924460D02*
X5301134Y-12933984D01*
X5301134Y-12933984D02*
X5253515Y-12933984D01*
X5253515Y-12933984D02*
X5234467Y-12924460D01*
X5234467Y-12924460D02*
X5224944Y-12914936D01*
X5463039Y-12733984D02*
X5482086Y-12733984D01*
X5482086Y-12733984D02*
X5501134Y-12743508D01*
X5501134Y-12743508D02*
X5510658Y-12753031D01*
X5510658Y-12753031D02*
X5520182Y-12772079D01*
X5520182Y-12772079D02*
X5529705Y-12810174D01*
X5529705Y-12810174D02*
X5529705Y-12857793D01*
X5529705Y-12857793D02*
X5520182Y-12895888D01*
X5520182Y-12895888D02*
X5510658Y-12914936D01*
X5510658Y-12914936D02*
X5501134Y-12924460D01*
X5501134Y-12924460D02*
X5482086Y-12933984D01*
X5482086Y-12933984D02*
X5463039Y-12933984D01*
X5463039Y-12933984D02*
X5443991Y-12924460D01*
X5443991Y-12924460D02*
X5434467Y-12914936D01*
X5434467Y-12914936D02*
X5424944Y-12895888D01*
X5424944Y-12895888D02*
X5415420Y-12857793D01*
X5415420Y-12857793D02*
X5415420Y-12810174D01*
X5415420Y-12810174D02*
X5424944Y-12772079D01*
X5424944Y-12772079D02*
X5434467Y-12753031D01*
X5434467Y-12753031D02*
X5443991Y-12743508D01*
X5443991Y-12743508D02*
X5463039Y-12733984D01*
X5615420Y-12933984D02*
X5615420Y-12800650D01*
X5615420Y-12819698D02*
X5624943Y-12810174D01*
X5624943Y-12810174D02*
X5643991Y-12800650D01*
X5643991Y-12800650D02*
X5672563Y-12800650D01*
X5672563Y-12800650D02*
X5691610Y-12810174D01*
X5691610Y-12810174D02*
X5701134Y-12829222D01*
X5701134Y-12829222D02*
X5701134Y-12933984D01*
X5701134Y-12829222D02*
X5710658Y-12810174D01*
X5710658Y-12810174D02*
X5729705Y-12800650D01*
X5729705Y-12800650D02*
X5758277Y-12800650D01*
X5758277Y-12800650D02*
X5777324Y-12810174D01*
X5777324Y-12810174D02*
X5786848Y-12829222D01*
X5786848Y-12829222D02*
X5786848Y-12933984D01*
X5882086Y-12933984D02*
X5882086Y-12800650D01*
X5882086Y-12819698D02*
X5891610Y-12810174D01*
X5891610Y-12810174D02*
X5910658Y-12800650D01*
X5910658Y-12800650D02*
X5939229Y-12800650D01*
X5939229Y-12800650D02*
X5958277Y-12810174D01*
X5958277Y-12810174D02*
X5967801Y-12829222D01*
X5967801Y-12829222D02*
X5967801Y-12933984D01*
X5967801Y-12829222D02*
X5977324Y-12810174D01*
X5977324Y-12810174D02*
X5996372Y-12800650D01*
X5996372Y-12800650D02*
X6024943Y-12800650D01*
X6024943Y-12800650D02*
X6043991Y-12810174D01*
X6043991Y-12810174D02*
X6053515Y-12829222D01*
X6053515Y-12829222D02*
X6053515Y-12933984D01*
X6443991Y-12724460D02*
X6272563Y-12981603D01*
X6701134Y-12733984D02*
X6720182Y-12733984D01*
X6720182Y-12733984D02*
X6739229Y-12743508D01*
X6739229Y-12743508D02*
X6748753Y-12753031D01*
X6748753Y-12753031D02*
X6758277Y-12772079D01*
X6758277Y-12772079D02*
X6767801Y-12810174D01*
X6767801Y-12810174D02*
X6767801Y-12857793D01*
X6767801Y-12857793D02*
X6758277Y-12895888D01*
X6758277Y-12895888D02*
X6748753Y-12914936D01*
X6748753Y-12914936D02*
X6739229Y-12924460D01*
X6739229Y-12924460D02*
X6720182Y-12933984D01*
X6720182Y-12933984D02*
X6701134Y-12933984D01*
X6701134Y-12933984D02*
X6682086Y-12924460D01*
X6682086Y-12924460D02*
X6672563Y-12914936D01*
X6672563Y-12914936D02*
X6663039Y-12895888D01*
X6663039Y-12895888D02*
X6653515Y-12857793D01*
X6653515Y-12857793D02*
X6653515Y-12810174D01*
X6653515Y-12810174D02*
X6663039Y-12772079D01*
X6663039Y-12772079D02*
X6672563Y-12753031D01*
X6672563Y-12753031D02*
X6682086Y-12743508D01*
X6682086Y-12743508D02*
X6701134Y-12733984D01*
X6853515Y-12914936D02*
X6863039Y-12924460D01*
X6863039Y-12924460D02*
X6853515Y-12933984D01*
X6853515Y-12933984D02*
X6843991Y-12924460D01*
X6843991Y-12924460D02*
X6853515Y-12914936D01*
X6853515Y-12914936D02*
X6853515Y-12933984D01*
X6986848Y-12733984D02*
X7005896Y-12733984D01*
X7005896Y-12733984D02*
X7024944Y-12743508D01*
X7024944Y-12743508D02*
X7034467Y-12753031D01*
X7034467Y-12753031D02*
X7043991Y-12772079D01*
X7043991Y-12772079D02*
X7053515Y-12810174D01*
X7053515Y-12810174D02*
X7053515Y-12857793D01*
X7053515Y-12857793D02*
X7043991Y-12895888D01*
X7043991Y-12895888D02*
X7034467Y-12914936D01*
X7034467Y-12914936D02*
X7024944Y-12924460D01*
X7024944Y-12924460D02*
X7005896Y-12933984D01*
X7005896Y-12933984D02*
X6986848Y-12933984D01*
X6986848Y-12933984D02*
X6967801Y-12924460D01*
X6967801Y-12924460D02*
X6958277Y-12914936D01*
X6958277Y-12914936D02*
X6948753Y-12895888D01*
X6948753Y-12895888D02*
X6939229Y-12857793D01*
X6939229Y-12857793D02*
X6939229Y-12810174D01*
X6939229Y-12810174D02*
X6948753Y-12772079D01*
X6948753Y-12772079D02*
X6958277Y-12753031D01*
X6958277Y-12753031D02*
X6967801Y-12743508D01*
X6967801Y-12743508D02*
X6986848Y-12733984D01*
X7129706Y-12753031D02*
X7139229Y-12743508D01*
X7139229Y-12743508D02*
X7158277Y-12733984D01*
X7158277Y-12733984D02*
X7205896Y-12733984D01*
X7205896Y-12733984D02*
X7224944Y-12743508D01*
X7224944Y-12743508D02*
X7234467Y-12753031D01*
X7234467Y-12753031D02*
X7243991Y-12772079D01*
X7243991Y-12772079D02*
X7243991Y-12791127D01*
X7243991Y-12791127D02*
X7234467Y-12819698D01*
X7234467Y-12819698D02*
X7120182Y-12933984D01*
X7120182Y-12933984D02*
X7243991Y-12933984D01*
X7424944Y-12733984D02*
X7329706Y-12733984D01*
X7329706Y-12733984D02*
X7320182Y-12829222D01*
X7320182Y-12829222D02*
X7329706Y-12819698D01*
X7329706Y-12819698D02*
X7348753Y-12810174D01*
X7348753Y-12810174D02*
X7396372Y-12810174D01*
X7396372Y-12810174D02*
X7415420Y-12819698D01*
X7415420Y-12819698D02*
X7424944Y-12829222D01*
X7424944Y-12829222D02*
X7434467Y-12848269D01*
X7434467Y-12848269D02*
X7434467Y-12895888D01*
X7434467Y-12895888D02*
X7424944Y-12914936D01*
X7424944Y-12914936D02*
X7415420Y-12924460D01*
X7415420Y-12924460D02*
X7396372Y-12933984D01*
X7396372Y-12933984D02*
X7348753Y-12933984D01*
X7348753Y-12933984D02*
X7329706Y-12924460D01*
X7329706Y-12924460D02*
X7320182Y-12914936D01*
X7605896Y-12733984D02*
X7567801Y-12733984D01*
X7567801Y-12733984D02*
X7548753Y-12743508D01*
X7548753Y-12743508D02*
X7539229Y-12753031D01*
X7539229Y-12753031D02*
X7520182Y-12781603D01*
X7520182Y-12781603D02*
X7510658Y-12819698D01*
X7510658Y-12819698D02*
X7510658Y-12895888D01*
X7510658Y-12895888D02*
X7520182Y-12914936D01*
X7520182Y-12914936D02*
X7529706Y-12924460D01*
X7529706Y-12924460D02*
X7548753Y-12933984D01*
X7548753Y-12933984D02*
X7586848Y-12933984D01*
X7586848Y-12933984D02*
X7605896Y-12924460D01*
X7605896Y-12924460D02*
X7615420Y-12914936D01*
X7615420Y-12914936D02*
X7624944Y-12895888D01*
X7624944Y-12895888D02*
X7624944Y-12848269D01*
X7624944Y-12848269D02*
X7615420Y-12829222D01*
X7615420Y-12829222D02*
X7605896Y-12819698D01*
X7605896Y-12819698D02*
X7586848Y-12810174D01*
X7586848Y-12810174D02*
X7548753Y-12810174D01*
X7548753Y-12810174D02*
X7529706Y-12819698D01*
X7529706Y-12819698D02*
X7520182Y-12829222D01*
X7520182Y-12829222D02*
X7510658Y-12848269D01*
X7701134Y-12733984D02*
X7701134Y-12772079D01*
X7777325Y-12733984D02*
X7777325Y-12772079D01*
X8072563Y-13010174D02*
X8063039Y-13000650D01*
X8063039Y-13000650D02*
X8043991Y-12972079D01*
X8043991Y-12972079D02*
X8034468Y-12953031D01*
X8034468Y-12953031D02*
X8024944Y-12924460D01*
X8024944Y-12924460D02*
X8015420Y-12876841D01*
X8015420Y-12876841D02*
X8015420Y-12838746D01*
X8015420Y-12838746D02*
X8024944Y-12791127D01*
X8024944Y-12791127D02*
X8034468Y-12762555D01*
X8034468Y-12762555D02*
X8043991Y-12743508D01*
X8043991Y-12743508D02*
X8063039Y-12714936D01*
X8063039Y-12714936D02*
X8072563Y-12705412D01*
X8139229Y-12753031D02*
X8148753Y-12743508D01*
X8148753Y-12743508D02*
X8167801Y-12733984D01*
X8167801Y-12733984D02*
X8215420Y-12733984D01*
X8215420Y-12733984D02*
X8234468Y-12743508D01*
X8234468Y-12743508D02*
X8243991Y-12753031D01*
X8243991Y-12753031D02*
X8253515Y-12772079D01*
X8253515Y-12772079D02*
X8253515Y-12791127D01*
X8253515Y-12791127D02*
X8243991Y-12819698D01*
X8243991Y-12819698D02*
X8129706Y-12933984D01*
X8129706Y-12933984D02*
X8253515Y-12933984D01*
X8491611Y-12933984D02*
X8491611Y-12733984D01*
X8577325Y-12933984D02*
X8577325Y-12829222D01*
X8577325Y-12829222D02*
X8567801Y-12810174D01*
X8567801Y-12810174D02*
X8548753Y-12800650D01*
X8548753Y-12800650D02*
X8520182Y-12800650D01*
X8520182Y-12800650D02*
X8501134Y-12810174D01*
X8501134Y-12810174D02*
X8491611Y-12819698D01*
X8701134Y-12933984D02*
X8682087Y-12924460D01*
X8682087Y-12924460D02*
X8672563Y-12914936D01*
X8672563Y-12914936D02*
X8663039Y-12895888D01*
X8663039Y-12895888D02*
X8663039Y-12838746D01*
X8663039Y-12838746D02*
X8672563Y-12819698D01*
X8672563Y-12819698D02*
X8682087Y-12810174D01*
X8682087Y-12810174D02*
X8701134Y-12800650D01*
X8701134Y-12800650D02*
X8729706Y-12800650D01*
X8729706Y-12800650D02*
X8748753Y-12810174D01*
X8748753Y-12810174D02*
X8758277Y-12819698D01*
X8758277Y-12819698D02*
X8767801Y-12838746D01*
X8767801Y-12838746D02*
X8767801Y-12895888D01*
X8767801Y-12895888D02*
X8758277Y-12914936D01*
X8758277Y-12914936D02*
X8748753Y-12924460D01*
X8748753Y-12924460D02*
X8729706Y-12933984D01*
X8729706Y-12933984D02*
X8701134Y-12933984D01*
X8882087Y-12933984D02*
X8863039Y-12924460D01*
X8863039Y-12924460D02*
X8853515Y-12905412D01*
X8853515Y-12905412D02*
X8853515Y-12733984D01*
X9034468Y-12924460D02*
X9015420Y-12933984D01*
X9015420Y-12933984D02*
X8977325Y-12933984D01*
X8977325Y-12933984D02*
X8958277Y-12924460D01*
X8958277Y-12924460D02*
X8948753Y-12905412D01*
X8948753Y-12905412D02*
X8948753Y-12829222D01*
X8948753Y-12829222D02*
X8958277Y-12810174D01*
X8958277Y-12810174D02*
X8977325Y-12800650D01*
X8977325Y-12800650D02*
X9015420Y-12800650D01*
X9015420Y-12800650D02*
X9034468Y-12810174D01*
X9034468Y-12810174D02*
X9043992Y-12829222D01*
X9043992Y-12829222D02*
X9043992Y-12848269D01*
X9043992Y-12848269D02*
X8948753Y-12867317D01*
X9120182Y-12924460D02*
X9139230Y-12933984D01*
X9139230Y-12933984D02*
X9177325Y-12933984D01*
X9177325Y-12933984D02*
X9196373Y-12924460D01*
X9196373Y-12924460D02*
X9205896Y-12905412D01*
X9205896Y-12905412D02*
X9205896Y-12895888D01*
X9205896Y-12895888D02*
X9196373Y-12876841D01*
X9196373Y-12876841D02*
X9177325Y-12867317D01*
X9177325Y-12867317D02*
X9148753Y-12867317D01*
X9148753Y-12867317D02*
X9129706Y-12857793D01*
X9129706Y-12857793D02*
X9120182Y-12838746D01*
X9120182Y-12838746D02*
X9120182Y-12829222D01*
X9120182Y-12829222D02*
X9129706Y-12810174D01*
X9129706Y-12810174D02*
X9148753Y-12800650D01*
X9148753Y-12800650D02*
X9177325Y-12800650D01*
X9177325Y-12800650D02*
X9196373Y-12810174D01*
X9272563Y-13010174D02*
X9282087Y-13000650D01*
X9282087Y-13000650D02*
X9301134Y-12972079D01*
X9301134Y-12972079D02*
X9310658Y-12953031D01*
X9310658Y-12953031D02*
X9320182Y-12924460D01*
X9320182Y-12924460D02*
X9329706Y-12876841D01*
X9329706Y-12876841D02*
X9329706Y-12838746D01*
X9329706Y-12838746D02*
X9320182Y-12791127D01*
X9320182Y-12791127D02*
X9310658Y-12762555D01*
X9310658Y-12762555D02*
X9301134Y-12743508D01*
X9301134Y-12743508D02*
X9282087Y-12714936D01*
X9282087Y-12714936D02*
X9272563Y-12705412D01*
X9634468Y-13010174D02*
X9624944Y-13000650D01*
X9624944Y-13000650D02*
X9605896Y-12972079D01*
X9605896Y-12972079D02*
X9596373Y-12953031D01*
X9596373Y-12953031D02*
X9586849Y-12924460D01*
X9586849Y-12924460D02*
X9577325Y-12876841D01*
X9577325Y-12876841D02*
X9577325Y-12838746D01*
X9577325Y-12838746D02*
X9586849Y-12791127D01*
X9586849Y-12791127D02*
X9596373Y-12762555D01*
X9596373Y-12762555D02*
X9605896Y-12743508D01*
X9605896Y-12743508D02*
X9624944Y-12714936D01*
X9624944Y-12714936D02*
X9634468Y-12705412D01*
X9710658Y-12800650D02*
X9710658Y-12933984D01*
X9710658Y-12819698D02*
X9720182Y-12810174D01*
X9720182Y-12810174D02*
X9739230Y-12800650D01*
X9739230Y-12800650D02*
X9767801Y-12800650D01*
X9767801Y-12800650D02*
X9786849Y-12810174D01*
X9786849Y-12810174D02*
X9796373Y-12829222D01*
X9796373Y-12829222D02*
X9796373Y-12933984D01*
X9920182Y-12933984D02*
X9901134Y-12924460D01*
X9901134Y-12924460D02*
X9891611Y-12914936D01*
X9891611Y-12914936D02*
X9882087Y-12895888D01*
X9882087Y-12895888D02*
X9882087Y-12838746D01*
X9882087Y-12838746D02*
X9891611Y-12819698D01*
X9891611Y-12819698D02*
X9901134Y-12810174D01*
X9901134Y-12810174D02*
X9920182Y-12800650D01*
X9920182Y-12800650D02*
X9948754Y-12800650D01*
X9948754Y-12800650D02*
X9967801Y-12810174D01*
X9967801Y-12810174D02*
X9977325Y-12819698D01*
X9977325Y-12819698D02*
X9986849Y-12838746D01*
X9986849Y-12838746D02*
X9986849Y-12895888D01*
X9986849Y-12895888D02*
X9977325Y-12914936D01*
X9977325Y-12914936D02*
X9967801Y-12924460D01*
X9967801Y-12924460D02*
X9948754Y-12933984D01*
X9948754Y-12933984D02*
X9920182Y-12933984D01*
X10043992Y-12800650D02*
X10120182Y-12800650D01*
X10072563Y-12733984D02*
X10072563Y-12905412D01*
X10072563Y-12905412D02*
X10082087Y-12924460D01*
X10082087Y-12924460D02*
X10101134Y-12933984D01*
X10101134Y-12933984D02*
X10120182Y-12933984D01*
X10339230Y-12800650D02*
X10339230Y-13000650D01*
X10339230Y-12810174D02*
X10358277Y-12800650D01*
X10358277Y-12800650D02*
X10396373Y-12800650D01*
X10396373Y-12800650D02*
X10415420Y-12810174D01*
X10415420Y-12810174D02*
X10424944Y-12819698D01*
X10424944Y-12819698D02*
X10434468Y-12838746D01*
X10434468Y-12838746D02*
X10434468Y-12895888D01*
X10434468Y-12895888D02*
X10424944Y-12914936D01*
X10424944Y-12914936D02*
X10415420Y-12924460D01*
X10415420Y-12924460D02*
X10396373Y-12933984D01*
X10396373Y-12933984D02*
X10358277Y-12933984D01*
X10358277Y-12933984D02*
X10339230Y-12924460D01*
X10548754Y-12933984D02*
X10529706Y-12924460D01*
X10529706Y-12924460D02*
X10520182Y-12905412D01*
X10520182Y-12905412D02*
X10520182Y-12733984D01*
X10710658Y-12933984D02*
X10710658Y-12829222D01*
X10710658Y-12829222D02*
X10701135Y-12810174D01*
X10701135Y-12810174D02*
X10682087Y-12800650D01*
X10682087Y-12800650D02*
X10643992Y-12800650D01*
X10643992Y-12800650D02*
X10624944Y-12810174D01*
X10710658Y-12924460D02*
X10691611Y-12933984D01*
X10691611Y-12933984D02*
X10643992Y-12933984D01*
X10643992Y-12933984D02*
X10624944Y-12924460D01*
X10624944Y-12924460D02*
X10615420Y-12905412D01*
X10615420Y-12905412D02*
X10615420Y-12886365D01*
X10615420Y-12886365D02*
X10624944Y-12867317D01*
X10624944Y-12867317D02*
X10643992Y-12857793D01*
X10643992Y-12857793D02*
X10691611Y-12857793D01*
X10691611Y-12857793D02*
X10710658Y-12848269D01*
X10777325Y-12800650D02*
X10853515Y-12800650D01*
X10805896Y-12733984D02*
X10805896Y-12905412D01*
X10805896Y-12905412D02*
X10815420Y-12924460D01*
X10815420Y-12924460D02*
X10834468Y-12933984D01*
X10834468Y-12933984D02*
X10853515Y-12933984D01*
X10996373Y-12924460D02*
X10977325Y-12933984D01*
X10977325Y-12933984D02*
X10939230Y-12933984D01*
X10939230Y-12933984D02*
X10920182Y-12924460D01*
X10920182Y-12924460D02*
X10910658Y-12905412D01*
X10910658Y-12905412D02*
X10910658Y-12829222D01*
X10910658Y-12829222D02*
X10920182Y-12810174D01*
X10920182Y-12810174D02*
X10939230Y-12800650D01*
X10939230Y-12800650D02*
X10977325Y-12800650D01*
X10977325Y-12800650D02*
X10996373Y-12810174D01*
X10996373Y-12810174D02*
X11005896Y-12829222D01*
X11005896Y-12829222D02*
X11005896Y-12848269D01*
X11005896Y-12848269D02*
X10910658Y-12867317D01*
X11177325Y-12933984D02*
X11177325Y-12733984D01*
X11177325Y-12924460D02*
X11158277Y-12933984D01*
X11158277Y-12933984D02*
X11120182Y-12933984D01*
X11120182Y-12933984D02*
X11101135Y-12924460D01*
X11101135Y-12924460D02*
X11091611Y-12914936D01*
X11091611Y-12914936D02*
X11082087Y-12895888D01*
X11082087Y-12895888D02*
X11082087Y-12838746D01*
X11082087Y-12838746D02*
X11091611Y-12819698D01*
X11091611Y-12819698D02*
X11101135Y-12810174D01*
X11101135Y-12810174D02*
X11120182Y-12800650D01*
X11120182Y-12800650D02*
X11158277Y-12800650D01*
X11158277Y-12800650D02*
X11177325Y-12810174D01*
X11253515Y-13010174D02*
X11263039Y-13000650D01*
X11263039Y-13000650D02*
X11282087Y-12972079D01*
X11282087Y-12972079D02*
X11291611Y-12953031D01*
X11291611Y-12953031D02*
X11301134Y-12924460D01*
X11301134Y-12924460D02*
X11310658Y-12876841D01*
X11310658Y-12876841D02*
X11310658Y-12838746D01*
X11310658Y-12838746D02*
X11301134Y-12791127D01*
X11301134Y-12791127D02*
X11291611Y-12762555D01*
X11291611Y-12762555D02*
X11282087Y-12743508D01*
X11282087Y-12743508D02*
X11263039Y-12714936D01*
X11263039Y-12714936D02*
X11253515Y-12705412D01*
D13*
X4497500Y-13106500D02*
G75*
G02*
X4382300Y-13106500I-57600J0D01*
G01*
X4382300Y-13106500D02*
G75*
G02*
X4497500Y-13106500I57600J0D01*
G01*
D11*
X4863039Y-13197984D02*
X4748753Y-13197984D01*
X4805896Y-13197984D02*
X4805896Y-12997984D01*
X4805896Y-12997984D02*
X4786848Y-13026555D01*
X4786848Y-13026555D02*
X4767801Y-13045603D01*
X4767801Y-13045603D02*
X4748753Y-13055127D01*
X4948753Y-13178936D02*
X4958277Y-13188460D01*
X4958277Y-13188460D02*
X4948753Y-13197984D01*
X4948753Y-13197984D02*
X4939229Y-13188460D01*
X4939229Y-13188460D02*
X4948753Y-13178936D01*
X4948753Y-13178936D02*
X4948753Y-13197984D01*
X5148753Y-13197984D02*
X5034467Y-13197984D01*
X5091610Y-13197984D02*
X5091610Y-12997984D01*
X5091610Y-12997984D02*
X5072563Y-13026555D01*
X5072563Y-13026555D02*
X5053515Y-13045603D01*
X5053515Y-13045603D02*
X5034467Y-13055127D01*
X5329705Y-12997984D02*
X5234467Y-12997984D01*
X5234467Y-12997984D02*
X5224944Y-13093222D01*
X5224944Y-13093222D02*
X5234467Y-13083698D01*
X5234467Y-13083698D02*
X5253515Y-13074174D01*
X5253515Y-13074174D02*
X5301134Y-13074174D01*
X5301134Y-13074174D02*
X5320182Y-13083698D01*
X5320182Y-13083698D02*
X5329705Y-13093222D01*
X5329705Y-13093222D02*
X5339229Y-13112269D01*
X5339229Y-13112269D02*
X5339229Y-13159888D01*
X5339229Y-13159888D02*
X5329705Y-13178936D01*
X5329705Y-13178936D02*
X5320182Y-13188460D01*
X5320182Y-13188460D02*
X5301134Y-13197984D01*
X5301134Y-13197984D02*
X5253515Y-13197984D01*
X5253515Y-13197984D02*
X5234467Y-13188460D01*
X5234467Y-13188460D02*
X5224944Y-13178936D01*
X5415420Y-13017031D02*
X5424944Y-13007508D01*
X5424944Y-13007508D02*
X5443991Y-12997984D01*
X5443991Y-12997984D02*
X5491610Y-12997984D01*
X5491610Y-12997984D02*
X5510658Y-13007508D01*
X5510658Y-13007508D02*
X5520182Y-13017031D01*
X5520182Y-13017031D02*
X5529705Y-13036079D01*
X5529705Y-13036079D02*
X5529705Y-13055127D01*
X5529705Y-13055127D02*
X5520182Y-13083698D01*
X5520182Y-13083698D02*
X5405896Y-13197984D01*
X5405896Y-13197984D02*
X5529705Y-13197984D01*
X5615420Y-13197984D02*
X5615420Y-13064650D01*
X5615420Y-13083698D02*
X5624943Y-13074174D01*
X5624943Y-13074174D02*
X5643991Y-13064650D01*
X5643991Y-13064650D02*
X5672563Y-13064650D01*
X5672563Y-13064650D02*
X5691610Y-13074174D01*
X5691610Y-13074174D02*
X5701134Y-13093222D01*
X5701134Y-13093222D02*
X5701134Y-13197984D01*
X5701134Y-13093222D02*
X5710658Y-13074174D01*
X5710658Y-13074174D02*
X5729705Y-13064650D01*
X5729705Y-13064650D02*
X5758277Y-13064650D01*
X5758277Y-13064650D02*
X5777324Y-13074174D01*
X5777324Y-13074174D02*
X5786848Y-13093222D01*
X5786848Y-13093222D02*
X5786848Y-13197984D01*
X5882086Y-13197984D02*
X5882086Y-13064650D01*
X5882086Y-13083698D02*
X5891610Y-13074174D01*
X5891610Y-13074174D02*
X5910658Y-13064650D01*
X5910658Y-13064650D02*
X5939229Y-13064650D01*
X5939229Y-13064650D02*
X5958277Y-13074174D01*
X5958277Y-13074174D02*
X5967801Y-13093222D01*
X5967801Y-13093222D02*
X5967801Y-13197984D01*
X5967801Y-13093222D02*
X5977324Y-13074174D01*
X5977324Y-13074174D02*
X5996372Y-13064650D01*
X5996372Y-13064650D02*
X6024943Y-13064650D01*
X6024943Y-13064650D02*
X6043991Y-13074174D01*
X6043991Y-13074174D02*
X6053515Y-13093222D01*
X6053515Y-13093222D02*
X6053515Y-13197984D01*
X6443991Y-12988460D02*
X6272563Y-13245603D01*
X6701134Y-12997984D02*
X6720182Y-12997984D01*
X6720182Y-12997984D02*
X6739229Y-13007508D01*
X6739229Y-13007508D02*
X6748753Y-13017031D01*
X6748753Y-13017031D02*
X6758277Y-13036079D01*
X6758277Y-13036079D02*
X6767801Y-13074174D01*
X6767801Y-13074174D02*
X6767801Y-13121793D01*
X6767801Y-13121793D02*
X6758277Y-13159888D01*
X6758277Y-13159888D02*
X6748753Y-13178936D01*
X6748753Y-13178936D02*
X6739229Y-13188460D01*
X6739229Y-13188460D02*
X6720182Y-13197984D01*
X6720182Y-13197984D02*
X6701134Y-13197984D01*
X6701134Y-13197984D02*
X6682086Y-13188460D01*
X6682086Y-13188460D02*
X6672563Y-13178936D01*
X6672563Y-13178936D02*
X6663039Y-13159888D01*
X6663039Y-13159888D02*
X6653515Y-13121793D01*
X6653515Y-13121793D02*
X6653515Y-13074174D01*
X6653515Y-13074174D02*
X6663039Y-13036079D01*
X6663039Y-13036079D02*
X6672563Y-13017031D01*
X6672563Y-13017031D02*
X6682086Y-13007508D01*
X6682086Y-13007508D02*
X6701134Y-12997984D01*
X6853515Y-13178936D02*
X6863039Y-13188460D01*
X6863039Y-13188460D02*
X6853515Y-13197984D01*
X6853515Y-13197984D02*
X6843991Y-13188460D01*
X6843991Y-13188460D02*
X6853515Y-13178936D01*
X6853515Y-13178936D02*
X6853515Y-13197984D01*
X6986848Y-12997984D02*
X7005896Y-12997984D01*
X7005896Y-12997984D02*
X7024944Y-13007508D01*
X7024944Y-13007508D02*
X7034467Y-13017031D01*
X7034467Y-13017031D02*
X7043991Y-13036079D01*
X7043991Y-13036079D02*
X7053515Y-13074174D01*
X7053515Y-13074174D02*
X7053515Y-13121793D01*
X7053515Y-13121793D02*
X7043991Y-13159888D01*
X7043991Y-13159888D02*
X7034467Y-13178936D01*
X7034467Y-13178936D02*
X7024944Y-13188460D01*
X7024944Y-13188460D02*
X7005896Y-13197984D01*
X7005896Y-13197984D02*
X6986848Y-13197984D01*
X6986848Y-13197984D02*
X6967801Y-13188460D01*
X6967801Y-13188460D02*
X6958277Y-13178936D01*
X6958277Y-13178936D02*
X6948753Y-13159888D01*
X6948753Y-13159888D02*
X6939229Y-13121793D01*
X6939229Y-13121793D02*
X6939229Y-13074174D01*
X6939229Y-13074174D02*
X6948753Y-13036079D01*
X6948753Y-13036079D02*
X6958277Y-13017031D01*
X6958277Y-13017031D02*
X6967801Y-13007508D01*
X6967801Y-13007508D02*
X6986848Y-12997984D01*
X7224944Y-13064650D02*
X7224944Y-13197984D01*
X7177325Y-12988460D02*
X7129706Y-13131317D01*
X7129706Y-13131317D02*
X7253515Y-13131317D01*
X7424944Y-12997984D02*
X7329706Y-12997984D01*
X7329706Y-12997984D02*
X7320182Y-13093222D01*
X7320182Y-13093222D02*
X7329706Y-13083698D01*
X7329706Y-13083698D02*
X7348753Y-13074174D01*
X7348753Y-13074174D02*
X7396372Y-13074174D01*
X7396372Y-13074174D02*
X7415420Y-13083698D01*
X7415420Y-13083698D02*
X7424944Y-13093222D01*
X7424944Y-13093222D02*
X7434467Y-13112269D01*
X7434467Y-13112269D02*
X7434467Y-13159888D01*
X7434467Y-13159888D02*
X7424944Y-13178936D01*
X7424944Y-13178936D02*
X7415420Y-13188460D01*
X7415420Y-13188460D02*
X7396372Y-13197984D01*
X7396372Y-13197984D02*
X7348753Y-13197984D01*
X7348753Y-13197984D02*
X7329706Y-13188460D01*
X7329706Y-13188460D02*
X7320182Y-13178936D01*
X7605896Y-13064650D02*
X7605896Y-13197984D01*
X7558277Y-12988460D02*
X7510658Y-13131317D01*
X7510658Y-13131317D02*
X7634467Y-13131317D01*
X7701134Y-12997984D02*
X7701134Y-13036079D01*
X7777325Y-12997984D02*
X7777325Y-13036079D01*
X8072563Y-13274174D02*
X8063039Y-13264650D01*
X8063039Y-13264650D02*
X8043991Y-13236079D01*
X8043991Y-13236079D02*
X8034468Y-13217031D01*
X8034468Y-13217031D02*
X8024944Y-13188460D01*
X8024944Y-13188460D02*
X8015420Y-13140841D01*
X8015420Y-13140841D02*
X8015420Y-13102746D01*
X8015420Y-13102746D02*
X8024944Y-13055127D01*
X8024944Y-13055127D02*
X8034468Y-13026555D01*
X8034468Y-13026555D02*
X8043991Y-13007508D01*
X8043991Y-13007508D02*
X8063039Y-12978936D01*
X8063039Y-12978936D02*
X8072563Y-12969412D01*
X8129706Y-12997984D02*
X8253515Y-12997984D01*
X8253515Y-12997984D02*
X8186848Y-13074174D01*
X8186848Y-13074174D02*
X8215420Y-13074174D01*
X8215420Y-13074174D02*
X8234468Y-13083698D01*
X8234468Y-13083698D02*
X8243991Y-13093222D01*
X8243991Y-13093222D02*
X8253515Y-13112269D01*
X8253515Y-13112269D02*
X8253515Y-13159888D01*
X8253515Y-13159888D02*
X8243991Y-13178936D01*
X8243991Y-13178936D02*
X8234468Y-13188460D01*
X8234468Y-13188460D02*
X8215420Y-13197984D01*
X8215420Y-13197984D02*
X8158277Y-13197984D01*
X8158277Y-13197984D02*
X8139229Y-13188460D01*
X8139229Y-13188460D02*
X8129706Y-13178936D01*
X8491611Y-13197984D02*
X8491611Y-12997984D01*
X8577325Y-13197984D02*
X8577325Y-13093222D01*
X8577325Y-13093222D02*
X8567801Y-13074174D01*
X8567801Y-13074174D02*
X8548753Y-13064650D01*
X8548753Y-13064650D02*
X8520182Y-13064650D01*
X8520182Y-13064650D02*
X8501134Y-13074174D01*
X8501134Y-13074174D02*
X8491611Y-13083698D01*
X8701134Y-13197984D02*
X8682087Y-13188460D01*
X8682087Y-13188460D02*
X8672563Y-13178936D01*
X8672563Y-13178936D02*
X8663039Y-13159888D01*
X8663039Y-13159888D02*
X8663039Y-13102746D01*
X8663039Y-13102746D02*
X8672563Y-13083698D01*
X8672563Y-13083698D02*
X8682087Y-13074174D01*
X8682087Y-13074174D02*
X8701134Y-13064650D01*
X8701134Y-13064650D02*
X8729706Y-13064650D01*
X8729706Y-13064650D02*
X8748753Y-13074174D01*
X8748753Y-13074174D02*
X8758277Y-13083698D01*
X8758277Y-13083698D02*
X8767801Y-13102746D01*
X8767801Y-13102746D02*
X8767801Y-13159888D01*
X8767801Y-13159888D02*
X8758277Y-13178936D01*
X8758277Y-13178936D02*
X8748753Y-13188460D01*
X8748753Y-13188460D02*
X8729706Y-13197984D01*
X8729706Y-13197984D02*
X8701134Y-13197984D01*
X8882087Y-13197984D02*
X8863039Y-13188460D01*
X8863039Y-13188460D02*
X8853515Y-13169412D01*
X8853515Y-13169412D02*
X8853515Y-12997984D01*
X9034468Y-13188460D02*
X9015420Y-13197984D01*
X9015420Y-13197984D02*
X8977325Y-13197984D01*
X8977325Y-13197984D02*
X8958277Y-13188460D01*
X8958277Y-13188460D02*
X8948753Y-13169412D01*
X8948753Y-13169412D02*
X8948753Y-13093222D01*
X8948753Y-13093222D02*
X8958277Y-13074174D01*
X8958277Y-13074174D02*
X8977325Y-13064650D01*
X8977325Y-13064650D02*
X9015420Y-13064650D01*
X9015420Y-13064650D02*
X9034468Y-13074174D01*
X9034468Y-13074174D02*
X9043992Y-13093222D01*
X9043992Y-13093222D02*
X9043992Y-13112269D01*
X9043992Y-13112269D02*
X8948753Y-13131317D01*
X9120182Y-13188460D02*
X9139230Y-13197984D01*
X9139230Y-13197984D02*
X9177325Y-13197984D01*
X9177325Y-13197984D02*
X9196373Y-13188460D01*
X9196373Y-13188460D02*
X9205896Y-13169412D01*
X9205896Y-13169412D02*
X9205896Y-13159888D01*
X9205896Y-13159888D02*
X9196373Y-13140841D01*
X9196373Y-13140841D02*
X9177325Y-13131317D01*
X9177325Y-13131317D02*
X9148753Y-13131317D01*
X9148753Y-13131317D02*
X9129706Y-13121793D01*
X9129706Y-13121793D02*
X9120182Y-13102746D01*
X9120182Y-13102746D02*
X9120182Y-13093222D01*
X9120182Y-13093222D02*
X9129706Y-13074174D01*
X9129706Y-13074174D02*
X9148753Y-13064650D01*
X9148753Y-13064650D02*
X9177325Y-13064650D01*
X9177325Y-13064650D02*
X9196373Y-13074174D01*
X9272563Y-13274174D02*
X9282087Y-13264650D01*
X9282087Y-13264650D02*
X9301134Y-13236079D01*
X9301134Y-13236079D02*
X9310658Y-13217031D01*
X9310658Y-13217031D02*
X9320182Y-13188460D01*
X9320182Y-13188460D02*
X9329706Y-13140841D01*
X9329706Y-13140841D02*
X9329706Y-13102746D01*
X9329706Y-13102746D02*
X9320182Y-13055127D01*
X9320182Y-13055127D02*
X9310658Y-13026555D01*
X9310658Y-13026555D02*
X9301134Y-13007508D01*
X9301134Y-13007508D02*
X9282087Y-12978936D01*
X9282087Y-12978936D02*
X9272563Y-12969412D01*
X9634468Y-13274174D02*
X9624944Y-13264650D01*
X9624944Y-13264650D02*
X9605896Y-13236079D01*
X9605896Y-13236079D02*
X9596373Y-13217031D01*
X9596373Y-13217031D02*
X9586849Y-13188460D01*
X9586849Y-13188460D02*
X9577325Y-13140841D01*
X9577325Y-13140841D02*
X9577325Y-13102746D01*
X9577325Y-13102746D02*
X9586849Y-13055127D01*
X9586849Y-13055127D02*
X9596373Y-13026555D01*
X9596373Y-13026555D02*
X9605896Y-13007508D01*
X9605896Y-13007508D02*
X9624944Y-12978936D01*
X9624944Y-12978936D02*
X9634468Y-12969412D01*
X9710658Y-13064650D02*
X9710658Y-13197984D01*
X9710658Y-13083698D02*
X9720182Y-13074174D01*
X9720182Y-13074174D02*
X9739230Y-13064650D01*
X9739230Y-13064650D02*
X9767801Y-13064650D01*
X9767801Y-13064650D02*
X9786849Y-13074174D01*
X9786849Y-13074174D02*
X9796373Y-13093222D01*
X9796373Y-13093222D02*
X9796373Y-13197984D01*
X9920182Y-13197984D02*
X9901134Y-13188460D01*
X9901134Y-13188460D02*
X9891611Y-13178936D01*
X9891611Y-13178936D02*
X9882087Y-13159888D01*
X9882087Y-13159888D02*
X9882087Y-13102746D01*
X9882087Y-13102746D02*
X9891611Y-13083698D01*
X9891611Y-13083698D02*
X9901134Y-13074174D01*
X9901134Y-13074174D02*
X9920182Y-13064650D01*
X9920182Y-13064650D02*
X9948754Y-13064650D01*
X9948754Y-13064650D02*
X9967801Y-13074174D01*
X9967801Y-13074174D02*
X9977325Y-13083698D01*
X9977325Y-13083698D02*
X9986849Y-13102746D01*
X9986849Y-13102746D02*
X9986849Y-13159888D01*
X9986849Y-13159888D02*
X9977325Y-13178936D01*
X9977325Y-13178936D02*
X9967801Y-13188460D01*
X9967801Y-13188460D02*
X9948754Y-13197984D01*
X9948754Y-13197984D02*
X9920182Y-13197984D01*
X10043992Y-13064650D02*
X10120182Y-13064650D01*
X10072563Y-12997984D02*
X10072563Y-13169412D01*
X10072563Y-13169412D02*
X10082087Y-13188460D01*
X10082087Y-13188460D02*
X10101134Y-13197984D01*
X10101134Y-13197984D02*
X10120182Y-13197984D01*
X10339230Y-13064650D02*
X10339230Y-13264650D01*
X10339230Y-13074174D02*
X10358277Y-13064650D01*
X10358277Y-13064650D02*
X10396373Y-13064650D01*
X10396373Y-13064650D02*
X10415420Y-13074174D01*
X10415420Y-13074174D02*
X10424944Y-13083698D01*
X10424944Y-13083698D02*
X10434468Y-13102746D01*
X10434468Y-13102746D02*
X10434468Y-13159888D01*
X10434468Y-13159888D02*
X10424944Y-13178936D01*
X10424944Y-13178936D02*
X10415420Y-13188460D01*
X10415420Y-13188460D02*
X10396373Y-13197984D01*
X10396373Y-13197984D02*
X10358277Y-13197984D01*
X10358277Y-13197984D02*
X10339230Y-13188460D01*
X10548754Y-13197984D02*
X10529706Y-13188460D01*
X10529706Y-13188460D02*
X10520182Y-13169412D01*
X10520182Y-13169412D02*
X10520182Y-12997984D01*
X10710658Y-13197984D02*
X10710658Y-13093222D01*
X10710658Y-13093222D02*
X10701135Y-13074174D01*
X10701135Y-13074174D02*
X10682087Y-13064650D01*
X10682087Y-13064650D02*
X10643992Y-13064650D01*
X10643992Y-13064650D02*
X10624944Y-13074174D01*
X10710658Y-13188460D02*
X10691611Y-13197984D01*
X10691611Y-13197984D02*
X10643992Y-13197984D01*
X10643992Y-13197984D02*
X10624944Y-13188460D01*
X10624944Y-13188460D02*
X10615420Y-13169412D01*
X10615420Y-13169412D02*
X10615420Y-13150365D01*
X10615420Y-13150365D02*
X10624944Y-13131317D01*
X10624944Y-13131317D02*
X10643992Y-13121793D01*
X10643992Y-13121793D02*
X10691611Y-13121793D01*
X10691611Y-13121793D02*
X10710658Y-13112269D01*
X10777325Y-13064650D02*
X10853515Y-13064650D01*
X10805896Y-12997984D02*
X10805896Y-13169412D01*
X10805896Y-13169412D02*
X10815420Y-13188460D01*
X10815420Y-13188460D02*
X10834468Y-13197984D01*
X10834468Y-13197984D02*
X10853515Y-13197984D01*
X10996373Y-13188460D02*
X10977325Y-13197984D01*
X10977325Y-13197984D02*
X10939230Y-13197984D01*
X10939230Y-13197984D02*
X10920182Y-13188460D01*
X10920182Y-13188460D02*
X10910658Y-13169412D01*
X10910658Y-13169412D02*
X10910658Y-13093222D01*
X10910658Y-13093222D02*
X10920182Y-13074174D01*
X10920182Y-13074174D02*
X10939230Y-13064650D01*
X10939230Y-13064650D02*
X10977325Y-13064650D01*
X10977325Y-13064650D02*
X10996373Y-13074174D01*
X10996373Y-13074174D02*
X11005896Y-13093222D01*
X11005896Y-13093222D02*
X11005896Y-13112269D01*
X11005896Y-13112269D02*
X10910658Y-13131317D01*
X11177325Y-13197984D02*
X11177325Y-12997984D01*
X11177325Y-13188460D02*
X11158277Y-13197984D01*
X11158277Y-13197984D02*
X11120182Y-13197984D01*
X11120182Y-13197984D02*
X11101135Y-13188460D01*
X11101135Y-13188460D02*
X11091611Y-13178936D01*
X11091611Y-13178936D02*
X11082087Y-13159888D01*
X11082087Y-13159888D02*
X11082087Y-13102746D01*
X11082087Y-13102746D02*
X11091611Y-13083698D01*
X11091611Y-13083698D02*
X11101135Y-13074174D01*
X11101135Y-13074174D02*
X11120182Y-13064650D01*
X11120182Y-13064650D02*
X11158277Y-13064650D01*
X11158277Y-13064650D02*
X11177325Y-13074174D01*
X11253515Y-13274174D02*
X11263039Y-13264650D01*
X11263039Y-13264650D02*
X11282087Y-13236079D01*
X11282087Y-13236079D02*
X11291611Y-13217031D01*
X11291611Y-13217031D02*
X11301134Y-13188460D01*
X11301134Y-13188460D02*
X11310658Y-13140841D01*
X11310658Y-13140841D02*
X11310658Y-13102746D01*
X11310658Y-13102746D02*
X11301134Y-13055127D01*
X11301134Y-13055127D02*
X11291611Y-13026555D01*
X11291611Y-13026555D02*
X11282087Y-13007508D01*
X11282087Y-13007508D02*
X11263039Y-12978936D01*
X11263039Y-12978936D02*
X11253515Y-12969412D01*
X4397500Y-13270500D02*
X4397500Y-13470500D01*
X4297500Y-13370500D02*
X4497500Y-13370500D01*
X4739229Y-13261984D02*
X4863039Y-13261984D01*
X4863039Y-13261984D02*
X4796372Y-13338174D01*
X4796372Y-13338174D02*
X4824944Y-13338174D01*
X4824944Y-13338174D02*
X4843991Y-13347698D01*
X4843991Y-13347698D02*
X4853515Y-13357222D01*
X4853515Y-13357222D02*
X4863039Y-13376269D01*
X4863039Y-13376269D02*
X4863039Y-13423888D01*
X4863039Y-13423888D02*
X4853515Y-13442936D01*
X4853515Y-13442936D02*
X4843991Y-13452460D01*
X4843991Y-13452460D02*
X4824944Y-13461984D01*
X4824944Y-13461984D02*
X4767801Y-13461984D01*
X4767801Y-13461984D02*
X4748753Y-13452460D01*
X4748753Y-13452460D02*
X4739229Y-13442936D01*
X4948753Y-13442936D02*
X4958277Y-13452460D01*
X4958277Y-13452460D02*
X4948753Y-13461984D01*
X4948753Y-13461984D02*
X4939229Y-13452460D01*
X4939229Y-13452460D02*
X4948753Y-13442936D01*
X4948753Y-13442936D02*
X4948753Y-13461984D01*
X5034467Y-13281031D02*
X5043991Y-13271508D01*
X5043991Y-13271508D02*
X5063039Y-13261984D01*
X5063039Y-13261984D02*
X5110658Y-13261984D01*
X5110658Y-13261984D02*
X5129705Y-13271508D01*
X5129705Y-13271508D02*
X5139229Y-13281031D01*
X5139229Y-13281031D02*
X5148753Y-13300079D01*
X5148753Y-13300079D02*
X5148753Y-13319127D01*
X5148753Y-13319127D02*
X5139229Y-13347698D01*
X5139229Y-13347698D02*
X5024944Y-13461984D01*
X5024944Y-13461984D02*
X5148753Y-13461984D01*
X5272563Y-13261984D02*
X5291610Y-13261984D01*
X5291610Y-13261984D02*
X5310658Y-13271508D01*
X5310658Y-13271508D02*
X5320182Y-13281031D01*
X5320182Y-13281031D02*
X5329705Y-13300079D01*
X5329705Y-13300079D02*
X5339229Y-13338174D01*
X5339229Y-13338174D02*
X5339229Y-13385793D01*
X5339229Y-13385793D02*
X5329705Y-13423888D01*
X5329705Y-13423888D02*
X5320182Y-13442936D01*
X5320182Y-13442936D02*
X5310658Y-13452460D01*
X5310658Y-13452460D02*
X5291610Y-13461984D01*
X5291610Y-13461984D02*
X5272563Y-13461984D01*
X5272563Y-13461984D02*
X5253515Y-13452460D01*
X5253515Y-13452460D02*
X5243991Y-13442936D01*
X5243991Y-13442936D02*
X5234467Y-13423888D01*
X5234467Y-13423888D02*
X5224944Y-13385793D01*
X5224944Y-13385793D02*
X5224944Y-13338174D01*
X5224944Y-13338174D02*
X5234467Y-13300079D01*
X5234467Y-13300079D02*
X5243991Y-13281031D01*
X5243991Y-13281031D02*
X5253515Y-13271508D01*
X5253515Y-13271508D02*
X5272563Y-13261984D01*
X5463039Y-13261984D02*
X5482086Y-13261984D01*
X5482086Y-13261984D02*
X5501134Y-13271508D01*
X5501134Y-13271508D02*
X5510658Y-13281031D01*
X5510658Y-13281031D02*
X5520182Y-13300079D01*
X5520182Y-13300079D02*
X5529705Y-13338174D01*
X5529705Y-13338174D02*
X5529705Y-13385793D01*
X5529705Y-13385793D02*
X5520182Y-13423888D01*
X5520182Y-13423888D02*
X5510658Y-13442936D01*
X5510658Y-13442936D02*
X5501134Y-13452460D01*
X5501134Y-13452460D02*
X5482086Y-13461984D01*
X5482086Y-13461984D02*
X5463039Y-13461984D01*
X5463039Y-13461984D02*
X5443991Y-13452460D01*
X5443991Y-13452460D02*
X5434467Y-13442936D01*
X5434467Y-13442936D02*
X5424944Y-13423888D01*
X5424944Y-13423888D02*
X5415420Y-13385793D01*
X5415420Y-13385793D02*
X5415420Y-13338174D01*
X5415420Y-13338174D02*
X5424944Y-13300079D01*
X5424944Y-13300079D02*
X5434467Y-13281031D01*
X5434467Y-13281031D02*
X5443991Y-13271508D01*
X5443991Y-13271508D02*
X5463039Y-13261984D01*
X5615420Y-13461984D02*
X5615420Y-13328650D01*
X5615420Y-13347698D02*
X5624943Y-13338174D01*
X5624943Y-13338174D02*
X5643991Y-13328650D01*
X5643991Y-13328650D02*
X5672563Y-13328650D01*
X5672563Y-13328650D02*
X5691610Y-13338174D01*
X5691610Y-13338174D02*
X5701134Y-13357222D01*
X5701134Y-13357222D02*
X5701134Y-13461984D01*
X5701134Y-13357222D02*
X5710658Y-13338174D01*
X5710658Y-13338174D02*
X5729705Y-13328650D01*
X5729705Y-13328650D02*
X5758277Y-13328650D01*
X5758277Y-13328650D02*
X5777324Y-13338174D01*
X5777324Y-13338174D02*
X5786848Y-13357222D01*
X5786848Y-13357222D02*
X5786848Y-13461984D01*
X5882086Y-13461984D02*
X5882086Y-13328650D01*
X5882086Y-13347698D02*
X5891610Y-13338174D01*
X5891610Y-13338174D02*
X5910658Y-13328650D01*
X5910658Y-13328650D02*
X5939229Y-13328650D01*
X5939229Y-13328650D02*
X5958277Y-13338174D01*
X5958277Y-13338174D02*
X5967801Y-13357222D01*
X5967801Y-13357222D02*
X5967801Y-13461984D01*
X5967801Y-13357222D02*
X5977324Y-13338174D01*
X5977324Y-13338174D02*
X5996372Y-13328650D01*
X5996372Y-13328650D02*
X6024943Y-13328650D01*
X6024943Y-13328650D02*
X6043991Y-13338174D01*
X6043991Y-13338174D02*
X6053515Y-13357222D01*
X6053515Y-13357222D02*
X6053515Y-13461984D01*
X6443991Y-13252460D02*
X6272563Y-13509603D01*
X6701134Y-13261984D02*
X6720182Y-13261984D01*
X6720182Y-13261984D02*
X6739229Y-13271508D01*
X6739229Y-13271508D02*
X6748753Y-13281031D01*
X6748753Y-13281031D02*
X6758277Y-13300079D01*
X6758277Y-13300079D02*
X6767801Y-13338174D01*
X6767801Y-13338174D02*
X6767801Y-13385793D01*
X6767801Y-13385793D02*
X6758277Y-13423888D01*
X6758277Y-13423888D02*
X6748753Y-13442936D01*
X6748753Y-13442936D02*
X6739229Y-13452460D01*
X6739229Y-13452460D02*
X6720182Y-13461984D01*
X6720182Y-13461984D02*
X6701134Y-13461984D01*
X6701134Y-13461984D02*
X6682086Y-13452460D01*
X6682086Y-13452460D02*
X6672563Y-13442936D01*
X6672563Y-13442936D02*
X6663039Y-13423888D01*
X6663039Y-13423888D02*
X6653515Y-13385793D01*
X6653515Y-13385793D02*
X6653515Y-13338174D01*
X6653515Y-13338174D02*
X6663039Y-13300079D01*
X6663039Y-13300079D02*
X6672563Y-13281031D01*
X6672563Y-13281031D02*
X6682086Y-13271508D01*
X6682086Y-13271508D02*
X6701134Y-13261984D01*
X6853515Y-13442936D02*
X6863039Y-13452460D01*
X6863039Y-13452460D02*
X6853515Y-13461984D01*
X6853515Y-13461984D02*
X6843991Y-13452460D01*
X6843991Y-13452460D02*
X6853515Y-13442936D01*
X6853515Y-13442936D02*
X6853515Y-13461984D01*
X7053515Y-13461984D02*
X6939229Y-13461984D01*
X6996372Y-13461984D02*
X6996372Y-13261984D01*
X6996372Y-13261984D02*
X6977325Y-13290555D01*
X6977325Y-13290555D02*
X6958277Y-13309603D01*
X6958277Y-13309603D02*
X6939229Y-13319127D01*
X7129706Y-13281031D02*
X7139229Y-13271508D01*
X7139229Y-13271508D02*
X7158277Y-13261984D01*
X7158277Y-13261984D02*
X7205896Y-13261984D01*
X7205896Y-13261984D02*
X7224944Y-13271508D01*
X7224944Y-13271508D02*
X7234467Y-13281031D01*
X7234467Y-13281031D02*
X7243991Y-13300079D01*
X7243991Y-13300079D02*
X7243991Y-13319127D01*
X7243991Y-13319127D02*
X7234467Y-13347698D01*
X7234467Y-13347698D02*
X7120182Y-13461984D01*
X7120182Y-13461984D02*
X7243991Y-13461984D01*
X7415420Y-13261984D02*
X7377325Y-13261984D01*
X7377325Y-13261984D02*
X7358277Y-13271508D01*
X7358277Y-13271508D02*
X7348753Y-13281031D01*
X7348753Y-13281031D02*
X7329706Y-13309603D01*
X7329706Y-13309603D02*
X7320182Y-13347698D01*
X7320182Y-13347698D02*
X7320182Y-13423888D01*
X7320182Y-13423888D02*
X7329706Y-13442936D01*
X7329706Y-13442936D02*
X7339229Y-13452460D01*
X7339229Y-13452460D02*
X7358277Y-13461984D01*
X7358277Y-13461984D02*
X7396372Y-13461984D01*
X7396372Y-13461984D02*
X7415420Y-13452460D01*
X7415420Y-13452460D02*
X7424944Y-13442936D01*
X7424944Y-13442936D02*
X7434467Y-13423888D01*
X7434467Y-13423888D02*
X7434467Y-13376269D01*
X7434467Y-13376269D02*
X7424944Y-13357222D01*
X7424944Y-13357222D02*
X7415420Y-13347698D01*
X7415420Y-13347698D02*
X7396372Y-13338174D01*
X7396372Y-13338174D02*
X7358277Y-13338174D01*
X7358277Y-13338174D02*
X7339229Y-13347698D01*
X7339229Y-13347698D02*
X7329706Y-13357222D01*
X7329706Y-13357222D02*
X7320182Y-13376269D01*
X7558277Y-13261984D02*
X7577325Y-13261984D01*
X7577325Y-13261984D02*
X7596372Y-13271508D01*
X7596372Y-13271508D02*
X7605896Y-13281031D01*
X7605896Y-13281031D02*
X7615420Y-13300079D01*
X7615420Y-13300079D02*
X7624944Y-13338174D01*
X7624944Y-13338174D02*
X7624944Y-13385793D01*
X7624944Y-13385793D02*
X7615420Y-13423888D01*
X7615420Y-13423888D02*
X7605896Y-13442936D01*
X7605896Y-13442936D02*
X7596372Y-13452460D01*
X7596372Y-13452460D02*
X7577325Y-13461984D01*
X7577325Y-13461984D02*
X7558277Y-13461984D01*
X7558277Y-13461984D02*
X7539229Y-13452460D01*
X7539229Y-13452460D02*
X7529706Y-13442936D01*
X7529706Y-13442936D02*
X7520182Y-13423888D01*
X7520182Y-13423888D02*
X7510658Y-13385793D01*
X7510658Y-13385793D02*
X7510658Y-13338174D01*
X7510658Y-13338174D02*
X7520182Y-13300079D01*
X7520182Y-13300079D02*
X7529706Y-13281031D01*
X7529706Y-13281031D02*
X7539229Y-13271508D01*
X7539229Y-13271508D02*
X7558277Y-13261984D01*
X7701134Y-13261984D02*
X7701134Y-13300079D01*
X7777325Y-13261984D02*
X7777325Y-13300079D01*
X8072563Y-13538174D02*
X8063039Y-13528650D01*
X8063039Y-13528650D02*
X8043991Y-13500079D01*
X8043991Y-13500079D02*
X8034468Y-13481031D01*
X8034468Y-13481031D02*
X8024944Y-13452460D01*
X8024944Y-13452460D02*
X8015420Y-13404841D01*
X8015420Y-13404841D02*
X8015420Y-13366746D01*
X8015420Y-13366746D02*
X8024944Y-13319127D01*
X8024944Y-13319127D02*
X8034468Y-13290555D01*
X8034468Y-13290555D02*
X8043991Y-13271508D01*
X8043991Y-13271508D02*
X8063039Y-13242936D01*
X8063039Y-13242936D02*
X8072563Y-13233412D01*
X8234468Y-13328650D02*
X8234468Y-13461984D01*
X8186848Y-13252460D02*
X8139229Y-13395317D01*
X8139229Y-13395317D02*
X8263039Y-13395317D01*
X8491611Y-13461984D02*
X8491611Y-13261984D01*
X8577325Y-13461984D02*
X8577325Y-13357222D01*
X8577325Y-13357222D02*
X8567801Y-13338174D01*
X8567801Y-13338174D02*
X8548753Y-13328650D01*
X8548753Y-13328650D02*
X8520182Y-13328650D01*
X8520182Y-13328650D02*
X8501134Y-13338174D01*
X8501134Y-13338174D02*
X8491611Y-13347698D01*
X8701134Y-13461984D02*
X8682087Y-13452460D01*
X8682087Y-13452460D02*
X8672563Y-13442936D01*
X8672563Y-13442936D02*
X8663039Y-13423888D01*
X8663039Y-13423888D02*
X8663039Y-13366746D01*
X8663039Y-13366746D02*
X8672563Y-13347698D01*
X8672563Y-13347698D02*
X8682087Y-13338174D01*
X8682087Y-13338174D02*
X8701134Y-13328650D01*
X8701134Y-13328650D02*
X8729706Y-13328650D01*
X8729706Y-13328650D02*
X8748753Y-13338174D01*
X8748753Y-13338174D02*
X8758277Y-13347698D01*
X8758277Y-13347698D02*
X8767801Y-13366746D01*
X8767801Y-13366746D02*
X8767801Y-13423888D01*
X8767801Y-13423888D02*
X8758277Y-13442936D01*
X8758277Y-13442936D02*
X8748753Y-13452460D01*
X8748753Y-13452460D02*
X8729706Y-13461984D01*
X8729706Y-13461984D02*
X8701134Y-13461984D01*
X8882087Y-13461984D02*
X8863039Y-13452460D01*
X8863039Y-13452460D02*
X8853515Y-13433412D01*
X8853515Y-13433412D02*
X8853515Y-13261984D01*
X9034468Y-13452460D02*
X9015420Y-13461984D01*
X9015420Y-13461984D02*
X8977325Y-13461984D01*
X8977325Y-13461984D02*
X8958277Y-13452460D01*
X8958277Y-13452460D02*
X8948753Y-13433412D01*
X8948753Y-13433412D02*
X8948753Y-13357222D01*
X8948753Y-13357222D02*
X8958277Y-13338174D01*
X8958277Y-13338174D02*
X8977325Y-13328650D01*
X8977325Y-13328650D02*
X9015420Y-13328650D01*
X9015420Y-13328650D02*
X9034468Y-13338174D01*
X9034468Y-13338174D02*
X9043992Y-13357222D01*
X9043992Y-13357222D02*
X9043992Y-13376269D01*
X9043992Y-13376269D02*
X8948753Y-13395317D01*
X9120182Y-13452460D02*
X9139230Y-13461984D01*
X9139230Y-13461984D02*
X9177325Y-13461984D01*
X9177325Y-13461984D02*
X9196373Y-13452460D01*
X9196373Y-13452460D02*
X9205896Y-13433412D01*
X9205896Y-13433412D02*
X9205896Y-13423888D01*
X9205896Y-13423888D02*
X9196373Y-13404841D01*
X9196373Y-13404841D02*
X9177325Y-13395317D01*
X9177325Y-13395317D02*
X9148753Y-13395317D01*
X9148753Y-13395317D02*
X9129706Y-13385793D01*
X9129706Y-13385793D02*
X9120182Y-13366746D01*
X9120182Y-13366746D02*
X9120182Y-13357222D01*
X9120182Y-13357222D02*
X9129706Y-13338174D01*
X9129706Y-13338174D02*
X9148753Y-13328650D01*
X9148753Y-13328650D02*
X9177325Y-13328650D01*
X9177325Y-13328650D02*
X9196373Y-13338174D01*
X9272563Y-13538174D02*
X9282087Y-13528650D01*
X9282087Y-13528650D02*
X9301134Y-13500079D01*
X9301134Y-13500079D02*
X9310658Y-13481031D01*
X9310658Y-13481031D02*
X9320182Y-13452460D01*
X9320182Y-13452460D02*
X9329706Y-13404841D01*
X9329706Y-13404841D02*
X9329706Y-13366746D01*
X9329706Y-13366746D02*
X9320182Y-13319127D01*
X9320182Y-13319127D02*
X9310658Y-13290555D01*
X9310658Y-13290555D02*
X9301134Y-13271508D01*
X9301134Y-13271508D02*
X9282087Y-13242936D01*
X9282087Y-13242936D02*
X9272563Y-13233412D01*
X9634468Y-13538174D02*
X9624944Y-13528650D01*
X9624944Y-13528650D02*
X9605896Y-13500079D01*
X9605896Y-13500079D02*
X9596373Y-13481031D01*
X9596373Y-13481031D02*
X9586849Y-13452460D01*
X9586849Y-13452460D02*
X9577325Y-13404841D01*
X9577325Y-13404841D02*
X9577325Y-13366746D01*
X9577325Y-13366746D02*
X9586849Y-13319127D01*
X9586849Y-13319127D02*
X9596373Y-13290555D01*
X9596373Y-13290555D02*
X9605896Y-13271508D01*
X9605896Y-13271508D02*
X9624944Y-13242936D01*
X9624944Y-13242936D02*
X9634468Y-13233412D01*
X9710658Y-13328650D02*
X9710658Y-13461984D01*
X9710658Y-13347698D02*
X9720182Y-13338174D01*
X9720182Y-13338174D02*
X9739230Y-13328650D01*
X9739230Y-13328650D02*
X9767801Y-13328650D01*
X9767801Y-13328650D02*
X9786849Y-13338174D01*
X9786849Y-13338174D02*
X9796373Y-13357222D01*
X9796373Y-13357222D02*
X9796373Y-13461984D01*
X9920182Y-13461984D02*
X9901134Y-13452460D01*
X9901134Y-13452460D02*
X9891611Y-13442936D01*
X9891611Y-13442936D02*
X9882087Y-13423888D01*
X9882087Y-13423888D02*
X9882087Y-13366746D01*
X9882087Y-13366746D02*
X9891611Y-13347698D01*
X9891611Y-13347698D02*
X9901134Y-13338174D01*
X9901134Y-13338174D02*
X9920182Y-13328650D01*
X9920182Y-13328650D02*
X9948754Y-13328650D01*
X9948754Y-13328650D02*
X9967801Y-13338174D01*
X9967801Y-13338174D02*
X9977325Y-13347698D01*
X9977325Y-13347698D02*
X9986849Y-13366746D01*
X9986849Y-13366746D02*
X9986849Y-13423888D01*
X9986849Y-13423888D02*
X9977325Y-13442936D01*
X9977325Y-13442936D02*
X9967801Y-13452460D01*
X9967801Y-13452460D02*
X9948754Y-13461984D01*
X9948754Y-13461984D02*
X9920182Y-13461984D01*
X10043992Y-13328650D02*
X10120182Y-13328650D01*
X10072563Y-13261984D02*
X10072563Y-13433412D01*
X10072563Y-13433412D02*
X10082087Y-13452460D01*
X10082087Y-13452460D02*
X10101134Y-13461984D01*
X10101134Y-13461984D02*
X10120182Y-13461984D01*
X10339230Y-13328650D02*
X10339230Y-13528650D01*
X10339230Y-13338174D02*
X10358277Y-13328650D01*
X10358277Y-13328650D02*
X10396373Y-13328650D01*
X10396373Y-13328650D02*
X10415420Y-13338174D01*
X10415420Y-13338174D02*
X10424944Y-13347698D01*
X10424944Y-13347698D02*
X10434468Y-13366746D01*
X10434468Y-13366746D02*
X10434468Y-13423888D01*
X10434468Y-13423888D02*
X10424944Y-13442936D01*
X10424944Y-13442936D02*
X10415420Y-13452460D01*
X10415420Y-13452460D02*
X10396373Y-13461984D01*
X10396373Y-13461984D02*
X10358277Y-13461984D01*
X10358277Y-13461984D02*
X10339230Y-13452460D01*
X10548754Y-13461984D02*
X10529706Y-13452460D01*
X10529706Y-13452460D02*
X10520182Y-13433412D01*
X10520182Y-13433412D02*
X10520182Y-13261984D01*
X10710658Y-13461984D02*
X10710658Y-13357222D01*
X10710658Y-13357222D02*
X10701135Y-13338174D01*
X10701135Y-13338174D02*
X10682087Y-13328650D01*
X10682087Y-13328650D02*
X10643992Y-13328650D01*
X10643992Y-13328650D02*
X10624944Y-13338174D01*
X10710658Y-13452460D02*
X10691611Y-13461984D01*
X10691611Y-13461984D02*
X10643992Y-13461984D01*
X10643992Y-13461984D02*
X10624944Y-13452460D01*
X10624944Y-13452460D02*
X10615420Y-13433412D01*
X10615420Y-13433412D02*
X10615420Y-13414365D01*
X10615420Y-13414365D02*
X10624944Y-13395317D01*
X10624944Y-13395317D02*
X10643992Y-13385793D01*
X10643992Y-13385793D02*
X10691611Y-13385793D01*
X10691611Y-13385793D02*
X10710658Y-13376269D01*
X10777325Y-13328650D02*
X10853515Y-13328650D01*
X10805896Y-13261984D02*
X10805896Y-13433412D01*
X10805896Y-13433412D02*
X10815420Y-13452460D01*
X10815420Y-13452460D02*
X10834468Y-13461984D01*
X10834468Y-13461984D02*
X10853515Y-13461984D01*
X10996373Y-13452460D02*
X10977325Y-13461984D01*
X10977325Y-13461984D02*
X10939230Y-13461984D01*
X10939230Y-13461984D02*
X10920182Y-13452460D01*
X10920182Y-13452460D02*
X10910658Y-13433412D01*
X10910658Y-13433412D02*
X10910658Y-13357222D01*
X10910658Y-13357222D02*
X10920182Y-13338174D01*
X10920182Y-13338174D02*
X10939230Y-13328650D01*
X10939230Y-13328650D02*
X10977325Y-13328650D01*
X10977325Y-13328650D02*
X10996373Y-13338174D01*
X10996373Y-13338174D02*
X11005896Y-13357222D01*
X11005896Y-13357222D02*
X11005896Y-13376269D01*
X11005896Y-13376269D02*
X10910658Y-13395317D01*
X11177325Y-13461984D02*
X11177325Y-13261984D01*
X11177325Y-13452460D02*
X11158277Y-13461984D01*
X11158277Y-13461984D02*
X11120182Y-13461984D01*
X11120182Y-13461984D02*
X11101135Y-13452460D01*
X11101135Y-13452460D02*
X11091611Y-13442936D01*
X11091611Y-13442936D02*
X11082087Y-13423888D01*
X11082087Y-13423888D02*
X11082087Y-13366746D01*
X11082087Y-13366746D02*
X11091611Y-13347698D01*
X11091611Y-13347698D02*
X11101135Y-13338174D01*
X11101135Y-13338174D02*
X11120182Y-13328650D01*
X11120182Y-13328650D02*
X11158277Y-13328650D01*
X11158277Y-13328650D02*
X11177325Y-13338174D01*
X11253515Y-13538174D02*
X11263039Y-13528650D01*
X11263039Y-13528650D02*
X11282087Y-13500079D01*
X11282087Y-13500079D02*
X11291611Y-13481031D01*
X11291611Y-13481031D02*
X11301134Y-13452460D01*
X11301134Y-13452460D02*
X11310658Y-13404841D01*
X11310658Y-13404841D02*
X11310658Y-13366746D01*
X11310658Y-13366746D02*
X11301134Y-13319127D01*
X11301134Y-13319127D02*
X11291611Y-13290555D01*
X11291611Y-13290555D02*
X11282087Y-13271508D01*
X11282087Y-13271508D02*
X11263039Y-13242936D01*
X11263039Y-13242936D02*
X11253515Y-13233412D01*
M02*
