G04 #@! TF.GenerationSoftware,KiCad,Pcbnew,9.0.6*
G04 #@! TF.CreationDate,2026-03-03T22:35:12+01:00*
G04 #@! TF.ProjectId,saturn,73617475-726e-42e6-9b69-6361645f7063,rev?*
G04 #@! TF.SameCoordinates,Original*
G04 #@! TF.FileFunction,Soldermask,Top*
G04 #@! TF.FilePolarity,Negative*
%FSLAX46Y46*%
G04 Gerber Fmt 4.6, Leading zero omitted, Abs format (unit mm)*
G04 Created by KiCad (PCBNEW 9.0.6) date 2026-03-03 22:35:12*
%MOMM*%
%LPD*%
G01*
G04 APERTURE LIST*
G04 Aperture macros list*
%AMRoundRect*
0 Rectangle with rounded corners*
0 $1 Rounding radius*
0 $2 $3 $4 $5 $6 $7 $8 $9 X,Y pos of 4 corners*
0 Add a 4 corners polygon primitive as box body*
4,1,4,$2,$3,$4,$5,$6,$7,$8,$9,$2,$3,0*
0 Add four circle primitives for the rounded corners*
1,1,$1+$1,$2,$3*
1,1,$1+$1,$4,$5*
1,1,$1+$1,$6,$7*
1,1,$1+$1,$8,$9*
0 Add four rect primitives between the rounded corners*
20,1,$1+$1,$2,$3,$4,$5,0*
20,1,$1+$1,$4,$5,$6,$7,0*
20,1,$1+$1,$6,$7,$8,$9,0*
20,1,$1+$1,$8,$9,$2,$3,0*%
G04 Aperture macros list end*
%ADD10R,1.350000X0.400000*%
%ADD11O,1.900000X1.200000*%
%ADD12R,1.900000X1.200000*%
%ADD13C,1.450000*%
%ADD14R,1.900000X1.500000*%
%ADD15C,1.700000*%
%ADD16R,1.700000X1.700000*%
%ADD17RoundRect,0.135000X0.135000X0.185000X-0.135000X0.185000X-0.135000X-0.185000X0.135000X-0.185000X0*%
%ADD18RoundRect,0.250000X-0.600000X-0.725000X0.600000X-0.725000X0.600000X0.725000X-0.600000X0.725000X0*%
%ADD19O,1.700000X1.950000*%
%ADD20RoundRect,0.250000X0.600000X0.725000X-0.600000X0.725000X-0.600000X-0.725000X0.600000X-0.725000X0*%
%ADD21C,1.300000*%
%ADD22R,0.850000X0.750000*%
%ADD23RoundRect,0.135000X-0.185000X0.135000X-0.185000X-0.135000X0.185000X-0.135000X0.185000X0.135000X0*%
%ADD24RoundRect,0.135000X-0.135000X-0.185000X0.135000X-0.185000X0.135000X0.185000X-0.135000X0.185000X0*%
%ADD25RoundRect,0.150000X-0.587500X-0.150000X0.587500X-0.150000X0.587500X0.150000X-0.587500X0.150000X0*%
%ADD26R,0.500000X0.800000*%
%ADD27R,0.400000X0.800000*%
%ADD28RoundRect,0.150000X0.625000X-0.150000X0.625000X0.150000X-0.625000X0.150000X-0.625000X-0.150000X0*%
%ADD29RoundRect,0.250000X0.650000X-0.350000X0.650000X0.350000X-0.650000X0.350000X-0.650000X-0.350000X0*%
%ADD30RoundRect,0.218750X0.218750X0.256250X-0.218750X0.256250X-0.218750X-0.256250X0.218750X-0.256250X0*%
%ADD31RoundRect,0.250000X0.325000X0.650000X-0.325000X0.650000X-0.325000X-0.650000X0.325000X-0.650000X0*%
%ADD32C,2.000000*%
%ADD33RoundRect,0.140000X-0.170000X0.140000X-0.170000X-0.140000X0.170000X-0.140000X0.170000X0.140000X0*%
%ADD34RoundRect,0.150000X0.200000X-0.150000X0.200000X0.150000X-0.200000X0.150000X-0.200000X-0.150000X0*%
%ADD35RoundRect,0.140000X0.140000X0.170000X-0.140000X0.170000X-0.140000X-0.170000X0.140000X-0.170000X0*%
%ADD36RoundRect,0.375000X-0.375000X0.625000X-0.375000X-0.625000X0.375000X-0.625000X0.375000X0.625000X0*%
%ADD37RoundRect,0.500000X-1.400000X0.500000X-1.400000X-0.500000X1.400000X-0.500000X1.400000X0.500000X0*%
%ADD38RoundRect,0.250000X-0.325000X-0.650000X0.325000X-0.650000X0.325000X0.650000X-0.325000X0.650000X0*%
%ADD39RoundRect,0.135000X0.185000X-0.135000X0.185000X0.135000X-0.185000X0.135000X-0.185000X-0.135000X0*%
%ADD40RoundRect,0.150000X-0.150000X-0.625000X0.150000X-0.625000X0.150000X0.625000X-0.150000X0.625000X0*%
%ADD41RoundRect,0.250000X-0.350000X-0.650000X0.350000X-0.650000X0.350000X0.650000X-0.350000X0.650000X0*%
%ADD42RoundRect,0.140000X-0.140000X-0.170000X0.140000X-0.170000X0.140000X0.170000X-0.140000X0.170000X0*%
%ADD43RoundRect,0.250000X-1.000000X-0.900000X1.000000X-0.900000X1.000000X0.900000X-1.000000X0.900000X0*%
%ADD44RoundRect,0.150000X-0.200000X0.150000X-0.200000X-0.150000X0.200000X-0.150000X0.200000X0.150000X0*%
%ADD45RoundRect,0.100000X0.350000X-0.650000X0.350000X0.650000X-0.350000X0.650000X-0.350000X-0.650000X0*%
%ADD46RoundRect,0.100000X-0.650000X-0.350000X0.650000X-0.350000X0.650000X0.350000X-0.650000X0.350000X0*%
%ADD47RoundRect,0.100000X0.350000X-0.350000X0.350000X0.350000X-0.350000X0.350000X-0.350000X-0.350000X0*%
%ADD48R,0.800000X0.500000*%
%ADD49R,0.800000X0.400000*%
%ADD50RoundRect,0.250000X-0.650000X0.325000X-0.650000X-0.325000X0.650000X-0.325000X0.650000X0.325000X0*%
%ADD51RoundRect,0.150000X-0.625000X0.150000X-0.625000X-0.150000X0.625000X-0.150000X0.625000X0.150000X0*%
%ADD52RoundRect,0.250000X-0.650000X0.350000X-0.650000X-0.350000X0.650000X-0.350000X0.650000X0.350000X0*%
%ADD53R,1.050000X0.650000*%
%ADD54R,1.450000X0.600000*%
%ADD55R,1.450000X0.300000*%
%ADD56O,2.100000X1.000000*%
%ADD57O,1.600000X1.000000*%
%ADD58RoundRect,0.140000X0.170000X-0.140000X0.170000X0.140000X-0.170000X0.140000X-0.170000X-0.140000X0*%
%ADD59RoundRect,0.250000X-0.262500X-0.450000X0.262500X-0.450000X0.262500X0.450000X-0.262500X0.450000X0*%
%ADD60RoundRect,0.062500X0.062500X-0.337500X0.062500X0.337500X-0.062500X0.337500X-0.062500X-0.337500X0*%
%ADD61RoundRect,0.062500X0.337500X-0.062500X0.337500X0.062500X-0.337500X0.062500X-0.337500X-0.062500X0*%
%ADD62R,3.350000X3.350000*%
%ADD63RoundRect,0.150000X0.587500X0.150000X-0.587500X0.150000X-0.587500X-0.150000X0.587500X-0.150000X0*%
%ADD64RoundRect,0.250000X1.500000X0.550000X-1.500000X0.550000X-1.500000X-0.550000X1.500000X-0.550000X0*%
G04 APERTURE END LIST*
D10*
G04 #@! TO.C,J11*
X140837500Y-82200000D03*
X140837500Y-81550000D03*
X140837500Y-80900000D03*
X140837500Y-80250000D03*
X140837500Y-79600000D03*
D11*
X143537500Y-84400000D03*
D12*
X143537500Y-83800000D03*
D13*
X140837500Y-83400000D03*
D14*
X143537500Y-81900000D03*
X143537500Y-79900000D03*
D13*
X140837500Y-78400000D03*
D12*
X143537500Y-78000000D03*
D11*
X143537500Y-77400000D03*
G04 #@! TD*
D15*
G04 #@! TO.C,J4*
X135500000Y-87700000D03*
X135500000Y-90240000D03*
X135500000Y-92780000D03*
X135500000Y-95320000D03*
X135500000Y-97860000D03*
D16*
X135500000Y-100400000D03*
G04 #@! TD*
D17*
G04 #@! TO.C,R71*
X138210000Y-84500000D03*
X137190000Y-84500000D03*
G04 #@! TD*
D18*
G04 #@! TO.C,J13*
X70000000Y-114000000D03*
D19*
X72500000Y-114000000D03*
X75000000Y-114000000D03*
G04 #@! TD*
D20*
G04 #@! TO.C,J6*
X130500000Y-64000000D03*
D19*
X128000000Y-64000000D03*
X125500000Y-64000000D03*
X123000000Y-64000000D03*
X120500000Y-64000000D03*
X118000000Y-64000000D03*
X115500000Y-64000000D03*
X113000000Y-64000000D03*
X110500000Y-64000000D03*
X108000000Y-64000000D03*
G04 #@! TD*
D21*
G04 #@! TO.C,H5*
X137000000Y-58000000D03*
G04 #@! TD*
D22*
G04 #@! TO.C,U9*
X80240000Y-118325000D03*
X80240000Y-119575000D03*
X81590000Y-119575000D03*
X81590000Y-118325000D03*
G04 #@! TD*
D21*
G04 #@! TO.C,H7*
X141500000Y-114000000D03*
G04 #@! TD*
D23*
G04 #@! TO.C,R38*
X54900000Y-109490000D03*
X54900000Y-110510000D03*
G04 #@! TD*
D24*
G04 #@! TO.C,R9*
X128390000Y-72400000D03*
X129410000Y-72400000D03*
G04 #@! TD*
D25*
G04 #@! TO.C,Q3*
X91220287Y-64047553D03*
X91220287Y-65947553D03*
X93095287Y-64997553D03*
G04 #@! TD*
D26*
G04 #@! TO.C,RN4*
X103620000Y-104400000D03*
D27*
X104420000Y-104400000D03*
X105220000Y-104400000D03*
D26*
X106020000Y-104400000D03*
X106020000Y-102600000D03*
D27*
X105220000Y-102600000D03*
X104420000Y-102600000D03*
D26*
X103620000Y-102600000D03*
G04 #@! TD*
D15*
G04 #@! TO.C,J3*
X54400000Y-100375000D03*
X54400000Y-97835000D03*
X54400000Y-95295000D03*
X54400000Y-92755000D03*
X54400000Y-90215000D03*
D16*
X54400000Y-87675000D03*
G04 #@! TD*
D28*
G04 #@! TO.C,J10*
X139725000Y-109300000D03*
X139725000Y-108300000D03*
X139725000Y-107300000D03*
X139725000Y-106300000D03*
D29*
X143600000Y-110600000D03*
X143600000Y-105000000D03*
G04 #@! TD*
D17*
G04 #@! TO.C,R15*
X74510000Y-66000000D03*
X73490000Y-66000000D03*
G04 #@! TD*
D15*
G04 #@! TO.C,J2*
X110200000Y-110000000D03*
X107660000Y-110000000D03*
X105120000Y-110000000D03*
X102580000Y-110000000D03*
X100040000Y-110000000D03*
D16*
X97500000Y-110000000D03*
D15*
X110200000Y-112540000D03*
X107660000Y-112540000D03*
X105120000Y-112540000D03*
X102580000Y-112540000D03*
X100040000Y-112540000D03*
X97500000Y-112540000D03*
G04 #@! TD*
D30*
G04 #@! TO.C,FB1*
X129987500Y-70600000D03*
X128412500Y-70600000D03*
G04 #@! TD*
D31*
G04 #@! TO.C,C6*
X86200000Y-95225000D03*
X83250000Y-95225000D03*
G04 #@! TD*
D32*
G04 #@! TO.C,FID3*
X135300000Y-111300000D03*
G04 #@! TD*
D33*
G04 #@! TO.C,C15*
X137000000Y-108320000D03*
X137000000Y-109280000D03*
G04 #@! TD*
D34*
G04 #@! TO.C,D9*
X137500000Y-81700000D03*
X137500000Y-83100000D03*
G04 #@! TD*
D35*
G04 #@! TO.C,C7*
X86005000Y-97475000D03*
X85045000Y-97475000D03*
G04 #@! TD*
D24*
G04 #@! TO.C,R1*
X85490000Y-75100000D03*
X86510000Y-75100000D03*
G04 #@! TD*
D16*
G04 #@! TO.C,J1*
X131000000Y-103300000D03*
D15*
X131000000Y-105840000D03*
X131000000Y-108380000D03*
X131000000Y-110920000D03*
G04 #@! TD*
D36*
G04 #@! TO.C,U2*
X90825000Y-99925000D03*
X88525000Y-99925000D03*
D37*
X88525000Y-106225000D03*
D36*
X86225000Y-99925000D03*
G04 #@! TD*
D23*
G04 #@! TO.C,R39*
X135200000Y-106090000D03*
X135200000Y-107110000D03*
G04 #@! TD*
D38*
G04 #@! TO.C,C5*
X89945000Y-95275000D03*
X92895000Y-95275000D03*
G04 #@! TD*
D16*
G04 #@! TO.C,J14*
X59400000Y-110900000D03*
D15*
X59400000Y-108360000D03*
X59400000Y-105820000D03*
X59400000Y-103280000D03*
G04 #@! TD*
D39*
G04 #@! TO.C,R40*
X135200000Y-105010000D03*
X135200000Y-103990000D03*
G04 #@! TD*
D38*
G04 #@! TO.C,C3*
X123650000Y-73200000D03*
X126600000Y-73200000D03*
G04 #@! TD*
D40*
G04 #@! TO.C,J8*
X51300000Y-116725000D03*
X52300000Y-116725000D03*
X53300000Y-116725000D03*
X54300000Y-116725000D03*
D41*
X50000000Y-120600000D03*
X55600000Y-120600000D03*
G04 #@! TD*
D42*
G04 #@! TO.C,C17*
X56020000Y-84200000D03*
X56980000Y-84200000D03*
G04 #@! TD*
D17*
G04 #@! TO.C,R33*
X75060000Y-109000000D03*
X74040000Y-109000000D03*
G04 #@! TD*
D33*
G04 #@! TO.C,C23*
X57850000Y-88420000D03*
X57850000Y-89380000D03*
G04 #@! TD*
D24*
G04 #@! TO.C,R5*
X85890000Y-91950000D03*
X86910000Y-91950000D03*
G04 #@! TD*
D16*
G04 #@! TO.C,JP3*
X126350000Y-100100000D03*
D15*
X126350000Y-97560000D03*
X126350000Y-95020000D03*
G04 #@! TD*
D32*
G04 #@! TO.C,FID1*
X53500000Y-60500000D03*
G04 #@! TD*
D43*
G04 #@! TO.C,D5*
X129750000Y-78400000D03*
X134050000Y-78400000D03*
G04 #@! TD*
D35*
G04 #@! TO.C,C12*
X52280000Y-114100000D03*
X51320000Y-114100000D03*
G04 #@! TD*
D44*
G04 #@! TO.C,D7*
X135000000Y-68750000D03*
X135000000Y-67350000D03*
G04 #@! TD*
D45*
G04 #@! TO.C,U1*
X53000000Y-81750000D03*
X54270000Y-81750000D03*
X55540000Y-81750000D03*
X56810000Y-81750000D03*
X58080000Y-81750000D03*
X59350000Y-81750000D03*
X60620000Y-81750000D03*
X61890000Y-81750000D03*
X63160000Y-81750000D03*
X64430000Y-81750000D03*
X65700000Y-81750000D03*
X66970000Y-81750000D03*
X68240000Y-81750000D03*
X69510000Y-81750000D03*
D46*
X70740000Y-79985000D03*
X70740000Y-78715000D03*
X70780000Y-77445000D03*
X70780000Y-76175000D03*
X70780000Y-74905000D03*
X70780000Y-73635000D03*
X70780000Y-72365000D03*
X70780000Y-71095000D03*
X70780000Y-69825000D03*
X70780000Y-68555000D03*
X70780000Y-67285000D03*
X70780000Y-66015000D03*
D45*
X69510000Y-64250000D03*
X68240000Y-64250000D03*
X66970000Y-64250000D03*
X65700000Y-64250000D03*
X64430000Y-64250000D03*
X63160000Y-64250000D03*
X61890000Y-64250000D03*
X60620000Y-64250000D03*
X59350000Y-64250000D03*
X58080000Y-64250000D03*
X56810000Y-64250000D03*
X55540000Y-64250000D03*
X54270000Y-64250000D03*
X53000000Y-64250000D03*
D47*
X59300000Y-75900000D03*
X60700000Y-75900000D03*
X62100000Y-75900000D03*
X59300000Y-74500000D03*
X60700000Y-74500000D03*
X62100000Y-74500000D03*
X59300000Y-73100000D03*
X60700000Y-73100000D03*
X62100000Y-73100000D03*
G04 #@! TD*
D39*
G04 #@! TO.C,R13*
X97195000Y-70800000D03*
X97195000Y-69780000D03*
G04 #@! TD*
D24*
G04 #@! TO.C,R36*
X88247787Y-65897553D03*
X89267787Y-65897553D03*
G04 #@! TD*
D35*
G04 #@! TO.C,C13*
X136960000Y-113780000D03*
X136000000Y-113780000D03*
G04 #@! TD*
D48*
G04 #@! TO.C,RN5*
X101600000Y-66500000D03*
D49*
X101600000Y-65700000D03*
X101600000Y-64900000D03*
D48*
X101600000Y-64100000D03*
X99800000Y-64100000D03*
D49*
X99800000Y-64900000D03*
X99800000Y-65700000D03*
D48*
X99800000Y-66500000D03*
G04 #@! TD*
D40*
G04 #@! TO.C,J9*
X136000000Y-116725000D03*
X137000000Y-116725000D03*
X138000000Y-116725000D03*
X139000000Y-116725000D03*
D41*
X134700000Y-120600000D03*
X140300000Y-120600000D03*
G04 #@! TD*
D42*
G04 #@! TO.C,C21*
X128420000Y-69100000D03*
X129380000Y-69100000D03*
G04 #@! TD*
D24*
G04 #@! TO.C,R34*
X85490000Y-69700000D03*
X86510000Y-69700000D03*
G04 #@! TD*
D50*
G04 #@! TO.C,C1*
X60000000Y-86425000D03*
X60000000Y-89375000D03*
G04 #@! TD*
D42*
G04 #@! TO.C,C9*
X98340000Y-106000000D03*
X99300000Y-106000000D03*
G04 #@! TD*
D17*
G04 #@! TO.C,R70*
X138210000Y-75400000D03*
X137190000Y-75400000D03*
G04 #@! TD*
D51*
G04 #@! TO.C,J7*
X50275000Y-106400000D03*
X50275000Y-107400000D03*
X50275000Y-108400000D03*
X50275000Y-109400000D03*
D52*
X46400000Y-105100000D03*
X46400000Y-110700000D03*
G04 #@! TD*
D53*
G04 #@! TO.C,SW2*
X116425000Y-118425000D03*
X120575000Y-118425000D03*
X116425000Y-120575000D03*
X120550000Y-120575000D03*
G04 #@! TD*
D35*
G04 #@! TO.C,C20*
X53960000Y-84200000D03*
X53000000Y-84200000D03*
G04 #@! TD*
D16*
G04 #@! TO.C,TP2*
X123700000Y-78500000D03*
G04 #@! TD*
D54*
G04 #@! TO.C,J12*
X137855000Y-71600000D03*
X137855000Y-70800000D03*
D55*
X137855000Y-69600000D03*
X137855000Y-68600000D03*
X137855000Y-68100000D03*
X137855000Y-67100000D03*
D54*
X137855000Y-65900000D03*
X137855000Y-65100000D03*
X137855000Y-65100000D03*
X137855000Y-65900000D03*
D55*
X137855000Y-66600000D03*
X137855000Y-67600000D03*
X137855000Y-69100000D03*
X137855000Y-70100000D03*
D54*
X137855000Y-70800000D03*
X137855000Y-71600000D03*
D56*
X138770000Y-72670000D03*
D57*
X142950000Y-72670000D03*
D56*
X138770000Y-64030000D03*
D57*
X142950000Y-64030000D03*
G04 #@! TD*
D42*
G04 #@! TO.C,C14*
X92920000Y-75200000D03*
X93880000Y-75200000D03*
G04 #@! TD*
D53*
G04 #@! TO.C,SW3*
X87125000Y-118425000D03*
X91275000Y-118425000D03*
X87125000Y-120575000D03*
X91250000Y-120575000D03*
G04 #@! TD*
D33*
G04 #@! TO.C,C10*
X79200000Y-113720000D03*
X79200000Y-114680000D03*
G04 #@! TD*
D58*
G04 #@! TO.C,C19*
X135500000Y-66080000D03*
X135500000Y-65120000D03*
G04 #@! TD*
D17*
G04 #@! TO.C,R18*
X86510000Y-71300000D03*
X85490000Y-71300000D03*
G04 #@! TD*
D33*
G04 #@! TO.C,C16*
X83600000Y-118420000D03*
X83600000Y-119380000D03*
G04 #@! TD*
D17*
G04 #@! TO.C,R11*
X98010000Y-73500000D03*
X96990000Y-73500000D03*
G04 #@! TD*
G04 #@! TO.C,R14*
X74510000Y-80100000D03*
X73490000Y-80100000D03*
G04 #@! TD*
D32*
G04 #@! TO.C,FID2*
X136500000Y-60500000D03*
G04 #@! TD*
D33*
G04 #@! TO.C,C18*
X75700000Y-64220000D03*
X75700000Y-65180000D03*
G04 #@! TD*
D44*
G04 #@! TO.C,D8*
X137500000Y-79950000D03*
X137500000Y-78550000D03*
G04 #@! TD*
D38*
G04 #@! TO.C,C24*
X92375000Y-77350000D03*
X95325000Y-77350000D03*
G04 #@! TD*
D58*
G04 #@! TO.C,C11*
X53000000Y-107380000D03*
X53000000Y-106420000D03*
G04 #@! TD*
D39*
G04 #@! TO.C,R37*
X54900000Y-108030000D03*
X54900000Y-107010000D03*
G04 #@! TD*
D26*
G04 #@! TO.C,RN3*
X107420000Y-104400000D03*
D27*
X108220000Y-104400000D03*
X109020000Y-104400000D03*
D26*
X109820000Y-104400000D03*
X109820000Y-102600000D03*
D27*
X109020000Y-102600000D03*
X108220000Y-102600000D03*
D26*
X107420000Y-102600000D03*
G04 #@! TD*
D16*
G04 #@! TO.C,JP1*
X94920000Y-102100000D03*
D15*
X97460000Y-102100000D03*
X100000000Y-102100000D03*
G04 #@! TD*
D16*
G04 #@! TO.C,JP2*
X63600000Y-89520000D03*
D15*
X63600000Y-92060000D03*
X63600000Y-94600000D03*
G04 #@! TD*
D38*
G04 #@! TO.C,C4*
X131225000Y-74500000D03*
X134175000Y-74500000D03*
G04 #@! TD*
D24*
G04 #@! TO.C,R8*
X67190000Y-104700000D03*
X68210000Y-104700000D03*
G04 #@! TD*
D34*
G04 #@! TO.C,D6*
X135000000Y-70350000D03*
X135000000Y-71750000D03*
G04 #@! TD*
D17*
G04 #@! TO.C,R16*
X74510000Y-78700000D03*
X73490000Y-78700000D03*
G04 #@! TD*
G04 #@! TO.C,R6*
X120660000Y-105500000D03*
X119640000Y-105500000D03*
G04 #@! TD*
D58*
G04 #@! TO.C,C22*
X131500000Y-99580000D03*
X131500000Y-98620000D03*
G04 #@! TD*
D39*
G04 #@! TO.C,R19*
X96800000Y-61410000D03*
X96800000Y-60390000D03*
G04 #@! TD*
D48*
G04 #@! TO.C,RN2*
X129900000Y-92200000D03*
D49*
X129900000Y-91400000D03*
X129900000Y-90600000D03*
D48*
X129900000Y-89800000D03*
X128100000Y-89800000D03*
D49*
X128100000Y-90600000D03*
X128100000Y-91400000D03*
D48*
X128100000Y-92200000D03*
G04 #@! TD*
D16*
G04 #@! TO.C,TP3*
X92100000Y-88800000D03*
G04 #@! TD*
D48*
G04 #@! TO.C,RN1*
X58400000Y-97600000D03*
D49*
X58400000Y-98400000D03*
X58400000Y-99200000D03*
D48*
X58400000Y-100000000D03*
X60200000Y-100000000D03*
D49*
X60200000Y-99200000D03*
X60200000Y-98400000D03*
D48*
X60200000Y-97600000D03*
G04 #@! TD*
D17*
G04 #@! TO.C,R69*
X138210000Y-76700000D03*
X137190000Y-76700000D03*
G04 #@! TD*
D59*
G04 #@! TO.C,R3*
X123887500Y-70562500D03*
X125712500Y-70562500D03*
G04 #@! TD*
D48*
G04 #@! TO.C,RN6*
X101600000Y-62250000D03*
D49*
X101600000Y-61450000D03*
X101600000Y-60650000D03*
D48*
X101600000Y-59850000D03*
X99800000Y-59850000D03*
D49*
X99800000Y-60650000D03*
X99800000Y-61450000D03*
D48*
X99800000Y-62250000D03*
G04 #@! TD*
D17*
G04 #@! TO.C,R7*
X68210000Y-106100000D03*
X67190000Y-106100000D03*
G04 #@! TD*
D60*
G04 #@! TO.C,U3*
X89900000Y-73662500D03*
X90400000Y-73662500D03*
X90900000Y-73662500D03*
X91400000Y-73662500D03*
X91900000Y-73662500D03*
X92400000Y-73662500D03*
X92900000Y-73662500D03*
D61*
X93850000Y-72712500D03*
X93850000Y-72212500D03*
X93850000Y-71712500D03*
X93850000Y-71212500D03*
X93850000Y-70712500D03*
X93850000Y-70212500D03*
X93850000Y-69712500D03*
D60*
X92900000Y-68762500D03*
X92400000Y-68762500D03*
X91900000Y-68762500D03*
X91400000Y-68762500D03*
X90900000Y-68762500D03*
X90400000Y-68762500D03*
X89900000Y-68762500D03*
D61*
X88950000Y-69712500D03*
X88950000Y-70212500D03*
X88950000Y-70712500D03*
X88950000Y-71212500D03*
X88950000Y-71712500D03*
X88950000Y-72212500D03*
X88950000Y-72712500D03*
D62*
X91400000Y-71212500D03*
G04 #@! TD*
D17*
G04 #@! TO.C,R17*
X86510000Y-73000000D03*
X85490000Y-73000000D03*
G04 #@! TD*
D63*
G04 #@! TO.C,Q4*
X86295287Y-65947553D03*
X86295287Y-64047553D03*
X84420287Y-64997553D03*
G04 #@! TD*
D17*
G04 #@! TO.C,R12*
X100610000Y-73500000D03*
X99590000Y-73500000D03*
G04 #@! TD*
D39*
G04 #@! TO.C,R10*
X95595000Y-70790000D03*
X95595000Y-69770000D03*
G04 #@! TD*
D64*
G04 #@! TO.C,C2*
X119800000Y-78500000D03*
X114200000Y-78500000D03*
G04 #@! TD*
D21*
G04 #@! TO.C,H6*
X48500000Y-114000000D03*
G04 #@! TD*
D30*
G04 #@! TO.C,D2*
X91487500Y-92000000D03*
X89912500Y-92000000D03*
G04 #@! TD*
D42*
G04 #@! TO.C,C8*
X89840000Y-97475000D03*
X90800000Y-97475000D03*
G04 #@! TD*
D24*
G04 #@! TO.C,R4*
X119590000Y-104000000D03*
X120610000Y-104000000D03*
G04 #@! TD*
D17*
G04 #@! TO.C,R35*
X89267787Y-63997553D03*
X88247787Y-63997553D03*
G04 #@! TD*
D39*
G04 #@! TO.C,R2*
X95595000Y-68190000D03*
X95595000Y-67170000D03*
G04 #@! TD*
D16*
G04 #@! TO.C,TP1*
X110300000Y-78500000D03*
G04 #@! TD*
M02*
