G04 #@! TF.GenerationSoftware,KiCad,Pcbnew,9.0.6*
G04 #@! TF.CreationDate,2026-03-03T22:35:12+01:00*
G04 #@! TF.ProjectId,saturn,73617475-726e-42e6-9b69-6361645f7063,rev?*
G04 #@! TF.SameCoordinates,Original*
G04 #@! TF.FileFunction,Copper,L1,Top*
G04 #@! TF.FilePolarity,Positive*
%FSLAX46Y46*%
G04 Gerber Fmt 4.6, Leading zero omitted, Abs format (unit mm)*
G04 Created by KiCad (PCBNEW 9.0.6) date 2026-03-03 22:35:12*
%MOMM*%
%LPD*%
G01*
G04 APERTURE LIST*
G04 Aperture macros list*
%AMRoundRect*
0 Rectangle with rounded corners*
0 $1 Rounding radius*
0 $2 $3 $4 $5 $6 $7 $8 $9 X,Y pos of 4 corners*
0 Add a 4 corners polygon primitive as box body*
4,1,4,$2,$3,$4,$5,$6,$7,$8,$9,$2,$3,0*
0 Add four circle primitives for the rounded corners*
1,1,$1+$1,$2,$3*
1,1,$1+$1,$4,$5*
1,1,$1+$1,$6,$7*
1,1,$1+$1,$8,$9*
0 Add four rect primitives between the rounded corners*
20,1,$1+$1,$2,$3,$4,$5,0*
20,1,$1+$1,$4,$5,$6,$7,0*
20,1,$1+$1,$6,$7,$8,$9,0*
20,1,$1+$1,$8,$9,$2,$3,0*%
G04 Aperture macros list end*
G04 #@! TA.AperFunction,SMDPad,CuDef*
%ADD10R,1.350000X0.400000*%
G04 #@! TD*
G04 #@! TA.AperFunction,HeatsinkPad*
%ADD11O,1.900000X1.200000*%
G04 #@! TD*
G04 #@! TA.AperFunction,SMDPad,CuDef*
%ADD12R,1.900000X1.200000*%
G04 #@! TD*
G04 #@! TA.AperFunction,HeatsinkPad*
%ADD13C,1.450000*%
G04 #@! TD*
G04 #@! TA.AperFunction,SMDPad,CuDef*
%ADD14R,1.900000X1.500000*%
G04 #@! TD*
G04 #@! TA.AperFunction,ComponentPad*
%ADD15C,1.700000*%
G04 #@! TD*
G04 #@! TA.AperFunction,ComponentPad*
%ADD16R,1.700000X1.700000*%
G04 #@! TD*
G04 #@! TA.AperFunction,SMDPad,CuDef*
%ADD17RoundRect,0.135000X0.135000X0.185000X-0.135000X0.185000X-0.135000X-0.185000X0.135000X-0.185000X0*%
G04 #@! TD*
G04 #@! TA.AperFunction,ComponentPad*
%ADD18RoundRect,0.250000X-0.600000X-0.725000X0.600000X-0.725000X0.600000X0.725000X-0.600000X0.725000X0*%
G04 #@! TD*
G04 #@! TA.AperFunction,ComponentPad*
%ADD19O,1.700000X1.950000*%
G04 #@! TD*
G04 #@! TA.AperFunction,ComponentPad*
%ADD20RoundRect,0.250000X0.600000X0.725000X-0.600000X0.725000X-0.600000X-0.725000X0.600000X-0.725000X0*%
G04 #@! TD*
G04 #@! TA.AperFunction,SMDPad,CuDef*
%ADD21R,0.850000X0.750000*%
G04 #@! TD*
G04 #@! TA.AperFunction,SMDPad,CuDef*
%ADD22RoundRect,0.135000X-0.185000X0.135000X-0.185000X-0.135000X0.185000X-0.135000X0.185000X0.135000X0*%
G04 #@! TD*
G04 #@! TA.AperFunction,SMDPad,CuDef*
%ADD23RoundRect,0.135000X-0.135000X-0.185000X0.135000X-0.185000X0.135000X0.185000X-0.135000X0.185000X0*%
G04 #@! TD*
G04 #@! TA.AperFunction,SMDPad,CuDef*
%ADD24RoundRect,0.150000X-0.587500X-0.150000X0.587500X-0.150000X0.587500X0.150000X-0.587500X0.150000X0*%
G04 #@! TD*
G04 #@! TA.AperFunction,SMDPad,CuDef*
%ADD25R,0.500000X0.800000*%
G04 #@! TD*
G04 #@! TA.AperFunction,SMDPad,CuDef*
%ADD26R,0.400000X0.800000*%
G04 #@! TD*
G04 #@! TA.AperFunction,SMDPad,CuDef*
%ADD27RoundRect,0.150000X0.625000X-0.150000X0.625000X0.150000X-0.625000X0.150000X-0.625000X-0.150000X0*%
G04 #@! TD*
G04 #@! TA.AperFunction,SMDPad,CuDef*
%ADD28RoundRect,0.250000X0.650000X-0.350000X0.650000X0.350000X-0.650000X0.350000X-0.650000X-0.350000X0*%
G04 #@! TD*
G04 #@! TA.AperFunction,SMDPad,CuDef*
%ADD29RoundRect,0.218750X0.218750X0.256250X-0.218750X0.256250X-0.218750X-0.256250X0.218750X-0.256250X0*%
G04 #@! TD*
G04 #@! TA.AperFunction,SMDPad,CuDef*
%ADD30RoundRect,0.250000X0.325000X0.650000X-0.325000X0.650000X-0.325000X-0.650000X0.325000X-0.650000X0*%
G04 #@! TD*
G04 #@! TA.AperFunction,SMDPad,CuDef*
%ADD31C,1.000000*%
G04 #@! TD*
G04 #@! TA.AperFunction,SMDPad,CuDef*
%ADD32RoundRect,0.140000X-0.170000X0.140000X-0.170000X-0.140000X0.170000X-0.140000X0.170000X0.140000X0*%
G04 #@! TD*
G04 #@! TA.AperFunction,SMDPad,CuDef*
%ADD33RoundRect,0.150000X0.200000X-0.150000X0.200000X0.150000X-0.200000X0.150000X-0.200000X-0.150000X0*%
G04 #@! TD*
G04 #@! TA.AperFunction,SMDPad,CuDef*
%ADD34RoundRect,0.140000X0.140000X0.170000X-0.140000X0.170000X-0.140000X-0.170000X0.140000X-0.170000X0*%
G04 #@! TD*
G04 #@! TA.AperFunction,SMDPad,CuDef*
%ADD35RoundRect,0.375000X-0.375000X0.625000X-0.375000X-0.625000X0.375000X-0.625000X0.375000X0.625000X0*%
G04 #@! TD*
G04 #@! TA.AperFunction,SMDPad,CuDef*
%ADD36RoundRect,0.500000X-1.400000X0.500000X-1.400000X-0.500000X1.400000X-0.500000X1.400000X0.500000X0*%
G04 #@! TD*
G04 #@! TA.AperFunction,SMDPad,CuDef*
%ADD37RoundRect,0.250000X-0.325000X-0.650000X0.325000X-0.650000X0.325000X0.650000X-0.325000X0.650000X0*%
G04 #@! TD*
G04 #@! TA.AperFunction,SMDPad,CuDef*
%ADD38RoundRect,0.135000X0.185000X-0.135000X0.185000X0.135000X-0.185000X0.135000X-0.185000X-0.135000X0*%
G04 #@! TD*
G04 #@! TA.AperFunction,SMDPad,CuDef*
%ADD39RoundRect,0.150000X-0.150000X-0.625000X0.150000X-0.625000X0.150000X0.625000X-0.150000X0.625000X0*%
G04 #@! TD*
G04 #@! TA.AperFunction,SMDPad,CuDef*
%ADD40RoundRect,0.250000X-0.350000X-0.650000X0.350000X-0.650000X0.350000X0.650000X-0.350000X0.650000X0*%
G04 #@! TD*
G04 #@! TA.AperFunction,SMDPad,CuDef*
%ADD41RoundRect,0.140000X-0.140000X-0.170000X0.140000X-0.170000X0.140000X0.170000X-0.140000X0.170000X0*%
G04 #@! TD*
G04 #@! TA.AperFunction,SMDPad,CuDef*
%ADD42RoundRect,0.250000X-1.000000X-0.900000X1.000000X-0.900000X1.000000X0.900000X-1.000000X0.900000X0*%
G04 #@! TD*
G04 #@! TA.AperFunction,SMDPad,CuDef*
%ADD43RoundRect,0.150000X-0.200000X0.150000X-0.200000X-0.150000X0.200000X-0.150000X0.200000X0.150000X0*%
G04 #@! TD*
G04 #@! TA.AperFunction,SMDPad,CuDef*
%ADD44RoundRect,0.100000X0.350000X-0.650000X0.350000X0.650000X-0.350000X0.650000X-0.350000X-0.650000X0*%
G04 #@! TD*
G04 #@! TA.AperFunction,SMDPad,CuDef*
%ADD45RoundRect,0.100000X-0.650000X-0.350000X0.650000X-0.350000X0.650000X0.350000X-0.650000X0.350000X0*%
G04 #@! TD*
G04 #@! TA.AperFunction,SMDPad,CuDef*
%ADD46RoundRect,0.100000X0.350000X-0.350000X0.350000X0.350000X-0.350000X0.350000X-0.350000X-0.350000X0*%
G04 #@! TD*
G04 #@! TA.AperFunction,SMDPad,CuDef*
%ADD47R,0.800000X0.500000*%
G04 #@! TD*
G04 #@! TA.AperFunction,SMDPad,CuDef*
%ADD48R,0.800000X0.400000*%
G04 #@! TD*
G04 #@! TA.AperFunction,SMDPad,CuDef*
%ADD49RoundRect,0.250000X-0.650000X0.325000X-0.650000X-0.325000X0.650000X-0.325000X0.650000X0.325000X0*%
G04 #@! TD*
G04 #@! TA.AperFunction,SMDPad,CuDef*
%ADD50RoundRect,0.150000X-0.625000X0.150000X-0.625000X-0.150000X0.625000X-0.150000X0.625000X0.150000X0*%
G04 #@! TD*
G04 #@! TA.AperFunction,SMDPad,CuDef*
%ADD51RoundRect,0.250000X-0.650000X0.350000X-0.650000X-0.350000X0.650000X-0.350000X0.650000X0.350000X0*%
G04 #@! TD*
G04 #@! TA.AperFunction,SMDPad,CuDef*
%ADD52R,1.050000X0.650000*%
G04 #@! TD*
G04 #@! TA.AperFunction,SMDPad,CuDef*
%ADD53R,1.450000X0.600000*%
G04 #@! TD*
G04 #@! TA.AperFunction,SMDPad,CuDef*
%ADD54R,1.450000X0.300000*%
G04 #@! TD*
G04 #@! TA.AperFunction,HeatsinkPad*
%ADD55O,2.100000X1.000000*%
G04 #@! TD*
G04 #@! TA.AperFunction,HeatsinkPad*
%ADD56O,1.600000X1.000000*%
G04 #@! TD*
G04 #@! TA.AperFunction,SMDPad,CuDef*
%ADD57RoundRect,0.140000X0.170000X-0.140000X0.170000X0.140000X-0.170000X0.140000X-0.170000X-0.140000X0*%
G04 #@! TD*
G04 #@! TA.AperFunction,SMDPad,CuDef*
%ADD58RoundRect,0.250000X-0.262500X-0.450000X0.262500X-0.450000X0.262500X0.450000X-0.262500X0.450000X0*%
G04 #@! TD*
G04 #@! TA.AperFunction,SMDPad,CuDef*
%ADD59RoundRect,0.062500X0.062500X-0.337500X0.062500X0.337500X-0.062500X0.337500X-0.062500X-0.337500X0*%
G04 #@! TD*
G04 #@! TA.AperFunction,SMDPad,CuDef*
%ADD60RoundRect,0.062500X0.337500X-0.062500X0.337500X0.062500X-0.337500X0.062500X-0.337500X-0.062500X0*%
G04 #@! TD*
G04 #@! TA.AperFunction,HeatsinkPad*
%ADD61R,3.350000X3.350000*%
G04 #@! TD*
G04 #@! TA.AperFunction,SMDPad,CuDef*
%ADD62RoundRect,0.150000X0.587500X0.150000X-0.587500X0.150000X-0.587500X-0.150000X0.587500X-0.150000X0*%
G04 #@! TD*
G04 #@! TA.AperFunction,SMDPad,CuDef*
%ADD63RoundRect,0.250000X1.500000X0.550000X-1.500000X0.550000X-1.500000X-0.550000X1.500000X-0.550000X0*%
G04 #@! TD*
G04 #@! TA.AperFunction,ViaPad*
%ADD64C,0.600000*%
G04 #@! TD*
G04 #@! TA.AperFunction,Conductor*
%ADD65C,0.400000*%
G04 #@! TD*
G04 #@! TA.AperFunction,Conductor*
%ADD66C,0.600000*%
G04 #@! TD*
G04 #@! TA.AperFunction,Conductor*
%ADD67C,0.200000*%
G04 #@! TD*
G04 #@! TA.AperFunction,Conductor*
%ADD68C,1.000000*%
G04 #@! TD*
G04 #@! TA.AperFunction,Conductor*
%ADD69C,0.800000*%
G04 #@! TD*
G04 #@! TA.AperFunction,Conductor*
%ADD70C,0.250000*%
G04 #@! TD*
G04 APERTURE END LIST*
D10*
G04 #@! TO.P,J11,1,VBUS*
G04 #@! TO.N,+5V*
X140837500Y-82200000D03*
G04 #@! TO.P,J11,2,D-*
G04 #@! TO.N,/USBAUX_D-*
X140837500Y-81550000D03*
G04 #@! TO.P,J11,3,D+*
G04 #@! TO.N,/USBAUX_D+*
X140837500Y-80900000D03*
G04 #@! TO.P,J11,4,ID*
G04 #@! TO.N,unconnected-(J11-ID-Pad4)*
X140837500Y-80250000D03*
G04 #@! TO.P,J11,5,GND*
G04 #@! TO.N,GND*
X140837500Y-79600000D03*
D11*
G04 #@! TO.P,J11,6,Shield*
G04 #@! TO.N,Net-(J11-Shield)*
X143537500Y-84400000D03*
D12*
X143537500Y-83800000D03*
D13*
X140837500Y-83400000D03*
D14*
X143537500Y-81900000D03*
X143537500Y-79900000D03*
D13*
X140837500Y-78400000D03*
D12*
X143537500Y-78000000D03*
D11*
X143537500Y-77400000D03*
G04 #@! TD*
D15*
G04 #@! TO.P,J4,1,Pin_1*
G04 #@! TO.N,Net-(J4-Pin_1)*
X135500000Y-87700000D03*
G04 #@! TO.P,J4,2,Pin_2*
G04 #@! TO.N,Net-(J4-Pin_2)*
X135500000Y-90240000D03*
G04 #@! TO.P,J4,3,Pin_3*
G04 #@! TO.N,Net-(J4-Pin_3)*
X135500000Y-92780000D03*
G04 #@! TO.P,J4,4,Pin_4*
G04 #@! TO.N,Net-(J4-Pin_4)*
X135500000Y-95320000D03*
G04 #@! TO.P,J4,5,Pin_5*
G04 #@! TO.N,GND*
X135500000Y-97860000D03*
D16*
G04 #@! TO.P,J4,6,Pin_6*
G04 #@! TO.N,Net-(J4-Pin_6)*
X135500000Y-100400000D03*
G04 #@! TD*
D17*
G04 #@! TO.P,R71,1*
G04 #@! TO.N,Net-(J11-Shield)*
X138210000Y-84500000D03*
G04 #@! TO.P,R71,2*
G04 #@! TO.N,GND*
X137190000Y-84500000D03*
G04 #@! TD*
D18*
G04 #@! TO.P,J13,1,Pin_1*
G04 #@! TO.N,GND*
X70000000Y-114000000D03*
D19*
G04 #@! TO.P,J13,2,Pin_2*
G04 #@! TO.N,Net-(J13-Pin_2)*
X72500000Y-114000000D03*
G04 #@! TO.P,J13,3,Pin_3*
G04 #@! TO.N,+5V*
X75000000Y-114000000D03*
G04 #@! TD*
D20*
G04 #@! TO.P,J6,1,Pin_1*
G04 #@! TO.N,GND*
X130500000Y-64000000D03*
D19*
G04 #@! TO.P,J6,2,Pin_2*
G04 #@! TO.N,/DISPLAY_+5V*
X128000000Y-64000000D03*
G04 #@! TO.P,J6,3,Pin_3*
X125500000Y-64000000D03*
G04 #@! TO.P,J6,4,Pin_4*
G04 #@! TO.N,Net-(J6-Pin_4)*
X123000000Y-64000000D03*
G04 #@! TO.P,J6,5,Pin_5*
G04 #@! TO.N,Net-(J6-Pin_5)*
X120500000Y-64000000D03*
G04 #@! TO.P,J6,6,Pin_6*
G04 #@! TO.N,Net-(J6-Pin_6)*
X118000000Y-64000000D03*
G04 #@! TO.P,J6,7,Pin_7*
G04 #@! TO.N,Net-(J6-Pin_7)*
X115500000Y-64000000D03*
G04 #@! TO.P,J6,8,Pin_8*
G04 #@! TO.N,GND*
X113000000Y-64000000D03*
G04 #@! TO.P,J6,9,Pin_9*
G04 #@! TO.N,Net-(J6-Pin_9)*
X110500000Y-64000000D03*
G04 #@! TO.P,J6,10,Pin_10*
G04 #@! TO.N,Net-(J6-Pin_10)*
X108000000Y-64000000D03*
G04 #@! TD*
D21*
G04 #@! TO.P,U9,1,DOUT*
G04 #@! TO.N,Net-(U9-DOUT)*
X80240000Y-118325000D03*
G04 #@! TO.P,U9,2,VSS*
G04 #@! TO.N,GND*
X80240000Y-119575000D03*
G04 #@! TO.P,U9,3,DIN*
G04 #@! TO.N,/SMART_LEDS*
X81590000Y-119575000D03*
G04 #@! TO.P,U9,4,VDD*
G04 #@! TO.N,+5V*
X81590000Y-118325000D03*
G04 #@! TD*
D22*
G04 #@! TO.P,R38,1*
G04 #@! TO.N,Net-(J14-Pin_1)*
X54900000Y-109490000D03*
G04 #@! TO.P,R38,2*
G04 #@! TO.N,+3V3*
X54900000Y-110510000D03*
G04 #@! TD*
D23*
G04 #@! TO.P,R9,1*
G04 #@! TO.N,/DISPLAY_+5V*
X128390000Y-72400000D03*
G04 #@! TO.P,R9,2*
G04 #@! TO.N,+5V*
X129410000Y-72400000D03*
G04 #@! TD*
D24*
G04 #@! TO.P,Q3,1,B*
G04 #@! TO.N,Net-(Q3-B)*
X91220287Y-64047553D03*
G04 #@! TO.P,Q3,2,E*
G04 #@! TO.N,Net-(Q3-E)*
X91220287Y-65947553D03*
G04 #@! TO.P,Q3,3,C*
G04 #@! TO.N,/EN*
X93095287Y-64997553D03*
G04 #@! TD*
D25*
G04 #@! TO.P,RN4,1,R1.1*
G04 #@! TO.N,Net-(J2-Pin_10)*
X103620000Y-104400000D03*
D26*
G04 #@! TO.P,RN4,2,R2.1*
G04 #@! TO.N,Net-(J2-Pin_4)*
X104420000Y-104400000D03*
G04 #@! TO.P,RN4,3,R3.1*
G04 #@! TO.N,Net-(J2-Pin_9)*
X105220000Y-104400000D03*
D25*
G04 #@! TO.P,RN4,4,R4.1*
G04 #@! TO.N,Net-(J2-Pin_3)*
X106020000Y-104400000D03*
G04 #@! TO.P,RN4,5,R4.2*
G04 #@! TO.N,/PMOD0_IO3*
X106020000Y-102600000D03*
D26*
G04 #@! TO.P,RN4,6,R3.2*
G04 #@! TO.N,/PMOD0_IO9*
X105220000Y-102600000D03*
G04 #@! TO.P,RN4,7,R2.2*
G04 #@! TO.N,/PMOD0_IO4*
X104420000Y-102600000D03*
D25*
G04 #@! TO.P,RN4,8,R1.2*
G04 #@! TO.N,/PMOD0_IO10*
X103620000Y-102600000D03*
G04 #@! TD*
D15*
G04 #@! TO.P,J3,1,Pin_1*
G04 #@! TO.N,Net-(J3-Pin_1)*
X54400000Y-100375000D03*
G04 #@! TO.P,J3,2,Pin_2*
G04 #@! TO.N,Net-(J3-Pin_2)*
X54400000Y-97835000D03*
G04 #@! TO.P,J3,3,Pin_3*
G04 #@! TO.N,Net-(J3-Pin_3)*
X54400000Y-95295000D03*
G04 #@! TO.P,J3,4,Pin_4*
G04 #@! TO.N,Net-(J3-Pin_4)*
X54400000Y-92755000D03*
G04 #@! TO.P,J3,5,Pin_5*
G04 #@! TO.N,GND*
X54400000Y-90215000D03*
D16*
G04 #@! TO.P,J3,6,Pin_6*
G04 #@! TO.N,Net-(J3-Pin_6)*
X54400000Y-87675000D03*
G04 #@! TD*
D27*
G04 #@! TO.P,J10,1,Pin_1*
G04 #@! TO.N,GND*
X139725000Y-109300000D03*
G04 #@! TO.P,J10,2,Pin_2*
G04 #@! TO.N,+3V3*
X139725000Y-108300000D03*
G04 #@! TO.P,J10,3,Pin_3*
G04 #@! TO.N,Net-(J1-Pin_2)*
X139725000Y-107300000D03*
G04 #@! TO.P,J10,4,Pin_4*
G04 #@! TO.N,Net-(J1-Pin_1)*
X139725000Y-106300000D03*
D28*
G04 #@! TO.P,J10,MP,MountPin*
G04 #@! TO.N,GND*
X143600000Y-110600000D03*
X143600000Y-105000000D03*
G04 #@! TD*
D17*
G04 #@! TO.P,R15,1*
G04 #@! TO.N,GND*
X74510000Y-66000000D03*
G04 #@! TO.P,R15,2*
G04 #@! TO.N,/DISPLAY_IO3*
X73490000Y-66000000D03*
G04 #@! TD*
D15*
G04 #@! TO.P,J2,1,Pin_1*
G04 #@! TO.N,Net-(J2-Pin_1)*
X110200000Y-110000000D03*
G04 #@! TO.P,J2,2,Pin_2*
G04 #@! TO.N,Net-(J2-Pin_2)*
X107660000Y-110000000D03*
G04 #@! TO.P,J2,3,Pin_3*
G04 #@! TO.N,Net-(J2-Pin_3)*
X105120000Y-110000000D03*
G04 #@! TO.P,J2,4,Pin_4*
G04 #@! TO.N,Net-(J2-Pin_4)*
X102580000Y-110000000D03*
G04 #@! TO.P,J2,5,Pin_5*
G04 #@! TO.N,GND*
X100040000Y-110000000D03*
D16*
G04 #@! TO.P,J2,6,Pin_6*
G04 #@! TO.N,Net-(J2-Pin_12)*
X97500000Y-110000000D03*
D15*
G04 #@! TO.P,J2,7,Pin_7*
G04 #@! TO.N,Net-(J2-Pin_7)*
X110200000Y-112540000D03*
G04 #@! TO.P,J2,8,Pin_8*
G04 #@! TO.N,Net-(J2-Pin_8)*
X107660000Y-112540000D03*
G04 #@! TO.P,J2,9,Pin_9*
G04 #@! TO.N,Net-(J2-Pin_9)*
X105120000Y-112540000D03*
G04 #@! TO.P,J2,10,Pin_10*
G04 #@! TO.N,Net-(J2-Pin_10)*
X102580000Y-112540000D03*
G04 #@! TO.P,J2,11,Pin_11*
G04 #@! TO.N,GND*
X100040000Y-112540000D03*
G04 #@! TO.P,J2,12,Pin_12*
G04 #@! TO.N,Net-(J2-Pin_12)*
X97500000Y-112540000D03*
G04 #@! TD*
D29*
G04 #@! TO.P,FB1,1*
G04 #@! TO.N,+5V*
X129987500Y-70600000D03*
G04 #@! TO.P,FB1,2*
G04 #@! TO.N,/DISPLAY_+5V*
X128412500Y-70600000D03*
G04 #@! TD*
D30*
G04 #@! TO.P,C6,1*
G04 #@! TO.N,+5V*
X86200000Y-95225000D03*
G04 #@! TO.P,C6,2*
G04 #@! TO.N,GND*
X83250000Y-95225000D03*
G04 #@! TD*
D31*
G04 #@! TO.P,FID3,*
G04 #@! TO.N,*
X135300000Y-111300000D03*
G04 #@! TD*
D32*
G04 #@! TO.P,C15,1*
G04 #@! TO.N,+3V3*
X137000000Y-108320000D03*
G04 #@! TO.P,C15,2*
G04 #@! TO.N,GND*
X137000000Y-109280000D03*
G04 #@! TD*
D33*
G04 #@! TO.P,D9,1,A1*
G04 #@! TO.N,/USBAUX_D-*
X137500000Y-81700000D03*
G04 #@! TO.P,D9,2,A2*
G04 #@! TO.N,GND*
X137500000Y-83100000D03*
G04 #@! TD*
D34*
G04 #@! TO.P,C7,1*
G04 #@! TO.N,+5V*
X86005000Y-97475000D03*
G04 #@! TO.P,C7,2*
G04 #@! TO.N,GND*
X85045000Y-97475000D03*
G04 #@! TD*
D23*
G04 #@! TO.P,R1,1*
G04 #@! TO.N,/GPIO0{slash}BOOT*
X85490000Y-75100000D03*
G04 #@! TO.P,R1,2*
G04 #@! TO.N,+3V3*
X86510000Y-75100000D03*
G04 #@! TD*
D16*
G04 #@! TO.P,J1,1,Pin_1*
G04 #@! TO.N,Net-(J1-Pin_1)*
X131000000Y-103300000D03*
D15*
G04 #@! TO.P,J1,2,Pin_2*
G04 #@! TO.N,Net-(J1-Pin_2)*
X131000000Y-105840000D03*
G04 #@! TO.P,J1,3,Pin_3*
G04 #@! TO.N,+3V3*
X131000000Y-108380000D03*
G04 #@! TO.P,J1,4,Pin_4*
G04 #@! TO.N,GND*
X131000000Y-110920000D03*
G04 #@! TD*
D35*
G04 #@! TO.P,U2,1,GND*
G04 #@! TO.N,GND*
X90825000Y-99925000D03*
G04 #@! TO.P,U2,2,VOUT*
G04 #@! TO.N,+3V3*
X88525000Y-99925000D03*
D36*
X88525000Y-106225000D03*
D35*
G04 #@! TO.P,U2,3,VIN*
G04 #@! TO.N,+5V*
X86225000Y-99925000D03*
G04 #@! TD*
D22*
G04 #@! TO.P,R39,1*
G04 #@! TO.N,Net-(J1-Pin_2)*
X135200000Y-106090000D03*
G04 #@! TO.P,R39,2*
G04 #@! TO.N,+3V3*
X135200000Y-107110000D03*
G04 #@! TD*
D37*
G04 #@! TO.P,C5,1*
G04 #@! TO.N,+3V3*
X89945000Y-95275000D03*
G04 #@! TO.P,C5,2*
G04 #@! TO.N,GND*
X92895000Y-95275000D03*
G04 #@! TD*
D16*
G04 #@! TO.P,J14,1,Pin_1*
G04 #@! TO.N,Net-(J14-Pin_1)*
X59400000Y-110900000D03*
D15*
G04 #@! TO.P,J14,2,Pin_2*
G04 #@! TO.N,Net-(J14-Pin_2)*
X59400000Y-108360000D03*
G04 #@! TO.P,J14,3,Pin_3*
G04 #@! TO.N,+3V3*
X59400000Y-105820000D03*
G04 #@! TO.P,J14,4,Pin_4*
G04 #@! TO.N,GND*
X59400000Y-103280000D03*
G04 #@! TD*
D38*
G04 #@! TO.P,R40,1*
G04 #@! TO.N,Net-(J1-Pin_1)*
X135200000Y-105010000D03*
G04 #@! TO.P,R40,2*
G04 #@! TO.N,+3V3*
X135200000Y-103990000D03*
G04 #@! TD*
D37*
G04 #@! TO.P,C3,1*
G04 #@! TO.N,Net-(C3-Pad1)*
X123650000Y-73200000D03*
G04 #@! TO.P,C3,2*
G04 #@! TO.N,GND*
X126600000Y-73200000D03*
G04 #@! TD*
D39*
G04 #@! TO.P,J8,1,Pin_1*
G04 #@! TO.N,GND*
X51300000Y-116725000D03*
G04 #@! TO.P,J8,2,Pin_2*
G04 #@! TO.N,+3V3*
X52300000Y-116725000D03*
G04 #@! TO.P,J8,3,Pin_3*
G04 #@! TO.N,Net-(J14-Pin_2)*
X53300000Y-116725000D03*
G04 #@! TO.P,J8,4,Pin_4*
G04 #@! TO.N,Net-(J14-Pin_1)*
X54300000Y-116725000D03*
D40*
G04 #@! TO.P,J8,MP,MountPin*
G04 #@! TO.N,GND*
X50000000Y-120600000D03*
X55600000Y-120600000D03*
G04 #@! TD*
D41*
G04 #@! TO.P,C17,1*
G04 #@! TO.N,/EN*
X56020000Y-84200000D03*
G04 #@! TO.P,C17,2*
G04 #@! TO.N,GND*
X56980000Y-84200000D03*
G04 #@! TD*
D17*
G04 #@! TO.P,R33,1*
G04 #@! TO.N,Net-(U9-DOUT)*
X75060000Y-109000000D03*
G04 #@! TO.P,R33,2*
G04 #@! TO.N,Net-(J13-Pin_2)*
X74040000Y-109000000D03*
G04 #@! TD*
D32*
G04 #@! TO.P,C23,1*
G04 #@! TO.N,Net-(J3-Pin_6)*
X57850000Y-88420000D03*
G04 #@! TO.P,C23,2*
G04 #@! TO.N,GND*
X57850000Y-89380000D03*
G04 #@! TD*
D23*
G04 #@! TO.P,R5,1*
G04 #@! TO.N,+3V3*
X85890000Y-91950000D03*
G04 #@! TO.P,R5,2*
G04 #@! TO.N,Net-(D2-A)*
X86910000Y-91950000D03*
G04 #@! TD*
D16*
G04 #@! TO.P,JP3,1,A*
G04 #@! TO.N,+3V3*
X126350000Y-100100000D03*
D15*
G04 #@! TO.P,JP3,2,C*
G04 #@! TO.N,Net-(J4-Pin_6)*
X126350000Y-97560000D03*
G04 #@! TO.P,JP3,3,B*
G04 #@! TO.N,+5V*
X126350000Y-95020000D03*
G04 #@! TD*
D31*
G04 #@! TO.P,FID1,*
G04 #@! TO.N,*
X53500000Y-60500000D03*
G04 #@! TD*
D42*
G04 #@! TO.P,D5,1,A1*
G04 #@! TO.N,+5V*
X129750000Y-78400000D03*
G04 #@! TO.P,D5,2,A2*
G04 #@! TO.N,GND*
X134050000Y-78400000D03*
G04 #@! TD*
D34*
G04 #@! TO.P,C12,1*
G04 #@! TO.N,+3V3*
X52280000Y-114100000D03*
G04 #@! TO.P,C12,2*
G04 #@! TO.N,GND*
X51320000Y-114100000D03*
G04 #@! TD*
D43*
G04 #@! TO.P,D7,1,A1*
G04 #@! TO.N,/USBMAIN_D+*
X135000000Y-68750000D03*
G04 #@! TO.P,D7,2,A2*
G04 #@! TO.N,GND*
X135000000Y-67350000D03*
G04 #@! TD*
D44*
G04 #@! TO.P,U1,1,GND*
G04 #@! TO.N,GND*
X53000000Y-81750000D03*
G04 #@! TO.P,U1,2,3V3*
G04 #@! TO.N,+3V3*
X54270000Y-81750000D03*
G04 #@! TO.P,U1,3,EN*
G04 #@! TO.N,/EN*
X55540000Y-81750000D03*
G04 #@! TO.P,U1,4,IO04*
G04 #@! TO.N,/PMOD1_IO4*
X56810000Y-81750000D03*
G04 #@! TO.P,U1,5,IO05*
G04 #@! TO.N,/PMOD1_IO3*
X58080000Y-81750000D03*
G04 #@! TO.P,U1,6,IO06*
G04 #@! TO.N,/PMOD1_IO2*
X59350000Y-81750000D03*
G04 #@! TO.P,U1,7,IO07*
G04 #@! TO.N,/PMOD1_IO1*
X60620000Y-81750000D03*
G04 #@! TO.P,U1,8,IO15*
G04 #@! TO.N,/PMOD0_IO10*
X61890000Y-81750000D03*
G04 #@! TO.P,U1,9,IO16*
G04 #@! TO.N,/PMOD0_IO4*
X63160000Y-81750000D03*
G04 #@! TO.P,U1,10,IO17*
G04 #@! TO.N,/PMOD0_IO9*
X64430000Y-81750000D03*
G04 #@! TO.P,U1,11,IO18*
G04 #@! TO.N,/PMOD0_IO3*
X65700000Y-81750000D03*
G04 #@! TO.P,U1,12,IO08*
G04 #@! TO.N,/I2CA_SCL*
X66970000Y-81750000D03*
G04 #@! TO.P,U1,13,IO19-D-*
G04 #@! TO.N,/USBMAIN_D-*
X68240000Y-81750000D03*
G04 #@! TO.P,U1,14,IO20-D+*
G04 #@! TO.N,/USBMAIN_D+*
X69510000Y-81750000D03*
D45*
G04 #@! TO.P,U1,15,IO03-PD*
G04 #@! TO.N,/DISPLAY_CLK*
X70740000Y-79985000D03*
G04 #@! TO.P,U1,16,IO46-PD*
G04 #@! TO.N,Net-(U1-IO46-PD)*
X70740000Y-78715000D03*
G04 #@! TO.P,U1,17,IO09*
G04 #@! TO.N,/I2CA_SDA*
X70780000Y-77445000D03*
G04 #@! TO.P,U1,18,IO10*
G04 #@! TO.N,/PMOD0_IO8*
X70780000Y-76175000D03*
G04 #@! TO.P,U1,19,IO11*
G04 #@! TO.N,/PMOD0_IO2*
X70780000Y-74905000D03*
G04 #@! TO.P,U1,20,IO12*
G04 #@! TO.N,/PMOD0_IO7*
X70780000Y-73635000D03*
G04 #@! TO.P,U1,21,IO13*
G04 #@! TO.N,/PMOD0_IO1*
X70780000Y-72365000D03*
G04 #@! TO.P,U1,22,IO14*
G04 #@! TO.N,/I2CB_SDA*
X70780000Y-71095000D03*
G04 #@! TO.P,U1,23,IO21*
G04 #@! TO.N,/I2CB_SCL*
X70780000Y-69825000D03*
G04 #@! TO.P,U1,24,IO47*
G04 #@! TO.N,/PMOD2_IO3*
X70780000Y-68555000D03*
G04 #@! TO.P,U1,25,IO48*
G04 #@! TO.N,/SMART_LEDS*
X70780000Y-67285000D03*
G04 #@! TO.P,U1,26,IO45-PD*
G04 #@! TO.N,/DISPLAY_IO3*
X70780000Y-66015000D03*
D44*
G04 #@! TO.P,U1,27,IO00-PU*
G04 #@! TO.N,/GPIO0{slash}BOOT*
X69510000Y-64250000D03*
G04 #@! TO.P,U1,28,IO35*
G04 #@! TO.N,unconnected-(U1-IO35-Pad28)*
X68240000Y-64250000D03*
G04 #@! TO.P,U1,29,IO36*
G04 #@! TO.N,unconnected-(U1-IO36-Pad29)*
X66970000Y-64250000D03*
G04 #@! TO.P,U1,30,IO37*
G04 #@! TO.N,unconnected-(U1-IO37-Pad30)*
X65700000Y-64250000D03*
G04 #@! TO.P,U1,31,IO38*
G04 #@! TO.N,/DISPLAY_IO0*
X64430000Y-64250000D03*
G04 #@! TO.P,U1,32,IO39*
G04 #@! TO.N,/DISPLAY_IO1*
X63160000Y-64250000D03*
G04 #@! TO.P,U1,33,IO40*
G04 #@! TO.N,/PMOD2_IO1*
X61890000Y-64250000D03*
G04 #@! TO.P,U1,34,IO41*
G04 #@! TO.N,/DISPLAY_IO2*
X60620000Y-64250000D03*
G04 #@! TO.P,U1,35,IO42*
G04 #@! TO.N,/PMOD2_IO2*
X59350000Y-64250000D03*
G04 #@! TO.P,U1,36,IO44-RX*
G04 #@! TO.N,/ESP_RX_CP_TX*
X58080000Y-64250000D03*
G04 #@! TO.P,U1,37,IO43-TX*
G04 #@! TO.N,/ESP_TX_CP_RX*
X56810000Y-64250000D03*
G04 #@! TO.P,U1,38,IO02*
G04 #@! TO.N,/PMOD2_IO4*
X55540000Y-64250000D03*
G04 #@! TO.P,U1,39,IO01*
G04 #@! TO.N,/DISPLAY_CS*
X54270000Y-64250000D03*
G04 #@! TO.P,U1,40,GND*
G04 #@! TO.N,GND*
X53000000Y-64250000D03*
D46*
G04 #@! TO.P,U1,41,GND*
X59300000Y-75900000D03*
X60700000Y-75900000D03*
X62100000Y-75900000D03*
X59300000Y-74500000D03*
X60700000Y-74500000D03*
X62100000Y-74500000D03*
X59300000Y-73100000D03*
X60700000Y-73100000D03*
X62100000Y-73100000D03*
G04 #@! TD*
D38*
G04 #@! TO.P,R13,1*
G04 #@! TO.N,Net-(U3-~{RST})*
X97195000Y-70800000D03*
G04 #@! TO.P,R13,2*
G04 #@! TO.N,+3V3*
X97195000Y-69780000D03*
G04 #@! TD*
D23*
G04 #@! TO.P,R36,1*
G04 #@! TO.N,Net-(Q4-B)*
X88247787Y-65897553D03*
G04 #@! TO.P,R36,2*
G04 #@! TO.N,Net-(Q3-E)*
X89267787Y-65897553D03*
G04 #@! TD*
D34*
G04 #@! TO.P,C13,1*
G04 #@! TO.N,+3V3*
X136960000Y-113780000D03*
G04 #@! TO.P,C13,2*
G04 #@! TO.N,GND*
X136000000Y-113780000D03*
G04 #@! TD*
D47*
G04 #@! TO.P,RN5,1,R1.1*
G04 #@! TO.N,Net-(J6-Pin_4)*
X101600000Y-66500000D03*
D48*
G04 #@! TO.P,RN5,2,R2.1*
G04 #@! TO.N,Net-(J6-Pin_5)*
X101600000Y-65700000D03*
G04 #@! TO.P,RN5,3,R3.1*
G04 #@! TO.N,Net-(J6-Pin_6)*
X101600000Y-64900000D03*
D47*
G04 #@! TO.P,RN5,4,R4.1*
G04 #@! TO.N,Net-(J6-Pin_7)*
X101600000Y-64100000D03*
G04 #@! TO.P,RN5,5,R4.2*
G04 #@! TO.N,/DISPLAY_IO3*
X99800000Y-64100000D03*
D48*
G04 #@! TO.P,RN5,6,R3.2*
G04 #@! TO.N,/DISPLAY_IO2*
X99800000Y-64900000D03*
G04 #@! TO.P,RN5,7,R2.2*
G04 #@! TO.N,/DISPLAY_IO1*
X99800000Y-65700000D03*
D47*
G04 #@! TO.P,RN5,8,R1.2*
G04 #@! TO.N,/DISPLAY_IO0*
X99800000Y-66500000D03*
G04 #@! TD*
D39*
G04 #@! TO.P,J9,1,Pin_1*
G04 #@! TO.N,GND*
X136000000Y-116725000D03*
G04 #@! TO.P,J9,2,Pin_2*
G04 #@! TO.N,+3V3*
X137000000Y-116725000D03*
G04 #@! TO.P,J9,3,Pin_3*
G04 #@! TO.N,Net-(J1-Pin_2)*
X138000000Y-116725000D03*
G04 #@! TO.P,J9,4,Pin_4*
G04 #@! TO.N,Net-(J1-Pin_1)*
X139000000Y-116725000D03*
D40*
G04 #@! TO.P,J9,MP,MountPin*
G04 #@! TO.N,GND*
X134700000Y-120600000D03*
X140300000Y-120600000D03*
G04 #@! TD*
D41*
G04 #@! TO.P,C21,1*
G04 #@! TO.N,/DISPLAY_+5V*
X128420000Y-69100000D03*
G04 #@! TO.P,C21,2*
G04 #@! TO.N,GND*
X129380000Y-69100000D03*
G04 #@! TD*
D23*
G04 #@! TO.P,R34,1*
G04 #@! TO.N,Net-(Q4-E)*
X85490000Y-69700000D03*
G04 #@! TO.P,R34,2*
G04 #@! TO.N,Net-(U3-~{CTS})*
X86510000Y-69700000D03*
G04 #@! TD*
D49*
G04 #@! TO.P,C1,1*
G04 #@! TO.N,+3V3*
X60000000Y-86425000D03*
G04 #@! TO.P,C1,2*
G04 #@! TO.N,GND*
X60000000Y-89375000D03*
G04 #@! TD*
D41*
G04 #@! TO.P,C9,1*
G04 #@! TO.N,Net-(J2-Pin_12)*
X98340000Y-106000000D03*
G04 #@! TO.P,C9,2*
G04 #@! TO.N,GND*
X99300000Y-106000000D03*
G04 #@! TD*
D17*
G04 #@! TO.P,R70,1*
G04 #@! TO.N,/CC1*
X138210000Y-75400000D03*
G04 #@! TO.P,R70,2*
G04 #@! TO.N,GND*
X137190000Y-75400000D03*
G04 #@! TD*
D50*
G04 #@! TO.P,J7,1,Pin_1*
G04 #@! TO.N,GND*
X50275000Y-106400000D03*
G04 #@! TO.P,J7,2,Pin_2*
G04 #@! TO.N,+3V3*
X50275000Y-107400000D03*
G04 #@! TO.P,J7,3,Pin_3*
G04 #@! TO.N,Net-(J14-Pin_2)*
X50275000Y-108400000D03*
G04 #@! TO.P,J7,4,Pin_4*
G04 #@! TO.N,Net-(J14-Pin_1)*
X50275000Y-109400000D03*
D51*
G04 #@! TO.P,J7,MP,MountPin*
G04 #@! TO.N,GND*
X46400000Y-105100000D03*
X46400000Y-110700000D03*
G04 #@! TD*
D52*
G04 #@! TO.P,SW2,1,1*
G04 #@! TO.N,/EN*
X116425000Y-118425000D03*
X120575000Y-118425000D03*
G04 #@! TO.P,SW2,2,2*
G04 #@! TO.N,GND*
X116425000Y-120575000D03*
X120550000Y-120575000D03*
G04 #@! TD*
D34*
G04 #@! TO.P,C20,1*
G04 #@! TO.N,+3V3*
X53960000Y-84200000D03*
G04 #@! TO.P,C20,2*
G04 #@! TO.N,GND*
X53000000Y-84200000D03*
G04 #@! TD*
D16*
G04 #@! TO.P,TP2,1,1*
G04 #@! TO.N,+5V*
X123700000Y-78500000D03*
G04 #@! TD*
D53*
G04 #@! TO.P,J12,A1,GND*
G04 #@! TO.N,GND*
X137855000Y-71600000D03*
G04 #@! TO.P,J12,A4,VBUS*
G04 #@! TO.N,+5V*
X137855000Y-70800000D03*
D54*
G04 #@! TO.P,J12,A5,CC1*
G04 #@! TO.N,/CC1*
X137855000Y-69600000D03*
G04 #@! TO.P,J12,A6,D+*
G04 #@! TO.N,/USBMAIN_D+*
X137855000Y-68600000D03*
G04 #@! TO.P,J12,A7,D-*
G04 #@! TO.N,/USBMAIN_D-*
X137855000Y-68100000D03*
G04 #@! TO.P,J12,A8,SBU1*
G04 #@! TO.N,unconnected-(J12-SBU1-PadA8)*
X137855000Y-67100000D03*
D53*
G04 #@! TO.P,J12,A9,VBUS*
G04 #@! TO.N,+5V*
X137855000Y-65900000D03*
G04 #@! TO.P,J12,A12,GND*
G04 #@! TO.N,GND*
X137855000Y-65100000D03*
G04 #@! TO.P,J12,B1,GND*
X137855000Y-65100000D03*
G04 #@! TO.P,J12,B4,VBUS*
G04 #@! TO.N,+5V*
X137855000Y-65900000D03*
D54*
G04 #@! TO.P,J12,B5,CC2*
G04 #@! TO.N,/CC2*
X137855000Y-66600000D03*
G04 #@! TO.P,J12,B6,D+*
G04 #@! TO.N,/USBMAIN_D+*
X137855000Y-67600000D03*
G04 #@! TO.P,J12,B7,D-*
G04 #@! TO.N,/USBMAIN_D-*
X137855000Y-69100000D03*
G04 #@! TO.P,J12,B8,SBU2*
G04 #@! TO.N,unconnected-(J12-SBU2-PadB8)*
X137855000Y-70100000D03*
D53*
G04 #@! TO.P,J12,B9,VBUS*
G04 #@! TO.N,+5V*
X137855000Y-70800000D03*
G04 #@! TO.P,J12,B12,GND*
G04 #@! TO.N,GND*
X137855000Y-71600000D03*
D55*
G04 #@! TO.P,J12,S1,SHIELD*
X138770000Y-72670000D03*
D56*
X142950000Y-72670000D03*
D55*
X138770000Y-64030000D03*
D56*
X142950000Y-64030000D03*
G04 #@! TD*
D41*
G04 #@! TO.P,C14,1*
G04 #@! TO.N,+3V3*
X92920000Y-75200000D03*
G04 #@! TO.P,C14,2*
G04 #@! TO.N,GND*
X93880000Y-75200000D03*
G04 #@! TD*
D52*
G04 #@! TO.P,SW3,1,1*
G04 #@! TO.N,/GPIO0{slash}BOOT*
X87125000Y-118425000D03*
X91275000Y-118425000D03*
G04 #@! TO.P,SW3,2,2*
G04 #@! TO.N,GND*
X87125000Y-120575000D03*
X91250000Y-120575000D03*
G04 #@! TD*
D32*
G04 #@! TO.P,C10,1*
G04 #@! TO.N,+5V*
X79200000Y-113720000D03*
G04 #@! TO.P,C10,2*
G04 #@! TO.N,GND*
X79200000Y-114680000D03*
G04 #@! TD*
D57*
G04 #@! TO.P,C19,1*
G04 #@! TO.N,+5V*
X135500000Y-66080000D03*
G04 #@! TO.P,C19,2*
G04 #@! TO.N,GND*
X135500000Y-65120000D03*
G04 #@! TD*
D17*
G04 #@! TO.P,R18,1*
G04 #@! TO.N,Net-(U3-RXD)*
X86510000Y-71300000D03*
G04 #@! TO.P,R18,2*
G04 #@! TO.N,/ESP_TX_CP_RX*
X85490000Y-71300000D03*
G04 #@! TD*
D32*
G04 #@! TO.P,C16,1*
G04 #@! TO.N,+5V*
X83600000Y-118420000D03*
G04 #@! TO.P,C16,2*
G04 #@! TO.N,GND*
X83600000Y-119380000D03*
G04 #@! TD*
D17*
G04 #@! TO.P,R11,1*
G04 #@! TO.N,Net-(U3-VBUS)*
X98010000Y-73500000D03*
G04 #@! TO.P,R11,2*
G04 #@! TO.N,GND*
X96990000Y-73500000D03*
G04 #@! TD*
G04 #@! TO.P,R14,1*
G04 #@! TO.N,GND*
X74510000Y-80100000D03*
G04 #@! TO.P,R14,2*
G04 #@! TO.N,/DISPLAY_CLK*
X73490000Y-80100000D03*
G04 #@! TD*
D31*
G04 #@! TO.P,FID2,*
G04 #@! TO.N,*
X136500000Y-60500000D03*
G04 #@! TD*
D32*
G04 #@! TO.P,C18,1*
G04 #@! TO.N,/GPIO0{slash}BOOT*
X75700000Y-64220000D03*
G04 #@! TO.P,C18,2*
G04 #@! TO.N,GND*
X75700000Y-65180000D03*
G04 #@! TD*
D43*
G04 #@! TO.P,D8,1,A1*
G04 #@! TO.N,/USBAUX_D+*
X137500000Y-79950000D03*
G04 #@! TO.P,D8,2,A2*
G04 #@! TO.N,GND*
X137500000Y-78550000D03*
G04 #@! TD*
D37*
G04 #@! TO.P,C24,1*
G04 #@! TO.N,+3V3*
X92375000Y-77350000D03*
G04 #@! TO.P,C24,2*
G04 #@! TO.N,GND*
X95325000Y-77350000D03*
G04 #@! TD*
D57*
G04 #@! TO.P,C11,1*
G04 #@! TO.N,+3V3*
X53000000Y-107380000D03*
G04 #@! TO.P,C11,2*
G04 #@! TO.N,GND*
X53000000Y-106420000D03*
G04 #@! TD*
D38*
G04 #@! TO.P,R37,1*
G04 #@! TO.N,Net-(J14-Pin_2)*
X54900000Y-108030000D03*
G04 #@! TO.P,R37,2*
G04 #@! TO.N,+3V3*
X54900000Y-107010000D03*
G04 #@! TD*
D25*
G04 #@! TO.P,RN3,1,R1.1*
G04 #@! TO.N,Net-(J2-Pin_8)*
X107420000Y-104400000D03*
D26*
G04 #@! TO.P,RN3,2,R2.1*
G04 #@! TO.N,Net-(J2-Pin_2)*
X108220000Y-104400000D03*
G04 #@! TO.P,RN3,3,R3.1*
G04 #@! TO.N,Net-(J2-Pin_7)*
X109020000Y-104400000D03*
D25*
G04 #@! TO.P,RN3,4,R4.1*
G04 #@! TO.N,Net-(J2-Pin_1)*
X109820000Y-104400000D03*
G04 #@! TO.P,RN3,5,R4.2*
G04 #@! TO.N,/PMOD0_IO1*
X109820000Y-102600000D03*
D26*
G04 #@! TO.P,RN3,6,R3.2*
G04 #@! TO.N,/PMOD0_IO7*
X109020000Y-102600000D03*
G04 #@! TO.P,RN3,7,R2.2*
G04 #@! TO.N,/PMOD0_IO2*
X108220000Y-102600000D03*
D25*
G04 #@! TO.P,RN3,8,R1.2*
G04 #@! TO.N,/PMOD0_IO8*
X107420000Y-102600000D03*
G04 #@! TD*
D16*
G04 #@! TO.P,JP1,1,A*
G04 #@! TO.N,+3V3*
X94920000Y-102100000D03*
D15*
G04 #@! TO.P,JP1,2,C*
G04 #@! TO.N,Net-(J2-Pin_12)*
X97460000Y-102100000D03*
G04 #@! TO.P,JP1,3,B*
G04 #@! TO.N,+5V*
X100000000Y-102100000D03*
G04 #@! TD*
D16*
G04 #@! TO.P,JP2,1,A*
G04 #@! TO.N,+3V3*
X63600000Y-89520000D03*
D15*
G04 #@! TO.P,JP2,2,C*
G04 #@! TO.N,Net-(J3-Pin_6)*
X63600000Y-92060000D03*
G04 #@! TO.P,JP2,3,B*
G04 #@! TO.N,+5V*
X63600000Y-94600000D03*
G04 #@! TD*
D37*
G04 #@! TO.P,C4,1*
G04 #@! TO.N,+5V*
X131225000Y-74500000D03*
G04 #@! TO.P,C4,2*
G04 #@! TO.N,GND*
X134175000Y-74500000D03*
G04 #@! TD*
D23*
G04 #@! TO.P,R8,1*
G04 #@! TO.N,Net-(J14-Pin_2)*
X67190000Y-104700000D03*
G04 #@! TO.P,R8,2*
G04 #@! TO.N,/I2CA_SDA*
X68210000Y-104700000D03*
G04 #@! TD*
D33*
G04 #@! TO.P,D6,1,A1*
G04 #@! TO.N,/USBMAIN_D-*
X135000000Y-70350000D03*
G04 #@! TO.P,D6,2,A2*
G04 #@! TO.N,GND*
X135000000Y-71750000D03*
G04 #@! TD*
D17*
G04 #@! TO.P,R16,1*
G04 #@! TO.N,GND*
X74510000Y-78700000D03*
G04 #@! TO.P,R16,2*
G04 #@! TO.N,Net-(U1-IO46-PD)*
X73490000Y-78700000D03*
G04 #@! TD*
G04 #@! TO.P,R6,1*
G04 #@! TO.N,Net-(J1-Pin_2)*
X120660000Y-105500000D03*
G04 #@! TO.P,R6,2*
G04 #@! TO.N,/I2CB_SDA*
X119640000Y-105500000D03*
G04 #@! TD*
D57*
G04 #@! TO.P,C22,1*
G04 #@! TO.N,Net-(J4-Pin_6)*
X131500000Y-99580000D03*
G04 #@! TO.P,C22,2*
G04 #@! TO.N,GND*
X131500000Y-98620000D03*
G04 #@! TD*
D38*
G04 #@! TO.P,R19,1*
G04 #@! TO.N,/DISPLAY_CS*
X96800000Y-61410000D03*
G04 #@! TO.P,R19,2*
G04 #@! TO.N,+3V3*
X96800000Y-60390000D03*
G04 #@! TD*
D47*
G04 #@! TO.P,RN2,1,R1.1*
G04 #@! TO.N,Net-(J4-Pin_4)*
X129900000Y-92200000D03*
D48*
G04 #@! TO.P,RN2,2,R2.1*
G04 #@! TO.N,Net-(J4-Pin_3)*
X129900000Y-91400000D03*
G04 #@! TO.P,RN2,3,R3.1*
G04 #@! TO.N,Net-(J4-Pin_2)*
X129900000Y-90600000D03*
D47*
G04 #@! TO.P,RN2,4,R4.1*
G04 #@! TO.N,Net-(J4-Pin_1)*
X129900000Y-89800000D03*
G04 #@! TO.P,RN2,5,R4.2*
G04 #@! TO.N,/PMOD2_IO1*
X128100000Y-89800000D03*
D48*
G04 #@! TO.P,RN2,6,R3.2*
G04 #@! TO.N,/PMOD2_IO2*
X128100000Y-90600000D03*
G04 #@! TO.P,RN2,7,R2.2*
G04 #@! TO.N,/PMOD2_IO3*
X128100000Y-91400000D03*
D47*
G04 #@! TO.P,RN2,8,R1.2*
G04 #@! TO.N,/PMOD2_IO4*
X128100000Y-92200000D03*
G04 #@! TD*
D16*
G04 #@! TO.P,TP3,1,1*
G04 #@! TO.N,+3V3*
X92100000Y-88800000D03*
G04 #@! TD*
D47*
G04 #@! TO.P,RN1,1,R1.1*
G04 #@! TO.N,Net-(J3-Pin_4)*
X58400000Y-97600000D03*
D48*
G04 #@! TO.P,RN1,2,R2.1*
G04 #@! TO.N,Net-(J3-Pin_3)*
X58400000Y-98400000D03*
G04 #@! TO.P,RN1,3,R3.1*
G04 #@! TO.N,Net-(J3-Pin_2)*
X58400000Y-99200000D03*
D47*
G04 #@! TO.P,RN1,4,R4.1*
G04 #@! TO.N,Net-(J3-Pin_1)*
X58400000Y-100000000D03*
G04 #@! TO.P,RN1,5,R4.2*
G04 #@! TO.N,/PMOD1_IO1*
X60200000Y-100000000D03*
D48*
G04 #@! TO.P,RN1,6,R3.2*
G04 #@! TO.N,/PMOD1_IO2*
X60200000Y-99200000D03*
G04 #@! TO.P,RN1,7,R2.2*
G04 #@! TO.N,/PMOD1_IO3*
X60200000Y-98400000D03*
D47*
G04 #@! TO.P,RN1,8,R1.2*
G04 #@! TO.N,/PMOD1_IO4*
X60200000Y-97600000D03*
G04 #@! TD*
D17*
G04 #@! TO.P,R69,1*
G04 #@! TO.N,/CC2*
X138210000Y-76700000D03*
G04 #@! TO.P,R69,2*
G04 #@! TO.N,GND*
X137190000Y-76700000D03*
G04 #@! TD*
D58*
G04 #@! TO.P,R3,1*
G04 #@! TO.N,Net-(C3-Pad1)*
X123887500Y-70562500D03*
G04 #@! TO.P,R3,2*
G04 #@! TO.N,/DISPLAY_+5V*
X125712500Y-70562500D03*
G04 #@! TD*
D47*
G04 #@! TO.P,RN6,1,R1.1*
G04 #@! TO.N,unconnected-(RN6A-R1.1-Pad1)*
X101600000Y-62250000D03*
D48*
G04 #@! TO.P,RN6,2,R2.1*
G04 #@! TO.N,Net-(J6-Pin_9)*
X101600000Y-61450000D03*
G04 #@! TO.P,RN6,3,R3.1*
G04 #@! TO.N,Net-(J6-Pin_10)*
X101600000Y-60650000D03*
D47*
G04 #@! TO.P,RN6,4,R4.1*
X101600000Y-59850000D03*
G04 #@! TO.P,RN6,5,R4.2*
G04 #@! TO.N,/DISPLAY_CLK*
X99800000Y-59850000D03*
D48*
G04 #@! TO.P,RN6,6,R3.2*
X99800000Y-60650000D03*
G04 #@! TO.P,RN6,7,R2.2*
G04 #@! TO.N,/DISPLAY_CS*
X99800000Y-61450000D03*
D47*
G04 #@! TO.P,RN6,8,R1.2*
G04 #@! TO.N,unconnected-(RN6A-R1.2-Pad8)*
X99800000Y-62250000D03*
G04 #@! TD*
D17*
G04 #@! TO.P,R7,1*
G04 #@! TO.N,/I2CA_SCL*
X68210000Y-106100000D03*
G04 #@! TO.P,R7,2*
G04 #@! TO.N,Net-(J14-Pin_1)*
X67190000Y-106100000D03*
G04 #@! TD*
D59*
G04 #@! TO.P,U3,1,~{DCD}*
G04 #@! TO.N,unconnected-(U3-~{DCD}-Pad1)*
X89900000Y-73662500D03*
G04 #@! TO.P,U3,2,~{RI}/CLK*
G04 #@! TO.N,unconnected-(U3-~{RI}{slash}CLK-Pad2)*
X90400000Y-73662500D03*
G04 #@! TO.P,U3,3,GND*
G04 #@! TO.N,GND*
X90900000Y-73662500D03*
G04 #@! TO.P,U3,4,D+*
G04 #@! TO.N,/USBAUX_D+*
X91400000Y-73662500D03*
G04 #@! TO.P,U3,5,D-*
G04 #@! TO.N,/USBAUX_D-*
X91900000Y-73662500D03*
G04 #@! TO.P,U3,6,VDD*
G04 #@! TO.N,+3V3*
X92400000Y-73662500D03*
G04 #@! TO.P,U3,7,VREGIN*
X92900000Y-73662500D03*
D60*
G04 #@! TO.P,U3,8,VBUS*
G04 #@! TO.N,Net-(U3-VBUS)*
X93850000Y-72712500D03*
G04 #@! TO.P,U3,9,~{RST}*
G04 #@! TO.N,Net-(U3-~{RST})*
X93850000Y-72212500D03*
G04 #@! TO.P,U3,10,NC*
G04 #@! TO.N,unconnected-(U3-NC-Pad10)*
X93850000Y-71712500D03*
G04 #@! TO.P,U3,11,~{SUSPEND}*
G04 #@! TO.N,unconnected-(U3-~{SUSPEND}-Pad11)*
X93850000Y-71212500D03*
G04 #@! TO.P,U3,12,SUSPEND*
G04 #@! TO.N,unconnected-(U3-SUSPEND-Pad12)*
X93850000Y-70712500D03*
G04 #@! TO.P,U3,13,CHREN*
G04 #@! TO.N,unconnected-(U3-CHREN-Pad13)*
X93850000Y-70212500D03*
G04 #@! TO.P,U3,14,CHR1*
G04 #@! TO.N,unconnected-(U3-CHR1-Pad14)*
X93850000Y-69712500D03*
D59*
G04 #@! TO.P,U3,15,CHR0*
G04 #@! TO.N,unconnected-(U3-CHR0-Pad15)*
X92900000Y-68762500D03*
G04 #@! TO.P,U3,16,~{WAKEUP}/GPIO.3*
G04 #@! TO.N,unconnected-(U3-~{WAKEUP}{slash}GPIO.3-Pad16)*
X92400000Y-68762500D03*
G04 #@! TO.P,U3,17,RS485/GPIO.2*
G04 #@! TO.N,unconnected-(U3-RS485{slash}GPIO.2-Pad17)*
X91900000Y-68762500D03*
G04 #@! TO.P,U3,18,~{RXT}/GPIO.1*
G04 #@! TO.N,unconnected-(U3-~{RXT}{slash}GPIO.1-Pad18)*
X91400000Y-68762500D03*
G04 #@! TO.P,U3,19,~{TXT}/GPIO.0*
G04 #@! TO.N,unconnected-(U3-~{TXT}{slash}GPIO.0-Pad19)*
X90900000Y-68762500D03*
G04 #@! TO.P,U3,20,GPIO.6*
G04 #@! TO.N,unconnected-(U3-GPIO.6-Pad20)*
X90400000Y-68762500D03*
G04 #@! TO.P,U3,21,GPIO.5*
G04 #@! TO.N,unconnected-(U3-GPIO.5-Pad21)*
X89900000Y-68762500D03*
D60*
G04 #@! TO.P,U3,22,GPIO.4*
G04 #@! TO.N,unconnected-(U3-GPIO.4-Pad22)*
X88950000Y-69712500D03*
G04 #@! TO.P,U3,23,~{CTS}*
G04 #@! TO.N,Net-(U3-~{CTS})*
X88950000Y-70212500D03*
G04 #@! TO.P,U3,24,~{RTS}*
G04 #@! TO.N,Net-(Q3-E)*
X88950000Y-70712500D03*
G04 #@! TO.P,U3,25,RXD*
G04 #@! TO.N,Net-(U3-RXD)*
X88950000Y-71212500D03*
G04 #@! TO.P,U3,26,TXD*
G04 #@! TO.N,Net-(U3-TXD)*
X88950000Y-71712500D03*
G04 #@! TO.P,U3,27,~{DSR}*
G04 #@! TO.N,unconnected-(U3-~{DSR}-Pad27)*
X88950000Y-72212500D03*
G04 #@! TO.P,U3,28,~{DTR}*
G04 #@! TO.N,Net-(Q4-E)*
X88950000Y-72712500D03*
D61*
G04 #@! TO.P,U3,29,GND*
G04 #@! TO.N,GND*
X91400000Y-71212500D03*
G04 #@! TD*
D17*
G04 #@! TO.P,R17,1*
G04 #@! TO.N,Net-(U3-TXD)*
X86510000Y-73000000D03*
G04 #@! TO.P,R17,2*
G04 #@! TO.N,/ESP_RX_CP_TX*
X85490000Y-73000000D03*
G04 #@! TD*
D62*
G04 #@! TO.P,Q4,1,B*
G04 #@! TO.N,Net-(Q4-B)*
X86295287Y-65947553D03*
G04 #@! TO.P,Q4,2,E*
G04 #@! TO.N,Net-(Q4-E)*
X86295287Y-64047553D03*
G04 #@! TO.P,Q4,3,C*
G04 #@! TO.N,/GPIO0{slash}BOOT*
X84420287Y-64997553D03*
G04 #@! TD*
D17*
G04 #@! TO.P,R12,1*
G04 #@! TO.N,+5V*
X100610000Y-73500000D03*
G04 #@! TO.P,R12,2*
G04 #@! TO.N,Net-(U3-VBUS)*
X99590000Y-73500000D03*
G04 #@! TD*
D38*
G04 #@! TO.P,R10,1*
G04 #@! TO.N,Net-(U3-~{RST})*
X95595000Y-70790000D03*
G04 #@! TO.P,R10,2*
G04 #@! TO.N,+3V3*
X95595000Y-69770000D03*
G04 #@! TD*
D63*
G04 #@! TO.P,C2,1*
G04 #@! TO.N,+5V*
X119800000Y-78500000D03*
G04 #@! TO.P,C2,2*
G04 #@! TO.N,GND*
X114200000Y-78500000D03*
G04 #@! TD*
D29*
G04 #@! TO.P,D2,1,K*
G04 #@! TO.N,GND*
X91487500Y-92000000D03*
G04 #@! TO.P,D2,2,A*
G04 #@! TO.N,Net-(D2-A)*
X89912500Y-92000000D03*
G04 #@! TD*
D41*
G04 #@! TO.P,C8,1*
G04 #@! TO.N,+3V3*
X89840000Y-97475000D03*
G04 #@! TO.P,C8,2*
G04 #@! TO.N,GND*
X90800000Y-97475000D03*
G04 #@! TD*
D23*
G04 #@! TO.P,R4,1*
G04 #@! TO.N,/I2CB_SCL*
X119590000Y-104000000D03*
G04 #@! TO.P,R4,2*
G04 #@! TO.N,Net-(J1-Pin_1)*
X120610000Y-104000000D03*
G04 #@! TD*
D17*
G04 #@! TO.P,R35,1*
G04 #@! TO.N,Net-(Q3-B)*
X89267787Y-63997553D03*
G04 #@! TO.P,R35,2*
G04 #@! TO.N,Net-(Q4-E)*
X88247787Y-63997553D03*
G04 #@! TD*
D38*
G04 #@! TO.P,R2,1*
G04 #@! TO.N,+3V3*
X95595000Y-68190000D03*
G04 #@! TO.P,R2,2*
G04 #@! TO.N,/EN*
X95595000Y-67170000D03*
G04 #@! TD*
D16*
G04 #@! TO.P,TP1,1,1*
G04 #@! TO.N,GND*
X110300000Y-78500000D03*
G04 #@! TD*
D64*
G04 #@! TO.N,+3V3*
X78600000Y-105800000D03*
X135780000Y-108380000D03*
X91550000Y-107550000D03*
X92512500Y-76012500D03*
X58750000Y-86425000D03*
X96800000Y-59700000D03*
X53700000Y-107380000D03*
X95595000Y-68980000D03*
X75850000Y-92550000D03*
X137000000Y-113080000D03*
X52280000Y-113400000D03*
X135200000Y-103400000D03*
X75800000Y-90900000D03*
X90100000Y-77800000D03*
X53900000Y-110500000D03*
X61300000Y-86425000D03*
X77320000Y-105820000D03*
X91500000Y-106150000D03*
G04 #@! TO.N,+5V*
X131151041Y-71151041D03*
X136500000Y-66000000D03*
X139300000Y-83100000D03*
X139300000Y-82300000D03*
X119700000Y-79700000D03*
X129750000Y-80000000D03*
X86200000Y-93900000D03*
X135900000Y-70800000D03*
X134800000Y-66080000D03*
X131151041Y-73000000D03*
X85100000Y-99925000D03*
X136700000Y-70800000D03*
X82199293Y-113797765D03*
G04 #@! TO.N,/SMART_LEDS*
X72436010Y-67450000D03*
X74325000Y-89625000D03*
G04 #@! TO.N,/PMOD2_IO1*
X61900000Y-62600000D03*
X75600000Y-68600000D03*
G04 #@! TO.N,/PMOD2_IO2*
X59600000Y-62825000D03*
X73840380Y-67300000D03*
G04 #@! TO.N,/PMOD2_IO4*
X72909018Y-69228257D03*
X55540000Y-62600000D03*
G04 #@! TO.N,/ESP_TX_CP_RX*
X56950000Y-62650000D03*
X84800000Y-70900000D03*
G04 #@! TO.N,/ESP_RX_CP_TX*
X58300000Y-62200000D03*
X84750000Y-72650000D03*
G04 #@! TO.N,Net-(Q3-E)*
X87300000Y-68500000D03*
X87440380Y-70440380D03*
G04 #@! TO.N,GND*
X125000000Y-121000000D03*
X135400000Y-113800000D03*
X57800000Y-84700000D03*
X90400000Y-70200000D03*
X82500000Y-57000000D03*
X58500000Y-74500000D03*
X75700000Y-66000000D03*
X92075000Y-99925000D03*
X133500000Y-112000000D03*
X92400000Y-70200000D03*
X83250000Y-93900000D03*
X53000000Y-80600000D03*
X79200000Y-115400000D03*
X52300000Y-84200000D03*
X58800000Y-89375000D03*
X122500000Y-57000000D03*
X93900000Y-74225000D03*
X130700000Y-98620000D03*
X100050000Y-106100000D03*
X139400000Y-120600000D03*
X46400000Y-106100000D03*
X135700000Y-67350000D03*
X98525000Y-67300000D03*
X139250000Y-79150000D03*
X52500000Y-57000000D03*
X144000000Y-87500000D03*
X97600000Y-60800000D03*
X134075000Y-73200000D03*
X112500000Y-57000000D03*
X45800000Y-94800000D03*
X53000000Y-65400000D03*
X137500000Y-77800000D03*
X102500000Y-57000000D03*
X115350000Y-120650000D03*
X144000000Y-98000000D03*
X92895000Y-93895000D03*
X53000000Y-73000000D03*
X136800000Y-83100000D03*
X91600000Y-97475000D03*
X46400000Y-109700000D03*
X53000000Y-105800000D03*
X70800000Y-83900000D03*
X114300000Y-79700000D03*
X126600000Y-74500000D03*
X134050000Y-80050000D03*
X53000000Y-63100000D03*
X61300000Y-89375000D03*
X60700000Y-72300000D03*
X92500000Y-57000000D03*
X72500000Y-57000000D03*
X121700000Y-120600000D03*
X83600000Y-120100000D03*
X143600000Y-106000000D03*
X78600000Y-62975000D03*
X92300000Y-120600000D03*
X130000000Y-69100000D03*
X126600000Y-71900000D03*
X54600000Y-120600000D03*
X80250000Y-120350000D03*
X109425000Y-69400000D03*
X71000000Y-89600000D03*
X135600000Y-120600000D03*
X50700000Y-114100000D03*
X64600000Y-121000000D03*
X90400000Y-72200000D03*
X84300000Y-97475000D03*
X92400000Y-72200000D03*
X136300000Y-65100000D03*
X69150000Y-65900000D03*
X132500000Y-57000000D03*
X105000000Y-121000000D03*
X139250000Y-80000000D03*
X60700000Y-76700000D03*
X62900000Y-74500000D03*
X51000000Y-120600000D03*
X85900000Y-120600000D03*
X135900000Y-71650000D03*
X89150000Y-62950000D03*
X62500000Y-57000000D03*
X94400000Y-77300000D03*
X60100000Y-62100000D03*
X143600000Y-109600000D03*
X134075000Y-75700000D03*
X75300000Y-80100000D03*
X68850000Y-80350000D03*
X137000000Y-109900000D03*
G04 #@! TO.N,/EN*
X95595000Y-66380000D03*
X55540000Y-83040000D03*
X98500000Y-82100000D03*
X93100000Y-63700000D03*
G04 #@! TO.N,/GPIO0{slash}BOOT*
X75300000Y-89600000D03*
X85500000Y-77000000D03*
G04 #@! TO.N,/USBMAIN_D-*
X131351000Y-69500000D03*
X71603461Y-85150000D03*
G04 #@! TO.N,/USBMAIN_D+*
X71599539Y-84300006D03*
X131100000Y-68700000D03*
G04 #@! TO.N,/USBAUX_D+*
X91200000Y-74650000D03*
X94945000Y-74592256D03*
G04 #@! TO.N,/USBAUX_D-*
X92077298Y-74677298D03*
X94940670Y-75490090D03*
G04 #@! TO.N,/CC2*
X139200000Y-66600000D03*
X139100000Y-76400000D03*
G04 #@! TO.N,/CC1*
X139182120Y-69680299D03*
X139000000Y-75400000D03*
G04 #@! TO.N,/DISPLAY_IO3*
X72600000Y-65400000D03*
X98500000Y-63100000D03*
G04 #@! TO.N,/DISPLAY_CLK*
X72700000Y-80000000D03*
X98400000Y-60550000D03*
G04 #@! TO.N,/I2CA_SCL*
X72800000Y-87000000D03*
X72800000Y-89600000D03*
G04 #@! TO.N,/I2CA_SDA*
X72000000Y-86600000D03*
X71900000Y-89600000D03*
G04 #@! TD*
D65*
G04 #@! TO.N,+3V3*
X137000000Y-108320000D02*
X135840000Y-108320000D01*
X92375000Y-76150000D02*
X92375000Y-77350000D01*
X53960000Y-84200000D02*
X53960000Y-83140000D01*
X91000000Y-77800000D02*
X90100000Y-77800000D01*
D66*
X56425000Y-86425000D02*
X54700000Y-84700000D01*
D67*
X54070000Y-107010000D02*
X53700000Y-107380000D01*
D66*
X54700000Y-84700000D02*
X54700000Y-84299998D01*
X61300000Y-86425000D02*
X60000000Y-86425000D01*
D67*
X53900000Y-110500000D02*
X53910000Y-110510000D01*
D65*
X52300000Y-114120000D02*
X52280000Y-114100000D01*
X137000000Y-113820000D02*
X136960000Y-113780000D01*
D67*
X95595000Y-68980000D02*
X95595000Y-68190000D01*
D65*
X53700000Y-107380000D02*
X53000000Y-107380000D01*
D67*
X92920000Y-74620000D02*
X92900000Y-74600000D01*
D65*
X135200000Y-103400000D02*
X135200000Y-103990000D01*
X54600000Y-84200000D02*
X54700000Y-84299998D01*
X136980000Y-113780000D02*
X136980000Y-113100000D01*
D66*
X58750000Y-86425000D02*
X56425000Y-86425000D01*
D67*
X92400000Y-74050000D02*
X92920000Y-74570000D01*
D65*
X136980000Y-113100000D02*
X137000000Y-113080000D01*
D67*
X86510000Y-75100000D02*
X87400000Y-75100000D01*
D65*
X135840000Y-108320000D02*
X135780000Y-108380000D01*
X50295000Y-107380000D02*
X50275000Y-107400000D01*
D67*
X87400000Y-75100000D02*
X90100000Y-77800000D01*
D66*
X58750000Y-86425000D02*
X60000000Y-86425000D01*
D65*
X92920000Y-75605000D02*
X92375000Y-76150000D01*
D67*
X92920000Y-74570000D02*
X92920000Y-74620000D01*
X92400000Y-73662500D02*
X92400000Y-74050000D01*
D65*
X139725000Y-108300000D02*
X137020000Y-108300000D01*
D67*
X54900000Y-107010000D02*
X54070000Y-107010000D01*
D68*
X88500000Y-106250000D02*
X88525000Y-106225000D01*
D67*
X135200000Y-107800000D02*
X135780000Y-108380000D01*
X96800000Y-59700000D02*
X96800000Y-60390000D01*
D65*
X52300000Y-116725000D02*
X52300000Y-114120000D01*
X137000000Y-116725000D02*
X137000000Y-113820000D01*
X92920000Y-75200000D02*
X92920000Y-75605000D01*
X91450000Y-77350000D02*
X91000000Y-77800000D01*
X137000000Y-113800000D02*
X136980000Y-113780000D01*
D67*
X97195000Y-69780000D02*
X97195000Y-69180000D01*
D65*
X53960000Y-83140000D02*
X54270000Y-82830000D01*
X92375000Y-77350000D02*
X91450000Y-77350000D01*
D67*
X53910000Y-110510000D02*
X54900000Y-110510000D01*
X95595000Y-68980000D02*
X95595000Y-69770000D01*
X96995000Y-68980000D02*
X97195000Y-69180000D01*
D65*
X137020000Y-108300000D02*
X137000000Y-108320000D01*
D67*
X135200000Y-107110000D02*
X135200000Y-107800000D01*
D65*
X54270000Y-82830000D02*
X54270000Y-81750000D01*
D67*
X92920000Y-74620000D02*
X92920000Y-75200000D01*
X95595000Y-68980000D02*
X96995000Y-68980000D01*
X92900000Y-74600000D02*
X92900000Y-73662500D01*
D65*
X53960000Y-84200000D02*
X54600000Y-84200000D01*
X52280000Y-113400000D02*
X52280000Y-114100000D01*
X53000000Y-107380000D02*
X50295000Y-107380000D01*
D69*
G04 #@! TO.N,+5V*
X129750000Y-80000000D02*
X129750000Y-78400000D01*
D65*
X79200000Y-113720000D02*
X75280000Y-113720000D01*
X86005000Y-97475000D02*
X86005000Y-96600000D01*
D68*
X123700000Y-78500000D02*
X119700000Y-78500000D01*
D67*
X118600000Y-80800000D02*
X119700000Y-79700000D01*
X129410000Y-71840000D02*
X129410000Y-72400000D01*
D65*
X81870000Y-118440000D02*
X81830000Y-118400000D01*
D69*
X131151041Y-74426041D02*
X131151041Y-73000000D01*
D65*
X86200000Y-94325000D02*
X86200000Y-93900000D01*
D66*
X136700000Y-70800000D02*
X135900000Y-70800000D01*
D69*
X131001041Y-70800001D02*
X130801040Y-70600000D01*
D65*
X83600000Y-118420000D02*
X83580000Y-118440000D01*
D69*
X131225000Y-75575000D02*
X131225000Y-74700000D01*
D65*
X85100000Y-99925000D02*
X86225000Y-99925000D01*
X139300000Y-82300000D02*
X139300000Y-83100000D01*
X139800000Y-82200000D02*
X139400000Y-82200000D01*
X82199293Y-113797765D02*
X83600000Y-115198472D01*
D66*
X137855000Y-65900000D02*
X137805000Y-65950000D01*
X137805000Y-65950000D02*
X136550000Y-65950000D01*
D67*
X129987500Y-71262500D02*
X129410000Y-71840000D01*
X100610000Y-73500000D02*
X101600000Y-73500000D01*
D68*
X129650000Y-78500000D02*
X129750000Y-78400000D01*
D69*
X129750000Y-77050000D02*
X131225000Y-75575000D01*
D67*
X108900000Y-80800000D02*
X118600000Y-80800000D01*
D65*
X86005000Y-96600000D02*
X86005000Y-95420000D01*
X136500000Y-66000000D02*
X136420000Y-66080000D01*
D69*
X131151041Y-71151041D02*
X131151041Y-73000000D01*
X131151041Y-70952082D02*
X131001041Y-70802082D01*
D65*
X83580000Y-118440000D02*
X81870000Y-118440000D01*
D67*
X101600000Y-73500000D02*
X108900000Y-80800000D01*
D69*
X131225000Y-74500000D02*
X131151041Y-74426041D01*
D68*
X123700000Y-78500000D02*
X129650000Y-78500000D01*
D65*
X139300000Y-82700000D02*
X139300000Y-83100000D01*
X86200000Y-95225000D02*
X86200000Y-94325000D01*
D68*
X119700000Y-78500000D02*
X119700000Y-79700000D01*
D65*
X83600000Y-115198472D02*
X83600000Y-118420000D01*
D69*
X130801040Y-70600000D02*
X129987500Y-70600000D01*
D65*
X86005000Y-99705000D02*
X86225000Y-99925000D01*
X86005000Y-95420000D02*
X86200000Y-95225000D01*
X136420000Y-66080000D02*
X135500000Y-66080000D01*
X75280000Y-113720000D02*
X75000000Y-114000000D01*
D69*
X129750000Y-78400000D02*
X129750000Y-77050000D01*
D65*
X135500000Y-66080000D02*
X134800000Y-66080000D01*
D67*
X129987500Y-70600000D02*
X129987500Y-71262500D01*
D65*
X139400000Y-82200000D02*
X139300000Y-82300000D01*
X140837500Y-82200000D02*
X139800000Y-82200000D01*
D66*
X136550000Y-65950000D02*
X136500000Y-66000000D01*
D69*
X131151041Y-71151041D02*
X131151041Y-70952082D01*
X131001041Y-70802082D02*
X131001041Y-70800001D01*
D65*
X86005000Y-97475000D02*
X86005000Y-99705000D01*
X139800000Y-82200000D02*
X139300000Y-82700000D01*
D66*
X137855000Y-70800000D02*
X136700000Y-70800000D01*
D67*
G04 #@! TO.N,Net-(D2-A)*
X86910000Y-91950000D02*
X89862500Y-91950000D01*
X89862500Y-91950000D02*
X89912500Y-92000000D01*
D65*
G04 #@! TO.N,Net-(J2-Pin_12)*
X98340000Y-106780000D02*
X97500000Y-107620000D01*
X97460000Y-102100000D02*
X97460000Y-103840000D01*
X98340000Y-104720000D02*
X98340000Y-106000000D01*
X98340000Y-106000000D02*
X98340000Y-106780000D01*
X97500000Y-110000000D02*
X97500000Y-112540000D01*
X97460000Y-103840000D02*
X98340000Y-104720000D01*
X97500000Y-107620000D02*
X97500000Y-110000000D01*
X97500000Y-112520000D02*
X97520000Y-112540000D01*
D67*
G04 #@! TO.N,Net-(J2-Pin_2)*
X107670176Y-108129824D02*
X108220000Y-107580000D01*
X107670176Y-109490176D02*
X107670176Y-108129824D01*
X108220000Y-107580000D02*
X108220000Y-104400000D01*
X107660000Y-110000000D02*
X107680000Y-109980000D01*
X107680000Y-109980000D02*
X107680000Y-109500000D01*
X107680000Y-109500000D02*
X107670176Y-109490176D01*
G04 #@! TO.N,Net-(J2-Pin_1)*
X110210176Y-109490176D02*
X110210176Y-108990176D01*
X110220000Y-109500000D02*
X110210176Y-109490176D01*
X109820000Y-108600000D02*
X109820000Y-104400000D01*
X110220000Y-109980000D02*
X110220000Y-109500000D01*
X110200000Y-110000000D02*
X110220000Y-109980000D01*
X110210176Y-108990176D02*
X109820000Y-108600000D01*
G04 #@! TO.N,Net-(J3-Pin_3)*
X58400000Y-98400000D02*
X57300000Y-98400000D01*
X54400000Y-95500000D02*
X54400000Y-95295000D01*
X57300000Y-98400000D02*
X54400000Y-95500000D01*
G04 #@! TO.N,Net-(J3-Pin_1)*
X55200000Y-100375000D02*
X54400000Y-100375000D01*
X58400000Y-100000000D02*
X55575000Y-100000000D01*
X55575000Y-100000000D02*
X55200000Y-100375000D01*
G04 #@! TO.N,Net-(J3-Pin_2)*
X56565000Y-99200000D02*
X58400000Y-99200000D01*
X54400000Y-97835000D02*
X55200000Y-97835000D01*
X55200000Y-97835000D02*
X56565000Y-99200000D01*
G04 #@! TO.N,Net-(J3-Pin_4)*
X57800000Y-97600000D02*
X56400000Y-96200000D01*
X56400000Y-96200000D02*
X56400000Y-94355000D01*
X58400000Y-97600000D02*
X57800000Y-97600000D01*
X54800000Y-92755000D02*
X54400000Y-92755000D01*
X56400000Y-94355000D02*
X54800000Y-92755000D01*
G04 #@! TO.N,Net-(J4-Pin_2)*
X134440000Y-90600000D02*
X129900000Y-90600000D01*
X134800000Y-90240000D02*
X134440000Y-90600000D01*
X135500000Y-90240000D02*
X134800000Y-90240000D01*
G04 #@! TO.N,Net-(J4-Pin_1)*
X134800000Y-87700000D02*
X132700000Y-89800000D01*
X135500000Y-87700000D02*
X134800000Y-87700000D01*
X132700000Y-89800000D02*
X129900000Y-89800000D01*
G04 #@! TO.N,Net-(J4-Pin_4)*
X131680000Y-92200000D02*
X129900000Y-92200000D01*
X135500000Y-95320000D02*
X134800000Y-95320000D01*
X134800000Y-95320000D02*
X131680000Y-92200000D01*
G04 #@! TO.N,Net-(J4-Pin_3)*
X135500000Y-92780000D02*
X134800000Y-92780000D01*
X134800000Y-92780000D02*
X133420000Y-91400000D01*
X133420000Y-91400000D02*
X129900000Y-91400000D01*
G04 #@! TO.N,/SMART_LEDS*
X73500000Y-90450000D02*
X74325000Y-89625000D01*
X67975000Y-116175000D02*
X67975000Y-110625000D01*
X69800000Y-118000000D02*
X67975000Y-116175000D01*
X79325000Y-120950000D02*
X76375000Y-118000000D01*
X76375000Y-118000000D02*
X69800000Y-118000000D01*
X67975000Y-110625000D02*
X73500000Y-105100000D01*
X81590000Y-119575000D02*
X81590000Y-120335000D01*
X72271010Y-67285000D02*
X72436010Y-67450000D01*
X70780000Y-67285000D02*
X72271010Y-67285000D01*
X73500000Y-105100000D02*
X73500000Y-90450000D01*
X80975000Y-120950000D02*
X79325000Y-120950000D01*
X81590000Y-120335000D02*
X80975000Y-120950000D01*
G04 #@! TO.N,/DISPLAY_CS*
X96050000Y-61450000D02*
X94700000Y-60100000D01*
X56200000Y-60100000D02*
X54270000Y-62030000D01*
X99800000Y-61450000D02*
X96050000Y-61450000D01*
X96800000Y-61410000D02*
X96700000Y-61310000D01*
X54270000Y-62030000D02*
X54270000Y-64250000D01*
X94700000Y-60100000D02*
X56200000Y-60100000D01*
G04 #@! TO.N,/PMOD0_IO1*
X109820000Y-95270000D02*
X96750000Y-82200000D01*
X109820000Y-102600000D02*
X109820000Y-95270000D01*
X83600000Y-82200000D02*
X73765000Y-72365000D01*
X96750000Y-82200000D02*
X83600000Y-82200000D01*
X73765000Y-72365000D02*
X70780000Y-72365000D01*
G04 #@! TO.N,/PMOD0_IO2*
X74605000Y-74905000D02*
X83200000Y-83500000D01*
X108220000Y-95620000D02*
X108220000Y-102600000D01*
X70780000Y-74905000D02*
X74605000Y-74905000D01*
X83200000Y-83500000D02*
X96100000Y-83500000D01*
X96100000Y-83500000D02*
X108220000Y-95620000D01*
G04 #@! TO.N,/PMOD0_IO3*
X95200000Y-84900000D02*
X76200000Y-84900000D01*
X70800000Y-87700000D02*
X65700000Y-82600000D01*
X65700000Y-82600000D02*
X65700000Y-81750000D01*
X76200000Y-84900000D02*
X73400000Y-87700000D01*
X73400000Y-87700000D02*
X70800000Y-87700000D01*
X106020000Y-95720000D02*
X95200000Y-84900000D01*
X106020000Y-102600000D02*
X106020000Y-95720000D01*
G04 #@! TO.N,/PMOD0_IO4*
X69000000Y-88500000D02*
X63160000Y-82660000D01*
X104420000Y-102600000D02*
X104420000Y-96720000D01*
X77300000Y-86100000D02*
X74900000Y-88500000D01*
X93800000Y-86100000D02*
X77300000Y-86100000D01*
X74900000Y-88500000D02*
X69000000Y-88500000D01*
X63160000Y-82660000D02*
X63160000Y-81750000D01*
X104420000Y-96720000D02*
X93800000Y-86100000D01*
G04 #@! TO.N,/PMOD0_IO7*
X70780000Y-73635000D02*
X74235000Y-73635000D01*
X83500000Y-82900000D02*
X96500000Y-82900000D01*
X96500000Y-82900000D02*
X109020000Y-95420000D01*
X109020000Y-95420000D02*
X109020000Y-102600000D01*
X74235000Y-73635000D02*
X83500000Y-82900000D01*
G04 #@! TO.N,/PMOD0_IO8*
X75075000Y-76175000D02*
X83100000Y-84200000D01*
X107420000Y-95820000D02*
X107420000Y-102600000D01*
X70780000Y-76175000D02*
X75075000Y-76175000D01*
X95800000Y-84200000D02*
X107420000Y-95820000D01*
X83100000Y-84200000D02*
X95800000Y-84200000D01*
G04 #@! TO.N,/PMOD0_IO9*
X94600000Y-85500000D02*
X76700000Y-85500000D01*
X64430000Y-82664999D02*
X64430000Y-81750000D01*
X105220000Y-102600000D02*
X105220000Y-96120000D01*
X74100000Y-88100000D02*
X69865001Y-88100000D01*
X69865001Y-88100000D02*
X64430000Y-82664999D01*
X105220000Y-96120000D02*
X94600000Y-85500000D01*
X76700000Y-85500000D02*
X74100000Y-88100000D01*
G04 #@! TO.N,/PMOD0_IO10*
X93300000Y-86900000D02*
X77700000Y-86900000D01*
X61890000Y-82590000D02*
X61890000Y-81750000D01*
X77700000Y-86900000D02*
X75700000Y-88900000D01*
X68200000Y-88900000D02*
X61890000Y-82590000D01*
X103620000Y-97220000D02*
X93300000Y-86900000D01*
X103620000Y-102600000D02*
X103620000Y-97220000D01*
X75700000Y-88900000D02*
X68200000Y-88900000D01*
G04 #@! TO.N,/PMOD1_IO1*
X67100000Y-100000000D02*
X60200000Y-100000000D01*
X60620000Y-81750000D02*
X60620000Y-82820000D01*
X68600000Y-98500000D02*
X67100000Y-100000000D01*
X62434314Y-83800000D02*
X68600000Y-89965686D01*
X60620000Y-82820000D02*
X61600000Y-83800000D01*
X61600000Y-83800000D02*
X62434314Y-83800000D01*
X68600000Y-89965686D02*
X68600000Y-98500000D01*
G04 #@! TO.N,/PMOD1_IO2*
X59350000Y-81750000D02*
X59350000Y-83050000D01*
X62368628Y-84300000D02*
X67900000Y-89831372D01*
X67900000Y-89831372D02*
X67900000Y-98200000D01*
X59350000Y-83050000D02*
X60600000Y-84300000D01*
X60600000Y-84300000D02*
X62368628Y-84300000D01*
X67900000Y-98200000D02*
X66900000Y-99200000D01*
X66900000Y-99200000D02*
X60200000Y-99200000D01*
G04 #@! TO.N,/PMOD1_IO3*
X58080000Y-81750000D02*
X58080000Y-82980000D01*
X67199000Y-97901000D02*
X66700000Y-98400000D01*
X58080000Y-82980000D02*
X59900000Y-84800000D01*
X67199000Y-89697472D02*
X67199000Y-97901000D01*
X62301528Y-84800000D02*
X67199000Y-89697472D01*
X59900000Y-84800000D02*
X62301528Y-84800000D01*
X66700000Y-98400000D02*
X60200000Y-98400000D01*
G04 #@! TO.N,/PMOD1_IO4*
X66400000Y-89465572D02*
X66400000Y-97200000D01*
X65700000Y-97900000D02*
X61701000Y-97900000D01*
X56810000Y-82810000D02*
X59300000Y-85300000D01*
X56810000Y-81750000D02*
X56810000Y-82810000D01*
X61701000Y-97900000D02*
X61401000Y-97600000D01*
X59300000Y-85300000D02*
X62234428Y-85300000D01*
X66400000Y-97200000D02*
X65700000Y-97900000D01*
X62234428Y-85300000D02*
X66400000Y-89465572D01*
X61401000Y-97600000D02*
X60200000Y-97600000D01*
G04 #@! TO.N,/PMOD2_IO1*
X61890000Y-64250000D02*
X61890000Y-62610000D01*
X85150000Y-78800000D02*
X75600000Y-69250000D01*
X61890000Y-62610000D02*
X61900000Y-62600000D01*
X75600000Y-69250000D02*
X75600000Y-68600000D01*
X103600000Y-78800000D02*
X85150000Y-78800000D01*
X128100000Y-89800000D02*
X114600000Y-89800000D01*
X114600000Y-89800000D02*
X103600000Y-78800000D01*
G04 #@! TO.N,/PMOD2_IO2*
X59350000Y-64250000D02*
X59350000Y-63075000D01*
X84875000Y-79300000D02*
X73840380Y-68265380D01*
X114050000Y-90600000D02*
X102750000Y-79300000D01*
X59350000Y-63075000D02*
X59600000Y-62825000D01*
X102750000Y-79300000D02*
X84875000Y-79300000D01*
X128100000Y-90600000D02*
X114050000Y-90600000D01*
X73840380Y-68265380D02*
X73840380Y-67300000D01*
G04 #@! TO.N,/PMOD2_IO3*
X113500000Y-91400000D02*
X128100000Y-91400000D01*
X73355000Y-68555000D02*
X84600000Y-79800000D01*
X101900000Y-79800000D02*
X113500000Y-91400000D01*
X70780000Y-68555000D02*
X73355000Y-68555000D01*
X84600000Y-79800000D02*
X101900000Y-79800000D01*
G04 #@! TO.N,/PMOD2_IO4*
X73128257Y-69228257D02*
X72909018Y-69228257D01*
X113000000Y-92200000D02*
X101100000Y-80300000D01*
X84200000Y-80300000D02*
X73128257Y-69228257D01*
X101100000Y-80300000D02*
X84200000Y-80300000D01*
X128100000Y-92200000D02*
X113000000Y-92200000D01*
X55540000Y-64250000D02*
X55540000Y-62600000D01*
G04 #@! TO.N,/ESP_TX_CP_RX*
X84800000Y-70950000D02*
X84800000Y-70900000D01*
X85490000Y-71300000D02*
X85150000Y-71300000D01*
X56810000Y-62790000D02*
X56950000Y-62650000D01*
X85150000Y-71300000D02*
X84800000Y-70950000D01*
X56810000Y-64250000D02*
X56810000Y-62790000D01*
G04 #@! TO.N,/ESP_RX_CP_TX*
X58080000Y-64250000D02*
X58080000Y-62420000D01*
X85100000Y-73000000D02*
X84750000Y-72650000D01*
X58080000Y-62420000D02*
X58300000Y-62200000D01*
X85490000Y-73000000D02*
X85100000Y-73000000D01*
D65*
G04 #@! TO.N,Net-(J3-Pin_6)*
X57850000Y-88420000D02*
X57830000Y-88400000D01*
X57830000Y-88400000D02*
X57100000Y-88400000D01*
X56375000Y-87675000D02*
X54400000Y-87675000D01*
X57100000Y-88400000D02*
X56375000Y-87675000D01*
G04 #@! TO.N,Net-(J4-Pin_6)*
X135500000Y-100400000D02*
X133300000Y-100400000D01*
X130080000Y-99580000D02*
X131500000Y-99580000D01*
X126350000Y-97560000D02*
X128060000Y-97560000D01*
X128060000Y-97560000D02*
X130080000Y-99580000D01*
X133300000Y-100400000D02*
X132480000Y-99580000D01*
X132480000Y-99580000D02*
X131500000Y-99580000D01*
D67*
G04 #@! TO.N,Net-(Q3-B)*
X89317787Y-64047553D02*
X89267787Y-63997553D01*
X91220287Y-64047553D02*
X89317787Y-64047553D01*
G04 #@! TO.N,Net-(Q3-E)*
X87712500Y-70712500D02*
X87440380Y-70440380D01*
X91220287Y-65947553D02*
X89317787Y-65947553D01*
X88950000Y-70712500D02*
X87712500Y-70712500D01*
X89267787Y-66532213D02*
X87300000Y-68500000D01*
X89267787Y-65897553D02*
X89267787Y-66532213D01*
X89317787Y-65947553D02*
X89267787Y-65897553D01*
G04 #@! TO.N,Net-(Q4-E)*
X84820287Y-66004318D02*
X84820287Y-69329713D01*
X84820287Y-69329713D02*
X84750000Y-69400000D01*
X88247787Y-63997553D02*
X86345287Y-63997553D01*
X86295287Y-64529319D02*
X84820287Y-66004318D01*
X86295287Y-64047553D02*
X86295287Y-64529319D01*
X84750000Y-69400000D02*
X84100000Y-70050000D01*
X84100000Y-70050000D02*
X84100000Y-73100000D01*
X88187500Y-72712500D02*
X88950000Y-72712500D01*
X84100000Y-73100000D02*
X85000000Y-74000000D01*
X84750000Y-69400000D02*
X85050000Y-69700000D01*
X86345287Y-63997553D02*
X86295287Y-64047553D01*
X86900000Y-74000000D02*
X88187500Y-72712500D01*
X85000000Y-74000000D02*
X86900000Y-74000000D01*
X85050000Y-69700000D02*
X85490000Y-69700000D01*
G04 #@! TO.N,Net-(Q4-B)*
X86295287Y-65947553D02*
X88197787Y-65947553D01*
X88197787Y-65947553D02*
X88247787Y-65897553D01*
D65*
G04 #@! TO.N,GND*
X130700000Y-98620000D02*
X131500000Y-98620000D01*
X91600000Y-97475000D02*
X90800000Y-97475000D01*
X83600000Y-120100000D02*
X84100000Y-120600000D01*
D66*
X135950000Y-71600000D02*
X135900000Y-71650000D01*
D65*
X136000000Y-116725000D02*
X136000000Y-113780000D01*
X100040000Y-109980000D02*
X100060000Y-110000000D01*
X120550000Y-120575000D02*
X120525000Y-120600000D01*
D66*
X138770000Y-64185000D02*
X138770000Y-64030000D01*
D65*
X50295000Y-106420000D02*
X50275000Y-106400000D01*
X136800000Y-83100000D02*
X136400000Y-83500000D01*
D66*
X50000000Y-120600000D02*
X51000000Y-120600000D01*
X60000000Y-89375000D02*
X58800000Y-89375000D01*
X137854999Y-71599999D02*
X137855000Y-71600000D01*
X46400000Y-109700000D02*
X46400000Y-110700000D01*
D65*
X57850000Y-89380000D02*
X57220000Y-89380000D01*
D69*
X142950000Y-64030000D02*
X142950000Y-72670000D01*
D65*
X100040000Y-107420000D02*
X100040000Y-109980000D01*
D69*
X134075000Y-73200000D02*
X134075000Y-74400000D01*
D67*
X75700000Y-65180000D02*
X75700000Y-66000000D01*
D66*
X143600000Y-106000000D02*
X143600000Y-105000000D01*
X139400000Y-120600000D02*
X140300000Y-120600000D01*
D67*
X90900000Y-71712500D02*
X90900000Y-73662500D01*
D65*
X93880000Y-74245000D02*
X93900000Y-74225000D01*
X53000000Y-105800000D02*
X53000000Y-106420000D01*
X57220000Y-89380000D02*
X56385000Y-90215000D01*
D69*
X142950000Y-64030000D02*
X138770000Y-64030000D01*
D65*
X120525000Y-120600000D02*
X116450000Y-120600000D01*
X84100000Y-120600000D02*
X85900000Y-120600000D01*
D66*
X137855000Y-71600000D02*
X135950000Y-71600000D01*
D65*
X137020000Y-109300000D02*
X137000000Y-109280000D01*
X99300000Y-106000000D02*
X99300000Y-106680000D01*
X139700000Y-79600000D02*
X139250000Y-79150000D01*
D67*
X74510000Y-66000000D02*
X75700000Y-66000000D01*
D65*
X91250000Y-120575000D02*
X87125000Y-120575000D01*
X92895000Y-96905000D02*
X92895000Y-95275000D01*
D66*
X138770000Y-72515000D02*
X137855000Y-71600000D01*
D65*
X92895000Y-95275000D02*
X92895000Y-93895000D01*
X139250000Y-80000000D02*
X139300000Y-80000000D01*
X94500000Y-77300000D02*
X94400000Y-77300000D01*
D69*
X134075000Y-74400000D02*
X134175000Y-74500000D01*
D66*
X60000000Y-89375000D02*
X61300000Y-89375000D01*
D68*
X114300000Y-78500000D02*
X110300000Y-78500000D01*
D67*
X75300000Y-78950000D02*
X75300000Y-80100000D01*
D66*
X126600000Y-71900000D02*
X126600000Y-73200000D01*
X55600000Y-120600000D02*
X54600000Y-120600000D01*
D65*
X85925000Y-120575000D02*
X85900000Y-120600000D01*
D67*
X91487500Y-92000000D02*
X92300000Y-92000000D01*
D65*
X92275000Y-120575000D02*
X92300000Y-120600000D01*
X116450000Y-120600000D02*
X116425000Y-120575000D01*
X115425000Y-120575000D02*
X115350000Y-120650000D01*
X79200000Y-114680000D02*
X79200000Y-115400000D01*
D66*
X46400000Y-105100000D02*
X46400000Y-106100000D01*
D65*
X137500000Y-78550000D02*
X137500000Y-77800000D01*
X57860000Y-89380000D02*
X57880000Y-89400000D01*
X58775000Y-89400000D02*
X58800000Y-89375000D01*
D67*
X57800000Y-84600000D02*
X57800000Y-84700000D01*
D65*
X135900000Y-71650000D02*
X135100000Y-71650000D01*
X94550000Y-77350000D02*
X94500000Y-77300000D01*
X51300000Y-114120000D02*
X51300000Y-116725000D01*
X136400000Y-83500000D02*
X136400000Y-84200000D01*
D67*
X94325000Y-73800000D02*
X93900000Y-74225000D01*
D65*
X57850000Y-89380000D02*
X57860000Y-89380000D01*
D67*
X92895000Y-92595000D02*
X92895000Y-93895000D01*
D65*
X92325000Y-97475000D02*
X92895000Y-96905000D01*
D69*
X134075000Y-75700000D02*
X134075000Y-78375000D01*
D65*
X129380000Y-69100000D02*
X130000000Y-69100000D01*
X135000000Y-67350000D02*
X135700000Y-67350000D01*
D66*
X137855000Y-65100000D02*
X136300000Y-65100000D01*
D67*
X57400000Y-84200000D02*
X57800000Y-84600000D01*
D66*
X53000000Y-64250000D02*
X53000000Y-63100000D01*
D67*
X96000000Y-73500000D02*
X95700000Y-73800000D01*
D66*
X126600000Y-74500000D02*
X126600000Y-73200000D01*
D65*
X84300000Y-97475000D02*
X85045000Y-97475000D01*
D67*
X95700000Y-73800000D02*
X94325000Y-73800000D01*
D66*
X53000000Y-64250000D02*
X53000000Y-65400000D01*
X135600000Y-120600000D02*
X134700000Y-120600000D01*
D65*
X84300000Y-97475000D02*
X84075000Y-97475000D01*
X94550000Y-77350000D02*
X95325000Y-77350000D01*
X51320000Y-114100000D02*
X51300000Y-114120000D01*
D67*
X56980000Y-84200000D02*
X57400000Y-84200000D01*
D65*
X92075000Y-99925000D02*
X90825000Y-99925000D01*
X94450000Y-77350000D02*
X94550000Y-77350000D01*
X133340000Y-97860000D02*
X132580000Y-98620000D01*
D66*
X137855000Y-65100000D02*
X138770000Y-64185000D01*
D65*
X136700000Y-84500000D02*
X137190000Y-84500000D01*
X80240000Y-120340000D02*
X80250000Y-120350000D01*
X136280000Y-65120000D02*
X135500000Y-65120000D01*
D66*
X138770000Y-72670000D02*
X138770000Y-72515000D01*
D65*
X87125000Y-120575000D02*
X85925000Y-120575000D01*
D67*
X137190000Y-77490000D02*
X137500000Y-77800000D01*
D65*
X53000000Y-106420000D02*
X50295000Y-106420000D01*
D67*
X74510000Y-80100000D02*
X75300000Y-80100000D01*
D66*
X53000000Y-81750000D02*
X53000000Y-80600000D01*
D65*
X83250000Y-96650000D02*
X83250000Y-95225000D01*
D67*
X137190000Y-76700000D02*
X137190000Y-77490000D01*
D65*
X116425000Y-120575000D02*
X115425000Y-120575000D01*
D68*
X114300000Y-78500000D02*
X114300000Y-79700000D01*
D65*
X50700000Y-114100000D02*
X51320000Y-114100000D01*
X91600000Y-97475000D02*
X92325000Y-97475000D01*
X83600000Y-119380000D02*
X83600000Y-120100000D01*
X135400000Y-113800000D02*
X136000000Y-113800000D01*
D67*
X92300000Y-92000000D02*
X92895000Y-92595000D01*
D65*
X139300000Y-80000000D02*
X139700000Y-79600000D01*
X139725000Y-109300000D02*
X137020000Y-109300000D01*
D67*
X91400000Y-71212500D02*
X90900000Y-71712500D01*
D65*
X132580000Y-98620000D02*
X131500000Y-98620000D01*
X99950000Y-106000000D02*
X100050000Y-106100000D01*
D67*
X137190000Y-75400000D02*
X137200000Y-75410000D01*
D69*
X134075000Y-74600000D02*
X134175000Y-74500000D01*
D67*
X137200000Y-75410000D02*
X137200000Y-76690000D01*
D65*
X93880000Y-75200000D02*
X93880000Y-76780000D01*
D67*
X137200000Y-76690000D02*
X137190000Y-76700000D01*
X75050000Y-78700000D02*
X75300000Y-78950000D01*
D65*
X137500000Y-83100000D02*
X136800000Y-83100000D01*
X57880000Y-89400000D02*
X58775000Y-89400000D01*
X135100000Y-71650000D02*
X135000000Y-71750000D01*
X90800000Y-97475000D02*
X90800000Y-99900000D01*
X84075000Y-97475000D02*
X83250000Y-96650000D01*
X137000000Y-109900000D02*
X137000000Y-109280000D01*
D69*
X142950000Y-72670000D02*
X138770000Y-72670000D01*
D65*
X56385000Y-90215000D02*
X54400000Y-90215000D01*
D69*
X134050000Y-80050000D02*
X134050000Y-78400000D01*
D65*
X135500000Y-97860000D02*
X133340000Y-97860000D01*
X53000000Y-81750000D02*
X53000000Y-84200000D01*
D69*
X134075000Y-78375000D02*
X134050000Y-78400000D01*
D65*
X83250000Y-93900000D02*
X83250000Y-95225000D01*
D67*
X96990000Y-73500000D02*
X96000000Y-73500000D01*
D65*
X93880000Y-76780000D02*
X94450000Y-77350000D01*
X140837500Y-79600000D02*
X139700000Y-79600000D01*
X91250000Y-120575000D02*
X92275000Y-120575000D01*
X99300000Y-106680000D02*
X100040000Y-107420000D01*
X121675000Y-120575000D02*
X121700000Y-120600000D01*
D67*
X74510000Y-78700000D02*
X75050000Y-78700000D01*
D69*
X134075000Y-75700000D02*
X134075000Y-74600000D01*
D65*
X80240000Y-119575000D02*
X80240000Y-120340000D01*
X90800000Y-99900000D02*
X90825000Y-99925000D01*
X139250000Y-79150000D02*
X139250000Y-80000000D01*
X136400000Y-84200000D02*
X136700000Y-84500000D01*
X95325000Y-77350000D02*
X94550000Y-77350000D01*
X99300000Y-106000000D02*
X99950000Y-106000000D01*
X137805000Y-71650000D02*
X137855000Y-71600000D01*
X93880000Y-75200000D02*
X93880000Y-74245000D01*
X52720001Y-84200000D02*
X52300000Y-84200000D01*
D66*
X143600000Y-109600000D02*
X143600000Y-110600000D01*
D65*
X136300000Y-65100000D02*
X136280000Y-65120000D01*
X120550000Y-120575000D02*
X121675000Y-120575000D01*
X53000000Y-84200000D02*
X52720001Y-84200000D01*
D67*
G04 #@! TO.N,/EN*
X95595000Y-66380000D02*
X95595000Y-67170000D01*
X55540000Y-81750000D02*
X55540000Y-83040000D01*
X55500000Y-83080000D02*
X55540000Y-83040000D01*
X55700000Y-84200000D02*
X55500000Y-84000000D01*
X93100000Y-64992840D02*
X93095287Y-64997553D01*
D65*
X120575000Y-118425000D02*
X116425000Y-118425000D01*
D67*
X116425000Y-118425000D02*
X115025000Y-118425000D01*
X115025000Y-118425000D02*
X114550000Y-117950000D01*
X94697553Y-64997553D02*
X95600000Y-65900000D01*
X55500000Y-84000000D02*
X55500000Y-83080000D01*
X114500000Y-117900000D02*
X114500000Y-98100000D01*
X95600000Y-65900000D02*
X95600000Y-67165000D01*
X93095287Y-64997553D02*
X94697553Y-64997553D01*
X95600000Y-67165000D02*
X95595000Y-67170000D01*
X56020000Y-84200000D02*
X55700000Y-84200000D01*
X93100000Y-63700000D02*
X93100000Y-64992840D01*
X114550000Y-117950000D02*
X114500000Y-117900000D01*
X114500000Y-98100000D02*
X98500000Y-82100000D01*
G04 #@! TO.N,/GPIO0{slash}BOOT*
X69510000Y-64250000D02*
X69580000Y-64320000D01*
X83197553Y-64997553D02*
X84420287Y-64997553D01*
X85490000Y-75100000D02*
X85000000Y-75100000D01*
X84150000Y-65267840D02*
X84420287Y-64997553D01*
X85000000Y-75100000D02*
X83400000Y-73500000D01*
D65*
X91275000Y-118425000D02*
X87125000Y-118425000D01*
D67*
X69540000Y-64220000D02*
X69510000Y-64250000D01*
X82420000Y-64220000D02*
X83197553Y-64997553D01*
X75700000Y-64220000D02*
X69540000Y-64220000D01*
X75700000Y-64220000D02*
X82420000Y-64220000D01*
X84150000Y-68900000D02*
X84150000Y-65267840D01*
X83400000Y-69650000D02*
X84150000Y-68900000D01*
X74400000Y-105149943D02*
X74400000Y-90500000D01*
X74400000Y-90500000D02*
X75300000Y-89600000D01*
X83400000Y-73500000D02*
X83400000Y-69650000D01*
X85490000Y-75100000D02*
X85490000Y-76990000D01*
X87125000Y-117874943D02*
X74400000Y-105149943D01*
X87125000Y-118425000D02*
X87125000Y-117874943D01*
X85490000Y-76990000D02*
X85500000Y-77000000D01*
G04 #@! TO.N,Net-(J13-Pin_2)*
X73100000Y-109000000D02*
X72500000Y-109600000D01*
X74040000Y-109000000D02*
X73100000Y-109000000D01*
X72500000Y-109600000D02*
X72500000Y-114000000D01*
D66*
G04 #@! TO.N,Net-(C3-Pad1)*
X123800000Y-70650000D02*
X123800000Y-73050000D01*
X123887500Y-70562500D02*
X123800000Y-70650000D01*
X123800000Y-73050000D02*
X123650000Y-73200000D01*
D67*
G04 #@! TO.N,Net-(U9-DOUT)*
X75900000Y-109000000D02*
X80000000Y-113100000D01*
X75060000Y-109000000D02*
X75900000Y-109000000D01*
X80000000Y-113100000D02*
X80000000Y-118400000D01*
G04 #@! TO.N,Net-(J2-Pin_7)*
X108900000Y-107150000D02*
X109020000Y-107030000D01*
X109020000Y-107030000D02*
X109020000Y-104400000D01*
X110220000Y-112100000D02*
X108900000Y-110780000D01*
X108900000Y-110780000D02*
X108900000Y-107150000D01*
X110220000Y-112520000D02*
X110220000Y-112100000D01*
X110200000Y-112540000D02*
X110220000Y-112520000D01*
G04 #@! TO.N,Net-(J2-Pin_8)*
X107680000Y-112160000D02*
X106420000Y-110900000D01*
X107680000Y-112520000D02*
X107680000Y-112160000D01*
X106420000Y-108100000D02*
X107420000Y-107100000D01*
X107660000Y-112540000D02*
X107680000Y-112520000D01*
X107420000Y-107100000D02*
X107420000Y-104400000D01*
X106420000Y-110900000D02*
X106420000Y-108100000D01*
G04 #@! TO.N,Net-(J2-Pin_3)*
X105140000Y-110000000D02*
X105140000Y-108360000D01*
X105140000Y-108360000D02*
X106020000Y-107480000D01*
X106020000Y-107480000D02*
X106020000Y-104400000D01*
G04 #@! TO.N,Net-(J2-Pin_4)*
X102590176Y-108429824D02*
X104420000Y-106600000D01*
X104420000Y-106600000D02*
X104420000Y-104400000D01*
X102590176Y-109990176D02*
X102590176Y-108429824D01*
X102600000Y-110000000D02*
X102590176Y-109990176D01*
G04 #@! TO.N,Net-(J2-Pin_9)*
X105120000Y-112540000D02*
X105120000Y-112100000D01*
X103870000Y-110850000D02*
X103870000Y-108440000D01*
X105220000Y-107090000D02*
X105220000Y-104400000D01*
X105120000Y-112100000D02*
X103870000Y-110850000D01*
X103870000Y-108440000D02*
X105220000Y-107090000D01*
G04 #@! TO.N,Net-(J2-Pin_10)*
X101320000Y-110915000D02*
X101320000Y-108200000D01*
X102580000Y-112175000D02*
X101320000Y-110915000D01*
X101320000Y-108200000D02*
X103620000Y-105900000D01*
X102580000Y-112540000D02*
X102580000Y-112175000D01*
X103620000Y-105900000D02*
X103620000Y-104400000D01*
G04 #@! TO.N,/DISPLAY_+5V*
X128412500Y-72377500D02*
X128390000Y-72400000D01*
X128412500Y-70600000D02*
X128412500Y-72377500D01*
D70*
G04 #@! TO.N,/USBMAIN_D-*
X138950000Y-68100000D02*
X139200000Y-68350000D01*
X135350000Y-70350000D02*
X135000000Y-70350000D01*
X70400000Y-85100000D02*
X71553461Y-85100000D01*
X134250000Y-70350000D02*
X135000000Y-70350000D01*
X137855000Y-69100000D02*
X136600000Y-69100000D01*
X139200000Y-68350000D02*
X139200000Y-68850000D01*
X68240000Y-81750000D02*
X68240000Y-82940000D01*
X133100000Y-69200000D02*
X134250000Y-70350000D01*
X131651000Y-69200000D02*
X133100000Y-69200000D01*
X139200000Y-68850000D02*
X138950000Y-69100000D01*
X138950000Y-69100000D02*
X137855000Y-69100000D01*
X131351000Y-69500000D02*
X131651000Y-69200000D01*
X68240000Y-82940000D02*
X70400000Y-85100000D01*
X136600000Y-69100000D02*
X135350000Y-70350000D01*
X137855000Y-68100000D02*
X138950000Y-68100000D01*
X71553461Y-85100000D02*
X71603461Y-85150000D01*
D67*
G04 #@! TO.N,Net-(J14-Pin_2)*
X48300000Y-110300000D02*
X50600000Y-112600000D01*
X52600000Y-112600000D02*
X53300000Y-113300000D01*
X53300000Y-113300000D02*
X53300000Y-116725000D01*
X54270000Y-108030000D02*
X53700000Y-108600000D01*
X59760000Y-108000000D02*
X59400000Y-108360000D01*
X59070000Y-108030000D02*
X59400000Y-108360000D01*
X49200000Y-108400000D02*
X48300000Y-109300000D01*
X67190000Y-104700000D02*
X65200000Y-104700000D01*
X53700000Y-108600000D02*
X52200000Y-108600000D01*
X48300000Y-109300000D02*
X48300000Y-110300000D01*
X50600000Y-112600000D02*
X52600000Y-112600000D01*
X54970000Y-108100000D02*
X54900000Y-108030000D01*
X52200000Y-108600000D02*
X52000000Y-108400000D01*
X50275000Y-108400000D02*
X49200000Y-108400000D01*
X65200000Y-104700000D02*
X61900000Y-108000000D01*
X54900000Y-108030000D02*
X54270000Y-108030000D01*
X61900000Y-108000000D02*
X59760000Y-108000000D01*
X54900000Y-108030000D02*
X59070000Y-108030000D01*
X52000000Y-108400000D02*
X50275000Y-108400000D01*
G04 #@! TO.N,Net-(J14-Pin_1)*
X49200000Y-109400000D02*
X49000000Y-109600000D01*
X61500000Y-110400000D02*
X59900000Y-110400000D01*
X67190000Y-106100000D02*
X65800000Y-106100000D01*
X49000000Y-109600000D02*
X49000000Y-110000000D01*
X49000000Y-110000000D02*
X51000000Y-112000000D01*
X55790000Y-109490000D02*
X56700000Y-110400000D01*
X54910000Y-109500000D02*
X54900000Y-109490000D01*
X53000000Y-112000000D02*
X54300000Y-113300000D01*
X56700000Y-110400000D02*
X58900000Y-110400000D01*
X54900000Y-109490000D02*
X55790000Y-109490000D01*
X54810000Y-109400000D02*
X54900000Y-109490000D01*
X59900000Y-110400000D02*
X59400000Y-110900000D01*
X65800000Y-106100000D02*
X61500000Y-110400000D01*
X50275000Y-109400000D02*
X54810000Y-109400000D01*
X54300000Y-113300000D02*
X54300000Y-116725000D01*
X50275000Y-109400000D02*
X49200000Y-109400000D01*
X58900000Y-110400000D02*
X59400000Y-110900000D01*
X51000000Y-112000000D02*
X53000000Y-112000000D01*
G04 #@! TO.N,Net-(J1-Pin_1)*
X135960000Y-105010000D02*
X135200000Y-105010000D01*
X141300000Y-106300000D02*
X142000000Y-107000000D01*
X137250000Y-106300000D02*
X135960000Y-105010000D01*
X139725000Y-106300000D02*
X137250000Y-106300000D01*
X142000000Y-110500000D02*
X139000000Y-113500000D01*
X134160000Y-105010000D02*
X133150000Y-104000000D01*
X139725000Y-106300000D02*
X141300000Y-106300000D01*
X135200000Y-105010000D02*
X134160000Y-105010000D01*
X130300000Y-104000000D02*
X131000000Y-103300000D01*
X139000000Y-113500000D02*
X139000000Y-116725000D01*
X142000000Y-107000000D02*
X142000000Y-110500000D01*
X131700000Y-104000000D02*
X131000000Y-103300000D01*
X120610000Y-104000000D02*
X130300000Y-104000000D01*
X133150000Y-104000000D02*
X131700000Y-104000000D01*
G04 #@! TO.N,Net-(J1-Pin_2)*
X139725000Y-107300000D02*
X137300000Y-107300000D01*
X135200000Y-106090000D02*
X133690000Y-106090000D01*
X120660000Y-105500000D02*
X130660000Y-105500000D01*
X136090000Y-106090000D02*
X135200000Y-106090000D01*
X133690000Y-106090000D02*
X133100000Y-105500000D01*
X141100000Y-107300000D02*
X141200000Y-107400000D01*
X141200000Y-110300000D02*
X138000000Y-113500000D01*
X138000000Y-113500000D02*
X138000000Y-116725000D01*
X137300000Y-107300000D02*
X136090000Y-106090000D01*
X130660000Y-105500000D02*
X131000000Y-105840000D01*
X133100000Y-105500000D02*
X131340000Y-105500000D01*
X131340000Y-105500000D02*
X131000000Y-105840000D01*
X139725000Y-107300000D02*
X141100000Y-107300000D01*
X141200000Y-107400000D02*
X141200000Y-110300000D01*
D70*
G04 #@! TO.N,/USBMAIN_D+*
X136200000Y-68750000D02*
X136350000Y-68600000D01*
X136200000Y-68750000D02*
X135000000Y-68750000D01*
X71299545Y-84600000D02*
X71599539Y-84300006D01*
X136400000Y-67839000D02*
X136400000Y-68550000D01*
X136400000Y-68550000D02*
X136200000Y-68750000D01*
X136639000Y-67600000D02*
X136400000Y-67839000D01*
X131100000Y-68700000D02*
X131150000Y-68750000D01*
X69510000Y-81750000D02*
X69510000Y-83573604D01*
X70536396Y-84600000D02*
X71299545Y-84600000D01*
X136350000Y-68600000D02*
X137855000Y-68600000D01*
X131150000Y-68750000D02*
X135000000Y-68750000D01*
X137855000Y-67600000D02*
X136639000Y-67600000D01*
X69510000Y-83573604D02*
X70536396Y-84600000D01*
D67*
G04 #@! TO.N,Net-(U1-IO46-PD)*
X73405000Y-78715000D02*
X73420000Y-78700000D01*
X73420000Y-78700000D02*
X73490000Y-78700000D01*
X70740000Y-78715000D02*
X73405000Y-78715000D01*
D70*
G04 #@! TO.N,/USBAUX_D+*
X91400000Y-73662500D02*
X91400000Y-74450000D01*
X136613604Y-79950000D02*
X134188604Y-82375000D01*
X134188604Y-82375000D02*
X109411396Y-82375000D01*
X138050000Y-79950000D02*
X139000000Y-80900000D01*
X91400000Y-74450000D02*
X91200000Y-74650000D01*
X139000000Y-80900000D02*
X140837500Y-80900000D01*
X101786396Y-74750000D02*
X95102744Y-74750000D01*
X109411396Y-82375000D02*
X101786396Y-74750000D01*
X137500000Y-79950000D02*
X136613604Y-79950000D01*
X137500000Y-79950000D02*
X138050000Y-79950000D01*
X95102744Y-74750000D02*
X94945000Y-74592256D01*
G04 #@! TO.N,/USBAUX_D-*
X91900000Y-73662500D02*
X91900000Y-74500000D01*
X91900000Y-74500000D02*
X92077298Y-74677298D01*
X138700000Y-81700000D02*
X137500000Y-81700000D01*
X137500000Y-81700000D02*
X135500000Y-81700000D01*
X135500000Y-81700000D02*
X134375000Y-82825000D01*
X134375000Y-82825000D02*
X109225000Y-82825000D01*
X95230760Y-75200000D02*
X94940670Y-75490090D01*
X101600000Y-75200000D02*
X95230760Y-75200000D01*
X138850000Y-81550000D02*
X138700000Y-81700000D01*
X109225000Y-82825000D02*
X101600000Y-75200000D01*
X140837500Y-81550000D02*
X138850000Y-81550000D01*
D67*
G04 #@! TO.N,/CC2*
X138800000Y-76700000D02*
X139100000Y-76400000D01*
X138210000Y-76700000D02*
X138800000Y-76700000D01*
X139200000Y-66600000D02*
X137855000Y-66600000D01*
G04 #@! TO.N,/CC1*
X139150000Y-69600000D02*
X137855000Y-69600000D01*
X138210000Y-75400000D02*
X139000000Y-75400000D01*
X139182120Y-69680299D02*
X139182120Y-69632120D01*
X139182120Y-69632120D02*
X139150000Y-69600000D01*
G04 #@! TO.N,Net-(J6-Pin_4)*
X119100000Y-68650000D02*
X123000000Y-64750000D01*
X105050000Y-68650000D02*
X119100000Y-68650000D01*
X101600000Y-66500000D02*
X102900000Y-66500000D01*
X123000000Y-64750000D02*
X123000000Y-64000000D01*
X102900000Y-66500000D02*
X105050000Y-68650000D01*
G04 #@! TO.N,Net-(J6-Pin_7)*
X115500000Y-64000000D02*
X113250000Y-66250000D01*
X113250000Y-66250000D02*
X106150000Y-66250000D01*
X106150000Y-66250000D02*
X104000000Y-64100000D01*
X104000000Y-64100000D02*
X101600000Y-64100000D01*
G04 #@! TO.N,Net-(J6-Pin_10)*
X106800000Y-64000000D02*
X108000000Y-64000000D01*
X101650000Y-59900000D02*
X102700000Y-59900000D01*
X101600000Y-59850000D02*
X101600000Y-60650000D01*
X101600000Y-59850000D02*
X101650000Y-59900000D01*
X102700000Y-59900000D02*
X106800000Y-64000000D01*
G04 #@! TO.N,Net-(J6-Pin_5)*
X103200000Y-65700000D02*
X105350000Y-67850000D01*
X101600000Y-65700000D02*
X103200000Y-65700000D01*
X120500000Y-64800000D02*
X120500000Y-64000000D01*
X117450000Y-67850000D02*
X120500000Y-64800000D01*
X105350000Y-67850000D02*
X117450000Y-67850000D01*
G04 #@! TO.N,Net-(J6-Pin_6)*
X103550000Y-64900000D02*
X101600000Y-64900000D01*
X114950000Y-67050000D02*
X105700000Y-67050000D01*
X118000000Y-64000000D02*
X114950000Y-67050000D01*
X105700000Y-67050000D02*
X103550000Y-64900000D01*
G04 #@! TO.N,Net-(J6-Pin_9)*
X102650000Y-61450000D02*
X101600000Y-61450000D01*
X106700000Y-65500000D02*
X102650000Y-61450000D01*
X109000000Y-65500000D02*
X106700000Y-65500000D01*
X110500000Y-64000000D02*
X109000000Y-65500000D01*
G04 #@! TO.N,/DISPLAY_IO0*
X64430000Y-62870000D02*
X65000000Y-62300000D01*
X97700000Y-66500000D02*
X99800000Y-66500000D01*
X64430000Y-64250000D02*
X64430000Y-62870000D01*
X93500000Y-62300000D02*
X97700000Y-66500000D01*
X65000000Y-62300000D02*
X93500000Y-62300000D01*
G04 #@! TO.N,/DISPLAY_IO1*
X64425000Y-61500000D02*
X93700000Y-61500000D01*
X97900000Y-65700000D02*
X99800000Y-65700000D01*
X63160000Y-62765000D02*
X64425000Y-61500000D01*
X93700000Y-61500000D02*
X97900000Y-65700000D01*
X63160000Y-64250000D02*
X63160000Y-62765000D01*
G04 #@! TO.N,/DISPLAY_IO2*
X98300000Y-64900000D02*
X94250000Y-60850000D01*
X94250000Y-60850000D02*
X61650000Y-60850000D01*
X60700000Y-61800000D02*
X60700000Y-64170000D01*
X61650000Y-60850000D02*
X60700000Y-61800000D01*
X60700000Y-64170000D02*
X60620000Y-64250000D01*
X99800000Y-64900000D02*
X98300000Y-64900000D01*
G04 #@! TO.N,/DISPLAY_IO3*
X73490000Y-66000000D02*
X73200000Y-66000000D01*
X98500000Y-63400000D02*
X98500000Y-63100000D01*
X70795000Y-66000000D02*
X70780000Y-66015000D01*
X99200000Y-64100000D02*
X98500000Y-63400000D01*
X72600000Y-66000000D02*
X70795000Y-66000000D01*
X72600000Y-66000000D02*
X72600000Y-65400000D01*
X99800000Y-64100000D02*
X99200000Y-64100000D01*
X73490000Y-66000000D02*
X72600000Y-66000000D01*
G04 #@! TO.N,/DISPLAY_CLK*
X99800000Y-59850000D02*
X99800000Y-60650000D01*
X99800000Y-60650000D02*
X98500000Y-60650000D01*
X72800000Y-80100000D02*
X72700000Y-80000000D01*
X70740000Y-79985000D02*
X72685000Y-79985000D01*
X98500000Y-60650000D02*
X98400000Y-60550000D01*
X72685000Y-79985000D02*
X72700000Y-80000000D01*
X73490000Y-80100000D02*
X72800000Y-80100000D01*
G04 #@! TO.N,Net-(U3-VBUS)*
X99590000Y-73500000D02*
X98010000Y-73500000D01*
X98010000Y-73500000D02*
X98010000Y-72960000D01*
X97762500Y-72712500D02*
X93850000Y-72712500D01*
X98010000Y-72960000D02*
X97762500Y-72712500D01*
G04 #@! TO.N,Net-(U3-~{RST})*
X97195000Y-70800000D02*
X97195000Y-71905000D01*
X96887500Y-72212500D02*
X93850000Y-72212500D01*
X95595000Y-72005000D02*
X95600000Y-72010000D01*
X97195000Y-71905000D02*
X96887500Y-72212500D01*
X95595000Y-70790000D02*
X95595000Y-72005000D01*
X95600000Y-72010000D02*
X95600000Y-72212500D01*
X95605000Y-70800000D02*
X95595000Y-70790000D01*
G04 #@! TO.N,Net-(U3-~{CTS})*
X88212500Y-70212500D02*
X87700000Y-69700000D01*
X87700000Y-69700000D02*
X86510000Y-69700000D01*
X88950000Y-70212500D02*
X88212500Y-70212500D01*
D69*
G04 #@! TO.N,Net-(J11-Shield)*
X140837500Y-78362500D02*
X140837500Y-78400000D01*
X141800000Y-77400000D02*
X140837500Y-78362500D01*
D66*
X143537500Y-83600000D02*
X143337498Y-83399998D01*
D69*
X143537500Y-77400000D02*
X141800000Y-77400000D01*
D66*
X143337498Y-83399998D02*
X140837500Y-83399998D01*
D65*
X138210000Y-84500000D02*
X139737498Y-84500000D01*
D69*
X143537500Y-84400000D02*
X143537500Y-77400000D01*
D65*
X139737498Y-84500000D02*
X140837500Y-83399998D01*
D67*
G04 #@! TO.N,Net-(U3-TXD)*
X88387500Y-71712500D02*
X87100000Y-73000000D01*
X88950000Y-71712500D02*
X88387500Y-71712500D01*
X87100000Y-73000000D02*
X86510000Y-73000000D01*
G04 #@! TO.N,Net-(U3-RXD)*
X87712500Y-71300000D02*
X86510000Y-71300000D01*
X87800000Y-71212500D02*
X87712500Y-71300000D01*
X88950000Y-71212500D02*
X87800000Y-71212500D01*
G04 #@! TO.N,/I2CA_SCL*
X66970000Y-82785629D02*
X66970000Y-81750000D01*
X72800000Y-89600000D02*
X72700000Y-89700000D01*
X72800000Y-87000000D02*
X72550000Y-87250000D01*
X69500000Y-106100000D02*
X68210000Y-106100000D01*
X72700000Y-102900000D02*
X69500000Y-106100000D01*
X72700000Y-89700000D02*
X72700000Y-102900000D01*
X72550000Y-87250000D02*
X71434371Y-87250000D01*
X71434371Y-87250000D02*
X66970000Y-82785629D01*
G04 #@! TO.N,/I2CA_SDA*
X76100000Y-82300000D02*
X72000000Y-86400000D01*
X74795000Y-77445000D02*
X76100000Y-78750000D01*
X76100000Y-78750000D02*
X76100000Y-82300000D01*
X71900000Y-102400000D02*
X69600000Y-104700000D01*
X70780000Y-77445000D02*
X74795000Y-77445000D01*
X69600000Y-104700000D02*
X68210000Y-104700000D01*
X71900000Y-89600000D02*
X71900000Y-102400000D01*
X72000000Y-86400000D02*
X72000000Y-86600000D01*
G04 #@! TO.N,/I2CB_SCL*
X100300000Y-80900000D02*
X117950000Y-98550000D01*
X117950000Y-103550000D02*
X118400000Y-104000000D01*
X70780000Y-69825000D02*
X72825000Y-69825000D01*
X117950000Y-98550000D02*
X117950000Y-103550000D01*
X72825000Y-69825000D02*
X83900000Y-80900000D01*
X118400000Y-104000000D02*
X119590000Y-104000000D01*
X83900000Y-80900000D02*
X100300000Y-80900000D01*
G04 #@! TO.N,/I2CB_SDA*
X117200000Y-104800000D02*
X117900000Y-105500000D01*
X70780000Y-71095000D02*
X73295000Y-71095000D01*
X83700000Y-81500000D02*
X99700000Y-81500000D01*
X117900000Y-105500000D02*
X119640000Y-105500000D01*
X73295000Y-71095000D02*
X83700000Y-81500000D01*
X99700000Y-81500000D02*
X117200000Y-99000000D01*
X117200000Y-99000000D02*
X117200000Y-104800000D01*
G04 #@! TD*
G04 #@! TA.AperFunction,Conductor*
G04 #@! TO.N,Net-(J14-Pin_2)*
G36*
X59230923Y-107530794D02*
G01*
X59236443Y-107537845D01*
X59236645Y-107538687D01*
X59400046Y-108355233D01*
X59398309Y-108364018D01*
X59398295Y-108364039D01*
X58934934Y-109056042D01*
X58927483Y-109061009D01*
X58918702Y-109059254D01*
X58917797Y-109058583D01*
X58914695Y-109056042D01*
X58069986Y-108364018D01*
X57788620Y-108133510D01*
X57784392Y-108125616D01*
X57784335Y-108124459D01*
X57784335Y-107938887D01*
X57787762Y-107930614D01*
X57792896Y-107927616D01*
X59222035Y-107529712D01*
X59230923Y-107530794D01*
G37*
G04 #@! TD.AperFunction*
G04 #@! TD*
G04 #@! TA.AperFunction,Conductor*
G04 #@! TO.N,Net-(J2-Pin_12)*
G36*
X97260000Y-103783667D02*
G01*
X97660000Y-103783667D01*
X98166749Y-102572235D01*
X97460000Y-102099000D01*
X96753251Y-102572235D01*
X97260000Y-103783667D01*
G37*
G04 #@! TD.AperFunction*
G04 #@! TD*
G04 #@! TA.AperFunction,Conductor*
G04 #@! TO.N,Net-(J3-Pin_4)*
G36*
X55685549Y-93781970D02*
G01*
X55826970Y-93640549D01*
X55106749Y-92282765D01*
X54399293Y-92754293D01*
X54234173Y-93588667D01*
X55685549Y-93781970D01*
G37*
G04 #@! TD.AperFunction*
G04 #@! TD*
G04 #@! TA.AperFunction,Conductor*
G04 #@! TO.N,Net-(J2-Pin_10)*
G36*
X101669703Y-111123282D02*
G01*
X101528282Y-111264703D01*
X101746333Y-112705827D01*
X102580707Y-112540707D01*
X103052235Y-111833251D01*
X101669703Y-111123282D01*
G37*
G04 #@! TD.AperFunction*
G04 #@! TD*
G04 #@! TA.AperFunction,Conductor*
G04 #@! TO.N,Net-(J6-Pin_5)*
G36*
X119669582Y-65488997D02*
G01*
X119811003Y-65630418D01*
X120972235Y-64831749D01*
X120500707Y-63999293D01*
X119650000Y-64125000D01*
X119669582Y-65488997D01*
G37*
G04 #@! TD.AperFunction*
G04 #@! TD*
G04 #@! TA.AperFunction,Conductor*
G04 #@! TO.N,Net-(J1-Pin_2)*
G36*
X131177898Y-105009620D02*
G01*
X132602896Y-105397651D01*
X132609978Y-105403131D01*
X132611522Y-105408940D01*
X132611522Y-105594509D01*
X132608095Y-105602782D01*
X132607300Y-105603508D01*
X131482215Y-106538455D01*
X131473662Y-106541106D01*
X131465738Y-106536934D01*
X131465015Y-106535966D01*
X131001704Y-105844039D01*
X130999949Y-105835258D01*
X130999949Y-105835256D01*
X131163369Y-105018615D01*
X131168352Y-105011177D01*
X131177137Y-105009440D01*
X131177898Y-105009620D01*
G37*
G04 #@! TD.AperFunction*
G04 #@! TD*
G04 #@! TA.AperFunction,Conductor*
G04 #@! TO.N,Net-(J2-Pin_1)*
G36*
X109890711Y-108529290D02*
G01*
X109749290Y-108670711D01*
X109366333Y-109834173D01*
X110200707Y-110000707D01*
X110672235Y-109293251D01*
X109890711Y-108529290D01*
G37*
G04 #@! TD.AperFunction*
G04 #@! TD*
G04 #@! TA.AperFunction,Conductor*
G04 #@! TO.N,/DISPLAY_+5V*
G36*
X128250000Y-65452230D02*
G01*
X128316126Y-65441757D01*
X128316129Y-65441757D01*
X128518217Y-65376095D01*
X128707554Y-65279622D01*
X128803114Y-65210194D01*
X128868921Y-65186714D01*
X128936974Y-65202539D01*
X128985669Y-65252645D01*
X129000000Y-65310512D01*
X129000000Y-68229275D01*
X128980315Y-68296314D01*
X128927511Y-68342069D01*
X128858353Y-68352013D01*
X128823866Y-68339874D01*
X128823351Y-68341065D01*
X128816190Y-68337965D01*
X128670001Y-68295493D01*
X128670000Y-68295494D01*
X128670000Y-68601645D01*
X128652734Y-68664763D01*
X128647507Y-68673600D01*
X128647504Y-68673608D01*
X128602357Y-68829002D01*
X128602356Y-68829008D01*
X128599500Y-68865302D01*
X128599500Y-69334697D01*
X128602356Y-69370991D01*
X128602357Y-69370997D01*
X128647503Y-69526389D01*
X128647505Y-69526393D01*
X128647506Y-69526395D01*
X128652732Y-69535233D01*
X128670000Y-69598352D01*
X128670000Y-69981138D01*
X128662500Y-70006679D01*
X128662500Y-70476000D01*
X128642815Y-70543039D01*
X128590011Y-70588794D01*
X128538500Y-70600000D01*
X128412500Y-70600000D01*
X128412500Y-70726000D01*
X128392815Y-70793039D01*
X128340011Y-70838794D01*
X128288500Y-70850000D01*
X127475001Y-70850000D01*
X127475001Y-70876000D01*
X127455316Y-70943039D01*
X127402512Y-70988794D01*
X127351001Y-71000000D01*
X126849000Y-71000000D01*
X126781961Y-70980315D01*
X126736206Y-70927511D01*
X126725000Y-70876000D01*
X126725000Y-70812500D01*
X125836500Y-70812500D01*
X125769461Y-70792815D01*
X125723706Y-70740011D01*
X125712500Y-70688500D01*
X125712500Y-70562500D01*
X125586500Y-70562500D01*
X125519461Y-70542815D01*
X125473706Y-70490011D01*
X125462500Y-70438500D01*
X125462500Y-70312500D01*
X125962500Y-70312500D01*
X126724999Y-70312500D01*
X126724999Y-70295849D01*
X127475000Y-70295849D01*
X127475000Y-70350000D01*
X128162500Y-70350000D01*
X128162500Y-69553862D01*
X128170000Y-69528320D01*
X128170000Y-69350000D01*
X127641210Y-69350000D01*
X127642854Y-69370910D01*
X127687968Y-69526195D01*
X127753046Y-69636236D01*
X127770229Y-69703960D01*
X127748069Y-69770223D01*
X127733996Y-69787038D01*
X127626112Y-69894922D01*
X127537908Y-70037922D01*
X127537906Y-70037927D01*
X127485057Y-70197416D01*
X127475000Y-70295849D01*
X126724999Y-70295849D01*
X126724999Y-70062528D01*
X126724998Y-70062513D01*
X126714505Y-69959802D01*
X126659358Y-69793380D01*
X126659356Y-69793375D01*
X126567315Y-69644154D01*
X126443345Y-69520184D01*
X126294124Y-69428143D01*
X126294119Y-69428141D01*
X126127697Y-69372994D01*
X126127690Y-69372993D01*
X126024986Y-69362500D01*
X125962500Y-69362500D01*
X125962500Y-70312500D01*
X125462500Y-70312500D01*
X125462500Y-69362500D01*
X125462499Y-69362499D01*
X125400028Y-69362500D01*
X125400011Y-69362501D01*
X125297302Y-69372994D01*
X125163004Y-69417496D01*
X125093175Y-69419898D01*
X125033134Y-69384166D01*
X125001941Y-69321645D01*
X125000000Y-69299790D01*
X125000000Y-68849999D01*
X127641209Y-68849999D01*
X127641210Y-68850000D01*
X128170000Y-68850000D01*
X128170000Y-68295494D01*
X128169998Y-68295493D01*
X128023809Y-68337965D01*
X128023806Y-68337967D01*
X127884625Y-68420278D01*
X127884616Y-68420285D01*
X127770285Y-68534616D01*
X127770278Y-68534625D01*
X127687968Y-68673804D01*
X127687966Y-68673809D01*
X127642855Y-68829081D01*
X127642854Y-68829087D01*
X127641209Y-68849999D01*
X125000000Y-68849999D01*
X125000000Y-65552685D01*
X125019685Y-65485646D01*
X125072489Y-65439891D01*
X125141647Y-65429947D01*
X125162320Y-65434754D01*
X125183876Y-65441758D01*
X125250000Y-65452231D01*
X125250000Y-64404145D01*
X125316657Y-64442630D01*
X125437465Y-64475000D01*
X125562535Y-64475000D01*
X125683343Y-64442630D01*
X125750000Y-64404145D01*
X125750000Y-65452230D01*
X125816126Y-65441757D01*
X125816129Y-65441757D01*
X126018217Y-65376095D01*
X126207557Y-65279620D01*
X126379459Y-65154727D01*
X126379464Y-65154723D01*
X126529727Y-65004460D01*
X126649682Y-64839355D01*
X126705011Y-64796689D01*
X126774625Y-64790710D01*
X126836420Y-64823315D01*
X126850318Y-64839355D01*
X126970272Y-65004460D01*
X127120535Y-65154723D01*
X127120540Y-65154727D01*
X127292442Y-65279620D01*
X127481782Y-65376095D01*
X127683871Y-65441757D01*
X127750000Y-65452231D01*
X127750000Y-64404145D01*
X127816657Y-64442630D01*
X127937465Y-64475000D01*
X128062535Y-64475000D01*
X128183343Y-64442630D01*
X128250000Y-64404145D01*
X128250000Y-65452230D01*
G37*
G04 #@! TD.AperFunction*
G04 #@! TA.AperFunction,Conductor*
G36*
X127557370Y-63816657D02*
G01*
X127525000Y-63937465D01*
X127525000Y-64062535D01*
X127557370Y-64183343D01*
X127595854Y-64250000D01*
X125904146Y-64250000D01*
X125942630Y-64183343D01*
X125975000Y-64062535D01*
X125975000Y-63937465D01*
X125942630Y-63816657D01*
X125933013Y-63800000D01*
X127566987Y-63800000D01*
X127557370Y-63816657D01*
G37*
G04 #@! TD.AperFunction*
G04 #@! TD*
G04 #@! TA.AperFunction,Conductor*
G04 #@! TO.N,Net-(J4-Pin_3)*
G36*
X134136003Y-91974582D02*
G01*
X133994582Y-92116003D01*
X134793251Y-93252235D01*
X135500707Y-92780707D01*
X135334173Y-91946333D01*
X134136003Y-91974582D01*
G37*
G04 #@! TD.AperFunction*
G04 #@! TD*
G04 #@! TA.AperFunction,Conductor*
G04 #@! TO.N,Net-(J4-Pin_2)*
G36*
X133910083Y-90500000D02*
G01*
X133910083Y-90700000D01*
X135334173Y-91073667D01*
X135501000Y-90240000D01*
X135027765Y-89533251D01*
X133910083Y-90500000D01*
G37*
G04 #@! TD.AperFunction*
G04 #@! TD*
G04 #@! TA.AperFunction,Conductor*
G04 #@! TO.N,Net-(J2-Pin_7)*
G36*
X109356878Y-111095457D02*
G01*
X109215457Y-111236878D01*
X109366333Y-112705827D01*
X110200707Y-112540707D01*
X110672235Y-111833251D01*
X109356878Y-111095457D01*
G37*
G04 #@! TD.AperFunction*
G04 #@! TD*
G04 #@! TA.AperFunction,Conductor*
G04 #@! TO.N,Net-(J6-Pin_10)*
G36*
X106517158Y-63575736D02*
G01*
X106375736Y-63717158D01*
X107440934Y-64744918D01*
X108000707Y-64000707D01*
X107756905Y-63073338D01*
X106517158Y-63575736D01*
G37*
G04 #@! TD.AperFunction*
G04 #@! TD*
G04 #@! TA.AperFunction,Conductor*
G04 #@! TO.N,Net-(J6-Pin_4)*
G36*
X122132130Y-65476449D02*
G01*
X122273551Y-65617870D01*
X123472235Y-64831749D01*
X123000707Y-63999293D01*
X122150000Y-63875000D01*
X122132130Y-65476449D01*
G37*
G04 #@! TD.AperFunction*
G04 #@! TD*
G04 #@! TA.AperFunction,Conductor*
G04 #@! TO.N,Net-(J1-Pin_2)*
G36*
X130830967Y-105010757D02*
G01*
X130836447Y-105017839D01*
X130836631Y-105018617D01*
X131000046Y-105835233D01*
X130998309Y-105844018D01*
X130998295Y-105844039D01*
X130534984Y-106535966D01*
X130527533Y-106540933D01*
X130518752Y-106539178D01*
X130517784Y-106538454D01*
X129392700Y-105603507D01*
X129388528Y-105595584D01*
X129388478Y-105594509D01*
X129388478Y-105408940D01*
X129391905Y-105400667D01*
X129397104Y-105397651D01*
X130822086Y-105009624D01*
X130830967Y-105010757D01*
G37*
G04 #@! TD.AperFunction*
G04 #@! TD*
G04 #@! TA.AperFunction,Conductor*
G04 #@! TO.N,GND*
G36*
X133816333Y-97660000D02*
G01*
X133816333Y-98060000D01*
X135027765Y-98566749D01*
X135501000Y-97860000D01*
X135027765Y-97153251D01*
X133816333Y-97660000D01*
G37*
G04 #@! TD.AperFunction*
G04 #@! TD*
G04 #@! TA.AperFunction,Conductor*
G04 #@! TO.N,+3V3*
G36*
X90727115Y-87504294D02*
G01*
X90740549Y-87503334D01*
X90759985Y-87513946D01*
X90781231Y-87520185D01*
X90790049Y-87530362D01*
X90801873Y-87536818D01*
X90812487Y-87556256D01*
X90826986Y-87572989D01*
X90828902Y-87586318D01*
X90835358Y-87598141D01*
X90833778Y-87620228D01*
X90836930Y-87642147D01*
X90831226Y-87655917D01*
X90830374Y-87667833D01*
X90813460Y-87698810D01*
X90806646Y-87707911D01*
X90806645Y-87707913D01*
X90756403Y-87842620D01*
X90756401Y-87842627D01*
X90750000Y-87902155D01*
X90750000Y-88550000D01*
X91666988Y-88550000D01*
X91634075Y-88607007D01*
X91600000Y-88734174D01*
X91600000Y-88865826D01*
X91634075Y-88992993D01*
X91666988Y-89050000D01*
X90750000Y-89050000D01*
X90750000Y-89697844D01*
X90756401Y-89757372D01*
X90756403Y-89757379D01*
X90806645Y-89892086D01*
X90806649Y-89892093D01*
X90892809Y-90007187D01*
X90892812Y-90007190D01*
X91007906Y-90093350D01*
X91007913Y-90093354D01*
X91142620Y-90143596D01*
X91142627Y-90143598D01*
X91202155Y-90149999D01*
X91202172Y-90150000D01*
X91850000Y-90150000D01*
X91850000Y-89233012D01*
X91907007Y-89265925D01*
X92034174Y-89300000D01*
X92165826Y-89300000D01*
X92292993Y-89265925D01*
X92350000Y-89233012D01*
X92350000Y-90150000D01*
X92997828Y-90150000D01*
X92997844Y-90149999D01*
X93057372Y-90143598D01*
X93057379Y-90143596D01*
X93192086Y-90093354D01*
X93192093Y-90093350D01*
X93307187Y-90007190D01*
X93307190Y-90007187D01*
X93393350Y-89892093D01*
X93393354Y-89892086D01*
X93443596Y-89757379D01*
X93443598Y-89757372D01*
X93449999Y-89697844D01*
X93450000Y-89697827D01*
X93450000Y-89050000D01*
X92533012Y-89050000D01*
X92565925Y-88992993D01*
X92600000Y-88865826D01*
X92600000Y-88734174D01*
X92565925Y-88607007D01*
X92533012Y-88550000D01*
X93450000Y-88550000D01*
X93450000Y-88198597D01*
X93469685Y-88131558D01*
X93522489Y-88085803D01*
X93591647Y-88075859D01*
X93655203Y-88104884D01*
X93661681Y-88110916D01*
X95563681Y-90012916D01*
X95597166Y-90074239D01*
X95600000Y-90100597D01*
X95600000Y-100626000D01*
X95580315Y-100693039D01*
X95527511Y-100738794D01*
X95476000Y-100750000D01*
X95170000Y-100750000D01*
X95170000Y-101666988D01*
X95112993Y-101634075D01*
X94985826Y-101600000D01*
X94854174Y-101600000D01*
X94727007Y-101634075D01*
X94670000Y-101666988D01*
X94670000Y-100750000D01*
X94022155Y-100750000D01*
X93962627Y-100756401D01*
X93962620Y-100756403D01*
X93827913Y-100806645D01*
X93827906Y-100806649D01*
X93712812Y-100892809D01*
X93712809Y-100892812D01*
X93626649Y-101007906D01*
X93626645Y-101007913D01*
X93576403Y-101142620D01*
X93576401Y-101142627D01*
X93570000Y-101202155D01*
X93570000Y-101850000D01*
X94486988Y-101850000D01*
X94454075Y-101907007D01*
X94420000Y-102034174D01*
X94420000Y-102165826D01*
X94454075Y-102292993D01*
X94486988Y-102350000D01*
X93570000Y-102350000D01*
X93570000Y-102997844D01*
X93576401Y-103057372D01*
X93576403Y-103057379D01*
X93626645Y-103192086D01*
X93626649Y-103192093D01*
X93712809Y-103307187D01*
X93712812Y-103307190D01*
X93827906Y-103393350D01*
X93827913Y-103393354D01*
X93962620Y-103443596D01*
X93962627Y-103443598D01*
X94022155Y-103449999D01*
X94022172Y-103450000D01*
X94670000Y-103450000D01*
X94670000Y-102533012D01*
X94727007Y-102565925D01*
X94854174Y-102600000D01*
X94985826Y-102600000D01*
X95112993Y-102565925D01*
X95170000Y-102533012D01*
X95170000Y-103450000D01*
X95476000Y-103450000D01*
X95543039Y-103469685D01*
X95588794Y-103522489D01*
X95600000Y-103574000D01*
X95600000Y-113876000D01*
X95580315Y-113943039D01*
X95527511Y-113988794D01*
X95476000Y-114000000D01*
X84150655Y-114000000D01*
X84083616Y-113980315D01*
X84062974Y-113963681D01*
X76882293Y-106783000D01*
X86125000Y-106783000D01*
X86135608Y-106902325D01*
X86135609Y-106902328D01*
X86191557Y-107097861D01*
X86285721Y-107278129D01*
X86414246Y-107435753D01*
X86571870Y-107564278D01*
X86752138Y-107658442D01*
X86947671Y-107714390D01*
X86947674Y-107714391D01*
X87066999Y-107724999D01*
X87067002Y-107725000D01*
X88275000Y-107725000D01*
X88775000Y-107725000D01*
X89982998Y-107725000D01*
X89983000Y-107724999D01*
X90102325Y-107714391D01*
X90102328Y-107714390D01*
X90297861Y-107658442D01*
X90478129Y-107564278D01*
X90635753Y-107435753D01*
X90764278Y-107278129D01*
X90858442Y-107097861D01*
X90914390Y-106902328D01*
X90914391Y-106902325D01*
X90924999Y-106783000D01*
X90925000Y-106782998D01*
X90925000Y-106475000D01*
X88775000Y-106475000D01*
X88775000Y-107725000D01*
X88275000Y-107725000D01*
X88275000Y-106475000D01*
X86125000Y-106475000D01*
X86125000Y-106783000D01*
X76882293Y-106783000D01*
X75766292Y-105666999D01*
X86125000Y-105666999D01*
X86125000Y-105975000D01*
X88275000Y-105975000D01*
X88775000Y-105975000D01*
X90925000Y-105975000D01*
X90925000Y-105667002D01*
X90924999Y-105666999D01*
X90914391Y-105547674D01*
X90914390Y-105547671D01*
X90858442Y-105352138D01*
X90764278Y-105171870D01*
X90635753Y-105014246D01*
X90478129Y-104885721D01*
X90297861Y-104791557D01*
X90102328Y-104735609D01*
X90102325Y-104735608D01*
X89983000Y-104725000D01*
X88775000Y-104725000D01*
X88775000Y-105975000D01*
X88275000Y-105975000D01*
X88275000Y-104725000D01*
X87066999Y-104725000D01*
X86947674Y-104735608D01*
X86947671Y-104735609D01*
X86752138Y-104791557D01*
X86571870Y-104885721D01*
X86414246Y-105014246D01*
X86285721Y-105171870D01*
X86191557Y-105352138D01*
X86135609Y-105547671D01*
X86135608Y-105547674D01*
X86125000Y-105666999D01*
X75766292Y-105666999D01*
X75036819Y-104937526D01*
X75003334Y-104876203D01*
X75000500Y-104849845D01*
X75000500Y-94524983D01*
X82174500Y-94524983D01*
X82174500Y-95925001D01*
X82174501Y-95925018D01*
X82185000Y-96027796D01*
X82185001Y-96027799D01*
X82240185Y-96194331D01*
X82240187Y-96194336D01*
X82332289Y-96343657D01*
X82456345Y-96467713D01*
X82490594Y-96488837D01*
X82537320Y-96540784D01*
X82549500Y-96594377D01*
X82549500Y-96718994D01*
X82549500Y-96718996D01*
X82549499Y-96718996D01*
X82576418Y-96854322D01*
X82576421Y-96854332D01*
X82629222Y-96981807D01*
X82705887Y-97096545D01*
X83628454Y-98019112D01*
X83628457Y-98019114D01*
X83743189Y-98095775D01*
X83850310Y-98140145D01*
X83871747Y-98151603D01*
X83920821Y-98184394D01*
X83920822Y-98184394D01*
X83920823Y-98184395D01*
X83920825Y-98184396D01*
X84066498Y-98244735D01*
X84066503Y-98244737D01*
X84200496Y-98271390D01*
X84221153Y-98275499D01*
X84221156Y-98275500D01*
X84221158Y-98275500D01*
X84378844Y-98275500D01*
X84378845Y-98275499D01*
X84533497Y-98244737D01*
X84552349Y-98236927D01*
X84621817Y-98229458D01*
X84643673Y-98236061D01*
X84804002Y-98282642D01*
X84804005Y-98282642D01*
X84804007Y-98282643D01*
X84840310Y-98285500D01*
X84840318Y-98285500D01*
X85180500Y-98285500D01*
X85189185Y-98288050D01*
X85198147Y-98286762D01*
X85222187Y-98297740D01*
X85247539Y-98305185D01*
X85253466Y-98312025D01*
X85261703Y-98315787D01*
X85275992Y-98338021D01*
X85293294Y-98357989D01*
X85295581Y-98368503D01*
X85299477Y-98374565D01*
X85304500Y-98409500D01*
X85304500Y-98555785D01*
X85284815Y-98622824D01*
X85258188Y-98652431D01*
X85227279Y-98677276D01*
X85227277Y-98677278D01*
X85107969Y-98825704D01*
X85107967Y-98825707D01*
X85023360Y-98996303D01*
X85023357Y-98996311D01*
X85008919Y-99054367D01*
X84973637Y-99114674D01*
X84912779Y-99146057D01*
X84866505Y-99155262D01*
X84866500Y-99155263D01*
X84720827Y-99215602D01*
X84720814Y-99215609D01*
X84589711Y-99303210D01*
X84589707Y-99303213D01*
X84478213Y-99414707D01*
X84478210Y-99414711D01*
X84390609Y-99545814D01*
X84390602Y-99545827D01*
X84330264Y-99691498D01*
X84330261Y-99691510D01*
X84299500Y-99846153D01*
X84299500Y-100003846D01*
X84330261Y-100158489D01*
X84330264Y-100158501D01*
X84390602Y-100304172D01*
X84390609Y-100304185D01*
X84478210Y-100435288D01*
X84478213Y-100435292D01*
X84589707Y-100546786D01*
X84589711Y-100546789D01*
X84720814Y-100634390D01*
X84720827Y-100634397D01*
X84804100Y-100668889D01*
X84866503Y-100694737D01*
X84912776Y-100703941D01*
X84974686Y-100736324D01*
X85008920Y-100795631D01*
X85023360Y-100853697D01*
X85107967Y-101024292D01*
X85107969Y-101024295D01*
X85227277Y-101172721D01*
X85227278Y-101172722D01*
X85375704Y-101292030D01*
X85375707Y-101292032D01*
X85546302Y-101376639D01*
X85546303Y-101376639D01*
X85546307Y-101376641D01*
X85731111Y-101422600D01*
X85773877Y-101425500D01*
X86676122Y-101425499D01*
X86718889Y-101422600D01*
X86903693Y-101376641D01*
X87074296Y-101292030D01*
X87222722Y-101172722D01*
X87278675Y-101103112D01*
X87336015Y-101063196D01*
X87405837Y-101060616D01*
X87465970Y-101096194D01*
X87471967Y-101103115D01*
X87527632Y-101172366D01*
X87527633Y-101172367D01*
X87675974Y-101291607D01*
X87675977Y-101291609D01*
X87846476Y-101376168D01*
X88031175Y-101422102D01*
X88073903Y-101425000D01*
X88275000Y-101425000D01*
X88275000Y-98425000D01*
X88073903Y-98425000D01*
X88031175Y-98427897D01*
X87846476Y-98473831D01*
X87675977Y-98558390D01*
X87675974Y-98558392D01*
X87527635Y-98677631D01*
X87471967Y-98746885D01*
X87414624Y-98786803D01*
X87344801Y-98789383D01*
X87284669Y-98753804D01*
X87278673Y-98746884D01*
X87222722Y-98677278D01*
X87222721Y-98677277D01*
X87074295Y-98557969D01*
X87074292Y-98557967D01*
X86903696Y-98473360D01*
X86903694Y-98473359D01*
X86903693Y-98473359D01*
X86799572Y-98447465D01*
X86739267Y-98412184D01*
X86707608Y-98349898D01*
X86705500Y-98327131D01*
X86705500Y-97989416D01*
X86722769Y-97926294D01*
X86737492Y-97901398D01*
X86737494Y-97901395D01*
X86782643Y-97745993D01*
X86784295Y-97725000D01*
X89061210Y-97725000D01*
X89062854Y-97745910D01*
X89107968Y-97901195D01*
X89190278Y-98040374D01*
X89190285Y-98040383D01*
X89304616Y-98154714D01*
X89304625Y-98154721D01*
X89443804Y-98237031D01*
X89590000Y-98279504D01*
X89590000Y-97725000D01*
X89061210Y-97725000D01*
X86784295Y-97725000D01*
X86785500Y-97709690D01*
X86785500Y-97240310D01*
X86782643Y-97204007D01*
X86737494Y-97048605D01*
X86722766Y-97023702D01*
X86705500Y-96960583D01*
X86705500Y-96695359D01*
X86725185Y-96628320D01*
X86777989Y-96582565D01*
X86790483Y-96577658D01*
X86844334Y-96559814D01*
X86993656Y-96467712D01*
X87117712Y-96343656D01*
X87209814Y-96194334D01*
X87264999Y-96027797D01*
X87270394Y-95974986D01*
X88870001Y-95974986D01*
X88880494Y-96077697D01*
X88935641Y-96244119D01*
X88935643Y-96244124D01*
X89027684Y-96393345D01*
X89151655Y-96517316D01*
X89151659Y-96517319D01*
X89284711Y-96599387D01*
X89331436Y-96651334D01*
X89342657Y-96720297D01*
X89314814Y-96784379D01*
X89307296Y-96792606D01*
X89190282Y-96909620D01*
X89190278Y-96909625D01*
X89107968Y-97048804D01*
X89107966Y-97048809D01*
X89062855Y-97204081D01*
X89062854Y-97204087D01*
X89061209Y-97224999D01*
X89061210Y-97225000D01*
X89590000Y-97225000D01*
X89590000Y-96659000D01*
X89609685Y-96591961D01*
X89662489Y-96546206D01*
X89689717Y-96540282D01*
X89695000Y-96535000D01*
X89695000Y-95525000D01*
X88870001Y-95525000D01*
X88870001Y-95974986D01*
X87270394Y-95974986D01*
X87275500Y-95925009D01*
X87275499Y-95025000D01*
X87275499Y-94575013D01*
X88870000Y-94575013D01*
X88870000Y-95025000D01*
X89695000Y-95025000D01*
X90195000Y-95025000D01*
X91019999Y-95025000D01*
X91019999Y-94575028D01*
X91019998Y-94575013D01*
X91009505Y-94472302D01*
X90954358Y-94305880D01*
X90954356Y-94305875D01*
X90862315Y-94156654D01*
X90738345Y-94032684D01*
X90589124Y-93940643D01*
X90589119Y-93940641D01*
X90422697Y-93885494D01*
X90422690Y-93885493D01*
X90319986Y-93875000D01*
X90195000Y-93875000D01*
X90195000Y-95025000D01*
X89695000Y-95025000D01*
X89695000Y-93875000D01*
X89570027Y-93875000D01*
X89570012Y-93875001D01*
X89467302Y-93885494D01*
X89300880Y-93940641D01*
X89300875Y-93940643D01*
X89151654Y-94032684D01*
X89027684Y-94156654D01*
X88935643Y-94305875D01*
X88935641Y-94305880D01*
X88880494Y-94472302D01*
X88880493Y-94472309D01*
X88870000Y-94575013D01*
X87275499Y-94575013D01*
X87275499Y-94571864D01*
X87275499Y-94524998D01*
X87275498Y-94524981D01*
X87264999Y-94422203D01*
X87264998Y-94422200D01*
X87226453Y-94305880D01*
X87209814Y-94255666D01*
X87117712Y-94106344D01*
X87036819Y-94025451D01*
X87003334Y-93964128D01*
X87000500Y-93937770D01*
X87000500Y-93821155D01*
X87000499Y-93821153D01*
X86969738Y-93666510D01*
X86969737Y-93666503D01*
X86967664Y-93661498D01*
X86909397Y-93520827D01*
X86909390Y-93520814D01*
X86821789Y-93389711D01*
X86821786Y-93389707D01*
X86710292Y-93278213D01*
X86710288Y-93278210D01*
X86579185Y-93190609D01*
X86579172Y-93190602D01*
X86433501Y-93130264D01*
X86433489Y-93130261D01*
X86278845Y-93099500D01*
X86278842Y-93099500D01*
X86121158Y-93099500D01*
X86121155Y-93099500D01*
X85966510Y-93130261D01*
X85966498Y-93130264D01*
X85820827Y-93190602D01*
X85820814Y-93190609D01*
X85689711Y-93278210D01*
X85689707Y-93278213D01*
X85578213Y-93389707D01*
X85578210Y-93389711D01*
X85490609Y-93520814D01*
X85490602Y-93520827D01*
X85430264Y-93666498D01*
X85430261Y-93666510D01*
X85399500Y-93821153D01*
X85399500Y-93937768D01*
X85379815Y-94004807D01*
X85363182Y-94025448D01*
X85282291Y-94106340D01*
X85282289Y-94106342D01*
X85282288Y-94106344D01*
X85251448Y-94156344D01*
X85190187Y-94255663D01*
X85190185Y-94255668D01*
X85173617Y-94305668D01*
X85135001Y-94422203D01*
X85135001Y-94422204D01*
X85135000Y-94422204D01*
X85124500Y-94524983D01*
X85124500Y-95925001D01*
X85124501Y-95925018D01*
X85135000Y-96027796D01*
X85135001Y-96027799D01*
X85190185Y-96194331D01*
X85190187Y-96194336D01*
X85206325Y-96220500D01*
X85282288Y-96343656D01*
X85282289Y-96343657D01*
X85286039Y-96349736D01*
X85290735Y-96366295D01*
X85299477Y-96379898D01*
X85304500Y-96414833D01*
X85304500Y-96540500D01*
X85284815Y-96607539D01*
X85232011Y-96653294D01*
X85180500Y-96664500D01*
X84840302Y-96664500D01*
X84804008Y-96667356D01*
X84804002Y-96667357D01*
X84641114Y-96714682D01*
X84640725Y-96713343D01*
X84579686Y-96720868D01*
X84552353Y-96713073D01*
X84533498Y-96705263D01*
X84533488Y-96705260D01*
X84378845Y-96674500D01*
X84378842Y-96674500D01*
X84316519Y-96674500D01*
X84287078Y-96665855D01*
X84257092Y-96659332D01*
X84252076Y-96655577D01*
X84249480Y-96654815D01*
X84228838Y-96638181D01*
X84138693Y-96548036D01*
X84105208Y-96486713D01*
X84110192Y-96417021D01*
X84138691Y-96372675D01*
X84167712Y-96343656D01*
X84259814Y-96194334D01*
X84314999Y-96027797D01*
X84325500Y-95925009D01*
X84325499Y-94524992D01*
X84314999Y-94422203D01*
X84259814Y-94255666D01*
X84167712Y-94106344D01*
X84086819Y-94025451D01*
X84053334Y-93964128D01*
X84050500Y-93937770D01*
X84050500Y-93821155D01*
X84050499Y-93821153D01*
X84019738Y-93666510D01*
X84019737Y-93666503D01*
X84017664Y-93661498D01*
X83959397Y-93520827D01*
X83959390Y-93520814D01*
X83871789Y-93389711D01*
X83871786Y-93389707D01*
X83760292Y-93278213D01*
X83760288Y-93278210D01*
X83629185Y-93190609D01*
X83629172Y-93190602D01*
X83483501Y-93130264D01*
X83483489Y-93130261D01*
X83328845Y-93099500D01*
X83328842Y-93099500D01*
X83171158Y-93099500D01*
X83171155Y-93099500D01*
X83016510Y-93130261D01*
X83016498Y-93130264D01*
X82870827Y-93190602D01*
X82870814Y-93190609D01*
X82739711Y-93278210D01*
X82739707Y-93278213D01*
X82628213Y-93389707D01*
X82628210Y-93389711D01*
X82540609Y-93520814D01*
X82540602Y-93520827D01*
X82480264Y-93666498D01*
X82480261Y-93666510D01*
X82449500Y-93821153D01*
X82449500Y-93937768D01*
X82429815Y-94004807D01*
X82413182Y-94025448D01*
X82332291Y-94106340D01*
X82332289Y-94106342D01*
X82332288Y-94106344D01*
X82301448Y-94156344D01*
X82240187Y-94255663D01*
X82240185Y-94255668D01*
X82223617Y-94305668D01*
X82185001Y-94422203D01*
X82185001Y-94422204D01*
X82185000Y-94422204D01*
X82174500Y-94524983D01*
X75000500Y-94524983D01*
X75000500Y-92200000D01*
X85120069Y-92200000D01*
X85122832Y-92235122D01*
X85122833Y-92235128D01*
X85167592Y-92389188D01*
X85167593Y-92389191D01*
X85249261Y-92527285D01*
X85249268Y-92527294D01*
X85362705Y-92640731D01*
X85362714Y-92640738D01*
X85500805Y-92722404D01*
X85640000Y-92762844D01*
X85640000Y-92200000D01*
X85120069Y-92200000D01*
X75000500Y-92200000D01*
X75000500Y-91700819D01*
X86139500Y-91700819D01*
X86139500Y-91701905D01*
X86139500Y-91701906D01*
X86139501Y-91950000D01*
X86139501Y-92199181D01*
X86139618Y-92200663D01*
X86140000Y-92210393D01*
X86140000Y-92762844D01*
X86279194Y-92722405D01*
X86279196Y-92722404D01*
X86336386Y-92688582D01*
X86404109Y-92671398D01*
X86462629Y-92688581D01*
X86520607Y-92722869D01*
X86561268Y-92734682D01*
X86674791Y-92767664D01*
X86674794Y-92767664D01*
X86674796Y-92767665D01*
X86710819Y-92770500D01*
X87109180Y-92770499D01*
X87145204Y-92767665D01*
X87299393Y-92722869D01*
X87437598Y-92641135D01*
X87491915Y-92586817D01*
X87553236Y-92553334D01*
X87579595Y-92550500D01*
X88960974Y-92550500D01*
X89028013Y-92570185D01*
X89066512Y-92609403D01*
X89125716Y-92705387D01*
X89125719Y-92705391D01*
X89244608Y-92824280D01*
X89244612Y-92824283D01*
X89387704Y-92912544D01*
X89387707Y-92912545D01*
X89387713Y-92912549D01*
X89547315Y-92965436D01*
X89645826Y-92975500D01*
X89645831Y-92975500D01*
X90179169Y-92975500D01*
X90179174Y-92975500D01*
X90277685Y-92965436D01*
X90437287Y-92912549D01*
X90580391Y-92824281D01*
X90612319Y-92792353D01*
X90673642Y-92758868D01*
X90743334Y-92763852D01*
X90787681Y-92792353D01*
X90819608Y-92824280D01*
X90819612Y-92824283D01*
X90962704Y-92912544D01*
X90962707Y-92912545D01*
X90962713Y-92912549D01*
X91122315Y-92965436D01*
X91220826Y-92975500D01*
X91220831Y-92975500D01*
X91754169Y-92975500D01*
X91754174Y-92975500D01*
X91852685Y-92965436D01*
X92012287Y-92912549D01*
X92105404Y-92855113D01*
X92172795Y-92836673D01*
X92239458Y-92857595D01*
X92284228Y-92911237D01*
X92294500Y-92960652D01*
X92294500Y-93315234D01*
X92274815Y-93382273D01*
X92273602Y-93384125D01*
X92185609Y-93515814D01*
X92185602Y-93515827D01*
X92125264Y-93661498D01*
X92125261Y-93661510D01*
X92094500Y-93816153D01*
X92094500Y-93973844D01*
X92094606Y-93974922D01*
X92094500Y-93975480D01*
X92094500Y-93979934D01*
X92093655Y-93979934D01*
X92081582Y-94043567D01*
X92058884Y-94074748D01*
X91977287Y-94156345D01*
X91885187Y-94305663D01*
X91885185Y-94305668D01*
X91885115Y-94305880D01*
X91830001Y-94472203D01*
X91830001Y-94472204D01*
X91830000Y-94472204D01*
X91819500Y-94574983D01*
X91819500Y-95975001D01*
X91819501Y-95975018D01*
X91830000Y-96077796D01*
X91830001Y-96077799D01*
X91868618Y-96194336D01*
X91885186Y-96244334D01*
X91977096Y-96393345D01*
X91977289Y-96393657D01*
X92106451Y-96522819D01*
X92104798Y-96524471D01*
X92107688Y-96528554D01*
X92120667Y-96538270D01*
X92127459Y-96556481D01*
X92138691Y-96572346D01*
X92139418Y-96588543D01*
X92145084Y-96603734D01*
X92140952Y-96622726D01*
X92141824Y-96642146D01*
X92133522Y-96656879D01*
X92130232Y-96672007D01*
X92109081Y-96700261D01*
X92083415Y-96725927D01*
X92022092Y-96759412D01*
X91952400Y-96754428D01*
X91948282Y-96752807D01*
X91833501Y-96705264D01*
X91833489Y-96705261D01*
X91678845Y-96674500D01*
X91678842Y-96674500D01*
X91521158Y-96674500D01*
X91521155Y-96674500D01*
X91366511Y-96705260D01*
X91366502Y-96705263D01*
X91316500Y-96725974D01*
X91247031Y-96733441D01*
X91205929Y-96718144D01*
X91196396Y-96712506D01*
X91196390Y-96712504D01*
X91040997Y-96667357D01*
X91040991Y-96667356D01*
X91004697Y-96664500D01*
X91004690Y-96664500D01*
X90890523Y-96664500D01*
X90823484Y-96644815D01*
X90777729Y-96592011D01*
X90767785Y-96522853D01*
X90796810Y-96459297D01*
X90802842Y-96452819D01*
X90862315Y-96393345D01*
X90954356Y-96244124D01*
X90954358Y-96244119D01*
X91009505Y-96077697D01*
X91009506Y-96077690D01*
X91019999Y-95974986D01*
X91020000Y-95974973D01*
X91020000Y-95525000D01*
X90195000Y-95525000D01*
X90195000Y-96681000D01*
X90175315Y-96748039D01*
X90122511Y-96793794D01*
X90095282Y-96799717D01*
X90090000Y-96805000D01*
X90090000Y-96976645D01*
X90072734Y-97039763D01*
X90067507Y-97048600D01*
X90067504Y-97048608D01*
X90022357Y-97204002D01*
X90022356Y-97204008D01*
X90019500Y-97240302D01*
X90019500Y-97709697D01*
X90022356Y-97745991D01*
X90022357Y-97745997D01*
X90067504Y-97901390D01*
X90067504Y-97901392D01*
X90067506Y-97901395D01*
X90072730Y-97910229D01*
X90090000Y-97973352D01*
X90090000Y-98303089D01*
X90091741Y-98305422D01*
X90092734Y-98310949D01*
X90094477Y-98313661D01*
X90099500Y-98348596D01*
X90099500Y-98419658D01*
X90079815Y-98486697D01*
X90030595Y-98530746D01*
X89975704Y-98557969D01*
X89827280Y-98677276D01*
X89827278Y-98677278D01*
X89799625Y-98711678D01*
X89771326Y-98746885D01*
X89713982Y-98786803D01*
X89644160Y-98789383D01*
X89584027Y-98753804D01*
X89578031Y-98746884D01*
X89522364Y-98677630D01*
X89374025Y-98558392D01*
X89374022Y-98558390D01*
X89203523Y-98473831D01*
X89018824Y-98427897D01*
X88976097Y-98425000D01*
X88775000Y-98425000D01*
X88775000Y-101425000D01*
X88976097Y-101425000D01*
X89018824Y-101422102D01*
X89203523Y-101376168D01*
X89374022Y-101291609D01*
X89374025Y-101291607D01*
X89522366Y-101172367D01*
X89522367Y-101172366D01*
X89578033Y-101103115D01*
X89635376Y-101063196D01*
X89705198Y-101060616D01*
X89765331Y-101096194D01*
X89771305Y-101103089D01*
X89827278Y-101172722D01*
X89827280Y-101172724D01*
X89975704Y-101292030D01*
X89975707Y-101292032D01*
X90146302Y-101376639D01*
X90146303Y-101376639D01*
X90146307Y-101376641D01*
X90331111Y-101422600D01*
X90373877Y-101425500D01*
X91276122Y-101425499D01*
X91318889Y-101422600D01*
X91503693Y-101376641D01*
X91674296Y-101292030D01*
X91822722Y-101172722D01*
X91942030Y-101024296D01*
X92026641Y-100853693D01*
X92029920Y-100840506D01*
X92035127Y-100819573D01*
X92070409Y-100759266D01*
X92132695Y-100727608D01*
X92147793Y-100726210D01*
X92147782Y-100726097D01*
X92153836Y-100725500D01*
X92153842Y-100725500D01*
X92308497Y-100694737D01*
X92454179Y-100634394D01*
X92585289Y-100546789D01*
X92696789Y-100435289D01*
X92784394Y-100304179D01*
X92844737Y-100158497D01*
X92875500Y-100003842D01*
X92875500Y-99846158D01*
X92875500Y-99846155D01*
X92875499Y-99846153D01*
X92844738Y-99691510D01*
X92844737Y-99691503D01*
X92844735Y-99691498D01*
X92784397Y-99545827D01*
X92784390Y-99545814D01*
X92696789Y-99414711D01*
X92696786Y-99414707D01*
X92585292Y-99303213D01*
X92585288Y-99303210D01*
X92454185Y-99215609D01*
X92454172Y-99215602D01*
X92308501Y-99155264D01*
X92308489Y-99155261D01*
X92153846Y-99124500D01*
X92147782Y-99123903D01*
X92147940Y-99122291D01*
X92088422Y-99104815D01*
X92042667Y-99052011D01*
X92035127Y-99030427D01*
X92026642Y-98996312D01*
X92026642Y-98996311D01*
X92026641Y-98996307D01*
X91984335Y-98911005D01*
X91942032Y-98825707D01*
X91942030Y-98825704D01*
X91822722Y-98677278D01*
X91822721Y-98677277D01*
X91674295Y-98557969D01*
X91578759Y-98510588D01*
X91527447Y-98463167D01*
X91509918Y-98395532D01*
X91531737Y-98329157D01*
X91585978Y-98285115D01*
X91633854Y-98275500D01*
X91678844Y-98275500D01*
X91678845Y-98275499D01*
X91833497Y-98244737D01*
X91908963Y-98213478D01*
X91977864Y-98184939D01*
X92025316Y-98175500D01*
X92393996Y-98175500D01*
X92485040Y-98157389D01*
X92529328Y-98148580D01*
X92593069Y-98122177D01*
X92656807Y-98095777D01*
X92656808Y-98095776D01*
X92656811Y-98095775D01*
X92771543Y-98019114D01*
X93439114Y-97351543D01*
X93515775Y-97236811D01*
X93520668Y-97225000D01*
X93568578Y-97109332D01*
X93568580Y-97109328D01*
X93595500Y-96973994D01*
X93595500Y-96836006D01*
X93595500Y-96644377D01*
X93615185Y-96577338D01*
X93654406Y-96538837D01*
X93688656Y-96517712D01*
X93812712Y-96393656D01*
X93904814Y-96244334D01*
X93959999Y-96077797D01*
X93970500Y-95975009D01*
X93970499Y-94574992D01*
X93970179Y-94571864D01*
X93959999Y-94472203D01*
X93959998Y-94472200D01*
X93943431Y-94422204D01*
X93904814Y-94305666D01*
X93812712Y-94156344D01*
X93731115Y-94074747D01*
X93697631Y-94013423D01*
X93695687Y-93979934D01*
X93695500Y-93979934D01*
X93695500Y-93976710D01*
X93695395Y-93974902D01*
X93695498Y-93973847D01*
X93695500Y-93973842D01*
X93695500Y-93816158D01*
X93695500Y-93816155D01*
X93695499Y-93816153D01*
X93665733Y-93666510D01*
X93664737Y-93661503D01*
X93606468Y-93520827D01*
X93604397Y-93515827D01*
X93604390Y-93515814D01*
X93516398Y-93384125D01*
X93495520Y-93317447D01*
X93495500Y-93315234D01*
X93495500Y-92515941D01*
X93493794Y-92509575D01*
X93493793Y-92509573D01*
X93491960Y-92502732D01*
X93454577Y-92363215D01*
X93420489Y-92304174D01*
X93420489Y-92304172D01*
X93375524Y-92226290D01*
X93375521Y-92226286D01*
X93375520Y-92226284D01*
X93263716Y-92114480D01*
X93263715Y-92114479D01*
X93259385Y-92110149D01*
X93259374Y-92110139D01*
X92787590Y-91638355D01*
X92787588Y-91638352D01*
X92668717Y-91519481D01*
X92668716Y-91519480D01*
X92581904Y-91469360D01*
X92531785Y-91440423D01*
X92379057Y-91399499D01*
X92377828Y-91399499D01*
X92369422Y-91396530D01*
X92344846Y-91378794D01*
X92318966Y-91363019D01*
X92314183Y-91356664D01*
X92312766Y-91355642D01*
X92312058Y-91353842D01*
X92305182Y-91344706D01*
X92274283Y-91294612D01*
X92274280Y-91294608D01*
X92155391Y-91175719D01*
X92155387Y-91175716D01*
X92012295Y-91087455D01*
X92012289Y-91087452D01*
X92012287Y-91087451D01*
X91852685Y-91034564D01*
X91852683Y-91034563D01*
X91754181Y-91024500D01*
X91754174Y-91024500D01*
X91220826Y-91024500D01*
X91220818Y-91024500D01*
X91122316Y-91034563D01*
X91122315Y-91034564D01*
X91043219Y-91060773D01*
X90962715Y-91087450D01*
X90962704Y-91087455D01*
X90819612Y-91175716D01*
X90819608Y-91175719D01*
X90787681Y-91207647D01*
X90726358Y-91241132D01*
X90656666Y-91236148D01*
X90612319Y-91207647D01*
X90580391Y-91175719D01*
X90580387Y-91175716D01*
X90437295Y-91087455D01*
X90437289Y-91087452D01*
X90437287Y-91087451D01*
X90277685Y-91034564D01*
X90277683Y-91034563D01*
X90179181Y-91024500D01*
X90179174Y-91024500D01*
X89645826Y-91024500D01*
X89645818Y-91024500D01*
X89547316Y-91034563D01*
X89547315Y-91034564D01*
X89468219Y-91060773D01*
X89387715Y-91087450D01*
X89387704Y-91087455D01*
X89244612Y-91175716D01*
X89244608Y-91175719D01*
X89125719Y-91294608D01*
X89121238Y-91300276D01*
X89119213Y-91298675D01*
X89076241Y-91337324D01*
X89022655Y-91349500D01*
X87579595Y-91349500D01*
X87512556Y-91329815D01*
X87491918Y-91313185D01*
X87437598Y-91258865D01*
X87299393Y-91177131D01*
X87299388Y-91177129D01*
X87145208Y-91132335D01*
X87145202Y-91132334D01*
X87109181Y-91129500D01*
X86710830Y-91129500D01*
X86710808Y-91129501D01*
X86674794Y-91132335D01*
X86520611Y-91177129D01*
X86520607Y-91177130D01*
X86462628Y-91211419D01*
X86394903Y-91228600D01*
X86336388Y-91211419D01*
X86279189Y-91177592D01*
X86279188Y-91177591D01*
X86140001Y-91137153D01*
X86140000Y-91137154D01*
X86140000Y-91689591D01*
X86139747Y-91696020D01*
X86139800Y-91696630D01*
X86139722Y-91697988D01*
X86139500Y-91700819D01*
X75000500Y-91700819D01*
X75000500Y-91700000D01*
X85120069Y-91700000D01*
X85640000Y-91700000D01*
X85640000Y-91137154D01*
X85639998Y-91137153D01*
X85500811Y-91177591D01*
X85500808Y-91177593D01*
X85362714Y-91259261D01*
X85362705Y-91259268D01*
X85249268Y-91372705D01*
X85249261Y-91372714D01*
X85167593Y-91510808D01*
X85167592Y-91510811D01*
X85122833Y-91664871D01*
X85122832Y-91664877D01*
X85120069Y-91700000D01*
X75000500Y-91700000D01*
X75000500Y-90800097D01*
X75020185Y-90733058D01*
X75036819Y-90712416D01*
X75067450Y-90681785D01*
X75314662Y-90434572D01*
X75375983Y-90401089D01*
X75378150Y-90400638D01*
X75436085Y-90389113D01*
X75533497Y-90369737D01*
X75679179Y-90309394D01*
X75810289Y-90221789D01*
X75921789Y-90110289D01*
X76009394Y-89979179D01*
X76069737Y-89833497D01*
X76100500Y-89678842D01*
X76100500Y-89521158D01*
X76084823Y-89442346D01*
X76085530Y-89434443D01*
X76082756Y-89427005D01*
X76088598Y-89400143D01*
X76091049Y-89372758D01*
X76096298Y-89364748D01*
X76097607Y-89358732D01*
X76118754Y-89330482D01*
X76118758Y-89330477D01*
X76180520Y-89268716D01*
X76180521Y-89268713D01*
X77912416Y-87536819D01*
X77973739Y-87503334D01*
X78000097Y-87500500D01*
X90714192Y-87500500D01*
X90727115Y-87504294D01*
G37*
G04 #@! TD.AperFunction*
G04 #@! TD*
G04 #@! TA.AperFunction,Conductor*
G04 #@! TO.N,Net-(J13-Pin_2)*
G36*
X72600000Y-112191333D02*
G01*
X72400000Y-112191333D01*
X71793251Y-113402765D01*
X72500000Y-114001000D01*
X73206749Y-113402765D01*
X72600000Y-112191333D01*
G37*
G04 #@! TD.AperFunction*
G04 #@! TD*
G04 #@! TA.AperFunction,Conductor*
G04 #@! TO.N,GND*
G36*
X100240000Y-108316333D02*
G01*
X99840000Y-108316333D01*
X99333251Y-109527765D01*
X100040000Y-110001000D01*
X100746749Y-109527765D01*
X100240000Y-108316333D01*
G37*
G04 #@! TD.AperFunction*
G04 #@! TD*
G04 #@! TA.AperFunction,Conductor*
G04 #@! TO.N,Net-(J6-Pin_6)*
G36*
X116676257Y-65182322D02*
G01*
X116817678Y-65323743D01*
X118165827Y-64958667D01*
X118000707Y-63999293D01*
X117166333Y-63709173D01*
X116676257Y-65182322D01*
G37*
G04 #@! TD.AperFunction*
G04 #@! TD*
G04 #@! TA.AperFunction,Conductor*
G04 #@! TO.N,Net-(J4-Pin_6)*
G36*
X133800000Y-100200000D02*
G01*
X133800000Y-100600000D01*
X134650000Y-101250000D01*
X135501000Y-100400000D01*
X134650000Y-99550000D01*
X133800000Y-100200000D01*
G37*
G04 #@! TD.AperFunction*
G04 #@! TD*
G04 #@! TA.AperFunction,Conductor*
G04 #@! TO.N,Net-(J14-Pin_1)*
G36*
X58552246Y-110052912D02*
G01*
X58554910Y-110054904D01*
X59000529Y-110500000D01*
X59391431Y-110890442D01*
X59394863Y-110898713D01*
X59391441Y-110906988D01*
X59390166Y-110908093D01*
X58558955Y-111529121D01*
X58550276Y-111531327D01*
X58542907Y-111527170D01*
X57702655Y-110503235D01*
X57700000Y-110495813D01*
X57700000Y-110308754D01*
X57703427Y-110300481D01*
X57708396Y-110297530D01*
X58543342Y-110051958D01*
X58552246Y-110052912D01*
G37*
G04 #@! TD.AperFunction*
G04 #@! TD*
G04 #@! TA.AperFunction,Conductor*
G04 #@! TO.N,Net-(J6-Pin_7)*
G36*
X114176257Y-65182322D02*
G01*
X114317678Y-65323743D01*
X115665827Y-64958667D01*
X115500707Y-63999293D01*
X114666333Y-63709173D01*
X114176257Y-65182322D01*
G37*
G04 #@! TD.AperFunction*
G04 #@! TD*
G04 #@! TA.AperFunction,Conductor*
G04 #@! TO.N,Net-(J2-Pin_8)*
G36*
X106774451Y-111113030D02*
G01*
X106633030Y-111254451D01*
X106826333Y-112705827D01*
X107660707Y-112540707D01*
X108132235Y-111833251D01*
X106774451Y-111113030D01*
G37*
G04 #@! TD.AperFunction*
G04 #@! TD*
G04 #@! TA.AperFunction,Conductor*
G04 #@! TO.N,Net-(J4-Pin_1)*
G36*
X133994582Y-88363997D02*
G01*
X134136003Y-88505418D01*
X135334173Y-88533667D01*
X135500707Y-87699293D01*
X134793251Y-87227765D01*
X133994582Y-88363997D01*
G37*
G04 #@! TD.AperFunction*
G04 #@! TD*
G04 #@! TA.AperFunction,Conductor*
G04 #@! TO.N,GND*
G36*
X63543039Y-71619685D02*
G01*
X63588794Y-71672489D01*
X63600000Y-71724000D01*
X63600000Y-77276000D01*
X63580315Y-77343039D01*
X63527511Y-77388794D01*
X63476000Y-77400000D01*
X57924000Y-77400000D01*
X57856961Y-77380315D01*
X57811206Y-77327511D01*
X57800000Y-77276000D01*
X57800000Y-76289324D01*
X58350001Y-76289324D01*
X58365442Y-76406628D01*
X58365444Y-76406633D01*
X58425899Y-76552585D01*
X58522075Y-76677924D01*
X58647413Y-76774100D01*
X58793365Y-76834554D01*
X58793369Y-76834555D01*
X58910676Y-76849999D01*
X59049999Y-76849999D01*
X59550000Y-76849999D01*
X59689324Y-76849999D01*
X59806628Y-76834557D01*
X59806630Y-76834556D01*
X59952547Y-76774116D01*
X60022017Y-76766647D01*
X60047452Y-76774116D01*
X60193365Y-76834554D01*
X60193369Y-76834555D01*
X60310676Y-76849999D01*
X60449999Y-76849999D01*
X60950000Y-76849999D01*
X61089324Y-76849999D01*
X61206628Y-76834557D01*
X61206630Y-76834556D01*
X61352547Y-76774116D01*
X61422017Y-76766647D01*
X61447452Y-76774116D01*
X61593365Y-76834554D01*
X61593369Y-76834555D01*
X61710676Y-76849999D01*
X61849999Y-76849999D01*
X62350000Y-76849999D01*
X62489324Y-76849999D01*
X62606628Y-76834557D01*
X62606633Y-76834555D01*
X62752585Y-76774100D01*
X62877924Y-76677924D01*
X62974100Y-76552586D01*
X63034554Y-76406634D01*
X63034555Y-76406630D01*
X63049999Y-76289330D01*
X63050000Y-76289316D01*
X63050000Y-76150000D01*
X62350000Y-76150000D01*
X62350000Y-76849999D01*
X61849999Y-76849999D01*
X61850000Y-76849998D01*
X61850000Y-76150000D01*
X60950000Y-76150000D01*
X60950000Y-76849999D01*
X60449999Y-76849999D01*
X60450000Y-76849998D01*
X60450000Y-76150000D01*
X59550000Y-76150000D01*
X59550000Y-76849999D01*
X59049999Y-76849999D01*
X59050000Y-76849998D01*
X59050000Y-76150000D01*
X58350001Y-76150000D01*
X58350001Y-76289324D01*
X57800000Y-76289324D01*
X57800000Y-75510669D01*
X58350000Y-75510669D01*
X58350000Y-75650000D01*
X59050000Y-75650000D01*
X59550000Y-75650000D01*
X60450000Y-75650000D01*
X60950000Y-75650000D01*
X61850000Y-75650000D01*
X62350000Y-75650000D01*
X63049999Y-75650000D01*
X63049999Y-75510675D01*
X63034557Y-75393371D01*
X63034555Y-75393366D01*
X62974116Y-75247451D01*
X62966647Y-75177982D01*
X62974116Y-75152546D01*
X63034555Y-75006631D01*
X63034555Y-75006630D01*
X63049999Y-74889330D01*
X63050000Y-74889316D01*
X63050000Y-74750000D01*
X62350000Y-74750000D01*
X62350000Y-75650000D01*
X61850000Y-75650000D01*
X61850000Y-74750000D01*
X60950000Y-74750000D01*
X60950000Y-75650000D01*
X60450000Y-75650000D01*
X60450000Y-74750000D01*
X59550000Y-74750000D01*
X59550000Y-75650000D01*
X59050000Y-75650000D01*
X59050000Y-74750000D01*
X58350001Y-74750000D01*
X58350001Y-74889324D01*
X58365442Y-75006628D01*
X58365444Y-75006633D01*
X58425883Y-75152548D01*
X58433352Y-75222017D01*
X58425884Y-75247452D01*
X58365443Y-75393371D01*
X58350000Y-75510669D01*
X57800000Y-75510669D01*
X57800000Y-74110669D01*
X58350000Y-74110669D01*
X58350000Y-74250000D01*
X59050000Y-74250000D01*
X59550000Y-74250000D01*
X60450000Y-74250000D01*
X60950000Y-74250000D01*
X61850000Y-74250000D01*
X62350000Y-74250000D01*
X63049999Y-74250000D01*
X63049999Y-74110675D01*
X63034557Y-73993371D01*
X63034555Y-73993366D01*
X62974116Y-73847451D01*
X62966647Y-73777982D01*
X62974116Y-73752546D01*
X63034555Y-73606631D01*
X63034555Y-73606630D01*
X63049999Y-73489330D01*
X63050000Y-73489316D01*
X63050000Y-73350000D01*
X62350000Y-73350000D01*
X62350000Y-74250000D01*
X61850000Y-74250000D01*
X61850000Y-73350000D01*
X60950000Y-73350000D01*
X60950000Y-74250000D01*
X60450000Y-74250000D01*
X60450000Y-73350000D01*
X59550000Y-73350000D01*
X59550000Y-74250000D01*
X59050000Y-74250000D01*
X59050000Y-73350000D01*
X58350001Y-73350000D01*
X58350001Y-73489324D01*
X58365442Y-73606628D01*
X58365444Y-73606633D01*
X58425883Y-73752548D01*
X58433352Y-73822017D01*
X58425884Y-73847452D01*
X58365443Y-73993371D01*
X58350000Y-74110669D01*
X57800000Y-74110669D01*
X57800000Y-72710669D01*
X58350000Y-72710669D01*
X58350000Y-72850000D01*
X59050000Y-72850000D01*
X59550000Y-72850000D01*
X60450000Y-72850000D01*
X60950000Y-72850000D01*
X61850000Y-72850000D01*
X62350000Y-72850000D01*
X63049999Y-72850000D01*
X63049999Y-72710675D01*
X63034557Y-72593371D01*
X63034555Y-72593366D01*
X62974100Y-72447414D01*
X62877924Y-72322075D01*
X62752586Y-72225899D01*
X62606634Y-72165445D01*
X62606630Y-72165444D01*
X62489330Y-72150000D01*
X62350000Y-72150000D01*
X62350000Y-72850000D01*
X61850000Y-72850000D01*
X61850000Y-72150000D01*
X61710676Y-72150000D01*
X61593371Y-72165442D01*
X61593366Y-72165444D01*
X61447451Y-72225883D01*
X61377981Y-72233352D01*
X61352547Y-72225883D01*
X61206634Y-72165445D01*
X61206630Y-72165444D01*
X61089330Y-72150000D01*
X60950000Y-72150000D01*
X60950000Y-72850000D01*
X60450000Y-72850000D01*
X60450000Y-72150000D01*
X60310676Y-72150000D01*
X60193371Y-72165442D01*
X60193366Y-72165444D01*
X60047451Y-72225883D01*
X59977981Y-72233352D01*
X59952547Y-72225883D01*
X59806634Y-72165445D01*
X59806630Y-72165444D01*
X59689330Y-72150000D01*
X59550000Y-72150000D01*
X59550000Y-72850000D01*
X59050000Y-72850000D01*
X59050000Y-72150000D01*
X58910676Y-72150000D01*
X58793371Y-72165442D01*
X58793366Y-72165444D01*
X58647414Y-72225899D01*
X58522075Y-72322075D01*
X58425899Y-72447413D01*
X58365445Y-72593365D01*
X58365444Y-72593369D01*
X58350000Y-72710669D01*
X57800000Y-72710669D01*
X57800000Y-71724000D01*
X57819685Y-71656961D01*
X57872489Y-71611206D01*
X57924000Y-71600000D01*
X63476000Y-71600000D01*
X63543039Y-71619685D01*
G37*
G04 #@! TD.AperFunction*
G04 #@! TD*
G04 #@! TA.AperFunction,Conductor*
G04 #@! TO.N,Net-(J3-Pin_1)*
G36*
X55942282Y-100100000D02*
G01*
X55942282Y-99900000D01*
X54565827Y-99541333D01*
X54399000Y-100375000D01*
X54872235Y-101081749D01*
X55942282Y-100100000D01*
G37*
G04 #@! TD.AperFunction*
G04 #@! TD*
G04 #@! TA.AperFunction,Conductor*
G04 #@! TO.N,Net-(J4-Pin_6)*
G36*
X128033667Y-97760000D02*
G01*
X128033667Y-97360000D01*
X126822235Y-96853251D01*
X126349000Y-97560000D01*
X126822235Y-98266749D01*
X128033667Y-97760000D01*
G37*
G04 #@! TD.AperFunction*
G04 #@! TD*
G04 #@! TA.AperFunction,Conductor*
G04 #@! TO.N,Net-(J2-Pin_3)*
G36*
X105241587Y-108399833D02*
G01*
X105100167Y-108258413D01*
X104413251Y-109527765D01*
X105119293Y-110000707D01*
X105826749Y-109527765D01*
X105241587Y-108399833D01*
G37*
G04 #@! TD.AperFunction*
G04 #@! TD*
G04 #@! TA.AperFunction,Conductor*
G04 #@! TO.N,+5V*
G36*
X76684733Y-113920000D02*
G01*
X76684733Y-113520000D01*
X75285264Y-113090805D01*
X74999000Y-114000000D01*
X75530644Y-114773339D01*
X76684733Y-113920000D01*
G37*
G04 #@! TD.AperFunction*
G04 #@! TD*
G04 #@! TA.AperFunction,Conductor*
G04 #@! TO.N,GND*
G36*
X56083667Y-90415000D02*
G01*
X56083667Y-90015000D01*
X54872235Y-89508251D01*
X54399000Y-90215000D01*
X54872235Y-90921749D01*
X56083667Y-90415000D01*
G37*
G04 #@! TD.AperFunction*
G04 #@! TD*
G04 #@! TA.AperFunction,Conductor*
G04 #@! TO.N,Net-(J6-Pin_9)*
G36*
X109176257Y-65182322D02*
G01*
X109317678Y-65323743D01*
X110665827Y-64958667D01*
X110500707Y-63999293D01*
X109666333Y-63709173D01*
X109176257Y-65182322D01*
G37*
G04 #@! TD.AperFunction*
G04 #@! TD*
G04 #@! TA.AperFunction,Conductor*
G04 #@! TO.N,Net-(J2-Pin_12)*
G36*
X97700000Y-108300000D02*
G01*
X97300000Y-108300000D01*
X96650000Y-109150000D01*
X97500000Y-110001000D01*
X98350000Y-109150000D01*
X97700000Y-108300000D01*
G37*
G04 #@! TD.AperFunction*
G04 #@! TD*
G04 #@! TA.AperFunction,Conductor*
G04 #@! TO.N,Net-(J3-Pin_6)*
G36*
X56100000Y-87875000D02*
G01*
X56100000Y-87475000D01*
X55250000Y-86825000D01*
X54399000Y-87675000D01*
X55250000Y-88525000D01*
X56100000Y-87875000D01*
G37*
G04 #@! TD.AperFunction*
G04 #@! TD*
G04 #@! TA.AperFunction,Conductor*
G04 #@! TO.N,Net-(J2-Pin_9)*
G36*
X104262736Y-111101315D02*
G01*
X104121315Y-111242736D01*
X104286333Y-112705827D01*
X105120707Y-112540707D01*
X105592235Y-111833251D01*
X104262736Y-111101315D01*
G37*
G04 #@! TD.AperFunction*
G04 #@! TD*
G04 #@! TA.AperFunction,Conductor*
G04 #@! TO.N,Net-(J1-Pin_1)*
G36*
X131856614Y-102740141D02*
G01*
X132697763Y-103896923D01*
X132700000Y-103903804D01*
X132700000Y-104088967D01*
X132696573Y-104097240D01*
X132688987Y-104100647D01*
X131855240Y-104149691D01*
X131846780Y-104146756D01*
X131846285Y-104146289D01*
X131595690Y-103895989D01*
X131009088Y-103310076D01*
X131005657Y-103301807D01*
X131009079Y-103293532D01*
X131010849Y-103292078D01*
X131840651Y-102737295D01*
X131849430Y-102735546D01*
X131856614Y-102740141D01*
G37*
G04 #@! TD.AperFunction*
G04 #@! TD*
G04 #@! TA.AperFunction,Conductor*
G04 #@! TO.N,Net-(J3-Pin_3)*
G36*
X55417322Y-96658743D02*
G01*
X55558743Y-96517322D01*
X55233667Y-95129173D01*
X54399293Y-95294293D01*
X53927765Y-96001749D01*
X55417322Y-96658743D01*
G37*
G04 #@! TD.AperFunction*
G04 #@! TD*
G04 #@! TA.AperFunction,Conductor*
G04 #@! TO.N,Net-(J14-Pin_1)*
G36*
X60256657Y-110051958D02*
G01*
X61091602Y-110297530D01*
X61098571Y-110303151D01*
X61100000Y-110308754D01*
X61100000Y-110495813D01*
X61097345Y-110503235D01*
X60257092Y-111527170D01*
X60249194Y-111531392D01*
X60241044Y-111529121D01*
X59409833Y-110908093D01*
X59405257Y-110900396D01*
X59407463Y-110891717D01*
X59408559Y-110890451D01*
X60245090Y-110054904D01*
X60253363Y-110051483D01*
X60256657Y-110051958D01*
G37*
G04 #@! TD.AperFunction*
G04 #@! TD*
G04 #@! TA.AperFunction,Conductor*
G04 #@! TO.N,Net-(J3-Pin_2)*
G36*
X55763997Y-98540418D02*
G01*
X55905418Y-98398997D01*
X55106749Y-97362765D01*
X54399293Y-97834293D01*
X54565827Y-98668667D01*
X55763997Y-98540418D01*
G37*
G04 #@! TD.AperFunction*
G04 #@! TD*
G04 #@! TA.AperFunction,Conductor*
G04 #@! TO.N,Net-(J14-Pin_2)*
G36*
X59577813Y-107529449D02*
G01*
X59583922Y-107531037D01*
X60994483Y-107897724D01*
X61001627Y-107903121D01*
X61003238Y-107909047D01*
X61003238Y-108094608D01*
X60999811Y-108102881D01*
X60999140Y-108103502D01*
X59882237Y-109058199D01*
X59873722Y-109060969D01*
X59865741Y-109056907D01*
X59864918Y-109055822D01*
X59401703Y-108364037D01*
X59399949Y-108355258D01*
X59399949Y-108355256D01*
X59563397Y-107538475D01*
X59568380Y-107531037D01*
X59577165Y-107529300D01*
X59577813Y-107529449D01*
G37*
G04 #@! TD.AperFunction*
G04 #@! TD*
G04 #@! TA.AperFunction,Conductor*
G04 #@! TO.N,Net-(J2-Pin_2)*
G36*
X107770176Y-108316333D02*
G01*
X107570176Y-108316333D01*
X106953251Y-109527765D01*
X107660000Y-110001000D01*
X108366749Y-109527765D01*
X107770176Y-108316333D01*
G37*
G04 #@! TD.AperFunction*
G04 #@! TD*
G04 #@! TA.AperFunction,Conductor*
G04 #@! TO.N,Net-(J1-Pin_1)*
G36*
X130159349Y-102737295D02*
G01*
X130989145Y-103292074D01*
X130994118Y-103299521D01*
X130992368Y-103308303D01*
X130990910Y-103310078D01*
X130153714Y-104146289D01*
X130145439Y-104149711D01*
X130144759Y-104149691D01*
X129311013Y-104100647D01*
X129302955Y-104096740D01*
X129300000Y-104088967D01*
X129300000Y-103903804D01*
X129302237Y-103896923D01*
X130143386Y-102740140D01*
X130151022Y-102735465D01*
X130159349Y-102737295D01*
G37*
G04 #@! TD.AperFunction*
G04 #@! TD*
G04 #@! TA.AperFunction,Conductor*
G04 #@! TO.N,Net-(J4-Pin_4)*
G36*
X134136003Y-94514582D02*
G01*
X133994582Y-94656003D01*
X134793251Y-95792235D01*
X135500707Y-95320707D01*
X135334173Y-94486333D01*
X134136003Y-94514582D01*
G37*
G04 #@! TD.AperFunction*
G04 #@! TD*
G04 #@! TA.AperFunction,Conductor*
G04 #@! TO.N,Net-(J2-Pin_12)*
G36*
X97700000Y-110856333D02*
G01*
X97300000Y-110856333D01*
X96793251Y-112067765D01*
X97500000Y-112541000D01*
X98206749Y-112067765D01*
X97700000Y-110856333D01*
G37*
G04 #@! TD.AperFunction*
G04 #@! TD*
G04 #@! TA.AperFunction,Conductor*
G04 #@! TO.N,Net-(J2-Pin_4)*
G36*
X102741136Y-108420285D02*
G01*
X102599715Y-108278864D01*
X101873251Y-109527765D01*
X102579293Y-110000707D01*
X103286749Y-109527765D01*
X102741136Y-108420285D01*
G37*
G04 #@! TD.AperFunction*
G04 #@! TD*
G04 #@! TA.AperFunction,Conductor*
G04 #@! TO.N,Net-(J2-Pin_12)*
G36*
X97300000Y-111700000D02*
G01*
X97700000Y-111700000D01*
X98350000Y-110850000D01*
X97500000Y-109999000D01*
X96650000Y-110850000D01*
X97300000Y-111700000D01*
G37*
G04 #@! TD.AperFunction*
G04 #@! TD*
M02*
