G04 #@! TF.GenerationSoftware,KiCad,Pcbnew,9.0.6*
G04 #@! TF.CreationDate,2026-03-03T22:35:12+01:00*
G04 #@! TF.ProjectId,saturn,73617475-726e-42e6-9b69-6361645f7063,rev?*
G04 #@! TF.SameCoordinates,Original*
G04 #@! TF.FileFunction,Copper,L4,Bot*
G04 #@! TF.FilePolarity,Positive*
%FSLAX46Y46*%
G04 Gerber Fmt 4.6, Leading zero omitted, Abs format (unit mm)*
G04 Created by KiCad (PCBNEW 9.0.6) date 2026-03-03 22:35:12*
%MOMM*%
%LPD*%
G01*
G04 APERTURE LIST*
G04 Aperture macros list*
%AMRoundRect*
0 Rectangle with rounded corners*
0 $1 Rounding radius*
0 $2 $3 $4 $5 $6 $7 $8 $9 X,Y pos of 4 corners*
0 Add a 4 corners polygon primitive as box body*
4,1,4,$2,$3,$4,$5,$6,$7,$8,$9,$2,$3,0*
0 Add four circle primitives for the rounded corners*
1,1,$1+$1,$2,$3*
1,1,$1+$1,$4,$5*
1,1,$1+$1,$6,$7*
1,1,$1+$1,$8,$9*
0 Add four rect primitives between the rounded corners*
20,1,$1+$1,$2,$3,$4,$5,0*
20,1,$1+$1,$4,$5,$6,$7,0*
20,1,$1+$1,$6,$7,$8,$9,0*
20,1,$1+$1,$8,$9,$2,$3,0*%
G04 Aperture macros list end*
G04 #@! TA.AperFunction,HeatsinkPad*
%ADD10O,1.900000X1.200000*%
G04 #@! TD*
G04 #@! TA.AperFunction,HeatsinkPad*
%ADD11C,1.450000*%
G04 #@! TD*
G04 #@! TA.AperFunction,ComponentPad*
%ADD12C,1.700000*%
G04 #@! TD*
G04 #@! TA.AperFunction,ComponentPad*
%ADD13R,1.700000X1.700000*%
G04 #@! TD*
G04 #@! TA.AperFunction,ComponentPad*
%ADD14RoundRect,0.250000X-0.600000X-0.725000X0.600000X-0.725000X0.600000X0.725000X-0.600000X0.725000X0*%
G04 #@! TD*
G04 #@! TA.AperFunction,ComponentPad*
%ADD15O,1.700000X1.950000*%
G04 #@! TD*
G04 #@! TA.AperFunction,ComponentPad*
%ADD16RoundRect,0.250000X0.600000X0.725000X-0.600000X0.725000X-0.600000X-0.725000X0.600000X-0.725000X0*%
G04 #@! TD*
G04 #@! TA.AperFunction,HeatsinkPad*
%ADD17O,2.100000X1.000000*%
G04 #@! TD*
G04 #@! TA.AperFunction,HeatsinkPad*
%ADD18O,1.600000X1.000000*%
G04 #@! TD*
G04 #@! TA.AperFunction,ViaPad*
%ADD19C,0.600000*%
G04 #@! TD*
G04 #@! TA.AperFunction,Conductor*
%ADD20C,1.400000*%
G04 #@! TD*
G04 #@! TA.AperFunction,Conductor*
%ADD21C,0.200000*%
G04 #@! TD*
G04 #@! TA.AperFunction,Conductor*
%ADD22C,0.250000*%
G04 #@! TD*
G04 APERTURE END LIST*
D10*
G04 #@! TO.P,J11,6,Shield*
G04 #@! TO.N,Net-(J11-Shield)*
X143537500Y-84400000D03*
D11*
X140837500Y-83400000D03*
X140837500Y-78400000D03*
D10*
X143537500Y-77400000D03*
G04 #@! TD*
D12*
G04 #@! TO.P,J4,1,Pin_1*
G04 #@! TO.N,Net-(J4-Pin_1)*
X135500000Y-87700000D03*
G04 #@! TO.P,J4,2,Pin_2*
G04 #@! TO.N,Net-(J4-Pin_2)*
X135500000Y-90240000D03*
G04 #@! TO.P,J4,3,Pin_3*
G04 #@! TO.N,Net-(J4-Pin_3)*
X135500000Y-92780000D03*
G04 #@! TO.P,J4,4,Pin_4*
G04 #@! TO.N,Net-(J4-Pin_4)*
X135500000Y-95320000D03*
G04 #@! TO.P,J4,5,Pin_5*
G04 #@! TO.N,GND*
X135500000Y-97860000D03*
D13*
G04 #@! TO.P,J4,6,Pin_6*
G04 #@! TO.N,Net-(J4-Pin_6)*
X135500000Y-100400000D03*
G04 #@! TD*
D14*
G04 #@! TO.P,J13,1,Pin_1*
G04 #@! TO.N,GND*
X70000000Y-114000000D03*
D15*
G04 #@! TO.P,J13,2,Pin_2*
G04 #@! TO.N,Net-(J13-Pin_2)*
X72500000Y-114000000D03*
G04 #@! TO.P,J13,3,Pin_3*
G04 #@! TO.N,+5V*
X75000000Y-114000000D03*
G04 #@! TD*
D16*
G04 #@! TO.P,J6,1,Pin_1*
G04 #@! TO.N,GND*
X130500000Y-64000000D03*
D15*
G04 #@! TO.P,J6,2,Pin_2*
G04 #@! TO.N,/DISPLAY_+5V*
X128000000Y-64000000D03*
G04 #@! TO.P,J6,3,Pin_3*
X125500000Y-64000000D03*
G04 #@! TO.P,J6,4,Pin_4*
G04 #@! TO.N,Net-(J6-Pin_4)*
X123000000Y-64000000D03*
G04 #@! TO.P,J6,5,Pin_5*
G04 #@! TO.N,Net-(J6-Pin_5)*
X120500000Y-64000000D03*
G04 #@! TO.P,J6,6,Pin_6*
G04 #@! TO.N,Net-(J6-Pin_6)*
X118000000Y-64000000D03*
G04 #@! TO.P,J6,7,Pin_7*
G04 #@! TO.N,Net-(J6-Pin_7)*
X115500000Y-64000000D03*
G04 #@! TO.P,J6,8,Pin_8*
G04 #@! TO.N,GND*
X113000000Y-64000000D03*
G04 #@! TO.P,J6,9,Pin_9*
G04 #@! TO.N,Net-(J6-Pin_9)*
X110500000Y-64000000D03*
G04 #@! TO.P,J6,10,Pin_10*
G04 #@! TO.N,Net-(J6-Pin_10)*
X108000000Y-64000000D03*
G04 #@! TD*
D12*
G04 #@! TO.P,J3,1,Pin_1*
G04 #@! TO.N,Net-(J3-Pin_1)*
X54400000Y-100375000D03*
G04 #@! TO.P,J3,2,Pin_2*
G04 #@! TO.N,Net-(J3-Pin_2)*
X54400000Y-97835000D03*
G04 #@! TO.P,J3,3,Pin_3*
G04 #@! TO.N,Net-(J3-Pin_3)*
X54400000Y-95295000D03*
G04 #@! TO.P,J3,4,Pin_4*
G04 #@! TO.N,Net-(J3-Pin_4)*
X54400000Y-92755000D03*
G04 #@! TO.P,J3,5,Pin_5*
G04 #@! TO.N,GND*
X54400000Y-90215000D03*
D13*
G04 #@! TO.P,J3,6,Pin_6*
G04 #@! TO.N,Net-(J3-Pin_6)*
X54400000Y-87675000D03*
G04 #@! TD*
D12*
G04 #@! TO.P,J2,1,Pin_1*
G04 #@! TO.N,Net-(J2-Pin_1)*
X110200000Y-110000000D03*
G04 #@! TO.P,J2,2,Pin_2*
G04 #@! TO.N,Net-(J2-Pin_2)*
X107660000Y-110000000D03*
G04 #@! TO.P,J2,3,Pin_3*
G04 #@! TO.N,Net-(J2-Pin_3)*
X105120000Y-110000000D03*
G04 #@! TO.P,J2,4,Pin_4*
G04 #@! TO.N,Net-(J2-Pin_4)*
X102580000Y-110000000D03*
G04 #@! TO.P,J2,5,Pin_5*
G04 #@! TO.N,GND*
X100040000Y-110000000D03*
D13*
G04 #@! TO.P,J2,6,Pin_6*
G04 #@! TO.N,Net-(J2-Pin_12)*
X97500000Y-110000000D03*
D12*
G04 #@! TO.P,J2,7,Pin_7*
G04 #@! TO.N,Net-(J2-Pin_7)*
X110200000Y-112540000D03*
G04 #@! TO.P,J2,8,Pin_8*
G04 #@! TO.N,Net-(J2-Pin_8)*
X107660000Y-112540000D03*
G04 #@! TO.P,J2,9,Pin_9*
G04 #@! TO.N,Net-(J2-Pin_9)*
X105120000Y-112540000D03*
G04 #@! TO.P,J2,10,Pin_10*
G04 #@! TO.N,Net-(J2-Pin_10)*
X102580000Y-112540000D03*
G04 #@! TO.P,J2,11,Pin_11*
G04 #@! TO.N,GND*
X100040000Y-112540000D03*
G04 #@! TO.P,J2,12,Pin_12*
G04 #@! TO.N,Net-(J2-Pin_12)*
X97500000Y-112540000D03*
G04 #@! TD*
D13*
G04 #@! TO.P,J1,1,Pin_1*
G04 #@! TO.N,Net-(J1-Pin_1)*
X131000000Y-103300000D03*
D12*
G04 #@! TO.P,J1,2,Pin_2*
G04 #@! TO.N,Net-(J1-Pin_2)*
X131000000Y-105840000D03*
G04 #@! TO.P,J1,3,Pin_3*
G04 #@! TO.N,+3V3*
X131000000Y-108380000D03*
G04 #@! TO.P,J1,4,Pin_4*
G04 #@! TO.N,GND*
X131000000Y-110920000D03*
G04 #@! TD*
D13*
G04 #@! TO.P,J14,1,Pin_1*
G04 #@! TO.N,Net-(J14-Pin_1)*
X59400000Y-110900000D03*
D12*
G04 #@! TO.P,J14,2,Pin_2*
G04 #@! TO.N,Net-(J14-Pin_2)*
X59400000Y-108360000D03*
G04 #@! TO.P,J14,3,Pin_3*
G04 #@! TO.N,+3V3*
X59400000Y-105820000D03*
G04 #@! TO.P,J14,4,Pin_4*
G04 #@! TO.N,GND*
X59400000Y-103280000D03*
G04 #@! TD*
D13*
G04 #@! TO.P,JP3,1,A*
G04 #@! TO.N,+3V3*
X126350000Y-100100000D03*
D12*
G04 #@! TO.P,JP3,2,C*
G04 #@! TO.N,Net-(J4-Pin_6)*
X126350000Y-97560000D03*
G04 #@! TO.P,JP3,3,B*
G04 #@! TO.N,+5V*
X126350000Y-95020000D03*
G04 #@! TD*
D13*
G04 #@! TO.P,TP2,1,1*
G04 #@! TO.N,+5V*
X123700000Y-78500000D03*
G04 #@! TD*
D17*
G04 #@! TO.P,J12,S1,SHIELD*
G04 #@! TO.N,GND*
X138770000Y-72670000D03*
D18*
X142950000Y-72670000D03*
D17*
X138770000Y-64030000D03*
D18*
X142950000Y-64030000D03*
G04 #@! TD*
D13*
G04 #@! TO.P,JP1,1,A*
G04 #@! TO.N,+3V3*
X94920000Y-102100000D03*
D12*
G04 #@! TO.P,JP1,2,C*
G04 #@! TO.N,Net-(J2-Pin_12)*
X97460000Y-102100000D03*
G04 #@! TO.P,JP1,3,B*
G04 #@! TO.N,+5V*
X100000000Y-102100000D03*
G04 #@! TD*
D13*
G04 #@! TO.P,JP2,1,A*
G04 #@! TO.N,+3V3*
X63600000Y-89520000D03*
D12*
G04 #@! TO.P,JP2,2,C*
G04 #@! TO.N,Net-(J3-Pin_6)*
X63600000Y-92060000D03*
G04 #@! TO.P,JP2,3,B*
G04 #@! TO.N,+5V*
X63600000Y-94600000D03*
G04 #@! TD*
D13*
G04 #@! TO.P,TP3,1,1*
G04 #@! TO.N,+3V3*
X92100000Y-88800000D03*
G04 #@! TD*
G04 #@! TO.P,TP1,1,1*
G04 #@! TO.N,GND*
X110300000Y-78500000D03*
G04 #@! TD*
D19*
G04 #@! TO.N,+3V3*
X78600000Y-105800000D03*
X135780000Y-108380000D03*
X91550000Y-107550000D03*
X92512500Y-76012500D03*
X58750000Y-86425000D03*
X96800000Y-59700000D03*
X53700000Y-107380000D03*
X95595000Y-68980000D03*
X75850000Y-92550000D03*
X137000000Y-113080000D03*
X52280000Y-113400000D03*
X135200000Y-103400000D03*
X75800000Y-90900000D03*
X90100000Y-77800000D03*
X53900000Y-110500000D03*
X61300000Y-86425000D03*
X77320000Y-105820000D03*
X91500000Y-106150000D03*
G04 #@! TO.N,+5V*
X131151041Y-71151041D03*
X136500000Y-66000000D03*
X139300000Y-83100000D03*
X139300000Y-82300000D03*
X119700000Y-79700000D03*
X129750000Y-80000000D03*
X86200000Y-93900000D03*
X135900000Y-70800000D03*
X134800000Y-66080000D03*
X131151041Y-73000000D03*
X85100000Y-99925000D03*
X136700000Y-70800000D03*
X82199293Y-113797765D03*
G04 #@! TO.N,/SMART_LEDS*
X72436010Y-67450000D03*
X74325000Y-89625000D03*
G04 #@! TO.N,/PMOD2_IO1*
X61900000Y-62600000D03*
X75600000Y-68600000D03*
G04 #@! TO.N,/PMOD2_IO2*
X59600000Y-62825000D03*
X73840380Y-67300000D03*
G04 #@! TO.N,/PMOD2_IO4*
X72909018Y-69228257D03*
X55540000Y-62600000D03*
G04 #@! TO.N,/ESP_TX_CP_RX*
X56950000Y-62650000D03*
X84800000Y-70900000D03*
G04 #@! TO.N,/ESP_RX_CP_TX*
X58300000Y-62200000D03*
X84750000Y-72650000D03*
G04 #@! TO.N,Net-(Q3-E)*
X87300000Y-68500000D03*
X87440380Y-70440380D03*
G04 #@! TO.N,GND*
X125000000Y-121000000D03*
X135400000Y-113800000D03*
X57800000Y-84700000D03*
X90400000Y-70200000D03*
X82500000Y-57000000D03*
X58500000Y-74500000D03*
X75700000Y-66000000D03*
X92075000Y-99925000D03*
X133500000Y-112000000D03*
X92400000Y-70200000D03*
X83250000Y-93900000D03*
X53000000Y-80600000D03*
X79200000Y-115400000D03*
X52300000Y-84200000D03*
X58800000Y-89375000D03*
X122500000Y-57000000D03*
X93900000Y-74225000D03*
X130700000Y-98620000D03*
X100050000Y-106100000D03*
X139400000Y-120600000D03*
X46400000Y-106100000D03*
X135700000Y-67350000D03*
X98525000Y-67300000D03*
X139250000Y-79150000D03*
X52500000Y-57000000D03*
X144000000Y-87500000D03*
X97600000Y-60800000D03*
X134075000Y-73200000D03*
X112500000Y-57000000D03*
X45800000Y-94800000D03*
X53000000Y-65400000D03*
X137500000Y-77800000D03*
X102500000Y-57000000D03*
X115350000Y-120650000D03*
X144000000Y-98000000D03*
X92895000Y-93895000D03*
X53000000Y-73000000D03*
X136800000Y-83100000D03*
X91600000Y-97475000D03*
X46400000Y-109700000D03*
X53000000Y-105800000D03*
X70800000Y-83900000D03*
X114300000Y-79700000D03*
X126600000Y-74500000D03*
X134050000Y-80050000D03*
X53000000Y-63100000D03*
X61300000Y-89375000D03*
X60700000Y-72300000D03*
X92500000Y-57000000D03*
X72500000Y-57000000D03*
X121700000Y-120600000D03*
X83600000Y-120100000D03*
X143600000Y-106000000D03*
X78600000Y-62975000D03*
X92300000Y-120600000D03*
X130000000Y-69100000D03*
X126600000Y-71900000D03*
X54600000Y-120600000D03*
X80250000Y-120350000D03*
X109425000Y-69400000D03*
X71000000Y-89600000D03*
X135600000Y-120600000D03*
X50700000Y-114100000D03*
X64600000Y-121000000D03*
X90400000Y-72200000D03*
X84300000Y-97475000D03*
X92400000Y-72200000D03*
X136300000Y-65100000D03*
X69150000Y-65900000D03*
X132500000Y-57000000D03*
X105000000Y-121000000D03*
X139250000Y-80000000D03*
X60700000Y-76700000D03*
X62900000Y-74500000D03*
X51000000Y-120600000D03*
X85900000Y-120600000D03*
X135900000Y-71650000D03*
X89150000Y-62950000D03*
X62500000Y-57000000D03*
X94400000Y-77300000D03*
X60100000Y-62100000D03*
X143600000Y-109600000D03*
X134075000Y-75700000D03*
X75300000Y-80100000D03*
X68850000Y-80350000D03*
X137000000Y-109900000D03*
G04 #@! TO.N,/EN*
X95595000Y-66380000D03*
X55540000Y-83040000D03*
X98500000Y-82100000D03*
X93100000Y-63700000D03*
G04 #@! TO.N,/GPIO0{slash}BOOT*
X75300000Y-89600000D03*
X85500000Y-77000000D03*
G04 #@! TO.N,/USBMAIN_D-*
X131351000Y-69500000D03*
X71603461Y-85150000D03*
G04 #@! TO.N,/USBMAIN_D+*
X71599539Y-84300006D03*
X131100000Y-68700000D03*
G04 #@! TO.N,/USBAUX_D+*
X91200000Y-74650000D03*
X94945000Y-74592256D03*
G04 #@! TO.N,/USBAUX_D-*
X92077298Y-74677298D03*
X94940670Y-75490090D03*
G04 #@! TO.N,/CC2*
X139200000Y-66600000D03*
X139100000Y-76400000D03*
G04 #@! TO.N,/CC1*
X139182120Y-69680299D03*
X139000000Y-75400000D03*
G04 #@! TO.N,/DISPLAY_IO3*
X72600000Y-65400000D03*
X98500000Y-63100000D03*
G04 #@! TO.N,/DISPLAY_CLK*
X72700000Y-80000000D03*
X98400000Y-60550000D03*
G04 #@! TO.N,/I2CA_SCL*
X72800000Y-87000000D03*
X72800000Y-89600000D03*
G04 #@! TO.N,/I2CA_SDA*
X72000000Y-86600000D03*
X71900000Y-89600000D03*
G04 #@! TD*
D20*
G04 #@! TO.N,+3V3*
X77340000Y-105800000D02*
X77320000Y-105820000D01*
X53900000Y-107580000D02*
X53700000Y-107380000D01*
X121650000Y-104850000D02*
X92800000Y-104850000D01*
D21*
X95595000Y-68980000D02*
X95595000Y-75955000D01*
D20*
X53900000Y-110500000D02*
X53900000Y-107580000D01*
X135799000Y-111879000D02*
X137000000Y-113080000D01*
X135800000Y-104000000D02*
X135800000Y-108360000D01*
X53900000Y-110500000D02*
X53900000Y-111800000D01*
D21*
X94600000Y-67985000D02*
X94600000Y-66100000D01*
D20*
X131000000Y-108380000D02*
X135780000Y-108380000D01*
X63600000Y-89520000D02*
X65170000Y-89520000D01*
X78600000Y-105800000D02*
X77340000Y-105800000D01*
X126350000Y-100100000D02*
X126350000Y-100150000D01*
X75800000Y-90900000D02*
X88900000Y-77800000D01*
X61300000Y-86425000D02*
X58750000Y-86425000D01*
X135800000Y-108360000D02*
X135780000Y-108380000D01*
X52300000Y-113400000D02*
X52280000Y-113400000D01*
X128980000Y-108380000D02*
X128150000Y-107550000D01*
X135800000Y-109401529D02*
X135799000Y-109402529D01*
D21*
X94600000Y-66100000D02*
X95700000Y-65000000D01*
D20*
X77280000Y-105820000D02*
X59400000Y-105820000D01*
X92800000Y-104850000D02*
X91500000Y-106150000D01*
D21*
X95595000Y-75955000D02*
X95200000Y-76350000D01*
X100000000Y-60700000D02*
X99000000Y-59700000D01*
D20*
X75800000Y-90900000D02*
X70100000Y-90900000D01*
X53870000Y-107380000D02*
X53700000Y-107380000D01*
X91500000Y-107500000D02*
X91550000Y-107550000D01*
X70100000Y-90900000D02*
X65625000Y-86425000D01*
D21*
X92850000Y-76350000D02*
X92512500Y-76012500D01*
D20*
X59400000Y-105820000D02*
X55430000Y-105820000D01*
X68550000Y-92900000D02*
X75500000Y-92900000D01*
X135780000Y-108380000D02*
X135800000Y-108400000D01*
X65170000Y-89520000D02*
X68550000Y-92900000D01*
X131000000Y-108380000D02*
X128980000Y-108380000D01*
X88900000Y-77800000D02*
X90100000Y-77800000D01*
X135200000Y-103400000D02*
X135800000Y-104000000D01*
X91500000Y-106150000D02*
X91500000Y-107500000D01*
X75500000Y-92900000D02*
X75850000Y-92550000D01*
X53900000Y-111800000D02*
X52300000Y-113400000D01*
X55430000Y-105820000D02*
X53870000Y-107380000D01*
X75850000Y-90950000D02*
X75850000Y-92550000D01*
D21*
X99000000Y-65000000D02*
X100000000Y-64000000D01*
X100000000Y-64000000D02*
X100000000Y-60700000D01*
X99000000Y-59700000D02*
X96800000Y-59700000D01*
D20*
X75800000Y-90900000D02*
X75850000Y-90950000D01*
X135800000Y-108400000D02*
X135800000Y-109401529D01*
D21*
X95700000Y-65000000D02*
X99000000Y-65000000D01*
D20*
X128150000Y-107550000D02*
X91550000Y-107550000D01*
X65625000Y-86425000D02*
X61300000Y-86425000D01*
D21*
X95595000Y-68980000D02*
X94600000Y-67985000D01*
D20*
X126350000Y-100150000D02*
X121650000Y-104850000D01*
X135799000Y-109402529D02*
X135799000Y-111879000D01*
D21*
X95200000Y-76350000D02*
X92850000Y-76350000D01*
G04 #@! TO.N,/SMART_LEDS*
X74325000Y-86825000D02*
X73400000Y-85900000D01*
X70100000Y-84700000D02*
X70100000Y-80800000D01*
X70100000Y-80800000D02*
X74900000Y-76000000D01*
X72550000Y-67450000D02*
X72436010Y-67450000D01*
X74325000Y-89625000D02*
X74325000Y-86825000D01*
X74900000Y-76000000D02*
X74900000Y-69800000D01*
X74900000Y-69800000D02*
X72550000Y-67450000D01*
X71300000Y-85900000D02*
X70100000Y-84700000D01*
X73400000Y-85900000D02*
X71300000Y-85900000D01*
G04 #@! TO.N,/PMOD2_IO1*
X70300000Y-65200000D02*
X63675000Y-65200000D01*
X75600000Y-68600000D02*
X75600000Y-67900000D01*
X73900000Y-66200000D02*
X71300000Y-66200000D01*
X63675000Y-65200000D02*
X61900000Y-63425000D01*
X61900000Y-63425000D02*
X61900000Y-62600000D01*
X75600000Y-67900000D02*
X73900000Y-66200000D01*
X71300000Y-66200000D02*
X70300000Y-65200000D01*
G04 #@! TO.N,/PMOD2_IO2*
X73840380Y-67300000D02*
X73240380Y-66700000D01*
X59600000Y-63900000D02*
X59600000Y-62825000D01*
X62400000Y-66700000D02*
X59600000Y-63900000D01*
X73240380Y-66700000D02*
X62400000Y-66700000D01*
G04 #@! TO.N,/PMOD2_IO4*
X71380761Y-67700000D02*
X72909018Y-69228257D01*
X55540000Y-63240000D02*
X60000000Y-67700000D01*
X55540000Y-62600000D02*
X55540000Y-63240000D01*
X60000000Y-67700000D02*
X71380761Y-67700000D01*
G04 #@! TO.N,/ESP_TX_CP_RX*
X58800000Y-60800000D02*
X56950000Y-62650000D01*
X74700000Y-60800000D02*
X58800000Y-60800000D01*
X84800000Y-70900000D02*
X74700000Y-60800000D01*
G04 #@! TO.N,/ESP_RX_CP_TX*
X59000000Y-61500000D02*
X58300000Y-62200000D01*
X73600000Y-61500000D02*
X59000000Y-61500000D01*
X84750000Y-72650000D02*
X73600000Y-61500000D01*
D20*
G04 #@! TO.N,Net-(J3-Pin_6)*
X55375000Y-87675000D02*
X59700000Y-92000000D01*
X63540000Y-92000000D02*
X63600000Y-92060000D01*
X54400000Y-87675000D02*
X55375000Y-87675000D01*
X59700000Y-92000000D02*
X63540000Y-92000000D01*
D21*
G04 #@! TO.N,Net-(Q3-E)*
X87300000Y-70400000D02*
X87340380Y-70440380D01*
X87300000Y-68500000D02*
X87300000Y-70400000D01*
X87340380Y-70440380D02*
X87440380Y-70440380D01*
G04 #@! TO.N,/EN*
X80700000Y-63700000D02*
X93100000Y-63700000D01*
X55540000Y-83040000D02*
X55540000Y-65540000D01*
X55540000Y-65540000D02*
X54300000Y-64300000D01*
X98500000Y-82100000D02*
X98500000Y-68800000D01*
X54300000Y-64300000D02*
X54300000Y-62000000D01*
X98500000Y-68800000D02*
X96080000Y-66380000D01*
X96080000Y-66380000D02*
X95595000Y-66380000D01*
X54300000Y-62000000D02*
X56900000Y-59400000D01*
X56900000Y-59400000D02*
X76400000Y-59400000D01*
X76400000Y-59400000D02*
X80700000Y-63700000D01*
G04 #@! TO.N,/GPIO0{slash}BOOT*
X75300000Y-89600000D02*
X75300000Y-86500000D01*
X75300000Y-86500000D02*
X84800000Y-77000000D01*
X84800000Y-77000000D02*
X85500000Y-77000000D01*
D22*
G04 #@! TO.N,/USBMAIN_D-*
X130793197Y-70312910D02*
X130793197Y-70325001D01*
X131351000Y-69755107D02*
X130793197Y-70312910D01*
X110050000Y-73250000D02*
X99950000Y-83350000D01*
X74300000Y-85100000D02*
X71653461Y-85100000D01*
X131351000Y-69500000D02*
X131351000Y-69755107D01*
X83450000Y-75950000D02*
X74300000Y-85100000D01*
X90350000Y-75950000D02*
X83450000Y-75950000D01*
X71653461Y-85100000D02*
X71603461Y-85150000D01*
X99950000Y-83350000D02*
X97750000Y-83350000D01*
X130793197Y-70325001D02*
X127868198Y-73250000D01*
X97750000Y-83350000D02*
X90350000Y-75950000D01*
X127868198Y-73250000D02*
X110050000Y-73250000D01*
G04 #@! TO.N,/USBMAIN_D+*
X131000000Y-68700000D02*
X130726000Y-68974000D01*
X131100000Y-68700000D02*
X131000000Y-68700000D01*
X130726000Y-69742297D02*
X127669297Y-72799000D01*
X72057056Y-84649000D02*
X71708062Y-84300006D01*
X97936396Y-82900000D02*
X90536396Y-75500000D01*
X74114604Y-84649000D02*
X72057056Y-84649000D01*
X99763604Y-82900000D02*
X97936396Y-82900000D01*
X90536396Y-75500000D02*
X83263604Y-75500000D01*
X83263604Y-75500000D02*
X74114604Y-84649000D01*
X130726000Y-68974000D02*
X130726000Y-69742297D01*
X109864604Y-72799000D02*
X99763604Y-82900000D01*
X71708062Y-84300006D02*
X71599539Y-84300006D01*
X127669297Y-72799000D02*
X109864604Y-72799000D01*
G04 #@! TO.N,/USBAUX_D+*
X94687256Y-74850000D02*
X93450000Y-74850000D01*
X93450000Y-74850000D02*
X92600000Y-74000000D01*
X94945000Y-74592256D02*
X94687256Y-74850000D01*
X91300000Y-74700000D02*
X91250000Y-74650000D01*
X91250000Y-74650000D02*
X91200000Y-74650000D01*
X92600000Y-74000000D02*
X91850000Y-74000000D01*
X91850000Y-74000000D02*
X91200000Y-74650000D01*
G04 #@! TO.N,/USBAUX_D-*
X93200000Y-75300000D02*
X94750580Y-75300000D01*
X92577298Y-74677298D02*
X93200000Y-75300000D01*
X92077298Y-74677298D02*
X92577298Y-74677298D01*
X94750580Y-75300000D02*
X94940670Y-75490090D01*
D21*
G04 #@! TO.N,/CC2*
X140800000Y-74700000D02*
X139100000Y-76400000D01*
X140800000Y-68200000D02*
X140800000Y-74700000D01*
X139200000Y-66600000D02*
X140800000Y-68200000D01*
G04 #@! TO.N,/CC1*
X140300000Y-70798179D02*
X140300000Y-74100000D01*
X139182120Y-69680299D02*
X140300000Y-70798179D01*
X140300000Y-74100000D02*
X139000000Y-75400000D01*
G04 #@! TO.N,/DISPLAY_IO3*
X95700000Y-63100000D02*
X85500000Y-73300000D01*
X85500000Y-73300000D02*
X84500000Y-73300000D01*
X76400000Y-65200000D02*
X72800000Y-65200000D01*
X84500000Y-73300000D02*
X76400000Y-65200000D01*
X72800000Y-65200000D02*
X72600000Y-65400000D01*
X98500000Y-63100000D02*
X95700000Y-63100000D01*
G04 #@! TO.N,/DISPLAY_CLK*
X99350000Y-61500000D02*
X99350000Y-63550000D01*
X99350000Y-63550000D02*
X98600000Y-64300000D01*
X79550000Y-74200000D02*
X73750000Y-80000000D01*
X98400000Y-60550000D02*
X99350000Y-61500000D01*
X73750000Y-80000000D02*
X72700000Y-80000000D01*
X85500000Y-74200000D02*
X79550000Y-74200000D01*
X95400000Y-64300000D02*
X85500000Y-74200000D01*
X98600000Y-64300000D02*
X95400000Y-64300000D01*
G04 #@! TO.N,/I2CA_SCL*
X72800000Y-87000000D02*
X72800000Y-89600000D01*
G04 #@! TO.N,/I2CA_SDA*
X71900000Y-86700000D02*
X72000000Y-86600000D01*
X71900000Y-89600000D02*
X71900000Y-86700000D01*
G04 #@! TD*
G04 #@! TA.AperFunction,Conductor*
G04 #@! TO.N,+3V3*
G36*
X132672993Y-107679060D02*
G01*
X132680934Y-107683200D01*
X132683667Y-107690715D01*
X132683667Y-109069284D01*
X132680240Y-109077557D01*
X132672993Y-109080939D01*
X131176269Y-109212747D01*
X131167728Y-109210059D01*
X131163770Y-109203388D01*
X131139266Y-109080939D01*
X130999459Y-108382293D01*
X130999459Y-108377704D01*
X131139079Y-107680000D01*
X131163770Y-107556610D01*
X131168754Y-107549171D01*
X131176267Y-107547252D01*
X132672993Y-107679060D01*
G37*
G04 #@! TD.AperFunction*
G04 #@! TD*
G04 #@! TA.AperFunction,Conductor*
G04 #@! TO.N,+3V3*
G36*
X124453985Y-101056066D02*
G01*
X125443934Y-102046015D01*
X126710862Y-100950000D01*
X126350707Y-100099293D01*
X125500000Y-99756636D01*
X124453985Y-101056066D01*
G37*
G04 #@! TD.AperFunction*
G04 #@! TD*
G04 #@! TA.AperFunction,Conductor*
G04 #@! TO.N,+3V3*
G36*
X130832271Y-107549940D02*
G01*
X130836229Y-107556611D01*
X131000540Y-108377704D01*
X131000540Y-108382296D01*
X130836229Y-109203388D01*
X130831245Y-109210828D01*
X130823730Y-109212747D01*
X129327007Y-109080939D01*
X129319066Y-109076799D01*
X129316333Y-109069284D01*
X129316333Y-107690715D01*
X129319760Y-107682442D01*
X129327007Y-107679060D01*
X130823731Y-107547252D01*
X130832271Y-107549940D01*
G37*
G04 #@! TD.AperFunction*
G04 #@! TD*
G04 #@! TA.AperFunction,Conductor*
G04 #@! TO.N,Net-(J3-Pin_6)*
G36*
X55392677Y-88682627D02*
G01*
X56382627Y-87692677D01*
X55250000Y-87068575D01*
X54399293Y-87674293D01*
X54258872Y-88525000D01*
X55392677Y-88682627D01*
G37*
G04 #@! TD.AperFunction*
G04 #@! TD*
G04 #@! TA.AperFunction,Conductor*
G04 #@! TO.N,+3V3*
G36*
X64766950Y-90106898D02*
G01*
X65756898Y-89116950D01*
X64450000Y-88715370D01*
X63599293Y-89519293D01*
X64450000Y-90370000D01*
X64766950Y-90106898D01*
G37*
G04 #@! TD.AperFunction*
G04 #@! TD*
G04 #@! TA.AperFunction,Conductor*
G04 #@! TO.N,+3V3*
G36*
X59232271Y-104989940D02*
G01*
X59236229Y-104996611D01*
X59400540Y-105817704D01*
X59400540Y-105822296D01*
X59236229Y-106643388D01*
X59231245Y-106650828D01*
X59223730Y-106652747D01*
X57727007Y-106520939D01*
X57719066Y-106516799D01*
X57716333Y-106509284D01*
X57716333Y-105130715D01*
X57719760Y-105122442D01*
X57727007Y-105119060D01*
X59223731Y-104987252D01*
X59232271Y-104989940D01*
G37*
G04 #@! TD.AperFunction*
G04 #@! TD*
G04 #@! TA.AperFunction,Conductor*
G04 #@! TO.N,+5V*
G36*
X137643039Y-66119685D02*
G01*
X137688794Y-66172489D01*
X137700000Y-66224000D01*
X137700000Y-71868151D01*
X137680315Y-71935190D01*
X137650094Y-71965959D01*
X137650677Y-71966669D01*
X137645968Y-71970533D01*
X137520534Y-72095966D01*
X137421990Y-72243446D01*
X137421983Y-72243459D01*
X137354106Y-72407332D01*
X137354103Y-72407341D01*
X137319500Y-72581304D01*
X137319500Y-72758695D01*
X137354103Y-72932658D01*
X137354106Y-72932667D01*
X137421983Y-73096540D01*
X137421990Y-73096553D01*
X137520535Y-73244034D01*
X137520538Y-73244038D01*
X137645961Y-73369461D01*
X137650673Y-73373328D01*
X137649703Y-73374509D01*
X137689690Y-73422344D01*
X137700000Y-73471848D01*
X137700000Y-76975590D01*
X137680315Y-77042629D01*
X137627511Y-77088384D01*
X137575085Y-77097123D01*
X137575085Y-77099500D01*
X137431005Y-77099500D01*
X137295677Y-77126418D01*
X137295667Y-77126421D01*
X137168195Y-77179221D01*
X137168182Y-77179228D01*
X137053458Y-77255885D01*
X137053454Y-77255888D01*
X136955888Y-77353454D01*
X136955885Y-77353458D01*
X136879228Y-77468182D01*
X136879221Y-77468195D01*
X136826421Y-77595667D01*
X136826418Y-77595677D01*
X136799500Y-77731004D01*
X136799500Y-77731007D01*
X136799500Y-77868993D01*
X136799500Y-77868995D01*
X136799499Y-77868995D01*
X136826418Y-78004322D01*
X136826421Y-78004332D01*
X136879221Y-78131804D01*
X136879228Y-78131817D01*
X136955885Y-78246541D01*
X136955888Y-78246545D01*
X137053454Y-78344111D01*
X137053458Y-78344114D01*
X137168182Y-78420771D01*
X137168195Y-78420778D01*
X137295667Y-78473578D01*
X137295672Y-78473580D01*
X137295676Y-78473580D01*
X137295677Y-78473581D01*
X137431004Y-78500500D01*
X137431007Y-78500500D01*
X137568994Y-78500500D01*
X137628923Y-78488579D01*
X137638887Y-78486597D01*
X137708478Y-78492824D01*
X137751468Y-78521247D01*
X138563319Y-79346371D01*
X138565536Y-79349539D01*
X138567345Y-79350661D01*
X138576355Y-79364993D01*
X138586894Y-79380046D01*
X138588271Y-79382939D01*
X138629225Y-79481811D01*
X138650452Y-79513579D01*
X138654321Y-79521708D01*
X138658477Y-79547685D01*
X138666337Y-79572789D01*
X138663909Y-79581638D01*
X138665359Y-79590701D01*
X138654810Y-79614800D01*
X138647851Y-79640169D01*
X138645460Y-79643889D01*
X138629230Y-79668179D01*
X138629221Y-79668195D01*
X138576421Y-79795667D01*
X138576418Y-79795677D01*
X138549500Y-79931004D01*
X138549500Y-79931007D01*
X138549500Y-80068993D01*
X138549500Y-80068995D01*
X138549499Y-80068995D01*
X138576418Y-80204322D01*
X138576421Y-80204332D01*
X138629221Y-80331804D01*
X138629228Y-80331817D01*
X138705885Y-80446541D01*
X138705888Y-80446545D01*
X138803454Y-80544111D01*
X138803458Y-80544114D01*
X138918182Y-80620771D01*
X138918195Y-80620778D01*
X139038890Y-80670771D01*
X139045672Y-80673580D01*
X139045676Y-80673580D01*
X139045677Y-80673581D01*
X139181004Y-80700500D01*
X139181007Y-80700500D01*
X139318995Y-80700500D01*
X139420504Y-80680308D01*
X139451808Y-80674081D01*
X139521400Y-80680308D01*
X139576577Y-80723171D01*
X139599822Y-80789060D01*
X139600000Y-80795698D01*
X139600000Y-82846395D01*
X139580315Y-82913434D01*
X139560951Y-82936724D01*
X135837324Y-86438667D01*
X135775003Y-86470256D01*
X135732975Y-86470811D01*
X135598422Y-86449500D01*
X135598417Y-86449500D01*
X135401583Y-86449500D01*
X135401578Y-86449500D01*
X135207173Y-86480290D01*
X135019970Y-86541117D01*
X134844594Y-86630476D01*
X134791581Y-86668993D01*
X134685354Y-86746172D01*
X134685352Y-86746174D01*
X134685351Y-86746174D01*
X134546174Y-86885351D01*
X134546174Y-86885352D01*
X134546172Y-86885354D01*
X134513003Y-86931007D01*
X134430476Y-87044594D01*
X134341117Y-87219970D01*
X134280290Y-87407173D01*
X134249500Y-87601577D01*
X134249500Y-87798422D01*
X134257647Y-87849860D01*
X134248692Y-87919153D01*
X134220125Y-87959587D01*
X129000000Y-92868937D01*
X129000000Y-95148637D01*
X128980315Y-95215676D01*
X128963681Y-95236318D01*
X127466917Y-96733081D01*
X127405594Y-96766566D01*
X127335902Y-96761582D01*
X127291555Y-96733081D01*
X127164648Y-96606174D01*
X127164646Y-96606172D01*
X127005405Y-96490476D01*
X126938370Y-96456320D01*
X126887574Y-96408345D01*
X126870779Y-96340524D01*
X126893316Y-96274389D01*
X126938370Y-96235350D01*
X127057554Y-96174622D01*
X127111716Y-96135270D01*
X127111717Y-96135270D01*
X126479408Y-95502962D01*
X126542993Y-95485925D01*
X126657007Y-95420099D01*
X126750099Y-95327007D01*
X126815925Y-95212993D01*
X126832962Y-95149409D01*
X127465270Y-95781717D01*
X127465270Y-95781716D01*
X127504622Y-95727554D01*
X127601095Y-95538217D01*
X127666757Y-95336130D01*
X127666757Y-95336127D01*
X127700000Y-95126246D01*
X127700000Y-94913753D01*
X127666757Y-94703872D01*
X127666757Y-94703869D01*
X127601095Y-94501782D01*
X127504624Y-94312449D01*
X127465270Y-94258282D01*
X127465269Y-94258282D01*
X126832962Y-94890590D01*
X126815925Y-94827007D01*
X126750099Y-94712993D01*
X126657007Y-94619901D01*
X126542993Y-94554075D01*
X126479409Y-94537037D01*
X127111716Y-93904728D01*
X127057550Y-93865375D01*
X126868217Y-93768904D01*
X126666129Y-93703242D01*
X126456246Y-93670000D01*
X126243754Y-93670000D01*
X126033872Y-93703242D01*
X126033869Y-93703242D01*
X125831782Y-93768904D01*
X125642439Y-93865380D01*
X125588282Y-93904727D01*
X125588282Y-93904728D01*
X126220591Y-94537037D01*
X126157007Y-94554075D01*
X126042993Y-94619901D01*
X125949901Y-94712993D01*
X125884075Y-94827007D01*
X125867037Y-94890591D01*
X125234728Y-94258282D01*
X125234727Y-94258282D01*
X125195380Y-94312439D01*
X125098904Y-94501782D01*
X125033242Y-94703869D01*
X125033242Y-94703872D01*
X125000000Y-94913753D01*
X125000000Y-95126246D01*
X125033242Y-95336127D01*
X125033242Y-95336130D01*
X125098904Y-95538217D01*
X125195375Y-95727550D01*
X125234728Y-95781716D01*
X125867037Y-95149408D01*
X125884075Y-95212993D01*
X125949901Y-95327007D01*
X126042993Y-95420099D01*
X126157007Y-95485925D01*
X126220590Y-95502962D01*
X125588282Y-96135269D01*
X125588282Y-96135270D01*
X125642449Y-96174624D01*
X125761629Y-96235350D01*
X125812425Y-96283325D01*
X125829220Y-96351146D01*
X125806682Y-96417281D01*
X125761630Y-96456319D01*
X125694597Y-96490474D01*
X125626832Y-96539709D01*
X125535354Y-96606172D01*
X125535352Y-96606174D01*
X125535351Y-96606174D01*
X125396174Y-96745351D01*
X125396174Y-96745352D01*
X125396172Y-96745354D01*
X125355437Y-96801421D01*
X125280476Y-96904594D01*
X125191117Y-97079970D01*
X125130290Y-97267173D01*
X125099500Y-97461577D01*
X125099500Y-97658422D01*
X125130290Y-97852826D01*
X125191117Y-98040029D01*
X125280476Y-98215405D01*
X125396172Y-98374646D01*
X125396174Y-98374648D01*
X125523081Y-98501555D01*
X125556566Y-98562878D01*
X125551582Y-98632570D01*
X125523081Y-98676917D01*
X125295074Y-98904923D01*
X125261658Y-98921950D01*
X125171950Y-99011658D01*
X125154923Y-99045074D01*
X125141033Y-99058965D01*
X120736319Y-103463681D01*
X120674996Y-103497166D01*
X120648638Y-103500000D01*
X100742472Y-103500000D01*
X100675433Y-103480315D01*
X100629678Y-103427511D01*
X100619734Y-103358353D01*
X100648759Y-103294797D01*
X100686177Y-103265515D01*
X100707554Y-103254622D01*
X100761716Y-103215270D01*
X100761717Y-103215270D01*
X100129408Y-102582962D01*
X100192993Y-102565925D01*
X100307007Y-102500099D01*
X100400099Y-102407007D01*
X100465925Y-102292993D01*
X100482962Y-102229409D01*
X101115270Y-102861717D01*
X101115270Y-102861716D01*
X101154622Y-102807554D01*
X101251095Y-102618217D01*
X101316757Y-102416130D01*
X101316757Y-102416127D01*
X101350000Y-102206246D01*
X101350000Y-101993753D01*
X101316757Y-101783872D01*
X101316757Y-101783869D01*
X101251095Y-101581782D01*
X101154624Y-101392449D01*
X101115270Y-101338282D01*
X101115269Y-101338282D01*
X100482962Y-101970590D01*
X100465925Y-101907007D01*
X100400099Y-101792993D01*
X100307007Y-101699901D01*
X100192993Y-101634075D01*
X100129409Y-101617037D01*
X100761716Y-100984728D01*
X100707550Y-100945375D01*
X100518217Y-100848904D01*
X100316129Y-100783242D01*
X100106246Y-100750000D01*
X99893754Y-100750000D01*
X99683872Y-100783242D01*
X99683869Y-100783242D01*
X99481782Y-100848904D01*
X99292439Y-100945380D01*
X99238282Y-100984727D01*
X99238282Y-100984728D01*
X99870591Y-101617037D01*
X99807007Y-101634075D01*
X99692993Y-101699901D01*
X99599901Y-101792993D01*
X99534075Y-101907007D01*
X99517037Y-101970591D01*
X98884728Y-101338282D01*
X98884727Y-101338282D01*
X98845380Y-101392440D01*
X98845378Y-101392443D01*
X98784648Y-101511630D01*
X98736673Y-101562426D01*
X98668852Y-101579220D01*
X98602717Y-101556682D01*
X98563679Y-101511628D01*
X98529525Y-101444596D01*
X98492633Y-101393819D01*
X98413828Y-101285354D01*
X98274646Y-101146172D01*
X98115405Y-101030476D01*
X97940029Y-100941117D01*
X97752826Y-100880290D01*
X97558422Y-100849500D01*
X97558417Y-100849500D01*
X97361583Y-100849500D01*
X97361578Y-100849500D01*
X97167173Y-100880290D01*
X96979970Y-100941117D01*
X96804594Y-101030476D01*
X96742895Y-101075304D01*
X96645354Y-101146172D01*
X96645352Y-101146174D01*
X96645351Y-101146174D01*
X96506173Y-101285352D01*
X96394817Y-101438620D01*
X96339486Y-101481285D01*
X96269873Y-101487264D01*
X96208078Y-101454658D01*
X96173721Y-101393819D01*
X96170499Y-101365734D01*
X96170499Y-101218482D01*
X96170498Y-101218475D01*
X96155646Y-101124696D01*
X96098050Y-101011658D01*
X96098046Y-101011654D01*
X96098045Y-101011652D01*
X96008347Y-100921954D01*
X96008344Y-100921952D01*
X96008342Y-100921950D01*
X95926580Y-100880290D01*
X95895301Y-100864352D01*
X95801524Y-100849500D01*
X94038482Y-100849500D01*
X93957519Y-100862323D01*
X93944696Y-100864354D01*
X93831658Y-100921950D01*
X93831657Y-100921951D01*
X93831652Y-100921954D01*
X93741954Y-101011652D01*
X93741951Y-101011657D01*
X93684352Y-101124698D01*
X93669500Y-101218475D01*
X93669500Y-102981517D01*
X93680292Y-103049657D01*
X93684354Y-103075304D01*
X93741950Y-103188342D01*
X93741952Y-103188344D01*
X93741954Y-103188347D01*
X93838558Y-103284951D01*
X93836857Y-103286651D01*
X93871063Y-103331008D01*
X93877044Y-103400621D01*
X93844440Y-103462417D01*
X93783603Y-103496776D01*
X93755513Y-103500000D01*
X93599999Y-103500000D01*
X93386819Y-103713181D01*
X93325496Y-103746666D01*
X93299138Y-103749500D01*
X92713389Y-103749500D01*
X92673728Y-103755781D01*
X92542302Y-103776597D01*
X92377552Y-103830128D01*
X92223211Y-103908768D01*
X92129591Y-103976788D01*
X92129590Y-103976787D01*
X92083078Y-104010581D01*
X92083069Y-104010588D01*
X90660588Y-105433069D01*
X90660588Y-105433070D01*
X90660586Y-105433072D01*
X90616859Y-105493256D01*
X90558768Y-105573211D01*
X90480128Y-105727552D01*
X90426597Y-105892302D01*
X90399500Y-106063389D01*
X90399500Y-106649138D01*
X90379815Y-106716177D01*
X90363181Y-106736819D01*
X83136319Y-113963681D01*
X83074996Y-113997166D01*
X83048638Y-114000000D01*
X75475000Y-114000000D01*
X75475000Y-113937465D01*
X75442630Y-113816657D01*
X75404146Y-113750000D01*
X76347030Y-113750000D01*
X76316757Y-113558872D01*
X76316757Y-113558869D01*
X76251095Y-113356782D01*
X76154620Y-113167442D01*
X76029727Y-112995540D01*
X76029723Y-112995535D01*
X75879464Y-112845276D01*
X75879459Y-112845272D01*
X75707557Y-112720379D01*
X75518215Y-112623903D01*
X75316124Y-112558241D01*
X75250000Y-112547768D01*
X75250000Y-113595854D01*
X75183343Y-113557370D01*
X75062535Y-113525000D01*
X74937465Y-113525000D01*
X74816657Y-113557370D01*
X74750000Y-113595854D01*
X74750000Y-112547768D01*
X74749999Y-112547768D01*
X74683875Y-112558241D01*
X74481784Y-112623903D01*
X74292442Y-112720379D01*
X74120540Y-112845272D01*
X74120535Y-112845276D01*
X73970276Y-112995535D01*
X73970272Y-112995540D01*
X73845377Y-113167444D01*
X73804648Y-113247378D01*
X73756673Y-113298174D01*
X73688852Y-113314968D01*
X73622717Y-113292430D01*
X73583679Y-113247375D01*
X73569526Y-113219598D01*
X73569524Y-113219595D01*
X73453828Y-113060354D01*
X73314646Y-112921172D01*
X73155405Y-112805476D01*
X72980029Y-112716117D01*
X72792826Y-112655290D01*
X72598422Y-112624500D01*
X72598417Y-112624500D01*
X72401583Y-112624500D01*
X72401578Y-112624500D01*
X72207173Y-112655290D01*
X72019970Y-112716117D01*
X71844594Y-112805476D01*
X71789815Y-112845276D01*
X71685354Y-112921172D01*
X71685352Y-112921174D01*
X71685351Y-112921174D01*
X71546173Y-113060352D01*
X71458403Y-113181157D01*
X71403072Y-113223822D01*
X71333459Y-113229801D01*
X71271664Y-113197195D01*
X71239009Y-113142866D01*
X71210755Y-113045620D01*
X71201744Y-113014602D01*
X71118081Y-112873135D01*
X71118079Y-112873133D01*
X71118076Y-112873129D01*
X71001870Y-112756923D01*
X71001862Y-112756917D01*
X70860396Y-112673255D01*
X70860393Y-112673254D01*
X70702573Y-112627402D01*
X70702567Y-112627401D01*
X70665701Y-112624500D01*
X70665694Y-112624500D01*
X70209094Y-112624500D01*
X70142055Y-112604815D01*
X70120375Y-112587131D01*
X64792751Y-107131131D01*
X64759999Y-107069414D01*
X64765812Y-106999786D01*
X64808346Y-106944355D01*
X64874097Y-106920719D01*
X64881470Y-106920500D01*
X77406610Y-106920500D01*
X77406611Y-106920500D01*
X77523245Y-106902027D01*
X77542643Y-106900500D01*
X78686610Y-106900500D01*
X78686611Y-106900500D01*
X78857701Y-106873402D01*
X79022445Y-106819873D01*
X79176788Y-106741232D01*
X79316928Y-106639414D01*
X79439414Y-106516928D01*
X79541232Y-106376788D01*
X79619873Y-106222445D01*
X79673402Y-106057701D01*
X79700500Y-105886611D01*
X79700500Y-105713389D01*
X79673402Y-105542299D01*
X79619873Y-105377555D01*
X79541232Y-105223212D01*
X79439414Y-105083072D01*
X79316928Y-104960586D01*
X79176788Y-104858768D01*
X79022445Y-104780127D01*
X78857701Y-104726598D01*
X78857699Y-104726597D01*
X78857698Y-104726597D01*
X78726271Y-104705781D01*
X78686611Y-104699500D01*
X77426610Y-104699500D01*
X77253389Y-104699500D01*
X77146995Y-104716351D01*
X77136755Y-104717973D01*
X77117357Y-104719500D01*
X63324000Y-104719500D01*
X63256961Y-104699815D01*
X63211206Y-104647011D01*
X63200000Y-104595500D01*
X63200000Y-99993995D01*
X91374499Y-99993995D01*
X91401418Y-100129322D01*
X91401421Y-100129332D01*
X91454221Y-100256804D01*
X91454228Y-100256817D01*
X91530885Y-100371541D01*
X91530888Y-100371545D01*
X91628454Y-100469111D01*
X91628458Y-100469114D01*
X91743182Y-100545771D01*
X91743195Y-100545778D01*
X91870667Y-100598578D01*
X91870672Y-100598580D01*
X91870676Y-100598580D01*
X91870677Y-100598581D01*
X92006004Y-100625500D01*
X92006007Y-100625500D01*
X92143995Y-100625500D01*
X92235041Y-100607389D01*
X92279328Y-100598580D01*
X92406811Y-100545775D01*
X92521542Y-100469114D01*
X92619114Y-100371542D01*
X92695775Y-100256811D01*
X92748580Y-100129328D01*
X92775500Y-99993993D01*
X92775500Y-99856007D01*
X92775500Y-99856004D01*
X92748581Y-99720677D01*
X92748580Y-99720676D01*
X92748580Y-99720672D01*
X92701699Y-99607490D01*
X92695778Y-99593195D01*
X92695771Y-99593182D01*
X92619114Y-99478458D01*
X92619111Y-99478454D01*
X92521545Y-99380888D01*
X92521541Y-99380885D01*
X92406817Y-99304228D01*
X92406804Y-99304221D01*
X92279332Y-99251421D01*
X92279322Y-99251418D01*
X92143995Y-99224500D01*
X92143993Y-99224500D01*
X92006007Y-99224500D01*
X92006005Y-99224500D01*
X91870677Y-99251418D01*
X91870667Y-99251421D01*
X91743195Y-99304221D01*
X91743182Y-99304228D01*
X91628458Y-99380885D01*
X91628454Y-99380888D01*
X91530888Y-99478454D01*
X91530885Y-99478458D01*
X91454228Y-99593182D01*
X91454221Y-99593195D01*
X91401421Y-99720667D01*
X91401418Y-99720677D01*
X91374500Y-99856004D01*
X91374500Y-99856007D01*
X91374500Y-99993993D01*
X91374500Y-99993995D01*
X91374499Y-99993995D01*
X63200000Y-99993995D01*
X63200000Y-97543995D01*
X83599499Y-97543995D01*
X83626418Y-97679322D01*
X83626421Y-97679332D01*
X83679221Y-97806804D01*
X83679228Y-97806817D01*
X83755885Y-97921541D01*
X83755888Y-97921545D01*
X83853454Y-98019111D01*
X83853458Y-98019114D01*
X83968182Y-98095771D01*
X83968195Y-98095778D01*
X84095667Y-98148578D01*
X84095672Y-98148580D01*
X84095676Y-98148580D01*
X84095677Y-98148581D01*
X84231004Y-98175500D01*
X84231007Y-98175500D01*
X84368995Y-98175500D01*
X84482982Y-98152826D01*
X84504328Y-98148580D01*
X84631811Y-98095775D01*
X84746542Y-98019114D01*
X84844114Y-97921542D01*
X84920775Y-97806811D01*
X84973580Y-97679328D01*
X85000500Y-97543995D01*
X90899499Y-97543995D01*
X90926418Y-97679322D01*
X90926421Y-97679332D01*
X90979221Y-97806804D01*
X90979228Y-97806817D01*
X91055885Y-97921541D01*
X91055888Y-97921545D01*
X91153454Y-98019111D01*
X91153458Y-98019114D01*
X91268182Y-98095771D01*
X91268195Y-98095778D01*
X91395667Y-98148578D01*
X91395672Y-98148580D01*
X91395676Y-98148580D01*
X91395677Y-98148581D01*
X91531004Y-98175500D01*
X91531007Y-98175500D01*
X91668995Y-98175500D01*
X91782982Y-98152826D01*
X91804328Y-98148580D01*
X91931811Y-98095775D01*
X92046542Y-98019114D01*
X92144114Y-97921542D01*
X92220775Y-97806811D01*
X92273580Y-97679328D01*
X92300500Y-97543993D01*
X92300500Y-97406007D01*
X92300500Y-97406004D01*
X92273581Y-97270677D01*
X92273580Y-97270676D01*
X92273580Y-97270672D01*
X92246210Y-97204595D01*
X92220778Y-97143195D01*
X92220771Y-97143182D01*
X92144114Y-97028458D01*
X92144111Y-97028454D01*
X92046545Y-96930888D01*
X92046541Y-96930885D01*
X91931817Y-96854228D01*
X91931804Y-96854221D01*
X91804332Y-96801421D01*
X91804322Y-96801418D01*
X91668995Y-96774500D01*
X91668993Y-96774500D01*
X91531007Y-96774500D01*
X91531005Y-96774500D01*
X91395677Y-96801418D01*
X91395667Y-96801421D01*
X91268195Y-96854221D01*
X91268182Y-96854228D01*
X91153458Y-96930885D01*
X91153454Y-96930888D01*
X91055888Y-97028454D01*
X91055885Y-97028458D01*
X90979228Y-97143182D01*
X90979221Y-97143195D01*
X90926421Y-97270667D01*
X90926418Y-97270677D01*
X90899500Y-97406004D01*
X90899500Y-97406007D01*
X90899500Y-97543993D01*
X90899500Y-97543995D01*
X90899499Y-97543995D01*
X85000500Y-97543995D01*
X85000500Y-97543993D01*
X85000500Y-97406007D01*
X85000500Y-97406004D01*
X84973581Y-97270677D01*
X84973580Y-97270676D01*
X84973580Y-97270672D01*
X84946210Y-97204595D01*
X84920778Y-97143195D01*
X84920771Y-97143182D01*
X84844114Y-97028458D01*
X84844111Y-97028454D01*
X84746545Y-96930888D01*
X84746541Y-96930885D01*
X84631817Y-96854228D01*
X84631804Y-96854221D01*
X84504332Y-96801421D01*
X84504322Y-96801418D01*
X84368995Y-96774500D01*
X84368993Y-96774500D01*
X84231007Y-96774500D01*
X84231005Y-96774500D01*
X84095677Y-96801418D01*
X84095667Y-96801421D01*
X83968195Y-96854221D01*
X83968182Y-96854228D01*
X83853458Y-96930885D01*
X83853454Y-96930888D01*
X83755888Y-97028454D01*
X83755885Y-97028458D01*
X83679228Y-97143182D01*
X83679221Y-97143195D01*
X83626421Y-97270667D01*
X83626418Y-97270677D01*
X83599500Y-97406004D01*
X83599500Y-97406007D01*
X83599500Y-97543993D01*
X83599500Y-97543995D01*
X83599499Y-97543995D01*
X63200000Y-97543995D01*
X63200000Y-96048658D01*
X63219685Y-95981619D01*
X63272489Y-95935864D01*
X63341647Y-95925920D01*
X63343399Y-95926185D01*
X63493755Y-95950000D01*
X63706246Y-95950000D01*
X63916127Y-95916757D01*
X63916130Y-95916757D01*
X64118217Y-95851095D01*
X64307554Y-95754622D01*
X64361716Y-95715270D01*
X64361717Y-95715270D01*
X63729409Y-95082962D01*
X63792993Y-95065925D01*
X63907007Y-95000099D01*
X64000099Y-94907007D01*
X64065925Y-94792993D01*
X64082962Y-94729408D01*
X64715270Y-95361717D01*
X64715270Y-95361716D01*
X64754622Y-95307554D01*
X64851095Y-95118217D01*
X64916757Y-94916130D01*
X64916757Y-94916127D01*
X64920978Y-94889483D01*
X64950000Y-94706246D01*
X64950000Y-94493753D01*
X64916757Y-94283872D01*
X64916757Y-94283869D01*
X64851095Y-94081782D01*
X64754624Y-93892449D01*
X64715270Y-93838282D01*
X64715269Y-93838282D01*
X64082962Y-94470590D01*
X64065925Y-94407007D01*
X64000099Y-94292993D01*
X63907007Y-94199901D01*
X63792993Y-94134075D01*
X63729407Y-94117036D01*
X64361716Y-93484728D01*
X64307547Y-93445373D01*
X64307542Y-93445370D01*
X64188370Y-93384648D01*
X64137574Y-93336674D01*
X64120779Y-93268853D01*
X64143317Y-93202718D01*
X64188370Y-93163679D01*
X64255405Y-93129524D01*
X64414646Y-93013828D01*
X64553828Y-92874646D01*
X64669524Y-92715405D01*
X64758884Y-92540025D01*
X64819709Y-92352826D01*
X64828080Y-92299975D01*
X64850500Y-92158422D01*
X64850500Y-91961577D01*
X64822279Y-91783398D01*
X64831234Y-91714105D01*
X64876230Y-91660653D01*
X64942981Y-91640013D01*
X64944752Y-91640000D01*
X65682296Y-91640000D01*
X65749335Y-91659685D01*
X65769977Y-91676319D01*
X67833072Y-93739414D01*
X67973212Y-93841232D01*
X68127555Y-93919873D01*
X68292299Y-93973402D01*
X68463389Y-94000500D01*
X68463390Y-94000500D01*
X75586610Y-94000500D01*
X75586611Y-94000500D01*
X75757701Y-93973402D01*
X75771264Y-93968995D01*
X82549499Y-93968995D01*
X82576418Y-94104322D01*
X82576421Y-94104332D01*
X82629221Y-94231804D01*
X82629228Y-94231817D01*
X82705885Y-94346541D01*
X82705888Y-94346545D01*
X82803454Y-94444111D01*
X82803458Y-94444114D01*
X82918182Y-94520771D01*
X82918195Y-94520778D01*
X83033596Y-94568578D01*
X83045672Y-94573580D01*
X83045676Y-94573580D01*
X83045677Y-94573581D01*
X83181004Y-94600500D01*
X83181007Y-94600500D01*
X83318995Y-94600500D01*
X83410041Y-94582389D01*
X83454328Y-94573580D01*
X83581811Y-94520775D01*
X83696542Y-94444114D01*
X83794114Y-94346542D01*
X83870775Y-94231811D01*
X83923580Y-94104328D01*
X83932389Y-94060041D01*
X83950500Y-93968995D01*
X83950500Y-93963995D01*
X92194499Y-93963995D01*
X92221418Y-94099322D01*
X92221421Y-94099332D01*
X92274221Y-94226804D01*
X92274228Y-94226817D01*
X92350885Y-94341541D01*
X92350888Y-94341545D01*
X92448454Y-94439111D01*
X92448458Y-94439114D01*
X92563182Y-94515771D01*
X92563195Y-94515778D01*
X92690667Y-94568578D01*
X92690672Y-94568580D01*
X92690676Y-94568580D01*
X92690677Y-94568581D01*
X92826004Y-94595500D01*
X92826007Y-94595500D01*
X92963995Y-94595500D01*
X93074191Y-94573580D01*
X93099328Y-94568580D01*
X93226811Y-94515775D01*
X93341542Y-94439114D01*
X93439114Y-94341542D01*
X93515775Y-94226811D01*
X93568580Y-94099328D01*
X93588396Y-93999709D01*
X93595500Y-93963995D01*
X93595500Y-93826004D01*
X93568581Y-93690677D01*
X93568580Y-93690676D01*
X93568580Y-93690672D01*
X93568578Y-93690667D01*
X93515778Y-93563195D01*
X93515771Y-93563182D01*
X93439114Y-93448458D01*
X93439111Y-93448454D01*
X93341545Y-93350888D01*
X93341541Y-93350885D01*
X93226817Y-93274228D01*
X93226804Y-93274221D01*
X93099332Y-93221421D01*
X93099322Y-93221418D01*
X92963995Y-93194500D01*
X92963993Y-93194500D01*
X92826007Y-93194500D01*
X92826005Y-93194500D01*
X92690677Y-93221418D01*
X92690667Y-93221421D01*
X92563195Y-93274221D01*
X92563182Y-93274228D01*
X92448458Y-93350885D01*
X92448454Y-93350888D01*
X92350888Y-93448454D01*
X92350885Y-93448458D01*
X92274228Y-93563182D01*
X92274221Y-93563195D01*
X92221421Y-93690667D01*
X92221418Y-93690677D01*
X92194500Y-93826004D01*
X92194500Y-93826007D01*
X92194500Y-93963993D01*
X92194500Y-93963995D01*
X92194499Y-93963995D01*
X83950500Y-93963995D01*
X83950500Y-93831004D01*
X83923581Y-93695677D01*
X83923580Y-93695676D01*
X83923580Y-93695672D01*
X83921507Y-93690667D01*
X83870778Y-93568195D01*
X83870771Y-93568182D01*
X83794114Y-93453458D01*
X83794111Y-93453454D01*
X83696545Y-93355888D01*
X83696541Y-93355885D01*
X83581817Y-93279228D01*
X83581804Y-93279221D01*
X83454332Y-93226421D01*
X83454322Y-93226418D01*
X83318995Y-93199500D01*
X83318993Y-93199500D01*
X83181007Y-93199500D01*
X83181005Y-93199500D01*
X83045677Y-93226418D01*
X83045667Y-93226421D01*
X82918195Y-93279221D01*
X82918182Y-93279228D01*
X82803458Y-93355885D01*
X82803454Y-93355888D01*
X82705888Y-93453454D01*
X82705885Y-93453458D01*
X82629228Y-93568182D01*
X82629221Y-93568195D01*
X82576421Y-93695667D01*
X82576418Y-93695677D01*
X82549500Y-93831004D01*
X82549500Y-93831007D01*
X82549500Y-93968993D01*
X82549500Y-93968995D01*
X82549499Y-93968995D01*
X75771264Y-93968995D01*
X75922445Y-93919873D01*
X76076788Y-93841232D01*
X76216928Y-93739414D01*
X76689414Y-93266928D01*
X76791232Y-93126788D01*
X76869873Y-92972445D01*
X76923402Y-92807701D01*
X76950500Y-92636611D01*
X76950500Y-92463389D01*
X76950500Y-91764000D01*
X76970185Y-91696961D01*
X77022989Y-91651206D01*
X77074500Y-91640000D01*
X106360000Y-91640000D01*
X114831005Y-83168995D01*
X136099499Y-83168995D01*
X136126418Y-83304322D01*
X136126421Y-83304332D01*
X136179221Y-83431804D01*
X136179228Y-83431817D01*
X136255885Y-83546541D01*
X136255888Y-83546545D01*
X136353454Y-83644111D01*
X136353458Y-83644114D01*
X136468182Y-83720771D01*
X136468195Y-83720778D01*
X136552969Y-83755892D01*
X136595672Y-83773580D01*
X136595676Y-83773580D01*
X136595677Y-83773581D01*
X136731004Y-83800500D01*
X136731007Y-83800500D01*
X136868995Y-83800500D01*
X136960041Y-83782389D01*
X137004328Y-83773580D01*
X137131811Y-83720775D01*
X137246542Y-83644114D01*
X137344114Y-83546542D01*
X137420775Y-83431811D01*
X137473580Y-83304328D01*
X137500500Y-83168993D01*
X137500500Y-83031007D01*
X137500500Y-83031004D01*
X137473581Y-82895677D01*
X137473580Y-82895676D01*
X137473580Y-82895672D01*
X137453169Y-82846395D01*
X137420778Y-82768195D01*
X137420771Y-82768182D01*
X137344114Y-82653458D01*
X137344111Y-82653454D01*
X137246545Y-82555888D01*
X137246541Y-82555885D01*
X137131817Y-82479228D01*
X137131804Y-82479221D01*
X137004332Y-82426421D01*
X137004322Y-82426418D01*
X136868995Y-82399500D01*
X136868993Y-82399500D01*
X136731007Y-82399500D01*
X136731005Y-82399500D01*
X136595677Y-82426418D01*
X136595667Y-82426421D01*
X136468195Y-82479221D01*
X136468182Y-82479228D01*
X136353458Y-82555885D01*
X136353454Y-82555888D01*
X136255888Y-82653454D01*
X136255885Y-82653458D01*
X136179228Y-82768182D01*
X136179221Y-82768195D01*
X136126421Y-82895667D01*
X136126418Y-82895677D01*
X136099500Y-83031004D01*
X136099500Y-83031007D01*
X136099500Y-83168993D01*
X136099500Y-83168995D01*
X136099499Y-83168995D01*
X114831005Y-83168995D01*
X117881005Y-80118995D01*
X133349499Y-80118995D01*
X133376418Y-80254322D01*
X133376421Y-80254332D01*
X133429221Y-80381804D01*
X133429228Y-80381817D01*
X133505885Y-80496541D01*
X133505888Y-80496545D01*
X133603454Y-80594111D01*
X133603458Y-80594114D01*
X133718182Y-80670771D01*
X133718195Y-80670778D01*
X133845667Y-80723578D01*
X133845672Y-80723580D01*
X133845676Y-80723580D01*
X133845677Y-80723581D01*
X133981004Y-80750500D01*
X133981007Y-80750500D01*
X134118995Y-80750500D01*
X134210041Y-80732389D01*
X134254328Y-80723580D01*
X134381811Y-80670775D01*
X134496542Y-80594114D01*
X134594114Y-80496542D01*
X134670775Y-80381811D01*
X134723580Y-80254328D01*
X134750500Y-80118993D01*
X134750500Y-79981007D01*
X134750500Y-79981004D01*
X134723581Y-79845677D01*
X134723580Y-79845676D01*
X134723580Y-79845672D01*
X134707100Y-79805886D01*
X134670778Y-79718195D01*
X134670771Y-79718182D01*
X134594114Y-79603458D01*
X134594111Y-79603454D01*
X134496545Y-79505888D01*
X134496541Y-79505885D01*
X134381817Y-79429228D01*
X134381804Y-79429221D01*
X134254332Y-79376421D01*
X134254322Y-79376418D01*
X134118995Y-79349500D01*
X134118993Y-79349500D01*
X133981007Y-79349500D01*
X133981005Y-79349500D01*
X133845677Y-79376418D01*
X133845667Y-79376421D01*
X133718195Y-79429221D01*
X133718182Y-79429228D01*
X133603458Y-79505885D01*
X133603454Y-79505888D01*
X133505888Y-79603454D01*
X133505885Y-79603458D01*
X133429228Y-79718182D01*
X133429221Y-79718195D01*
X133376421Y-79845667D01*
X133376418Y-79845677D01*
X133349500Y-79981004D01*
X133349500Y-79981007D01*
X133349500Y-80118993D01*
X133349500Y-80118995D01*
X133349499Y-80118995D01*
X117881005Y-80118995D01*
X120397845Y-77602155D01*
X122350000Y-77602155D01*
X122350000Y-78250000D01*
X123266988Y-78250000D01*
X123234075Y-78307007D01*
X123200000Y-78434174D01*
X123200000Y-78565826D01*
X123234075Y-78692993D01*
X123266988Y-78750000D01*
X122350000Y-78750000D01*
X122350000Y-79397844D01*
X122356401Y-79457372D01*
X122356403Y-79457379D01*
X122406645Y-79592086D01*
X122406649Y-79592093D01*
X122492809Y-79707187D01*
X122492812Y-79707190D01*
X122607906Y-79793350D01*
X122607913Y-79793354D01*
X122742620Y-79843596D01*
X122742627Y-79843598D01*
X122802155Y-79849999D01*
X122802172Y-79850000D01*
X123450000Y-79850000D01*
X123450000Y-78933012D01*
X123507007Y-78965925D01*
X123634174Y-79000000D01*
X123765826Y-79000000D01*
X123892993Y-78965925D01*
X123950000Y-78933012D01*
X123950000Y-79850000D01*
X124597828Y-79850000D01*
X124597844Y-79849999D01*
X124657372Y-79843598D01*
X124657379Y-79843596D01*
X124792086Y-79793354D01*
X124792093Y-79793350D01*
X124907187Y-79707190D01*
X124907190Y-79707187D01*
X124993350Y-79592093D01*
X124993354Y-79592086D01*
X125043596Y-79457379D01*
X125043598Y-79457372D01*
X125049999Y-79397844D01*
X125050000Y-79397827D01*
X125050000Y-78750000D01*
X124133012Y-78750000D01*
X124165925Y-78692993D01*
X124200000Y-78565826D01*
X124200000Y-78434174D01*
X124165925Y-78307007D01*
X124133012Y-78250000D01*
X125050000Y-78250000D01*
X125050000Y-77602172D01*
X125049999Y-77602155D01*
X125043598Y-77542627D01*
X125043596Y-77542620D01*
X124993354Y-77407913D01*
X124993350Y-77407906D01*
X124907190Y-77292812D01*
X124907187Y-77292809D01*
X124792093Y-77206649D01*
X124792086Y-77206645D01*
X124657379Y-77156403D01*
X124657372Y-77156401D01*
X124597844Y-77150000D01*
X123950000Y-77150000D01*
X123950000Y-78066988D01*
X123892993Y-78034075D01*
X123765826Y-78000000D01*
X123634174Y-78000000D01*
X123507007Y-78034075D01*
X123450000Y-78066988D01*
X123450000Y-77150000D01*
X122802155Y-77150000D01*
X122742627Y-77156401D01*
X122742620Y-77156403D01*
X122607913Y-77206645D01*
X122607906Y-77206649D01*
X122492812Y-77292809D01*
X122492809Y-77292812D01*
X122406649Y-77407906D01*
X122406645Y-77407913D01*
X122356403Y-77542620D01*
X122356401Y-77542627D01*
X122350000Y-77602155D01*
X120397845Y-77602155D01*
X122231005Y-75768995D01*
X133374499Y-75768995D01*
X133401418Y-75904322D01*
X133401421Y-75904332D01*
X133454221Y-76031804D01*
X133454228Y-76031817D01*
X133530885Y-76146541D01*
X133530888Y-76146545D01*
X133628454Y-76244111D01*
X133628458Y-76244114D01*
X133743182Y-76320771D01*
X133743195Y-76320778D01*
X133870667Y-76373578D01*
X133870672Y-76373580D01*
X133870676Y-76373580D01*
X133870677Y-76373581D01*
X134006004Y-76400500D01*
X134006007Y-76400500D01*
X134143995Y-76400500D01*
X134235041Y-76382389D01*
X134279328Y-76373580D01*
X134406811Y-76320775D01*
X134521542Y-76244114D01*
X134619114Y-76146542D01*
X134695775Y-76031811D01*
X134748580Y-75904328D01*
X134775500Y-75768993D01*
X134775500Y-75631007D01*
X134775500Y-75631004D01*
X134748581Y-75495677D01*
X134748580Y-75495676D01*
X134748580Y-75495672D01*
X134705524Y-75391725D01*
X134695778Y-75368195D01*
X134695771Y-75368182D01*
X134619114Y-75253458D01*
X134619111Y-75253454D01*
X134521545Y-75155888D01*
X134521541Y-75155885D01*
X134406817Y-75079228D01*
X134406804Y-75079221D01*
X134279332Y-75026421D01*
X134279322Y-75026418D01*
X134143995Y-74999500D01*
X134143993Y-74999500D01*
X134006007Y-74999500D01*
X134006005Y-74999500D01*
X133870677Y-75026418D01*
X133870667Y-75026421D01*
X133743195Y-75079221D01*
X133743182Y-75079228D01*
X133628458Y-75155885D01*
X133628454Y-75155888D01*
X133530888Y-75253454D01*
X133530885Y-75253458D01*
X133454228Y-75368182D01*
X133454221Y-75368195D01*
X133401421Y-75495667D01*
X133401418Y-75495677D01*
X133374500Y-75631004D01*
X133374500Y-75631007D01*
X133374500Y-75768993D01*
X133374500Y-75768995D01*
X133374499Y-75768995D01*
X122231005Y-75768995D01*
X124188181Y-73811819D01*
X124249504Y-73778334D01*
X124275862Y-73775500D01*
X126034481Y-73775500D01*
X126101520Y-73795185D01*
X126147275Y-73847989D01*
X126157219Y-73917147D01*
X126128194Y-73980703D01*
X126122162Y-73987181D01*
X126055888Y-74053454D01*
X126055885Y-74053458D01*
X125979228Y-74168182D01*
X125979221Y-74168195D01*
X125926421Y-74295667D01*
X125926418Y-74295677D01*
X125899500Y-74431004D01*
X125899500Y-74431007D01*
X125899500Y-74568993D01*
X125899500Y-74568995D01*
X125899499Y-74568995D01*
X125926418Y-74704322D01*
X125926421Y-74704332D01*
X125979221Y-74831804D01*
X125979228Y-74831817D01*
X126055885Y-74946541D01*
X126055888Y-74946545D01*
X126153454Y-75044111D01*
X126153458Y-75044114D01*
X126268182Y-75120771D01*
X126268195Y-75120778D01*
X126395667Y-75173578D01*
X126395672Y-75173580D01*
X126395676Y-75173580D01*
X126395677Y-75173581D01*
X126531004Y-75200500D01*
X126531007Y-75200500D01*
X126668995Y-75200500D01*
X126785450Y-75177335D01*
X126804328Y-75173580D01*
X126931811Y-75120775D01*
X127046542Y-75044114D01*
X127144114Y-74946542D01*
X127220775Y-74831811D01*
X127273580Y-74704328D01*
X127294233Y-74600500D01*
X127300500Y-74568995D01*
X127300500Y-74431004D01*
X127273581Y-74295677D01*
X127273580Y-74295676D01*
X127273580Y-74295672D01*
X127273578Y-74295667D01*
X127220778Y-74168195D01*
X127220771Y-74168182D01*
X127144114Y-74053458D01*
X127144111Y-74053454D01*
X127077838Y-73987181D01*
X127044353Y-73925858D01*
X127049337Y-73856166D01*
X127091209Y-73800233D01*
X127156673Y-73775816D01*
X127165519Y-73775500D01*
X127791403Y-73775500D01*
X127791419Y-73775501D01*
X127799015Y-73775501D01*
X127937379Y-73775501D01*
X127937381Y-73775501D01*
X128007653Y-73756671D01*
X128042790Y-73747256D01*
X128042791Y-73747255D01*
X128071034Y-73739688D01*
X128190863Y-73670505D01*
X128288703Y-73572665D01*
X128288703Y-73572663D01*
X128298907Y-73562460D01*
X128298911Y-73562455D01*
X128592371Y-73268995D01*
X133374499Y-73268995D01*
X133401418Y-73404322D01*
X133401421Y-73404332D01*
X133454221Y-73531804D01*
X133454228Y-73531817D01*
X133530885Y-73646541D01*
X133530888Y-73646545D01*
X133628454Y-73744111D01*
X133628458Y-73744114D01*
X133743182Y-73820771D01*
X133743195Y-73820778D01*
X133870667Y-73873578D01*
X133870672Y-73873580D01*
X133870676Y-73873580D01*
X133870677Y-73873581D01*
X134006004Y-73900500D01*
X134006007Y-73900500D01*
X134143995Y-73900500D01*
X134250949Y-73879225D01*
X134279328Y-73873580D01*
X134406811Y-73820775D01*
X134521542Y-73744114D01*
X134619114Y-73646542D01*
X134695775Y-73531811D01*
X134748580Y-73404328D01*
X134775500Y-73268993D01*
X134775500Y-73131007D01*
X134775500Y-73131004D01*
X134748581Y-72995677D01*
X134748580Y-72995676D01*
X134748580Y-72995672D01*
X134709159Y-72900500D01*
X134695778Y-72868195D01*
X134695771Y-72868182D01*
X134619114Y-72753458D01*
X134619111Y-72753454D01*
X134521545Y-72655888D01*
X134521541Y-72655885D01*
X134406817Y-72579228D01*
X134406804Y-72579221D01*
X134279332Y-72526421D01*
X134279322Y-72526418D01*
X134143995Y-72499500D01*
X134143993Y-72499500D01*
X134006007Y-72499500D01*
X134006005Y-72499500D01*
X133870677Y-72526418D01*
X133870667Y-72526421D01*
X133743195Y-72579221D01*
X133743182Y-72579228D01*
X133628458Y-72655885D01*
X133628454Y-72655888D01*
X133530888Y-72753454D01*
X133530885Y-72753458D01*
X133454228Y-72868182D01*
X133454221Y-72868195D01*
X133401421Y-72995667D01*
X133401418Y-72995677D01*
X133374500Y-73131004D01*
X133374500Y-73131007D01*
X133374500Y-73268993D01*
X133374500Y-73268995D01*
X133374499Y-73268995D01*
X128592371Y-73268995D01*
X130142371Y-71718995D01*
X135199499Y-71718995D01*
X135226418Y-71854322D01*
X135226421Y-71854332D01*
X135279221Y-71981804D01*
X135279228Y-71981817D01*
X135355885Y-72096541D01*
X135355888Y-72096545D01*
X135453454Y-72194111D01*
X135453458Y-72194114D01*
X135568182Y-72270771D01*
X135568195Y-72270778D01*
X135682657Y-72318189D01*
X135695672Y-72323580D01*
X135695676Y-72323580D01*
X135695677Y-72323581D01*
X135831004Y-72350500D01*
X135831007Y-72350500D01*
X135968995Y-72350500D01*
X136060041Y-72332389D01*
X136104328Y-72323580D01*
X136231811Y-72270775D01*
X136346542Y-72194114D01*
X136444114Y-72096542D01*
X136520775Y-71981811D01*
X136525447Y-71970533D01*
X136566265Y-71871987D01*
X136573580Y-71854328D01*
X136589105Y-71776281D01*
X136600500Y-71718995D01*
X136600500Y-71581004D01*
X136573581Y-71445677D01*
X136573580Y-71445676D01*
X136573580Y-71445672D01*
X136572935Y-71444114D01*
X136520778Y-71318195D01*
X136520771Y-71318182D01*
X136444114Y-71203458D01*
X136444111Y-71203454D01*
X136346545Y-71105888D01*
X136346541Y-71105885D01*
X136231817Y-71029228D01*
X136231804Y-71029221D01*
X136104332Y-70976421D01*
X136104322Y-70976418D01*
X135968995Y-70949500D01*
X135968993Y-70949500D01*
X135831007Y-70949500D01*
X135831005Y-70949500D01*
X135695677Y-70976418D01*
X135695667Y-70976421D01*
X135568195Y-71029221D01*
X135568182Y-71029228D01*
X135453458Y-71105885D01*
X135453454Y-71105888D01*
X135355888Y-71203454D01*
X135355885Y-71203458D01*
X135279228Y-71318182D01*
X135279221Y-71318195D01*
X135226421Y-71445667D01*
X135226418Y-71445677D01*
X135199500Y-71581004D01*
X135199500Y-71581007D01*
X135199500Y-71718993D01*
X135199500Y-71718995D01*
X135199499Y-71718995D01*
X130142371Y-71718995D01*
X131115859Y-70745507D01*
X131115862Y-70745506D01*
X131213702Y-70647666D01*
X131228884Y-70621367D01*
X131238118Y-70611314D01*
X131239469Y-70610499D01*
X131241757Y-70607517D01*
X131771505Y-70077772D01*
X131773749Y-70073884D01*
X131793461Y-70048194D01*
X131797539Y-70044115D01*
X131797542Y-70044114D01*
X131895114Y-69946542D01*
X131971775Y-69831811D01*
X132024580Y-69704328D01*
X132041754Y-69617988D01*
X132051500Y-69568995D01*
X132051500Y-69431004D01*
X132024581Y-69295677D01*
X132024580Y-69295676D01*
X132024580Y-69295672D01*
X132015429Y-69273580D01*
X131971778Y-69168195D01*
X131971771Y-69168182D01*
X131895114Y-69053458D01*
X131895111Y-69053454D01*
X131815868Y-68974211D01*
X131782383Y-68912888D01*
X131781932Y-68862338D01*
X131783216Y-68855886D01*
X131798465Y-68779225D01*
X131800500Y-68768995D01*
X131800500Y-68631004D01*
X131773581Y-68495677D01*
X131773580Y-68495676D01*
X131773580Y-68495672D01*
X131772343Y-68492686D01*
X131720778Y-68368195D01*
X131720771Y-68368182D01*
X131644114Y-68253458D01*
X131644111Y-68253454D01*
X131546545Y-68155888D01*
X131546541Y-68155885D01*
X131431817Y-68079228D01*
X131431804Y-68079221D01*
X131304332Y-68026421D01*
X131304322Y-68026418D01*
X131168995Y-67999500D01*
X131168993Y-67999500D01*
X131031007Y-67999500D01*
X131031005Y-67999500D01*
X130895677Y-68026418D01*
X130895667Y-68026421D01*
X130768195Y-68079221D01*
X130768182Y-68079228D01*
X130653458Y-68155885D01*
X130653454Y-68155888D01*
X130555888Y-68253454D01*
X130555885Y-68253458D01*
X130479228Y-68368182D01*
X130479225Y-68368189D01*
X130465832Y-68400522D01*
X130421990Y-68454925D01*
X130355696Y-68476989D01*
X130303819Y-68467630D01*
X130273145Y-68454925D01*
X130204328Y-68426420D01*
X130204323Y-68426419D01*
X130204322Y-68426418D01*
X130068995Y-68399500D01*
X130068993Y-68399500D01*
X129931007Y-68399500D01*
X129930999Y-68399500D01*
X129919346Y-68401818D01*
X129849754Y-68395588D01*
X129794579Y-68352722D01*
X129771337Y-68286831D01*
X129787409Y-68218835D01*
X129807472Y-68192527D01*
X130581004Y-67418995D01*
X134999499Y-67418995D01*
X135026418Y-67554322D01*
X135026421Y-67554332D01*
X135079221Y-67681804D01*
X135079228Y-67681817D01*
X135155885Y-67796541D01*
X135155888Y-67796545D01*
X135253454Y-67894111D01*
X135253458Y-67894114D01*
X135368182Y-67970771D01*
X135368195Y-67970778D01*
X135455195Y-68006814D01*
X135495672Y-68023580D01*
X135495676Y-68023580D01*
X135495677Y-68023581D01*
X135631004Y-68050500D01*
X135631007Y-68050500D01*
X135768995Y-68050500D01*
X135890050Y-68026420D01*
X135904328Y-68023580D01*
X136031811Y-67970775D01*
X136146542Y-67894114D01*
X136244114Y-67796542D01*
X136320775Y-67681811D01*
X136373580Y-67554328D01*
X136384486Y-67499500D01*
X136400500Y-67418995D01*
X136400500Y-67281004D01*
X136373581Y-67145677D01*
X136373580Y-67145676D01*
X136373580Y-67145672D01*
X136354869Y-67100500D01*
X136320778Y-67018195D01*
X136320771Y-67018182D01*
X136244114Y-66903458D01*
X136244111Y-66903454D01*
X136146545Y-66805888D01*
X136146541Y-66805885D01*
X136031817Y-66729228D01*
X136031804Y-66729221D01*
X135904332Y-66676421D01*
X135904322Y-66676418D01*
X135768995Y-66649500D01*
X135768993Y-66649500D01*
X135631007Y-66649500D01*
X135631005Y-66649500D01*
X135495677Y-66676418D01*
X135495667Y-66676421D01*
X135368195Y-66729221D01*
X135368182Y-66729228D01*
X135253458Y-66805885D01*
X135253454Y-66805888D01*
X135155888Y-66903454D01*
X135155885Y-66903458D01*
X135079228Y-67018182D01*
X135079221Y-67018195D01*
X135026421Y-67145667D01*
X135026418Y-67145677D01*
X134999500Y-67281004D01*
X134999500Y-67281007D01*
X134999500Y-67418993D01*
X134999500Y-67418995D01*
X134999499Y-67418995D01*
X130581004Y-67418995D01*
X131863681Y-66136319D01*
X131925004Y-66102834D01*
X131951362Y-66100000D01*
X137576000Y-66100000D01*
X137643039Y-66119685D01*
G37*
G04 #@! TD.AperFunction*
G04 #@! TA.AperFunction,Conductor*
G36*
X99534075Y-102292993D02*
G01*
X99599901Y-102407007D01*
X99692993Y-102500099D01*
X99807007Y-102565925D01*
X99870590Y-102582962D01*
X99238282Y-103215269D01*
X99238282Y-103215270D01*
X99292449Y-103254624D01*
X99313823Y-103265515D01*
X99364619Y-103313490D01*
X99381414Y-103381311D01*
X99358877Y-103447446D01*
X99304161Y-103490897D01*
X99257528Y-103500000D01*
X97980850Y-103500000D01*
X97913811Y-103480315D01*
X97868056Y-103427511D01*
X97858112Y-103358353D01*
X97887137Y-103294797D01*
X97936170Y-103262287D01*
X97935532Y-103260745D01*
X97940015Y-103258887D01*
X97940025Y-103258884D01*
X98115405Y-103169524D01*
X98274646Y-103053828D01*
X98413828Y-102914646D01*
X98529524Y-102755405D01*
X98563679Y-102688370D01*
X98611652Y-102637575D01*
X98679473Y-102620779D01*
X98745608Y-102643316D01*
X98784648Y-102688370D01*
X98845370Y-102807542D01*
X98845373Y-102807547D01*
X98884728Y-102861716D01*
X99517037Y-102229408D01*
X99534075Y-102292993D01*
G37*
G04 #@! TD.AperFunction*
G04 #@! TD*
G04 #@! TA.AperFunction,Conductor*
G04 #@! TO.N,Net-(J3-Pin_6)*
G36*
X61916333Y-91300000D02*
G01*
X61916333Y-92700000D01*
X63434173Y-92893667D01*
X63601000Y-92060000D01*
X63434173Y-91226333D01*
X61916333Y-91300000D01*
G37*
G04 #@! TD.AperFunction*
G04 #@! TD*
G04 #@! TA.AperFunction,Conductor*
G04 #@! TO.N,+3V3*
G36*
X61072993Y-105119060D02*
G01*
X61080934Y-105123200D01*
X61083667Y-105130715D01*
X61083667Y-106509284D01*
X61080240Y-106517557D01*
X61072993Y-106520939D01*
X59576269Y-106652747D01*
X59567728Y-106650059D01*
X59563770Y-106643388D01*
X59539266Y-106520939D01*
X59399459Y-105822293D01*
X59399459Y-105817704D01*
X59539079Y-105120000D01*
X59563770Y-104996610D01*
X59568754Y-104989171D01*
X59576267Y-104987252D01*
X61072993Y-105119060D01*
G37*
G04 #@! TD.AperFunction*
G04 #@! TD*
M02*
